<?xml version="1.0" encoding="utf-8"?>
<svg xmlns="http://www.w3.org/2000/svg" xmlns:xlink="http://www.w3.org/1999/xlink" width="600" height="400" viewBox="0 0 2400 1600">
<defs>
  <clipPath id="clip180">
    <rect x="0" y="0" width="2400" height="1600"/>
  </clipPath>
</defs>
<path clip-path="url(#clip180)" d="M0 1600 L2400 1600 L2400 0 L0 0  Z" fill="#ffffff" fill-rule="evenodd" fill-opacity="1"/>
<defs>
  <clipPath id="clip181">
    <rect x="480" y="0" width="1681" height="1600"/>
  </clipPath>
</defs>
<path clip-path="url(#clip180)" d="M249.542 1423.18 L2352.76 1423.18 L2352.76 106.192 L249.542 106.192  Z" fill="#ffffff" fill-rule="evenodd" fill-opacity="1"/>
<defs>
  <clipPath id="clip182">
    <rect x="249" y="106" width="2104" height="1318"/>
  </clipPath>
</defs>
<polyline clip-path="url(#clip182)" style="stroke:#000000; stroke-linecap:round; stroke-linejoin:round; stroke-width:2; stroke-opacity:0.1; fill:none" points="305.091,1423.18 305.091,106.192 "/>
<polyline clip-path="url(#clip182)" style="stroke:#000000; stroke-linecap:round; stroke-linejoin:round; stroke-width:2; stroke-opacity:0.1; fill:none" points="702.719,1423.18 702.719,106.192 "/>
<polyline clip-path="url(#clip182)" style="stroke:#000000; stroke-linecap:round; stroke-linejoin:round; stroke-width:2; stroke-opacity:0.1; fill:none" points="1100.35,1423.18 1100.35,106.192 "/>
<polyline clip-path="url(#clip182)" style="stroke:#000000; stroke-linecap:round; stroke-linejoin:round; stroke-width:2; stroke-opacity:0.1; fill:none" points="1497.97,1423.18 1497.97,106.192 "/>
<polyline clip-path="url(#clip182)" style="stroke:#000000; stroke-linecap:round; stroke-linejoin:round; stroke-width:2; stroke-opacity:0.1; fill:none" points="1895.6,1423.18 1895.6,106.192 "/>
<polyline clip-path="url(#clip182)" style="stroke:#000000; stroke-linecap:round; stroke-linejoin:round; stroke-width:2; stroke-opacity:0.1; fill:none" points="2293.23,1423.18 2293.23,106.192 "/>
<polyline clip-path="url(#clip180)" style="stroke:#000000; stroke-linecap:round; stroke-linejoin:round; stroke-width:4; stroke-opacity:1; fill:none" points="249.542,1423.18 2352.76,1423.18 "/>
<polyline clip-path="url(#clip180)" style="stroke:#000000; stroke-linecap:round; stroke-linejoin:round; stroke-width:4; stroke-opacity:1; fill:none" points="305.091,1423.18 305.091,1404.28 "/>
<polyline clip-path="url(#clip180)" style="stroke:#000000; stroke-linecap:round; stroke-linejoin:round; stroke-width:4; stroke-opacity:1; fill:none" points="702.719,1423.18 702.719,1404.28 "/>
<polyline clip-path="url(#clip180)" style="stroke:#000000; stroke-linecap:round; stroke-linejoin:round; stroke-width:4; stroke-opacity:1; fill:none" points="1100.35,1423.18 1100.35,1404.28 "/>
<polyline clip-path="url(#clip180)" style="stroke:#000000; stroke-linecap:round; stroke-linejoin:round; stroke-width:4; stroke-opacity:1; fill:none" points="1497.97,1423.18 1497.97,1404.28 "/>
<polyline clip-path="url(#clip180)" style="stroke:#000000; stroke-linecap:round; stroke-linejoin:round; stroke-width:4; stroke-opacity:1; fill:none" points="1895.6,1423.18 1895.6,1404.28 "/>
<polyline clip-path="url(#clip180)" style="stroke:#000000; stroke-linecap:round; stroke-linejoin:round; stroke-width:4; stroke-opacity:1; fill:none" points="2293.23,1423.18 2293.23,1404.28 "/>
<path clip-path="url(#clip180)" d="M305.091 1454.1 Q301.48 1454.1 299.651 1457.66 Q297.845 1461.2 297.845 1468.33 Q297.845 1475.44 299.651 1479.01 Q301.48 1482.55 305.091 1482.55 Q308.725 1482.55 310.53 1479.01 Q312.359 1475.44 312.359 1468.33 Q312.359 1461.2 310.53 1457.66 Q308.725 1454.1 305.091 1454.1 M305.091 1450.39 Q310.901 1450.39 313.956 1455 Q317.035 1459.58 317.035 1468.33 Q317.035 1477.06 313.956 1481.67 Q310.901 1486.25 305.091 1486.25 Q299.281 1486.25 296.202 1481.67 Q293.146 1477.06 293.146 1468.33 Q293.146 1459.58 296.202 1455 Q299.281 1450.39 305.091 1450.39 Z" fill="#000000" fill-rule="nonzero" fill-opacity="1" /><path clip-path="url(#clip180)" d="M662.325 1481.64 L669.964 1481.64 L669.964 1455.28 L661.654 1456.95 L661.654 1452.69 L669.918 1451.02 L674.594 1451.02 L674.594 1481.64 L682.233 1481.64 L682.233 1485.58 L662.325 1485.58 L662.325 1481.64 Z" fill="#000000" fill-rule="nonzero" fill-opacity="1" /><path clip-path="url(#clip180)" d="M701.677 1454.1 Q698.066 1454.1 696.237 1457.66 Q694.432 1461.2 694.432 1468.33 Q694.432 1475.44 696.237 1479.01 Q698.066 1482.55 701.677 1482.55 Q705.311 1482.55 707.117 1479.01 Q708.946 1475.44 708.946 1468.33 Q708.946 1461.2 707.117 1457.66 Q705.311 1454.1 701.677 1454.1 M701.677 1450.39 Q707.487 1450.39 710.543 1455 Q713.621 1459.58 713.621 1468.33 Q713.621 1477.06 710.543 1481.67 Q707.487 1486.25 701.677 1486.25 Q695.867 1486.25 692.788 1481.67 Q689.733 1477.06 689.733 1468.33 Q689.733 1459.58 692.788 1455 Q695.867 1450.39 701.677 1450.39 Z" fill="#000000" fill-rule="nonzero" fill-opacity="1" /><path clip-path="url(#clip180)" d="M731.839 1454.1 Q728.228 1454.1 726.399 1457.66 Q724.594 1461.2 724.594 1468.33 Q724.594 1475.44 726.399 1479.01 Q728.228 1482.55 731.839 1482.55 Q735.473 1482.55 737.279 1479.01 Q739.107 1475.44 739.107 1468.33 Q739.107 1461.2 737.279 1457.66 Q735.473 1454.1 731.839 1454.1 M731.839 1450.39 Q737.649 1450.39 740.705 1455 Q743.783 1459.58 743.783 1468.33 Q743.783 1477.06 740.705 1481.67 Q737.649 1486.25 731.839 1486.25 Q726.029 1486.25 722.95 1481.67 Q719.895 1477.06 719.895 1468.33 Q719.895 1459.58 722.95 1455 Q726.029 1450.39 731.839 1450.39 Z" fill="#000000" fill-rule="nonzero" fill-opacity="1" /><path clip-path="url(#clip180)" d="M1064.04 1481.64 L1080.36 1481.64 L1080.36 1485.58 L1058.41 1485.58 L1058.41 1481.64 Q1061.08 1478.89 1065.66 1474.26 Q1070.27 1469.61 1071.45 1468.27 Q1073.69 1465.74 1074.57 1464.01 Q1075.47 1462.25 1075.47 1460.56 Q1075.47 1457.8 1073.53 1456.07 Q1071.61 1454.33 1068.51 1454.33 Q1066.31 1454.33 1063.85 1455.09 Q1061.42 1455.86 1058.65 1457.41 L1058.65 1452.69 Q1061.47 1451.55 1063.92 1450.97 Q1066.38 1450.39 1068.41 1450.39 Q1073.78 1450.39 1076.98 1453.08 Q1080.17 1455.77 1080.17 1460.26 Q1080.17 1462.39 1079.36 1464.31 Q1078.58 1466.2 1076.47 1468.8 Q1075.89 1469.47 1072.79 1472.69 Q1069.69 1475.88 1064.04 1481.64 Z" fill="#000000" fill-rule="nonzero" fill-opacity="1" /><path clip-path="url(#clip180)" d="M1100.17 1454.1 Q1096.56 1454.1 1094.73 1457.66 Q1092.93 1461.2 1092.93 1468.33 Q1092.93 1475.44 1094.73 1479.01 Q1096.56 1482.55 1100.17 1482.55 Q1103.81 1482.55 1105.61 1479.01 Q1107.44 1475.44 1107.44 1468.33 Q1107.44 1461.2 1105.61 1457.66 Q1103.81 1454.1 1100.17 1454.1 M1100.17 1450.39 Q1105.98 1450.39 1109.04 1455 Q1112.12 1459.58 1112.12 1468.33 Q1112.12 1477.06 1109.04 1481.67 Q1105.98 1486.25 1100.17 1486.25 Q1094.36 1486.25 1091.28 1481.67 Q1088.23 1477.06 1088.23 1468.33 Q1088.23 1459.58 1091.28 1455 Q1094.36 1450.39 1100.17 1450.39 Z" fill="#000000" fill-rule="nonzero" fill-opacity="1" /><path clip-path="url(#clip180)" d="M1130.34 1454.1 Q1126.72 1454.1 1124.9 1457.66 Q1123.09 1461.2 1123.09 1468.33 Q1123.09 1475.44 1124.9 1479.01 Q1126.72 1482.55 1130.34 1482.55 Q1133.97 1482.55 1135.77 1479.01 Q1137.6 1475.44 1137.6 1468.33 Q1137.6 1461.2 1135.77 1457.66 Q1133.97 1454.1 1130.34 1454.1 M1130.34 1450.39 Q1136.15 1450.39 1139.2 1455 Q1142.28 1459.58 1142.28 1468.33 Q1142.28 1477.06 1139.2 1481.67 Q1136.15 1486.25 1130.34 1486.25 Q1124.52 1486.25 1121.45 1481.67 Q1118.39 1477.06 1118.39 1468.33 Q1118.39 1459.58 1121.45 1455 Q1124.52 1450.39 1130.34 1450.39 Z" fill="#000000" fill-rule="nonzero" fill-opacity="1" /><path clip-path="url(#clip180)" d="M1471.74 1466.95 Q1475.09 1467.66 1476.97 1469.93 Q1478.87 1472.2 1478.87 1475.53 Q1478.87 1480.65 1475.35 1483.45 Q1471.83 1486.25 1465.35 1486.25 Q1463.17 1486.25 1460.86 1485.81 Q1458.57 1485.39 1456.11 1484.54 L1456.11 1480.02 Q1458.06 1481.16 1460.37 1481.74 Q1462.69 1482.32 1465.21 1482.32 Q1469.61 1482.32 1471.9 1480.58 Q1474.21 1478.84 1474.21 1475.53 Q1474.21 1472.48 1472.06 1470.77 Q1469.93 1469.03 1466.11 1469.03 L1462.08 1469.03 L1462.08 1465.19 L1466.3 1465.19 Q1469.75 1465.19 1471.57 1463.82 Q1473.4 1462.43 1473.4 1459.84 Q1473.4 1457.18 1471.51 1455.77 Q1469.63 1454.33 1466.11 1454.33 Q1464.19 1454.33 1461.99 1454.75 Q1459.79 1455.16 1457.15 1456.04 L1457.15 1451.88 Q1459.82 1451.14 1462.13 1450.77 Q1464.47 1450.39 1466.53 1450.39 Q1471.85 1450.39 1474.95 1452.83 Q1478.06 1455.23 1478.06 1459.35 Q1478.06 1462.22 1476.41 1464.21 Q1474.77 1466.18 1471.74 1466.95 Z" fill="#000000" fill-rule="nonzero" fill-opacity="1" /><path clip-path="url(#clip180)" d="M1497.73 1454.1 Q1494.12 1454.1 1492.29 1457.66 Q1490.49 1461.2 1490.49 1468.33 Q1490.49 1475.44 1492.29 1479.01 Q1494.12 1482.55 1497.73 1482.55 Q1501.37 1482.55 1503.17 1479.01 Q1505 1475.44 1505 1468.33 Q1505 1461.2 1503.17 1457.66 Q1501.37 1454.1 1497.73 1454.1 M1497.73 1450.39 Q1503.54 1450.39 1506.6 1455 Q1509.68 1459.58 1509.68 1468.33 Q1509.68 1477.06 1506.6 1481.67 Q1503.54 1486.25 1497.73 1486.25 Q1491.92 1486.25 1488.84 1481.67 Q1485.79 1477.06 1485.79 1468.33 Q1485.79 1459.58 1488.84 1455 Q1491.92 1450.39 1497.73 1450.39 Z" fill="#000000" fill-rule="nonzero" fill-opacity="1" /><path clip-path="url(#clip180)" d="M1527.89 1454.1 Q1524.28 1454.1 1522.45 1457.66 Q1520.65 1461.2 1520.65 1468.33 Q1520.65 1475.44 1522.45 1479.01 Q1524.28 1482.55 1527.89 1482.55 Q1531.53 1482.55 1533.33 1479.01 Q1535.16 1475.44 1535.16 1468.33 Q1535.16 1461.2 1533.33 1457.66 Q1531.53 1454.1 1527.89 1454.1 M1527.89 1450.39 Q1533.7 1450.39 1536.76 1455 Q1539.84 1459.58 1539.84 1468.33 Q1539.84 1477.06 1536.76 1481.67 Q1533.7 1486.25 1527.89 1486.25 Q1522.08 1486.25 1519 1481.67 Q1515.95 1477.06 1515.95 1468.33 Q1515.95 1459.58 1519 1455 Q1522.08 1450.39 1527.89 1450.39 Z" fill="#000000" fill-rule="nonzero" fill-opacity="1" /><path clip-path="url(#clip180)" d="M1868.69 1455.09 L1856.89 1473.54 L1868.69 1473.54 L1868.69 1455.09 M1867.47 1451.02 L1873.35 1451.02 L1873.35 1473.54 L1878.28 1473.54 L1878.28 1477.43 L1873.35 1477.43 L1873.35 1485.58 L1868.69 1485.58 L1868.69 1477.43 L1853.09 1477.43 L1853.09 1472.92 L1867.47 1451.02 Z" fill="#000000" fill-rule="nonzero" fill-opacity="1" /><path clip-path="url(#clip180)" d="M1896.01 1454.1 Q1892.4 1454.1 1890.57 1457.66 Q1888.76 1461.2 1888.76 1468.33 Q1888.76 1475.44 1890.57 1479.01 Q1892.4 1482.55 1896.01 1482.55 Q1899.64 1482.55 1901.45 1479.01 Q1903.28 1475.44 1903.28 1468.33 Q1903.28 1461.2 1901.45 1457.66 Q1899.64 1454.1 1896.01 1454.1 M1896.01 1450.39 Q1901.82 1450.39 1904.87 1455 Q1907.95 1459.58 1907.95 1468.33 Q1907.95 1477.06 1904.87 1481.67 Q1901.82 1486.25 1896.01 1486.25 Q1890.2 1486.25 1887.12 1481.67 Q1884.06 1477.06 1884.06 1468.33 Q1884.06 1459.58 1887.12 1455 Q1890.2 1450.39 1896.01 1450.39 Z" fill="#000000" fill-rule="nonzero" fill-opacity="1" /><path clip-path="url(#clip180)" d="M1926.17 1454.1 Q1922.56 1454.1 1920.73 1457.66 Q1918.92 1461.2 1918.92 1468.33 Q1918.92 1475.44 1920.73 1479.01 Q1922.56 1482.55 1926.17 1482.55 Q1929.8 1482.55 1931.61 1479.01 Q1933.44 1475.44 1933.44 1468.33 Q1933.44 1461.2 1931.61 1457.66 Q1929.8 1454.1 1926.17 1454.1 M1926.17 1450.39 Q1931.98 1450.39 1935.04 1455 Q1938.11 1459.58 1938.11 1468.33 Q1938.11 1477.06 1935.04 1481.67 Q1931.98 1486.25 1926.17 1486.25 Q1920.36 1486.25 1917.28 1481.67 Q1914.23 1477.06 1914.23 1468.33 Q1914.23 1459.58 1917.28 1455 Q1920.36 1450.39 1926.17 1450.39 Z" fill="#000000" fill-rule="nonzero" fill-opacity="1" /><path clip-path="url(#clip180)" d="M2252.85 1451.02 L2271.21 1451.02 L2271.21 1454.96 L2257.13 1454.96 L2257.13 1463.43 Q2258.15 1463.08 2259.17 1462.92 Q2260.19 1462.73 2261.21 1462.73 Q2266.99 1462.73 2270.37 1465.9 Q2273.75 1469.08 2273.75 1474.49 Q2273.75 1480.07 2270.28 1483.17 Q2266.81 1486.25 2260.49 1486.25 Q2258.31 1486.25 2256.04 1485.88 Q2253.8 1485.51 2251.39 1484.77 L2251.39 1480.07 Q2253.47 1481.2 2255.7 1481.76 Q2257.92 1482.32 2260.4 1482.32 Q2264.4 1482.32 2266.74 1480.21 Q2269.08 1478.1 2269.08 1474.49 Q2269.08 1470.88 2266.74 1468.77 Q2264.4 1466.67 2260.4 1466.67 Q2258.52 1466.67 2256.65 1467.08 Q2254.79 1467.5 2252.85 1468.38 L2252.85 1451.02 Z" fill="#000000" fill-rule="nonzero" fill-opacity="1" /><path clip-path="url(#clip180)" d="M2292.96 1454.1 Q2289.35 1454.1 2287.52 1457.66 Q2285.72 1461.2 2285.72 1468.33 Q2285.72 1475.44 2287.52 1479.01 Q2289.35 1482.55 2292.96 1482.55 Q2296.6 1482.55 2298.4 1479.01 Q2300.23 1475.44 2300.23 1468.33 Q2300.23 1461.2 2298.4 1457.66 Q2296.6 1454.1 2292.96 1454.1 M2292.96 1450.39 Q2298.77 1450.39 2301.83 1455 Q2304.91 1459.58 2304.91 1468.33 Q2304.91 1477.06 2301.83 1481.67 Q2298.77 1486.25 2292.96 1486.25 Q2287.15 1486.25 2284.08 1481.67 Q2281.02 1477.06 2281.02 1468.33 Q2281.02 1459.58 2284.08 1455 Q2287.15 1450.39 2292.96 1450.39 Z" fill="#000000" fill-rule="nonzero" fill-opacity="1" /><path clip-path="url(#clip180)" d="M2323.13 1454.1 Q2319.52 1454.1 2317.69 1457.66 Q2315.88 1461.2 2315.88 1468.33 Q2315.88 1475.44 2317.69 1479.01 Q2319.52 1482.55 2323.13 1482.55 Q2326.76 1482.55 2328.57 1479.01 Q2330.4 1475.44 2330.4 1468.33 Q2330.4 1461.2 2328.57 1457.66 Q2326.76 1454.1 2323.13 1454.1 M2323.13 1450.39 Q2328.94 1450.39 2331.99 1455 Q2335.07 1459.58 2335.07 1468.33 Q2335.07 1477.06 2331.99 1481.67 Q2328.94 1486.25 2323.13 1486.25 Q2317.32 1486.25 2314.24 1481.67 Q2311.18 1477.06 2311.18 1468.33 Q2311.18 1459.58 2314.24 1455 Q2317.32 1450.39 2323.13 1450.39 Z" fill="#000000" fill-rule="nonzero" fill-opacity="1" /><path clip-path="url(#clip180)" d="M1169.3 1532.4 L1175.16 1532.4 L1175.16 1568.04 L1169.3 1568.04 L1169.3 1532.4 M1169.3 1518.52 L1175.16 1518.52 L1175.16 1525.93 L1169.3 1525.93 L1169.3 1518.52 Z" fill="#000000" fill-rule="nonzero" fill-opacity="1" /><path clip-path="url(#clip180)" d="M1193.2 1522.27 L1193.2 1532.4 L1205.27 1532.4 L1205.27 1536.95 L1193.2 1536.95 L1193.2 1556.3 Q1193.2 1560.66 1194.38 1561.9 Q1195.59 1563.14 1199.25 1563.14 L1205.27 1563.14 L1205.27 1568.04 L1199.25 1568.04 Q1192.47 1568.04 1189.89 1565.53 Q1187.31 1562.98 1187.31 1556.3 L1187.31 1536.95 L1183.02 1536.95 L1183.02 1532.4 L1187.31 1532.4 L1187.31 1522.27 L1193.2 1522.27 Z" fill="#000000" fill-rule="nonzero" fill-opacity="1" /><path clip-path="url(#clip180)" d="M1243.46 1548.76 L1243.46 1551.62 L1216.53 1551.62 Q1216.91 1557.67 1220.16 1560.85 Q1223.44 1564 1229.26 1564 Q1232.64 1564 1235.79 1563.17 Q1238.97 1562.35 1242.09 1560.69 L1242.09 1566.23 Q1238.94 1567.57 1235.63 1568.27 Q1232.32 1568.97 1228.91 1568.97 Q1220.38 1568.97 1215.39 1564 Q1210.42 1559.04 1210.42 1550.57 Q1210.42 1541.82 1215.13 1536.69 Q1219.87 1531.54 1227.9 1531.54 Q1235.09 1531.54 1239.26 1536.18 Q1243.46 1540.8 1243.46 1548.76 M1237.6 1547.04 Q1237.54 1542.23 1234.9 1539.37 Q1232.29 1536.5 1227.96 1536.5 Q1223.06 1536.5 1220.1 1539.27 Q1217.17 1542.04 1216.72 1547.07 L1237.6 1547.04 Z" fill="#000000" fill-rule="nonzero" fill-opacity="1" /><path clip-path="url(#clip180)" d="M1273.73 1537.87 Q1272.74 1537.3 1271.56 1537.04 Q1270.42 1536.76 1269.02 1536.76 Q1264.05 1536.76 1261.38 1540 Q1258.74 1543.22 1258.74 1549.27 L1258.74 1568.04 L1252.85 1568.04 L1252.85 1532.4 L1258.74 1532.4 L1258.74 1537.93 Q1260.58 1534.69 1263.54 1533.13 Q1266.5 1531.54 1270.74 1531.54 Q1271.34 1531.54 1272.07 1531.63 Q1272.81 1531.7 1273.7 1531.85 L1273.73 1537.87 Z" fill="#000000" fill-rule="nonzero" fill-opacity="1" /><path clip-path="url(#clip180)" d="M1296.07 1550.12 Q1288.97 1550.12 1286.24 1551.75 Q1283.5 1553.37 1283.5 1557.29 Q1283.5 1560.4 1285.54 1562.25 Q1287.61 1564.07 1291.14 1564.07 Q1296.01 1564.07 1298.94 1560.63 Q1301.9 1557.16 1301.9 1551.43 L1301.9 1550.12 L1296.07 1550.12 M1307.75 1547.71 L1307.75 1568.04 L1301.9 1568.04 L1301.9 1562.63 Q1299.89 1565.88 1296.9 1567.44 Q1293.91 1568.97 1289.58 1568.97 Q1284.1 1568.97 1280.86 1565.91 Q1277.64 1562.82 1277.64 1557.67 Q1277.64 1551.65 1281.65 1548.6 Q1285.7 1545.54 1293.69 1545.54 L1301.9 1545.54 L1301.9 1544.97 Q1301.9 1540.93 1299.22 1538.73 Q1296.58 1536.5 1291.78 1536.5 Q1288.72 1536.5 1285.82 1537.23 Q1282.93 1537.97 1280.25 1539.43 L1280.25 1534.02 Q1283.47 1532.78 1286.49 1532.17 Q1289.52 1531.54 1292.38 1531.54 Q1300.11 1531.54 1303.93 1535.55 Q1307.75 1539.56 1307.75 1547.71 Z" fill="#000000" fill-rule="nonzero" fill-opacity="1" /><path clip-path="url(#clip180)" d="M1325.61 1522.27 L1325.61 1532.4 L1337.67 1532.4 L1337.67 1536.95 L1325.61 1536.95 L1325.61 1556.3 Q1325.61 1560.66 1326.79 1561.9 Q1328 1563.14 1331.66 1563.14 L1337.67 1563.14 L1337.67 1568.04 L1331.66 1568.04 Q1324.88 1568.04 1322.3 1565.53 Q1319.72 1562.98 1319.72 1556.3 L1319.72 1536.95 L1315.42 1536.95 L1315.42 1532.4 L1319.72 1532.4 L1319.72 1522.27 L1325.61 1522.27 Z" fill="#000000" fill-rule="nonzero" fill-opacity="1" /><path clip-path="url(#clip180)" d="M1345.37 1532.4 L1351.23 1532.4 L1351.23 1568.04 L1345.37 1568.04 L1345.37 1532.4 M1345.37 1518.52 L1351.23 1518.52 L1351.23 1525.93 L1345.37 1525.93 L1345.37 1518.52 Z" fill="#000000" fill-rule="nonzero" fill-opacity="1" /><path clip-path="url(#clip180)" d="M1377.3 1536.5 Q1372.59 1536.5 1369.85 1540.19 Q1367.11 1543.85 1367.11 1550.25 Q1367.11 1556.65 1369.82 1560.34 Q1372.56 1564 1377.3 1564 Q1381.98 1564 1384.71 1560.31 Q1387.45 1556.62 1387.45 1550.25 Q1387.45 1543.92 1384.71 1540.23 Q1381.98 1536.5 1377.3 1536.5 M1377.3 1531.54 Q1384.94 1531.54 1389.3 1536.5 Q1393.66 1541.47 1393.66 1550.25 Q1393.66 1559 1389.3 1564 Q1384.94 1568.97 1377.3 1568.97 Q1369.63 1568.97 1365.27 1564 Q1360.94 1559 1360.94 1550.25 Q1360.94 1541.47 1365.27 1536.5 Q1369.63 1531.54 1377.3 1531.54 Z" fill="#000000" fill-rule="nonzero" fill-opacity="1" /><path clip-path="url(#clip180)" d="M1433 1546.53 L1433 1568.04 L1427.14 1568.04 L1427.14 1546.72 Q1427.14 1541.66 1425.17 1539.14 Q1423.2 1536.63 1419.25 1536.63 Q1414.51 1536.63 1411.77 1539.65 Q1409.03 1542.68 1409.03 1547.9 L1409.03 1568.04 L1403.14 1568.04 L1403.14 1532.4 L1409.03 1532.4 L1409.03 1537.93 Q1411.13 1534.72 1413.97 1533.13 Q1416.83 1531.54 1420.55 1531.54 Q1426.7 1531.54 1429.85 1535.36 Q1433 1539.14 1433 1546.53 Z" fill="#000000" fill-rule="nonzero" fill-opacity="1" /><polyline clip-path="url(#clip182)" style="stroke:#000000; stroke-linecap:round; stroke-linejoin:round; stroke-width:2; stroke-opacity:0.1; fill:none" points="249.542,1399.3 2352.76,1399.3 "/>
<polyline clip-path="url(#clip182)" style="stroke:#000000; stroke-linecap:round; stroke-linejoin:round; stroke-width:2; stroke-opacity:0.1; fill:none" points="249.542,1140.08 2352.76,1140.08 "/>
<polyline clip-path="url(#clip182)" style="stroke:#000000; stroke-linecap:round; stroke-linejoin:round; stroke-width:2; stroke-opacity:0.1; fill:none" points="249.542,880.872 2352.76,880.872 "/>
<polyline clip-path="url(#clip182)" style="stroke:#000000; stroke-linecap:round; stroke-linejoin:round; stroke-width:2; stroke-opacity:0.1; fill:none" points="249.542,621.659 2352.76,621.659 "/>
<polyline clip-path="url(#clip182)" style="stroke:#000000; stroke-linecap:round; stroke-linejoin:round; stroke-width:2; stroke-opacity:0.1; fill:none" points="249.542,362.447 2352.76,362.447 "/>
<polyline clip-path="url(#clip180)" style="stroke:#000000; stroke-linecap:round; stroke-linejoin:round; stroke-width:4; stroke-opacity:1; fill:none" points="249.542,1423.18 249.542,106.192 "/>
<polyline clip-path="url(#clip180)" style="stroke:#000000; stroke-linecap:round; stroke-linejoin:round; stroke-width:4; stroke-opacity:1; fill:none" points="249.542,1399.3 268.44,1399.3 "/>
<polyline clip-path="url(#clip180)" style="stroke:#000000; stroke-linecap:round; stroke-linejoin:round; stroke-width:4; stroke-opacity:1; fill:none" points="249.542,1140.08 268.44,1140.08 "/>
<polyline clip-path="url(#clip180)" style="stroke:#000000; stroke-linecap:round; stroke-linejoin:round; stroke-width:4; stroke-opacity:1; fill:none" points="249.542,880.872 268.44,880.872 "/>
<polyline clip-path="url(#clip180)" style="stroke:#000000; stroke-linecap:round; stroke-linejoin:round; stroke-width:4; stroke-opacity:1; fill:none" points="249.542,621.659 268.44,621.659 "/>
<polyline clip-path="url(#clip180)" style="stroke:#000000; stroke-linecap:round; stroke-linejoin:round; stroke-width:4; stroke-opacity:1; fill:none" points="249.542,362.447 268.44,362.447 "/>
<path clip-path="url(#clip180)" d="M126.205 1385.09 Q122.593 1385.09 120.765 1388.66 Q118.959 1392.2 118.959 1399.33 Q118.959 1406.44 120.765 1410 Q122.593 1413.54 126.205 1413.54 Q129.839 1413.54 131.644 1410 Q133.473 1406.44 133.473 1399.33 Q133.473 1392.2 131.644 1388.66 Q129.839 1385.09 126.205 1385.09 M126.205 1381.39 Q132.015 1381.39 135.07 1386 Q138.149 1390.58 138.149 1399.33 Q138.149 1408.06 135.07 1412.66 Q132.015 1417.25 126.205 1417.25 Q120.394 1417.25 117.316 1412.66 Q114.26 1408.06 114.26 1399.33 Q114.26 1390.58 117.316 1386 Q120.394 1381.39 126.205 1381.39 Z" fill="#000000" fill-rule="nonzero" fill-opacity="1" /><path clip-path="url(#clip180)" d="M146.366 1410.7 L151.251 1410.7 L151.251 1416.58 L146.366 1416.58 L146.366 1410.7 Z" fill="#000000" fill-rule="nonzero" fill-opacity="1" /><path clip-path="url(#clip180)" d="M171.436 1385.09 Q167.825 1385.09 165.996 1388.66 Q164.19 1392.2 164.19 1399.33 Q164.19 1406.44 165.996 1410 Q167.825 1413.54 171.436 1413.54 Q175.07 1413.54 176.876 1410 Q178.704 1406.44 178.704 1399.33 Q178.704 1392.2 176.876 1388.66 Q175.07 1385.09 171.436 1385.09 M171.436 1381.39 Q177.246 1381.39 180.301 1386 Q183.38 1390.58 183.38 1399.33 Q183.38 1408.06 180.301 1412.66 Q177.246 1417.25 171.436 1417.25 Q165.626 1417.25 162.547 1412.66 Q159.491 1408.06 159.491 1399.33 Q159.491 1390.58 162.547 1386 Q165.626 1381.39 171.436 1381.39 Z" fill="#000000" fill-rule="nonzero" fill-opacity="1" /><path clip-path="url(#clip180)" d="M201.598 1385.09 Q197.987 1385.09 196.158 1388.66 Q194.352 1392.2 194.352 1399.33 Q194.352 1406.44 196.158 1410 Q197.987 1413.54 201.598 1413.54 Q205.232 1413.54 207.037 1410 Q208.866 1406.44 208.866 1399.33 Q208.866 1392.2 207.037 1388.66 Q205.232 1385.09 201.598 1385.09 M201.598 1381.39 Q207.408 1381.39 210.463 1386 Q213.542 1390.58 213.542 1399.33 Q213.542 1408.06 210.463 1412.66 Q207.408 1417.25 201.598 1417.25 Q195.787 1417.25 192.709 1412.66 Q189.653 1408.06 189.653 1399.33 Q189.653 1390.58 192.709 1386 Q195.787 1381.39 201.598 1381.39 Z" fill="#000000" fill-rule="nonzero" fill-opacity="1" /><path clip-path="url(#clip180)" d="M127.2 1125.88 Q123.589 1125.88 121.76 1129.45 Q119.955 1132.99 119.955 1140.12 Q119.955 1147.22 121.76 1150.79 Q123.589 1154.33 127.2 1154.33 Q130.834 1154.33 132.64 1150.79 Q134.468 1147.22 134.468 1140.12 Q134.468 1132.99 132.64 1129.45 Q130.834 1125.88 127.2 1125.88 M127.2 1122.18 Q133.01 1122.18 136.066 1126.79 Q139.144 1131.37 139.144 1140.12 Q139.144 1148.85 136.066 1153.45 Q133.01 1158.04 127.2 1158.04 Q121.39 1158.04 118.311 1153.45 Q115.256 1148.85 115.256 1140.12 Q115.256 1131.37 118.311 1126.79 Q121.39 1122.18 127.2 1122.18 Z" fill="#000000" fill-rule="nonzero" fill-opacity="1" /><path clip-path="url(#clip180)" d="M147.362 1151.48 L152.246 1151.48 L152.246 1157.36 L147.362 1157.36 L147.362 1151.48 Z" fill="#000000" fill-rule="nonzero" fill-opacity="1" /><path clip-path="url(#clip180)" d="M166.459 1153.43 L182.778 1153.43 L182.778 1157.36 L160.834 1157.36 L160.834 1153.43 Q163.496 1150.67 168.079 1146.04 Q172.686 1141.39 173.866 1140.05 Q176.112 1137.53 176.991 1135.79 Q177.894 1134.03 177.894 1132.34 Q177.894 1129.59 175.95 1127.85 Q174.028 1126.11 170.927 1126.11 Q168.727 1126.11 166.274 1126.88 Q163.843 1127.64 161.065 1129.19 L161.065 1124.47 Q163.89 1123.34 166.343 1122.76 Q168.797 1122.18 170.834 1122.18 Q176.204 1122.18 179.399 1124.86 Q182.593 1127.55 182.593 1132.04 Q182.593 1134.17 181.783 1136.09 Q180.996 1137.99 178.889 1140.58 Q178.311 1141.25 175.209 1144.47 Q172.107 1147.66 166.459 1153.43 Z" fill="#000000" fill-rule="nonzero" fill-opacity="1" /><path clip-path="url(#clip180)" d="M192.639 1122.8 L210.996 1122.8 L210.996 1126.74 L196.922 1126.74 L196.922 1135.21 Q197.94 1134.86 198.959 1134.7 Q199.977 1134.52 200.996 1134.52 Q206.783 1134.52 210.162 1137.69 Q213.542 1140.86 213.542 1146.28 Q213.542 1151.85 210.07 1154.96 Q206.598 1158.04 200.278 1158.04 Q198.102 1158.04 195.834 1157.66 Q193.588 1157.29 191.181 1156.55 L191.181 1151.85 Q193.264 1152.99 195.487 1153.54 Q197.709 1154.1 200.186 1154.1 Q204.19 1154.1 206.528 1151.99 Q208.866 1149.89 208.866 1146.28 Q208.866 1142.66 206.528 1140.56 Q204.19 1138.45 200.186 1138.45 Q198.311 1138.45 196.436 1138.87 Q194.584 1139.29 192.639 1140.16 L192.639 1122.8 Z" fill="#000000" fill-rule="nonzero" fill-opacity="1" /><path clip-path="url(#clip180)" d="M126.205 866.67 Q122.593 866.67 120.765 870.235 Q118.959 873.777 118.959 880.906 Q118.959 888.013 120.765 891.578 Q122.593 895.119 126.205 895.119 Q129.839 895.119 131.644 891.578 Q133.473 888.013 133.473 880.906 Q133.473 873.777 131.644 870.235 Q129.839 866.67 126.205 866.67 M126.205 862.967 Q132.015 862.967 135.07 867.573 Q138.149 872.156 138.149 880.906 Q138.149 889.633 135.07 894.24 Q132.015 898.823 126.205 898.823 Q120.394 898.823 117.316 894.24 Q114.26 889.633 114.26 880.906 Q114.26 872.156 117.316 867.573 Q120.394 862.967 126.205 862.967 Z" fill="#000000" fill-rule="nonzero" fill-opacity="1" /><path clip-path="url(#clip180)" d="M146.366 892.272 L151.251 892.272 L151.251 898.152 L146.366 898.152 L146.366 892.272 Z" fill="#000000" fill-rule="nonzero" fill-opacity="1" /><path clip-path="url(#clip180)" d="M161.482 863.592 L179.839 863.592 L179.839 867.527 L165.765 867.527 L165.765 875.999 Q166.783 875.652 167.802 875.49 Q168.82 875.304 169.839 875.304 Q175.626 875.304 179.005 878.476 Q182.385 881.647 182.385 887.064 Q182.385 892.642 178.913 895.744 Q175.44 898.823 169.121 898.823 Q166.945 898.823 164.677 898.452 Q162.431 898.082 160.024 897.341 L160.024 892.642 Q162.107 893.777 164.329 894.332 Q166.552 894.888 169.028 894.888 Q173.033 894.888 175.371 892.781 Q177.709 890.675 177.709 887.064 Q177.709 883.453 175.371 881.346 Q173.033 879.24 169.028 879.24 Q167.153 879.24 165.278 879.656 Q163.427 880.073 161.482 880.953 L161.482 863.592 Z" fill="#000000" fill-rule="nonzero" fill-opacity="1" /><path clip-path="url(#clip180)" d="M201.598 866.67 Q197.987 866.67 196.158 870.235 Q194.352 873.777 194.352 880.906 Q194.352 888.013 196.158 891.578 Q197.987 895.119 201.598 895.119 Q205.232 895.119 207.037 891.578 Q208.866 888.013 208.866 880.906 Q208.866 873.777 207.037 870.235 Q205.232 866.67 201.598 866.67 M201.598 862.967 Q207.408 862.967 210.463 867.573 Q213.542 872.156 213.542 880.906 Q213.542 889.633 210.463 894.24 Q207.408 898.823 201.598 898.823 Q195.787 898.823 192.709 894.24 Q189.653 889.633 189.653 880.906 Q189.653 872.156 192.709 867.573 Q195.787 862.967 201.598 862.967 Z" fill="#000000" fill-rule="nonzero" fill-opacity="1" /><path clip-path="url(#clip180)" d="M127.2 607.458 Q123.589 607.458 121.76 611.023 Q119.955 614.564 119.955 621.694 Q119.955 628.8 121.76 632.365 Q123.589 635.907 127.2 635.907 Q130.834 635.907 132.64 632.365 Q134.468 628.8 134.468 621.694 Q134.468 614.564 132.64 611.023 Q130.834 607.458 127.2 607.458 M127.2 603.754 Q133.01 603.754 136.066 608.361 Q139.144 612.944 139.144 621.694 Q139.144 630.421 136.066 635.027 Q133.01 639.611 127.2 639.611 Q121.39 639.611 118.311 635.027 Q115.256 630.421 115.256 621.694 Q115.256 612.944 118.311 608.361 Q121.39 603.754 127.2 603.754 Z" fill="#000000" fill-rule="nonzero" fill-opacity="1" /><path clip-path="url(#clip180)" d="M147.362 633.06 L152.246 633.06 L152.246 638.939 L147.362 638.939 L147.362 633.06 Z" fill="#000000" fill-rule="nonzero" fill-opacity="1" /><path clip-path="url(#clip180)" d="M161.251 604.379 L183.473 604.379 L183.473 606.37 L170.927 638.939 L166.042 638.939 L177.848 608.314 L161.251 608.314 L161.251 604.379 Z" fill="#000000" fill-rule="nonzero" fill-opacity="1" /><path clip-path="url(#clip180)" d="M192.639 604.379 L210.996 604.379 L210.996 608.314 L196.922 608.314 L196.922 616.787 Q197.94 616.439 198.959 616.277 Q199.977 616.092 200.996 616.092 Q206.783 616.092 210.162 619.264 Q213.542 622.435 213.542 627.851 Q213.542 633.43 210.07 636.532 Q206.598 639.611 200.278 639.611 Q198.102 639.611 195.834 639.24 Q193.588 638.87 191.181 638.129 L191.181 633.43 Q193.264 634.564 195.487 635.12 Q197.709 635.675 200.186 635.675 Q204.19 635.675 206.528 633.569 Q208.866 631.463 208.866 627.851 Q208.866 624.24 206.528 622.134 Q204.19 620.027 200.186 620.027 Q198.311 620.027 196.436 620.444 Q194.584 620.861 192.639 621.74 L192.639 604.379 Z" fill="#000000" fill-rule="nonzero" fill-opacity="1" /><path clip-path="url(#clip180)" d="M117.015 375.792 L124.654 375.792 L124.654 349.426 L116.343 351.093 L116.343 346.834 L124.607 345.167 L129.283 345.167 L129.283 375.792 L136.922 375.792 L136.922 379.727 L117.015 379.727 L117.015 375.792 Z" fill="#000000" fill-rule="nonzero" fill-opacity="1" /><path clip-path="url(#clip180)" d="M146.366 373.847 L151.251 373.847 L151.251 379.727 L146.366 379.727 L146.366 373.847 Z" fill="#000000" fill-rule="nonzero" fill-opacity="1" /><path clip-path="url(#clip180)" d="M171.436 348.246 Q167.825 348.246 165.996 351.811 Q164.19 355.352 164.19 362.482 Q164.19 369.588 165.996 373.153 Q167.825 376.695 171.436 376.695 Q175.07 376.695 176.876 373.153 Q178.704 369.588 178.704 362.482 Q178.704 355.352 176.876 351.811 Q175.07 348.246 171.436 348.246 M171.436 344.542 Q177.246 344.542 180.301 349.149 Q183.38 353.732 183.38 362.482 Q183.38 371.209 180.301 375.815 Q177.246 380.398 171.436 380.398 Q165.626 380.398 162.547 375.815 Q159.491 371.209 159.491 362.482 Q159.491 353.732 162.547 349.149 Q165.626 344.542 171.436 344.542 Z" fill="#000000" fill-rule="nonzero" fill-opacity="1" /><path clip-path="url(#clip180)" d="M201.598 348.246 Q197.987 348.246 196.158 351.811 Q194.352 355.352 194.352 362.482 Q194.352 369.588 196.158 373.153 Q197.987 376.695 201.598 376.695 Q205.232 376.695 207.037 373.153 Q208.866 369.588 208.866 362.482 Q208.866 355.352 207.037 351.811 Q205.232 348.246 201.598 348.246 M201.598 344.542 Q207.408 344.542 210.463 349.149 Q213.542 353.732 213.542 362.482 Q213.542 371.209 210.463 375.815 Q207.408 380.398 201.598 380.398 Q195.787 380.398 192.709 375.815 Q189.653 371.209 189.653 362.482 Q189.653 353.732 192.709 349.149 Q195.787 344.542 201.598 344.542 Z" fill="#000000" fill-rule="nonzero" fill-opacity="1" /><path clip-path="url(#clip180)" d="M44.7161 808.753 L47.5806 808.753 L47.5806 835.68 Q53.6281 835.298 56.8109 832.051 Q59.9619 828.773 59.9619 822.948 Q59.9619 819.574 59.1344 816.423 Q58.3069 813.24 56.6518 810.121 L62.1899 810.121 Q63.5267 813.272 64.227 816.582 Q64.9272 819.893 64.9272 823.298 Q64.9272 831.828 59.9619 836.825 Q54.9967 841.791 46.5303 841.791 Q37.7774 841.791 32.6531 837.08 Q27.4968 832.338 27.4968 824.317 Q27.4968 817.123 32.1438 812.954 Q36.7589 808.753 44.7161 808.753 M42.9973 814.609 Q38.1912 814.673 35.3266 817.314 Q32.4621 819.924 32.4621 824.253 Q32.4621 829.155 35.2312 832.115 Q38.0002 835.043 43.0292 835.489 L42.9973 814.609 Z" fill="#000000" fill-rule="nonzero" fill-opacity="1" /><path clip-path="url(#clip180)" d="M33.8307 778.484 Q33.2578 779.47 33.0032 780.648 Q32.7167 781.794 32.7167 783.194 Q32.7167 788.16 35.9632 790.833 Q39.1779 793.475 45.2253 793.475 L64.0042 793.475 L64.0042 799.363 L28.3562 799.363 L28.3562 793.475 L33.8944 793.475 Q30.6479 791.629 29.0883 788.669 Q27.4968 785.709 27.4968 781.476 Q27.4968 780.871 27.5923 780.139 Q27.656 779.407 27.8151 778.515 L33.8307 778.484 Z" fill="#000000" fill-rule="nonzero" fill-opacity="1" /><path clip-path="url(#clip180)" d="M33.8307 752.83 Q33.2578 753.817 33.0032 754.994 Q32.7167 756.14 32.7167 757.54 Q32.7167 762.506 35.9632 765.179 Q39.1779 767.821 45.2253 767.821 L64.0042 767.821 L64.0042 773.709 L28.3562 773.709 L28.3562 767.821 L33.8944 767.821 Q30.6479 765.975 29.0883 763.015 Q27.4968 760.055 27.4968 755.822 Q27.4968 755.217 27.5923 754.485 Q27.656 753.753 27.8151 752.862 L33.8307 752.83 Z" fill="#000000" fill-rule="nonzero" fill-opacity="1" /><path clip-path="url(#clip180)" d="M32.4621 734.306 Q32.4621 739.016 36.1542 741.754 Q39.8145 744.491 46.212 744.491 Q52.6095 744.491 56.3017 741.785 Q59.9619 739.048 59.9619 734.306 Q59.9619 729.627 56.2698 726.89 Q52.5777 724.152 46.212 724.152 Q39.8781 724.152 36.186 726.89 Q32.4621 729.627 32.4621 734.306 M27.4968 734.306 Q27.4968 726.667 32.4621 722.306 Q37.4273 717.946 46.212 717.946 Q54.9649 717.946 59.9619 722.306 Q64.9272 726.667 64.9272 734.306 Q64.9272 741.976 59.9619 746.337 Q54.9649 750.666 46.212 750.666 Q37.4273 750.666 32.4621 746.337 Q27.4968 741.976 27.4968 734.306 Z" fill="#000000" fill-rule="nonzero" fill-opacity="1" /><path clip-path="url(#clip180)" d="M33.8307 687.581 Q33.2578 688.568 33.0032 689.746 Q32.7167 690.892 32.7167 692.292 Q32.7167 697.257 35.9632 699.931 Q39.1779 702.573 45.2253 702.573 L64.0042 702.573 L64.0042 708.461 L28.3562 708.461 L28.3562 702.573 L33.8944 702.573 Q30.6479 700.727 29.0883 697.766 Q27.4968 694.806 27.4968 690.573 Q27.4968 689.969 27.5923 689.236 Q27.656 688.504 27.8151 687.613 L33.8307 687.581 Z" fill="#000000" fill-rule="nonzero" fill-opacity="1" /><path clip-path="url(#clip180)" d="M1004.68 8.64 L1032 8.64 L1032 13.559 L1010.53 13.559 L1010.53 26.3482 L1031.1 26.3482 L1031.1 31.2672 L1010.53 31.2672 L1010.53 46.921 L1032.52 46.921 L1032.52 51.84 L1004.68 51.84 L1004.68 8.64 Z" fill="#000000" fill-rule="nonzero" fill-opacity="1" /><path clip-path="url(#clip180)" d="M1038.07 19.4328 L1043.71 19.4328 L1053.84 46.6317 L1063.97 19.4328 L1069.61 19.4328 L1057.46 51.84 L1050.22 51.84 L1038.07 19.4328 Z" fill="#000000" fill-rule="nonzero" fill-opacity="1" /><path clip-path="url(#clip180)" d="M1089.52 23.1654 Q1085.24 23.1654 1082.75 26.5218 Q1080.26 29.8494 1080.26 35.6653 Q1080.26 41.4813 1082.72 44.8377 Q1085.21 48.1653 1089.52 48.1653 Q1093.77 48.1653 1096.26 44.8088 Q1098.75 41.4523 1098.75 35.6653 Q1098.75 29.9072 1096.26 26.5508 Q1093.77 23.1654 1089.52 23.1654 M1089.52 18.6515 Q1096.46 18.6515 1100.43 23.1654 Q1104.39 27.6792 1104.39 35.6653 Q1104.39 43.6225 1100.43 48.1653 Q1096.46 52.6791 1089.52 52.6791 Q1082.54 52.6791 1078.58 48.1653 Q1074.65 43.6225 1074.65 35.6653 Q1074.65 27.6792 1078.58 23.1654 Q1082.54 18.6515 1089.52 18.6515 Z" fill="#000000" fill-rule="nonzero" fill-opacity="1" /><path clip-path="url(#clip180)" d="M1113.22 6.81709 L1118.54 6.81709 L1118.54 51.84 L1113.22 51.84 L1113.22 6.81709 Z" fill="#000000" fill-rule="nonzero" fill-opacity="1" /><path clip-path="url(#clip180)" d="M1129.13 39.0507 L1129.13 19.4328 L1134.45 19.4328 L1134.45 38.8482 Q1134.45 43.4488 1136.25 45.7636 Q1138.04 48.0495 1141.63 48.0495 Q1145.94 48.0495 1148.43 45.3007 Q1150.95 42.5519 1150.95 37.8065 L1150.95 19.4328 L1156.27 19.4328 L1156.27 51.84 L1150.95 51.84 L1150.95 46.8632 Q1149.01 49.8145 1146.43 51.2613 Q1143.89 52.6791 1140.5 52.6791 Q1134.92 52.6791 1132.02 49.2069 Q1129.13 45.7347 1129.13 39.0507 M1142.53 18.6515 L1142.53 18.6515 Z" fill="#000000" fill-rule="nonzero" fill-opacity="1" /><path clip-path="url(#clip180)" d="M1172.5 10.2314 L1172.5 19.4328 L1183.47 19.4328 L1183.47 23.5705 L1172.5 23.5705 L1172.5 41.163 Q1172.5 45.1271 1173.57 46.2555 Q1174.67 47.384 1178 47.384 L1183.47 47.384 L1183.47 51.84 L1178 51.84 Q1171.84 51.84 1169.49 49.5541 Q1167.15 47.2393 1167.15 41.163 L1167.15 23.5705 L1163.24 23.5705 L1163.24 19.4328 L1167.15 19.4328 L1167.15 10.2314 L1172.5 10.2314 Z" fill="#000000" fill-rule="nonzero" fill-opacity="1" /><path clip-path="url(#clip180)" d="M1190.47 19.4328 L1195.8 19.4328 L1195.8 51.84 L1190.47 51.84 L1190.47 19.4328 M1190.47 6.81709 L1195.8 6.81709 L1195.8 13.559 L1190.47 13.559 L1190.47 6.81709 Z" fill="#000000" fill-rule="nonzero" fill-opacity="1" /><path clip-path="url(#clip180)" d="M1219.49 23.1654 Q1215.21 23.1654 1212.72 26.5218 Q1210.24 29.8494 1210.24 35.6653 Q1210.24 41.4813 1212.69 44.8377 Q1215.18 48.1653 1219.49 48.1653 Q1223.75 48.1653 1226.24 44.8088 Q1228.72 41.4523 1228.72 35.6653 Q1228.72 29.9072 1226.24 26.5508 Q1223.75 23.1654 1219.49 23.1654 M1219.49 18.6515 Q1226.44 18.6515 1230.4 23.1654 Q1234.37 27.6792 1234.37 35.6653 Q1234.37 43.6225 1230.4 48.1653 Q1226.44 52.6791 1219.49 52.6791 Q1212.52 52.6791 1208.56 48.1653 Q1204.62 43.6225 1204.62 35.6653 Q1204.62 27.6792 1208.56 23.1654 Q1212.52 18.6515 1219.49 18.6515 Z" fill="#000000" fill-rule="nonzero" fill-opacity="1" /><path clip-path="url(#clip180)" d="M1270.13 32.2799 L1270.13 51.84 L1264.81 51.84 L1264.81 32.4535 Q1264.81 27.8529 1263.01 25.567 Q1261.22 23.2811 1257.63 23.2811 Q1253.32 23.2811 1250.83 26.03 Q1248.34 28.7788 1248.34 33.5241 L1248.34 51.84 L1242.99 51.84 L1242.99 19.4328 L1248.34 19.4328 L1248.34 24.4675 Q1250.25 21.545 1252.83 20.0983 Q1255.43 18.6515 1258.82 18.6515 Q1264.4 18.6515 1267.27 22.1237 Q1270.13 25.567 1270.13 32.2799 Z" fill="#000000" fill-rule="nonzero" fill-opacity="1" /><path clip-path="url(#clip180)" d="M1312.14 23.1654 Q1307.86 23.1654 1305.37 26.5218 Q1302.89 29.8494 1302.89 35.6653 Q1302.89 41.4813 1305.34 44.8377 Q1307.83 48.1653 1312.14 48.1653 Q1316.4 48.1653 1318.89 44.8088 Q1321.37 41.4523 1321.37 35.6653 Q1321.37 29.9072 1318.89 26.5508 Q1316.4 23.1654 1312.14 23.1654 M1312.14 18.6515 Q1319.09 18.6515 1323.05 23.1654 Q1327.02 27.6792 1327.02 35.6653 Q1327.02 43.6225 1323.05 48.1653 Q1319.09 52.6791 1312.14 52.6791 Q1305.17 52.6791 1301.21 48.1653 Q1297.27 43.6225 1297.27 35.6653 Q1297.27 27.6792 1301.21 23.1654 Q1305.17 18.6515 1312.14 18.6515 Z" fill="#000000" fill-rule="nonzero" fill-opacity="1" /><path clip-path="url(#clip180)" d="M1352.25 6.81709 L1352.25 11.2442 L1347.16 11.2442 Q1344.29 11.2442 1343.16 12.4016 Q1342.06 13.559 1342.06 16.5682 L1342.06 19.4328 L1350.83 19.4328 L1350.83 23.5705 L1342.06 23.5705 L1342.06 51.84 L1336.71 51.84 L1336.71 23.5705 L1331.62 23.5705 L1331.62 19.4328 L1336.71 19.4328 L1336.71 17.1758 Q1336.71 11.765 1339.23 9.30551 Q1341.74 6.81709 1347.21 6.81709 L1352.25 6.81709 Z" fill="#000000" fill-rule="nonzero" fill-opacity="1" /><path clip-path="url(#clip180)" d="M1380.81 10.2314 L1380.81 19.4328 L1391.77 19.4328 L1391.77 23.5705 L1380.81 23.5705 L1380.81 41.163 Q1380.81 45.1271 1381.88 46.2555 Q1382.98 47.384 1386.3 47.384 L1391.77 47.384 L1391.77 51.84 L1386.3 51.84 Q1380.14 51.84 1377.8 49.5541 Q1375.45 47.2393 1375.45 41.163 L1375.45 23.5705 L1371.55 23.5705 L1371.55 19.4328 L1375.45 19.4328 L1375.45 10.2314 L1380.81 10.2314 Z" fill="#000000" fill-rule="nonzero" fill-opacity="1" /><path clip-path="url(#clip180)" d="M1425.71 32.2799 L1425.71 51.84 L1420.39 51.84 L1420.39 32.4535 Q1420.39 27.8529 1418.6 25.567 Q1416.8 23.2811 1413.21 23.2811 Q1408.9 23.2811 1406.41 26.03 Q1403.93 28.7788 1403.93 33.5241 L1403.93 51.84 L1398.57 51.84 L1398.57 6.81709 L1403.93 6.81709 L1403.93 24.4675 Q1405.84 21.545 1408.41 20.0983 Q1411.02 18.6515 1414.4 18.6515 Q1419.99 18.6515 1422.85 22.1237 Q1425.71 25.567 1425.71 32.2799 Z" fill="#000000" fill-rule="nonzero" fill-opacity="1" /><path clip-path="url(#clip180)" d="M1464.05 34.3054 L1464.05 36.9095 L1439.57 36.9095 Q1439.92 42.4072 1442.87 45.3007 Q1445.85 48.1653 1451.15 48.1653 Q1454.22 48.1653 1457.08 47.4129 Q1459.97 46.6606 1462.81 45.156 L1462.81 50.1907 Q1459.94 51.406 1456.94 52.0425 Q1453.93 52.6791 1450.83 52.6791 Q1443.08 52.6791 1438.53 48.1653 Q1434.02 43.6514 1434.02 35.9547 Q1434.02 27.9975 1438.3 23.339 Q1442.61 18.6515 1449.9 18.6515 Q1456.44 18.6515 1460.23 22.876 Q1464.05 27.0716 1464.05 34.3054 M1458.73 32.7429 Q1458.67 28.3737 1456.27 25.7695 Q1453.9 23.1654 1449.96 23.1654 Q1445.51 23.1654 1442.81 25.6827 Q1440.15 28.2001 1439.75 32.7718 L1458.73 32.7429 Z" fill="#000000" fill-rule="nonzero" fill-opacity="1" /><path clip-path="url(#clip180)" d="M1491.63 6.81709 L1496.95 6.81709 L1496.95 51.84 L1491.63 51.84 L1491.63 6.81709 Z" fill="#000000" fill-rule="nonzero" fill-opacity="1" /><path clip-path="url(#clip180)" d="M1520.65 23.1654 Q1516.37 23.1654 1513.88 26.5218 Q1511.39 29.8494 1511.39 35.6653 Q1511.39 41.4813 1513.85 44.8377 Q1516.34 48.1653 1520.65 48.1653 Q1524.9 48.1653 1527.39 44.8088 Q1529.88 41.4523 1529.88 35.6653 Q1529.88 29.9072 1527.39 26.5508 Q1524.9 23.1654 1520.65 23.1654 M1520.65 18.6515 Q1527.59 18.6515 1531.56 23.1654 Q1535.52 27.6792 1535.52 35.6653 Q1535.52 43.6225 1531.56 48.1653 Q1527.59 52.6791 1520.65 52.6791 Q1513.68 52.6791 1509.71 48.1653 Q1505.78 43.6225 1505.78 35.6653 Q1505.78 27.6792 1509.71 23.1654 Q1513.68 18.6515 1520.65 18.6515 Z" fill="#000000" fill-rule="nonzero" fill-opacity="1" /><path clip-path="url(#clip180)" d="M1565.01 20.3876 L1565.01 25.4223 Q1562.75 24.2649 1560.32 23.6862 Q1557.89 23.1075 1555.29 23.1075 Q1551.32 23.1075 1549.32 24.3228 Q1547.36 25.5381 1547.36 27.9686 Q1547.36 29.8204 1548.77 30.891 Q1550.19 31.9327 1554.48 32.8876 L1556.3 33.2926 Q1561.97 34.5079 1564.34 36.7359 Q1566.74 38.935 1566.74 42.8991 Q1566.74 47.4129 1563.16 50.046 Q1559.6 52.6791 1553.35 52.6791 Q1550.74 52.6791 1547.91 52.1583 Q1545.1 51.6664 1541.98 50.6537 L1541.98 45.156 Q1544.93 46.6896 1547.79 47.4708 Q1550.66 48.2231 1553.46 48.2231 Q1557.22 48.2231 1559.25 46.95 Q1561.27 45.6479 1561.27 43.3042 Q1561.27 41.134 1559.8 39.9766 Q1558.35 38.8192 1553.4 37.7486 L1551.55 37.3146 Q1546.6 36.273 1544.41 34.1318 Q1542.21 31.9616 1542.21 28.2001 Q1542.21 23.6283 1545.45 21.1399 Q1548.69 18.6515 1554.65 18.6515 Q1557.6 18.6515 1560.2 19.0855 Q1562.81 19.5196 1565.01 20.3876 Z" fill="#000000" fill-rule="nonzero" fill-opacity="1" /><path clip-path="url(#clip180)" d="M1595.88 20.3876 L1595.88 25.4223 Q1593.62 24.2649 1591.19 23.6862 Q1588.76 23.1075 1586.16 23.1075 Q1582.19 23.1075 1580.2 24.3228 Q1578.23 25.5381 1578.23 27.9686 Q1578.23 29.8204 1579.65 30.891 Q1581.07 31.9327 1585.35 32.8876 L1587.17 33.2926 Q1592.84 34.5079 1595.22 36.7359 Q1597.62 38.935 1597.62 42.8991 Q1597.62 47.4129 1594.03 50.046 Q1590.47 52.6791 1584.22 52.6791 Q1581.62 52.6791 1578.78 52.1583 Q1575.97 51.6664 1572.85 50.6537 L1572.85 45.156 Q1575.8 46.6896 1578.66 47.4708 Q1581.53 48.2231 1584.34 48.2231 Q1588.1 48.2231 1590.12 46.95 Q1592.15 45.6479 1592.15 43.3042 Q1592.15 41.134 1590.67 39.9766 Q1589.23 38.8192 1584.28 37.7486 L1582.43 37.3146 Q1577.48 36.273 1575.28 34.1318 Q1573.08 31.9616 1573.08 28.2001 Q1573.08 23.6283 1576.32 21.1399 Q1579.56 18.6515 1585.52 18.6515 Q1588.47 18.6515 1591.08 19.0855 Q1593.68 19.5196 1595.88 20.3876 Z" fill="#000000" fill-rule="nonzero" fill-opacity="1" /><polyline clip-path="url(#clip182)" style="stroke:#009af9; stroke-linecap:round; stroke-linejoin:round; stroke-width:4; stroke-opacity:1; fill:none" points="309.067,143.465 313.043,295.328 317.02,413.157 320.996,500.519 324.972,565.783 328.948,614.435 332.925,648.858 336.901,677.787 340.877,704.213 344.853,730.023 348.83,755.406 352.806,780.215 356.782,803.818 360.759,825.367 364.735,844.082 368.711,859.422 372.687,871.22 376.664,879.7 380.64,885.46 384.616,889.344 388.593,892.299 392.569,895.21 396.545,898.765 400.521,903.389 404.498,909.261 408.474,916.297 412.45,924.274 416.427,932.862 420.403,941.723 424.379,950.581 428.355,959.259 432.332,967.681 436.308,975.902 440.284,984.008 444.26,992.094 448.237,1000.22 452.213,1008.38 456.189,1016.53 460.166,1024.56 464.142,1032.36 468.118,1039.81 472.094,1046.87 476.071,1053.59 480.047,1060.05 484.023,1066.35 488,1072.6 491.976,1078.9 495.952,1085.28 499.928,1091.75 503.905,1098.26 507.881,1104.76 511.857,1111.2 515.834,1117.57 519.81,1123.84 523.786,1130.02 527.762,1136.15 531.739,1142.24 535.715,1148.28 539.691,1154.29 543.668,1160.24 547.644,1166.09 551.62,1171.83 555.596,1177.43 559.573,1182.88 563.549,1188.23 567.525,1193.48 571.501,1198.67 575.478,1203.78 579.454,1208.82 583.43,1213.76 587.407,1218.6 591.383,1223.34 595.359,1227.97 599.335,1232.52 603.312,1236.97 607.288,1241.34 611.264,1245.63 615.241,1249.8 619.217,1253.88 623.193,1257.84 627.169,1261.69 631.146,1265.44 635.122,1269.08 639.098,1272.61 643.075,1276.04 647.051,1279.36 651.027,1282.56 655.003,1285.66 658.98,1288.65 662.956,1291.53 666.932,1294.31 670.908,1296.98 674.885,1299.55 678.861,1302.02 682.837,1304.4 686.814,1306.67 690.79,1308.86 694.766,1310.96 698.742,1312.97 702.719,1314.9 706.695,1316.74 710.671,1318.49 714.648,1320.17 718.624,1321.78 722.6,1323.3 726.576,1324.76 730.553,1326.14 734.529,1327.46 738.505,1328.71 742.482,1329.9 746.458,1331.03 750.434,1332.11 754.41,1333.13 758.387,1334.1 762.363,1335.03 766.339,1335.91 770.316,1336.75 774.292,1337.54 778.268,1338.31 782.244,1339.03 786.221,1339.73 790.197,1340.39 794.173,1341.03 798.149,1341.65 802.126,1342.24 806.102,1342.81 810.078,1343.36 814.055,1343.89 818.031,1344.41 822.007,1344.92 825.983,1345.41 829.96,1345.89 833.936,1346.35 837.912,1346.8 841.889,1347.25 845.865,1347.68 849.841,1348.1 853.817,1348.51 857.794,1348.91 861.77,1349.3 865.746,1349.69 869.723,1350.07 873.699,1350.44 877.675,1350.81 881.651,1351.18 885.628,1351.54 889.604,1351.9 893.58,1352.26 897.556,1352.62 901.533,1352.97 905.509,1353.32 909.485,1353.67 913.462,1354.02 917.438,1354.37 921.414,1354.72 925.39,1355.07 929.367,1355.41 933.343,1355.75 937.319,1356.09 941.296,1356.43 945.272,1356.77 949.248,1357.11 953.224,1357.45 957.201,1357.78 961.177,1358.11 965.153,1358.44 969.13,1358.76 973.106,1359.08 977.082,1359.4 981.058,1359.71 985.035,1360.02 989.011,1360.32 992.987,1360.62 996.964,1360.91 1000.94,1361.2 1004.92,1361.49 1008.89,1361.77 1012.87,1362.05 1016.84,1362.32 1020.82,1362.59 1024.8,1362.86 1028.77,1363.12 1032.75,1363.38 1036.73,1363.64 1040.7,1363.9 1044.68,1364.15 1048.66,1364.4 1052.63,1364.65 1056.61,1364.89 1060.58,1365.13 1064.56,1365.37 1068.54,1365.61 1072.51,1365.84 1076.49,1366.07 1080.47,1366.3 1084.44,1366.53 1088.42,1366.75 1092.39,1366.98 1096.37,1367.2 1100.35,1367.42 1104.32,1367.63 1108.3,1367.85 1112.28,1368.06 1116.25,1368.27 1120.23,1368.47 1124.2,1368.68 1128.18,1368.88 1132.16,1369.08 1136.13,1369.28 1140.11,1369.48 1144.09,1369.68 1148.06,1369.87 1152.04,1370.06 1156.01,1370.25 1159.99,1370.44 1163.97,1370.62 1167.94,1370.81 1171.92,1370.99 1175.9,1371.16 1179.87,1371.34 1183.85,1371.51 1187.82,1371.69 1191.8,1371.86 1195.78,1372.02 1199.75,1372.19 1203.73,1372.35 1207.71,1372.51 1211.68,1372.67 1215.66,1372.83 1219.64,1372.99 1223.61,1373.14 1227.59,1373.29 1231.56,1373.44 1235.54,1373.59 1239.52,1373.74 1243.49,1373.88 1247.47,1374.02 1251.45,1374.17 1255.42,1374.3 1259.4,1374.44 1263.37,1374.58 1267.35,1374.71 1271.33,1374.84 1275.3,1374.97 1279.28,1375.1 1283.26,1375.23 1287.23,1375.36 1291.21,1375.48 1295.18,1375.6 1299.16,1375.72 1303.14,1375.84 1307.11,1375.95 1311.09,1376.07 1315.07,1376.18 1319.04,1376.29 1323.02,1376.4 1326.99,1376.51 1330.97,1376.62 1334.95,1376.73 1338.92,1376.83 1342.9,1376.93 1346.88,1377.03 1350.85,1377.13 1354.83,1377.23 1358.81,1377.33 1362.78,1377.43 1366.76,1377.52 1370.73,1377.62 1374.71,1377.71 1378.69,1377.8 1382.66,1377.89 1386.64,1377.98 1390.62,1378.07 1394.59,1378.15 1398.57,1378.24 1402.54,1378.32 1406.52,1378.41 1410.5,1378.49 1414.47,1378.57 1418.45,1378.65 1422.43,1378.73 1426.4,1378.81 1430.38,1378.89 1434.35,1378.96 1438.33,1379.04 1442.31,1379.12 1446.28,1379.19 1450.26,1379.26 1454.24,1379.33 1458.21,1379.41 1462.19,1379.48 1466.16,1379.55 1470.14,1379.61 1474.12,1379.68 1478.09,1379.75 1482.07,1379.81 1486.05,1379.88 1490.02,1379.94 1494,1380.01 1497.97,1380.07 1501.95,1380.13 1505.93,1380.2 1509.9,1380.26 1513.88,1380.32 1517.86,1380.37 1521.83,1380.43 1525.81,1380.49 1529.79,1380.55 1533.76,1380.61 1537.74,1380.66 1541.71,1380.72 1545.69,1380.77 1549.67,1380.82 1553.64,1380.88 1557.62,1380.93 1561.6,1380.98 1565.57,1381.04 1569.55,1381.09 1573.52,1381.14 1577.5,1381.19 1581.48,1381.24 1585.45,1381.29 1589.43,1381.34 1593.41,1381.39 1597.38,1381.43 1601.36,1381.48 1605.33,1381.53 1609.31,1381.57 1613.29,1381.62 1617.26,1381.67 1621.24,1381.71 1625.22,1381.76 1629.19,1381.8 1633.17,1381.85 1637.14,1381.89 1641.12,1381.93 1645.1,1381.98 1649.07,1382.02 1653.05,1382.06 1657.03,1382.1 1661,1382.15 1664.98,1382.19 1668.95,1382.23 1672.93,1382.27 1676.91,1382.31 1680.88,1382.35 1684.86,1382.39 1688.84,1382.43 1692.81,1382.47 1696.79,1382.51 1700.77,1382.55 1704.74,1382.58 1708.72,1382.62 1712.69,1382.66 1716.67,1382.7 1720.65,1382.73 1724.62,1382.77 1728.6,1382.8 1732.58,1382.84 1736.55,1382.87 1740.53,1382.91 1744.5,1382.94 1748.48,1382.98 1752.46,1383.01 1756.43,1383.04 1760.41,1383.08 1764.39,1383.11 1768.36,1383.14 1772.34,1383.17 1776.31,1383.21 1780.29,1383.24 1784.27,1383.27 1788.24,1383.3 1792.22,1383.33 1796.2,1383.36 1800.17,1383.39 1804.15,1383.42 1808.12,1383.45 1812.1,1383.48 1816.08,1383.51 1820.05,1383.54 1824.03,1383.57 1828.01,1383.6 1831.98,1383.63 1835.96,1383.66 1839.93,1383.69 1843.91,1383.71 1847.89,1383.74 1851.86,1383.77 1855.84,1383.8 1859.82,1383.82 1863.79,1383.85 1867.77,1383.88 1871.75,1383.9 1875.72,1383.93 1879.7,1383.96 1883.67,1383.98 1887.65,1384.01 1891.63,1384.03 1895.6,1384.06 1899.58,1384.08 1903.56,1384.11 1907.53,1384.13 1911.51,1384.16 1915.48,1384.18 1919.46,1384.2 1923.44,1384.23 1927.41,1384.25 1931.39,1384.27 1935.37,1384.3 1939.34,1384.32 1943.32,1384.34 1947.29,1384.37 1951.27,1384.39 1955.25,1384.41 1959.22,1384.43 1963.2,1384.46 1967.18,1384.48 1971.15,1384.5 1975.13,1384.52 1979.1,1384.54 1983.08,1384.57 1987.06,1384.59 1991.03,1384.61 1995.01,1384.63 1998.99,1384.65 2002.96,1384.67 2006.94,1384.69 2010.92,1384.71 2014.89,1384.73 2018.87,1384.75 2022.84,1384.77 2026.82,1384.79 2030.8,1384.81 2034.77,1384.83 2038.75,1384.85 2042.73,1384.87 2046.7,1384.89 2050.68,1384.91 2054.65,1384.93 2058.63,1384.95 2062.61,1384.97 2066.58,1384.98 2070.56,1385 2074.54,1385.02 2078.51,1385.04 2082.49,1385.06 2086.46,1385.08 2090.44,1385.09 2094.42,1385.11 2098.39,1385.13 2102.37,1385.15 2106.35,1385.16 2110.32,1385.18 2114.3,1385.2 2118.27,1385.22 2122.25,1385.23 2126.23,1385.25 2130.2,1385.27 2134.18,1385.29 2138.16,1385.3 2142.13,1385.32 2146.11,1385.34 2150.08,1385.35 2154.06,1385.37 2158.04,1385.39 2162.01,1385.4 2165.99,1385.42 2169.97,1385.43 2173.94,1385.45 2177.92,1385.47 2181.9,1385.48 2185.87,1385.5 2189.85,1385.52 2193.82,1385.53 2197.8,1385.55 2201.78,1385.56 2205.75,1385.58 2209.73,1385.59 2213.71,1385.61 2217.68,1385.63 2221.66,1385.64 2225.63,1385.66 2229.61,1385.67 2233.59,1385.69 2237.56,1385.7 2241.54,1385.72 2245.52,1385.73 2249.49,1385.75 2253.47,1385.76 2257.44,1385.78 2261.42,1385.79 2265.4,1385.81 2269.37,1385.82 2273.35,1385.83 2277.33,1385.85 2281.3,1385.86 2285.28,1385.88 2289.25,1385.89 2293.23,1385.91 "/>
</svg>
