<?xml version="1.0" encoding="utf-8"?>
<svg xmlns="http://www.w3.org/2000/svg" xmlns:xlink="http://www.w3.org/1999/xlink" width="600" height="400" viewBox="0 0 2400 1600">
<defs>
  <clipPath id="clip460">
    <rect x="0" y="0" width="2400" height="1600"/>
  </clipPath>
</defs>
<path clip-path="url(#clip460)" d="M0 1600 L2400 1600 L2400 0 L0 0  Z" fill="#ffffff" fill-rule="evenodd" fill-opacity="1"/>
<defs>
  <clipPath id="clip461">
    <rect x="480" y="0" width="1681" height="1600"/>
  </clipPath>
</defs>
<path clip-path="url(#clip460)" d="M252.764 1423.18 L2352.76 1423.18 L2352.76 106.192 L252.764 106.192  Z" fill="#ffffff" fill-rule="evenodd" fill-opacity="1"/>
<defs>
  <clipPath id="clip462">
    <rect x="252" y="106" width="2101" height="1318"/>
  </clipPath>
</defs>
<polyline clip-path="url(#clip462)" style="stroke:#000000; stroke-linecap:round; stroke-linejoin:round; stroke-width:2; stroke-opacity:0.1; fill:none" points="291.982,1423.18 291.982,106.192 "/>
<polyline clip-path="url(#clip462)" style="stroke:#000000; stroke-linecap:round; stroke-linejoin:round; stroke-width:2; stroke-opacity:0.1; fill:none" points="797.371,1423.18 797.371,106.192 "/>
<polyline clip-path="url(#clip462)" style="stroke:#000000; stroke-linecap:round; stroke-linejoin:round; stroke-width:2; stroke-opacity:0.1; fill:none" points="1302.76,1423.18 1302.76,106.192 "/>
<polyline clip-path="url(#clip462)" style="stroke:#000000; stroke-linecap:round; stroke-linejoin:round; stroke-width:2; stroke-opacity:0.1; fill:none" points="1808.15,1423.18 1808.15,106.192 "/>
<polyline clip-path="url(#clip462)" style="stroke:#000000; stroke-linecap:round; stroke-linejoin:round; stroke-width:2; stroke-opacity:0.1; fill:none" points="2313.54,1423.18 2313.54,106.192 "/>
<polyline clip-path="url(#clip460)" style="stroke:#000000; stroke-linecap:round; stroke-linejoin:round; stroke-width:4; stroke-opacity:1; fill:none" points="252.764,1423.18 2352.76,1423.18 "/>
<polyline clip-path="url(#clip460)" style="stroke:#000000; stroke-linecap:round; stroke-linejoin:round; stroke-width:4; stroke-opacity:1; fill:none" points="291.982,1423.18 291.982,1404.28 "/>
<polyline clip-path="url(#clip460)" style="stroke:#000000; stroke-linecap:round; stroke-linejoin:round; stroke-width:4; stroke-opacity:1; fill:none" points="797.371,1423.18 797.371,1404.28 "/>
<polyline clip-path="url(#clip460)" style="stroke:#000000; stroke-linecap:round; stroke-linejoin:round; stroke-width:4; stroke-opacity:1; fill:none" points="1302.76,1423.18 1302.76,1404.28 "/>
<polyline clip-path="url(#clip460)" style="stroke:#000000; stroke-linecap:round; stroke-linejoin:round; stroke-width:4; stroke-opacity:1; fill:none" points="1808.15,1423.18 1808.15,1404.28 "/>
<polyline clip-path="url(#clip460)" style="stroke:#000000; stroke-linecap:round; stroke-linejoin:round; stroke-width:4; stroke-opacity:1; fill:none" points="2313.54,1423.18 2313.54,1404.28 "/>
<path clip-path="url(#clip460)" d="M291.982 1454.1 Q288.371 1454.1 286.542 1457.66 Q284.737 1461.2 284.737 1468.33 Q284.737 1475.44 286.542 1479.01 Q288.371 1482.55 291.982 1482.55 Q295.616 1482.55 297.422 1479.01 Q299.251 1475.44 299.251 1468.33 Q299.251 1461.2 297.422 1457.66 Q295.616 1454.1 291.982 1454.1 M291.982 1450.39 Q297.792 1450.39 300.848 1455 Q303.927 1459.58 303.927 1468.33 Q303.927 1477.06 300.848 1481.67 Q297.792 1486.25 291.982 1486.25 Q286.172 1486.25 283.093 1481.67 Q280.038 1477.06 280.038 1468.33 Q280.038 1459.58 283.093 1455 Q286.172 1450.39 291.982 1450.39 Z" fill="#000000" fill-rule="nonzero" fill-opacity="1" /><path clip-path="url(#clip460)" d="M776.642 1481.64 L792.961 1481.64 L792.961 1485.58 L771.017 1485.58 L771.017 1481.64 Q773.679 1478.89 778.262 1474.26 Q782.869 1469.61 784.049 1468.27 Q786.295 1465.74 787.174 1464.01 Q788.077 1462.25 788.077 1460.56 Q788.077 1457.8 786.133 1456.07 Q784.211 1454.33 781.11 1454.33 Q778.91 1454.33 776.457 1455.09 Q774.026 1455.86 771.248 1457.41 L771.248 1452.69 Q774.073 1451.55 776.526 1450.97 Q778.98 1450.39 781.017 1450.39 Q786.387 1450.39 789.582 1453.08 Q792.776 1455.77 792.776 1460.26 Q792.776 1462.39 791.966 1464.31 Q791.179 1466.2 789.072 1468.8 Q788.494 1469.47 785.392 1472.69 Q782.29 1475.88 776.642 1481.64 Z" fill="#000000" fill-rule="nonzero" fill-opacity="1" /><path clip-path="url(#clip460)" d="M802.822 1451.02 L821.179 1451.02 L821.179 1454.96 L807.105 1454.96 L807.105 1463.43 Q808.123 1463.08 809.142 1462.92 Q810.16 1462.73 811.179 1462.73 Q816.966 1462.73 820.345 1465.9 Q823.725 1469.08 823.725 1474.49 Q823.725 1480.07 820.253 1483.17 Q816.781 1486.25 810.461 1486.25 Q808.285 1486.25 806.017 1485.88 Q803.771 1485.51 801.364 1484.77 L801.364 1480.07 Q803.447 1481.2 805.67 1481.76 Q807.892 1482.32 810.369 1482.32 Q814.373 1482.32 816.711 1480.21 Q819.049 1478.1 819.049 1474.49 Q819.049 1470.88 816.711 1468.77 Q814.373 1466.67 810.369 1466.67 Q808.494 1466.67 806.619 1467.08 Q804.767 1467.5 802.822 1468.38 L802.822 1451.02 Z" fill="#000000" fill-rule="nonzero" fill-opacity="1" /><path clip-path="url(#clip460)" d="M1277.46 1451.02 L1295.82 1451.02 L1295.82 1454.96 L1281.74 1454.96 L1281.74 1463.43 Q1282.76 1463.08 1283.78 1462.92 Q1284.8 1462.73 1285.82 1462.73 Q1291.6 1462.73 1294.98 1465.9 Q1298.36 1469.08 1298.36 1474.49 Q1298.36 1480.07 1294.89 1483.17 Q1291.42 1486.25 1285.1 1486.25 Q1282.92 1486.25 1280.65 1485.88 Q1278.41 1485.51 1276 1484.77 L1276 1480.07 Q1278.08 1481.2 1280.31 1481.76 Q1282.53 1482.32 1285.01 1482.32 Q1289.01 1482.32 1291.35 1480.21 Q1293.69 1478.1 1293.69 1474.49 Q1293.69 1470.88 1291.35 1468.77 Q1289.01 1466.67 1285.01 1466.67 Q1283.13 1466.67 1281.26 1467.08 Q1279.4 1467.5 1277.46 1468.38 L1277.46 1451.02 Z" fill="#000000" fill-rule="nonzero" fill-opacity="1" /><path clip-path="url(#clip460)" d="M1317.57 1454.1 Q1313.96 1454.1 1312.13 1457.66 Q1310.33 1461.2 1310.33 1468.33 Q1310.33 1475.44 1312.13 1479.01 Q1313.96 1482.55 1317.57 1482.55 Q1321.21 1482.55 1323.01 1479.01 Q1324.84 1475.44 1324.84 1468.33 Q1324.84 1461.2 1323.01 1457.66 Q1321.21 1454.1 1317.57 1454.1 M1317.57 1450.39 Q1323.38 1450.39 1326.44 1455 Q1329.52 1459.58 1329.52 1468.33 Q1329.52 1477.06 1326.44 1481.67 Q1323.38 1486.25 1317.57 1486.25 Q1311.76 1486.25 1308.69 1481.67 Q1305.63 1477.06 1305.63 1468.33 Q1305.63 1459.58 1308.69 1455 Q1311.76 1450.39 1317.57 1450.39 Z" fill="#000000" fill-rule="nonzero" fill-opacity="1" /><path clip-path="url(#clip460)" d="M1782 1451.02 L1804.23 1451.02 L1804.23 1453.01 L1791.68 1485.58 L1786.79 1485.58 L1798.6 1454.96 L1782 1454.96 L1782 1451.02 Z" fill="#000000" fill-rule="nonzero" fill-opacity="1" /><path clip-path="url(#clip460)" d="M1813.39 1451.02 L1831.75 1451.02 L1831.75 1454.96 L1817.67 1454.96 L1817.67 1463.43 Q1818.69 1463.08 1819.71 1462.92 Q1820.73 1462.73 1821.75 1462.73 Q1827.54 1462.73 1830.91 1465.9 Q1834.29 1469.08 1834.29 1474.49 Q1834.29 1480.07 1830.82 1483.17 Q1827.35 1486.25 1821.03 1486.25 Q1818.85 1486.25 1816.59 1485.88 Q1814.34 1485.51 1811.93 1484.77 L1811.93 1480.07 Q1814.02 1481.2 1816.24 1481.76 Q1818.46 1482.32 1820.94 1482.32 Q1824.94 1482.32 1827.28 1480.21 Q1829.62 1478.1 1829.62 1474.49 Q1829.62 1470.88 1827.28 1468.77 Q1824.94 1466.67 1820.94 1466.67 Q1819.06 1466.67 1817.19 1467.08 Q1815.34 1467.5 1813.39 1468.38 L1813.39 1451.02 Z" fill="#000000" fill-rule="nonzero" fill-opacity="1" /><path clip-path="url(#clip460)" d="M2273.14 1481.64 L2280.78 1481.64 L2280.78 1455.28 L2272.47 1456.95 L2272.47 1452.69 L2280.74 1451.02 L2285.41 1451.02 L2285.41 1481.64 L2293.05 1481.64 L2293.05 1485.58 L2273.14 1485.58 L2273.14 1481.64 Z" fill="#000000" fill-rule="nonzero" fill-opacity="1" /><path clip-path="url(#clip460)" d="M2312.5 1454.1 Q2308.88 1454.1 2307.06 1457.66 Q2305.25 1461.2 2305.25 1468.33 Q2305.25 1475.44 2307.06 1479.01 Q2308.88 1482.55 2312.5 1482.55 Q2316.13 1482.55 2317.94 1479.01 Q2319.76 1475.44 2319.76 1468.33 Q2319.76 1461.2 2317.94 1457.66 Q2316.13 1454.1 2312.5 1454.1 M2312.5 1450.39 Q2318.31 1450.39 2321.36 1455 Q2324.44 1459.58 2324.44 1468.33 Q2324.44 1477.06 2321.36 1481.67 Q2318.31 1486.25 2312.5 1486.25 Q2306.69 1486.25 2303.61 1481.67 Q2300.55 1477.06 2300.55 1468.33 Q2300.55 1459.58 2303.61 1455 Q2306.69 1450.39 2312.5 1450.39 Z" fill="#000000" fill-rule="nonzero" fill-opacity="1" /><path clip-path="url(#clip460)" d="M2342.66 1454.1 Q2339.05 1454.1 2337.22 1457.66 Q2335.41 1461.2 2335.41 1468.33 Q2335.41 1475.44 2337.22 1479.01 Q2339.05 1482.55 2342.66 1482.55 Q2346.29 1482.55 2348.1 1479.01 Q2349.93 1475.44 2349.93 1468.33 Q2349.93 1461.2 2348.1 1457.66 Q2346.29 1454.1 2342.66 1454.1 M2342.66 1450.39 Q2348.47 1450.39 2351.52 1455 Q2354.6 1459.58 2354.6 1468.33 Q2354.6 1477.06 2351.52 1481.67 Q2348.47 1486.25 2342.66 1486.25 Q2336.85 1486.25 2333.77 1481.67 Q2330.71 1477.06 2330.71 1468.33 Q2330.71 1459.58 2333.77 1455 Q2336.85 1450.39 2342.66 1450.39 Z" fill="#000000" fill-rule="nonzero" fill-opacity="1" /><path clip-path="url(#clip460)" d="M1264.17 1550.12 Q1257.07 1550.12 1254.33 1551.75 Q1251.6 1553.37 1251.6 1557.29 Q1251.6 1560.4 1253.63 1562.25 Q1255.7 1564.07 1259.23 1564.07 Q1264.1 1564.07 1267.03 1560.63 Q1269.99 1557.16 1269.99 1551.43 L1269.99 1550.12 L1264.17 1550.12 M1275.85 1547.71 L1275.85 1568.04 L1269.99 1568.04 L1269.99 1562.63 Q1267.99 1565.88 1265 1567.44 Q1262 1568.97 1257.67 1568.97 Q1252.2 1568.97 1248.95 1565.91 Q1245.74 1562.82 1245.74 1557.67 Q1245.74 1551.65 1249.75 1548.6 Q1253.79 1545.54 1261.78 1545.54 L1269.99 1545.54 L1269.99 1544.97 Q1269.99 1540.93 1267.32 1538.73 Q1264.68 1536.5 1259.87 1536.5 Q1256.82 1536.5 1253.92 1537.23 Q1251.02 1537.97 1248.35 1539.43 L1248.35 1534.02 Q1251.56 1532.78 1254.59 1532.17 Q1257.61 1531.54 1260.48 1531.54 Q1268.21 1531.54 1272.03 1535.55 Q1275.85 1539.56 1275.85 1547.71 Z" fill="#000000" fill-rule="nonzero" fill-opacity="1" /><path clip-path="url(#clip460)" d="M1311.37 1549.81 Q1311.37 1543.44 1308.73 1539.94 Q1306.12 1536.44 1301.38 1536.44 Q1296.66 1536.44 1294.02 1539.94 Q1291.41 1543.44 1291.41 1549.81 Q1291.41 1556.14 1294.02 1559.64 Q1296.66 1563.14 1301.38 1563.14 Q1306.12 1563.14 1308.73 1559.64 Q1311.37 1556.14 1311.37 1549.81 M1317.23 1563.62 Q1317.23 1572.72 1313.18 1577.15 Q1309.14 1581.6 1300.8 1581.6 Q1297.72 1581.6 1294.98 1581.13 Q1292.24 1580.68 1289.66 1579.72 L1289.66 1574.03 Q1292.24 1575.43 1294.76 1576.1 Q1297.27 1576.76 1299.88 1576.76 Q1305.64 1576.76 1308.5 1573.74 Q1311.37 1570.75 1311.37 1564.67 L1311.37 1561.77 Q1309.56 1564.92 1306.72 1566.48 Q1303.89 1568.04 1299.94 1568.04 Q1293.39 1568.04 1289.38 1563.05 Q1285.37 1558.05 1285.37 1549.81 Q1285.37 1541.53 1289.38 1536.53 Q1293.39 1531.54 1299.94 1531.54 Q1303.89 1531.54 1306.72 1533.1 Q1309.56 1534.66 1311.37 1537.81 L1311.37 1532.4 L1317.23 1532.4 L1317.23 1563.62 Z" fill="#000000" fill-rule="nonzero" fill-opacity="1" /><path clip-path="url(#clip460)" d="M1359.78 1548.76 L1359.78 1551.62 L1332.85 1551.62 Q1333.24 1557.67 1336.48 1560.85 Q1339.76 1564 1345.59 1564 Q1348.96 1564 1352.11 1563.17 Q1355.29 1562.35 1358.41 1560.69 L1358.41 1566.23 Q1355.26 1567.57 1351.95 1568.27 Q1348.64 1568.97 1345.24 1568.97 Q1336.71 1568.97 1331.71 1564 Q1326.74 1559.04 1326.74 1550.57 Q1326.74 1541.82 1331.45 1536.69 Q1336.2 1531.54 1344.22 1531.54 Q1351.41 1531.54 1355.58 1536.18 Q1359.78 1540.8 1359.78 1548.76 M1353.92 1547.04 Q1353.86 1542.23 1351.22 1539.37 Q1348.61 1536.5 1344.28 1536.5 Q1339.38 1536.5 1336.42 1539.27 Q1333.49 1542.04 1333.04 1547.07 L1353.92 1547.04 Z" fill="#000000" fill-rule="nonzero" fill-opacity="1" /><polyline clip-path="url(#clip462)" style="stroke:#000000; stroke-linecap:round; stroke-linejoin:round; stroke-width:2; stroke-opacity:0.1; fill:none" points="252.764,1345.4 2352.76,1345.4 "/>
<polyline clip-path="url(#clip462)" style="stroke:#000000; stroke-linecap:round; stroke-linejoin:round; stroke-width:2; stroke-opacity:0.1; fill:none" points="252.764,702.716 2352.76,702.716 "/>
<polyline clip-path="url(#clip460)" style="stroke:#000000; stroke-linecap:round; stroke-linejoin:round; stroke-width:4; stroke-opacity:1; fill:none" points="252.764,1423.18 252.764,106.192 "/>
<polyline clip-path="url(#clip460)" style="stroke:#000000; stroke-linecap:round; stroke-linejoin:round; stroke-width:4; stroke-opacity:1; fill:none" points="252.764,1345.4 271.662,1345.4 "/>
<polyline clip-path="url(#clip460)" style="stroke:#000000; stroke-linecap:round; stroke-linejoin:round; stroke-width:4; stroke-opacity:1; fill:none" points="252.764,702.716 271.662,702.716 "/>
<path clip-path="url(#clip460)" d="M114.931 1365.19 L122.57 1365.19 L122.57 1338.83 L114.26 1340.5 L114.26 1336.24 L122.524 1334.57 L127.2 1334.57 L127.2 1365.19 L134.839 1365.19 L134.839 1369.13 L114.931 1369.13 L114.931 1365.19 Z" fill="#000000" fill-rule="nonzero" fill-opacity="1" /><path clip-path="url(#clip460)" d="M154.283 1337.65 Q150.672 1337.65 148.843 1341.21 Q147.038 1344.76 147.038 1351.88 Q147.038 1358.99 148.843 1362.56 Q150.672 1366.1 154.283 1366.1 Q157.917 1366.1 159.723 1362.56 Q161.552 1358.99 161.552 1351.88 Q161.552 1344.76 159.723 1341.21 Q157.917 1337.65 154.283 1337.65 M154.283 1333.95 Q160.093 1333.95 163.149 1338.55 Q166.227 1343.13 166.227 1351.88 Q166.227 1360.61 163.149 1365.22 Q160.093 1369.8 154.283 1369.8 Q148.473 1369.8 145.394 1365.22 Q142.339 1360.61 142.339 1351.88 Q142.339 1343.13 145.394 1338.55 Q148.473 1333.95 154.283 1333.95 Z" fill="#000000" fill-rule="nonzero" fill-opacity="1" /><path clip-path="url(#clip460)" d="M166.227 1328.05 L190.339 1328.05 L190.339 1331.24 L166.227 1331.24 L166.227 1328.05 Z" fill="#000000" fill-rule="nonzero" fill-opacity="1" /><path clip-path="url(#clip460)" d="M208.978 1316.95 L199.386 1331.94 L208.978 1331.94 L208.978 1316.95 M207.981 1313.64 L212.758 1313.64 L212.758 1331.94 L216.764 1331.94 L216.764 1335.1 L212.758 1335.1 L212.758 1341.72 L208.978 1341.72 L208.978 1335.1 L196.301 1335.1 L196.301 1331.43 L207.981 1313.64 Z" fill="#000000" fill-rule="nonzero" fill-opacity="1" /><path clip-path="url(#clip460)" d="M116.624 722.508 L124.263 722.508 L124.263 696.143 L115.953 697.809 L115.953 693.55 L124.217 691.884 L128.893 691.884 L128.893 722.508 L136.531 722.508 L136.531 726.444 L116.624 726.444 L116.624 722.508 Z" fill="#000000" fill-rule="nonzero" fill-opacity="1" /><path clip-path="url(#clip460)" d="M155.976 694.962 Q152.365 694.962 150.536 698.527 Q148.73 702.069 148.73 709.198 Q148.73 716.305 150.536 719.869 Q152.365 723.411 155.976 723.411 Q159.61 723.411 161.416 719.869 Q163.244 716.305 163.244 709.198 Q163.244 702.069 161.416 698.527 Q159.61 694.962 155.976 694.962 M155.976 691.259 Q161.786 691.259 164.841 695.865 Q167.92 700.448 167.92 709.198 Q167.92 717.925 164.841 722.532 Q161.786 727.115 155.976 727.115 Q150.166 727.115 147.087 722.532 Q144.031 717.925 144.031 709.198 Q144.031 700.448 147.087 695.865 Q150.166 691.259 155.976 691.259 Z" fill="#000000" fill-rule="nonzero" fill-opacity="1" /><path clip-path="url(#clip460)" d="M167.92 685.36 L192.032 685.36 L192.032 688.557 L167.92 688.557 L167.92 685.36 Z" fill="#000000" fill-rule="nonzero" fill-opacity="1" /><path clip-path="url(#clip460)" d="M203.504 695.836 L216.764 695.836 L216.764 699.033 L198.934 699.033 L198.934 695.836 Q201.097 693.598 204.821 689.836 Q208.564 686.056 209.523 684.965 Q211.347 682.915 212.062 681.504 Q212.796 680.075 212.796 678.702 Q212.796 676.464 211.216 675.053 Q209.655 673.643 207.134 673.643 Q205.348 673.643 203.354 674.263 Q201.379 674.884 199.122 676.144 L199.122 672.307 Q201.417 671.386 203.41 670.916 Q205.404 670.445 207.059 670.445 Q211.423 670.445 214.018 672.627 Q216.613 674.809 216.613 678.457 Q216.613 680.188 215.955 681.749 Q215.316 683.291 213.604 685.398 Q213.134 685.943 210.614 688.557 Q208.094 691.153 203.504 695.836 Z" fill="#000000" fill-rule="nonzero" fill-opacity="1" /><path clip-path="url(#clip460)" d="M14.479 1022.5 L19.3487 1022.5 L19.3487 1028.1 Q19.3487 1031.25 20.6219 1032.49 Q21.895 1033.7 25.2052 1033.7 L28.3562 1033.7 L28.3562 1024.06 L32.9077 1024.06 L32.9077 1033.7 L64.0042 1033.7 L64.0042 1039.59 L32.9077 1039.59 L32.9077 1045.19 L28.3562 1045.19 L28.3562 1039.59 L25.8736 1039.59 Q19.9216 1039.59 17.2162 1036.82 Q14.479 1034.05 14.479 1028.04 L14.479 1022.5 Z" fill="#000000" fill-rule="nonzero" fill-opacity="1" /><path clip-path="url(#clip460)" d="M32.4621 1003.78 Q32.4621 1008.49 36.1542 1011.23 Q39.8145 1013.97 46.212 1013.97 Q52.6095 1013.97 56.3017 1011.26 Q59.9619 1008.52 59.9619 1003.78 Q59.9619 999.103 56.2698 996.366 Q52.5777 993.629 46.212 993.629 Q39.8781 993.629 36.186 996.366 Q32.4621 999.103 32.4621 1003.78 M27.4968 1003.78 Q27.4968 996.143 32.4621 991.783 Q37.4273 987.422 46.212 987.422 Q54.9649 987.422 59.9619 991.783 Q64.9272 996.143 64.9272 1003.78 Q64.9272 1011.45 59.9619 1015.81 Q54.9649 1020.14 46.212 1020.14 Q37.4273 1020.14 32.4621 1015.81 Q27.4968 1011.45 27.4968 1003.78 Z" fill="#000000" fill-rule="nonzero" fill-opacity="1" /><path clip-path="url(#clip460)" d="M33.8307 957.058 Q33.2578 958.044 33.0032 959.222 Q32.7167 960.368 32.7167 961.768 Q32.7167 966.734 35.9632 969.407 Q39.1779 972.049 45.2253 972.049 L64.0042 972.049 L64.0042 977.937 L28.3562 977.937 L28.3562 972.049 L33.8944 972.049 Q30.6479 970.203 29.0883 967.243 Q27.4968 964.283 27.4968 960.05 Q27.4968 959.445 27.5923 958.713 Q27.656 957.981 27.8151 957.089 L33.8307 957.058 Z" fill="#000000" fill-rule="nonzero" fill-opacity="1" /><path clip-path="url(#clip460)" d="M29.7248 926.693 L35.1993 926.693 Q33.8307 929.176 33.1623 931.69 Q32.4621 934.173 32.4621 936.719 Q32.4621 942.417 36.0905 945.568 Q39.6872 948.719 46.212 948.719 Q52.7369 948.719 56.3653 945.568 Q59.9619 942.417 59.9619 936.719 Q59.9619 934.173 59.2935 931.69 Q58.5933 929.176 57.2247 926.693 L62.6355 926.693 Q63.7814 929.144 64.3543 931.786 Q64.9272 934.396 64.9272 937.356 Q64.9272 945.408 59.8664 950.151 Q54.8057 954.893 46.212 954.893 Q37.491 954.893 32.4939 950.119 Q27.4968 945.313 27.4968 936.974 Q27.4968 934.268 28.0697 931.69 Q28.6108 929.112 29.7248 926.693 Z" fill="#000000" fill-rule="nonzero" fill-opacity="1" /><path clip-path="url(#clip460)" d="M44.7161 886.016 L47.5806 886.016 L47.5806 912.943 Q53.6281 912.561 56.8109 909.315 Q59.9619 906.036 59.9619 900.212 Q59.9619 896.838 59.1344 893.687 Q58.3069 890.504 56.6518 887.385 L62.1899 887.385 Q63.5267 890.536 64.227 893.846 Q64.9272 897.156 64.9272 900.562 Q64.9272 909.092 59.9619 914.089 Q54.9967 919.054 46.5303 919.054 Q37.7774 919.054 32.6531 914.344 Q27.4968 909.601 27.4968 901.581 Q27.4968 894.387 32.1438 890.218 Q36.7589 886.016 44.7161 886.016 M42.9973 891.873 Q38.1912 891.936 35.3266 894.578 Q32.4621 897.188 32.4621 901.517 Q32.4621 906.418 35.2312 909.378 Q38.0002 912.307 43.0292 912.752 L42.9973 891.873 Z" fill="#000000" fill-rule="nonzero" fill-opacity="1" /><path clip-path="url(#clip460)" d="M32.4621 841.87 Q32.4621 846.581 36.1542 849.318 Q39.8145 852.055 46.212 852.055 Q52.6095 852.055 56.3017 849.35 Q59.9619 846.613 59.9619 841.87 Q59.9619 837.191 56.2698 834.454 Q52.5777 831.717 46.212 831.717 Q39.8781 831.717 36.186 834.454 Q32.4621 837.191 32.4621 841.87 M27.4968 841.87 Q27.4968 834.231 32.4621 829.871 Q37.4273 825.51 46.212 825.51 Q54.9649 825.51 59.9619 829.871 Q64.9272 834.231 64.9272 841.87 Q64.9272 849.541 59.9619 853.901 Q54.9649 858.23 46.212 858.23 Q37.4273 858.23 32.4621 853.901 Q27.4968 849.541 27.4968 841.87 Z" fill="#000000" fill-rule="nonzero" fill-opacity="1" /><path clip-path="url(#clip460)" d="M14.479 797.756 L19.3487 797.756 L19.3487 803.358 Q19.3487 806.509 20.6219 807.75 Q21.895 808.959 25.2052 808.959 L28.3562 808.959 L28.3562 799.315 L32.9077 799.315 L32.9077 808.959 L64.0042 808.959 L64.0042 814.848 L32.9077 814.848 L32.9077 820.45 L28.3562 820.45 L28.3562 814.848 L25.8736 814.848 Q19.9216 814.848 17.2162 812.079 Q14.479 809.31 14.479 803.294 L14.479 797.756 Z" fill="#000000" fill-rule="nonzero" fill-opacity="1" /><path clip-path="url(#clip460)" d="M35.1993 744.379 Q31.2526 742.183 29.3747 739.128 Q27.4968 736.072 27.4968 731.934 Q27.4968 726.364 31.4117 723.341 Q35.2948 720.317 42.4881 720.317 L64.0042 720.317 L64.0042 726.205 L42.679 726.205 Q37.5546 726.205 35.072 728.02 Q32.5894 729.834 32.5894 733.558 Q32.5894 738.109 35.6131 740.751 Q38.6368 743.393 43.8567 743.393 L64.0042 743.393 L64.0042 749.281 L42.679 749.281 Q37.5228 749.281 35.072 751.095 Q32.5894 752.909 32.5894 756.697 Q32.5894 761.185 35.6449 763.827 Q38.6686 766.468 43.8567 766.468 L64.0042 766.468 L64.0042 772.357 L28.3562 772.357 L28.3562 766.468 L33.8944 766.468 Q30.616 764.463 29.0564 761.662 Q27.4968 758.861 27.4968 755.01 Q27.4968 751.127 29.4702 748.422 Q31.4436 745.684 35.1993 744.379 Z" fill="#000000" fill-rule="nonzero" fill-opacity="1" /><path clip-path="url(#clip460)" d="M32.4621 694.822 Q32.4621 699.533 36.1542 702.27 Q39.8145 705.007 46.212 705.007 Q52.6095 705.007 56.3017 702.302 Q59.9619 699.565 59.9619 694.822 Q59.9619 690.144 56.2698 687.406 Q52.5777 684.669 46.212 684.669 Q39.8781 684.669 36.186 687.406 Q32.4621 690.144 32.4621 694.822 M27.4968 694.822 Q27.4968 687.184 32.4621 682.823 Q37.4273 678.462 46.212 678.462 Q54.9649 678.462 59.9619 682.823 Q64.9272 687.184 64.9272 694.822 Q64.9272 702.493 59.9619 706.854 Q54.9649 711.182 46.212 711.182 Q37.4273 711.182 32.4621 706.854 Q27.4968 702.493 27.4968 694.822 Z" fill="#000000" fill-rule="nonzero" fill-opacity="1" /><path clip-path="url(#clip460)" d="M33.8307 648.098 Q33.2578 649.085 33.0032 650.262 Q32.7167 651.408 32.7167 652.809 Q32.7167 657.774 35.9632 660.448 Q39.1779 663.089 45.2253 663.089 L64.0042 663.089 L64.0042 668.978 L28.3562 668.978 L28.3562 663.089 L33.8944 663.089 Q30.6479 661.243 29.0883 658.283 Q27.4968 655.323 27.4968 651.09 Q27.4968 650.485 27.5923 649.753 Q27.656 649.021 27.8151 648.13 L33.8307 648.098 Z" fill="#000000" fill-rule="nonzero" fill-opacity="1" /><path clip-path="url(#clip460)" d="M18.2347 636.162 L28.3562 636.162 L28.3562 624.099 L32.9077 624.099 L32.9077 636.162 L52.2594 636.162 Q56.6199 636.162 57.8613 634.985 Q59.1026 633.775 59.1026 630.115 L59.1026 624.099 L64.0042 624.099 L64.0042 630.115 Q64.0042 636.894 61.4897 639.473 Q58.9434 642.051 52.2594 642.051 L32.9077 642.051 L32.9077 646.347 L28.3562 646.347 L28.3562 642.051 L18.2347 642.051 L18.2347 636.162 Z" fill="#000000" fill-rule="nonzero" fill-opacity="1" /><path clip-path="url(#clip460)" d="M46.0847 600.196 Q46.0847 607.294 47.7079 610.031 Q49.3312 612.768 53.2461 612.768 Q56.3653 612.768 58.2114 610.731 Q60.0256 608.663 60.0256 605.13 Q60.0256 600.26 56.5881 597.332 Q53.1188 594.372 47.3897 594.372 L46.0847 594.372 L46.0847 600.196 M43.6657 588.515 L64.0042 588.515 L64.0042 594.372 L58.5933 594.372 Q61.8398 596.377 63.3994 599.369 Q64.9272 602.36 64.9272 606.689 Q64.9272 612.164 61.8716 615.41 Q58.7843 618.625 53.6281 618.625 Q47.6125 618.625 44.5569 614.614 Q41.5014 610.572 41.5014 602.583 L41.5014 594.372 L40.9285 594.372 Q36.8862 594.372 34.6901 597.045 Q32.4621 599.687 32.4621 604.493 Q32.4621 607.549 33.1941 610.445 Q33.9262 613.341 35.3903 616.015 L29.9795 616.015 Q28.7381 612.8 28.1334 609.777 Q27.4968 606.753 27.4968 603.888 Q27.4968 596.154 31.5072 592.334 Q35.5176 588.515 43.6657 588.515 Z" fill="#000000" fill-rule="nonzero" fill-opacity="1" /><path clip-path="url(#clip460)" d="M14.479 576.452 L14.479 570.596 L64.0042 570.596 L64.0042 576.452 L14.479 576.452 Z" fill="#000000" fill-rule="nonzero" fill-opacity="1" /><path clip-path="url(#clip460)" d="M28.3562 558.342 L28.3562 552.485 L64.0042 552.485 L64.0042 558.342 L28.3562 558.342 M14.479 558.342 L14.479 552.485 L21.895 552.485 L21.895 558.342 L14.479 558.342 Z" fill="#000000" fill-rule="nonzero" fill-opacity="1" /><path clip-path="url(#clip460)" d="M18.2347 534.438 L28.3562 534.438 L28.3562 522.375 L32.9077 522.375 L32.9077 534.438 L52.2594 534.438 Q56.6199 534.438 57.8613 533.261 Q59.1026 532.051 59.1026 528.391 L59.1026 522.375 L64.0042 522.375 L64.0042 528.391 Q64.0042 535.17 61.4897 537.749 Q58.9434 540.327 52.2594 540.327 L32.9077 540.327 L32.9077 544.624 L28.3562 544.624 L28.3562 540.327 L18.2347 540.327 L18.2347 534.438 Z" fill="#000000" fill-rule="nonzero" fill-opacity="1" /><path clip-path="url(#clip460)" d="M67.3143 499.841 Q73.68 502.323 75.6216 504.679 Q77.5631 507.034 77.5631 510.981 L77.5631 515.66 L72.6615 515.66 L72.6615 512.222 Q72.6615 509.803 71.5157 508.466 Q70.3699 507.129 66.1048 505.506 L63.4312 504.456 L28.3562 518.874 L28.3562 512.668 L56.238 501.528 L28.3562 490.388 L28.3562 484.181 L67.3143 499.841 Z" fill="#000000" fill-rule="nonzero" fill-opacity="1" /><path clip-path="url(#clip460)" d="M1044.43 8.64 L1069.25 8.64 L1069.25 13.559 L1050.27 13.559 L1050.27 26.2904 L1067.4 26.2904 L1067.4 31.2093 L1050.27 31.2093 L1050.27 51.84 L1044.43 51.84 L1044.43 8.64 Z" fill="#000000" fill-rule="nonzero" fill-opacity="1" /><path clip-path="url(#clip460)" d="M1088.73 23.1654 Q1084.45 23.1654 1081.96 26.5218 Q1079.47 29.8494 1079.47 35.6653 Q1079.47 41.4813 1081.93 44.8377 Q1084.42 48.1653 1088.73 48.1653 Q1092.98 48.1653 1095.47 44.8088 Q1097.96 41.4523 1097.96 35.6653 Q1097.96 29.9072 1095.47 26.5508 Q1092.98 23.1654 1088.73 23.1654 M1088.73 18.6515 Q1095.67 18.6515 1099.64 23.1654 Q1103.6 27.6792 1103.6 35.6653 Q1103.6 43.6225 1099.64 48.1653 Q1095.67 52.6791 1088.73 52.6791 Q1081.75 52.6791 1077.79 48.1653 Q1073.85 43.6225 1073.85 35.6653 Q1073.85 27.6792 1077.79 23.1654 Q1081.75 18.6515 1088.73 18.6515 Z" fill="#000000" fill-rule="nonzero" fill-opacity="1" /><path clip-path="url(#clip460)" d="M1131.2 24.4096 Q1130.31 23.8888 1129.24 23.6573 Q1128.19 23.3969 1126.92 23.3969 Q1122.41 23.3969 1119.98 26.3482 Q1117.58 29.2707 1117.58 34.7683 L1117.58 51.84 L1112.22 51.84 L1112.22 19.4328 L1117.58 19.4328 L1117.58 24.4675 Q1119.25 21.5161 1121.94 20.0983 Q1124.64 18.6515 1128.48 18.6515 Q1129.03 18.6515 1129.7 18.7383 Q1130.37 18.7962 1131.18 18.9409 L1131.2 24.4096 Z" fill="#000000" fill-rule="nonzero" fill-opacity="1" /><path clip-path="url(#clip460)" d="M1158.81 20.677 L1158.81 25.6538 Q1156.55 24.4096 1154.27 23.802 Q1152.01 23.1654 1149.69 23.1654 Q1144.51 23.1654 1141.65 26.464 Q1138.79 29.7336 1138.79 35.6653 Q1138.79 41.597 1141.65 44.8956 Q1144.51 48.1653 1149.69 48.1653 Q1152.01 48.1653 1154.27 47.5576 Q1156.55 46.921 1158.81 45.6768 L1158.81 50.5958 Q1156.58 51.6375 1154.18 52.1583 Q1151.81 52.6791 1149.11 52.6791 Q1141.79 52.6791 1137.48 48.0784 Q1133.17 43.4778 1133.17 35.6653 Q1133.17 27.7371 1137.51 23.1943 Q1141.88 18.6515 1149.46 18.6515 Q1151.92 18.6515 1154.27 19.1724 Q1156.61 19.6642 1158.81 20.677 Z" fill="#000000" fill-rule="nonzero" fill-opacity="1" /><path clip-path="url(#clip460)" d="M1195.79 34.3054 L1195.79 36.9095 L1171.31 36.9095 Q1171.66 42.4072 1174.61 45.3007 Q1177.59 48.1653 1182.88 48.1653 Q1185.95 48.1653 1188.81 47.4129 Q1191.71 46.6606 1194.54 45.156 L1194.54 50.1907 Q1191.68 51.406 1188.67 52.0425 Q1185.66 52.6791 1182.56 52.6791 Q1174.81 52.6791 1170.27 48.1653 Q1165.75 43.6514 1165.75 35.9547 Q1165.75 27.9975 1170.03 23.339 Q1174.35 18.6515 1181.64 18.6515 Q1188.18 18.6515 1191.97 22.876 Q1195.79 27.0716 1195.79 34.3054 M1190.46 32.7429 Q1190.41 28.3737 1188 25.7695 Q1185.63 23.1654 1181.7 23.1654 Q1177.24 23.1654 1174.55 25.6827 Q1171.89 28.2001 1171.48 32.7718 L1190.46 32.7429 Z" fill="#000000" fill-rule="nonzero" fill-opacity="1" /><path clip-path="url(#clip460)" d="M1235.92 23.1654 Q1231.64 23.1654 1229.15 26.5218 Q1226.66 29.8494 1226.66 35.6653 Q1226.66 41.4813 1229.12 44.8377 Q1231.61 48.1653 1235.92 48.1653 Q1240.17 48.1653 1242.66 44.8088 Q1245.15 41.4523 1245.15 35.6653 Q1245.15 29.9072 1242.66 26.5508 Q1240.17 23.1654 1235.92 23.1654 M1235.92 18.6515 Q1242.86 18.6515 1246.83 23.1654 Q1250.79 27.6792 1250.79 35.6653 Q1250.79 43.6225 1246.83 48.1653 Q1242.86 52.6791 1235.92 52.6791 Q1228.95 52.6791 1224.98 48.1653 Q1221.05 43.6225 1221.05 35.6653 Q1221.05 27.6792 1224.98 23.1654 Q1228.95 18.6515 1235.92 18.6515 Z" fill="#000000" fill-rule="nonzero" fill-opacity="1" /><path clip-path="url(#clip460)" d="M1276.02 6.81709 L1276.02 11.2442 L1270.93 11.2442 Q1268.07 11.2442 1266.94 12.4016 Q1265.84 13.559 1265.84 16.5682 L1265.84 19.4328 L1274.61 19.4328 L1274.61 23.5705 L1265.84 23.5705 L1265.84 51.84 L1260.49 51.84 L1260.49 23.5705 L1255.39 23.5705 L1255.39 19.4328 L1260.49 19.4328 L1260.49 17.1758 Q1260.49 11.765 1263 9.30551 Q1265.52 6.81709 1270.99 6.81709 L1276.02 6.81709 Z" fill="#000000" fill-rule="nonzero" fill-opacity="1" /><path clip-path="url(#clip460)" d="M1324.55 25.6538 Q1326.54 22.0659 1329.32 20.3587 Q1332.1 18.6515 1335.86 18.6515 Q1340.93 18.6515 1343.67 22.2105 Q1346.42 25.7406 1346.42 32.2799 L1346.42 51.84 L1341.07 51.84 L1341.07 32.4535 Q1341.07 27.795 1339.42 25.5381 Q1337.77 23.2811 1334.39 23.2811 Q1330.25 23.2811 1327.85 26.03 Q1325.44 28.7788 1325.44 33.5241 L1325.44 51.84 L1320.09 51.84 L1320.09 32.4535 Q1320.09 27.7661 1318.44 25.5381 Q1316.79 23.2811 1313.35 23.2811 Q1309.27 23.2811 1306.87 26.0589 Q1304.47 28.8077 1304.47 33.5241 L1304.47 51.84 L1299.11 51.84 L1299.11 19.4328 L1304.47 19.4328 L1304.47 24.4675 Q1306.29 21.4872 1308.84 20.0693 Q1311.38 18.6515 1314.88 18.6515 Q1318.41 18.6515 1320.87 20.4455 Q1323.36 22.2395 1324.55 25.6538 Z" fill="#000000" fill-rule="nonzero" fill-opacity="1" /><path clip-path="url(#clip460)" d="M1369.6 23.1654 Q1365.32 23.1654 1362.83 26.5218 Q1360.34 29.8494 1360.34 35.6653 Q1360.34 41.4813 1362.8 44.8377 Q1365.29 48.1653 1369.6 48.1653 Q1373.85 48.1653 1376.34 44.8088 Q1378.83 41.4523 1378.83 35.6653 Q1378.83 29.9072 1376.34 26.5508 Q1373.85 23.1654 1369.6 23.1654 M1369.6 18.6515 Q1376.54 18.6515 1380.51 23.1654 Q1384.47 27.6792 1384.47 35.6653 Q1384.47 43.6225 1380.51 48.1653 Q1376.54 52.6791 1369.6 52.6791 Q1362.63 52.6791 1358.66 48.1653 Q1354.73 43.6225 1354.73 35.6653 Q1354.73 27.6792 1358.66 23.1654 Q1362.63 18.6515 1369.6 18.6515 Z" fill="#000000" fill-rule="nonzero" fill-opacity="1" /><path clip-path="url(#clip460)" d="M1412.08 24.4096 Q1411.18 23.8888 1410.11 23.6573 Q1409.07 23.3969 1407.79 23.3969 Q1403.28 23.3969 1400.85 26.3482 Q1398.45 29.2707 1398.45 34.7683 L1398.45 51.84 L1393.1 51.84 L1393.1 19.4328 L1398.45 19.4328 L1398.45 24.4675 Q1400.13 21.5161 1402.82 20.0983 Q1405.51 18.6515 1409.36 18.6515 Q1409.91 18.6515 1410.57 18.7383 Q1411.24 18.7962 1412.05 18.9409 L1412.08 24.4096 Z" fill="#000000" fill-rule="nonzero" fill-opacity="1" /><path clip-path="url(#clip460)" d="M1422.93 10.2314 L1422.93 19.4328 L1433.89 19.4328 L1433.89 23.5705 L1422.93 23.5705 L1422.93 41.163 Q1422.93 45.1271 1424 46.2555 Q1425.1 47.384 1428.42 47.384 L1433.89 47.384 L1433.89 51.84 L1428.42 51.84 Q1422.26 51.84 1419.92 49.5541 Q1417.57 47.2393 1417.57 41.163 L1417.57 23.5705 L1413.67 23.5705 L1413.67 19.4328 L1417.57 19.4328 L1417.57 10.2314 L1422.93 10.2314 Z" fill="#000000" fill-rule="nonzero" fill-opacity="1" /><path clip-path="url(#clip460)" d="M1455.62 35.5496 Q1449.17 35.5496 1446.68 37.0253 Q1444.19 38.501 1444.19 42.06 Q1444.19 44.8956 1446.05 46.5738 Q1447.93 48.2231 1451.14 48.2231 Q1455.57 48.2231 1458.23 45.0981 Q1460.92 41.9442 1460.92 36.7359 L1460.92 35.5496 L1455.62 35.5496 M1466.24 33.3505 L1466.24 51.84 L1460.92 51.84 L1460.92 46.921 Q1459.1 49.8724 1456.38 51.2902 Q1453.66 52.6791 1449.72 52.6791 Q1444.74 52.6791 1441.79 49.9014 Q1438.87 47.0947 1438.87 42.4072 Q1438.87 36.9385 1442.52 34.1607 Q1446.19 31.3829 1453.45 31.3829 L1460.92 31.3829 L1460.92 30.8621 Q1460.92 27.1874 1458.49 25.1908 Q1456.09 23.1654 1451.72 23.1654 Q1448.94 23.1654 1446.31 23.8309 Q1443.67 24.4964 1441.24 25.8274 L1441.24 20.9085 Q1444.17 19.78 1446.91 19.2302 Q1449.66 18.6515 1452.27 18.6515 Q1459.3 18.6515 1462.77 22.2973 Q1466.24 25.9431 1466.24 33.3505 Z" fill="#000000" fill-rule="nonzero" fill-opacity="1" /><path clip-path="url(#clip460)" d="M1477.21 6.81709 L1482.53 6.81709 L1482.53 51.84 L1477.21 51.84 L1477.21 6.81709 Z" fill="#000000" fill-rule="nonzero" fill-opacity="1" /><path clip-path="url(#clip460)" d="M1493.67 19.4328 L1499 19.4328 L1499 51.84 L1493.67 51.84 L1493.67 19.4328 M1493.67 6.81709 L1499 6.81709 L1499 13.559 L1493.67 13.559 L1493.67 6.81709 Z" fill="#000000" fill-rule="nonzero" fill-opacity="1" /><path clip-path="url(#clip460)" d="M1515.4 10.2314 L1515.4 19.4328 L1526.37 19.4328 L1526.37 23.5705 L1515.4 23.5705 L1515.4 41.163 Q1515.4 45.1271 1516.47 46.2555 Q1517.57 47.384 1520.9 47.384 L1526.37 47.384 L1526.37 51.84 L1520.9 51.84 Q1514.74 51.84 1512.39 49.5541 Q1510.05 47.2393 1510.05 41.163 L1510.05 23.5705 L1506.14 23.5705 L1506.14 19.4328 L1510.05 19.4328 L1510.05 10.2314 L1515.4 10.2314 Z" fill="#000000" fill-rule="nonzero" fill-opacity="1" /><path clip-path="url(#clip460)" d="M1546.86 54.8492 Q1544.6 60.6362 1542.46 62.4013 Q1540.32 64.1663 1536.73 64.1663 L1532.48 64.1663 L1532.48 59.7103 L1535.6 59.7103 Q1537.8 59.7103 1539.01 58.6687 Q1540.23 57.627 1541.71 53.7497 L1542.66 51.3192 L1529.55 19.4328 L1535.2 19.4328 L1545.32 44.7799 L1555.45 19.4328 L1561.09 19.4328 L1546.86 54.8492 Z" fill="#000000" fill-rule="nonzero" fill-opacity="1" /><polyline clip-path="url(#clip462)" style="stroke:#e26f46; stroke-linecap:round; stroke-linejoin:round; stroke-width:4; stroke-opacity:1; fill:none" points="312.198,1018.3 332.413,1017.96 352.629,1017.58 372.844,1017.16 393.06,1016.7 413.275,1016.19 433.491,1015.63 453.707,1015.01 473.922,1014.32 494.138,1013.57 514.353,1012.75 534.569,1011.84 554.784,1010.84 575,1009.74 595.215,1008.53 615.431,1007.2 635.647,1005.75 655.862,1004.16 676.078,1002.42 696.293,1000.52 716.509,998.444 736.724,996.182 756.94,993.719 777.155,991.043 797.371,988.138 817.587,984.992 837.802,981.589 858.018,977.915 878.233,973.958 898.449,969.704 918.664,965.141 938.88,960.257 959.095,955.041 979.311,949.486 999.527,943.583 1019.74,937.327 1039.96,930.712 1060.17,923.736 1080.39,916.4 1100.6,908.703 1120.82,900.65 1141.04,892.244 1161.25,883.493 1181.47,874.404 1201.68,864.987 1221.9,855.253 1242.11,845.213 1262.33,834.88 1282.54,824.268 1302.76,813.389 1322.98,802.258 1343.19,790.889 1363.41,779.296 1383.62,767.494 1403.84,755.495 1424.05,743.313 1444.27,730.961 1464.48,718.451 1484.7,705.795 1504.92,693.005 1525.13,680.09 1545.35,667.061 1565.56,653.926 1585.78,640.696 1605.99,627.377 1626.21,613.977 1646.42,600.503 1666.64,586.963 1686.86,573.36 1707.07,559.702 1727.29,545.993 1747.5,532.238 1767.72,518.44 1787.93,504.604 1808.15,490.734 1828.36,476.832 1848.58,462.901 1868.8,448.944 1889.01,434.964 1909.23,420.963 1929.44,406.942 1949.66,392.904 1969.87,378.85 1990.09,364.781 2010.3,350.7 2030.52,336.607 2050.74,322.503 2070.95,308.39 2091.17,294.268 2111.38,280.139 2131.6,266.002 2151.81,251.858 2172.03,237.709 2192.24,223.555 2212.46,209.396 2232.68,195.233 2252.89,181.065 2273.11,166.895 2293.32,152.721 "/>
<polyline clip-path="url(#clip462)" style="stroke:#3da44d; stroke-linecap:round; stroke-linejoin:round; stroke-width:4; stroke-opacity:0.4; fill:none" points="312.198,902.869 332.413,902.795 352.629,902.714 372.844,902.623 393.06,902.521 413.275,902.409 433.491,902.283 453.707,902.144 473.922,901.989 494.138,901.816 514.353,901.624 534.569,901.411 554.784,901.174 575,900.911 595.215,900.618 615.431,900.293 635.647,899.932 655.862,899.53 676.078,899.085 696.293,898.591 716.509,898.043 736.724,897.435 756.94,896.762 777.155,896.016 797.371,895.189 817.587,894.275 837.802,893.265 858.018,892.148 878.233,890.915 898.449,889.554 918.664,888.055 938.88,886.405 959.095,884.59 979.311,882.597 999.527,880.41 1019.74,878.015 1039.96,875.396 1060.17,872.537 1080.39,869.42 1100.6,866.031 1120.82,862.351 1141.04,858.365 1161.25,854.056 1181.47,849.411 1201.68,844.414 1221.9,839.054 1242.11,833.317 1262.33,827.196 1282.54,820.683 1302.76,813.771 1322.98,806.458 1343.19,798.742 1363.41,790.626 1383.62,782.111 1403.84,773.204 1424.05,763.913 1444.27,754.248 1464.48,744.22 1484.7,733.842 1504.92,723.128 1525.13,712.093 1545.35,700.753 1565.56,689.124 1585.78,677.224 1605.99,665.068 1626.21,652.673 1646.42,640.055 1666.64,627.231 1686.86,614.214 1707.07,601.021 1727.29,587.663 1747.5,574.156 1767.72,560.511 1787.93,546.74 1808.15,532.853 1828.36,518.862 1848.58,504.774 1868.8,490.599 1889.01,476.345 1909.23,462.019 1929.44,447.627 1949.66,433.177 1969.87,418.672 1990.09,404.12 2010.3,389.524 2030.52,374.888 2050.74,360.216 2070.95,345.513 2091.17,330.78 2111.38,316.021 2131.6,301.238 2151.81,286.435 2172.03,271.612 2192.24,256.772 2212.46,241.916 2232.68,227.046 2252.89,212.164 2273.11,197.271 2293.32,182.367 "/>
<polyline clip-path="url(#clip462)" style="stroke:#3da44d; stroke-linecap:round; stroke-linejoin:round; stroke-width:4; stroke-opacity:0.4; fill:none" points="312.198,1385.91 332.413,1381.05 352.629,1375.88 372.844,1370.39 393.06,1364.56 413.275,1358.41 433.491,1351.91 453.707,1345.08 473.922,1337.9 494.138,1330.39 514.353,1322.54 534.569,1314.36 554.784,1305.85 575,1297.03 595.215,1287.89 615.431,1278.46 635.647,1268.74 655.862,1258.74 676.078,1248.48 696.293,1237.96 716.509,1227.21 736.724,1216.22 756.94,1205.03 777.155,1193.63 797.371,1182.04 817.587,1170.28 837.802,1158.35 858.018,1146.27 878.233,1134.05 898.449,1121.69 918.664,1109.22 938.88,1096.63 959.095,1083.93 979.311,1071.15 999.527,1058.27 1019.74,1045.32 1039.96,1032.29 1060.17,1019.19 1080.39,1006.03 1100.6,992.814 1120.82,979.547 1141.04,966.233 1161.25,952.877 1181.47,939.481 1201.68,926.049 1221.9,912.585 1242.11,899.091 1262.33,885.57 1282.54,872.025 1302.76,858.458 1322.98,844.87 1343.19,831.265 1363.41,817.642 1383.62,804.005 1403.84,790.353 1424.05,776.689 1444.27,763.014 1464.48,749.329 1484.7,735.634 1504.92,721.931 1525.13,708.22 1545.35,694.502 1565.56,680.778 1585.78,667.048 1605.99,653.313 1626.21,639.573 1646.42,625.829 1666.64,612.082 1686.86,598.33 1707.07,584.576 1727.29,570.818 1747.5,557.058 1767.72,543.296 1787.93,529.532 1808.15,515.765 1828.36,501.997 1848.58,488.227 1868.8,474.456 1889.01,460.683 1909.23,446.91 1929.44,433.135 1949.66,419.359 1969.87,405.582 1990.09,391.805 2010.3,378.027 2030.52,364.248 2050.74,350.469 2070.95,336.689 2091.17,322.908 2111.38,309.127 2131.6,295.346 2151.81,281.564 2172.03,267.782 2192.24,254 2212.46,240.218 2232.68,226.435 2252.89,212.652 2273.11,198.868 2293.32,185.085 "/>
<polyline clip-path="url(#clip462)" style="stroke:#3da44d; stroke-linecap:round; stroke-linejoin:round; stroke-width:4; stroke-opacity:0.4; fill:none" points="312.198,1051.08 332.413,1050.75 352.629,1050.39 372.844,1049.99 393.06,1049.54 413.275,1049.05 433.491,1048.51 453.707,1047.92 473.922,1047.26 494.138,1046.53 514.353,1045.73 534.569,1044.85 554.784,1043.88 575,1042.82 595.215,1041.65 615.431,1040.36 635.647,1038.95 655.862,1037.4 676.078,1035.71 696.293,1033.86 716.509,1031.83 736.724,1029.62 756.94,1027.22 777.155,1024.6 797.371,1021.75 817.587,1018.66 837.802,1015.32 858.018,1011.71 878.233,1007.81 898.449,1003.62 918.664,999.116 938.88,994.292 959.095,989.134 979.311,983.634 999.527,977.784 1019.74,971.576 1039.96,965.006 1060.17,958.071 1080.39,950.77 1100.6,943.103 1120.82,935.073 1141.04,926.686 1161.25,917.946 1181.47,908.862 1201.68,899.444 1221.9,889.701 1242.11,879.647 1262.33,869.292 1282.54,858.652 1302.76,847.74 1322.98,836.57 1343.19,825.156 1363.41,813.514 1383.62,801.657 1403.84,789.599 1424.05,777.353 1444.27,764.934 1464.48,752.354 1484.7,739.624 1504.92,726.757 1525.13,713.762 1545.35,700.651 1565.56,687.433 1585.78,674.116 1605.99,660.709 1626.21,647.22 1646.42,633.656 1666.64,620.024 1686.86,606.329 1707.07,592.577 1727.29,578.773 1747.5,564.923 1767.72,551.03 1787.93,537.097 1808.15,523.13 1828.36,509.131 1848.58,495.103 1868.8,481.048 1889.01,466.97 1909.23,452.871 1929.44,438.752 1949.66,424.615 1969.87,410.462 1990.09,396.295 2010.3,382.115 2030.52,367.923 2050.74,353.72 2070.95,339.508 2091.17,325.287 2111.38,311.059 2131.6,296.823 2151.81,282.58 2172.03,268.332 2192.24,254.079 2212.46,239.821 2232.68,225.559 2252.89,211.292 2273.11,197.023 2293.32,182.75 "/>
<polyline clip-path="url(#clip462)" style="stroke:#3da44d; stroke-linecap:round; stroke-linejoin:round; stroke-width:4; stroke-opacity:0.4; fill:none" points="312.198,966.118 332.413,966.034 352.629,965.939 372.844,965.833 393.06,965.714 413.275,965.581 433.491,965.433 453.707,965.268 473.922,965.083 494.138,964.876 514.353,964.645 534.569,964.388 554.784,964.1 575,963.779 595.215,963.42 615.431,963.02 635.647,962.574 655.862,962.076 676.078,961.522 696.293,960.904 716.509,960.217 736.724,959.451 756.94,958.6 777.155,957.654 797.371,956.603 817.587,955.436 837.802,954.143 858.018,952.71 878.233,951.124 898.449,949.37 918.664,947.435 938.88,945.301 959.095,942.951 979.311,940.369 999.527,937.536 1019.74,934.433 1039.96,931.041 1060.17,927.342 1080.39,923.317 1100.6,918.947 1120.82,914.215 1141.04,909.105 1161.25,903.602 1181.47,897.692 1201.68,891.364 1221.9,884.609 1242.11,877.42 1262.33,869.794 1282.54,861.729 1302.76,853.226 1322.98,844.29 1343.19,834.928 1363.41,825.148 1383.62,814.963 1403.84,804.385 1424.05,793.431 1444.27,782.116 1464.48,770.457 1484.7,758.474 1504.92,746.185 1525.13,733.609 1545.35,720.765 1565.56,707.671 1585.78,694.346 1605.99,680.806 1626.21,667.07 1646.42,653.152 1666.64,639.068 1686.86,624.833 1707.07,610.459 1727.29,595.959 1747.5,581.344 1767.72,566.625 1787.93,551.812 1808.15,536.914 1828.36,521.938 1848.58,506.894 1868.8,491.786 1889.01,476.622 1909.23,461.407 1929.44,446.147 1949.66,430.845 1969.87,415.506 1990.09,400.134 2010.3,384.732 2030.52,369.304 2050.74,353.852 2070.95,338.378 2091.17,322.884 2111.38,307.374 2131.6,291.848 2151.81,276.309 2172.03,260.756 2192.24,245.193 2212.46,229.62 2232.68,214.038 2252.89,198.448 2273.11,182.851 2293.32,167.248 "/>
<polyline clip-path="url(#clip462)" style="stroke:#3da44d; stroke-linecap:round; stroke-linejoin:round; stroke-width:4; stroke-opacity:0.4; fill:none" points="312.198,1112.34 332.413,1112.21 352.629,1112.06 372.844,1111.89 393.06,1111.69 413.275,1111.48 433.491,1111.24 453.707,1110.96 473.922,1110.65 494.138,1110.31 514.353,1109.92 534.569,1109.48 554.784,1108.99 575,1108.44 595.215,1107.82 615.431,1107.13 635.647,1106.35 655.862,1105.48 676.078,1104.51 696.293,1103.42 716.509,1102.2 736.724,1100.83 756.94,1099.31 777.155,1097.62 797.371,1095.74 817.587,1093.64 837.802,1091.32 858.018,1088.75 878.233,1085.91 898.449,1082.77 918.664,1079.32 938.88,1075.53 959.095,1071.37 979.311,1066.83 999.527,1061.89 1019.74,1056.52 1039.96,1050.7 1060.17,1044.43 1080.39,1037.68 1100.6,1030.44 1120.82,1022.71 1141.04,1014.48 1161.25,1005.75 1181.47,996.528 1201.68,986.813 1221.9,976.618 1242.11,965.955 1262.33,954.839 1282.54,943.288 1302.76,931.321 1322.98,918.959 1343.19,906.224 1363.41,893.139 1383.62,879.727 1403.84,866.011 1424.05,852.013 1444.27,837.755 1464.48,823.259 1484.7,808.544 1504.92,793.629 1525.13,778.532 1545.35,763.271 1565.56,747.86 1585.78,732.314 1605.99,716.646 1626.21,700.869 1646.42,684.992 1666.64,669.028 1686.86,652.984 1707.07,636.869 1727.29,620.69 1747.5,604.455 1767.72,588.169 1787.93,571.837 1808.15,555.465 1828.36,539.057 1848.58,522.617 1868.8,506.148 1889.01,489.654 1909.23,473.137 1929.44,456.6 1949.66,440.045 1969.87,423.474 1990.09,406.889 2010.3,390.292 2030.52,373.683 2050.74,357.064 2070.95,340.437 2091.17,323.802 2111.38,307.159 2131.6,290.511 2151.81,273.857 2172.03,257.198 2192.24,240.535 2212.46,223.868 2232.68,207.198 2252.89,190.525 2273.11,173.849 2293.32,157.17 "/>
<polyline clip-path="url(#clip462)" style="stroke:#3da44d; stroke-linecap:round; stroke-linejoin:round; stroke-width:4; stroke-opacity:0.4; fill:none" points="312.198,1031.51 332.413,1031.3 352.629,1031.06 372.844,1030.8 393.06,1030.51 413.275,1030.19 433.491,1029.84 453.707,1029.44 473.922,1029 494.138,1028.52 514.353,1027.98 534.569,1027.39 554.784,1026.74 575,1026.01 595.215,1025.21 615.431,1024.32 635.647,1023.35 655.862,1022.27 676.078,1021.08 696.293,1019.78 716.509,1018.34 736.724,1016.76 756.94,1015.02 777.155,1013.12 797.371,1011.03 817.587,1008.75 837.802,1006.26 858.018,1003.54 878.233,1000.59 898.449,997.372 918.664,993.885 938.88,990.11 959.095,986.032 979.311,981.636 999.527,976.91 1019.74,971.839 1039.96,966.413 1060.17,960.622 1080.39,954.457 1100.6,947.912 1120.82,940.983 1141.04,933.667 1161.25,925.965 1181.47,917.877 1201.68,909.409 1221.9,900.566 1242.11,891.356 1262.33,881.788 1282.54,871.875 1302.76,861.628 1322.98,851.06 1343.19,840.187 1363.41,829.023 1383.62,817.585 1403.84,805.886 1424.05,793.944 1444.27,781.773 1464.48,769.389 1484.7,756.806 1504.92,744.04 1525.13,731.103 1545.35,718.009 1565.56,704.771 1585.78,691.399 1605.99,677.905 1626.21,664.299 1646.42,650.591 1666.64,636.79 1686.86,622.904 1707.07,608.94 1727.29,594.906 1747.5,580.808 1767.72,566.651 1787.93,552.442 1808.15,538.185 1828.36,523.885 1848.58,509.545 1868.8,495.17 1889.01,480.763 1909.23,466.327 1929.44,451.865 1949.66,437.379 1969.87,422.872 1990.09,408.346 2010.3,393.802 2030.52,379.242 2050.74,364.669 2070.95,350.082 2091.17,335.485 2111.38,320.876 2131.6,306.259 2151.81,291.633 2172.03,276.999 2192.24,262.359 2212.46,247.712 2232.68,233.06 2252.89,218.403 2273.11,203.741 2293.32,189.076 "/>
<polyline clip-path="url(#clip462)" style="stroke:#3da44d; stroke-linecap:round; stroke-linejoin:round; stroke-width:4; stroke-opacity:0.4; fill:none" points="312.198,1018.86 332.413,1018.74 352.629,1018.61 372.844,1018.46 393.06,1018.29 413.275,1018.11 433.491,1017.9 453.707,1017.67 473.922,1017.41 494.138,1017.12 514.353,1016.8 534.569,1016.44 554.784,1016.04 575,1015.59 595.215,1015.09 615.431,1014.54 635.647,1013.92 655.862,1013.24 676.078,1012.48 696.293,1011.63 716.509,1010.69 736.724,1009.65 756.94,1008.49 777.155,1007.21 797.371,1005.79 817.587,1004.22 837.802,1002.49 858.018,1000.58 878.233,998.471 898.449,996.154 918.664,993.61 938.88,990.82 959.095,987.766 979.311,984.43 999.527,980.794 1019.74,976.839 1039.96,972.547 1060.17,967.902 1080.39,962.887 1100.6,957.487 1120.82,951.689 1141.04,945.482 1161.25,938.857 1181.47,931.806 1201.68,924.325 1221.9,916.413 1242.11,908.071 1262.33,899.301 1282.54,890.111 1302.76,880.509 1322.98,870.505 1343.19,860.112 1363.41,849.345 1383.62,838.218 1403.84,826.75 1424.05,814.958 1444.27,802.86 1464.48,790.474 1484.7,777.819 1504.92,764.913 1525.13,751.773 1545.35,738.418 1565.56,724.864 1585.78,711.126 1605.99,697.22 1626.21,683.16 1646.42,668.959 1666.64,654.629 1686.86,640.183 1707.07,625.63 1727.29,610.981 1747.5,596.245 1767.72,581.429 1787.93,566.542 1808.15,551.591 1828.36,536.581 1848.58,521.519 1868.8,506.41 1889.01,491.258 1909.23,476.068 1929.44,460.844 1949.66,445.588 1969.87,430.305 1990.09,414.997 2010.3,399.667 2030.52,384.316 2050.74,368.948 2070.95,353.563 2091.17,338.164 2111.38,322.752 2131.6,307.329 2151.81,291.895 2172.03,276.451 2192.24,261 2212.46,245.541 2232.68,230.075 2252.89,214.603 2273.11,199.126 2293.32,183.644 "/>
<polyline clip-path="url(#clip462)" style="stroke:#3da44d; stroke-linecap:round; stroke-linejoin:round; stroke-width:4; stroke-opacity:0.4; fill:none" points="312.198,925.335 332.413,925.164 352.629,924.975 372.844,924.767 393.06,924.537 413.275,924.284 433.491,924.004 453.707,923.695 473.922,923.354 494.138,922.978 514.353,922.564 534.569,922.108 554.784,921.605 575,921.051 595.215,920.441 615.431,919.769 635.647,919.031 655.862,918.219 676.078,917.327 696.293,916.347 716.509,915.272 736.724,914.092 756.94,912.8 777.155,911.385 797.371,909.837 817.587,908.146 837.802,906.299 858.018,904.286 878.233,902.093 898.449,899.708 918.664,897.118 938.88,894.309 959.095,891.268 979.311,887.981 999.527,884.435 1019.74,880.616 1039.96,876.513 1060.17,872.112 1080.39,867.403 1100.6,862.376 1120.82,857.02 1141.04,851.329 1161.25,845.296 1181.47,838.915 1201.68,832.185 1221.9,825.103 1242.11,817.671 1262.33,809.89 1282.54,801.763 1302.76,793.297 1322.98,784.499 1343.19,775.377 1363.41,765.94 1383.62,756.2 1403.84,746.168 1424.05,735.856 1444.27,725.277 1464.48,714.446 1484.7,703.374 1504.92,692.076 1525.13,680.566 1545.35,668.856 1565.56,656.959 1585.78,644.889 1605.99,632.657 1626.21,620.275 1646.42,607.754 1666.64,595.105 1686.86,582.337 1707.07,569.46 1727.29,556.483 1747.5,543.414 1767.72,530.261 1787.93,517.031 1808.15,503.73 1828.36,490.364 1848.58,476.94 1868.8,463.461 1889.01,449.934 1909.23,436.362 1929.44,422.75 1949.66,409.101 1969.87,395.418 1990.09,381.704 2010.3,367.963 2030.52,354.197 2050.74,340.407 2070.95,326.598 2091.17,312.769 2111.38,298.923 2131.6,285.062 2151.81,271.187 2172.03,257.299 2192.24,243.399 2212.46,229.489 2232.68,215.57 2252.89,201.642 2273.11,187.706 2293.32,173.764 "/>
<polyline clip-path="url(#clip462)" style="stroke:#3da44d; stroke-linecap:round; stroke-linejoin:round; stroke-width:4; stroke-opacity:0.4; fill:none" points="312.198,929.315 332.413,929.01 352.629,928.674 372.844,928.306 393.06,927.901 413.275,927.457 433.491,926.969 453.707,926.434 473.922,925.848 494.138,925.204 514.353,924.5 534.569,923.728 554.784,922.883 575,921.958 595.215,920.947 615.431,919.842 635.647,918.636 655.862,917.319 676.078,915.883 696.293,914.32 716.509,912.618 736.724,910.767 756.94,908.758 777.155,906.578 797.371,904.217 817.587,901.662 837.802,898.902 858.018,895.925 878.233,892.719 898.449,889.272 918.664,885.572 938.88,881.608 959.095,877.37 979.311,872.847 999.527,868.031 1019.74,862.914 1039.96,857.488 1060.17,851.748 1080.39,845.689 1100.6,839.308 1120.82,832.604 1141.04,825.576 1161.25,818.227 1181.47,810.558 1201.68,802.574 1221.9,794.281 1242.11,785.686 1262.33,776.797 1282.54,767.622 1302.76,758.172 1322.98,748.456 1343.19,738.487 1363.41,728.276 1383.62,717.834 1403.84,707.174 1424.05,696.307 1444.27,685.246 1464.48,674.001 1484.7,662.586 1504.92,651.01 1525.13,639.284 1545.35,627.419 1565.56,615.425 1585.78,603.311 1605.99,591.086 1626.21,578.759 1646.42,566.337 1666.64,553.828 1686.86,541.238 1707.07,528.575 1727.29,515.844 1747.5,503.05 1767.72,490.2 1787.93,477.297 1808.15,464.347 1828.36,451.353 1848.58,438.319 1868.8,425.248 1889.01,412.145 1909.23,399.01 1929.44,385.848 1949.66,372.661 1969.87,359.451 1990.09,346.219 2010.3,332.969 2030.52,319.701 2050.74,306.417 2070.95,293.119 2091.17,279.808 2111.38,266.484 2131.6,253.15 2151.81,239.806 2172.03,226.453 2192.24,213.092 2212.46,199.723 2232.68,186.347 2252.89,172.966 2273.11,159.578 2293.32,146.186 "/>
<polyline clip-path="url(#clip462)" style="stroke:#3da44d; stroke-linecap:round; stroke-linejoin:round; stroke-width:4; stroke-opacity:0.4; fill:none" points="312.198,895.429 332.413,895.33 352.629,895.22 372.844,895.099 393.06,894.964 413.275,894.815 433.491,894.65 453.707,894.467 473.922,894.265 494.138,894.04 514.353,893.792 534.569,893.517 554.784,893.213 575,892.876 595.215,892.503 615.431,892.091 635.647,891.636 655.862,891.132 676.078,890.575 696.293,889.961 716.509,889.282 736.724,888.533 756.94,887.708 777.155,886.797 797.371,885.795 817.587,884.691 837.802,883.477 858.018,882.142 878.233,880.677 898.449,879.07 918.664,877.309 938.88,875.381 959.095,873.273 979.311,870.972 999.527,868.464 1019.74,865.734 1039.96,862.766 1060.17,859.548 1080.39,856.062 1100.6,852.296 1120.82,848.234 1141.04,843.863 1161.25,839.169 1181.47,834.142 1201.68,828.77 1221.9,823.044 1242.11,816.957 1262.33,810.502 1282.54,803.675 1302.76,796.475 1322.98,788.901 1343.19,780.954 1363.41,772.639 1383.62,763.962 1403.84,754.93 1424.05,745.551 1444.27,735.837 1464.48,725.799 1484.7,715.45 1504.92,704.804 1525.13,693.874 1545.35,682.676 1565.56,671.223 1585.78,659.532 1605.99,647.617 1626.21,635.492 1646.42,623.172 1666.64,610.67 1686.86,598 1707.07,585.174 1727.29,572.204 1747.5,559.102 1767.72,545.878 1787.93,532.543 1808.15,519.105 1828.36,505.573 1848.58,491.956 1868.8,478.261 1889.01,464.494 1909.23,450.663 1929.44,436.773 1949.66,422.829 1969.87,408.837 1990.09,394.801 2010.3,380.724 2030.52,366.611 2050.74,352.465 2070.95,338.29 2091.17,324.087 2111.38,309.86 2131.6,295.611 2151.81,281.342 2172.03,267.055 2192.24,252.751 2212.46,238.433 2232.68,224.102 2252.89,209.758 2273.11,195.404 2293.32,181.04 "/>
<polyline clip-path="url(#clip462)" style="stroke:#3da44d; stroke-linecap:round; stroke-linejoin:round; stroke-width:4; stroke-opacity:0.4; fill:none" points="312.198,1136.68 332.413,1135.34 352.629,1133.88 372.844,1132.3 393.06,1130.57 413.275,1128.7 433.491,1126.68 453.707,1124.48 473.922,1122.11 494.138,1119.54 514.353,1116.78 534.569,1113.8 554.784,1110.59 575,1107.15 595.215,1103.46 615.431,1099.52 635.647,1095.31 655.862,1090.82 676.078,1086.04 696.293,1080.97 716.509,1075.61 736.724,1069.93 756.94,1063.95 777.155,1057.66 797.371,1051.05 817.587,1044.13 837.802,1036.9 858.018,1029.35 878.233,1021.51 898.449,1013.36 918.664,1004.92 938.88,996.187 959.095,987.182 979.311,977.908 999.527,968.377 1019.74,958.597 1039.96,948.581 1060.17,938.34 1080.39,927.884 1100.6,917.226 1120.82,906.376 1141.04,895.347 1161.25,884.149 1181.47,872.792 1201.68,861.288 1221.9,849.646 1242.11,837.875 1262.33,825.986 1282.54,813.986 1302.76,801.883 1322.98,789.686 1343.19,777.402 1363.41,765.038 1383.62,752.599 1403.84,740.092 1424.05,727.522 1444.27,714.895 1464.48,702.215 1484.7,689.486 1504.92,676.713 1525.13,663.9 1545.35,651.049 1565.56,638.165 1585.78,625.249 1605.99,612.305 1626.21,599.335 1646.42,586.342 1666.64,573.326 1686.86,560.292 1707.07,547.239 1727.29,534.169 1747.5,521.085 1767.72,507.987 1787.93,494.877 1808.15,481.755 1828.36,468.623 1848.58,455.482 1868.8,442.332 1889.01,429.175 1909.23,416.01 1929.44,402.839 1949.66,389.662 1969.87,376.479 1990.09,363.292 2010.3,350.1 2030.52,336.904 2050.74,323.705 2070.95,310.502 2091.17,297.296 2111.38,284.088 2131.6,270.877 2151.81,257.663 2172.03,244.448 2192.24,231.23 2212.46,218.011 2232.68,204.791 2252.89,191.569 2273.11,178.345 2293.32,165.121 "/>
<polyline clip-path="url(#clip462)" style="stroke:#3da44d; stroke-linecap:round; stroke-linejoin:round; stroke-width:4; stroke-opacity:0.4; fill:none" points="312.198,1009.15 332.413,1009.09 352.629,1009.03 372.844,1008.96 393.06,1008.88 413.275,1008.8 433.491,1008.7 453.707,1008.59 473.922,1008.46 494.138,1008.32 514.353,1008.16 534.569,1007.98 554.784,1007.78 575,1007.55 595.215,1007.29 615.431,1007.01 635.647,1006.68 655.862,1006.32 676.078,1005.9 696.293,1005.44 716.509,1004.92 736.724,1004.34 756.94,1003.68 777.155,1002.95 797.371,1002.12 817.587,1001.2 837.802,1000.16 858.018,999.004 878.233,997.708 898.449,996.261 918.664,994.646 938.88,992.847 959.095,990.845 979.311,988.621 999.527,986.153 1019.74,983.422 1039.96,980.404 1060.17,977.076 1080.39,973.416 1100.6,969.399 1120.82,965.003 1141.04,960.204 1161.25,954.983 1181.47,949.319 1201.68,943.195 1221.9,936.595 1242.11,929.507 1262.33,921.922 1282.54,913.833 1302.76,905.239 1322.98,896.141 1343.19,886.544 1363.41,876.456 1383.62,865.889 1403.84,854.858 1424.05,843.38 1444.27,831.474 1464.48,819.161 1484.7,806.464 1504.92,793.404 1525.13,780.006 1545.35,766.293 1565.56,752.287 1585.78,738.012 1605.99,723.49 1626.21,708.74 1646.42,693.783 1666.64,678.637 1686.86,663.32 1707.07,647.848 1727.29,632.235 1747.5,616.496 1767.72,600.643 1787.93,584.688 1808.15,568.641 1828.36,552.512 1848.58,536.309 1868.8,520.04 1889.01,503.712 1909.23,487.332 1929.44,470.904 1949.66,454.435 1969.87,437.929 1990.09,421.39 2010.3,404.821 2030.52,388.226 2050.74,371.608 2070.95,354.969 2091.17,338.311 2111.38,321.637 2131.6,304.949 2151.81,288.247 2172.03,271.535 2192.24,254.812 2212.46,238.08 2232.68,221.34 2252.89,204.592 2273.11,187.839 2293.32,171.08 "/>
<polyline clip-path="url(#clip462)" style="stroke:#3da44d; stroke-linecap:round; stroke-linejoin:round; stroke-width:4; stroke-opacity:0.4; fill:none" points="312.198,957.004 332.413,956.838 352.629,956.655 372.844,956.452 393.06,956.229 413.275,955.981 433.491,955.709 453.707,955.407 473.922,955.075 494.138,954.708 514.353,954.303 534.569,953.857 554.784,953.365 575,952.822 595.215,952.225 615.431,951.567 635.647,950.842 655.862,950.045 676.078,949.169 696.293,948.206 716.509,947.148 736.724,945.987 756.94,944.714 777.155,943.319 797.371,941.793 817.587,940.123 837.802,938.299 858.018,936.308 878.233,934.139 898.449,931.777 918.664,929.211 938.88,926.426 959.095,923.408 979.311,920.145 999.527,916.621 1019.74,912.824 1039.96,908.741 1060.17,904.358 1080.39,899.666 1100.6,894.652 1120.82,889.308 1141.04,883.626 1161.25,877.598 1181.47,871.219 1201.68,864.487 1221.9,857.4 1242.11,849.958 1262.33,842.162 1282.54,834.017 1302.76,825.529 1322.98,816.704 1343.19,807.55 1363.41,798.078 1383.62,788.298 1403.84,778.222 1424.05,767.863 1444.27,757.234 1464.48,746.349 1484.7,735.22 1504.92,723.862 1525.13,712.289 1545.35,700.514 1565.56,688.551 1585.78,676.411 1605.99,664.108 1626.21,651.654 1646.42,639.059 1666.64,626.335 1686.86,613.491 1707.07,600.538 1727.29,587.483 1747.5,574.336 1767.72,561.104 1787.93,547.794 1808.15,534.413 1828.36,520.968 1848.58,507.463 1868.8,493.904 1889.01,480.296 1909.23,466.643 1929.44,452.95 1949.66,439.22 1969.87,425.456 1990.09,411.661 2010.3,397.839 2030.52,383.992 2050.74,370.122 2070.95,356.231 2091.17,342.321 2111.38,328.395 2131.6,314.453 2151.81,300.497 2172.03,286.528 2192.24,272.548 2212.46,258.558 2232.68,244.558 2252.89,230.55 2273.11,216.534 2293.32,202.512 "/>
<polyline clip-path="url(#clip462)" style="stroke:#3da44d; stroke-linecap:round; stroke-linejoin:round; stroke-width:4; stroke-opacity:0.4; fill:none" points="312.198,1042.75 332.413,1042.48 352.629,1042.18 372.844,1041.85 393.06,1041.48 413.275,1041.08 433.491,1040.63 453.707,1040.14 473.922,1039.59 494.138,1038.99 514.353,1038.32 534.569,1037.59 554.784,1036.78 575,1035.89 595.215,1034.91 615.431,1033.83 635.647,1032.64 655.862,1031.34 676.078,1029.9 696.293,1028.33 716.509,1026.61 736.724,1024.72 756.94,1022.66 777.155,1020.42 797.371,1017.96 817.587,1015.3 837.802,1012.4 858.018,1009.25 878.233,1005.84 898.449,1002.16 918.664,998.188 938.88,993.913 959.095,989.322 979.311,984.402 999.527,979.143 1019.74,973.535 1039.96,967.57 1060.17,961.243 1080.39,954.548 1100.6,947.482 1120.82,940.046 1141.04,932.24 1161.25,924.067 1181.47,915.533 1201.68,906.644 1221.9,897.409 1242.11,887.838 1262.33,877.943 1282.54,867.734 1302.76,857.226 1322.98,846.433 1343.19,835.368 1363.41,824.047 1383.62,812.484 1403.84,800.694 1424.05,788.69 1444.27,776.489 1464.48,764.102 1484.7,751.544 1504.92,738.826 1525.13,725.962 1545.35,712.963 1565.56,699.839 1585.78,686.6 1605.99,673.256 1626.21,659.817 1646.42,646.289 1666.64,632.681 1686.86,619 1707.07,605.252 1727.29,591.443 1747.5,577.579 1767.72,563.665 1787.93,549.705 1808.15,535.704 1828.36,521.665 1848.58,507.592 1868.8,493.488 1889.01,479.356 1909.23,465.199 1929.44,451.019 1949.66,436.819 1969.87,422.599 1990.09,408.363 2010.3,394.111 2030.52,379.846 2050.74,365.568 2070.95,351.278 2091.17,336.979 2111.38,322.67 2131.6,308.353 2151.81,294.028 2172.03,279.696 2192.24,265.359 2212.46,251.016 2232.68,236.667 2252.89,222.315 2273.11,207.958 2293.32,193.598 "/>
<polyline clip-path="url(#clip462)" style="stroke:#3da44d; stroke-linecap:round; stroke-linejoin:round; stroke-width:4; stroke-opacity:0.4; fill:none" points="312.198,1166.83 332.413,1166.46 352.629,1166.04 372.844,1165.57 393.06,1165.06 413.275,1164.48 433.491,1163.85 453.707,1163.14 473.922,1162.35 494.138,1161.48 514.353,1160.52 534.569,1159.45 554.784,1158.27 575,1156.96 595.215,1155.52 615.431,1153.92 635.647,1152.17 655.862,1150.23 676.078,1148.11 696.293,1145.77 716.509,1143.22 736.724,1140.42 756.94,1137.36 777.155,1134.03 797.371,1130.4 817.587,1126.46 837.802,1122.19 858.018,1117.58 878.233,1112.62 898.449,1107.27 918.664,1101.55 938.88,1095.42 959.095,1088.89 979.311,1081.96 999.527,1074.6 1019.74,1066.83 1039.96,1058.64 1060.17,1050.04 1080.39,1041.03 1100.6,1031.63 1120.82,1021.83 1141.04,1011.66 1161.25,1001.12 1181.47,990.239 1201.68,979.021 1221.9,967.487 1242.11,955.653 1262.33,943.538 1282.54,931.159 1302.76,918.533 1322.98,905.677 1343.19,892.608 1363.41,879.342 1383.62,865.894 1403.84,852.279 1424.05,838.51 1444.27,824.6 1464.48,810.562 1484.7,796.406 1504.92,782.144 1525.13,767.785 1545.35,753.337 1565.56,738.809 1585.78,724.209 1605.99,709.544 1626.21,694.819 1646.42,680.04 1666.64,665.213 1686.86,650.343 1707.07,635.433 1727.29,620.488 1747.5,605.51 1767.72,590.505 1787.93,575.473 1808.15,560.418 1828.36,545.342 1848.58,530.248 1868.8,515.136 1889.01,500.01 1909.23,484.869 1929.44,469.717 1949.66,454.554 1969.87,439.38 1990.09,424.198 2010.3,409.008 2030.52,393.811 2050.74,378.608 2070.95,363.398 2091.17,348.184 2111.38,332.965 2131.6,317.742 2151.81,302.515 2172.03,287.285 2192.24,272.052 2212.46,256.816 2232.68,241.578 2252.89,226.338 2273.11,211.095 2293.32,195.851 "/>
<polyline clip-path="url(#clip462)" style="stroke:#3da44d; stroke-linecap:round; stroke-linejoin:round; stroke-width:4; stroke-opacity:0.4; fill:none" points="312.198,1013.58 332.413,1013.57 352.629,1013.54 372.844,1013.52 393.06,1013.49 413.275,1013.46 433.491,1013.42 453.707,1013.38 473.922,1013.34 494.138,1013.28 514.353,1013.22 534.569,1013.15 554.784,1013.08 575,1012.99 595.215,1012.88 615.431,1012.77 635.647,1012.63 655.862,1012.48 676.078,1012.31 696.293,1012.12 716.509,1011.89 736.724,1011.64 756.94,1011.35 777.155,1011.02 797.371,1010.65 817.587,1010.23 837.802,1009.75 858.018,1009.2 878.233,1008.58 898.449,1007.88 918.664,1007.08 938.88,1006.17 959.095,1005.15 979.311,1003.99 999.527,1002.68 1019.74,1001.21 1039.96,999.545 1060.17,997.673 1080.39,995.568 1100.6,993.208 1120.82,990.565 1141.04,987.613 1161.25,984.321 1181.47,980.662 1201.68,976.605 1221.9,972.119 1242.11,967.176 1262.33,961.747 1282.54,955.806 1302.76,949.329 1322.98,942.295 1343.19,934.687 1363.41,926.492 1383.62,917.702 1403.84,908.315 1424.05,898.332 1444.27,887.762 1464.48,876.615 1484.7,864.908 1504.92,852.661 1525.13,839.898 1545.35,826.645 1565.56,812.93 1585.78,798.782 1605.99,784.231 1626.21,769.307 1646.42,754.041 1666.64,738.46 1686.86,722.592 1707.07,706.464 1727.29,690.101 1747.5,673.525 1767.72,656.759 1787.93,639.821 1808.15,622.731 1828.36,605.503 1848.58,588.155 1868.8,570.698 1889.01,553.145 1909.23,535.507 1929.44,517.794 1949.66,500.014 1969.87,482.176 1990.09,464.285 2010.3,446.349 2030.52,428.372 2050.74,410.36 2070.95,392.316 2091.17,374.245 2111.38,356.15 2131.6,338.033 2151.81,319.897 2172.03,301.745 2192.24,283.579 2212.46,265.4 2232.68,247.209 2252.89,229.009 2273.11,210.8 2293.32,192.584 "/>
<polyline clip-path="url(#clip462)" style="stroke:#3da44d; stroke-linecap:round; stroke-linejoin:round; stroke-width:4; stroke-opacity:0.4; fill:none" points="312.198,1112.51 332.413,1111.87 352.629,1111.17 372.844,1110.4 393.06,1109.55 413.275,1108.61 433.491,1107.58 453.707,1106.45 473.922,1105.21 494.138,1103.84 514.353,1102.35 534.569,1100.71 554.784,1098.91 575,1096.95 595.215,1094.81 615.431,1092.48 635.647,1089.94 655.862,1087.18 676.078,1084.18 696.293,1080.93 716.509,1077.42 736.724,1073.64 756.94,1069.56 777.155,1065.17 797.371,1060.47 817.587,1055.44 837.802,1050.07 858.018,1044.36 878.233,1038.29 898.449,1031.86 918.664,1025.06 938.88,1017.9 959.095,1010.38 979.311,1002.49 999.527,994.246 1019.74,985.645 1039.96,976.698 1060.17,967.413 1080.39,957.801 1100.6,947.872 1120.82,937.64 1141.04,927.117 1161.25,916.318 1181.47,905.255 1201.68,893.944 1221.9,882.399 1242.11,870.634 1262.33,858.663 1282.54,846.501 1302.76,834.16 1322.98,821.653 1343.19,808.992 1363.41,796.19 1383.62,783.256 1403.84,770.202 1424.05,757.038 1444.27,743.772 1464.48,730.413 1484.7,716.969 1504.92,703.447 1525.13,689.854 1545.35,676.197 1565.56,662.48 1585.78,648.71 1605.99,634.892 1626.21,621.029 1646.42,607.125 1666.64,593.185 1686.86,579.212 1707.07,565.209 1727.29,551.179 1747.5,537.124 1767.72,523.047 1787.93,508.949 1808.15,494.833 1828.36,480.7 1848.58,466.553 1868.8,452.392 1889.01,438.219 1909.23,424.034 1929.44,409.84 1949.66,395.636 1969.87,381.424 1990.09,367.205 2010.3,352.979 2030.52,338.748 2050.74,324.51 2070.95,310.268 2091.17,296.021 2111.38,281.77 2131.6,267.516 2151.81,253.258 2172.03,238.998 2192.24,224.735 2212.46,210.469 2232.68,196.201 2252.89,181.931 2273.11,167.659 2293.32,153.386 "/>
<polyline clip-path="url(#clip462)" style="stroke:#3da44d; stroke-linecap:round; stroke-linejoin:round; stroke-width:4; stroke-opacity:0.4; fill:none" points="312.198,1314.1 332.413,1310.96 352.629,1307.58 372.844,1303.92 393.06,1299.99 413.275,1295.78 433.491,1291.26 453.707,1286.43 473.922,1281.28 494.138,1275.79 514.353,1269.98 534.569,1263.81 554.784,1257.31 575,1250.45 595.215,1243.24 615.431,1235.68 635.647,1227.78 655.862,1219.54 676.078,1210.96 696.293,1202.05 716.509,1192.82 736.724,1183.29 756.94,1173.45 777.155,1163.33 797.371,1152.94 817.587,1142.29 837.802,1131.39 858.018,1120.25 878.233,1108.9 898.449,1097.33 918.664,1085.58 938.88,1073.64 959.095,1061.54 979.311,1049.27 999.527,1036.87 1019.74,1024.32 1039.96,1011.66 1060.17,998.877 1080.39,985.991 1100.6,973.008 1120.82,959.936 1141.04,946.782 1161.25,933.554 1181.47,920.258 1201.68,906.899 1221.9,893.484 1242.11,880.016 1262.33,866.502 1282.54,852.944 1302.76,839.347 1322.98,825.715 1343.19,812.05 1363.41,798.355 1383.62,784.634 1403.84,770.889 1424.05,757.121 1444.27,743.334 1464.48,729.528 1484.7,715.706 1504.92,701.869 1525.13,688.018 1545.35,674.155 1565.56,660.281 1585.78,646.397 1605.99,632.504 1626.21,618.602 1646.42,604.693 1666.64,590.778 1686.86,576.856 1707.07,562.928 1727.29,548.996 1747.5,535.059 1767.72,521.118 1787.93,507.173 1808.15,493.224 1828.36,479.273 1848.58,465.319 1868.8,451.362 1889.01,437.403 1909.23,423.442 1929.44,409.48 1949.66,395.515 1969.87,381.549 1990.09,367.582 2010.3,353.613 2030.52,339.643 2050.74,325.673 2070.95,311.701 2091.17,297.728 2111.38,283.755 2131.6,269.781 2151.81,255.807 2172.03,241.831 2192.24,227.856 2212.46,213.88 2232.68,199.903 2252.89,185.926 2273.11,171.949 2293.32,157.971 "/>
<polyline clip-path="url(#clip462)" style="stroke:#3da44d; stroke-linecap:round; stroke-linejoin:round; stroke-width:4; stroke-opacity:0.4; fill:none" points="312.198,1131.69 332.413,1131.25 352.629,1130.75 372.844,1130.2 393.06,1129.6 413.275,1128.93 433.491,1128.19 453.707,1127.38 473.922,1126.47 494.138,1125.48 514.353,1124.39 534.569,1123.18 554.784,1121.86 575,1120.4 595.215,1118.8 615.431,1117.04 635.647,1115.12 655.862,1113.01 676.078,1110.71 696.293,1108.2 716.509,1105.46 736.724,1102.48 756.94,1099.25 777.155,1095.75 797.371,1091.96 817.587,1087.86 837.802,1083.46 858.018,1078.72 878.233,1073.65 898.449,1068.22 918.664,1062.43 938.88,1056.27 959.095,1049.74 979.311,1042.83 999.527,1035.53 1019.74,1027.86 1039.96,1019.8 1060.17,1011.37 1080.39,1002.57 1100.6,993.405 1120.82,983.891 1141.04,974.035 1161.25,963.85 1181.47,953.349 1201.68,942.547 1221.9,931.458 1242.11,920.098 1262.33,908.481 1282.54,896.623 1302.76,884.539 1322.98,872.245 1343.19,859.754 1363.41,847.081 1383.62,834.239 1403.84,821.242 1424.05,808.101 1444.27,794.828 1464.48,781.433 1484.7,767.927 1504.92,754.32 1525.13,740.62 1545.35,726.834 1565.56,712.972 1585.78,699.039 1605.99,685.043 1626.21,670.988 1646.42,656.88 1666.64,642.725 1686.86,628.526 1707.07,614.288 1727.29,600.015 1747.5,585.709 1767.72,571.374 1787.93,557.013 1808.15,542.628 1828.36,528.221 1848.58,513.795 1868.8,499.352 1889.01,484.893 1909.23,470.419 1929.44,455.933 1949.66,441.435 1969.87,426.926 1990.09,412.408 2010.3,397.881 2030.52,383.347 2050.74,368.806 2070.95,354.258 2091.17,339.705 2111.38,325.147 2131.6,310.584 2151.81,296.018 2172.03,281.447 2192.24,266.873 2212.46,252.296 2232.68,237.717 2252.89,223.134 2273.11,208.55 2293.32,193.964 "/>
<polyline clip-path="url(#clip462)" style="stroke:#3da44d; stroke-linecap:round; stroke-linejoin:round; stroke-width:4; stroke-opacity:0.4; fill:none" points="312.198,943.05 332.413,942.908 352.629,942.751 372.844,942.576 393.06,942.383 413.275,942.169 433.491,941.932 453.707,941.67 473.922,941.38 494.138,941.059 514.353,940.704 534.569,940.311 554.784,939.877 575,939.397 595.215,938.867 615.431,938.282 635.647,937.635 655.862,936.922 676.078,936.135 696.293,935.268 716.509,934.313 736.724,933.261 756.94,932.104 777.155,930.832 797.371,929.435 817.587,927.902 837.802,926.221 858.018,924.381 878.233,922.369 898.449,920.171 918.664,917.773 938.88,915.162 959.095,912.322 979.311,909.239 999.527,905.899 1019.74,902.286 1039.96,898.386 1060.17,894.185 1080.39,889.67 1100.6,884.828 1120.82,879.649 1141.04,874.122 1161.25,868.238 1181.47,861.992 1201.68,855.378 1221.9,848.392 1242.11,841.034 1262.33,833.304 1282.54,825.205 1302.76,816.742 1322.98,807.921 1343.19,798.751 1363.41,789.24 1383.62,779.401 1403.84,769.245 1424.05,758.785 1444.27,748.035 1464.48,737.009 1484.7,725.722 1504.92,714.189 1525.13,702.425 1545.35,690.444 1565.56,678.261 1585.78,665.888 1605.99,653.341 1626.21,640.632 1646.42,627.772 1666.64,614.774 1686.86,601.649 1707.07,588.407 1727.29,575.058 1747.5,561.61 1767.72,548.073 1787.93,534.453 1808.15,520.758 1828.36,506.996 1848.58,493.171 1868.8,479.29 1889.01,465.357 1909.23,451.378 1929.44,437.356 1949.66,423.296 1969.87,409.201 1990.09,395.075 2010.3,380.92 2030.52,366.739 2050.74,352.535 2070.95,338.309 2091.17,324.065 2111.38,309.803 2131.6,295.526 2151.81,281.234 2172.03,266.93 2192.24,252.614 2212.46,238.287 2232.68,223.952 2252.89,209.607 2273.11,195.255 2293.32,180.897 "/>
<polyline clip-path="url(#clip462)" style="stroke:#3da44d; stroke-linecap:round; stroke-linejoin:round; stroke-width:4; stroke-opacity:0.4; fill:none" points="312.198,1063.67 332.413,1063.37 352.629,1063.04 372.844,1062.67 393.06,1062.26 413.275,1061.8 433.491,1061.3 453.707,1060.74 473.922,1060.11 494.138,1059.42 514.353,1058.66 534.569,1057.81 554.784,1056.88 575,1055.84 595.215,1054.7 615.431,1053.43 635.647,1052.04 655.862,1050.5 676.078,1048.81 696.293,1046.95 716.509,1044.91 736.724,1042.67 756.94,1040.21 777.155,1037.53 797.371,1034.6 817.587,1031.4 837.802,1027.93 858.018,1024.16 878.233,1020.08 898.449,1015.67 918.664,1010.92 938.88,1005.81 959.095,1000.33 979.311,994.467 999.527,988.216 1019.74,981.569 1039.96,974.52 1060.17,967.066 1080.39,959.207 1100.6,950.945 1120.82,942.283 1141.04,933.23 1161.25,923.793 1181.47,913.982 1201.68,903.809 1221.9,893.288 1242.11,882.435 1262.33,871.263 1282.54,859.789 1302.76,848.03 1322.98,836.003 1343.19,823.725 1363.41,811.211 1383.62,798.479 1403.84,785.543 1424.05,772.42 1444.27,759.123 1464.48,745.666 1484.7,732.063 1504.92,718.326 1525.13,704.465 1545.35,690.492 1565.56,676.417 1585.78,662.248 1605.99,647.995 1626.21,633.665 1646.42,619.265 1666.64,604.802 1686.86,590.282 1707.07,575.709 1727.29,561.09 1747.5,546.429 1767.72,531.729 1787.93,516.995 1808.15,502.23 1828.36,487.437 1848.58,472.619 1868.8,457.778 1889.01,442.916 1909.23,428.036 1929.44,413.14 1949.66,398.229 1969.87,383.304 1990.09,368.367 2010.3,353.419 2030.52,338.462 2050.74,323.495 2070.95,308.521 2091.17,293.54 2111.38,278.552 2131.6,263.559 2151.81,248.561 2172.03,233.558 2192.24,218.55 2212.46,203.539 2232.68,188.525 2252.89,173.508 2273.11,158.488 2293.32,143.465 "/>
<circle clip-path="url(#clip462)" cx="312.198" cy="1107.42" r="14.4" fill="#009af9" fill-rule="evenodd" fill-opacity="1" stroke="#000000" stroke-opacity="1" stroke-width="3.2"/>
<circle clip-path="url(#clip462)" cx="332.413" cy="1166.59" r="14.4" fill="#009af9" fill-rule="evenodd" fill-opacity="1" stroke="#000000" stroke-opacity="1" stroke-width="3.2"/>
<circle clip-path="url(#clip462)" cx="352.629" cy="1196.77" r="14.4" fill="#009af9" fill-rule="evenodd" fill-opacity="1" stroke="#000000" stroke-opacity="1" stroke-width="3.2"/>
<circle clip-path="url(#clip462)" cx="372.844" cy="1229.13" r="14.4" fill="#009af9" fill-rule="evenodd" fill-opacity="1" stroke="#000000" stroke-opacity="1" stroke-width="3.2"/>
<circle clip-path="url(#clip462)" cx="393.06" cy="1241.83" r="14.4" fill="#009af9" fill-rule="evenodd" fill-opacity="1" stroke="#000000" stroke-opacity="1" stroke-width="3.2"/>
<circle clip-path="url(#clip462)" cx="413.275" cy="1248.64" r="14.4" fill="#009af9" fill-rule="evenodd" fill-opacity="1" stroke="#000000" stroke-opacity="1" stroke-width="3.2"/>
<circle clip-path="url(#clip462)" cx="433.491" cy="1255.8" r="14.4" fill="#009af9" fill-rule="evenodd" fill-opacity="1" stroke="#000000" stroke-opacity="1" stroke-width="3.2"/>
<circle clip-path="url(#clip462)" cx="453.707" cy="1271.33" r="14.4" fill="#009af9" fill-rule="evenodd" fill-opacity="1" stroke="#000000" stroke-opacity="1" stroke-width="3.2"/>
<circle clip-path="url(#clip462)" cx="473.922" cy="1288.8" r="14.4" fill="#009af9" fill-rule="evenodd" fill-opacity="1" stroke="#000000" stroke-opacity="1" stroke-width="3.2"/>
<circle clip-path="url(#clip462)" cx="494.138" cy="1298.43" r="14.4" fill="#009af9" fill-rule="evenodd" fill-opacity="1" stroke="#000000" stroke-opacity="1" stroke-width="3.2"/>
<circle clip-path="url(#clip462)" cx="514.353" cy="1298.43" r="14.4" fill="#009af9" fill-rule="evenodd" fill-opacity="1" stroke="#000000" stroke-opacity="1" stroke-width="3.2"/>
<circle clip-path="url(#clip462)" cx="534.569" cy="1255.8" r="14.4" fill="#009af9" fill-rule="evenodd" fill-opacity="1" stroke="#000000" stroke-opacity="1" stroke-width="3.2"/>
<circle clip-path="url(#clip462)" cx="554.784" cy="1201.67" r="14.4" fill="#009af9" fill-rule="evenodd" fill-opacity="1" stroke="#000000" stroke-opacity="1" stroke-width="3.2"/>
<circle clip-path="url(#clip462)" cx="575" cy="1148.43" r="14.4" fill="#009af9" fill-rule="evenodd" fill-opacity="1" stroke="#000000" stroke-opacity="1" stroke-width="3.2"/>
<circle clip-path="url(#clip462)" cx="595.215" cy="1107.42" r="14.4" fill="#009af9" fill-rule="evenodd" fill-opacity="1" stroke="#000000" stroke-opacity="1" stroke-width="3.2"/>
<circle clip-path="url(#clip462)" cx="615.431" cy="1077.79" r="14.4" fill="#009af9" fill-rule="evenodd" fill-opacity="1" stroke="#000000" stroke-opacity="1" stroke-width="3.2"/>
<circle clip-path="url(#clip462)" cx="635.647" cy="1058.63" r="14.4" fill="#009af9" fill-rule="evenodd" fill-opacity="1" stroke="#000000" stroke-opacity="1" stroke-width="3.2"/>
<circle clip-path="url(#clip462)" cx="655.862" cy="1046.62" r="14.4" fill="#009af9" fill-rule="evenodd" fill-opacity="1" stroke="#000000" stroke-opacity="1" stroke-width="3.2"/>
<circle clip-path="url(#clip462)" cx="676.078" cy="1040.2" r="14.4" fill="#009af9" fill-rule="evenodd" fill-opacity="1" stroke="#000000" stroke-opacity="1" stroke-width="3.2"/>
<circle clip-path="url(#clip462)" cx="696.293" cy="1034.06" r="14.4" fill="#009af9" fill-rule="evenodd" fill-opacity="1" stroke="#000000" stroke-opacity="1" stroke-width="3.2"/>
<circle clip-path="url(#clip462)" cx="716.509" cy="1026.74" r="14.4" fill="#009af9" fill-rule="evenodd" fill-opacity="1" stroke="#000000" stroke-opacity="1" stroke-width="3.2"/>
<circle clip-path="url(#clip462)" cx="736.724" cy="1022.53" r="14.4" fill="#009af9" fill-rule="evenodd" fill-opacity="1" stroke="#000000" stroke-opacity="1" stroke-width="3.2"/>
<circle clip-path="url(#clip462)" cx="756.94" cy="1022.53" r="14.4" fill="#009af9" fill-rule="evenodd" fill-opacity="1" stroke="#000000" stroke-opacity="1" stroke-width="3.2"/>
<circle clip-path="url(#clip462)" cx="777.155" cy="1022.53" r="14.4" fill="#009af9" fill-rule="evenodd" fill-opacity="1" stroke="#000000" stroke-opacity="1" stroke-width="3.2"/>
<circle clip-path="url(#clip462)" cx="797.371" cy="1023.92" r="14.4" fill="#009af9" fill-rule="evenodd" fill-opacity="1" stroke="#000000" stroke-opacity="1" stroke-width="3.2"/>
<circle clip-path="url(#clip462)" cx="817.587" cy="1025.32" r="14.4" fill="#009af9" fill-rule="evenodd" fill-opacity="1" stroke="#000000" stroke-opacity="1" stroke-width="3.2"/>
<circle clip-path="url(#clip462)" cx="837.802" cy="1023.92" r="14.4" fill="#009af9" fill-rule="evenodd" fill-opacity="1" stroke="#000000" stroke-opacity="1" stroke-width="3.2"/>
<circle clip-path="url(#clip462)" cx="858.018" cy="1019.79" r="14.4" fill="#009af9" fill-rule="evenodd" fill-opacity="1" stroke="#000000" stroke-opacity="1" stroke-width="3.2"/>
<circle clip-path="url(#clip462)" cx="878.233" cy="1013.17" r="14.4" fill="#009af9" fill-rule="evenodd" fill-opacity="1" stroke="#000000" stroke-opacity="1" stroke-width="3.2"/>
<circle clip-path="url(#clip462)" cx="898.449" cy="1005.61" r="14.4" fill="#009af9" fill-rule="evenodd" fill-opacity="1" stroke="#000000" stroke-opacity="1" stroke-width="3.2"/>
<circle clip-path="url(#clip462)" cx="918.664" cy="999.617" r="14.4" fill="#009af9" fill-rule="evenodd" fill-opacity="1" stroke="#000000" stroke-opacity="1" stroke-width="3.2"/>
<circle clip-path="url(#clip462)" cx="938.88" cy="991.63" r="14.4" fill="#009af9" fill-rule="evenodd" fill-opacity="1" stroke="#000000" stroke-opacity="1" stroke-width="3.2"/>
<circle clip-path="url(#clip462)" cx="959.095" cy="984.075" r="14.4" fill="#009af9" fill-rule="evenodd" fill-opacity="1" stroke="#000000" stroke-opacity="1" stroke-width="3.2"/>
<circle clip-path="url(#clip462)" cx="979.311" cy="976.906" r="14.4" fill="#009af9" fill-rule="evenodd" fill-opacity="1" stroke="#000000" stroke-opacity="1" stroke-width="3.2"/>
<circle clip-path="url(#clip462)" cx="999.527" cy="968.199" r="14.4" fill="#009af9" fill-rule="evenodd" fill-opacity="1" stroke="#000000" stroke-opacity="1" stroke-width="3.2"/>
<circle clip-path="url(#clip462)" cx="1019.74" cy="960.889" r="14.4" fill="#009af9" fill-rule="evenodd" fill-opacity="1" stroke="#000000" stroke-opacity="1" stroke-width="3.2"/>
<circle clip-path="url(#clip462)" cx="1039.96" cy="952.258" r="14.4" fill="#009af9" fill-rule="evenodd" fill-opacity="1" stroke="#000000" stroke-opacity="1" stroke-width="3.2"/>
<circle clip-path="url(#clip462)" cx="1060.17" cy="943.34" r="14.4" fill="#009af9" fill-rule="evenodd" fill-opacity="1" stroke="#000000" stroke-opacity="1" stroke-width="3.2"/>
<circle clip-path="url(#clip462)" cx="1080.39" cy="932.754" r="14.4" fill="#009af9" fill-rule="evenodd" fill-opacity="1" stroke="#000000" stroke-opacity="1" stroke-width="3.2"/>
<circle clip-path="url(#clip462)" cx="1100.6" cy="922.912" r="14.4" fill="#009af9" fill-rule="evenodd" fill-opacity="1" stroke="#000000" stroke-opacity="1" stroke-width="3.2"/>
<circle clip-path="url(#clip462)" cx="1120.82" cy="912.451" r="14.4" fill="#009af9" fill-rule="evenodd" fill-opacity="1" stroke="#000000" stroke-opacity="1" stroke-width="3.2"/>
<circle clip-path="url(#clip462)" cx="1141.04" cy="902.13" r="14.4" fill="#009af9" fill-rule="evenodd" fill-opacity="1" stroke="#000000" stroke-opacity="1" stroke-width="3.2"/>
<circle clip-path="url(#clip462)" cx="1161.25" cy="891.971" r="14.4" fill="#009af9" fill-rule="evenodd" fill-opacity="1" stroke="#000000" stroke-opacity="1" stroke-width="3.2"/>
<circle clip-path="url(#clip462)" cx="1181.47" cy="880.98" r="14.4" fill="#009af9" fill-rule="evenodd" fill-opacity="1" stroke="#000000" stroke-opacity="1" stroke-width="3.2"/>
<circle clip-path="url(#clip462)" cx="1201.68" cy="870.32" r="14.4" fill="#009af9" fill-rule="evenodd" fill-opacity="1" stroke="#000000" stroke-opacity="1" stroke-width="3.2"/>
<circle clip-path="url(#clip462)" cx="1221.9" cy="859.115" r="14.4" fill="#009af9" fill-rule="evenodd" fill-opacity="1" stroke="#000000" stroke-opacity="1" stroke-width="3.2"/>
<circle clip-path="url(#clip462)" cx="1242.11" cy="847.939" r="14.4" fill="#009af9" fill-rule="evenodd" fill-opacity="1" stroke="#000000" stroke-opacity="1" stroke-width="3.2"/>
<circle clip-path="url(#clip462)" cx="1262.33" cy="837.218" r="14.4" fill="#009af9" fill-rule="evenodd" fill-opacity="1" stroke="#000000" stroke-opacity="1" stroke-width="3.2"/>
<circle clip-path="url(#clip462)" cx="1282.54" cy="826.231" r="14.4" fill="#009af9" fill-rule="evenodd" fill-opacity="1" stroke="#000000" stroke-opacity="1" stroke-width="3.2"/>
<circle clip-path="url(#clip462)" cx="1302.76" cy="815.406" r="14.4" fill="#009af9" fill-rule="evenodd" fill-opacity="1" stroke="#000000" stroke-opacity="1" stroke-width="3.2"/>
<circle clip-path="url(#clip462)" cx="1322.98" cy="803.892" r="14.4" fill="#009af9" fill-rule="evenodd" fill-opacity="1" stroke="#000000" stroke-opacity="1" stroke-width="3.2"/>
<circle clip-path="url(#clip462)" cx="1343.19" cy="792.174" r="14.4" fill="#009af9" fill-rule="evenodd" fill-opacity="1" stroke="#000000" stroke-opacity="1" stroke-width="3.2"/>
<circle clip-path="url(#clip462)" cx="1363.41" cy="780.12" r="14.4" fill="#009af9" fill-rule="evenodd" fill-opacity="1" stroke="#000000" stroke-opacity="1" stroke-width="3.2"/>
<circle clip-path="url(#clip462)" cx="1383.62" cy="767.884" r="14.4" fill="#009af9" fill-rule="evenodd" fill-opacity="1" stroke="#000000" stroke-opacity="1" stroke-width="3.2"/>
<circle clip-path="url(#clip462)" cx="1403.84" cy="754.556" r="14.4" fill="#009af9" fill-rule="evenodd" fill-opacity="1" stroke="#000000" stroke-opacity="1" stroke-width="3.2"/>
<circle clip-path="url(#clip462)" cx="1424.05" cy="740.879" r="14.4" fill="#009af9" fill-rule="evenodd" fill-opacity="1" stroke="#000000" stroke-opacity="1" stroke-width="3.2"/>
<circle clip-path="url(#clip462)" cx="1444.27" cy="727.049" r="14.4" fill="#009af9" fill-rule="evenodd" fill-opacity="1" stroke="#000000" stroke-opacity="1" stroke-width="3.2"/>
<circle clip-path="url(#clip462)" cx="1464.48" cy="713.676" r="14.4" fill="#009af9" fill-rule="evenodd" fill-opacity="1" stroke="#000000" stroke-opacity="1" stroke-width="3.2"/>
<circle clip-path="url(#clip462)" cx="1484.7" cy="700.61" r="14.4" fill="#009af9" fill-rule="evenodd" fill-opacity="1" stroke="#000000" stroke-opacity="1" stroke-width="3.2"/>
<circle clip-path="url(#clip462)" cx="1504.92" cy="687.743" r="14.4" fill="#009af9" fill-rule="evenodd" fill-opacity="1" stroke="#000000" stroke-opacity="1" stroke-width="3.2"/>
<circle clip-path="url(#clip462)" cx="1525.13" cy="674.648" r="14.4" fill="#009af9" fill-rule="evenodd" fill-opacity="1" stroke="#000000" stroke-opacity="1" stroke-width="3.2"/>
<circle clip-path="url(#clip462)" cx="1545.35" cy="662.009" r="14.4" fill="#009af9" fill-rule="evenodd" fill-opacity="1" stroke="#000000" stroke-opacity="1" stroke-width="3.2"/>
<circle clip-path="url(#clip462)" cx="1565.56" cy="649.901" r="14.4" fill="#009af9" fill-rule="evenodd" fill-opacity="1" stroke="#000000" stroke-opacity="1" stroke-width="3.2"/>
<circle clip-path="url(#clip462)" cx="1585.78" cy="638.462" r="14.4" fill="#009af9" fill-rule="evenodd" fill-opacity="1" stroke="#000000" stroke-opacity="1" stroke-width="3.2"/>
<circle clip-path="url(#clip462)" cx="1605.99" cy="628.034" r="14.4" fill="#009af9" fill-rule="evenodd" fill-opacity="1" stroke="#000000" stroke-opacity="1" stroke-width="3.2"/>
<circle clip-path="url(#clip462)" cx="1626.21" cy="617.993" r="14.4" fill="#009af9" fill-rule="evenodd" fill-opacity="1" stroke="#000000" stroke-opacity="1" stroke-width="3.2"/>
<circle clip-path="url(#clip462)" cx="1646.42" cy="606.913" r="14.4" fill="#009af9" fill-rule="evenodd" fill-opacity="1" stroke="#000000" stroke-opacity="1" stroke-width="3.2"/>
<circle clip-path="url(#clip462)" cx="1666.64" cy="594.39" r="14.4" fill="#009af9" fill-rule="evenodd" fill-opacity="1" stroke="#000000" stroke-opacity="1" stroke-width="3.2"/>
<circle clip-path="url(#clip462)" cx="1686.86" cy="580.889" r="14.4" fill="#009af9" fill-rule="evenodd" fill-opacity="1" stroke="#000000" stroke-opacity="1" stroke-width="3.2"/>
<circle clip-path="url(#clip462)" cx="1707.07" cy="567.632" r="14.4" fill="#009af9" fill-rule="evenodd" fill-opacity="1" stroke="#000000" stroke-opacity="1" stroke-width="3.2"/>
<circle clip-path="url(#clip462)" cx="1727.29" cy="555.113" r="14.4" fill="#009af9" fill-rule="evenodd" fill-opacity="1" stroke="#000000" stroke-opacity="1" stroke-width="3.2"/>
<circle clip-path="url(#clip462)" cx="1747.5" cy="543.097" r="14.4" fill="#009af9" fill-rule="evenodd" fill-opacity="1" stroke="#000000" stroke-opacity="1" stroke-width="3.2"/>
<circle clip-path="url(#clip462)" cx="1767.72" cy="531.543" r="14.4" fill="#009af9" fill-rule="evenodd" fill-opacity="1" stroke="#000000" stroke-opacity="1" stroke-width="3.2"/>
<circle clip-path="url(#clip462)" cx="1787.93" cy="520.33" r="14.4" fill="#009af9" fill-rule="evenodd" fill-opacity="1" stroke="#000000" stroke-opacity="1" stroke-width="3.2"/>
<circle clip-path="url(#clip462)" cx="1808.15" cy="509.367" r="14.4" fill="#009af9" fill-rule="evenodd" fill-opacity="1" stroke="#000000" stroke-opacity="1" stroke-width="3.2"/>
<circle clip-path="url(#clip462)" cx="1828.36" cy="498.3" r="14.4" fill="#009af9" fill-rule="evenodd" fill-opacity="1" stroke="#000000" stroke-opacity="1" stroke-width="3.2"/>
<circle clip-path="url(#clip462)" cx="1848.58" cy="486.58" r="14.4" fill="#009af9" fill-rule="evenodd" fill-opacity="1" stroke="#000000" stroke-opacity="1" stroke-width="3.2"/>
<circle clip-path="url(#clip462)" cx="1868.8" cy="473.795" r="14.4" fill="#009af9" fill-rule="evenodd" fill-opacity="1" stroke="#000000" stroke-opacity="1" stroke-width="3.2"/>
<circle clip-path="url(#clip462)" cx="1889.01" cy="460.029" r="14.4" fill="#009af9" fill-rule="evenodd" fill-opacity="1" stroke="#000000" stroke-opacity="1" stroke-width="3.2"/>
<circle clip-path="url(#clip462)" cx="1909.23" cy="445.569" r="14.4" fill="#009af9" fill-rule="evenodd" fill-opacity="1" stroke="#000000" stroke-opacity="1" stroke-width="3.2"/>
<circle clip-path="url(#clip462)" cx="1929.44" cy="430.854" r="14.4" fill="#009af9" fill-rule="evenodd" fill-opacity="1" stroke="#000000" stroke-opacity="1" stroke-width="3.2"/>
<circle clip-path="url(#clip462)" cx="1949.66" cy="415.936" r="14.4" fill="#009af9" fill-rule="evenodd" fill-opacity="1" stroke="#000000" stroke-opacity="1" stroke-width="3.2"/>
<circle clip-path="url(#clip462)" cx="1969.87" cy="401.067" r="14.4" fill="#009af9" fill-rule="evenodd" fill-opacity="1" stroke="#000000" stroke-opacity="1" stroke-width="3.2"/>
<circle clip-path="url(#clip462)" cx="1990.09" cy="386.149" r="14.4" fill="#009af9" fill-rule="evenodd" fill-opacity="1" stroke="#000000" stroke-opacity="1" stroke-width="3.2"/>
<circle clip-path="url(#clip462)" cx="2010.3" cy="372.134" r="14.4" fill="#009af9" fill-rule="evenodd" fill-opacity="1" stroke="#000000" stroke-opacity="1" stroke-width="3.2"/>
<circle clip-path="url(#clip462)" cx="2030.52" cy="358.253" r="14.4" fill="#009af9" fill-rule="evenodd" fill-opacity="1" stroke="#000000" stroke-opacity="1" stroke-width="3.2"/>
<circle clip-path="url(#clip462)" cx="2050.74" cy="344.284" r="14.4" fill="#009af9" fill-rule="evenodd" fill-opacity="1" stroke="#000000" stroke-opacity="1" stroke-width="3.2"/>
<circle clip-path="url(#clip462)" cx="2070.95" cy="330.122" r="14.4" fill="#009af9" fill-rule="evenodd" fill-opacity="1" stroke="#000000" stroke-opacity="1" stroke-width="3.2"/>
<circle clip-path="url(#clip462)" cx="2091.17" cy="315.676" r="14.4" fill="#009af9" fill-rule="evenodd" fill-opacity="1" stroke="#000000" stroke-opacity="1" stroke-width="3.2"/>
<circle clip-path="url(#clip462)" cx="2111.38" cy="301.178" r="14.4" fill="#009af9" fill-rule="evenodd" fill-opacity="1" stroke="#000000" stroke-opacity="1" stroke-width="3.2"/>
<circle clip-path="url(#clip462)" cx="2131.6" cy="287.041" r="14.4" fill="#009af9" fill-rule="evenodd" fill-opacity="1" stroke="#000000" stroke-opacity="1" stroke-width="3.2"/>
<circle clip-path="url(#clip462)" cx="2151.81" cy="273.423" r="14.4" fill="#009af9" fill-rule="evenodd" fill-opacity="1" stroke="#000000" stroke-opacity="1" stroke-width="3.2"/>
<circle clip-path="url(#clip462)" cx="2172.03" cy="260.134" r="14.4" fill="#009af9" fill-rule="evenodd" fill-opacity="1" stroke="#000000" stroke-opacity="1" stroke-width="3.2"/>
<circle clip-path="url(#clip462)" cx="2192.24" cy="246.926" r="14.4" fill="#009af9" fill-rule="evenodd" fill-opacity="1" stroke="#000000" stroke-opacity="1" stroke-width="3.2"/>
<circle clip-path="url(#clip462)" cx="2212.46" cy="233.8" r="14.4" fill="#009af9" fill-rule="evenodd" fill-opacity="1" stroke="#000000" stroke-opacity="1" stroke-width="3.2"/>
<circle clip-path="url(#clip462)" cx="2232.68" cy="220.902" r="14.4" fill="#009af9" fill-rule="evenodd" fill-opacity="1" stroke="#000000" stroke-opacity="1" stroke-width="3.2"/>
<circle clip-path="url(#clip462)" cx="2252.89" cy="208.53" r="14.4" fill="#009af9" fill-rule="evenodd" fill-opacity="1" stroke="#000000" stroke-opacity="1" stroke-width="3.2"/>
<circle clip-path="url(#clip462)" cx="2273.11" cy="196.755" r="14.4" fill="#009af9" fill-rule="evenodd" fill-opacity="1" stroke="#000000" stroke-opacity="1" stroke-width="3.2"/>
<circle clip-path="url(#clip462)" cx="2293.32" cy="185.564" r="14.4" fill="#009af9" fill-rule="evenodd" fill-opacity="1" stroke="#000000" stroke-opacity="1" stroke-width="3.2"/>
</svg>
