<?xml version="1.0" encoding="utf-8"?>
<svg xmlns="http://www.w3.org/2000/svg" xmlns:xlink="http://www.w3.org/1999/xlink" width="600" height="400" viewBox="0 0 2400 1600">
<defs>
  <clipPath id="clip180">
    <rect x="0" y="0" width="2400" height="1600"/>
  </clipPath>
</defs>
<path clip-path="url(#clip180)" d="M0 1600 L2400 1600 L2400 0 L0 0  Z" fill="#ffffff" fill-rule="evenodd" fill-opacity="1"/>
<defs>
  <clipPath id="clip181">
    <rect x="480" y="0" width="1681" height="1600"/>
  </clipPath>
</defs>
<path clip-path="url(#clip180)" d="M175.445 1423.18 L2352.76 1423.18 L2352.76 106.192 L175.445 106.192  Z" fill="#ffffff" fill-rule="evenodd" fill-opacity="1"/>
<defs>
  <clipPath id="clip182">
    <rect x="175" y="106" width="2178" height="1318"/>
  </clipPath>
</defs>
<polyline clip-path="url(#clip182)" style="stroke:#000000; stroke-linecap:round; stroke-linejoin:round; stroke-width:2; stroke-opacity:0.1; fill:none" points="235.011,1423.18 235.011,106.192 "/>
<polyline clip-path="url(#clip182)" style="stroke:#000000; stroke-linecap:round; stroke-linejoin:round; stroke-width:2; stroke-opacity:0.1; fill:none" points="749.042,1423.18 749.042,106.192 "/>
<polyline clip-path="url(#clip182)" style="stroke:#000000; stroke-linecap:round; stroke-linejoin:round; stroke-width:2; stroke-opacity:0.1; fill:none" points="1263.07,1423.18 1263.07,106.192 "/>
<polyline clip-path="url(#clip182)" style="stroke:#000000; stroke-linecap:round; stroke-linejoin:round; stroke-width:2; stroke-opacity:0.1; fill:none" points="1777.1,1423.18 1777.1,106.192 "/>
<polyline clip-path="url(#clip182)" style="stroke:#000000; stroke-linecap:round; stroke-linejoin:round; stroke-width:2; stroke-opacity:0.1; fill:none" points="2291.13,1423.18 2291.13,106.192 "/>
<polyline clip-path="url(#clip182)" style="stroke:#000000; stroke-linecap:round; stroke-linejoin:round; stroke-width:2; stroke-opacity:0.1; fill:none" points="175.445,1422.36 2352.76,1422.36 "/>
<polyline clip-path="url(#clip182)" style="stroke:#000000; stroke-linecap:round; stroke-linejoin:round; stroke-width:2; stroke-opacity:0.1; fill:none" points="175.445,1218.87 2352.76,1218.87 "/>
<polyline clip-path="url(#clip182)" style="stroke:#000000; stroke-linecap:round; stroke-linejoin:round; stroke-width:2; stroke-opacity:0.1; fill:none" points="175.445,1015.37 2352.76,1015.37 "/>
<polyline clip-path="url(#clip182)" style="stroke:#000000; stroke-linecap:round; stroke-linejoin:round; stroke-width:2; stroke-opacity:0.1; fill:none" points="175.445,811.88 2352.76,811.88 "/>
<polyline clip-path="url(#clip182)" style="stroke:#000000; stroke-linecap:round; stroke-linejoin:round; stroke-width:2; stroke-opacity:0.1; fill:none" points="175.445,608.386 2352.76,608.386 "/>
<polyline clip-path="url(#clip182)" style="stroke:#000000; stroke-linecap:round; stroke-linejoin:round; stroke-width:2; stroke-opacity:0.1; fill:none" points="175.445,404.893 2352.76,404.893 "/>
<polyline clip-path="url(#clip182)" style="stroke:#000000; stroke-linecap:round; stroke-linejoin:round; stroke-width:2; stroke-opacity:0.1; fill:none" points="175.445,201.399 2352.76,201.399 "/>
<polyline clip-path="url(#clip180)" style="stroke:#000000; stroke-linecap:round; stroke-linejoin:round; stroke-width:4; stroke-opacity:1; fill:none" points="175.445,1423.18 2352.76,1423.18 "/>
<polyline clip-path="url(#clip180)" style="stroke:#000000; stroke-linecap:round; stroke-linejoin:round; stroke-width:4; stroke-opacity:1; fill:none" points="235.011,1423.18 235.011,1404.28 "/>
<polyline clip-path="url(#clip180)" style="stroke:#000000; stroke-linecap:round; stroke-linejoin:round; stroke-width:4; stroke-opacity:1; fill:none" points="749.042,1423.18 749.042,1404.28 "/>
<polyline clip-path="url(#clip180)" style="stroke:#000000; stroke-linecap:round; stroke-linejoin:round; stroke-width:4; stroke-opacity:1; fill:none" points="1263.07,1423.18 1263.07,1404.28 "/>
<polyline clip-path="url(#clip180)" style="stroke:#000000; stroke-linecap:round; stroke-linejoin:round; stroke-width:4; stroke-opacity:1; fill:none" points="1777.1,1423.18 1777.1,1404.28 "/>
<polyline clip-path="url(#clip180)" style="stroke:#000000; stroke-linecap:round; stroke-linejoin:round; stroke-width:4; stroke-opacity:1; fill:none" points="2291.13,1423.18 2291.13,1404.28 "/>
<path clip-path="url(#clip180)" d="M235.011 1454.1 Q231.4 1454.1 229.571 1457.66 Q227.766 1461.2 227.766 1468.33 Q227.766 1475.44 229.571 1479.01 Q231.4 1482.55 235.011 1482.55 Q238.645 1482.55 240.451 1479.01 Q242.28 1475.44 242.28 1468.33 Q242.28 1461.2 240.451 1457.66 Q238.645 1454.1 235.011 1454.1 M235.011 1450.39 Q240.821 1450.39 243.877 1455 Q246.955 1459.58 246.955 1468.33 Q246.955 1477.06 243.877 1481.67 Q240.821 1486.25 235.011 1486.25 Q229.201 1486.25 226.122 1481.67 Q223.067 1477.06 223.067 1468.33 Q223.067 1459.58 226.122 1455 Q229.201 1450.39 235.011 1450.39 Z" fill="#000000" fill-rule="nonzero" fill-opacity="1" /><path clip-path="url(#clip180)" d="M712.734 1481.64 L729.053 1481.64 L729.053 1485.58 L707.109 1485.58 L707.109 1481.64 Q709.771 1478.89 714.354 1474.26 Q718.961 1469.61 720.141 1468.27 Q722.387 1465.74 723.266 1464.01 Q724.169 1462.25 724.169 1460.56 Q724.169 1457.8 722.225 1456.07 Q720.304 1454.33 717.202 1454.33 Q715.003 1454.33 712.549 1455.09 Q710.118 1455.86 707.341 1457.41 L707.341 1452.69 Q710.165 1451.55 712.618 1450.97 Q715.072 1450.39 717.109 1450.39 Q722.479 1450.39 725.674 1453.08 Q728.868 1455.77 728.868 1460.26 Q728.868 1462.39 728.058 1464.31 Q727.271 1466.2 725.165 1468.8 Q724.586 1469.47 721.484 1472.69 Q718.382 1475.88 712.734 1481.64 Z" fill="#000000" fill-rule="nonzero" fill-opacity="1" /><path clip-path="url(#clip180)" d="M738.915 1451.02 L757.271 1451.02 L757.271 1454.96 L743.197 1454.96 L743.197 1463.43 Q744.215 1463.08 745.234 1462.92 Q746.252 1462.73 747.271 1462.73 Q753.058 1462.73 756.438 1465.9 Q759.817 1469.08 759.817 1474.49 Q759.817 1480.07 756.345 1483.17 Q752.873 1486.25 746.553 1486.25 Q744.377 1486.25 742.109 1485.88 Q739.864 1485.51 737.456 1484.77 L737.456 1480.07 Q739.54 1481.2 741.762 1481.76 Q743.984 1482.32 746.461 1482.32 Q750.465 1482.32 752.803 1480.21 Q755.141 1478.1 755.141 1474.49 Q755.141 1470.88 752.803 1468.77 Q750.465 1466.67 746.461 1466.67 Q744.586 1466.67 742.711 1467.08 Q740.859 1467.5 738.915 1468.38 L738.915 1451.02 Z" fill="#000000" fill-rule="nonzero" fill-opacity="1" /><path clip-path="url(#clip180)" d="M779.03 1454.1 Q775.419 1454.1 773.59 1457.66 Q771.785 1461.2 771.785 1468.33 Q771.785 1475.44 773.59 1479.01 Q775.419 1482.55 779.03 1482.55 Q782.664 1482.55 784.47 1479.01 Q786.299 1475.44 786.299 1468.33 Q786.299 1461.2 784.47 1457.66 Q782.664 1454.1 779.03 1454.1 M779.03 1450.39 Q784.84 1450.39 787.896 1455 Q790.974 1459.58 790.974 1468.33 Q790.974 1477.06 787.896 1481.67 Q784.84 1486.25 779.03 1486.25 Q773.22 1486.25 770.141 1481.67 Q767.086 1477.06 767.086 1468.33 Q767.086 1459.58 770.141 1455 Q773.22 1450.39 779.03 1450.39 Z" fill="#000000" fill-rule="nonzero" fill-opacity="1" /><path clip-path="url(#clip180)" d="M1222.69 1451.02 L1241.05 1451.02 L1241.05 1454.96 L1226.97 1454.96 L1226.97 1463.43 Q1227.99 1463.08 1229.01 1462.92 Q1230.03 1462.73 1231.05 1462.73 Q1236.83 1462.73 1240.21 1465.9 Q1243.59 1469.08 1243.59 1474.49 Q1243.59 1480.07 1240.12 1483.17 Q1236.65 1486.25 1230.33 1486.25 Q1228.15 1486.25 1225.89 1485.88 Q1223.64 1485.51 1221.23 1484.77 L1221.23 1480.07 Q1223.32 1481.2 1225.54 1481.76 Q1227.76 1482.32 1230.24 1482.32 Q1234.24 1482.32 1236.58 1480.21 Q1238.92 1478.1 1238.92 1474.49 Q1238.92 1470.88 1236.58 1468.77 Q1234.24 1466.67 1230.24 1466.67 Q1228.36 1466.67 1226.49 1467.08 Q1224.64 1467.5 1222.69 1468.38 L1222.69 1451.02 Z" fill="#000000" fill-rule="nonzero" fill-opacity="1" /><path clip-path="url(#clip180)" d="M1262.81 1454.1 Q1259.2 1454.1 1257.37 1457.66 Q1255.56 1461.2 1255.56 1468.33 Q1255.56 1475.44 1257.37 1479.01 Q1259.2 1482.55 1262.81 1482.55 Q1266.44 1482.55 1268.25 1479.01 Q1270.07 1475.44 1270.07 1468.33 Q1270.07 1461.2 1268.25 1457.66 Q1266.44 1454.1 1262.81 1454.1 M1262.81 1450.39 Q1268.62 1450.39 1271.67 1455 Q1274.75 1459.58 1274.75 1468.33 Q1274.75 1477.06 1271.67 1481.67 Q1268.62 1486.25 1262.81 1486.25 Q1257 1486.25 1253.92 1481.67 Q1250.86 1477.06 1250.86 1468.33 Q1250.86 1459.58 1253.92 1455 Q1257 1450.39 1262.81 1450.39 Z" fill="#000000" fill-rule="nonzero" fill-opacity="1" /><path clip-path="url(#clip180)" d="M1292.97 1454.1 Q1289.36 1454.1 1287.53 1457.66 Q1285.72 1461.2 1285.72 1468.33 Q1285.72 1475.44 1287.53 1479.01 Q1289.36 1482.55 1292.97 1482.55 Q1296.6 1482.55 1298.41 1479.01 Q1300.24 1475.44 1300.24 1468.33 Q1300.24 1461.2 1298.41 1457.66 Q1296.6 1454.1 1292.97 1454.1 M1292.97 1450.39 Q1298.78 1450.39 1301.83 1455 Q1304.91 1459.58 1304.91 1468.33 Q1304.91 1477.06 1301.83 1481.67 Q1298.78 1486.25 1292.97 1486.25 Q1287.16 1486.25 1284.08 1481.67 Q1281.02 1477.06 1281.02 1468.33 Q1281.02 1459.58 1284.08 1455 Q1287.16 1450.39 1292.97 1450.39 Z" fill="#000000" fill-rule="nonzero" fill-opacity="1" /><path clip-path="url(#clip180)" d="M1735.38 1451.02 L1757.6 1451.02 L1757.6 1453.01 L1745.05 1485.58 L1740.17 1485.58 L1751.98 1454.96 L1735.38 1454.96 L1735.38 1451.02 Z" fill="#000000" fill-rule="nonzero" fill-opacity="1" /><path clip-path="url(#clip180)" d="M1766.77 1451.02 L1785.12 1451.02 L1785.12 1454.96 L1771.05 1454.96 L1771.05 1463.43 Q1772.07 1463.08 1773.09 1462.92 Q1774.11 1462.73 1775.12 1462.73 Q1780.91 1462.73 1784.29 1465.9 Q1787.67 1469.08 1787.67 1474.49 Q1787.67 1480.07 1784.2 1483.17 Q1780.73 1486.25 1774.41 1486.25 Q1772.23 1486.25 1769.96 1485.88 Q1767.72 1485.51 1765.31 1484.77 L1765.31 1480.07 Q1767.39 1481.2 1769.61 1481.76 Q1771.84 1482.32 1774.31 1482.32 Q1778.32 1482.32 1780.66 1480.21 Q1782.99 1478.1 1782.99 1474.49 Q1782.99 1470.88 1780.66 1468.77 Q1778.32 1466.67 1774.31 1466.67 Q1772.44 1466.67 1770.56 1467.08 Q1768.71 1467.5 1766.77 1468.38 L1766.77 1451.02 Z" fill="#000000" fill-rule="nonzero" fill-opacity="1" /><path clip-path="url(#clip180)" d="M1806.88 1454.1 Q1803.27 1454.1 1801.44 1457.66 Q1799.64 1461.2 1799.64 1468.33 Q1799.64 1475.44 1801.44 1479.01 Q1803.27 1482.55 1806.88 1482.55 Q1810.52 1482.55 1812.32 1479.01 Q1814.15 1475.44 1814.15 1468.33 Q1814.15 1461.2 1812.32 1457.66 Q1810.52 1454.1 1806.88 1454.1 M1806.88 1450.39 Q1812.69 1450.39 1815.75 1455 Q1818.83 1459.58 1818.83 1468.33 Q1818.83 1477.06 1815.75 1481.67 Q1812.69 1486.25 1806.88 1486.25 Q1801.07 1486.25 1797.99 1481.67 Q1794.94 1477.06 1794.94 1468.33 Q1794.94 1459.58 1797.99 1455 Q1801.07 1450.39 1806.88 1450.39 Z" fill="#000000" fill-rule="nonzero" fill-opacity="1" /><path clip-path="url(#clip180)" d="M2235.66 1481.64 L2243.3 1481.64 L2243.3 1455.28 L2234.99 1456.95 L2234.99 1452.69 L2243.25 1451.02 L2247.93 1451.02 L2247.93 1481.64 L2255.57 1481.64 L2255.57 1485.58 L2235.66 1485.58 L2235.66 1481.64 Z" fill="#000000" fill-rule="nonzero" fill-opacity="1" /><path clip-path="url(#clip180)" d="M2275.01 1454.1 Q2271.4 1454.1 2269.57 1457.66 Q2267.77 1461.2 2267.77 1468.33 Q2267.77 1475.44 2269.57 1479.01 Q2271.4 1482.55 2275.01 1482.55 Q2278.65 1482.55 2280.45 1479.01 Q2282.28 1475.44 2282.28 1468.33 Q2282.28 1461.2 2280.45 1457.66 Q2278.65 1454.1 2275.01 1454.1 M2275.01 1450.39 Q2280.82 1450.39 2283.88 1455 Q2286.96 1459.58 2286.96 1468.33 Q2286.96 1477.06 2283.88 1481.67 Q2280.82 1486.25 2275.01 1486.25 Q2269.2 1486.25 2266.12 1481.67 Q2263.07 1477.06 2263.07 1468.33 Q2263.07 1459.58 2266.12 1455 Q2269.2 1450.39 2275.01 1450.39 Z" fill="#000000" fill-rule="nonzero" fill-opacity="1" /><path clip-path="url(#clip180)" d="M2305.17 1454.1 Q2301.56 1454.1 2299.73 1457.66 Q2297.93 1461.2 2297.93 1468.33 Q2297.93 1475.44 2299.73 1479.01 Q2301.56 1482.55 2305.17 1482.55 Q2308.81 1482.55 2310.61 1479.01 Q2312.44 1475.44 2312.44 1468.33 Q2312.44 1461.2 2310.61 1457.66 Q2308.81 1454.1 2305.17 1454.1 M2305.17 1450.39 Q2310.98 1450.39 2314.04 1455 Q2317.12 1459.58 2317.12 1468.33 Q2317.12 1477.06 2314.04 1481.67 Q2310.98 1486.25 2305.17 1486.25 Q2299.36 1486.25 2296.28 1481.67 Q2293.23 1477.06 2293.23 1468.33 Q2293.23 1459.58 2296.28 1455 Q2299.36 1450.39 2305.17 1450.39 Z" fill="#000000" fill-rule="nonzero" fill-opacity="1" /><path clip-path="url(#clip180)" d="M2335.34 1454.1 Q2331.72 1454.1 2329.9 1457.66 Q2328.09 1461.2 2328.09 1468.33 Q2328.09 1475.44 2329.9 1479.01 Q2331.72 1482.55 2335.34 1482.55 Q2338.97 1482.55 2340.77 1479.01 Q2342.6 1475.44 2342.6 1468.33 Q2342.6 1461.2 2340.77 1457.66 Q2338.97 1454.1 2335.34 1454.1 M2335.34 1450.39 Q2341.15 1450.39 2344.2 1455 Q2347.28 1459.58 2347.28 1468.33 Q2347.28 1477.06 2344.2 1481.67 Q2341.15 1486.25 2335.34 1486.25 Q2329.52 1486.25 2326.45 1481.67 Q2323.39 1477.06 2323.39 1468.33 Q2323.39 1459.58 2326.45 1455 Q2329.52 1450.39 2335.34 1450.39 Z" fill="#000000" fill-rule="nonzero" fill-opacity="1" /><path clip-path="url(#clip180)" d="M1132.25 1532.4 L1138.11 1532.4 L1138.11 1568.04 L1132.25 1568.04 L1132.25 1532.4 M1132.25 1518.52 L1138.11 1518.52 L1138.11 1525.93 L1132.25 1525.93 L1132.25 1518.52 Z" fill="#000000" fill-rule="nonzero" fill-opacity="1" /><path clip-path="url(#clip180)" d="M1156.15 1522.27 L1156.15 1532.4 L1168.22 1532.4 L1168.22 1536.95 L1156.15 1536.95 L1156.15 1556.3 Q1156.15 1560.66 1157.33 1561.9 Q1158.54 1563.14 1162.2 1563.14 L1168.22 1563.14 L1168.22 1568.04 L1162.2 1568.04 Q1155.42 1568.04 1152.84 1565.53 Q1150.27 1562.98 1150.27 1556.3 L1150.27 1536.95 L1145.97 1536.95 L1145.97 1532.4 L1150.27 1532.4 L1150.27 1522.27 L1156.15 1522.27 Z" fill="#000000" fill-rule="nonzero" fill-opacity="1" /><path clip-path="url(#clip180)" d="M1206.41 1548.76 L1206.41 1551.62 L1179.48 1551.62 Q1179.87 1557.67 1183.11 1560.85 Q1186.39 1564 1192.22 1564 Q1195.59 1564 1198.74 1563.17 Q1201.92 1562.35 1205.04 1560.69 L1205.04 1566.23 Q1201.89 1567.57 1198.58 1568.27 Q1195.27 1568.97 1191.87 1568.97 Q1183.34 1568.97 1178.34 1564 Q1173.37 1559.04 1173.37 1550.57 Q1173.37 1541.82 1178.08 1536.69 Q1182.83 1531.54 1190.85 1531.54 Q1198.04 1531.54 1202.21 1536.18 Q1206.41 1540.8 1206.41 1548.76 M1200.55 1547.04 Q1200.49 1542.23 1197.85 1539.37 Q1195.24 1536.5 1190.91 1536.5 Q1186.01 1536.5 1183.05 1539.27 Q1180.12 1542.04 1179.68 1547.07 L1200.55 1547.04 Z" fill="#000000" fill-rule="nonzero" fill-opacity="1" /><path clip-path="url(#clip180)" d="M1236.68 1537.87 Q1235.69 1537.3 1234.52 1537.04 Q1233.37 1536.76 1231.97 1536.76 Q1227 1536.76 1224.33 1540 Q1221.69 1543.22 1221.69 1549.27 L1221.69 1568.04 L1215.8 1568.04 L1215.8 1532.4 L1221.69 1532.4 L1221.69 1537.93 Q1223.54 1534.69 1226.5 1533.13 Q1229.46 1531.54 1233.69 1531.54 Q1234.29 1531.54 1235.03 1531.63 Q1235.76 1531.7 1236.65 1531.85 L1236.68 1537.87 Z" fill="#000000" fill-rule="nonzero" fill-opacity="1" /><path clip-path="url(#clip180)" d="M1259.02 1550.12 Q1251.93 1550.12 1249.19 1551.75 Q1246.45 1553.37 1246.45 1557.29 Q1246.45 1560.4 1248.49 1562.25 Q1250.56 1564.07 1254.09 1564.07 Q1258.96 1564.07 1261.89 1560.63 Q1264.85 1557.16 1264.85 1551.43 L1264.85 1550.12 L1259.02 1550.12 M1270.7 1547.71 L1270.7 1568.04 L1264.85 1568.04 L1264.85 1562.63 Q1262.84 1565.88 1259.85 1567.44 Q1256.86 1568.97 1252.53 1568.97 Q1247.06 1568.97 1243.81 1565.91 Q1240.6 1562.82 1240.6 1557.67 Q1240.6 1551.65 1244.61 1548.6 Q1248.65 1545.54 1256.64 1545.54 L1264.85 1545.54 L1264.85 1544.97 Q1264.85 1540.93 1262.17 1538.73 Q1259.53 1536.5 1254.73 1536.5 Q1251.67 1536.5 1248.78 1537.23 Q1245.88 1537.97 1243.21 1539.43 L1243.21 1534.02 Q1246.42 1532.78 1249.44 1532.17 Q1252.47 1531.54 1255.33 1531.54 Q1263.07 1531.54 1266.89 1535.55 Q1270.7 1539.56 1270.7 1547.71 Z" fill="#000000" fill-rule="nonzero" fill-opacity="1" /><path clip-path="url(#clip180)" d="M1288.56 1522.27 L1288.56 1532.4 L1300.62 1532.4 L1300.62 1536.95 L1288.56 1536.95 L1288.56 1556.3 Q1288.56 1560.66 1289.74 1561.9 Q1290.95 1563.14 1294.61 1563.14 L1300.62 1563.14 L1300.62 1568.04 L1294.61 1568.04 Q1287.83 1568.04 1285.25 1565.53 Q1282.67 1562.98 1282.67 1556.3 L1282.67 1536.95 L1278.38 1536.95 L1278.38 1532.4 L1282.67 1532.4 L1282.67 1522.27 L1288.56 1522.27 Z" fill="#000000" fill-rule="nonzero" fill-opacity="1" /><path clip-path="url(#clip180)" d="M1308.33 1532.4 L1314.18 1532.4 L1314.18 1568.04 L1308.33 1568.04 L1308.33 1532.4 M1308.33 1518.52 L1314.18 1518.52 L1314.18 1525.93 L1308.33 1525.93 L1308.33 1518.52 Z" fill="#000000" fill-rule="nonzero" fill-opacity="1" /><path clip-path="url(#clip180)" d="M1340.25 1536.5 Q1335.54 1536.5 1332.8 1540.19 Q1330.07 1543.85 1330.07 1550.25 Q1330.07 1556.65 1332.77 1560.34 Q1335.51 1564 1340.25 1564 Q1344.93 1564 1347.67 1560.31 Q1350.4 1556.62 1350.4 1550.25 Q1350.4 1543.92 1347.67 1540.23 Q1344.93 1536.5 1340.25 1536.5 M1340.25 1531.54 Q1347.89 1531.54 1352.25 1536.5 Q1356.61 1541.47 1356.61 1550.25 Q1356.61 1559 1352.25 1564 Q1347.89 1568.97 1340.25 1568.97 Q1332.58 1568.97 1328.22 1564 Q1323.89 1559 1323.89 1550.25 Q1323.89 1541.47 1328.22 1536.5 Q1332.58 1531.54 1340.25 1531.54 Z" fill="#000000" fill-rule="nonzero" fill-opacity="1" /><path clip-path="url(#clip180)" d="M1395.95 1546.53 L1395.95 1568.04 L1390.09 1568.04 L1390.09 1546.72 Q1390.09 1541.66 1388.12 1539.14 Q1386.15 1536.63 1382.2 1536.63 Q1377.46 1536.63 1374.72 1539.65 Q1371.98 1542.68 1371.98 1547.9 L1371.98 1568.04 L1366.1 1568.04 L1366.1 1532.4 L1371.98 1532.4 L1371.98 1537.93 Q1374.08 1534.72 1376.92 1533.13 Q1379.78 1531.54 1383.51 1531.54 Q1389.65 1531.54 1392.8 1535.36 Q1395.95 1539.14 1395.95 1546.53 Z" fill="#000000" fill-rule="nonzero" fill-opacity="1" /><polyline clip-path="url(#clip180)" style="stroke:#000000; stroke-linecap:round; stroke-linejoin:round; stroke-width:4; stroke-opacity:1; fill:none" points="175.445,1423.18 175.445,106.192 "/>
<polyline clip-path="url(#clip180)" style="stroke:#000000; stroke-linecap:round; stroke-linejoin:round; stroke-width:4; stroke-opacity:1; fill:none" points="175.445,1422.36 194.343,1422.36 "/>
<polyline clip-path="url(#clip180)" style="stroke:#000000; stroke-linecap:round; stroke-linejoin:round; stroke-width:4; stroke-opacity:1; fill:none" points="175.445,1218.87 194.343,1218.87 "/>
<polyline clip-path="url(#clip180)" style="stroke:#000000; stroke-linecap:round; stroke-linejoin:round; stroke-width:4; stroke-opacity:1; fill:none" points="175.445,1015.37 194.343,1015.37 "/>
<polyline clip-path="url(#clip180)" style="stroke:#000000; stroke-linecap:round; stroke-linejoin:round; stroke-width:4; stroke-opacity:1; fill:none" points="175.445,811.88 194.343,811.88 "/>
<polyline clip-path="url(#clip180)" style="stroke:#000000; stroke-linecap:round; stroke-linejoin:round; stroke-width:4; stroke-opacity:1; fill:none" points="175.445,608.386 194.343,608.386 "/>
<polyline clip-path="url(#clip180)" style="stroke:#000000; stroke-linecap:round; stroke-linejoin:round; stroke-width:4; stroke-opacity:1; fill:none" points="175.445,404.893 194.343,404.893 "/>
<polyline clip-path="url(#clip180)" style="stroke:#000000; stroke-linecap:round; stroke-linejoin:round; stroke-width:4; stroke-opacity:1; fill:none" points="175.445,201.399 194.343,201.399 "/>
<path clip-path="url(#clip180)" d="M127.501 1408.16 Q123.89 1408.16 122.061 1411.72 Q120.255 1415.27 120.255 1422.4 Q120.255 1429.5 122.061 1433.07 Q123.89 1436.61 127.501 1436.61 Q131.135 1436.61 132.941 1433.07 Q134.769 1429.5 134.769 1422.4 Q134.769 1415.27 132.941 1411.72 Q131.135 1408.16 127.501 1408.16 M127.501 1404.46 Q133.311 1404.46 136.367 1409.06 Q139.445 1413.65 139.445 1422.4 Q139.445 1431.12 136.367 1435.73 Q133.311 1440.31 127.501 1440.31 Q121.691 1440.31 118.612 1435.73 Q115.556 1431.12 115.556 1422.4 Q115.556 1413.65 118.612 1409.06 Q121.691 1404.46 127.501 1404.46 Z" fill="#000000" fill-rule="nonzero" fill-opacity="1" /><path clip-path="url(#clip180)" d="M119.538 1232.21 L127.177 1232.21 L127.177 1205.85 L118.867 1207.51 L118.867 1203.25 L127.13 1201.59 L131.806 1201.59 L131.806 1232.21 L139.445 1232.21 L139.445 1236.15 L119.538 1236.15 L119.538 1232.21 Z" fill="#000000" fill-rule="nonzero" fill-opacity="1" /><path clip-path="url(#clip180)" d="M123.126 1028.72 L139.445 1028.72 L139.445 1032.65 L117.501 1032.65 L117.501 1028.72 Q120.163 1025.96 124.746 1021.33 Q129.353 1016.68 130.533 1015.34 Q132.779 1012.82 133.658 1011.08 Q134.561 1009.32 134.561 1007.63 Q134.561 1004.88 132.617 1003.14 Q130.695 1001.4 127.593 1001.4 Q125.394 1001.4 122.941 1002.17 Q120.51 1002.93 117.732 1004.48 L117.732 999.761 Q120.556 998.626 123.01 998.048 Q125.464 997.469 127.501 997.469 Q132.871 997.469 136.066 1000.15 Q139.26 1002.84 139.26 1007.33 Q139.26 1009.46 138.45 1011.38 Q137.663 1013.28 135.556 1015.87 Q134.978 1016.54 131.876 1019.76 Q128.774 1022.95 123.126 1028.72 Z" fill="#000000" fill-rule="nonzero" fill-opacity="1" /><path clip-path="url(#clip180)" d="M132.316 810.526 Q135.672 811.244 137.547 813.512 Q139.445 815.781 139.445 819.114 Q139.445 824.23 135.927 827.03 Q132.408 829.831 125.927 829.831 Q123.751 829.831 121.436 829.392 Q119.144 828.975 116.691 828.118 L116.691 823.605 Q118.635 824.739 120.95 825.318 Q123.265 825.896 125.788 825.896 Q130.186 825.896 132.478 824.16 Q134.792 822.424 134.792 819.114 Q134.792 816.058 132.64 814.345 Q130.51 812.609 126.691 812.609 L122.663 812.609 L122.663 808.767 L126.876 808.767 Q130.325 808.767 132.154 807.401 Q133.982 806.012 133.982 803.419 Q133.982 800.757 132.084 799.345 Q130.209 797.91 126.691 797.91 Q124.769 797.91 122.57 798.327 Q120.371 798.744 117.732 799.623 L117.732 795.457 Q120.394 794.716 122.709 794.345 Q125.047 793.975 127.107 793.975 Q132.431 793.975 135.533 796.406 Q138.635 798.813 138.635 802.933 Q138.635 805.804 136.992 807.794 Q135.348 809.762 132.316 810.526 Z" fill="#000000" fill-rule="nonzero" fill-opacity="1" /><path clip-path="url(#clip180)" d="M129.862 595.18 L118.056 613.629 L129.862 613.629 L129.862 595.18 M128.635 591.106 L134.515 591.106 L134.515 613.629 L139.445 613.629 L139.445 617.518 L134.515 617.518 L134.515 625.666 L129.862 625.666 L129.862 617.518 L114.26 617.518 L114.26 613.004 L128.635 591.106 Z" fill="#000000" fill-rule="nonzero" fill-opacity="1" /><path clip-path="url(#clip180)" d="M118.543 387.613 L136.899 387.613 L136.899 391.548 L122.825 391.548 L122.825 400.02 Q123.843 399.673 124.862 399.511 Q125.88 399.325 126.899 399.325 Q132.686 399.325 136.066 402.497 Q139.445 405.668 139.445 411.085 Q139.445 416.663 135.973 419.765 Q132.501 422.844 126.181 422.844 Q124.005 422.844 121.737 422.474 Q119.492 422.103 117.084 421.362 L117.084 416.663 Q119.168 417.798 121.39 418.353 Q123.612 418.909 126.089 418.909 Q130.093 418.909 132.431 416.802 Q134.769 414.696 134.769 411.085 Q134.769 407.474 132.431 405.367 Q130.093 403.261 126.089 403.261 Q124.214 403.261 122.339 403.677 Q120.487 404.094 118.543 404.974 L118.543 387.613 Z" fill="#000000" fill-rule="nonzero" fill-opacity="1" /><path clip-path="url(#clip180)" d="M127.917 199.535 Q124.769 199.535 122.918 201.688 Q121.089 203.841 121.089 207.591 Q121.089 211.318 122.918 213.494 Q124.769 215.646 127.917 215.646 Q131.066 215.646 132.894 213.494 Q134.746 211.318 134.746 207.591 Q134.746 203.841 132.894 201.688 Q131.066 199.535 127.917 199.535 M137.2 184.883 L137.2 189.142 Q135.441 188.309 133.635 187.869 Q131.853 187.429 130.093 187.429 Q125.464 187.429 123.01 190.554 Q120.58 193.679 120.232 199.998 Q121.598 197.985 123.658 196.92 Q125.718 195.832 128.195 195.832 Q133.404 195.832 136.413 199.003 Q139.445 202.151 139.445 207.591 Q139.445 212.915 136.297 216.133 Q133.149 219.35 127.917 219.35 Q121.922 219.35 118.751 214.767 Q115.58 210.16 115.58 201.434 Q115.58 193.239 119.468 188.378 Q123.357 183.494 129.908 183.494 Q131.667 183.494 133.45 183.841 Q135.255 184.188 137.2 184.883 Z" fill="#000000" fill-rule="nonzero" fill-opacity="1" /><path clip-path="url(#clip180)" d="M44.7161 808.753 L47.5806 808.753 L47.5806 835.68 Q53.6281 835.298 56.8109 832.051 Q59.9619 828.773 59.9619 822.948 Q59.9619 819.574 59.1344 816.423 Q58.3069 813.24 56.6518 810.121 L62.1899 810.121 Q63.5267 813.272 64.227 816.582 Q64.9272 819.893 64.9272 823.298 Q64.9272 831.828 59.9619 836.825 Q54.9967 841.791 46.5303 841.791 Q37.7774 841.791 32.6531 837.08 Q27.4968 832.338 27.4968 824.317 Q27.4968 817.123 32.1438 812.954 Q36.7589 808.753 44.7161 808.753 M42.9973 814.609 Q38.1912 814.673 35.3266 817.314 Q32.4621 819.924 32.4621 824.253 Q32.4621 829.155 35.2312 832.115 Q38.0002 835.043 43.0292 835.489 L42.9973 814.609 Z" fill="#000000" fill-rule="nonzero" fill-opacity="1" /><path clip-path="url(#clip180)" d="M33.8307 778.484 Q33.2578 779.47 33.0032 780.648 Q32.7167 781.794 32.7167 783.194 Q32.7167 788.16 35.9632 790.833 Q39.1779 793.475 45.2253 793.475 L64.0042 793.475 L64.0042 799.363 L28.3562 799.363 L28.3562 793.475 L33.8944 793.475 Q30.6479 791.629 29.0883 788.669 Q27.4968 785.709 27.4968 781.476 Q27.4968 780.871 27.5923 780.139 Q27.656 779.407 27.8151 778.515 L33.8307 778.484 Z" fill="#000000" fill-rule="nonzero" fill-opacity="1" /><path clip-path="url(#clip180)" d="M33.8307 752.83 Q33.2578 753.817 33.0032 754.994 Q32.7167 756.14 32.7167 757.54 Q32.7167 762.506 35.9632 765.179 Q39.1779 767.821 45.2253 767.821 L64.0042 767.821 L64.0042 773.709 L28.3562 773.709 L28.3562 767.821 L33.8944 767.821 Q30.6479 765.975 29.0883 763.015 Q27.4968 760.055 27.4968 755.822 Q27.4968 755.217 27.5923 754.485 Q27.656 753.753 27.8151 752.862 L33.8307 752.83 Z" fill="#000000" fill-rule="nonzero" fill-opacity="1" /><path clip-path="url(#clip180)" d="M32.4621 734.306 Q32.4621 739.016 36.1542 741.754 Q39.8145 744.491 46.212 744.491 Q52.6095 744.491 56.3017 741.785 Q59.9619 739.048 59.9619 734.306 Q59.9619 729.627 56.2698 726.89 Q52.5777 724.152 46.212 724.152 Q39.8781 724.152 36.186 726.89 Q32.4621 729.627 32.4621 734.306 M27.4968 734.306 Q27.4968 726.667 32.4621 722.306 Q37.4273 717.946 46.212 717.946 Q54.9649 717.946 59.9619 722.306 Q64.9272 726.667 64.9272 734.306 Q64.9272 741.976 59.9619 746.337 Q54.9649 750.666 46.212 750.666 Q37.4273 750.666 32.4621 746.337 Q27.4968 741.976 27.4968 734.306 Z" fill="#000000" fill-rule="nonzero" fill-opacity="1" /><path clip-path="url(#clip180)" d="M33.8307 687.581 Q33.2578 688.568 33.0032 689.746 Q32.7167 690.892 32.7167 692.292 Q32.7167 697.257 35.9632 699.931 Q39.1779 702.573 45.2253 702.573 L64.0042 702.573 L64.0042 708.461 L28.3562 708.461 L28.3562 702.573 L33.8944 702.573 Q30.6479 700.727 29.0883 697.766 Q27.4968 694.806 27.4968 690.573 Q27.4968 689.969 27.5923 689.236 Q27.656 688.504 27.8151 687.613 L33.8307 687.581 Z" fill="#000000" fill-rule="nonzero" fill-opacity="1" /><path clip-path="url(#clip180)" d="M967.632 8.64 L994.947 8.64 L994.947 13.559 L973.477 13.559 L973.477 26.3482 L994.05 26.3482 L994.05 31.2672 L973.477 31.2672 L973.477 46.921 L995.468 46.921 L995.468 51.84 L967.632 51.84 L967.632 8.64 Z" fill="#000000" fill-rule="nonzero" fill-opacity="1" /><path clip-path="url(#clip180)" d="M1001.02 19.4328 L1006.67 19.4328 L1016.79 46.6317 L1026.92 19.4328 L1032.56 19.4328 L1020.41 51.84 L1013.18 51.84 L1001.02 19.4328 Z" fill="#000000" fill-rule="nonzero" fill-opacity="1" /><path clip-path="url(#clip180)" d="M1052.47 23.1654 Q1048.19 23.1654 1045.7 26.5218 Q1043.21 29.8494 1043.21 35.6653 Q1043.21 41.4813 1045.67 44.8377 Q1048.16 48.1653 1052.47 48.1653 Q1056.72 48.1653 1059.21 44.8088 Q1061.7 41.4523 1061.7 35.6653 Q1061.7 29.9072 1059.21 26.5508 Q1056.72 23.1654 1052.47 23.1654 M1052.47 18.6515 Q1059.41 18.6515 1063.38 23.1654 Q1067.34 27.6792 1067.34 35.6653 Q1067.34 43.6225 1063.38 48.1653 Q1059.41 52.6791 1052.47 52.6791 Q1045.5 52.6791 1041.53 48.1653 Q1037.6 43.6225 1037.6 35.6653 Q1037.6 27.6792 1041.53 23.1654 Q1045.5 18.6515 1052.47 18.6515 Z" fill="#000000" fill-rule="nonzero" fill-opacity="1" /><path clip-path="url(#clip180)" d="M1076.17 6.81709 L1081.49 6.81709 L1081.49 51.84 L1076.17 51.84 L1076.17 6.81709 Z" fill="#000000" fill-rule="nonzero" fill-opacity="1" /><path clip-path="url(#clip180)" d="M1092.08 39.0507 L1092.08 19.4328 L1097.41 19.4328 L1097.41 38.8482 Q1097.41 43.4488 1099.2 45.7636 Q1100.99 48.0495 1104.58 48.0495 Q1108.89 48.0495 1111.38 45.3007 Q1113.9 42.5519 1113.9 37.8065 L1113.9 19.4328 L1119.22 19.4328 L1119.22 51.84 L1113.9 51.84 L1113.9 46.8632 Q1111.96 49.8145 1109.38 51.2613 Q1106.84 52.6791 1103.45 52.6791 Q1097.87 52.6791 1094.98 49.2069 Q1092.08 45.7347 1092.08 39.0507 M1105.48 18.6515 L1105.48 18.6515 Z" fill="#000000" fill-rule="nonzero" fill-opacity="1" /><path clip-path="url(#clip180)" d="M1135.46 10.2314 L1135.46 19.4328 L1146.42 19.4328 L1146.42 23.5705 L1135.46 23.5705 L1135.46 41.163 Q1135.46 45.1271 1136.53 46.2555 Q1137.63 47.384 1140.95 47.384 L1146.42 47.384 L1146.42 51.84 L1140.95 51.84 Q1134.79 51.84 1132.45 49.5541 Q1130.1 47.2393 1130.1 41.163 L1130.1 23.5705 L1126.2 23.5705 L1126.2 19.4328 L1130.1 19.4328 L1130.1 10.2314 L1135.46 10.2314 Z" fill="#000000" fill-rule="nonzero" fill-opacity="1" /><path clip-path="url(#clip180)" d="M1153.42 19.4328 L1158.75 19.4328 L1158.75 51.84 L1153.42 51.84 L1153.42 19.4328 M1153.42 6.81709 L1158.75 6.81709 L1158.75 13.559 L1153.42 13.559 L1153.42 6.81709 Z" fill="#000000" fill-rule="nonzero" fill-opacity="1" /><path clip-path="url(#clip180)" d="M1182.45 23.1654 Q1178.16 23.1654 1175.68 26.5218 Q1173.19 29.8494 1173.19 35.6653 Q1173.19 41.4813 1175.65 44.8377 Q1178.13 48.1653 1182.45 48.1653 Q1186.7 48.1653 1189.19 44.8088 Q1191.68 41.4523 1191.68 35.6653 Q1191.68 29.9072 1189.19 26.5508 Q1186.7 23.1654 1182.45 23.1654 M1182.45 18.6515 Q1189.39 18.6515 1193.35 23.1654 Q1197.32 27.6792 1197.32 35.6653 Q1197.32 43.6225 1193.35 48.1653 Q1189.39 52.6791 1182.45 52.6791 Q1175.47 52.6791 1171.51 48.1653 Q1167.57 43.6225 1167.57 35.6653 Q1167.57 27.6792 1171.51 23.1654 Q1175.47 18.6515 1182.45 18.6515 Z" fill="#000000" fill-rule="nonzero" fill-opacity="1" /><path clip-path="url(#clip180)" d="M1233.08 32.2799 L1233.08 51.84 L1227.76 51.84 L1227.76 32.4535 Q1227.76 27.8529 1225.96 25.567 Q1224.17 23.2811 1220.58 23.2811 Q1216.27 23.2811 1213.78 26.03 Q1211.29 28.7788 1211.29 33.5241 L1211.29 51.84 L1205.94 51.84 L1205.94 19.4328 L1211.29 19.4328 L1211.29 24.4675 Q1213.2 21.545 1215.78 20.0983 Q1218.38 18.6515 1221.77 18.6515 Q1227.35 18.6515 1230.22 22.1237 Q1233.08 25.567 1233.08 32.2799 Z" fill="#000000" fill-rule="nonzero" fill-opacity="1" /><path clip-path="url(#clip180)" d="M1275.1 23.1654 Q1270.81 23.1654 1268.33 26.5218 Q1265.84 29.8494 1265.84 35.6653 Q1265.84 41.4813 1268.3 44.8377 Q1270.78 48.1653 1275.1 48.1653 Q1279.35 48.1653 1281.84 44.8088 Q1284.33 41.4523 1284.33 35.6653 Q1284.33 29.9072 1281.84 26.5508 Q1279.35 23.1654 1275.1 23.1654 M1275.1 18.6515 Q1282.04 18.6515 1286 23.1654 Q1289.97 27.6792 1289.97 35.6653 Q1289.97 43.6225 1286 48.1653 Q1282.04 52.6791 1275.1 52.6791 Q1268.12 52.6791 1264.16 48.1653 Q1260.22 43.6225 1260.22 35.6653 Q1260.22 27.6792 1264.16 23.1654 Q1268.12 18.6515 1275.1 18.6515 Z" fill="#000000" fill-rule="nonzero" fill-opacity="1" /><path clip-path="url(#clip180)" d="M1315.2 6.81709 L1315.2 11.2442 L1310.11 11.2442 Q1307.24 11.2442 1306.11 12.4016 Q1305.01 13.559 1305.01 16.5682 L1305.01 19.4328 L1313.78 19.4328 L1313.78 23.5705 L1305.01 23.5705 L1305.01 51.84 L1299.66 51.84 L1299.66 23.5705 L1294.57 23.5705 L1294.57 19.4328 L1299.66 19.4328 L1299.66 17.1758 Q1299.66 11.765 1302.18 9.30551 Q1304.7 6.81709 1310.17 6.81709 L1315.2 6.81709 Z" fill="#000000" fill-rule="nonzero" fill-opacity="1" /><path clip-path="url(#clip180)" d="M1343.76 10.2314 L1343.76 19.4328 L1354.73 19.4328 L1354.73 23.5705 L1343.76 23.5705 L1343.76 41.163 Q1343.76 45.1271 1344.83 46.2555 Q1345.93 47.384 1349.26 47.384 L1354.73 47.384 L1354.73 51.84 L1349.26 51.84 Q1343.09 51.84 1340.75 49.5541 Q1338.41 47.2393 1338.41 41.163 L1338.41 23.5705 L1334.5 23.5705 L1334.5 19.4328 L1338.41 19.4328 L1338.41 10.2314 L1343.76 10.2314 Z" fill="#000000" fill-rule="nonzero" fill-opacity="1" /><path clip-path="url(#clip180)" d="M1388.67 32.2799 L1388.67 51.84 L1383.34 51.84 L1383.34 32.4535 Q1383.34 27.8529 1381.55 25.567 Q1379.75 23.2811 1376.17 23.2811 Q1371.85 23.2811 1369.37 26.03 Q1366.88 28.7788 1366.88 33.5241 L1366.88 51.84 L1361.52 51.84 L1361.52 6.81709 L1366.88 6.81709 L1366.88 24.4675 Q1368.79 21.545 1371.36 20.0983 Q1373.97 18.6515 1377.35 18.6515 Q1382.94 18.6515 1385.8 22.1237 Q1388.67 25.567 1388.67 32.2799 Z" fill="#000000" fill-rule="nonzero" fill-opacity="1" /><path clip-path="url(#clip180)" d="M1427 34.3054 L1427 36.9095 L1402.53 36.9095 Q1402.87 42.4072 1405.82 45.3007 Q1408.8 48.1653 1414.1 48.1653 Q1417.17 48.1653 1420.03 47.4129 Q1422.92 46.6606 1425.76 45.156 L1425.76 50.1907 Q1422.9 51.406 1419.89 52.0425 Q1416.88 52.6791 1413.78 52.6791 Q1406.03 52.6791 1401.48 48.1653 Q1396.97 43.6514 1396.97 35.9547 Q1396.97 27.9975 1401.25 23.339 Q1405.56 18.6515 1412.86 18.6515 Q1419.39 18.6515 1423.19 22.876 Q1427 27.0716 1427 34.3054 M1421.68 32.7429 Q1421.62 28.3737 1419.22 25.7695 Q1416.85 23.1654 1412.91 23.1654 Q1408.46 23.1654 1405.77 25.6827 Q1403.1 28.2001 1402.7 32.7718 L1421.68 32.7429 Z" fill="#000000" fill-rule="nonzero" fill-opacity="1" /><path clip-path="url(#clip180)" d="M1454.58 6.81709 L1459.9 6.81709 L1459.9 51.84 L1454.58 51.84 L1454.58 6.81709 Z" fill="#000000" fill-rule="nonzero" fill-opacity="1" /><path clip-path="url(#clip180)" d="M1483.6 23.1654 Q1479.32 23.1654 1476.83 26.5218 Q1474.34 29.8494 1474.34 35.6653 Q1474.34 41.4813 1476.8 44.8377 Q1479.29 48.1653 1483.6 48.1653 Q1487.86 48.1653 1490.34 44.8088 Q1492.83 41.4523 1492.83 35.6653 Q1492.83 29.9072 1490.34 26.5508 Q1487.86 23.1654 1483.6 23.1654 M1483.6 18.6515 Q1490.55 18.6515 1494.51 23.1654 Q1498.47 27.6792 1498.47 35.6653 Q1498.47 43.6225 1494.51 48.1653 Q1490.55 52.6791 1483.6 52.6791 Q1476.63 52.6791 1472.66 48.1653 Q1468.73 43.6225 1468.73 35.6653 Q1468.73 27.6792 1472.66 23.1654 Q1476.63 18.6515 1483.6 18.6515 Z" fill="#000000" fill-rule="nonzero" fill-opacity="1" /><path clip-path="url(#clip180)" d="M1527.96 20.3876 L1527.96 25.4223 Q1525.7 24.2649 1523.27 23.6862 Q1520.84 23.1075 1518.24 23.1075 Q1514.27 23.1075 1512.28 24.3228 Q1510.31 25.5381 1510.31 27.9686 Q1510.31 29.8204 1511.73 30.891 Q1513.14 31.9327 1517.43 32.8876 L1519.25 33.2926 Q1524.92 34.5079 1527.29 36.7359 Q1529.7 38.935 1529.7 42.8991 Q1529.7 47.4129 1526.11 50.046 Q1522.55 52.6791 1516.3 52.6791 Q1513.69 52.6791 1510.86 52.1583 Q1508.05 51.6664 1504.93 50.6537 L1504.93 45.156 Q1507.88 46.6896 1510.74 47.4708 Q1513.61 48.2231 1516.41 48.2231 Q1520.18 48.2231 1522.2 46.95 Q1524.23 45.6479 1524.23 43.3042 Q1524.23 41.134 1522.75 39.9766 Q1521.3 38.8192 1516.36 37.7486 L1514.5 37.3146 Q1509.56 36.273 1507.36 34.1318 Q1505.16 31.9616 1505.16 28.2001 Q1505.16 23.6283 1508.4 21.1399 Q1511.64 18.6515 1517.6 18.6515 Q1520.55 18.6515 1523.16 19.0855 Q1525.76 19.5196 1527.96 20.3876 Z" fill="#000000" fill-rule="nonzero" fill-opacity="1" /><path clip-path="url(#clip180)" d="M1558.83 20.3876 L1558.83 25.4223 Q1556.58 24.2649 1554.15 23.6862 Q1551.71 23.1075 1549.11 23.1075 Q1545.15 23.1075 1543.15 24.3228 Q1541.18 25.5381 1541.18 27.9686 Q1541.18 29.8204 1542.6 30.891 Q1544.02 31.9327 1548.3 32.8876 L1550.12 33.2926 Q1555.79 34.5079 1558.17 36.7359 Q1560.57 38.935 1560.57 42.8991 Q1560.57 47.4129 1556.98 50.046 Q1553.42 52.6791 1547.17 52.6791 Q1544.57 52.6791 1541.73 52.1583 Q1538.93 51.6664 1535.8 50.6537 L1535.8 45.156 Q1538.75 46.6896 1541.62 47.4708 Q1544.48 48.2231 1547.29 48.2231 Q1551.05 48.2231 1553.07 46.95 Q1555.1 45.6479 1555.1 43.3042 Q1555.1 41.134 1553.62 39.9766 Q1552.18 38.8192 1547.23 37.7486 L1545.38 37.3146 Q1540.43 36.273 1538.23 34.1318 Q1536.03 31.9616 1536.03 28.2001 Q1536.03 23.6283 1539.27 21.1399 Q1542.51 18.6515 1548.47 18.6515 Q1551.43 18.6515 1554.03 19.0855 Q1556.63 19.5196 1558.83 20.3876 Z" fill="#000000" fill-rule="nonzero" fill-opacity="1" /><polyline clip-path="url(#clip182)" style="stroke:#009af9; stroke-linecap:round; stroke-linejoin:round; stroke-width:4; stroke-opacity:1; fill:none" points="237.067,143.465 239.123,507.624 241.179,900.476 243.236,1155.57 245.292,1277.32 247.348,1310.1 249.404,1276.98 251.46,1214.37 253.516,1153.45 255.572,1136.22 257.628,1134.98 259.685,1176.67 261.741,1220.91 263.797,1274.87 265.853,1321.57 267.909,1348.92 269.965,1357.89 272.021,1357.49 274.077,1344.51 276.134,1322.68 278.19,1309.33 280.246,1295.81 282.302,1301.85 284.358,1308 286.414,1321.26 288.47,1333.76 290.526,1347.48 292.583,1350.39 294.639,1362.22 296.695,1370.14 298.751,1361.34 300.807,1358.55 302.863,1353.4 304.919,1353.37 306.975,1352.14 309.032,1348.44 311.088,1353.77 313.144,1358.57 315.2,1362.9 317.256,1363.71 319.312,1366.7 321.368,1367.74 323.424,1363.04 325.48,1368.09 327.537,1364.39 329.593,1361.72 331.649,1360.84 333.705,1362.29 335.761,1365.55 337.817,1364.87 339.873,1365.04 341.929,1366.79 343.986,1370.04 346.042,1365.93 348.098,1362.89 350.154,1368.04 352.21,1364.22 354.266,1360.01 356.322,1365.73 358.378,1357.17 360.435,1366.21 362.491,1363.38 364.547,1363.69 366.603,1362.29 368.659,1365.19 370.715,1363.62 372.771,1365.75 374.827,1366.21 376.884,1363.52 378.94,1367.73 380.996,1367.08 383.052,1365.83 385.108,1365.2 387.164,1369.67 389.22,1365.87 391.276,1367 393.333,1366.3 395.389,1369.01 397.445,1368.83 399.501,1366 401.557,1367.44 403.613,1369.08 405.669,1370.64 407.725,1366.83 409.782,1364.56 411.838,1364.35 413.894,1364.35 415.95,1368.28 418.006,1372.11 420.062,1370.02 422.118,1367.41 424.174,1370.66 426.231,1366.33 428.287,1369.34 430.343,1367.44 432.399,1366.29 434.455,1369.92 436.511,1366.92 438.567,1366.95 440.623,1368.13 442.679,1368.19 444.736,1366.41 446.792,1368.92 448.848,1367.6 450.904,1367.28 452.96,1369.24 455.016,1373.77 457.072,1367 459.128,1366.42 461.185,1368.32 463.241,1365.32 465.297,1369.55 467.353,1366.48 469.409,1370.7 471.465,1367.77 473.521,1368.85 475.577,1365.5 477.634,1370.58 479.69,1365.47 481.746,1370.24 483.802,1369.88 485.858,1364.66 487.914,1366.37 489.97,1369.54 492.026,1369.87 494.083,1367 496.139,1369.15 498.195,1369.16 500.251,1364.68 502.307,1369.67 504.363,1368.09 506.419,1369.01 508.475,1370.6 510.532,1367.29 512.588,1366.08 514.644,1365.41 516.7,1367.9 518.756,1368.91 520.812,1368.54 522.868,1369.66 524.924,1368.68 526.981,1368.64 529.037,1368.15 531.093,1368.88 533.149,1367.15 535.205,1371.33 537.261,1366.69 539.317,1366.87 541.373,1371.06 543.43,1366.38 545.486,1366.3 547.542,1365.46 549.598,1369.48 551.654,1367.9 553.71,1367.06 555.766,1370.43 557.822,1361.1 559.878,1367.14 561.935,1367.04 563.991,1366.49 566.047,1370.24 568.103,1369.37 570.159,1369.95 572.215,1368.1 574.271,1367.35 576.327,1367.53 578.384,1369.61 580.44,1369.53 582.496,1369.97 584.552,1365.97 586.608,1376.03 588.664,1369.61 590.72,1365.93 592.776,1372.46 594.833,1370.19 596.889,1370.18 598.945,1369.85 601.001,1370.63 603.057,1365.24 605.113,1371.91 607.169,1373.23 609.225,1367.47 611.282,1371.19 613.338,1369.79 615.394,1370.66 617.45,1373.64 619.506,1370.25 621.562,1373.69 623.618,1369.79 625.674,1369.41 627.731,1369.58 629.787,1369.56 631.843,1371.32 633.899,1371.11 635.955,1368.91 638.011,1368.27 640.067,1377.46 642.123,1368.7 644.18,1372.62 646.236,1370.37 648.292,1370.41 650.348,1368.46 652.404,1368.42 654.46,1370.49 656.516,1371.91 658.572,1369.74 660.629,1374.02 662.685,1369.63 664.741,1372.13 666.797,1373.51 668.853,1374.78 670.909,1371.14 672.965,1371.01 675.021,1372.98 677.077,1375.13 679.134,1371.95 681.19,1373.72 683.246,1371.96 685.302,1373.41 687.358,1373.93 689.414,1372.59 691.47,1374.1 693.526,1370.66 695.583,1371.3 697.639,1373.86 699.695,1372.51 701.751,1372.64 703.807,1372.37 705.863,1372.61 707.919,1372.42 709.975,1373.49 712.032,1375.38 714.088,1373.3 716.144,1373.73 718.2,1374.66 720.256,1374.26 722.312,1370.29 724.368,1372.67 726.424,1371.05 728.481,1365.07 730.537,1375.74 732.593,1374.87 734.649,1374.01 736.705,1373.15 738.761,1370.93 740.817,1374.63 742.873,1371.01 744.93,1373.22 746.986,1376.45 749.042,1372.6 751.098,1373.48 753.154,1374.72 755.21,1375.64 757.266,1375.73 759.322,1374.8 761.379,1373.93 763.435,1372.94 765.491,1367.9 767.547,1372.35 769.603,1374.97 771.659,1376 773.715,1373.2 775.771,1373.47 777.828,1371.58 779.884,1375.02 781.94,1370.79 783.996,1373.15 786.052,1369.08 788.108,1372.57 790.164,1375.74 792.22,1374.27 794.276,1376.95 796.333,1374.44 798.389,1370.97 800.445,1376.52 802.501,1368.73 804.557,1371.06 806.613,1370.54 808.669,1373.71 810.725,1371.71 812.782,1370.43 814.838,1377.1 816.894,1374.11 818.95,1372.88 821.006,1376.13 823.062,1373.45 825.118,1371.67 827.174,1373.66 829.231,1372.55 831.287,1372.3 833.343,1372.38 835.399,1373.51 837.455,1371.66 839.511,1369.22 841.567,1372.95 843.623,1380.04 845.68,1371.21 847.736,1374.71 849.792,1375.41 851.848,1373.91 853.904,1373.78 855.96,1373.15 858.016,1375.81 860.072,1370.98 862.129,1375.07 864.185,1373.15 866.241,1371.77 868.297,1372.78 870.353,1376.42 872.409,1371.84 874.465,1373.16 876.521,1374.08 878.578,1373.07 880.634,1373.29 882.69,1375.27 884.746,1375.11 886.802,1371.29 888.858,1376.84 890.914,1372.97 892.97,1373.57 895.027,1375.17 897.083,1372.47 899.139,1372.85 901.195,1373.07 903.251,1374.44 905.307,1372.69 907.363,1374.18 909.419,1374.53 911.475,1375.42 913.532,1372.18 915.588,1375.85 917.644,1376.47 919.7,1375.86 921.756,1375.68 923.812,1374.94 925.868,1374.74 927.924,1376.24 929.981,1371.87 932.037,1374.78 934.093,1375.58 936.149,1372.5 938.205,1374.09 940.261,1374.11 942.317,1371.07 944.373,1375.99 946.43,1373.85 948.486,1372.62 950.542,1376.34 952.598,1372.98 954.654,1374.37 956.71,1375.37 958.766,1373.13 960.822,1375.33 962.879,1377.76 964.935,1370.13 966.991,1376.19 969.047,1379.18 971.103,1372.29 973.159,1375.51 975.215,1375.93 977.271,1373.35 979.328,1373.64 981.384,1372.85 983.44,1371.97 985.496,1377.74 987.552,1378.54 989.608,1376.09 991.664,1375.37 993.72,1377.49 995.777,1376.27 997.833,1373.05 999.889,1376.09 1001.94,1377.56 1004,1372.64 1006.06,1374.37 1008.11,1377.66 1010.17,1375.65 1012.23,1374.77 1014.28,1374.53 1016.34,1373.99 1018.39,1375.17 1020.45,1380.42 1022.51,1376.04 1024.56,1376.29 1026.62,1377.38 1028.67,1378.75 1030.73,1373.6 1032.79,1377.48 1034.84,1375.72 1036.9,1374.75 1038.96,1376.28 1041.01,1370.01 1043.07,1372.61 1045.12,1377.55 1047.18,1375.75 1049.24,1372.57 1051.29,1378.01 1053.35,1376.81 1055.4,1379.12 1057.46,1373.12 1059.52,1373.69 1061.57,1378.96 1063.63,1376.33 1065.68,1373.1 1067.74,1375.83 1069.8,1370.76 1071.85,1377.76 1073.91,1376.67 1075.97,1377 1078.02,1375.74 1080.08,1377.4 1082.13,1374.53 1084.19,1372.81 1086.25,1373.28 1088.3,1374.76 1090.36,1378.25 1092.41,1375.35 1094.47,1381.42 1096.53,1377.49 1098.58,1376.42 1100.64,1372.29 1102.69,1375.18 1104.75,1378.87 1106.81,1377.54 1108.86,1381.9 1110.92,1377.3 1112.98,1381.5 1115.03,1378.63 1117.09,1378.88 1119.14,1374.01 1121.2,1378.66 1123.26,1378.25 1125.31,1380.52 1127.37,1380.72 1129.42,1376.43 1131.48,1374.11 1133.54,1379.4 1135.59,1378.92 1137.65,1377.43 1139.71,1378.88 1141.76,1373.72 1143.82,1378.81 1145.87,1378.47 1147.93,1374.86 1149.99,1378.92 1152.04,1377.44 1154.1,1373.42 1156.15,1381.31 1158.21,1379.64 1160.27,1375.77 1162.32,1382.23 1164.38,1376.74 1166.43,1376.86 1168.49,1381.05 1170.55,1378.19 1172.6,1378.94 1174.66,1376.72 1176.72,1377.13 1178.77,1376.2 1180.83,1378.31 1182.88,1377.42 1184.94,1376.47 1187,1381.05 1189.05,1376.32 1191.11,1379.11 1193.16,1379.03 1195.22,1376.03 1197.28,1381.89 1199.33,1377.42 1201.39,1375.51 1203.44,1380.47 1205.5,1379.29 1207.56,1376.56 1209.61,1378.57 1211.67,1382.89 1213.73,1372.92 1215.78,1376.34 1217.84,1376.32 1219.89,1375.31 1221.95,1376.91 1224.01,1378.75 1226.06,1376.1 1228.12,1379.29 1230.17,1373.88 1232.23,1376.85 1234.29,1381.77 1236.34,1374.61 1238.4,1377.64 1240.46,1379.12 1242.51,1378.93 1244.57,1374.34 1246.62,1378.55 1248.68,1374.92 1250.74,1380.04 1252.79,1378.72 1254.85,1377.14 1256.9,1379.76 1258.96,1376.61 1261.02,1377.32 1263.07,1374.41 1265.13,1376.98 1267.18,1376.82 1269.24,1376.52 1271.3,1376.97 1273.35,1377.54 1275.41,1376.57 1277.47,1378.01 1279.52,1383.11 1281.58,1374.93 1283.63,1376.1 1285.69,1381.38 1287.75,1379.75 1289.8,1374.85 1291.86,1375.6 1293.91,1376.12 1295.97,1377.97 1298.03,1381.22 1300.08,1379.24 1302.14,1374.35 1304.19,1378.14 1306.25,1377.1 1308.31,1378.52 1310.36,1382.55 1312.42,1377.58 1314.48,1383.72 1316.53,1380.95 1318.59,1376.15 1320.64,1377.83 1322.7,1376.18 1324.76,1377.51 1326.81,1376.83 1328.87,1377.58 1330.92,1377.47 1332.98,1377.96 1335.04,1383.59 1337.09,1378.9 1339.15,1380.66 1341.21,1377.89 1343.26,1380.44 1345.32,1373.45 1347.37,1379.34 1349.43,1378.36 1351.49,1376 1353.54,1380.86 1355.6,1378.29 1357.65,1378.82 1359.71,1378.68 1361.77,1379.32 1363.82,1379.73 1365.88,1380.33 1367.93,1375 1369.99,1376.55 1372.05,1376.63 1374.1,1378.1 1376.16,1378.2 1378.22,1378.67 1380.27,1378.55 1382.33,1376.3 1384.38,1373 1386.44,1376.73 1388.5,1373.84 1390.55,1378.58 1392.61,1379.5 1394.66,1380.21 1396.72,1380.28 1398.78,1375.75 1400.83,1377.93 1402.89,1379.07 1404.94,1379.17 1407,1382.18 1409.06,1373.6 1411.11,1380.71 1413.17,1377.87 1415.23,1377.46 1417.28,1379.59 1419.34,1379.6 1421.39,1379.53 1423.45,1378.4 1425.51,1380.49 1427.56,1377.77 1429.62,1377.65 1431.67,1378.67 1433.73,1371.58 1435.79,1376.68 1437.84,1379.32 1439.9,1379.38 1441.96,1374.57 1444.01,1374.91 1446.07,1382.96 1448.12,1375.04 1450.18,1377.07 1452.24,1379.95 1454.29,1373.73 1456.35,1376.26 1458.4,1377.17 1460.46,1378.71 1462.52,1377.8 1464.57,1378.89 1466.63,1377.02 1468.68,1381.44 1470.74,1380.69 1472.8,1377.5 1474.85,1373.8 1476.91,1376.18 1478.97,1376.23 1481.02,1379.8 1483.08,1378.41 1485.13,1374.58 1487.19,1379.36 1489.25,1379.7 1491.3,1376.27 1493.36,1374.53 1495.41,1377.03 1497.47,1373.25 1499.53,1380.28 1501.58,1375.01 1503.64,1378.04 1505.69,1380.87 1507.75,1375.89 1509.81,1376.32 1511.86,1376.26 1513.92,1375.97 1515.98,1380.44 1518.03,1375.09 1520.09,1379.63 1522.14,1382.56 1524.2,1379.83 1526.26,1380.73 1528.31,1381.91 1530.37,1382.43 1532.42,1377.54 1534.48,1377.94 1536.54,1377.04 1538.59,1379.54 1540.65,1378.98 1542.71,1377.22 1544.76,1379.65 1546.82,1384.35 1548.87,1381.27 1550.93,1375.43 1552.99,1375.76 1555.04,1379.82 1557.1,1378.66 1559.15,1379.12 1561.21,1376.25 1563.27,1376.97 1565.32,1374.27 1567.38,1372.75 1569.43,1378.77 1571.49,1376.52 1573.55,1378.03 1575.6,1373.46 1577.66,1378.13 1579.72,1374.74 1581.77,1374.72 1583.83,1381.09 1585.88,1372.93 1587.94,1377.59 1590,1373.35 1592.05,1373.78 1594.11,1379.09 1596.16,1376.49 1598.22,1374.03 1600.28,1378.71 1602.33,1377.09 1604.39,1376.04 1606.45,1379.65 1608.5,1378.76 1610.56,1380.68 1612.61,1378.32 1614.67,1381.06 1616.73,1378.94 1618.78,1377.79 1620.84,1378.48 1622.89,1377.31 1624.95,1375.09 1627.01,1377.86 1629.06,1381.15 1631.12,1381.97 1633.17,1379.51 1635.23,1381.47 1637.29,1378.68 1639.34,1375.96 1641.4,1377 1643.46,1380.87 1645.51,1377.4 1647.57,1382.16 1649.62,1377.01 1651.68,1378.34 1653.74,1375.91 1655.79,1380.82 1657.85,1378.25 1659.9,1378.45 1661.96,1381.16 1664.02,1379.62 1666.07,1377.36 1668.13,1381.92 1670.18,1383.42 1672.24,1374.52 1674.3,1377.6 1676.35,1378.94 1678.41,1376.63 1680.47,1379.41 1682.52,1380.36 1684.58,1381.34 1686.63,1377.08 1688.69,1376.53 1690.75,1378.79 1692.8,1378.04 1694.86,1376.3 1696.91,1379.29 1698.97,1377.89 1701.03,1382.53 1703.08,1381.12 1705.14,1380.3 1707.2,1378.52 1709.25,1374.2 1711.31,1376.1 1713.36,1382.39 1715.42,1380.47 1717.48,1379.21 1719.53,1377.81 1721.59,1378.45 1723.64,1376.77 1725.7,1379.83 1727.76,1378.78 1729.81,1377.17 1731.87,1379.15 1733.92,1379.67 1735.98,1379.99 1738.04,1377.42 1740.09,1378.46 1742.15,1380.69 1744.21,1377.88 1746.26,1377.24 1748.32,1378.71 1750.37,1377.47 1752.43,1379.3 1754.49,1377.97 1756.54,1377.38 1758.6,1375.16 1760.65,1378.27 1762.71,1378.92 1764.77,1380.08 1766.82,1381.78 1768.88,1380.19 1770.93,1377.92 1772.99,1379.21 1775.05,1377.03 1777.1,1379.1 1779.16,1382.13 1781.22,1377.53 1783.27,1377.21 1785.33,1381.62 1787.38,1377.85 1789.44,1383.15 1791.5,1379.9 1793.55,1383.69 1795.61,1378.57 1797.66,1372.29 1799.72,1381.02 1801.78,1373.62 1803.83,1381.82 1805.89,1380.27 1807.95,1379.02 1810,1376.8 1812.06,1378.73 1814.11,1378.79 1816.17,1382.46 1818.23,1378.81 1820.28,1374.41 1822.34,1376.23 1824.39,1377.83 1826.45,1381.56 1828.51,1378.21 1830.56,1379 1832.62,1377.31 1834.67,1381.34 1836.73,1378.34 1838.79,1378.78 1840.84,1377.07 1842.9,1378.93 1844.96,1376.65 1847.01,1375.86 1849.07,1377.5 1851.12,1376.67 1853.18,1374.7 1855.24,1378.92 1857.29,1373.99 1859.35,1383.19 1861.4,1376.24 1863.46,1381.81 1865.52,1380.88 1867.57,1383.42 1869.63,1378.18 1871.68,1378.24 1873.74,1381.59 1875.8,1380.87 1877.85,1378.24 1879.91,1379.98 1881.97,1378.29 1884.02,1381.2 1886.08,1379.43 1888.13,1377.43 1890.19,1373.79 1892.25,1381.37 1894.3,1379.85 1896.36,1378.86 1898.41,1376.79 1900.47,1380.03 1902.53,1384.06 1904.58,1375.85 1906.64,1380.28 1908.7,1382.35 1910.75,1385.91 1912.81,1379.68 1914.86,1380.24 1916.92,1379.2 1918.98,1379.63 1921.03,1380.15 1923.09,1379.39 1925.14,1378.74 1927.2,1379.06 1929.26,1377.16 1931.31,1377.26 1933.37,1378.76 1935.42,1375.86 1937.48,1376.77 1939.54,1382.18 1941.59,1376.84 1943.65,1377.34 1945.71,1381.27 1947.76,1379.11 1949.82,1382.97 1951.87,1379.65 1953.93,1376.7 1955.99,1380.81 1958.04,1379.71 1960.1,1380.68 1962.15,1374.36 1964.21,1376.16 1966.27,1378.85 1968.32,1381.04 1970.38,1382.22 1972.43,1378.11 1974.49,1380.18 1976.55,1377.2 1978.6,1382.52 1980.66,1382.95 1982.72,1383.03 1984.77,1381.3 1986.83,1374.68 1988.88,1380.5 1990.94,1377.2 1993,1379.74 1995.05,1380.29 1997.11,1376.59 1999.16,1380.11 2001.22,1380.47 2003.28,1377.98 2005.33,1377.9 2007.39,1376.18 2009.45,1378.35 2011.5,1376.59 2013.56,1380.34 2015.61,1380.85 2017.67,1379.26 2019.73,1380.6 2021.78,1381.57 2023.84,1376.53 2025.89,1373.96 2027.95,1384.18 2030.01,1380.55 2032.06,1378.94 2034.12,1382.05 2036.17,1375.24 2038.23,1384.3 2040.29,1377.71 2042.34,1376.09 2044.4,1383.4 2046.46,1378.17 2048.51,1381.6 2050.57,1376.54 2052.62,1382.85 2054.68,1375.45 2056.74,1379.06 2058.79,1380.31 2060.85,1377.3 2062.9,1383.98 2064.96,1380.76 2067.02,1376.88 2069.07,1381.89 2071.13,1379.47 2073.18,1378.36 2075.24,1377.03 2077.3,1380.05 2079.35,1381.16 2081.41,1377.63 2083.47,1377.09 2085.52,1379.89 2087.58,1377.31 2089.63,1381.14 2091.69,1374.77 2093.75,1381.75 2095.8,1378.17 2097.86,1378.79 2099.91,1375.61 2101.97,1379.33 2104.03,1381.07 2106.08,1377.67 2108.14,1380.22 2110.2,1383.64 2112.25,1380.91 2114.31,1381.58 2116.36,1379.87 2118.42,1374.24 2120.48,1380.73 2122.53,1379.52 2124.59,1381.64 2126.64,1379.8 2128.7,1382.1 2130.76,1377.57 2132.81,1379.57 2134.87,1377.52 2136.92,1378.21 2138.98,1378.31 2141.04,1384.42 2143.09,1378.39 2145.15,1378.65 2147.21,1382.06 2149.26,1378.13 2151.32,1380.49 2153.37,1380.48 2155.43,1379.55 2157.49,1383.02 2159.54,1374.96 2161.6,1380.33 2163.65,1381 2165.71,1378.95 2167.77,1381.26 2169.82,1377.71 2171.88,1378.75 2173.93,1377.63 2175.99,1377.91 2178.05,1377.73 2180.1,1378.31 2182.16,1378.85 2184.22,1378.39 2186.27,1379.85 2188.33,1380.35 2190.38,1375.79 2192.44,1381.53 2194.5,1376.59 2196.55,1377.21 2198.61,1379.39 2200.66,1384.38 2202.72,1378.11 2204.78,1381.52 2206.83,1371.81 2208.89,1382.42 2210.95,1380.39 2213,1381.32 2215.06,1382.03 2217.11,1378.08 2219.17,1379.03 2221.23,1381.37 2223.28,1383.45 2225.34,1377.28 2227.39,1379 2229.45,1378.77 2231.51,1379.26 2233.56,1380.61 2235.62,1382.48 2237.67,1381.19 2239.73,1378.66 2241.79,1379.43 2243.84,1373.55 2245.9,1380.79 2247.96,1385.44 2250.01,1380.5 2252.07,1373.92 2254.12,1376.28 2256.18,1381.04 2258.24,1379.19 2260.29,1378.49 2262.35,1381.43 2264.4,1381.65 2266.46,1377.74 2268.52,1382.87 2270.57,1380.73 2272.63,1379.48 2274.68,1376.05 2276.74,1385.06 2278.8,1381.77 2280.85,1382.36 2282.91,1381.25 2284.97,1376.46 2287.02,1375.39 2289.08,1375.36 2291.13,1378.64 "/>
</svg>
