<?xml version="1.0" encoding="utf-8"?>
<svg xmlns="http://www.w3.org/2000/svg" xmlns:xlink="http://www.w3.org/1999/xlink" width="600" height="400" viewBox="0 0 2400 1600">
<defs>
  <clipPath id="clip100">
    <rect x="0" y="0" width="2400" height="1600"/>
  </clipPath>
</defs>
<path clip-path="url(#clip100)" d="M0 1600 L2400 1600 L2400 0 L0 0  Z" fill="#ffffff" fill-rule="evenodd" fill-opacity="1"/>
<defs>
  <clipPath id="clip101">
    <rect x="480" y="0" width="1681" height="1600"/>
  </clipPath>
</defs>
<path clip-path="url(#clip100)" d="M141.853 1486.45 L2352.76 1486.45 L2352.76 106.192 L141.853 106.192  Z" fill="#ffffff" fill-rule="evenodd" fill-opacity="1"/>
<defs>
  <clipPath id="clip102">
    <rect x="141" y="106" width="2212" height="1381"/>
  </clipPath>
</defs>
<polyline clip-path="url(#clip102)" style="stroke:#000000; stroke-linecap:round; stroke-linejoin:round; stroke-width:2; stroke-opacity:0.1; fill:none" points="205.583,1486.45 205.583,106.192 "/>
<polyline clip-path="url(#clip102)" style="stroke:#000000; stroke-linecap:round; stroke-linejoin:round; stroke-width:2; stroke-opacity:0.1; fill:none" points="784.317,1486.45 784.317,106.192 "/>
<polyline clip-path="url(#clip102)" style="stroke:#000000; stroke-linecap:round; stroke-linejoin:round; stroke-width:2; stroke-opacity:0.1; fill:none" points="1363.05,1486.45 1363.05,106.192 "/>
<polyline clip-path="url(#clip102)" style="stroke:#000000; stroke-linecap:round; stroke-linejoin:round; stroke-width:2; stroke-opacity:0.1; fill:none" points="1941.79,1486.45 1941.79,106.192 "/>
<polyline clip-path="url(#clip102)" style="stroke:#000000; stroke-linecap:round; stroke-linejoin:round; stroke-width:2; stroke-opacity:0.1; fill:none" points="141.853,1486.45 2352.76,1486.45 "/>
<polyline clip-path="url(#clip102)" style="stroke:#000000; stroke-linecap:round; stroke-linejoin:round; stroke-width:2; stroke-opacity:0.1; fill:none" points="141.853,1183.09 2352.76,1183.09 "/>
<polyline clip-path="url(#clip102)" style="stroke:#000000; stroke-linecap:round; stroke-linejoin:round; stroke-width:2; stroke-opacity:0.1; fill:none" points="141.853,879.742 2352.76,879.742 "/>
<polyline clip-path="url(#clip102)" style="stroke:#000000; stroke-linecap:round; stroke-linejoin:round; stroke-width:2; stroke-opacity:0.1; fill:none" points="141.853,576.389 2352.76,576.389 "/>
<polyline clip-path="url(#clip102)" style="stroke:#000000; stroke-linecap:round; stroke-linejoin:round; stroke-width:2; stroke-opacity:0.1; fill:none" points="141.853,273.036 2352.76,273.036 "/>
<polyline clip-path="url(#clip100)" style="stroke:#000000; stroke-linecap:round; stroke-linejoin:round; stroke-width:4; stroke-opacity:1; fill:none" points="141.853,1486.45 2352.76,1486.45 "/>
<polyline clip-path="url(#clip100)" style="stroke:#000000; stroke-linecap:round; stroke-linejoin:round; stroke-width:4; stroke-opacity:1; fill:none" points="205.583,1486.45 205.583,1467.55 "/>
<polyline clip-path="url(#clip100)" style="stroke:#000000; stroke-linecap:round; stroke-linejoin:round; stroke-width:4; stroke-opacity:1; fill:none" points="784.317,1486.45 784.317,1467.55 "/>
<polyline clip-path="url(#clip100)" style="stroke:#000000; stroke-linecap:round; stroke-linejoin:round; stroke-width:4; stroke-opacity:1; fill:none" points="1363.05,1486.45 1363.05,1467.55 "/>
<polyline clip-path="url(#clip100)" style="stroke:#000000; stroke-linecap:round; stroke-linejoin:round; stroke-width:4; stroke-opacity:1; fill:none" points="1941.79,1486.45 1941.79,1467.55 "/>
<path clip-path="url(#clip100)" d="M174.484 1532.02 L204.16 1532.02 L204.16 1535.95 L174.484 1535.95 L174.484 1532.02 Z" fill="#000000" fill-rule="nonzero" fill-opacity="1" /><path clip-path="url(#clip100)" d="M227.099 1518.36 L215.294 1536.81 L227.099 1536.81 L227.099 1518.36 M225.872 1514.29 L231.752 1514.29 L231.752 1536.81 L236.683 1536.81 L236.683 1540.7 L231.752 1540.7 L231.752 1548.85 L227.099 1548.85 L227.099 1540.7 L211.497 1540.7 L211.497 1536.19 L225.872 1514.29 Z" fill="#000000" fill-rule="nonzero" fill-opacity="1" /><path clip-path="url(#clip100)" d="M754.259 1532.02 L783.935 1532.02 L783.935 1535.95 L754.259 1535.95 L754.259 1532.02 Z" fill="#000000" fill-rule="nonzero" fill-opacity="1" /><path clip-path="url(#clip100)" d="M798.056 1544.91 L814.375 1544.91 L814.375 1548.85 L792.431 1548.85 L792.431 1544.91 Q795.093 1542.16 799.676 1537.53 Q804.282 1532.88 805.463 1531.53 Q807.708 1529.01 808.588 1527.27 Q809.491 1525.51 809.491 1523.82 Q809.491 1521.07 807.546 1519.33 Q805.625 1517.6 802.523 1517.6 Q800.324 1517.6 797.87 1518.36 Q795.44 1519.13 792.662 1520.68 L792.662 1515.95 Q795.486 1514.82 797.94 1514.24 Q800.393 1513.66 802.431 1513.66 Q807.801 1513.66 810.995 1516.35 Q814.19 1519.03 814.19 1523.52 Q814.19 1525.65 813.38 1527.57 Q812.592 1529.47 810.486 1532.07 Q809.907 1532.74 806.805 1535.95 Q803.704 1539.15 798.056 1544.91 Z" fill="#000000" fill-rule="nonzero" fill-opacity="1" /><path clip-path="url(#clip100)" d="M1363.05 1517.37 Q1359.44 1517.37 1357.61 1520.93 Q1355.81 1524.47 1355.81 1531.6 Q1355.81 1538.71 1357.61 1542.27 Q1359.44 1545.82 1363.05 1545.82 Q1366.69 1545.82 1368.49 1542.27 Q1370.32 1538.71 1370.32 1531.6 Q1370.32 1524.47 1368.49 1520.93 Q1366.69 1517.37 1363.05 1517.37 M1363.05 1513.66 Q1368.86 1513.66 1371.92 1518.27 Q1375 1522.85 1375 1531.6 Q1375 1540.33 1371.92 1544.94 Q1368.86 1549.52 1363.05 1549.52 Q1357.24 1549.52 1354.16 1544.94 Q1351.11 1540.33 1351.11 1531.6 Q1351.11 1522.85 1354.16 1518.27 Q1357.24 1513.66 1363.05 1513.66 Z" fill="#000000" fill-rule="nonzero" fill-opacity="1" /><path clip-path="url(#clip100)" d="M1936.44 1544.91 L1952.76 1544.91 L1952.76 1548.85 L1930.81 1548.85 L1930.81 1544.91 Q1933.48 1542.16 1938.06 1537.53 Q1942.66 1532.88 1943.85 1531.53 Q1946.09 1529.01 1946.97 1527.27 Q1947.87 1525.51 1947.87 1523.82 Q1947.87 1521.07 1945.93 1519.33 Q1944.01 1517.6 1940.91 1517.6 Q1938.71 1517.6 1936.25 1518.36 Q1933.82 1519.13 1931.04 1520.68 L1931.04 1515.95 Q1933.87 1514.82 1936.32 1514.24 Q1938.78 1513.66 1940.81 1513.66 Q1946.18 1513.66 1949.38 1516.35 Q1952.57 1519.03 1952.57 1523.52 Q1952.57 1525.65 1951.76 1527.57 Q1950.98 1529.47 1948.87 1532.07 Q1948.29 1532.74 1945.19 1535.95 Q1942.09 1539.15 1936.44 1544.91 Z" fill="#000000" fill-rule="nonzero" fill-opacity="1" /><polyline clip-path="url(#clip100)" style="stroke:#000000; stroke-linecap:round; stroke-linejoin:round; stroke-width:4; stroke-opacity:1; fill:none" points="141.853,1486.45 141.853,106.192 "/>
<polyline clip-path="url(#clip100)" style="stroke:#000000; stroke-linecap:round; stroke-linejoin:round; stroke-width:4; stroke-opacity:1; fill:none" points="141.853,1486.45 160.751,1486.45 "/>
<polyline clip-path="url(#clip100)" style="stroke:#000000; stroke-linecap:round; stroke-linejoin:round; stroke-width:4; stroke-opacity:1; fill:none" points="141.853,1183.09 160.751,1183.09 "/>
<polyline clip-path="url(#clip100)" style="stroke:#000000; stroke-linecap:round; stroke-linejoin:round; stroke-width:4; stroke-opacity:1; fill:none" points="141.853,879.742 160.751,879.742 "/>
<polyline clip-path="url(#clip100)" style="stroke:#000000; stroke-linecap:round; stroke-linejoin:round; stroke-width:4; stroke-opacity:1; fill:none" points="141.853,576.389 160.751,576.389 "/>
<polyline clip-path="url(#clip100)" style="stroke:#000000; stroke-linecap:round; stroke-linejoin:round; stroke-width:4; stroke-opacity:1; fill:none" points="141.853,273.036 160.751,273.036 "/>
<path clip-path="url(#clip100)" d="M93.9086 1472.25 Q90.2975 1472.25 88.4688 1475.81 Q86.6632 1479.35 86.6632 1486.48 Q86.6632 1493.59 88.4688 1497.15 Q90.2975 1500.7 93.9086 1500.7 Q97.5428 1500.7 99.3483 1497.15 Q101.177 1493.59 101.177 1486.48 Q101.177 1479.35 99.3483 1475.81 Q97.5428 1472.25 93.9086 1472.25 M93.9086 1468.54 Q99.7187 1468.54 102.774 1473.15 Q105.853 1477.73 105.853 1486.48 Q105.853 1495.21 102.774 1499.82 Q99.7187 1504.4 93.9086 1504.4 Q88.0984 1504.4 85.0197 1499.82 Q81.9642 1495.21 81.9642 1486.48 Q81.9642 1477.73 85.0197 1473.15 Q88.0984 1468.54 93.9086 1468.54 Z" fill="#000000" fill-rule="nonzero" fill-opacity="1" /><path clip-path="url(#clip100)" d="M57.7745 1196.44 L74.0939 1196.44 L74.0939 1200.37 L52.1495 1200.37 L52.1495 1196.44 Q54.8115 1193.69 59.3949 1189.06 Q64.0013 1184.4 65.1819 1183.06 Q67.4272 1180.54 68.3068 1178.8 Q69.2096 1177.04 69.2096 1175.35 Q69.2096 1172.6 67.2652 1170.86 Q65.3439 1169.13 62.2421 1169.13 Q60.043 1169.13 57.5893 1169.89 Q55.1588 1170.65 52.381 1172.2 L52.381 1167.48 Q55.2051 1166.35 57.6588 1165.77 Q60.1124 1165.19 62.1495 1165.19 Q67.5198 1165.19 70.7142 1167.88 Q73.9087 1170.56 73.9087 1175.05 Q73.9087 1177.18 73.0985 1179.1 Q72.3115 1181 70.205 1183.59 Q69.6263 1184.26 66.5245 1187.48 Q63.4226 1190.68 57.7745 1196.44 Z" fill="#000000" fill-rule="nonzero" fill-opacity="1" /><path clip-path="url(#clip100)" d="M93.9086 1168.89 Q90.2975 1168.89 88.4688 1172.46 Q86.6632 1176 86.6632 1183.13 Q86.6632 1190.24 88.4688 1193.8 Q90.2975 1197.34 93.9086 1197.34 Q97.5428 1197.34 99.3483 1193.8 Q101.177 1190.24 101.177 1183.13 Q101.177 1176 99.3483 1172.46 Q97.5428 1168.89 93.9086 1168.89 M93.9086 1165.19 Q99.7187 1165.19 102.774 1169.8 Q105.853 1174.38 105.853 1183.13 Q105.853 1191.86 102.774 1196.46 Q99.7187 1201.05 93.9086 1201.05 Q88.0984 1201.05 85.0197 1196.46 Q81.9642 1191.86 81.9642 1183.13 Q81.9642 1174.38 85.0197 1169.8 Q88.0984 1165.19 93.9086 1165.19 Z" fill="#000000" fill-rule="nonzero" fill-opacity="1" /><path clip-path="url(#clip100)" d="M66.5939 866.536 L54.7884 884.985 L66.5939 884.985 L66.5939 866.536 M65.367 862.462 L71.2466 862.462 L71.2466 884.985 L76.1772 884.985 L76.1772 888.874 L71.2466 888.874 L71.2466 897.022 L66.5939 897.022 L66.5939 888.874 L50.9921 888.874 L50.9921 884.36 L65.367 862.462 Z" fill="#000000" fill-rule="nonzero" fill-opacity="1" /><path clip-path="url(#clip100)" d="M93.9086 865.541 Q90.2975 865.541 88.4688 869.106 Q86.6632 872.647 86.6632 879.777 Q86.6632 886.883 88.4688 890.448 Q90.2975 893.99 93.9086 893.99 Q97.5428 893.99 99.3483 890.448 Q101.177 886.883 101.177 879.777 Q101.177 872.647 99.3483 869.106 Q97.5428 865.541 93.9086 865.541 M93.9086 861.837 Q99.7187 861.837 102.774 866.444 Q105.853 871.027 105.853 879.777 Q105.853 888.504 102.774 893.11 Q99.7187 897.693 93.9086 897.693 Q88.0984 897.693 85.0197 893.11 Q81.9642 888.504 81.9642 879.777 Q81.9642 871.027 85.0197 866.444 Q88.0984 861.837 93.9086 861.837 Z" fill="#000000" fill-rule="nonzero" fill-opacity="1" /><path clip-path="url(#clip100)" d="M64.3254 574.526 Q61.1773 574.526 59.3254 576.678 Q57.4967 578.831 57.4967 582.581 Q57.4967 586.308 59.3254 588.484 Q61.1773 590.637 64.3254 590.637 Q67.4735 590.637 69.3022 588.484 Q71.1541 586.308 71.1541 582.581 Q71.1541 578.831 69.3022 576.678 Q67.4735 574.526 64.3254 574.526 M73.6077 559.873 L73.6077 564.132 Q71.8485 563.299 70.0429 562.859 Q68.2606 562.419 66.5013 562.419 Q61.8717 562.419 59.418 565.544 Q56.9875 568.669 56.6402 574.989 Q58.006 572.975 60.0662 571.91 Q62.1263 570.822 64.6032 570.822 Q69.8115 570.822 72.8207 573.993 Q75.8531 577.141 75.8531 582.581 Q75.8531 587.905 72.705 591.123 Q69.5568 594.34 64.3254 594.34 Q58.33 594.34 55.1588 589.757 Q51.9875 585.151 51.9875 576.424 Q51.9875 568.229 55.8764 563.368 Q59.7652 558.484 66.3161 558.484 Q68.0754 558.484 69.8578 558.831 Q71.6633 559.179 73.6077 559.873 Z" fill="#000000" fill-rule="nonzero" fill-opacity="1" /><path clip-path="url(#clip100)" d="M93.9086 562.188 Q90.2975 562.188 88.4688 565.753 Q86.6632 569.294 86.6632 576.424 Q86.6632 583.53 88.4688 587.095 Q90.2975 590.637 93.9086 590.637 Q97.5428 590.637 99.3483 587.095 Q101.177 583.53 101.177 576.424 Q101.177 569.294 99.3483 565.753 Q97.5428 562.188 93.9086 562.188 M93.9086 558.484 Q99.7187 558.484 102.774 563.091 Q105.853 567.674 105.853 576.424 Q105.853 585.151 102.774 589.757 Q99.7187 594.34 93.9086 594.34 Q88.0984 594.34 85.0197 589.757 Q81.9642 585.151 81.9642 576.424 Q81.9642 567.674 85.0197 563.091 Q88.0984 558.484 93.9086 558.484 Z" fill="#000000" fill-rule="nonzero" fill-opacity="1" /><path clip-path="url(#clip100)" d="M63.7467 273.904 Q60.4134 273.904 58.4921 275.687 Q56.5939 277.469 56.5939 280.594 Q56.5939 283.719 58.4921 285.501 Q60.4134 287.284 63.7467 287.284 Q67.08 287.284 69.0013 285.501 Q70.9226 283.696 70.9226 280.594 Q70.9226 277.469 69.0013 275.687 Q67.1032 273.904 63.7467 273.904 M59.0708 271.914 Q56.0615 271.173 54.3717 269.113 Q52.7051 267.052 52.7051 264.09 Q52.7051 259.946 55.6449 257.539 Q58.6078 255.131 63.7467 255.131 Q68.9087 255.131 71.8485 257.539 Q74.7883 259.946 74.7883 264.09 Q74.7883 267.052 73.0985 269.113 Q71.4318 271.173 68.4457 271.914 Q71.8253 272.701 73.7003 274.992 Q75.5985 277.284 75.5985 280.594 Q75.5985 285.617 72.5198 288.302 Q69.4642 290.988 63.7467 290.988 Q58.0291 290.988 54.9504 288.302 Q51.8949 285.617 51.8949 280.594 Q51.8949 277.284 53.793 274.992 Q55.6912 272.701 59.0708 271.914 M57.3578 264.529 Q57.3578 267.214 59.0245 268.719 Q60.7143 270.224 63.7467 270.224 Q66.7559 270.224 68.4457 268.719 Q70.1587 267.214 70.1587 264.529 Q70.1587 261.844 68.4457 260.34 Q66.7559 258.835 63.7467 258.835 Q60.7143 258.835 59.0245 260.34 Q57.3578 261.844 57.3578 264.529 Z" fill="#000000" fill-rule="nonzero" fill-opacity="1" /><path clip-path="url(#clip100)" d="M93.9086 258.835 Q90.2975 258.835 88.4688 262.4 Q86.6632 265.941 86.6632 273.071 Q86.6632 280.177 88.4688 283.742 Q90.2975 287.284 93.9086 287.284 Q97.5428 287.284 99.3483 283.742 Q101.177 280.177 101.177 273.071 Q101.177 265.941 99.3483 262.4 Q97.5428 258.835 93.9086 258.835 M93.9086 255.131 Q99.7187 255.131 102.774 259.738 Q105.853 264.321 105.853 273.071 Q105.853 281.798 102.774 286.404 Q99.7187 290.988 93.9086 290.988 Q88.0984 290.988 85.0197 286.404 Q81.9642 281.798 81.9642 273.071 Q81.9642 264.321 85.0197 259.738 Q88.0984 255.131 93.9086 255.131 Z" fill="#000000" fill-rule="nonzero" fill-opacity="1" /><path clip-path="url(#clip100)" d="M1048.33 32.2799 L1048.33 51.84 L1043.01 51.84 L1043.01 32.4535 Q1043.01 27.8529 1041.21 25.567 Q1039.42 23.2811 1035.83 23.2811 Q1031.52 23.2811 1029.03 26.03 Q1026.54 28.7788 1026.54 33.5241 L1026.54 51.84 L1021.19 51.84 L1021.19 6.81709 L1026.54 6.81709 L1026.54 24.4675 Q1028.45 21.545 1031.03 20.0983 Q1033.63 18.6515 1037.02 18.6515 Q1042.6 18.6515 1045.47 22.1237 Q1048.33 25.567 1048.33 32.2799 Z" fill="#000000" fill-rule="nonzero" fill-opacity="1" /><path clip-path="url(#clip100)" d="M1058.95 19.4328 L1064.28 19.4328 L1064.28 51.84 L1058.95 51.84 L1058.95 19.4328 M1058.95 6.81709 L1064.28 6.81709 L1064.28 13.559 L1058.95 13.559 L1058.95 6.81709 Z" fill="#000000" fill-rule="nonzero" fill-opacity="1" /><path clip-path="url(#clip100)" d="M1096.08 20.3876 L1096.08 25.4223 Q1093.82 24.2649 1091.39 23.6862 Q1088.96 23.1075 1086.35 23.1075 Q1082.39 23.1075 1080.39 24.3228 Q1078.43 25.5381 1078.43 27.9686 Q1078.43 29.8204 1079.84 30.891 Q1081.26 31.9327 1085.54 32.8876 L1087.37 33.2926 Q1093.04 34.5079 1095.41 36.7359 Q1097.81 38.935 1097.81 42.8991 Q1097.81 47.4129 1094.22 50.046 Q1090.66 52.6791 1084.41 52.6791 Q1081.81 52.6791 1078.97 52.1583 Q1076.17 51.6664 1073.04 50.6537 L1073.04 45.156 Q1075.99 46.6896 1078.86 47.4708 Q1081.72 48.2231 1084.53 48.2231 Q1088.29 48.2231 1090.32 46.95 Q1092.34 45.6479 1092.34 43.3042 Q1092.34 41.134 1090.87 39.9766 Q1089.42 38.8192 1084.47 37.7486 L1082.62 37.3146 Q1077.67 36.273 1075.47 34.1318 Q1073.27 31.9616 1073.27 28.2001 Q1073.27 23.6283 1076.52 21.1399 Q1079.76 18.6515 1085.72 18.6515 Q1088.67 18.6515 1091.27 19.0855 Q1093.88 19.5196 1096.08 20.3876 Z" fill="#000000" fill-rule="nonzero" fill-opacity="1" /><path clip-path="url(#clip100)" d="M1111.56 10.2314 L1111.56 19.4328 L1122.52 19.4328 L1122.52 23.5705 L1111.56 23.5705 L1111.56 41.163 Q1111.56 45.1271 1112.63 46.2555 Q1113.73 47.384 1117.05 47.384 L1122.52 47.384 L1122.52 51.84 L1117.05 51.84 Q1110.89 51.84 1108.55 49.5541 Q1106.2 47.2393 1106.2 41.163 L1106.2 23.5705 L1102.3 23.5705 L1102.3 19.4328 L1106.2 19.4328 L1106.2 10.2314 L1111.56 10.2314 Z" fill="#000000" fill-rule="nonzero" fill-opacity="1" /><path clip-path="url(#clip100)" d="M1142.08 23.1654 Q1137.8 23.1654 1135.31 26.5218 Q1132.82 29.8494 1132.82 35.6653 Q1132.82 41.4813 1135.28 44.8377 Q1137.77 48.1653 1142.08 48.1653 Q1146.34 48.1653 1148.82 44.8088 Q1151.31 41.4523 1151.31 35.6653 Q1151.31 29.9072 1148.82 26.5508 Q1146.34 23.1654 1142.08 23.1654 M1142.08 18.6515 Q1149.03 18.6515 1152.99 23.1654 Q1156.95 27.6792 1156.95 35.6653 Q1156.95 43.6225 1152.99 48.1653 Q1149.03 52.6791 1142.08 52.6791 Q1135.11 52.6791 1131.14 48.1653 Q1127.21 43.6225 1127.21 35.6653 Q1127.21 27.6792 1131.14 23.1654 Q1135.11 18.6515 1142.08 18.6515 Z" fill="#000000" fill-rule="nonzero" fill-opacity="1" /><path clip-path="url(#clip100)" d="M1187.11 35.2602 Q1187.11 29.4732 1184.7 26.2904 Q1182.33 23.1075 1178.02 23.1075 Q1173.74 23.1075 1171.34 26.2904 Q1168.96 29.4732 1168.96 35.2602 Q1168.96 41.0183 1171.34 44.2012 Q1173.74 47.384 1178.02 47.384 Q1182.33 47.384 1184.7 44.2012 Q1187.11 41.0183 1187.11 35.2602 M1192.43 47.818 Q1192.43 56.0934 1188.75 60.1154 Q1185.08 64.1663 1177.5 64.1663 Q1174.69 64.1663 1172.2 63.7323 Q1169.72 63.3272 1167.37 62.4592 L1167.37 57.2798 Q1169.72 58.5529 1172 59.1606 Q1174.29 59.7682 1176.66 59.7682 Q1181.9 59.7682 1184.5 57.0194 Q1187.11 54.2995 1187.11 48.7729 L1187.11 46.1398 Q1185.46 49.0044 1182.88 50.4222 Q1180.31 51.84 1176.72 51.84 Q1170.76 51.84 1167.11 47.2972 Q1163.47 42.7544 1163.47 35.2602 Q1163.47 27.7371 1167.11 23.1943 Q1170.76 18.6515 1176.72 18.6515 Q1180.31 18.6515 1182.88 20.0693 Q1185.46 21.4872 1187.11 24.3517 L1187.11 19.4328 L1192.43 19.4328 L1192.43 47.818 Z" fill="#000000" fill-rule="nonzero" fill-opacity="1" /><path clip-path="url(#clip100)" d="M1222.17 24.4096 Q1221.28 23.8888 1220.21 23.6573 Q1219.17 23.3969 1217.89 23.3969 Q1213.38 23.3969 1210.95 26.3482 Q1208.55 29.2707 1208.55 34.7683 L1208.55 51.84 L1203.19 51.84 L1203.19 19.4328 L1208.55 19.4328 L1208.55 24.4675 Q1210.22 21.5161 1212.92 20.0983 Q1215.61 18.6515 1219.45 18.6515 Q1220 18.6515 1220.67 18.7383 Q1221.34 18.7962 1222.15 18.9409 L1222.17 24.4096 Z" fill="#000000" fill-rule="nonzero" fill-opacity="1" /><path clip-path="url(#clip100)" d="M1242.49 35.5496 Q1236.03 35.5496 1233.55 37.0253 Q1231.06 38.501 1231.06 42.06 Q1231.06 44.8956 1232.91 46.5738 Q1234.79 48.2231 1238 48.2231 Q1242.43 48.2231 1245.09 45.0981 Q1247.78 41.9442 1247.78 36.7359 L1247.78 35.5496 L1242.49 35.5496 M1253.11 33.3505 L1253.11 51.84 L1247.78 51.84 L1247.78 46.921 Q1245.96 49.8724 1243.24 51.2902 Q1240.52 52.6791 1236.58 52.6791 Q1231.61 52.6791 1228.66 49.9014 Q1225.73 47.0947 1225.73 42.4072 Q1225.73 36.9385 1229.38 34.1607 Q1233.05 31.3829 1240.32 31.3829 L1247.78 31.3829 L1247.78 30.8621 Q1247.78 27.1874 1245.35 25.1908 Q1242.95 23.1654 1238.58 23.1654 Q1235.8 23.1654 1233.17 23.8309 Q1230.54 24.4964 1228.11 25.8274 L1228.11 20.9085 Q1231.03 19.78 1233.78 19.2302 Q1236.53 18.6515 1239.13 18.6515 Q1246.16 18.6515 1249.63 22.2973 Q1253.11 25.9431 1253.11 33.3505 Z" fill="#000000" fill-rule="nonzero" fill-opacity="1" /><path clip-path="url(#clip100)" d="M1289.3 25.6538 Q1291.3 22.0659 1294.08 20.3587 Q1296.86 18.6515 1300.62 18.6515 Q1305.68 18.6515 1308.43 22.2105 Q1311.18 25.7406 1311.18 32.2799 L1311.18 51.84 L1305.83 51.84 L1305.83 32.4535 Q1305.83 27.795 1304.18 25.5381 Q1302.53 23.2811 1299.14 23.2811 Q1295 23.2811 1292.6 26.03 Q1290.2 28.7788 1290.2 33.5241 L1290.2 51.84 L1284.85 51.84 L1284.85 32.4535 Q1284.85 27.7661 1283.2 25.5381 Q1281.55 23.2811 1278.11 23.2811 Q1274.03 23.2811 1271.62 26.0589 Q1269.22 28.8077 1269.22 33.5241 L1269.22 51.84 L1263.87 51.84 L1263.87 19.4328 L1269.22 19.4328 L1269.22 24.4675 Q1271.05 21.4872 1273.59 20.0693 Q1276.14 18.6515 1279.64 18.6515 Q1283.17 18.6515 1285.63 20.4455 Q1288.12 22.2395 1289.3 25.6538 Z" fill="#000000" fill-rule="nonzero" fill-opacity="1" /><path clip-path="url(#clip100)" d="M1353.19 23.1654 Q1348.91 23.1654 1346.42 26.5218 Q1343.93 29.8494 1343.93 35.6653 Q1343.93 41.4813 1346.39 44.8377 Q1348.88 48.1653 1353.19 48.1653 Q1357.45 48.1653 1359.93 44.8088 Q1362.42 41.4523 1362.42 35.6653 Q1362.42 29.9072 1359.93 26.5508 Q1357.45 23.1654 1353.19 23.1654 M1353.19 18.6515 Q1360.14 18.6515 1364.1 23.1654 Q1368.06 27.6792 1368.06 35.6653 Q1368.06 43.6225 1364.1 48.1653 Q1360.14 52.6791 1353.19 52.6791 Q1346.22 52.6791 1342.25 48.1653 Q1338.32 43.6225 1338.32 35.6653 Q1338.32 27.6792 1342.25 23.1654 Q1346.22 18.6515 1353.19 18.6515 Z" fill="#000000" fill-rule="nonzero" fill-opacity="1" /><path clip-path="url(#clip100)" d="M1393.3 6.81709 L1393.3 11.2442 L1388.2 11.2442 Q1385.34 11.2442 1384.21 12.4016 Q1383.11 13.559 1383.11 16.5682 L1383.11 19.4328 L1391.88 19.4328 L1391.88 23.5705 L1383.11 23.5705 L1383.11 51.84 L1377.76 51.84 L1377.76 23.5705 L1372.67 23.5705 L1372.67 19.4328 L1377.76 19.4328 L1377.76 17.1758 Q1377.76 11.765 1380.28 9.30551 Q1382.79 6.81709 1388.26 6.81709 L1393.3 6.81709 Z" fill="#000000" fill-rule="nonzero" fill-opacity="1" /><path clip-path="url(#clip100)" d="M1414.74 8.64 L1421.02 8.64 L1431.75 24.6989 L1442.54 8.64 L1448.82 8.64 L1434.93 29.3864 L1449.75 51.84 L1443.47 51.84 L1431.32 33.4663 L1419.08 51.84 L1412.77 51.84 L1428.19 28.7788 L1414.74 8.64 Z" fill="#000000" fill-rule="nonzero" fill-opacity="1" /><path clip-path="url(#clip100)" d="M1462.45 10.2314 L1462.45 19.4328 L1473.42 19.4328 L1473.42 23.5705 L1462.45 23.5705 L1462.45 41.163 Q1462.45 45.1271 1463.52 46.2555 Q1464.62 47.384 1467.95 47.384 L1473.42 47.384 L1473.42 51.84 L1467.95 51.84 Q1461.79 51.84 1459.44 49.5541 Q1457.1 47.2393 1457.1 41.163 L1457.1 23.5705 L1453.19 23.5705 L1453.19 19.4328 L1457.1 19.4328 L1457.1 10.2314 L1462.45 10.2314 Z" fill="#000000" fill-rule="nonzero" fill-opacity="1" /><path clip-path="url(#clip102)" d="M263.457 1471.28 L263.457 1486.45 L321.33 1486.45 L321.33 1471.28 L263.457 1471.28 L263.457 1471.28  Z" fill="#009af9" fill-rule="evenodd" fill-opacity="1"/>
<polyline clip-path="url(#clip102)" style="stroke:#000000; stroke-linecap:round; stroke-linejoin:round; stroke-width:4; stroke-opacity:1; fill:none" points="263.457,1471.28 263.457,1486.45 321.33,1486.45 321.33,1471.28 263.457,1471.28 "/>
<path clip-path="url(#clip102)" d="M321.33 1486.45 L321.33 1486.45 L379.203 1486.45 L379.203 1486.45 L321.33 1486.45 L321.33 1486.45  Z" fill="#009af9" fill-rule="evenodd" fill-opacity="1"/>
<polyline clip-path="url(#clip102)" style="stroke:#000000; stroke-linecap:round; stroke-linejoin:round; stroke-width:4; stroke-opacity:1; fill:none" points="321.33,1486.45 321.33,1486.45 379.203,1486.45 321.33,1486.45 "/>
<path clip-path="url(#clip102)" d="M379.203 1471.28 L379.203 1486.45 L437.077 1486.45 L437.077 1471.28 L379.203 1471.28 L379.203 1471.28  Z" fill="#009af9" fill-rule="evenodd" fill-opacity="1"/>
<polyline clip-path="url(#clip102)" style="stroke:#000000; stroke-linecap:round; stroke-linejoin:round; stroke-width:4; stroke-opacity:1; fill:none" points="379.203,1471.28 379.203,1486.45 437.077,1486.45 437.077,1471.28 379.203,1471.28 "/>
<path clip-path="url(#clip102)" d="M437.077 1471.28 L437.077 1486.45 L494.95 1486.45 L494.95 1471.28 L437.077 1471.28 L437.077 1471.28  Z" fill="#009af9" fill-rule="evenodd" fill-opacity="1"/>
<polyline clip-path="url(#clip102)" style="stroke:#000000; stroke-linecap:round; stroke-linejoin:round; stroke-width:4; stroke-opacity:1; fill:none" points="437.077,1471.28 437.077,1486.45 494.95,1486.45 494.95,1471.28 437.077,1471.28 "/>
<path clip-path="url(#clip102)" d="M494.95 1456.11 L494.95 1486.45 L552.824 1486.45 L552.824 1456.11 L494.95 1456.11 L494.95 1456.11  Z" fill="#009af9" fill-rule="evenodd" fill-opacity="1"/>
<polyline clip-path="url(#clip102)" style="stroke:#000000; stroke-linecap:round; stroke-linejoin:round; stroke-width:4; stroke-opacity:1; fill:none" points="494.95,1456.11 494.95,1486.45 552.824,1486.45 552.824,1456.11 494.95,1456.11 "/>
<path clip-path="url(#clip102)" d="M552.824 1456.11 L552.824 1486.45 L610.697 1486.45 L610.697 1456.11 L552.824 1456.11 L552.824 1456.11  Z" fill="#009af9" fill-rule="evenodd" fill-opacity="1"/>
<polyline clip-path="url(#clip102)" style="stroke:#000000; stroke-linecap:round; stroke-linejoin:round; stroke-width:4; stroke-opacity:1; fill:none" points="552.824,1456.11 552.824,1486.45 610.697,1486.45 610.697,1456.11 552.824,1456.11 "/>
<path clip-path="url(#clip102)" d="M610.697 1410.61 L610.697 1486.45 L668.57 1486.45 L668.57 1410.61 L610.697 1410.61 L610.697 1410.61  Z" fill="#009af9" fill-rule="evenodd" fill-opacity="1"/>
<polyline clip-path="url(#clip102)" style="stroke:#000000; stroke-linecap:round; stroke-linejoin:round; stroke-width:4; stroke-opacity:1; fill:none" points="610.697,1410.61 610.697,1486.45 668.57,1486.45 668.57,1410.61 610.697,1410.61 "/>
<path clip-path="url(#clip102)" d="M668.57 1425.78 L668.57 1486.45 L726.444 1486.45 L726.444 1425.78 L668.57 1425.78 L668.57 1425.78  Z" fill="#009af9" fill-rule="evenodd" fill-opacity="1"/>
<polyline clip-path="url(#clip102)" style="stroke:#000000; stroke-linecap:round; stroke-linejoin:round; stroke-width:4; stroke-opacity:1; fill:none" points="668.57,1425.78 668.57,1486.45 726.444,1486.45 726.444,1425.78 668.57,1425.78 "/>
<path clip-path="url(#clip102)" d="M726.444 1289.27 L726.444 1486.45 L784.317 1486.45 L784.317 1289.27 L726.444 1289.27 L726.444 1289.27  Z" fill="#009af9" fill-rule="evenodd" fill-opacity="1"/>
<polyline clip-path="url(#clip102)" style="stroke:#000000; stroke-linecap:round; stroke-linejoin:round; stroke-width:4; stroke-opacity:1; fill:none" points="726.444,1289.27 726.444,1486.45 784.317,1486.45 784.317,1289.27 726.444,1289.27 "/>
<path clip-path="url(#clip102)" d="M784.317 1289.27 L784.317 1486.45 L842.191 1486.45 L842.191 1289.27 L784.317 1289.27 L784.317 1289.27  Z" fill="#009af9" fill-rule="evenodd" fill-opacity="1"/>
<polyline clip-path="url(#clip102)" style="stroke:#000000; stroke-linecap:round; stroke-linejoin:round; stroke-width:4; stroke-opacity:1; fill:none" points="784.317,1289.27 784.317,1486.45 842.191,1486.45 842.191,1289.27 784.317,1289.27 "/>
<path clip-path="url(#clip102)" d="M842.191 1213.43 L842.191 1486.45 L900.064 1486.45 L900.064 1213.43 L842.191 1213.43 L842.191 1213.43  Z" fill="#009af9" fill-rule="evenodd" fill-opacity="1"/>
<polyline clip-path="url(#clip102)" style="stroke:#000000; stroke-linecap:round; stroke-linejoin:round; stroke-width:4; stroke-opacity:1; fill:none" points="842.191,1213.43 842.191,1486.45 900.064,1486.45 900.064,1213.43 842.191,1213.43 "/>
<path clip-path="url(#clip102)" d="M900.064 1046.59 L900.064 1486.45 L957.937 1486.45 L957.937 1046.59 L900.064 1046.59 L900.064 1046.59  Z" fill="#009af9" fill-rule="evenodd" fill-opacity="1"/>
<polyline clip-path="url(#clip102)" style="stroke:#000000; stroke-linecap:round; stroke-linejoin:round; stroke-width:4; stroke-opacity:1; fill:none" points="900.064,1046.59 900.064,1486.45 957.937,1486.45 957.937,1046.59 900.064,1046.59 "/>
<path clip-path="url(#clip102)" d="M957.937 910.077 L957.937 1486.45 L1015.81 1486.45 L1015.81 910.077 L957.937 910.077 L957.937 910.077  Z" fill="#009af9" fill-rule="evenodd" fill-opacity="1"/>
<polyline clip-path="url(#clip102)" style="stroke:#000000; stroke-linecap:round; stroke-linejoin:round; stroke-width:4; stroke-opacity:1; fill:none" points="957.937,910.077 957.937,1486.45 1015.81,1486.45 1015.81,910.077 957.937,910.077 "/>
<path clip-path="url(#clip102)" d="M1015.81 879.742 L1015.81 1486.45 L1073.68 1486.45 L1073.68 879.742 L1015.81 879.742 L1015.81 879.742  Z" fill="#009af9" fill-rule="evenodd" fill-opacity="1"/>
<polyline clip-path="url(#clip102)" style="stroke:#000000; stroke-linecap:round; stroke-linejoin:round; stroke-width:4; stroke-opacity:1; fill:none" points="1015.81,879.742 1015.81,1486.45 1073.68,1486.45 1073.68,879.742 1015.81,879.742 "/>
<path clip-path="url(#clip102)" d="M1073.68 561.221 L1073.68 1486.45 L1131.56 1486.45 L1131.56 561.221 L1073.68 561.221 L1073.68 561.221  Z" fill="#009af9" fill-rule="evenodd" fill-opacity="1"/>
<polyline clip-path="url(#clip102)" style="stroke:#000000; stroke-linecap:round; stroke-linejoin:round; stroke-width:4; stroke-opacity:1; fill:none" points="1073.68,561.221 1073.68,1486.45 1131.56,1486.45 1131.56,561.221 1073.68,561.221 "/>
<path clip-path="url(#clip102)" d="M1131.56 788.736 L1131.56 1486.45 L1189.43 1486.45 L1189.43 788.736 L1131.56 788.736 L1131.56 788.736  Z" fill="#009af9" fill-rule="evenodd" fill-opacity="1"/>
<polyline clip-path="url(#clip102)" style="stroke:#000000; stroke-linecap:round; stroke-linejoin:round; stroke-width:4; stroke-opacity:1; fill:none" points="1131.56,788.736 1131.56,1486.45 1189.43,1486.45 1189.43,788.736 1131.56,788.736 "/>
<path clip-path="url(#clip102)" d="M1189.43 333.707 L1189.43 1486.45 L1247.3 1486.45 L1247.3 333.707 L1189.43 333.707 L1189.43 333.707  Z" fill="#009af9" fill-rule="evenodd" fill-opacity="1"/>
<polyline clip-path="url(#clip102)" style="stroke:#000000; stroke-linecap:round; stroke-linejoin:round; stroke-width:4; stroke-opacity:1; fill:none" points="1189.43,333.707 1189.43,1486.45 1247.3,1486.45 1247.3,333.707 1189.43,333.707 "/>
<path clip-path="url(#clip102)" d="M1247.3 333.707 L1247.3 1486.45 L1305.18 1486.45 L1305.18 333.707 L1247.3 333.707 L1247.3 333.707  Z" fill="#009af9" fill-rule="evenodd" fill-opacity="1"/>
<polyline clip-path="url(#clip102)" style="stroke:#000000; stroke-linecap:round; stroke-linejoin:round; stroke-width:4; stroke-opacity:1; fill:none" points="1247.3,333.707 1247.3,1486.45 1305.18,1486.45 1305.18,333.707 1247.3,333.707 "/>
<path clip-path="url(#clip102)" d="M1305.18 212.366 L1305.18 1486.45 L1363.05 1486.45 L1363.05 212.366 L1305.18 212.366 L1305.18 212.366  Z" fill="#009af9" fill-rule="evenodd" fill-opacity="1"/>
<polyline clip-path="url(#clip102)" style="stroke:#000000; stroke-linecap:round; stroke-linejoin:round; stroke-width:4; stroke-opacity:1; fill:none" points="1305.18,212.366 1305.18,1486.45 1363.05,1486.45 1363.05,212.366 1305.18,212.366 "/>
<path clip-path="url(#clip102)" d="M1363.05 106.192 L1363.05 1486.45 L1420.92 1486.45 L1420.92 106.192 L1363.05 106.192 L1363.05 106.192  Z" fill="#009af9" fill-rule="evenodd" fill-opacity="1"/>
<polyline clip-path="url(#clip102)" style="stroke:#000000; stroke-linecap:round; stroke-linejoin:round; stroke-width:4; stroke-opacity:1; fill:none" points="1363.05,106.192 1363.05,1486.45 1420.92,1486.45 1420.92,106.192 1363.05,106.192 "/>
<path clip-path="url(#clip102)" d="M1420.92 424.713 L1420.92 1486.45 L1478.8 1486.45 L1478.8 424.713 L1420.92 424.713 L1420.92 424.713  Z" fill="#009af9" fill-rule="evenodd" fill-opacity="1"/>
<polyline clip-path="url(#clip102)" style="stroke:#000000; stroke-linecap:round; stroke-linejoin:round; stroke-width:4; stroke-opacity:1; fill:none" points="1420.92,424.713 1420.92,1486.45 1478.8,1486.45 1478.8,424.713 1420.92,424.713 "/>
<path clip-path="url(#clip102)" d="M1478.8 515.719 L1478.8 1486.45 L1536.67 1486.45 L1536.67 515.719 L1478.8 515.719 L1478.8 515.719  Z" fill="#009af9" fill-rule="evenodd" fill-opacity="1"/>
<polyline clip-path="url(#clip102)" style="stroke:#000000; stroke-linecap:round; stroke-linejoin:round; stroke-width:4; stroke-opacity:1; fill:none" points="1478.8,515.719 1478.8,1486.45 1536.67,1486.45 1536.67,515.719 1478.8,515.719 "/>
<path clip-path="url(#clip102)" d="M1536.67 439.88 L1536.67 1486.45 L1594.54 1486.45 L1594.54 439.88 L1536.67 439.88 L1536.67 439.88  Z" fill="#009af9" fill-rule="evenodd" fill-opacity="1"/>
<polyline clip-path="url(#clip102)" style="stroke:#000000; stroke-linecap:round; stroke-linejoin:round; stroke-width:4; stroke-opacity:1; fill:none" points="1536.67,439.88 1536.67,1486.45 1594.54,1486.45 1594.54,439.88 1536.67,439.88 "/>
<path clip-path="url(#clip102)" d="M1594.54 819.071 L1594.54 1486.45 L1652.42 1486.45 L1652.42 819.071 L1594.54 819.071 L1594.54 819.071  Z" fill="#009af9" fill-rule="evenodd" fill-opacity="1"/>
<polyline clip-path="url(#clip102)" style="stroke:#000000; stroke-linecap:round; stroke-linejoin:round; stroke-width:4; stroke-opacity:1; fill:none" points="1594.54,819.071 1594.54,1486.45 1652.42,1486.45 1652.42,819.071 1594.54,819.071 "/>
<path clip-path="url(#clip102)" d="M1652.42 864.574 L1652.42 1486.45 L1710.29 1486.45 L1710.29 864.574 L1652.42 864.574 L1652.42 864.574  Z" fill="#009af9" fill-rule="evenodd" fill-opacity="1"/>
<polyline clip-path="url(#clip102)" style="stroke:#000000; stroke-linecap:round; stroke-linejoin:round; stroke-width:4; stroke-opacity:1; fill:none" points="1652.42,864.574 1652.42,1486.45 1710.29,1486.45 1710.29,864.574 1652.42,864.574 "/>
<path clip-path="url(#clip102)" d="M1710.29 864.574 L1710.29 1486.45 L1768.17 1486.45 L1768.17 864.574 L1710.29 864.574 L1710.29 864.574  Z" fill="#009af9" fill-rule="evenodd" fill-opacity="1"/>
<polyline clip-path="url(#clip102)" style="stroke:#000000; stroke-linecap:round; stroke-linejoin:round; stroke-width:4; stroke-opacity:1; fill:none" points="1710.29,864.574 1710.29,1486.45 1768.17,1486.45 1768.17,864.574 1710.29,864.574 "/>
<path clip-path="url(#clip102)" d="M1768.17 1107.26 L1768.17 1486.45 L1826.04 1486.45 L1826.04 1107.26 L1768.17 1107.26 L1768.17 1107.26  Z" fill="#009af9" fill-rule="evenodd" fill-opacity="1"/>
<polyline clip-path="url(#clip102)" style="stroke:#000000; stroke-linecap:round; stroke-linejoin:round; stroke-width:4; stroke-opacity:1; fill:none" points="1768.17,1107.26 1768.17,1486.45 1826.04,1486.45 1826.04,1107.26 1768.17,1107.26 "/>
<path clip-path="url(#clip102)" d="M1826.04 1183.09 L1826.04 1486.45 L1883.91 1486.45 L1883.91 1183.09 L1826.04 1183.09 L1826.04 1183.09  Z" fill="#009af9" fill-rule="evenodd" fill-opacity="1"/>
<polyline clip-path="url(#clip102)" style="stroke:#000000; stroke-linecap:round; stroke-linejoin:round; stroke-width:4; stroke-opacity:1; fill:none" points="1826.04,1183.09 1826.04,1486.45 1883.91,1486.45 1883.91,1183.09 1826.04,1183.09 "/>
<path clip-path="url(#clip102)" d="M1883.91 1167.93 L1883.91 1486.45 L1941.79 1486.45 L1941.79 1167.93 L1883.91 1167.93 L1883.91 1167.93  Z" fill="#009af9" fill-rule="evenodd" fill-opacity="1"/>
<polyline clip-path="url(#clip102)" style="stroke:#000000; stroke-linecap:round; stroke-linejoin:round; stroke-width:4; stroke-opacity:1; fill:none" points="1883.91,1167.93 1883.91,1486.45 1941.79,1486.45 1941.79,1167.93 1883.91,1167.93 "/>
<path clip-path="url(#clip102)" d="M1941.79 1304.44 L1941.79 1486.45 L1999.66 1486.45 L1999.66 1304.44 L1941.79 1304.44 L1941.79 1304.44  Z" fill="#009af9" fill-rule="evenodd" fill-opacity="1"/>
<polyline clip-path="url(#clip102)" style="stroke:#000000; stroke-linecap:round; stroke-linejoin:round; stroke-width:4; stroke-opacity:1; fill:none" points="1941.79,1304.44 1941.79,1486.45 1999.66,1486.45 1999.66,1304.44 1941.79,1304.44 "/>
<path clip-path="url(#clip102)" d="M1999.66 1380.27 L1999.66 1486.45 L2057.53 1486.45 L2057.53 1380.27 L1999.66 1380.27 L1999.66 1380.27  Z" fill="#009af9" fill-rule="evenodd" fill-opacity="1"/>
<polyline clip-path="url(#clip102)" style="stroke:#000000; stroke-linecap:round; stroke-linejoin:round; stroke-width:4; stroke-opacity:1; fill:none" points="1999.66,1380.27 1999.66,1486.45 2057.53,1486.45 2057.53,1380.27 1999.66,1380.27 "/>
<path clip-path="url(#clip102)" d="M2057.53 1410.61 L2057.53 1486.45 L2115.41 1486.45 L2115.41 1410.61 L2057.53 1410.61 L2057.53 1410.61  Z" fill="#009af9" fill-rule="evenodd" fill-opacity="1"/>
<polyline clip-path="url(#clip102)" style="stroke:#000000; stroke-linecap:round; stroke-linejoin:round; stroke-width:4; stroke-opacity:1; fill:none" points="2057.53,1410.61 2057.53,1486.45 2115.41,1486.45 2115.41,1410.61 2057.53,1410.61 "/>
<path clip-path="url(#clip102)" d="M2115.41 1486.45 L2115.41 1486.45 L2173.28 1486.45 L2173.28 1486.45 L2115.41 1486.45 L2115.41 1486.45  Z" fill="#009af9" fill-rule="evenodd" fill-opacity="1"/>
<polyline clip-path="url(#clip102)" style="stroke:#000000; stroke-linecap:round; stroke-linejoin:round; stroke-width:4; stroke-opacity:1; fill:none" points="2115.41,1486.45 2115.41,1486.45 2173.28,1486.45 2115.41,1486.45 "/>
<path clip-path="url(#clip102)" d="M2173.28 1425.78 L2173.28 1486.45 L2231.15 1486.45 L2231.15 1425.78 L2173.28 1425.78 L2173.28 1425.78  Z" fill="#009af9" fill-rule="evenodd" fill-opacity="1"/>
<polyline clip-path="url(#clip102)" style="stroke:#000000; stroke-linecap:round; stroke-linejoin:round; stroke-width:4; stroke-opacity:1; fill:none" points="2173.28,1425.78 2173.28,1486.45 2231.15,1486.45 2231.15,1425.78 2173.28,1425.78 "/>
<circle clip-path="url(#clip102)" style="fill:#009af9; stroke:none; fill-opacity:0" cx="292.393" cy="1471.28" r="2"/>
<circle clip-path="url(#clip102)" style="fill:#009af9; stroke:none; fill-opacity:0" cx="350.267" cy="1486.45" r="2"/>
<circle clip-path="url(#clip102)" style="fill:#009af9; stroke:none; fill-opacity:0" cx="408.14" cy="1471.28" r="2"/>
<circle clip-path="url(#clip102)" style="fill:#009af9; stroke:none; fill-opacity:0" cx="466.013" cy="1471.28" r="2"/>
<circle clip-path="url(#clip102)" style="fill:#009af9; stroke:none; fill-opacity:0" cx="523.887" cy="1456.11" r="2"/>
<circle clip-path="url(#clip102)" style="fill:#009af9; stroke:none; fill-opacity:0" cx="581.76" cy="1456.11" r="2"/>
<circle clip-path="url(#clip102)" style="fill:#009af9; stroke:none; fill-opacity:0" cx="639.634" cy="1410.61" r="2"/>
<circle clip-path="url(#clip102)" style="fill:#009af9; stroke:none; fill-opacity:0" cx="697.507" cy="1425.78" r="2"/>
<circle clip-path="url(#clip102)" style="fill:#009af9; stroke:none; fill-opacity:0" cx="755.38" cy="1289.27" r="2"/>
<circle clip-path="url(#clip102)" style="fill:#009af9; stroke:none; fill-opacity:0" cx="813.254" cy="1289.27" r="2"/>
<circle clip-path="url(#clip102)" style="fill:#009af9; stroke:none; fill-opacity:0" cx="871.127" cy="1213.43" r="2"/>
<circle clip-path="url(#clip102)" style="fill:#009af9; stroke:none; fill-opacity:0" cx="929.001" cy="1046.59" r="2"/>
<circle clip-path="url(#clip102)" style="fill:#009af9; stroke:none; fill-opacity:0" cx="986.874" cy="910.077" r="2"/>
<circle clip-path="url(#clip102)" style="fill:#009af9; stroke:none; fill-opacity:0" cx="1044.75" cy="879.742" r="2"/>
<circle clip-path="url(#clip102)" style="fill:#009af9; stroke:none; fill-opacity:0" cx="1102.62" cy="561.221" r="2"/>
<circle clip-path="url(#clip102)" style="fill:#009af9; stroke:none; fill-opacity:0" cx="1160.49" cy="788.736" r="2"/>
<circle clip-path="url(#clip102)" style="fill:#009af9; stroke:none; fill-opacity:0" cx="1218.37" cy="333.707" r="2"/>
<circle clip-path="url(#clip102)" style="fill:#009af9; stroke:none; fill-opacity:0" cx="1276.24" cy="333.707" r="2"/>
<circle clip-path="url(#clip102)" style="fill:#009af9; stroke:none; fill-opacity:0" cx="1334.11" cy="212.366" r="2"/>
<circle clip-path="url(#clip102)" style="fill:#009af9; stroke:none; fill-opacity:0" cx="1391.99" cy="106.192" r="2"/>
<circle clip-path="url(#clip102)" style="fill:#009af9; stroke:none; fill-opacity:0" cx="1449.86" cy="424.713" r="2"/>
<circle clip-path="url(#clip102)" style="fill:#009af9; stroke:none; fill-opacity:0" cx="1507.73" cy="515.719" r="2"/>
<circle clip-path="url(#clip102)" style="fill:#009af9; stroke:none; fill-opacity:0" cx="1565.61" cy="439.88" r="2"/>
<circle clip-path="url(#clip102)" style="fill:#009af9; stroke:none; fill-opacity:0" cx="1623.48" cy="819.071" r="2"/>
<circle clip-path="url(#clip102)" style="fill:#009af9; stroke:none; fill-opacity:0" cx="1681.35" cy="864.574" r="2"/>
<circle clip-path="url(#clip102)" style="fill:#009af9; stroke:none; fill-opacity:0" cx="1739.23" cy="864.574" r="2"/>
<circle clip-path="url(#clip102)" style="fill:#009af9; stroke:none; fill-opacity:0" cx="1797.1" cy="1107.26" r="2"/>
<circle clip-path="url(#clip102)" style="fill:#009af9; stroke:none; fill-opacity:0" cx="1854.98" cy="1183.09" r="2"/>
<circle clip-path="url(#clip102)" style="fill:#009af9; stroke:none; fill-opacity:0" cx="1912.85" cy="1167.93" r="2"/>
<circle clip-path="url(#clip102)" style="fill:#009af9; stroke:none; fill-opacity:0" cx="1970.72" cy="1304.44" r="2"/>
<circle clip-path="url(#clip102)" style="fill:#009af9; stroke:none; fill-opacity:0" cx="2028.6" cy="1380.27" r="2"/>
<circle clip-path="url(#clip102)" style="fill:#009af9; stroke:none; fill-opacity:0" cx="2086.47" cy="1410.61" r="2"/>
<circle clip-path="url(#clip102)" style="fill:#009af9; stroke:none; fill-opacity:0" cx="2144.34" cy="1486.45" r="2"/>
<circle clip-path="url(#clip102)" style="fill:#009af9; stroke:none; fill-opacity:0" cx="2202.22" cy="1425.78" r="2"/>
<path clip-path="url(#clip100)" d="M2005.54 255.881 L2279.06 255.881 L2279.06 152.201 L2005.54 152.201  Z" fill="#ffffff" fill-rule="evenodd" fill-opacity="1"/>
<polyline clip-path="url(#clip100)" style="stroke:#000000; stroke-linecap:round; stroke-linejoin:round; stroke-width:4; stroke-opacity:1; fill:none" points="2005.54,255.881 2279.06,255.881 2279.06,152.201 2005.54,152.201 2005.54,255.881 "/>
<path clip-path="url(#clip100)" d="M2030.1 224.777 L2177.5 224.777 L2177.5 183.305 L2030.1 183.305 L2030.1 224.777  Z" fill="#009af9" fill-rule="evenodd" fill-opacity="1"/>
<polyline clip-path="url(#clip100)" style="stroke:#000000; stroke-linecap:round; stroke-linejoin:round; stroke-width:4; stroke-opacity:1; fill:none" points="2030.1,224.777 2177.5,224.777 2177.5,183.305 2030.1,183.305 2030.1,224.777 "/>
<path clip-path="url(#clip100)" d="M2215.91 223.728 Q2214.1 228.358 2212.39 229.77 Q2210.67 231.182 2207.8 231.182 L2204.4 231.182 L2204.4 227.617 L2206.9 227.617 Q2208.66 227.617 2209.63 226.784 Q2210.6 225.95 2211.79 222.848 L2212.55 220.904 L2202.06 195.395 L2206.58 195.395 L2214.68 215.673 L2222.78 195.395 L2227.29 195.395 L2215.91 223.728 Z" fill="#000000" fill-rule="nonzero" fill-opacity="1" /><path clip-path="url(#clip100)" d="M2234.59 217.385 L2242.23 217.385 L2242.23 191.02 L2233.91 192.687 L2233.91 188.427 L2242.18 186.761 L2246.85 186.761 L2246.85 217.385 L2254.49 217.385 L2254.49 221.321 L2234.59 221.321 L2234.59 217.385 Z" fill="#000000" fill-rule="nonzero" fill-opacity="1" /></svg>
