<?xml version="1.0" encoding="utf-8"?>
<svg xmlns="http://www.w3.org/2000/svg" xmlns:xlink="http://www.w3.org/1999/xlink" width="600" height="400" viewBox="0 0 2400 1600">
<defs>
  <clipPath id="clip870">
    <rect x="0" y="0" width="2400" height="1600"/>
  </clipPath>
</defs>
<path clip-path="url(#clip870)" d="M0 1600 L2400 1600 L2400 0 L0 0  Z" fill="#ffffff" fill-rule="evenodd" fill-opacity="1"/>
<defs>
  <clipPath id="clip871">
    <rect x="480" y="0" width="1681" height="1600"/>
  </clipPath>
</defs>
<path clip-path="url(#clip870)" d="M147.478 1486.45 L2352.76 1486.45 L2352.76 106.192 L147.478 106.192  Z" fill="#ffffff" fill-rule="evenodd" fill-opacity="1"/>
<defs>
  <clipPath id="clip872">
    <rect x="147" y="106" width="2206" height="1381"/>
  </clipPath>
</defs>
<polyline clip-path="url(#clip872)" style="stroke:#000000; stroke-linecap:round; stroke-linejoin:round; stroke-width:2; stroke-opacity:0.1; fill:none" points="209.891,1486.45 209.891,106.192 "/>
<polyline clip-path="url(#clip872)" style="stroke:#000000; stroke-linecap:round; stroke-linejoin:round; stroke-width:2; stroke-opacity:0.1; fill:none" points="730.004,1486.45 730.004,106.192 "/>
<polyline clip-path="url(#clip872)" style="stroke:#000000; stroke-linecap:round; stroke-linejoin:round; stroke-width:2; stroke-opacity:0.1; fill:none" points="1250.12,1486.45 1250.12,106.192 "/>
<polyline clip-path="url(#clip872)" style="stroke:#000000; stroke-linecap:round; stroke-linejoin:round; stroke-width:2; stroke-opacity:0.1; fill:none" points="1770.23,1486.45 1770.23,106.192 "/>
<polyline clip-path="url(#clip872)" style="stroke:#000000; stroke-linecap:round; stroke-linejoin:round; stroke-width:2; stroke-opacity:0.1; fill:none" points="2290.34,1486.45 2290.34,106.192 "/>
<polyline clip-path="url(#clip870)" style="stroke:#000000; stroke-linecap:round; stroke-linejoin:round; stroke-width:4; stroke-opacity:1; fill:none" points="147.478,1486.45 2352.76,1486.45 "/>
<polyline clip-path="url(#clip870)" style="stroke:#000000; stroke-linecap:round; stroke-linejoin:round; stroke-width:4; stroke-opacity:1; fill:none" points="209.891,1486.45 209.891,1467.55 "/>
<polyline clip-path="url(#clip870)" style="stroke:#000000; stroke-linecap:round; stroke-linejoin:round; stroke-width:4; stroke-opacity:1; fill:none" points="730.004,1486.45 730.004,1467.55 "/>
<polyline clip-path="url(#clip870)" style="stroke:#000000; stroke-linecap:round; stroke-linejoin:round; stroke-width:4; stroke-opacity:1; fill:none" points="1250.12,1486.45 1250.12,1467.55 "/>
<polyline clip-path="url(#clip870)" style="stroke:#000000; stroke-linecap:round; stroke-linejoin:round; stroke-width:4; stroke-opacity:1; fill:none" points="1770.23,1486.45 1770.23,1467.55 "/>
<polyline clip-path="url(#clip870)" style="stroke:#000000; stroke-linecap:round; stroke-linejoin:round; stroke-width:4; stroke-opacity:1; fill:none" points="2290.34,1486.45 2290.34,1467.55 "/>
<path clip-path="url(#clip870)" d="M172.195 1517.37 Q168.584 1517.37 166.755 1520.93 Q164.95 1524.47 164.95 1531.6 Q164.95 1538.71 166.755 1542.27 Q168.584 1545.82 172.195 1545.82 Q175.829 1545.82 177.635 1542.27 Q179.463 1538.71 179.463 1531.6 Q179.463 1524.47 177.635 1520.93 Q175.829 1517.37 172.195 1517.37 M172.195 1513.66 Q178.005 1513.66 181.061 1518.27 Q184.139 1522.85 184.139 1531.6 Q184.139 1540.33 181.061 1544.94 Q178.005 1549.52 172.195 1549.52 Q166.385 1549.52 163.306 1544.94 Q160.251 1540.33 160.251 1531.6 Q160.251 1522.85 163.306 1518.27 Q166.385 1513.66 172.195 1513.66 Z" fill="#000000" fill-rule="nonzero" fill-opacity="1" /><path clip-path="url(#clip870)" d="M192.357 1542.97 L197.241 1542.97 L197.241 1548.85 L192.357 1548.85 L192.357 1542.97 Z" fill="#000000" fill-rule="nonzero" fill-opacity="1" /><path clip-path="url(#clip870)" d="M217.426 1517.37 Q213.815 1517.37 211.986 1520.93 Q210.181 1524.47 210.181 1531.6 Q210.181 1538.71 211.986 1542.27 Q213.815 1545.82 217.426 1545.82 Q221.06 1545.82 222.866 1542.27 Q224.695 1538.71 224.695 1531.6 Q224.695 1524.47 222.866 1520.93 Q221.06 1517.37 217.426 1517.37 M217.426 1513.66 Q223.236 1513.66 226.292 1518.27 Q229.371 1522.85 229.371 1531.6 Q229.371 1540.33 226.292 1544.94 Q223.236 1549.52 217.426 1549.52 Q211.616 1549.52 208.537 1544.94 Q205.482 1540.33 205.482 1531.6 Q205.482 1522.85 208.537 1518.27 Q211.616 1513.66 217.426 1513.66 Z" fill="#000000" fill-rule="nonzero" fill-opacity="1" /><path clip-path="url(#clip870)" d="M247.588 1517.37 Q243.977 1517.37 242.148 1520.93 Q240.343 1524.47 240.343 1531.6 Q240.343 1538.71 242.148 1542.27 Q243.977 1545.82 247.588 1545.82 Q251.222 1545.82 253.028 1542.27 Q254.856 1538.71 254.856 1531.6 Q254.856 1524.47 253.028 1520.93 Q251.222 1517.37 247.588 1517.37 M247.588 1513.66 Q253.398 1513.66 256.454 1518.27 Q259.532 1522.85 259.532 1531.6 Q259.532 1540.33 256.454 1544.94 Q253.398 1549.52 247.588 1549.52 Q241.778 1549.52 238.699 1544.94 Q235.644 1540.33 235.644 1531.6 Q235.644 1522.85 238.699 1518.27 Q241.778 1513.66 247.588 1513.66 Z" fill="#000000" fill-rule="nonzero" fill-opacity="1" /><path clip-path="url(#clip870)" d="M692.805 1517.37 Q689.194 1517.37 687.366 1520.93 Q685.56 1524.47 685.56 1531.6 Q685.56 1538.71 687.366 1542.27 Q689.194 1545.82 692.805 1545.82 Q696.44 1545.82 698.245 1542.27 Q700.074 1538.71 700.074 1531.6 Q700.074 1524.47 698.245 1520.93 Q696.44 1517.37 692.805 1517.37 M692.805 1513.66 Q698.615 1513.66 701.671 1518.27 Q704.75 1522.85 704.75 1531.6 Q704.75 1540.33 701.671 1544.94 Q698.615 1549.52 692.805 1549.52 Q686.995 1549.52 683.916 1544.94 Q680.861 1540.33 680.861 1531.6 Q680.861 1522.85 683.916 1518.27 Q686.995 1513.66 692.805 1513.66 Z" fill="#000000" fill-rule="nonzero" fill-opacity="1" /><path clip-path="url(#clip870)" d="M712.967 1542.97 L717.851 1542.97 L717.851 1548.85 L712.967 1548.85 L712.967 1542.97 Z" fill="#000000" fill-rule="nonzero" fill-opacity="1" /><path clip-path="url(#clip870)" d="M732.064 1544.91 L748.384 1544.91 L748.384 1548.85 L726.439 1548.85 L726.439 1544.91 Q729.101 1542.16 733.685 1537.53 Q738.291 1532.88 739.472 1531.53 Q741.717 1529.01 742.597 1527.27 Q743.499 1525.51 743.499 1523.82 Q743.499 1521.07 741.555 1519.33 Q739.634 1517.6 736.532 1517.6 Q734.333 1517.6 731.879 1518.36 Q729.449 1519.13 726.671 1520.68 L726.671 1515.95 Q729.495 1514.82 731.949 1514.24 Q734.402 1513.66 736.439 1513.66 Q741.81 1513.66 745.004 1516.35 Q748.199 1519.03 748.199 1523.52 Q748.199 1525.65 747.388 1527.57 Q746.601 1529.47 744.495 1532.07 Q743.916 1532.74 740.814 1535.95 Q737.712 1539.15 732.064 1544.91 Z" fill="#000000" fill-rule="nonzero" fill-opacity="1" /><path clip-path="url(#clip870)" d="M758.245 1514.29 L776.601 1514.29 L776.601 1518.22 L762.527 1518.22 L762.527 1526.7 Q763.546 1526.35 764.564 1526.19 Q765.583 1526 766.601 1526 Q772.388 1526 775.768 1529.17 Q779.147 1532.34 779.147 1537.76 Q779.147 1543.34 775.675 1546.44 Q772.203 1549.52 765.884 1549.52 Q763.708 1549.52 761.439 1549.15 Q759.194 1548.78 756.786 1548.04 L756.786 1543.34 Q758.87 1544.47 761.092 1545.03 Q763.314 1545.58 765.791 1545.58 Q769.796 1545.58 772.134 1543.48 Q774.472 1541.37 774.472 1537.76 Q774.472 1534.15 772.134 1532.04 Q769.796 1529.94 765.791 1529.94 Q763.916 1529.94 762.041 1530.35 Q760.189 1530.77 758.245 1531.65 L758.245 1514.29 Z" fill="#000000" fill-rule="nonzero" fill-opacity="1" /><path clip-path="url(#clip870)" d="M1212.42 1517.37 Q1208.81 1517.37 1206.98 1520.93 Q1205.18 1524.47 1205.18 1531.6 Q1205.18 1538.71 1206.98 1542.27 Q1208.81 1545.82 1212.42 1545.82 Q1216.05 1545.82 1217.86 1542.27 Q1219.69 1538.71 1219.69 1531.6 Q1219.69 1524.47 1217.86 1520.93 Q1216.05 1517.37 1212.42 1517.37 M1212.42 1513.66 Q1218.23 1513.66 1221.29 1518.27 Q1224.36 1522.85 1224.36 1531.6 Q1224.36 1540.33 1221.29 1544.94 Q1218.23 1549.52 1212.42 1549.52 Q1206.61 1549.52 1203.53 1544.94 Q1200.48 1540.33 1200.48 1531.6 Q1200.48 1522.85 1203.53 1518.27 Q1206.61 1513.66 1212.42 1513.66 Z" fill="#000000" fill-rule="nonzero" fill-opacity="1" /><path clip-path="url(#clip870)" d="M1232.58 1542.97 L1237.47 1542.97 L1237.47 1548.85 L1232.58 1548.85 L1232.58 1542.97 Z" fill="#000000" fill-rule="nonzero" fill-opacity="1" /><path clip-path="url(#clip870)" d="M1247.7 1514.29 L1266.05 1514.29 L1266.05 1518.22 L1251.98 1518.22 L1251.98 1526.7 Q1253 1526.35 1254.02 1526.19 Q1255.04 1526 1256.05 1526 Q1261.84 1526 1265.22 1529.17 Q1268.6 1532.34 1268.6 1537.76 Q1268.6 1543.34 1265.13 1546.44 Q1261.66 1549.52 1255.34 1549.52 Q1253.16 1549.52 1250.89 1549.15 Q1248.65 1548.78 1246.24 1548.04 L1246.24 1543.34 Q1248.32 1544.47 1250.55 1545.03 Q1252.77 1545.58 1255.24 1545.58 Q1259.25 1545.58 1261.59 1543.48 Q1263.92 1541.37 1263.92 1537.76 Q1263.92 1534.15 1261.59 1532.04 Q1259.25 1529.94 1255.24 1529.94 Q1253.37 1529.94 1251.49 1530.35 Q1249.64 1530.77 1247.7 1531.65 L1247.7 1514.29 Z" fill="#000000" fill-rule="nonzero" fill-opacity="1" /><path clip-path="url(#clip870)" d="M1287.81 1517.37 Q1284.2 1517.37 1282.37 1520.93 Q1280.57 1524.47 1280.57 1531.6 Q1280.57 1538.71 1282.37 1542.27 Q1284.2 1545.82 1287.81 1545.82 Q1291.45 1545.82 1293.25 1542.27 Q1295.08 1538.71 1295.08 1531.6 Q1295.08 1524.47 1293.25 1520.93 Q1291.45 1517.37 1287.81 1517.37 M1287.81 1513.66 Q1293.62 1513.66 1296.68 1518.27 Q1299.76 1522.85 1299.76 1531.6 Q1299.76 1540.33 1296.68 1544.94 Q1293.62 1549.52 1287.81 1549.52 Q1282 1549.52 1278.92 1544.94 Q1275.87 1540.33 1275.87 1531.6 Q1275.87 1522.85 1278.92 1518.27 Q1282 1513.66 1287.81 1513.66 Z" fill="#000000" fill-rule="nonzero" fill-opacity="1" /><path clip-path="url(#clip870)" d="M1733.03 1517.37 Q1729.42 1517.37 1727.59 1520.93 Q1725.79 1524.47 1725.79 1531.6 Q1725.79 1538.71 1727.59 1542.27 Q1729.42 1545.82 1733.03 1545.82 Q1736.67 1545.82 1738.47 1542.27 Q1740.3 1538.71 1740.3 1531.6 Q1740.3 1524.47 1738.47 1520.93 Q1736.67 1517.37 1733.03 1517.37 M1733.03 1513.66 Q1738.84 1513.66 1741.9 1518.27 Q1744.98 1522.85 1744.98 1531.6 Q1744.98 1540.33 1741.9 1544.94 Q1738.84 1549.52 1733.03 1549.52 Q1727.22 1549.52 1724.14 1544.94 Q1721.09 1540.33 1721.09 1531.6 Q1721.09 1522.85 1724.14 1518.27 Q1727.22 1513.66 1733.03 1513.66 Z" fill="#000000" fill-rule="nonzero" fill-opacity="1" /><path clip-path="url(#clip870)" d="M1753.19 1542.97 L1758.08 1542.97 L1758.08 1548.85 L1753.19 1548.85 L1753.19 1542.97 Z" fill="#000000" fill-rule="nonzero" fill-opacity="1" /><path clip-path="url(#clip870)" d="M1767.08 1514.29 L1789.3 1514.29 L1789.3 1516.28 L1776.76 1548.85 L1771.87 1548.85 L1783.68 1518.22 L1767.08 1518.22 L1767.08 1514.29 Z" fill="#000000" fill-rule="nonzero" fill-opacity="1" /><path clip-path="url(#clip870)" d="M1798.47 1514.29 L1816.83 1514.29 L1816.83 1518.22 L1802.75 1518.22 L1802.75 1526.7 Q1803.77 1526.35 1804.79 1526.19 Q1805.81 1526 1806.83 1526 Q1812.61 1526 1815.99 1529.17 Q1819.37 1532.34 1819.37 1537.76 Q1819.37 1543.34 1815.9 1546.44 Q1812.43 1549.52 1806.11 1549.52 Q1803.93 1549.52 1801.66 1549.15 Q1799.42 1548.78 1797.01 1548.04 L1797.01 1543.34 Q1799.1 1544.47 1801.32 1545.03 Q1803.54 1545.58 1806.02 1545.58 Q1810.02 1545.58 1812.36 1543.48 Q1814.7 1541.37 1814.7 1537.76 Q1814.7 1534.15 1812.36 1532.04 Q1810.02 1529.94 1806.02 1529.94 Q1804.14 1529.94 1802.27 1530.35 Q1800.41 1530.77 1798.47 1531.65 L1798.47 1514.29 Z" fill="#000000" fill-rule="nonzero" fill-opacity="1" /><path clip-path="url(#clip870)" d="M2242.41 1544.91 L2250.05 1544.91 L2250.05 1518.55 L2241.74 1520.21 L2241.74 1515.95 L2250.01 1514.29 L2254.68 1514.29 L2254.68 1544.91 L2262.32 1544.91 L2262.32 1548.85 L2242.41 1548.85 L2242.41 1544.91 Z" fill="#000000" fill-rule="nonzero" fill-opacity="1" /><path clip-path="url(#clip870)" d="M2271.77 1542.97 L2276.65 1542.97 L2276.65 1548.85 L2271.77 1548.85 L2271.77 1542.97 Z" fill="#000000" fill-rule="nonzero" fill-opacity="1" /><path clip-path="url(#clip870)" d="M2296.84 1517.37 Q2293.22 1517.37 2291.4 1520.93 Q2289.59 1524.47 2289.59 1531.6 Q2289.59 1538.71 2291.4 1542.27 Q2293.22 1545.82 2296.84 1545.82 Q2300.47 1545.82 2302.28 1542.27 Q2304.1 1538.71 2304.1 1531.6 Q2304.1 1524.47 2302.28 1520.93 Q2300.47 1517.37 2296.84 1517.37 M2296.84 1513.66 Q2302.65 1513.66 2305.7 1518.27 Q2308.78 1522.85 2308.78 1531.6 Q2308.78 1540.33 2305.7 1544.94 Q2302.65 1549.52 2296.84 1549.52 Q2291.03 1549.52 2287.95 1544.94 Q2284.89 1540.33 2284.89 1531.6 Q2284.89 1522.85 2287.95 1518.27 Q2291.03 1513.66 2296.84 1513.66 Z" fill="#000000" fill-rule="nonzero" fill-opacity="1" /><path clip-path="url(#clip870)" d="M2327 1517.37 Q2323.39 1517.37 2321.56 1520.93 Q2319.75 1524.47 2319.75 1531.6 Q2319.75 1538.71 2321.56 1542.27 Q2323.39 1545.82 2327 1545.82 Q2330.63 1545.82 2332.44 1542.27 Q2334.27 1538.71 2334.27 1531.6 Q2334.27 1524.47 2332.44 1520.93 Q2330.63 1517.37 2327 1517.37 M2327 1513.66 Q2332.81 1513.66 2335.86 1518.27 Q2338.94 1522.85 2338.94 1531.6 Q2338.94 1540.33 2335.86 1544.94 Q2332.81 1549.52 2327 1549.52 Q2321.19 1549.52 2318.11 1544.94 Q2315.05 1540.33 2315.05 1531.6 Q2315.05 1522.85 2318.11 1518.27 Q2321.19 1513.66 2327 1513.66 Z" fill="#000000" fill-rule="nonzero" fill-opacity="1" /><polyline clip-path="url(#clip872)" style="stroke:#000000; stroke-linecap:round; stroke-linejoin:round; stroke-width:2; stroke-opacity:0.1; fill:none" points="147.478,1364.57 2352.76,1364.57 "/>
<polyline clip-path="url(#clip872)" style="stroke:#000000; stroke-linecap:round; stroke-linejoin:round; stroke-width:2; stroke-opacity:0.1; fill:none" points="147.478,972.71 2352.76,972.71 "/>
<polyline clip-path="url(#clip872)" style="stroke:#000000; stroke-linecap:round; stroke-linejoin:round; stroke-width:2; stroke-opacity:0.1; fill:none" points="147.478,580.849 2352.76,580.849 "/>
<polyline clip-path="url(#clip872)" style="stroke:#000000; stroke-linecap:round; stroke-linejoin:round; stroke-width:2; stroke-opacity:0.1; fill:none" points="147.478,188.989 2352.76,188.989 "/>
<polyline clip-path="url(#clip870)" style="stroke:#000000; stroke-linecap:round; stroke-linejoin:round; stroke-width:4; stroke-opacity:1; fill:none" points="147.478,1486.45 147.478,106.192 "/>
<polyline clip-path="url(#clip870)" style="stroke:#000000; stroke-linecap:round; stroke-linejoin:round; stroke-width:4; stroke-opacity:1; fill:none" points="147.478,1364.57 166.376,1364.57 "/>
<polyline clip-path="url(#clip870)" style="stroke:#000000; stroke-linecap:round; stroke-linejoin:round; stroke-width:4; stroke-opacity:1; fill:none" points="147.478,972.71 166.376,972.71 "/>
<polyline clip-path="url(#clip870)" style="stroke:#000000; stroke-linecap:round; stroke-linejoin:round; stroke-width:4; stroke-opacity:1; fill:none" points="147.478,580.849 166.376,580.849 "/>
<polyline clip-path="url(#clip870)" style="stroke:#000000; stroke-linecap:round; stroke-linejoin:round; stroke-width:4; stroke-opacity:1; fill:none" points="147.478,188.989 166.376,188.989 "/>
<path clip-path="url(#clip870)" d="M50.9921 1365.02 L80.6679 1365.02 L80.6679 1368.96 L50.9921 1368.96 L50.9921 1365.02 Z" fill="#000000" fill-rule="nonzero" fill-opacity="1" /><path clip-path="url(#clip870)" d="M91.5706 1377.92 L99.2095 1377.92 L99.2095 1351.55 L90.8993 1353.22 L90.8993 1348.96 L99.1632 1347.29 L103.839 1347.29 L103.839 1377.92 L111.478 1377.92 L111.478 1381.85 L91.5706 1381.85 L91.5706 1377.92 Z" fill="#000000" fill-rule="nonzero" fill-opacity="1" /><path clip-path="url(#clip870)" d="M99.5335 958.509 Q95.9224 958.509 94.0937 962.074 Q92.2882 965.615 92.2882 972.745 Q92.2882 979.851 94.0937 983.416 Q95.9224 986.958 99.5335 986.958 Q103.168 986.958 104.973 983.416 Q106.802 979.851 106.802 972.745 Q106.802 965.615 104.973 962.074 Q103.168 958.509 99.5335 958.509 M99.5335 954.805 Q105.344 954.805 108.399 959.412 Q111.478 963.995 111.478 972.745 Q111.478 981.472 108.399 986.078 Q105.344 990.661 99.5335 990.661 Q93.7234 990.661 90.6447 986.078 Q87.5892 981.472 87.5892 972.745 Q87.5892 963.995 90.6447 959.412 Q93.7234 954.805 99.5335 954.805 Z" fill="#000000" fill-rule="nonzero" fill-opacity="1" /><path clip-path="url(#clip870)" d="M91.5706 594.194 L99.2095 594.194 L99.2095 567.829 L90.8993 569.495 L90.8993 565.236 L99.1632 563.569 L103.839 563.569 L103.839 594.194 L111.478 594.194 L111.478 598.129 L91.5706 598.129 L91.5706 594.194 Z" fill="#000000" fill-rule="nonzero" fill-opacity="1" /><path clip-path="url(#clip870)" d="M95.1586 202.334 L111.478 202.334 L111.478 206.269 L89.5336 206.269 L89.5336 202.334 Q92.1956 199.579 96.7789 194.949 Q101.385 190.297 102.566 188.954 Q104.811 186.431 105.691 184.695 Q106.594 182.935 106.594 181.246 Q106.594 178.491 104.649 176.755 Q102.728 175.019 99.6261 175.019 Q97.4271 175.019 94.9734 175.783 Q92.5428 176.547 89.7651 178.098 L89.7651 173.375 Q92.5891 172.241 95.0428 171.662 Q97.4965 171.084 99.5335 171.084 Q104.904 171.084 108.098 173.769 Q111.293 176.454 111.293 180.945 Q111.293 183.074 110.483 184.996 Q109.696 186.894 107.589 189.486 Q107.01 190.158 103.909 193.375 Q100.807 196.57 95.1586 202.334 Z" fill="#000000" fill-rule="nonzero" fill-opacity="1" /><path clip-path="url(#clip870)" d="M428 10.0578 L428 15.758 Q424.673 14.1666 421.721 13.3853 Q418.77 12.6041 416.021 12.6041 Q411.247 12.6041 408.643 14.4559 Q406.068 16.3078 406.068 19.7221 Q406.068 22.5867 407.775 24.0624 Q409.511 25.5091 414.314 26.4061 L417.844 27.1295 Q424.383 28.3737 427.48 31.5276 Q430.605 34.6526 430.605 39.9188 Q430.605 46.1977 426.38 49.4384 Q422.184 52.6791 414.054 52.6791 Q410.987 52.6791 407.514 51.9847 Q404.071 51.2902 400.367 49.9303 L400.367 43.9118 Q403.926 45.9083 407.341 46.921 Q410.755 47.9338 414.054 47.9338 Q419.059 47.9338 421.779 45.9662 Q424.499 43.9986 424.499 40.3528 Q424.499 37.1699 422.532 35.376 Q420.593 33.582 416.137 32.685 L412.578 31.9906 Q406.039 30.6885 403.116 27.9107 Q400.194 25.133 400.194 20.1851 Q400.194 14.4559 404.216 11.1573 Q408.267 7.85875 415.356 7.85875 Q418.394 7.85875 421.548 8.40852 Q424.702 8.95829 428 10.0578 Z" fill="#000000" fill-rule="nonzero" fill-opacity="1" /><path clip-path="url(#clip870)" d="M452.045 23.1654 Q447.763 23.1654 445.275 26.5218 Q442.786 29.8494 442.786 35.6653 Q442.786 41.4813 445.246 44.8377 Q447.734 48.1653 452.045 48.1653 Q456.299 48.1653 458.787 44.8088 Q461.276 41.4523 461.276 35.6653 Q461.276 29.9072 458.787 26.5508 Q456.299 23.1654 452.045 23.1654 M452.045 18.6515 Q458.99 18.6515 462.954 23.1654 Q466.918 27.6792 466.918 35.6653 Q466.918 43.6225 462.954 48.1653 Q458.99 52.6791 452.045 52.6791 Q445.072 52.6791 441.108 48.1653 Q437.173 43.6225 437.173 35.6653 Q437.173 27.6792 441.108 23.1654 Q445.072 18.6515 452.045 18.6515 Z" fill="#000000" fill-rule="nonzero" fill-opacity="1" /><path clip-path="url(#clip870)" d="M500.975 25.6538 Q502.971 22.0659 505.749 20.3587 Q508.527 18.6515 512.288 18.6515 Q517.352 18.6515 520.101 22.2105 Q522.849 25.7406 522.849 32.2799 L522.849 51.84 L517.496 51.84 L517.496 32.4535 Q517.496 27.795 515.847 25.5381 Q514.198 23.2811 510.812 23.2811 Q506.675 23.2811 504.273 26.03 Q501.871 28.7788 501.871 33.5241 L501.871 51.84 L496.519 51.84 L496.519 32.4535 Q496.519 27.7661 494.869 25.5381 Q493.22 23.2811 489.777 23.2811 Q485.697 23.2811 483.295 26.0589 Q480.894 28.8077 480.894 33.5241 L480.894 51.84 L475.541 51.84 L475.541 19.4328 L480.894 19.4328 L480.894 24.4675 Q482.717 21.4872 485.263 20.0693 Q487.809 18.6515 491.31 18.6515 Q494.84 18.6515 497.3 20.4455 Q499.788 22.2395 500.975 25.6538 Z" fill="#000000" fill-rule="nonzero" fill-opacity="1" /><path clip-path="url(#clip870)" d="M561.188 34.3054 L561.188 36.9095 L536.709 36.9095 Q537.056 42.4072 540.008 45.3007 Q542.988 48.1653 548.283 48.1653 Q551.35 48.1653 554.215 47.4129 Q557.108 46.6606 559.944 45.156 L559.944 50.1907 Q557.08 51.406 554.07 52.0425 Q551.061 52.6791 547.965 52.6791 Q540.21 52.6791 535.668 48.1653 Q531.154 43.6514 531.154 35.9547 Q531.154 27.9975 535.436 23.339 Q539.747 18.6515 547.039 18.6515 Q553.578 18.6515 557.369 22.876 Q561.188 27.0716 561.188 34.3054 M555.864 32.7429 Q555.806 28.3737 553.405 25.7695 Q551.032 23.1654 547.097 23.1654 Q542.641 23.1654 539.95 25.6827 Q537.288 28.2001 536.883 32.7718 L555.864 32.7429 Z" fill="#000000" fill-rule="nonzero" fill-opacity="1" /><path clip-path="url(#clip870)" d="M609.423 20.3876 L609.423 25.4223 Q607.166 24.2649 604.736 23.6862 Q602.305 23.1075 599.701 23.1075 Q595.737 23.1075 593.74 24.3228 Q591.773 25.5381 591.773 27.9686 Q591.773 29.8204 593.19 30.891 Q594.608 31.9327 598.891 32.8876 L600.714 33.2926 Q606.385 34.5079 608.757 36.7359 Q611.159 38.935 611.159 42.8991 Q611.159 47.4129 607.571 50.046 Q604.012 52.6791 597.762 52.6791 Q595.158 52.6791 592.322 52.1583 Q589.516 51.6664 586.391 50.6537 L586.391 45.156 Q589.342 46.6896 592.207 47.4708 Q595.071 48.2231 597.878 48.2231 Q601.639 48.2231 603.665 46.95 Q605.69 45.6479 605.69 43.3042 Q605.69 41.134 604.215 39.9766 Q602.768 38.8192 597.82 37.7486 L595.968 37.3146 Q591.02 36.273 588.821 34.1318 Q586.622 31.9616 586.622 28.2001 Q586.622 23.6283 589.863 21.1399 Q593.104 18.6515 599.064 18.6515 Q602.016 18.6515 604.62 19.0855 Q607.224 19.5196 609.423 20.3876 Z" fill="#000000" fill-rule="nonzero" fill-opacity="1" /><path clip-path="url(#clip870)" d="M634.365 35.5496 Q627.912 35.5496 625.424 37.0253 Q622.936 38.501 622.936 42.06 Q622.936 44.8956 624.788 46.5738 Q626.668 48.2231 629.88 48.2231 Q634.307 48.2231 636.969 45.0981 Q639.66 41.9442 639.66 36.7359 L639.66 35.5496 L634.365 35.5496 M644.984 33.3505 L644.984 51.84 L639.66 51.84 L639.66 46.921 Q637.837 49.8724 635.117 51.2902 Q632.397 52.6791 628.462 52.6791 Q623.485 52.6791 620.534 49.9014 Q617.612 47.0947 617.612 42.4072 Q617.612 36.9385 621.257 34.1607 Q624.932 31.3829 632.195 31.3829 L639.66 31.3829 L639.66 30.8621 Q639.66 27.1874 637.23 25.1908 Q634.828 23.1654 630.459 23.1654 Q627.681 23.1654 625.048 23.8309 Q622.415 24.4964 619.984 25.8274 L619.984 20.9085 Q622.907 19.78 625.656 19.2302 Q628.404 18.6515 631.009 18.6515 Q638.04 18.6515 641.512 22.2973 Q644.984 25.9431 644.984 33.3505 Z" fill="#000000" fill-rule="nonzero" fill-opacity="1" /><path clip-path="url(#clip870)" d="M681.182 25.6538 Q683.178 22.0659 685.956 20.3587 Q688.734 18.6515 692.495 18.6515 Q697.559 18.6515 700.308 22.2105 Q703.057 25.7406 703.057 32.2799 L703.057 51.84 L697.704 51.84 L697.704 32.4535 Q697.704 27.795 696.054 25.5381 Q694.405 23.2811 691.02 23.2811 Q686.882 23.2811 684.48 26.03 Q682.079 28.7788 682.079 33.5241 L682.079 51.84 L676.726 51.84 L676.726 32.4535 Q676.726 27.7661 675.077 25.5381 Q673.427 23.2811 669.984 23.2811 Q665.904 23.2811 663.503 26.0589 Q661.101 28.8077 661.101 33.5241 L661.101 51.84 L655.748 51.84 L655.748 19.4328 L661.101 19.4328 L661.101 24.4675 Q662.924 21.4872 665.47 20.0693 Q668.016 18.6515 671.518 18.6515 Q675.048 18.6515 677.507 20.4455 Q679.996 22.2395 681.182 25.6538 Z" fill="#000000" fill-rule="nonzero" fill-opacity="1" /><path clip-path="url(#clip870)" d="M718.826 46.9789 L718.826 64.1663 L713.473 64.1663 L713.473 19.4328 L718.826 19.4328 L718.826 24.3517 Q720.505 21.4582 723.051 20.0693 Q725.626 18.6515 729.185 18.6515 Q735.088 18.6515 738.763 23.339 Q742.466 28.0265 742.466 35.6653 Q742.466 43.3042 738.763 47.9916 Q735.088 52.6791 729.185 52.6791 Q725.626 52.6791 723.051 51.2902 Q720.505 49.8724 718.826 46.9789 M736.94 35.6653 Q736.94 29.7915 734.509 26.464 Q732.108 23.1075 727.883 23.1075 Q723.659 23.1075 721.228 26.464 Q718.826 29.7915 718.826 35.6653 Q718.826 41.5391 721.228 44.8956 Q723.659 48.2231 727.883 48.2231 Q732.108 48.2231 734.509 44.8956 Q736.94 41.5391 736.94 35.6653 Z" fill="#000000" fill-rule="nonzero" fill-opacity="1" /><path clip-path="url(#clip870)" d="M751.291 6.81709 L756.616 6.81709 L756.616 51.84 L751.291 51.84 L751.291 6.81709 Z" fill="#000000" fill-rule="nonzero" fill-opacity="1" /><path clip-path="url(#clip870)" d="M795.475 34.3054 L795.475 36.9095 L770.996 36.9095 Q771.343 42.4072 774.295 45.3007 Q777.275 48.1653 782.57 48.1653 Q785.637 48.1653 788.502 47.4129 Q791.395 46.6606 794.231 45.156 L794.231 50.1907 Q791.366 51.406 788.357 52.0425 Q785.348 52.6791 782.252 52.6791 Q774.497 52.6791 769.955 48.1653 Q765.441 43.6514 765.441 35.9547 Q765.441 27.9975 769.723 23.339 Q774.034 18.6515 781.326 18.6515 Q787.865 18.6515 791.656 22.876 Q795.475 27.0716 795.475 34.3054 M790.151 32.7429 Q790.093 28.3737 787.692 25.7695 Q785.319 23.1654 781.384 23.1654 Q776.928 23.1654 774.237 25.6827 Q771.575 28.2001 771.17 32.7718 L790.151 32.7429 Z" fill="#000000" fill-rule="nonzero" fill-opacity="1" /><path clip-path="url(#clip870)" d="M828.201 46.9789 L828.201 64.1663 L822.848 64.1663 L822.848 19.4328 L828.201 19.4328 L828.201 24.3517 Q829.879 21.4582 832.425 20.0693 Q835 18.6515 838.56 18.6515 Q844.462 18.6515 848.137 23.339 Q851.841 28.0265 851.841 35.6653 Q851.841 43.3042 848.137 47.9916 Q844.462 52.6791 838.56 52.6791 Q835 52.6791 832.425 51.2902 Q829.879 49.8724 828.201 46.9789 M846.314 35.6653 Q846.314 29.7915 843.884 26.464 Q841.482 23.1075 837.257 23.1075 Q833.033 23.1075 830.602 26.464 Q828.201 29.7915 828.201 35.6653 Q828.201 41.5391 830.602 44.8956 Q833.033 48.2231 837.257 48.2231 Q841.482 48.2231 843.884 44.8956 Q846.314 41.5391 846.314 35.6653 Z" fill="#000000" fill-rule="nonzero" fill-opacity="1" /><path clip-path="url(#clip870)" d="M875.394 35.5496 Q868.941 35.5496 866.453 37.0253 Q863.964 38.501 863.964 42.06 Q863.964 44.8956 865.816 46.5738 Q867.697 48.2231 870.909 48.2231 Q875.336 48.2231 877.998 45.0981 Q880.689 41.9442 880.689 36.7359 L880.689 35.5496 L875.394 35.5496 M886.013 33.3505 L886.013 51.84 L880.689 51.84 L880.689 46.921 Q878.866 49.8724 876.146 51.2902 Q873.426 52.6791 869.491 52.6791 Q864.514 52.6791 861.563 49.9014 Q858.64 47.0947 858.64 42.4072 Q858.64 36.9385 862.286 34.1607 Q865.961 31.3829 873.224 31.3829 L880.689 31.3829 L880.689 30.8621 Q880.689 27.1874 878.258 25.1908 Q875.857 23.1654 871.488 23.1654 Q868.71 23.1654 866.077 23.8309 Q863.444 24.4964 861.013 25.8274 L861.013 20.9085 Q863.936 19.78 866.684 19.2302 Q869.433 18.6515 872.037 18.6515 Q879.069 18.6515 882.541 22.2973 Q886.013 25.9431 886.013 33.3505 Z" fill="#000000" fill-rule="nonzero" fill-opacity="1" /><path clip-path="url(#clip870)" d="M902.246 10.2314 L902.246 19.4328 L913.212 19.4328 L913.212 23.5705 L902.246 23.5705 L902.246 41.163 Q902.246 45.1271 903.316 46.2555 Q904.416 47.384 907.743 47.384 L913.212 47.384 L913.212 51.84 L907.743 51.84 Q901.58 51.84 899.236 49.5541 Q896.893 47.2393 896.893 41.163 L896.893 23.5705 L892.986 23.5705 L892.986 19.4328 L896.893 19.4328 L896.893 10.2314 L902.246 10.2314 Z" fill="#000000" fill-rule="nonzero" fill-opacity="1" /><path clip-path="url(#clip870)" d="M947.153 32.2799 L947.153 51.84 L941.829 51.84 L941.829 32.4535 Q941.829 27.8529 940.035 25.567 Q938.241 23.2811 934.653 23.2811 Q930.341 23.2811 927.853 26.03 Q925.365 28.7788 925.365 33.5241 L925.365 51.84 L920.012 51.84 L920.012 6.81709 L925.365 6.81709 L925.365 24.4675 Q927.274 21.545 929.85 20.0983 Q932.454 18.6515 935.839 18.6515 Q941.424 18.6515 944.288 22.1237 Q947.153 25.567 947.153 32.2799 Z" fill="#000000" fill-rule="nonzero" fill-opacity="1" /><path clip-path="url(#clip870)" d="M978.431 20.3876 L978.431 25.4223 Q976.175 24.2649 973.744 23.6862 Q971.313 23.1075 968.709 23.1075 Q964.745 23.1075 962.749 24.3228 Q960.781 25.5381 960.781 27.9686 Q960.781 29.8204 962.199 30.891 Q963.617 31.9327 967.899 32.8876 L969.722 33.2926 Q975.393 34.5079 977.766 36.7359 Q980.168 38.935 980.168 42.8991 Q980.168 47.4129 976.58 50.046 Q973.021 52.6791 966.771 52.6791 Q964.166 52.6791 961.331 52.1583 Q958.524 51.6664 955.399 50.6537 L955.399 45.156 Q958.351 46.6896 961.215 47.4708 Q964.08 48.2231 966.886 48.2231 Q970.648 48.2231 972.673 46.95 Q974.699 45.6479 974.699 43.3042 Q974.699 41.134 973.223 39.9766 Q971.776 38.8192 966.828 37.7486 L964.977 37.3146 Q960.029 36.273 957.83 34.1318 Q955.631 31.9616 955.631 28.2001 Q955.631 23.6283 958.871 21.1399 Q962.112 18.6515 968.073 18.6515 Q971.024 18.6515 973.628 19.0855 Q976.232 19.5196 978.431 20.3876 Z" fill="#000000" fill-rule="nonzero" fill-opacity="1" /><path clip-path="url(#clip870)" d="M1020.04 23.1654 Q1015.76 23.1654 1013.27 26.5218 Q1010.78 29.8494 1010.78 35.6653 Q1010.78 41.4813 1013.24 44.8377 Q1015.73 48.1653 1020.04 48.1653 Q1024.29 48.1653 1026.78 44.8088 Q1029.27 41.4523 1029.27 35.6653 Q1029.27 29.9072 1026.78 26.5508 Q1024.29 23.1654 1020.04 23.1654 M1020.04 18.6515 Q1026.98 18.6515 1030.95 23.1654 Q1034.91 27.6792 1034.91 35.6653 Q1034.91 43.6225 1030.95 48.1653 Q1026.98 52.6791 1020.04 52.6791 Q1013.07 52.6791 1009.1 48.1653 Q1005.17 43.6225 1005.17 35.6653 Q1005.17 27.6792 1009.1 23.1654 Q1013.07 18.6515 1020.04 18.6515 Z" fill="#000000" fill-rule="nonzero" fill-opacity="1" /><path clip-path="url(#clip870)" d="M1060.14 6.81709 L1060.14 11.2442 L1055.05 11.2442 Q1052.19 11.2442 1051.06 12.4016 Q1049.96 13.559 1049.96 16.5682 L1049.96 19.4328 L1058.73 19.4328 L1058.73 23.5705 L1049.96 23.5705 L1049.96 51.84 L1044.61 51.84 L1044.61 23.5705 L1039.51 23.5705 L1039.51 19.4328 L1044.61 19.4328 L1044.61 17.1758 Q1044.61 11.765 1047.12 9.30551 Q1049.64 6.81709 1055.11 6.81709 L1060.14 6.81709 Z" fill="#000000" fill-rule="nonzero" fill-opacity="1" /><path clip-path="url(#clip870)" d="M1106.7 35.6653 Q1106.7 29.7915 1104.27 26.464 Q1101.87 23.1075 1097.64 23.1075 Q1093.42 23.1075 1090.99 26.464 Q1088.59 29.7915 1088.59 35.6653 Q1088.59 41.5391 1090.99 44.8956 Q1093.42 48.2231 1097.64 48.2231 Q1101.87 48.2231 1104.27 44.8956 Q1106.7 41.5391 1106.7 35.6653 M1088.59 24.3517 Q1090.27 21.4582 1092.81 20.0693 Q1095.39 18.6515 1098.95 18.6515 Q1104.85 18.6515 1108.52 23.339 Q1112.23 28.0265 1112.23 35.6653 Q1112.23 43.3042 1108.52 47.9916 Q1104.85 52.6791 1098.95 52.6791 Q1095.39 52.6791 1092.81 51.2902 Q1090.27 49.8724 1088.59 46.9789 L1088.59 51.84 L1083.23 51.84 L1083.23 6.81709 L1088.59 6.81709 L1088.59 24.3517 Z" fill="#000000" fill-rule="nonzero" fill-opacity="1" /><path clip-path="url(#clip870)" d="M1133.61 23.1654 Q1129.33 23.1654 1126.84 26.5218 Q1124.35 29.8494 1124.35 35.6653 Q1124.35 41.4813 1126.81 44.8377 Q1129.3 48.1653 1133.61 48.1653 Q1137.86 48.1653 1140.35 44.8088 Q1142.84 41.4523 1142.84 35.6653 Q1142.84 29.9072 1140.35 26.5508 Q1137.86 23.1654 1133.61 23.1654 M1133.61 18.6515 Q1140.55 18.6515 1144.52 23.1654 Q1148.48 27.6792 1148.48 35.6653 Q1148.48 43.6225 1144.52 48.1653 Q1140.55 52.6791 1133.61 52.6791 Q1126.64 52.6791 1122.67 48.1653 Q1118.74 43.6225 1118.74 35.6653 Q1118.74 27.6792 1122.67 23.1654 Q1126.64 18.6515 1133.61 18.6515 Z" fill="#000000" fill-rule="nonzero" fill-opacity="1" /><path clip-path="url(#clip870)" d="M1162.57 10.2314 L1162.57 19.4328 L1173.54 19.4328 L1173.54 23.5705 L1162.57 23.5705 L1162.57 41.163 Q1162.57 45.1271 1163.64 46.2555 Q1164.74 47.384 1168.07 47.384 L1173.54 47.384 L1173.54 51.84 L1168.07 51.84 Q1161.91 51.84 1159.56 49.5541 Q1157.22 47.2393 1157.22 41.163 L1157.22 23.5705 L1153.31 23.5705 L1153.31 19.4328 L1157.22 19.4328 L1157.22 10.2314 L1162.57 10.2314 Z" fill="#000000" fill-rule="nonzero" fill-opacity="1" /><path clip-path="url(#clip870)" d="M1207.48 32.2799 L1207.48 51.84 L1202.16 51.84 L1202.16 32.4535 Q1202.16 27.8529 1200.36 25.567 Q1198.57 23.2811 1194.98 23.2811 Q1190.67 23.2811 1188.18 26.03 Q1185.69 28.7788 1185.69 33.5241 L1185.69 51.84 L1180.34 51.84 L1180.34 6.81709 L1185.69 6.81709 L1185.69 24.4675 Q1187.6 21.545 1190.18 20.0983 Q1192.78 18.6515 1196.17 18.6515 Q1201.75 18.6515 1204.62 22.1237 Q1207.48 25.567 1207.48 32.2799 Z" fill="#000000" fill-rule="nonzero" fill-opacity="1" /><path clip-path="url(#clip870)" d="M1235.09 8.64 L1241.36 8.64 L1252.1 24.6989 L1262.89 8.64 L1269.17 8.64 L1255.28 29.3864 L1270.1 51.84 L1263.82 51.84 L1251.66 33.4663 L1239.43 51.84 L1233.12 51.84 L1248.54 28.7788 L1235.09 8.64 Z" fill="#000000" fill-rule="nonzero" fill-opacity="1" /><path clip-path="url(#clip870)" d="M1282.8 10.2314 L1282.8 19.4328 L1293.77 19.4328 L1293.77 23.5705 L1282.8 23.5705 L1282.8 41.163 Q1282.8 45.1271 1283.87 46.2555 Q1284.97 47.384 1288.3 47.384 L1293.77 47.384 L1293.77 51.84 L1288.3 51.84 Q1282.13 51.84 1279.79 49.5541 Q1277.45 47.2393 1277.45 41.163 L1277.45 23.5705 L1273.54 23.5705 L1273.54 19.4328 L1277.45 19.4328 L1277.45 10.2314 L1282.8 10.2314 Z" fill="#000000" fill-rule="nonzero" fill-opacity="1" /><path clip-path="url(#clip870)" d="M1332.39 6.87496 Q1328.52 13.53 1326.64 20.0404 Q1324.75 26.5508 1324.75 33.2348 Q1324.75 39.9188 1326.64 46.487 Q1328.55 53.0263 1332.39 59.6525 L1327.76 59.6525 Q1323.42 52.8527 1321.25 46.2845 Q1319.11 39.7162 1319.11 33.2348 Q1319.11 26.7823 1321.25 20.2429 Q1323.39 13.7036 1327.76 6.87496 L1332.39 6.87496 Z" fill="#000000" fill-rule="nonzero" fill-opacity="1" /><path clip-path="url(#clip870)" d="M1365.99 35.6653 Q1365.99 29.7915 1363.56 26.464 Q1361.16 23.1075 1356.93 23.1075 Q1352.71 23.1075 1350.28 26.464 Q1347.87 29.7915 1347.87 35.6653 Q1347.87 41.5391 1350.28 44.8956 Q1352.71 48.2231 1356.93 48.2231 Q1361.16 48.2231 1363.56 44.8956 Q1365.99 41.5391 1365.99 35.6653 M1347.87 24.3517 Q1349.55 21.4582 1352.1 20.0693 Q1354.67 18.6515 1358.23 18.6515 Q1364.14 18.6515 1367.81 23.339 Q1371.51 28.0265 1371.51 35.6653 Q1371.51 43.3042 1367.81 47.9916 Q1364.14 52.6791 1358.23 52.6791 Q1354.67 52.6791 1352.1 51.2902 Q1349.55 49.8724 1347.87 46.9789 L1347.87 51.84 L1342.52 51.84 L1342.52 6.81709 L1347.87 6.81709 L1347.87 24.3517 Z" fill="#000000" fill-rule="nonzero" fill-opacity="1" /><path clip-path="url(#clip870)" d="M1380.34 6.81709 L1385.66 6.81709 L1385.66 51.84 L1380.34 51.84 L1380.34 6.81709 Z" fill="#000000" fill-rule="nonzero" fill-opacity="1" /><path clip-path="url(#clip870)" d="M1396.25 39.0507 L1396.25 19.4328 L1401.58 19.4328 L1401.58 38.8482 Q1401.58 43.4488 1403.37 45.7636 Q1405.17 48.0495 1408.75 48.0495 Q1413.06 48.0495 1415.55 45.3007 Q1418.07 42.5519 1418.07 37.8065 L1418.07 19.4328 L1423.39 19.4328 L1423.39 51.84 L1418.07 51.84 L1418.07 46.8632 Q1416.13 49.8145 1413.56 51.2613 Q1411.01 52.6791 1407.62 52.6791 Q1402.04 52.6791 1399.15 49.2069 Q1396.25 45.7347 1396.25 39.0507 M1409.65 18.6515 L1409.65 18.6515 Z" fill="#000000" fill-rule="nonzero" fill-opacity="1" /><path clip-path="url(#clip870)" d="M1462.08 34.3054 L1462.08 36.9095 L1437.6 36.9095 Q1437.95 42.4072 1440.9 45.3007 Q1443.88 48.1653 1449.18 48.1653 Q1452.24 48.1653 1455.11 47.4129 Q1458 46.6606 1460.84 45.156 L1460.84 50.1907 Q1457.97 51.406 1454.96 52.0425 Q1451.95 52.6791 1448.86 52.6791 Q1441.1 52.6791 1436.56 48.1653 Q1432.05 43.6514 1432.05 35.9547 Q1432.05 27.9975 1436.33 23.339 Q1440.64 18.6515 1447.93 18.6515 Q1454.47 18.6515 1458.26 22.876 Q1462.08 27.0716 1462.08 34.3054 M1456.76 32.7429 Q1456.7 28.3737 1454.3 25.7695 Q1451.92 23.1654 1447.99 23.1654 Q1443.53 23.1654 1440.84 25.6827 Q1438.18 28.2001 1437.78 32.7718 L1456.76 32.7429 Z" fill="#000000" fill-rule="nonzero" fill-opacity="1" /><path clip-path="url(#clip870)" d="M1469.98 6.87496 L1474.61 6.87496 Q1478.95 13.7036 1481.09 20.2429 Q1483.26 26.7823 1483.26 33.2348 Q1483.26 39.7162 1481.09 46.2845 Q1478.95 52.8527 1474.61 59.6525 L1469.98 59.6525 Q1473.83 53.0263 1475.71 46.487 Q1477.62 39.9188 1477.62 33.2348 Q1477.62 26.5508 1475.71 20.0404 Q1473.83 13.53 1469.98 6.87496 Z" fill="#000000" fill-rule="nonzero" fill-opacity="1" /><path clip-path="url(#clip870)" d="M1527.5 35.5496 Q1521.05 35.5496 1518.56 37.0253 Q1516.07 38.501 1516.07 42.06 Q1516.07 44.8956 1517.93 46.5738 Q1519.81 48.2231 1523.02 48.2231 Q1527.44 48.2231 1530.11 45.0981 Q1532.8 41.9442 1532.8 36.7359 L1532.8 35.5496 L1527.5 35.5496 M1538.12 33.3505 L1538.12 51.84 L1532.8 51.84 L1532.8 46.921 Q1530.97 49.8724 1528.25 51.2902 Q1525.53 52.6791 1521.6 52.6791 Q1516.62 52.6791 1513.67 49.9014 Q1510.75 47.0947 1510.75 42.4072 Q1510.75 36.9385 1514.4 34.1607 Q1518.07 31.3829 1525.33 31.3829 L1532.8 31.3829 L1532.8 30.8621 Q1532.8 27.1874 1530.37 25.1908 Q1527.97 23.1654 1523.6 23.1654 Q1520.82 23.1654 1518.19 23.8309 Q1515.55 24.4964 1513.12 25.8274 L1513.12 20.9085 Q1516.04 19.78 1518.79 19.2302 Q1521.54 18.6515 1524.15 18.6515 Q1531.18 18.6515 1534.65 22.2973 Q1538.12 25.9431 1538.12 33.3505 Z" fill="#000000" fill-rule="nonzero" fill-opacity="1" /><path clip-path="url(#clip870)" d="M1576.03 32.2799 L1576.03 51.84 L1570.7 51.84 L1570.7 32.4535 Q1570.7 27.8529 1568.91 25.567 Q1567.11 23.2811 1563.53 23.2811 Q1559.22 23.2811 1556.73 26.03 Q1554.24 28.7788 1554.24 33.5241 L1554.24 51.84 L1548.89 51.84 L1548.89 19.4328 L1554.24 19.4328 L1554.24 24.4675 Q1556.15 21.545 1558.72 20.0983 Q1561.33 18.6515 1564.71 18.6515 Q1570.3 18.6515 1573.16 22.1237 Q1576.03 25.567 1576.03 32.2799 Z" fill="#000000" fill-rule="nonzero" fill-opacity="1" /><path clip-path="url(#clip870)" d="M1607.97 24.3517 L1607.97 6.81709 L1613.29 6.81709 L1613.29 51.84 L1607.97 51.84 L1607.97 46.9789 Q1606.29 49.8724 1603.72 51.2902 Q1601.17 52.6791 1597.58 52.6791 Q1591.71 52.6791 1588.01 47.9916 Q1584.33 43.3042 1584.33 35.6653 Q1584.33 28.0265 1588.01 23.339 Q1591.71 18.6515 1597.58 18.6515 Q1601.17 18.6515 1603.72 20.0693 Q1606.29 21.4582 1607.97 24.3517 M1589.83 35.6653 Q1589.83 41.5391 1592.23 44.8956 Q1594.66 48.2231 1598.89 48.2231 Q1603.11 48.2231 1605.54 44.8956 Q1607.97 41.5391 1607.97 35.6653 Q1607.97 29.7915 1605.54 26.464 Q1603.11 23.1075 1598.89 23.1075 Q1594.66 23.1075 1592.23 26.464 Q1589.83 29.7915 1589.83 35.6653 Z" fill="#000000" fill-rule="nonzero" fill-opacity="1" /><path clip-path="url(#clip870)" d="M1661.88 24.4096 Q1660.98 23.8888 1659.91 23.6573 Q1658.87 23.3969 1657.59 23.3969 Q1653.08 23.3969 1650.65 26.3482 Q1648.25 29.2707 1648.25 34.7683 L1648.25 51.84 L1642.9 51.84 L1642.9 19.4328 L1648.25 19.4328 L1648.25 24.4675 Q1649.93 21.5161 1652.62 20.0983 Q1655.31 18.6515 1659.16 18.6515 Q1659.71 18.6515 1660.37 18.7383 Q1661.04 18.7962 1661.85 18.9409 L1661.88 24.4096 Z" fill="#000000" fill-rule="nonzero" fill-opacity="1" /><path clip-path="url(#clip870)" d="M1693.88 34.3054 L1693.88 36.9095 L1669.4 36.9095 Q1669.75 42.4072 1672.7 45.3007 Q1675.68 48.1653 1680.97 48.1653 Q1684.04 48.1653 1686.91 47.4129 Q1689.8 46.6606 1692.63 45.156 L1692.63 50.1907 Q1689.77 51.406 1686.76 52.0425 Q1683.75 52.6791 1680.66 52.6791 Q1672.9 52.6791 1668.36 48.1653 Q1663.84 43.6514 1663.84 35.9547 Q1663.84 27.9975 1668.13 23.339 Q1672.44 18.6515 1679.73 18.6515 Q1686.27 18.6515 1690.06 22.876 Q1693.88 27.0716 1693.88 34.3054 M1688.55 32.7429 Q1688.5 28.3737 1686.1 25.7695 Q1683.72 23.1654 1679.79 23.1654 Q1675.33 23.1654 1672.64 25.6827 Q1669.98 28.2001 1669.57 32.7718 L1688.55 32.7429 Z" fill="#000000" fill-rule="nonzero" fill-opacity="1" /><path clip-path="url(#clip870)" d="M1698.8 19.4328 L1704.44 19.4328 L1714.57 46.6317 L1724.69 19.4328 L1730.34 19.4328 L1718.18 51.84 L1710.95 51.84 L1698.8 19.4328 Z" fill="#000000" fill-rule="nonzero" fill-opacity="1" /><path clip-path="url(#clip870)" d="M1765.41 34.3054 L1765.41 36.9095 L1740.93 36.9095 Q1741.27 42.4072 1744.23 45.3007 Q1747.21 48.1653 1752.5 48.1653 Q1755.57 48.1653 1758.43 47.4129 Q1761.33 46.6606 1764.16 45.156 L1764.16 50.1907 Q1761.3 51.406 1758.29 52.0425 Q1755.28 52.6791 1752.18 52.6791 Q1744.43 52.6791 1739.89 48.1653 Q1735.37 43.6514 1735.37 35.9547 Q1735.37 27.9975 1739.65 23.339 Q1743.97 18.6515 1751.26 18.6515 Q1757.8 18.6515 1761.59 22.876 Q1765.41 27.0716 1765.41 34.3054 M1760.08 32.7429 Q1760.02 28.3737 1757.62 25.7695 Q1755.25 23.1654 1751.32 23.1654 Q1746.86 23.1654 1744.17 25.6827 Q1741.51 28.2001 1741.1 32.7718 L1760.08 32.7429 Z" fill="#000000" fill-rule="nonzero" fill-opacity="1" /><path clip-path="url(#clip870)" d="M1792.92 24.4096 Q1792.03 23.8888 1790.96 23.6573 Q1789.91 23.3969 1788.64 23.3969 Q1784.13 23.3969 1781.7 26.3482 Q1779.3 29.2707 1779.3 34.7683 L1779.3 51.84 L1773.94 51.84 L1773.94 19.4328 L1779.3 19.4328 L1779.3 24.4675 Q1780.97 21.5161 1783.66 20.0983 Q1786.36 18.6515 1790.2 18.6515 Q1790.75 18.6515 1791.42 18.7383 Q1792.08 18.7962 1792.89 18.9409 L1792.92 24.4096 Z" fill="#000000" fill-rule="nonzero" fill-opacity="1" /><path clip-path="url(#clip870)" d="M1819.17 20.3876 L1819.17 25.4223 Q1816.91 24.2649 1814.48 23.6862 Q1812.05 23.1075 1809.45 23.1075 Q1805.48 23.1075 1803.48 24.3228 Q1801.52 25.5381 1801.52 27.9686 Q1801.52 29.8204 1802.94 30.891 Q1804.35 31.9327 1808.64 32.8876 L1810.46 33.2926 Q1816.13 34.5079 1818.5 36.7359 Q1820.9 38.935 1820.9 42.8991 Q1820.9 47.4129 1817.32 50.046 Q1813.76 52.6791 1807.51 52.6791 Q1804.9 52.6791 1802.07 52.1583 Q1799.26 51.6664 1796.14 50.6537 L1796.14 45.156 Q1799.09 46.6896 1801.95 47.4708 Q1804.82 48.2231 1807.62 48.2231 Q1811.38 48.2231 1813.41 46.95 Q1815.44 45.6479 1815.44 43.3042 Q1815.44 41.134 1813.96 39.9766 Q1812.51 38.8192 1807.56 37.7486 L1805.71 37.3146 Q1800.77 36.273 1798.57 34.1318 Q1796.37 31.9616 1796.37 28.2001 Q1796.37 23.6283 1799.61 21.1399 Q1802.85 18.6515 1808.81 18.6515 Q1811.76 18.6515 1814.36 19.0855 Q1816.97 19.5196 1819.17 20.3876 Z" fill="#000000" fill-rule="nonzero" fill-opacity="1" /><path clip-path="url(#clip870)" d="M1857.1 34.3054 L1857.1 36.9095 L1832.62 36.9095 Q1832.97 42.4072 1835.92 45.3007 Q1838.9 48.1653 1844.2 48.1653 Q1847.26 48.1653 1850.13 47.4129 Q1853.02 46.6606 1855.86 45.156 L1855.86 50.1907 Q1852.99 51.406 1849.98 52.0425 Q1846.97 52.6791 1843.88 52.6791 Q1836.12 52.6791 1831.58 48.1653 Q1827.07 43.6514 1827.07 35.9547 Q1827.07 27.9975 1831.35 23.339 Q1835.66 18.6515 1842.95 18.6515 Q1849.49 18.6515 1853.28 22.876 Q1857.1 27.0716 1857.1 34.3054 M1851.78 32.7429 Q1851.72 28.3737 1849.32 25.7695 Q1846.95 23.1654 1843.01 23.1654 Q1838.55 23.1654 1835.86 25.6827 Q1833.2 28.2001 1832.8 32.7718 L1851.78 32.7429 Z" fill="#000000" fill-rule="nonzero" fill-opacity="1" /><path clip-path="url(#clip870)" d="M1882.82 8.64 L1889.1 8.64 L1899.84 24.6989 L1910.63 8.64 L1916.91 8.64 L1903.02 29.3864 L1917.84 51.84 L1911.56 51.84 L1899.4 33.4663 L1887.17 51.84 L1880.86 51.84 L1896.28 28.7788 L1882.82 8.64 Z" fill="#000000" fill-rule="nonzero" fill-opacity="1" /><path clip-path="url(#clip870)" d="M1930.54 10.2314 L1930.54 19.4328 L1941.5 19.4328 L1941.5 23.5705 L1930.54 23.5705 L1930.54 41.163 Q1930.54 45.1271 1931.61 46.2555 Q1932.71 47.384 1936.04 47.384 L1941.5 47.384 L1941.5 51.84 L1936.04 51.84 Q1929.87 51.84 1927.53 49.5541 Q1925.19 47.2393 1925.19 41.163 L1925.19 23.5705 L1921.28 23.5705 L1921.28 19.4328 L1925.19 19.4328 L1925.19 10.2314 L1930.54 10.2314 Z" fill="#000000" fill-rule="nonzero" fill-opacity="1" /><path clip-path="url(#clip870)" d="M1980.13 6.87496 Q1976.26 13.53 1974.38 20.0404 Q1972.49 26.5508 1972.49 33.2348 Q1972.49 39.9188 1974.38 46.487 Q1976.28 53.0263 1980.13 59.6525 L1975.5 59.6525 Q1971.16 52.8527 1968.99 46.2845 Q1966.85 39.7162 1966.85 33.2348 Q1966.85 26.7823 1968.99 20.2429 Q1971.13 13.7036 1975.5 6.87496 L1980.13 6.87496 Z" fill="#000000" fill-rule="nonzero" fill-opacity="1" /><path clip-path="url(#clip870)" d="M2009.24 24.4096 Q2008.34 23.8888 2007.27 23.6573 Q2006.23 23.3969 2004.96 23.3969 Q2000.45 23.3969 1998.02 26.3482 Q1995.61 29.2707 1995.61 34.7683 L1995.61 51.84 L1990.26 51.84 L1990.26 19.4328 L1995.61 19.4328 L1995.61 24.4675 Q1997.29 21.5161 1999.98 20.0983 Q2002.67 18.6515 2006.52 18.6515 Q2007.07 18.6515 2007.74 18.7383 Q2008.4 18.7962 2009.21 18.9409 L2009.24 24.4096 Z" fill="#000000" fill-rule="nonzero" fill-opacity="1" /><path clip-path="url(#clip870)" d="M2041.24 34.3054 L2041.24 36.9095 L2016.77 36.9095 Q2017.11 42.4072 2020.06 45.3007 Q2023.04 48.1653 2028.34 48.1653 Q2031.41 48.1653 2034.27 47.4129 Q2037.16 46.6606 2040 45.156 L2040 50.1907 Q2037.14 51.406 2034.13 52.0425 Q2031.12 52.6791 2028.02 52.6791 Q2020.27 52.6791 2015.72 48.1653 Q2011.21 43.6514 2011.21 35.9547 Q2011.21 27.9975 2015.49 23.339 Q2019.8 18.6515 2027.09 18.6515 Q2033.63 18.6515 2037.42 22.876 Q2041.24 27.0716 2041.24 34.3054 M2035.92 32.7429 Q2035.86 28.3737 2033.46 25.7695 Q2031.09 23.1654 2027.15 23.1654 Q2022.7 23.1654 2020.01 25.6827 Q2017.34 28.2001 2016.94 32.7718 L2035.92 32.7429 Z" fill="#000000" fill-rule="nonzero" fill-opacity="1" /><path clip-path="url(#clip870)" d="M2071.31 24.3517 L2071.31 6.81709 L2076.63 6.81709 L2076.63 51.84 L2071.31 51.84 L2071.31 46.9789 Q2069.63 49.8724 2067.05 51.2902 Q2064.51 52.6791 2060.92 52.6791 Q2055.05 52.6791 2051.34 47.9916 Q2047.67 43.3042 2047.67 35.6653 Q2047.67 28.0265 2051.34 23.339 Q2055.05 18.6515 2060.92 18.6515 Q2064.51 18.6515 2067.05 20.0693 Q2069.63 21.4582 2071.31 24.3517 M2053.17 35.6653 Q2053.17 41.5391 2055.57 44.8956 Q2058 48.2231 2062.22 48.2231 Q2066.45 48.2231 2068.88 44.8956 Q2071.31 41.5391 2071.31 35.6653 Q2071.31 29.7915 2068.88 26.464 Q2066.45 23.1075 2062.22 23.1075 Q2058 23.1075 2055.57 26.464 Q2053.17 29.7915 2053.17 35.6653 Z" fill="#000000" fill-rule="nonzero" fill-opacity="1" /><path clip-path="url(#clip870)" d="M2086.76 6.87496 L2091.39 6.87496 Q2095.73 13.7036 2097.87 20.2429 Q2100.04 26.7823 2100.04 33.2348 Q2100.04 39.7162 2097.87 46.2845 Q2095.73 52.8527 2091.39 59.6525 L2086.76 59.6525 Q2090.61 53.0263 2092.49 46.487 Q2094.4 39.9188 2094.4 33.2348 Q2094.4 26.5508 2092.49 20.0404 Q2090.61 13.53 2086.76 6.87496 Z" fill="#000000" fill-rule="nonzero" fill-opacity="1" /><polyline clip-path="url(#clip872)" style="stroke:#009af9; stroke-linecap:round; stroke-linejoin:round; stroke-width:4; stroke-opacity:1; fill:none" points="209.891,972.71 230.696,972.71 251.5,968.525 272.305,967.808 293.109,978.188 313.914,968.79 334.718,979.473 355.523,988.826 376.328,987.404 397.132,975.536 417.937,963.744 438.741,974.783 459.546,951.184 480.35,945.648 501.155,933.646 521.959,935.916 542.764,937.336 563.568,965.419 584.373,967.297 605.177,961.825 625.982,962.141 646.786,959.022 667.591,984.749 688.395,968.167 709.2,967.967 730.004,956.969 750.809,941.65 771.613,924.652 792.418,957.044 813.222,932.227 834.027,967.353 854.831,987.77 875.636,1016.63 896.44,1036.11 917.245,1040.19 938.049,1031.74 958.854,949.76 979.658,919.86 1000.46,912.177 1021.27,930.807 1042.07,889.309 1062.88,885.461 1083.68,832.24 1104.49,820.131 1125.29,875.012 1146.09,824.809 1166.9,845.85 1187.7,853.495 1208.51,802.582 1229.31,744.851 1250.12,785.356 1270.92,823.156 1291.73,783.862 1312.53,755.741 1333.33,701.373 1354.14,646.294 1374.94,711.941 1395.75,680.965 1416.55,679.11 1437.36,635.254 1458.16,637.279 1478.97,641.645 1499.77,659.369 1520.58,655.565 1541.38,658.132 1562.18,608.786 1582.99,594.051 1603.79,630.075 1624.6,666.525 1645.4,684.979 1666.21,724.042 1687.01,731.766 1707.82,631.987 1728.62,657.154 1749.43,689.535 1770.23,666.879 1791.03,605.88 1811.84,551.615 1832.64,573.113 1853.45,531.257 1874.25,490.124 1895.06,415.551 1915.86,350.566 1936.67,335.166 1957.47,318.861 1978.27,290.484 1999.08,293.703 2019.88,266.111 2040.69,276.755 2061.49,269.099 2082.3,304.095 2103.1,350.756 2123.91,309.059 2144.71,303.494 2165.52,296.289 2186.32,231.218 2207.12,294.712 2227.93,196.283 2248.73,301.083 2269.54,250.327 2290.34,236.161 "/>
<polyline clip-path="url(#clip872)" style="stroke:#009af9; stroke-linecap:round; stroke-linejoin:round; stroke-width:4; stroke-opacity:1; fill:none" points="209.891,972.71 230.696,972.71 251.5,974.337 272.305,984.575 293.109,982.366 313.914,999.174 334.718,1011.24 355.523,1008.36 376.328,1012.11 397.132,1032.71 417.937,1030.25 438.741,1044.18 459.546,1058.41 480.35,1081.21 501.155,1113.02 521.959,1103.07 542.764,1073.98 563.568,1046.06 584.373,1026.72 605.177,1038.28 625.982,1042.99 646.786,1048.89 667.591,1073.65 688.395,1058.45 709.2,1045.77 730.004,1048.78 750.809,1058.81 771.613,1068.56 792.418,1047.82 813.222,1073.43 834.027,1039.48 854.831,1128.43 875.636,1135.21 896.44,1173.43 917.245,1130.56 938.049,1121.49 958.854,1157.12 979.658,1089.08 1000.46,1158.97 1021.27,1175.09 1042.07,1170.63 1062.88,1216.66 1083.68,1163.83 1104.49,1173.08 1125.29,1212.16 1146.09,1251.02 1166.9,1280.9 1187.7,1258.61 1208.51,1214.42 1229.31,1235.75 1250.12,1243.59 1270.92,1280.76 1291.73,1313.42 1312.53,1361.96 1333.33,1349.09 1354.14,1338.35 1374.94,1308.88 1395.75,1346.4 1416.55,1422.98 1437.36,1373.59 1458.16,1346.19 1478.97,1333.98 1499.77,1375.43 1520.58,1440.42 1541.38,1442.34 1562.18,1392.74 1582.99,1395.64 1603.79,1402.31 1624.6,1416.3 1645.4,1439.61 1666.21,1434 1687.01,1404.32 1707.82,1357.69 1728.62,1335.7 1749.43,1334.76 1770.23,1356.76 1791.03,1333.97 1811.84,1328.85 1832.64,1314 1853.45,1285.31 1874.25,1169.07 1895.06,1171.56 1915.86,1198.19 1936.67,1257.84 1957.47,1218.82 1978.27,1227.4 1999.08,1235.53 2019.88,1238.53 2040.69,1282.01 2061.49,1382.51 2082.3,1374.53 2103.1,1344.81 2123.91,1351.23 2144.71,1324.53 2165.52,1302.95 2186.32,1345.49 2207.12,1286.97 2227.93,1215.26 2248.73,1317.75 2269.54,1231.43 2290.34,1243.02 "/>
<polyline clip-path="url(#clip872)" style="stroke:#009af9; stroke-linecap:round; stroke-linejoin:round; stroke-width:4; stroke-opacity:1; fill:none" points="209.891,972.71 230.696,972.71 251.5,966.994 272.305,952.518 293.109,952.04 313.914,958.629 334.718,971.616 355.523,974.406 376.328,990.793 397.132,990.482 417.937,1003.16 438.741,1007.15 459.546,1022.54 480.35,992.02 501.155,995.135 521.959,1003.25 542.764,1009.79 563.568,1003.07 584.373,994.726 605.177,951.947 625.982,964.59 646.786,1006.42 667.591,1031.01 688.395,998.64 709.2,1014.33 730.004,1019.44 750.809,1053.97 771.613,1061.09 792.418,1039.69 813.222,1038.05 834.027,1040.17 854.831,1036.65 875.636,1038 896.44,1029.69 917.245,1035.57 938.049,1031.26 958.854,1007.48 979.658,955.387 1000.46,920.994 1021.27,874.809 1042.07,850.113 1062.88,836.329 1083.68,913.883 1104.49,888.318 1125.29,904.111 1146.09,904.282 1166.9,833.172 1187.7,857.565 1208.51,810.665 1229.31,750.826 1250.12,748.372 1270.92,790.96 1291.73,769.33 1312.53,804.331 1333.33,785.901 1354.14,853.92 1374.94,870.877 1395.75,806.258 1416.55,797.402 1437.36,748.275 1458.16,723.082 1478.97,708.207 1499.77,662.896 1520.58,587.347 1541.38,615.68 1562.18,540.48 1582.99,541.313 1603.79,542.31 1624.6,491.948 1645.4,501.241 1666.21,477.184 1687.01,445.581 1707.82,458.012 1728.62,503.841 1749.43,512.286 1770.23,512.365 1791.03,512.306 1811.84,504.954 1832.64,538.718 1853.45,534.132 1874.25,430.167 1895.06,403.193 1915.86,418.672 1936.67,402.119 1957.47,365.344 1978.27,305.849 1999.08,341.033 2019.88,410.604 2040.69,436.607 2061.49,418.778 2082.3,387.159 2103.1,287.812 2123.91,150.325 2144.71,163.616 2165.52,198.139 2186.32,335.835 2207.12,374.273 2227.93,401.55 2248.73,409.419 2269.54,434.174 2290.34,342.399 "/>
<polyline clip-path="url(#clip872)" style="stroke:#009af9; stroke-linecap:round; stroke-linejoin:round; stroke-width:4; stroke-opacity:1; fill:none" points="209.891,972.71 230.696,972.71 251.5,967.358 272.305,970.625 293.109,986.777 313.914,994.372 334.718,999.321 355.523,1001.32 376.328,977.218 397.132,963.91 417.937,959.644 438.741,966.868 459.546,935.761 480.35,909.162 501.155,955.071 521.959,961.019 542.764,916.087 563.568,923.26 584.373,931.779 605.177,951.622 625.982,938.304 646.786,946.646 667.591,938.783 688.395,986.597 709.2,981.298 730.004,976.505 750.809,1001.28 771.613,1004.45 792.418,972.246 813.222,1047.88 834.027,1016.26 854.831,963.703 875.636,975.095 896.44,976.029 917.245,973.15 938.049,981.066 958.854,916.028 979.658,913.187 1000.46,845.669 1021.27,921.931 1042.07,947.792 1062.88,917.433 1083.68,787.37 1104.49,815.499 1125.29,792.086 1146.09,868.507 1166.9,929.85 1187.7,963.888 1208.51,945.343 1229.31,976.542 1250.12,975.427 1270.92,912.904 1291.73,923.494 1312.53,875.157 1333.33,892.434 1354.14,884.826 1374.94,911.465 1395.75,871.727 1416.55,832.031 1437.36,819.764 1458.16,782.474 1478.97,837.781 1499.77,856.317 1520.58,817.343 1541.38,794.832 1562.18,771.334 1582.99,755.863 1603.79,747.059 1624.6,729.444 1645.4,798.26 1666.21,749.288 1687.01,830.342 1707.82,827.657 1728.62,853.314 1749.43,867.17 1770.23,873.658 1791.03,890.226 1811.84,948.638 1832.64,956.757 1853.45,1012.67 1874.25,1068.5 1895.06,1079.52 1915.86,1090.93 1936.67,1141.34 1957.47,1133.28 1978.27,1158.84 1999.08,1091.12 2019.88,1080.67 2040.69,1123.08 2061.49,1182.6 2082.3,1128.74 2103.1,1183.31 2123.91,1117.56 2144.71,1123.23 2165.52,1077.97 2186.32,1088.12 2207.12,1144.16 2227.93,1205.64 2248.73,1307.84 2269.54,1275.71 2290.34,1241.37 "/>
<polyline clip-path="url(#clip872)" style="stroke:#009af9; stroke-linecap:round; stroke-linejoin:round; stroke-width:4; stroke-opacity:1; fill:none" points="209.891,972.71 230.696,972.71 251.5,984.578 272.305,964.988 293.109,958.631 313.914,972.056 334.718,980.869 355.523,1003.66 376.328,998.045 397.132,987.409 417.937,984.989 438.741,967.046 459.546,970.651 480.35,983.67 501.155,973.287 521.959,1021.67 542.764,980.053 563.568,970.948 584.373,974.921 605.177,964.147 625.982,950.366 646.786,926.463 667.591,929.369 688.395,916.439 709.2,898.418 730.004,937.433 750.809,911.742 771.613,880.637 792.418,878.726 813.222,847.795 834.027,862.472 854.831,860.164 875.636,860.663 896.44,800.5 917.245,784.735 938.049,741.563 958.854,725.867 979.658,720.882 1000.46,725.629 1021.27,742.097 1042.07,653.175 1062.88,597.201 1083.68,590.972 1104.49,541.558 1125.29,501.771 1146.09,471.613 1166.9,452.664 1187.7,398.472 1208.51,397.533 1229.31,388.197 1250.12,388.3 1270.92,387.241 1291.73,427.139 1312.53,493.592 1333.33,470.374 1354.14,452.275 1374.94,526.424 1395.75,455.315 1416.55,491.753 1437.36,495.813 1458.16,490.702 1478.97,458.274 1499.77,509.7 1520.58,521.292 1541.38,455.625 1562.18,501.607 1582.99,521.245 1603.79,513.405 1624.6,540.207 1645.4,534.87 1666.21,486.255 1687.01,549.557 1707.82,523.65 1728.62,494.05 1749.43,520.178 1770.23,643.832 1791.03,599.212 1811.84,533.213 1832.64,497.717 1853.45,568.741 1874.25,558.889 1895.06,538.508 1915.86,501.948 1936.67,466.791 1957.47,493.427 1978.27,493.499 1999.08,506.539 2019.88,521.05 2040.69,534.717 2061.49,557.32 2082.3,548.808 2103.1,513.185 2123.91,540.618 2144.71,569.082 2165.52,602.556 2186.32,566.077 2207.12,641.43 2227.93,578.118 2248.73,635.531 2269.54,560.613 2290.34,554.854 "/>
<polyline clip-path="url(#clip872)" style="stroke:#e26f46; stroke-linecap:round; stroke-linejoin:round; stroke-width:6; stroke-opacity:1; fill:none" points="209.891,959.208 230.696,978.629 251.5,967.308 272.305,962.236 293.109,980.636 313.914,964.757 334.718,980.296 355.523,994.768 376.328,994.721 397.132,980.627 417.937,966.363 438.741,981.096 459.546,952.78 480.35,946.261 501.155,931.832 521.959,934.264 542.764,935.704 563.568,968.294 584.373,970.827 605.177,964.958 625.982,965.667 646.786,962.505 667.591,991.82 688.395,973.924 709.2,974.224 730.004,962.568 750.809,946.11 771.613,927.759 792.418,963.522 813.222,936.875 834.027,975.486 854.831,998.232 875.636,1030.21 896.44,1052.14 917.245,1057.54 938.049,1049.5 958.854,962.512 979.658,931.196 1000.46,923.607 1021.27,944.118 1042.07,900.581 1062.88,897.064 1083.68,841.084 1104.49,828.666 1125.29,887.231 1146.09,834.668 1166.9,857.356 1187.7,865.938 1208.51,812.791 1229.31,752.414 1250.12,795.35 1270.92,835.493 1291.73,794.721 1312.53,765.643 1333.33,709.036 1354.14,651.64 1374.94,720.533 1395.75,688.458 1416.55,686.787 1437.36,641.272 1458.16,643.592 1478.97,648.358 1499.77,667.045 1520.58,663.337 1541.38,666.258 1562.18,615.208 1582.99,600.096 1603.79,637.696 1624.6,675.76 1645.4,695.18 1666.21,735.982 1687.01,744.333 1707.82,641.342 1728.62,667.66 1749.43,701.46 1770.23,678.352 1791.03,615.598 1811.84,559.78 1832.64,582.202 1853.45,539.221 1874.25,496.971 1895.06,420.207 1915.86,353.304 1936.67,337.495 1957.47,320.749 1978.27,291.561 1999.08,294.902 2019.88,266.525 2040.69,277.488 2061.49,269.629 2082.3,305.633 2103.1,353.641 2123.91,310.848 2144.71,305.169 2165.52,297.805 2186.32,231.015 2207.12,296.195 2227.93,195.203 2248.73,302.714 2269.54,250.682 2290.34,236.161 "/>
<polyline clip-path="url(#clip872)" style="stroke:#e26f46; stroke-linecap:round; stroke-linejoin:round; stroke-width:6; stroke-opacity:1; fill:none" points="209.891,965.99 230.696,970.41 251.5,963.347 272.305,978.986 293.109,968.296 313.914,990.236 334.718,1005.6 355.523,998.975 376.328,1001.2 397.132,1026.17 417.937,1021.3 438.741,1037.16 459.546,1053.59 480.35,1080.77 501.155,1119.21 521.959,1108.28 542.764,1074.68 563.568,1042.16 584.373,1019.29 605.177,1031.68 625.982,1036.33 646.786,1042.3 667.591,1069.52 688.395,1052.1 709.2,1037.4 730.004,1040.01 750.809,1050.36 771.613,1060.41 792.418,1037.04 813.222,1064.24 834.027,1026.58 854.831,1122.35 875.636,1129.29 896.44,1170.22 917.245,1123.8 938.049,1113.63 958.854,1151.42 979.658,1078.17 1000.46,1152.34 1021.27,1169.18 1042.07,1164.12 1062.88,1212.78 1083.68,1156.44 1104.49,1165.9 1125.29,1206.97 1146.09,1247.85 1166.9,1279.29 1187.7,1255.69 1208.51,1208.96 1229.31,1231.2 1250.12,1239.26 1270.92,1278.16 1291.73,1312.35 1312.53,1363.23 1333.33,1349.79 1354.14,1338.57 1374.94,1307.74 1395.75,1346.93 1416.55,1426.95 1437.36,1375.53 1458.16,1347.01 1478.97,1334.31 1499.77,1377.5 1520.58,1445.23 1541.38,1447.38 1562.18,1395.98 1582.99,1399.09 1603.79,1406.12 1624.6,1420.76 1645.4,1445.07 1666.21,1439.42 1687.01,1408.81 1707.82,1360.65 1728.62,1337.97 1749.43,1337.06 1770.23,1359.87 1791.03,1336.4 1811.84,1331.17 1832.64,1315.89 1853.45,1286.31 1874.25,1166.37 1895.06,1168.87 1915.86,1196.27 1936.67,1257.72 1957.47,1217.5 1978.27,1226.3 1999.08,1234.66 2019.88,1237.71 2040.69,1282.44 2061.49,1385.85 2082.3,1377.71 2103.1,1347.23 2123.91,1353.89 2144.71,1326.51 2165.52,1304.38 2186.32,1348.1 2207.12,1288.08 2227.93,1214.5 2248.73,1319.65 2269.54,1231.14 2290.34,1243.02 "/>
<polyline clip-path="url(#clip872)" style="stroke:#e26f46; stroke-linecap:round; stroke-linejoin:round; stroke-width:6; stroke-opacity:1; fill:none" points="209.891,958.082 230.696,980.793 251.5,978.486 272.305,948.279 293.109,942.936 313.914,949.145 334.718,965.742 355.523,967.612 376.328,988.704 397.132,987.685 417.937,1003.69 438.741,1008.92 459.546,1028.56 480.35,992.119 501.155,995.907 521.959,1005.72 542.764,1013.79 563.568,1006.47 584.373,997.239 605.177,948.412 625.982,962.433 646.786,1009.58 667.591,1037.58 688.395,1001.96 709.2,1019.75 730.004,1025.88 750.809,1064.57 771.613,1073.25 792.418,1050.72 813.222,1049.75 834.027,1052.89 854.831,1049.95 875.636,1052.29 896.44,1044.23 917.245,1051.48 938.049,1047.8 958.854,1023.25 979.658,968.316 1000.46,932.243 1021.27,883.533 1042.07,857.665 1062.88,843.382 1083.68,926.153 1104.49,899.622 1125.29,916.897 1146.09,917.673 1166.9,843.118 1187.7,869.312 1208.51,820.366 1229.31,757.746 1250.12,755.453 1270.92,800.509 1291.73,778.177 1312.53,815.246 1333.33,796.347 1354.14,867.977 1374.94,886.241 1395.75,819.236 1416.55,810.448 1437.36,759.619 1458.16,733.728 1478.97,718.582 1499.77,671.724 1520.58,593.36 1541.38,623.033 1562.18,545.075 1582.99,546.084 1603.79,547.267 1624.6,495.143 1645.4,504.879 1666.21,480.042 1687.01,447.375 1707.82,460.302 1728.62,507.812 1749.43,516.661 1770.23,516.863 1791.03,516.923 1811.84,509.45 1832.64,544.444 1853.45,539.858 1874.25,432.701 1895.06,404.937 1915.86,420.943 1936.67,403.935 1957.47,366.081 1978.27,304.809 1999.08,341.017 2019.88,412.637 2040.69,439.444 2061.49,421.167 2082.3,388.703 2103.1,286.596 2123.91,145.256 2144.71,158.801 2165.52,194.159 2186.32,335.477 2207.12,374.931 2227.93,402.941 2248.73,411.045 2269.54,436.472 2290.34,342.399 "/>
<polyline clip-path="url(#clip872)" style="stroke:#e26f46; stroke-linecap:round; stroke-linejoin:round; stroke-width:6; stroke-opacity:1; fill:none" points="209.891,965.812 230.696,980.278 251.5,960.606 272.305,959.103 293.109,984.882 313.914,997.771 334.718,1007.6 355.523,1013.94 376.328,983.791 397.132,967.522 417.937,962.804 438.741,972.767 459.546,934.958 480.35,902.093 501.155,956.497 521.959,963.82 542.764,911.185 563.568,918.911 584.373,928.229 605.177,950.597 625.982,935.301 646.786,944.433 667.591,935.358 688.395,988.577 709.2,982.852 730.004,977.67 750.809,1005.14 771.613,1008.93 792.418,973.963 813.222,1056.76 834.027,1022.95 854.831,966.292 875.636,978.811 896.44,980.061 917.245,977.208 938.049,985.972 958.854,916.42 979.658,913.398 1000.46,841.183 1021.27,922.377 1042.07,949.969 1062.88,917.768 1083.68,779.563 1104.49,809.033 1125.29,783.913 1146.09,864.412 1166.9,929.066 1187.7,964.966 1208.51,945.458 1229.31,978.326 1250.12,977.227 1270.92,911.578 1291.73,922.646 1312.53,871.899 1333.33,889.884 1354.14,881.82 1374.94,909.584 1395.75,867.967 1416.55,826.359 1437.36,813.354 1458.16,774.232 1478.97,831.608 1499.77,850.714 1520.58,809.955 1541.38,786.295 1562.18,761.591 1582.99,745.21 1603.79,735.739 1624.6,717.113 1645.4,788.133 1666.21,737.059 1687.01,820.702 1707.82,817.646 1728.62,843.925 1749.43,858.003 1770.23,864.463 1791.03,881.343 1811.84,941.469 1832.64,949.667 1853.45,1007.21 1874.25,1064.69 1895.06,1075.97 1915.86,1087.65 1936.67,1139.54 1957.47,1131.18 1978.27,1157.47 1999.08,1087.7 2019.88,1076.85 2040.69,1120.41 2061.49,1181.58 2082.3,1126.17 2103.1,1182.22 2123.91,1114.62 2144.71,1120.37 2165.52,1073.82 2186.32,1084.15 2207.12,1141.61 2227.93,1204.65 2248.73,1309.5 2269.54,1276.57 2290.34,1241.37 "/>
<polyline clip-path="url(#clip872)" style="stroke:#e26f46; stroke-linecap:round; stroke-linejoin:round; stroke-width:6; stroke-opacity:1; fill:none" points="209.891,975.541 230.696,955.927 251.5,1001.68 272.305,963.908 293.109,948.147 313.914,966.173 334.718,977.712 355.523,1010.91 376.328,1005.33 397.132,992.902 417.937,991.086 438.741,969.441 459.546,974.438 480.35,991.14 501.155,979.815 521.959,1038.6 542.764,991.902 563.568,982.844 584.373,988.931 605.177,978.208 625.982,964.06 646.786,938.43 667.591,942.899 688.395,929.707 709.2,910.831 730.004,955.193 750.809,928.29 771.613,895.38 792.418,894.418 813.222,861.771 834.027,878.763 854.831,877.379 875.636,879.067 896.44,815.218 917.245,799.135 938.049,753.551 958.854,737.401 979.658,732.717 1000.46,738.452 1021.27,756.731 1042.07,662.706 1062.88,603.62 1083.68,597.321 1104.49,545.193 1125.29,503.203 1146.09,471.352 1166.9,451.311 1187.7,394.038 1208.51,392.855 1229.31,382.822 1250.12,382.706 1270.92,381.365 1291.73,423.028 1312.53,492.587 1333.33,468.211 1354.14,449.174 1374.94,526.651 1395.75,452.309 1416.55,490.27 1437.36,494.458 1458.16,489.079 1478.97,455.218 1499.77,508.691 1520.58,520.725 1541.38,452.386 1562.18,500.094 1582.99,520.453 1603.79,512.288 1624.6,540.073 1645.4,534.533 1666.21,484.116 1687.01,549.655 1707.82,522.824 1728.62,492.155 1749.43,519.14 1770.23,647.009 1791.03,600.964 1811.84,532.808 1832.64,496.131 1853.45,569.425 1874.25,559.273 1895.06,538.256 1915.86,500.545 1936.67,464.266 1957.47,491.655 1978.27,491.686 1999.08,505.072 2019.88,519.975 2040.69,534.016 2061.49,557.253 2082.3,548.497 2103.1,511.865 2123.91,540.032 2144.71,569.266 2165.52,603.655 2186.32,566.218 2207.12,643.581 2227.93,578.646 2248.73,637.567 2269.54,560.757 2290.34,554.854 "/>
</svg>
