<?xml version="1.0" encoding="utf-8"?>
<svg xmlns="http://www.w3.org/2000/svg" xmlns:xlink="http://www.w3.org/1999/xlink" width="600" height="400" viewBox="0 0 2400 1600">
<defs>
  <clipPath id="clip630">
    <rect x="0" y="0" width="2400" height="1600"/>
  </clipPath>
</defs>
<path clip-path="url(#clip630)" d="M0 1600 L2400 1600 L2400 0 L0 0  Z" fill="#ffffff" fill-rule="evenodd" fill-opacity="1"/>
<defs>
  <clipPath id="clip631">
    <rect x="480" y="0" width="1681" height="1600"/>
  </clipPath>
</defs>
<path clip-path="url(#clip630)" d="M169.121 1486.45 L2352.76 1486.45 L2352.76 106.192 L169.121 106.192  Z" fill="#ffffff" fill-rule="evenodd" fill-opacity="1"/>
<defs>
  <clipPath id="clip632">
    <rect x="169" y="106" width="2185" height="1381"/>
  </clipPath>
</defs>
<polyline clip-path="url(#clip632)" style="stroke:#000000; stroke-linecap:round; stroke-linejoin:round; stroke-width:2; stroke-opacity:0.1; fill:none" points="418.787,1486.45 418.787,106.192 "/>
<polyline clip-path="url(#clip632)" style="stroke:#000000; stroke-linecap:round; stroke-linejoin:round; stroke-width:2; stroke-opacity:0.1; fill:none" points="742.691,1486.45 742.691,106.192 "/>
<polyline clip-path="url(#clip632)" style="stroke:#000000; stroke-linecap:round; stroke-linejoin:round; stroke-width:2; stroke-opacity:0.1; fill:none" points="1066.6,1486.45 1066.6,106.192 "/>
<polyline clip-path="url(#clip632)" style="stroke:#000000; stroke-linecap:round; stroke-linejoin:round; stroke-width:2; stroke-opacity:0.1; fill:none" points="1390.5,1486.45 1390.5,106.192 "/>
<polyline clip-path="url(#clip632)" style="stroke:#000000; stroke-linecap:round; stroke-linejoin:round; stroke-width:2; stroke-opacity:0.1; fill:none" points="1714.4,1486.45 1714.4,106.192 "/>
<polyline clip-path="url(#clip632)" style="stroke:#000000; stroke-linecap:round; stroke-linejoin:round; stroke-width:2; stroke-opacity:0.1; fill:none" points="2038.31,1486.45 2038.31,106.192 "/>
<polyline clip-path="url(#clip630)" style="stroke:#000000; stroke-linecap:round; stroke-linejoin:round; stroke-width:4; stroke-opacity:1; fill:none" points="169.121,1486.45 2352.76,1486.45 "/>
<polyline clip-path="url(#clip630)" style="stroke:#000000; stroke-linecap:round; stroke-linejoin:round; stroke-width:4; stroke-opacity:1; fill:none" points="418.787,1486.45 418.787,1467.55 "/>
<polyline clip-path="url(#clip630)" style="stroke:#000000; stroke-linecap:round; stroke-linejoin:round; stroke-width:4; stroke-opacity:1; fill:none" points="742.691,1486.45 742.691,1467.55 "/>
<polyline clip-path="url(#clip630)" style="stroke:#000000; stroke-linecap:round; stroke-linejoin:round; stroke-width:4; stroke-opacity:1; fill:none" points="1066.6,1486.45 1066.6,1467.55 "/>
<polyline clip-path="url(#clip630)" style="stroke:#000000; stroke-linecap:round; stroke-linejoin:round; stroke-width:4; stroke-opacity:1; fill:none" points="1390.5,1486.45 1390.5,1467.55 "/>
<polyline clip-path="url(#clip630)" style="stroke:#000000; stroke-linecap:round; stroke-linejoin:round; stroke-width:4; stroke-opacity:1; fill:none" points="1714.4,1486.45 1714.4,1467.55 "/>
<polyline clip-path="url(#clip630)" style="stroke:#000000; stroke-linecap:round; stroke-linejoin:round; stroke-width:4; stroke-opacity:1; fill:none" points="2038.31,1486.45 2038.31,1467.55 "/>
<path clip-path="url(#clip630)" d="M388.255 1532.02 L417.93 1532.02 L417.93 1535.95 L388.255 1535.95 L388.255 1532.02 Z" fill="#000000" fill-rule="nonzero" fill-opacity="1" /><path clip-path="url(#clip630)" d="M442.19 1530.21 Q445.546 1530.93 447.421 1533.2 Q449.319 1535.47 449.319 1538.8 Q449.319 1543.92 445.801 1546.72 Q442.282 1549.52 435.801 1549.52 Q433.625 1549.52 431.31 1549.08 Q429.018 1548.66 426.565 1547.81 L426.565 1543.29 Q428.509 1544.43 430.824 1545.01 Q433.139 1545.58 435.662 1545.58 Q440.06 1545.58 442.352 1543.85 Q444.666 1542.11 444.666 1538.8 Q444.666 1535.75 442.514 1534.03 Q440.384 1532.3 436.565 1532.3 L432.537 1532.3 L432.537 1528.45 L436.75 1528.45 Q440.199 1528.45 442.028 1527.09 Q443.856 1525.7 443.856 1523.11 Q443.856 1520.45 441.958 1519.03 Q440.083 1517.6 436.565 1517.6 Q434.643 1517.6 432.444 1518.01 Q430.245 1518.43 427.606 1519.31 L427.606 1515.14 Q430.268 1514.4 432.583 1514.03 Q434.921 1513.66 436.981 1513.66 Q442.305 1513.66 445.407 1516.09 Q448.509 1518.5 448.509 1522.62 Q448.509 1525.49 446.865 1527.48 Q445.222 1529.45 442.19 1530.21 Z" fill="#000000" fill-rule="nonzero" fill-opacity="1" /><path clip-path="url(#clip630)" d="M712.634 1532.02 L742.309 1532.02 L742.309 1535.95 L712.634 1535.95 L712.634 1532.02 Z" fill="#000000" fill-rule="nonzero" fill-opacity="1" /><path clip-path="url(#clip630)" d="M756.43 1544.91 L772.749 1544.91 L772.749 1548.85 L750.805 1548.85 L750.805 1544.91 Q753.467 1542.16 758.05 1537.53 Q762.657 1532.88 763.837 1531.53 Q766.082 1529.01 766.962 1527.27 Q767.865 1525.51 767.865 1523.82 Q767.865 1521.07 765.92 1519.33 Q763.999 1517.6 760.897 1517.6 Q758.698 1517.6 756.245 1518.36 Q753.814 1519.13 751.036 1520.68 L751.036 1515.95 Q753.86 1514.82 756.314 1514.24 Q758.768 1513.66 760.805 1513.66 Q766.175 1513.66 769.37 1516.35 Q772.564 1519.03 772.564 1523.52 Q772.564 1525.65 771.754 1527.57 Q770.967 1529.47 768.86 1532.07 Q768.282 1532.74 765.18 1535.95 Q762.078 1539.15 756.43 1544.91 Z" fill="#000000" fill-rule="nonzero" fill-opacity="1" /><path clip-path="url(#clip630)" d="M1036.35 1532.02 L1066.03 1532.02 L1066.03 1535.95 L1036.35 1535.95 L1036.35 1532.02 Z" fill="#000000" fill-rule="nonzero" fill-opacity="1" /><path clip-path="url(#clip630)" d="M1076.93 1544.91 L1084.57 1544.91 L1084.57 1518.55 L1076.26 1520.21 L1076.26 1515.95 L1084.52 1514.29 L1089.2 1514.29 L1089.2 1544.91 L1096.84 1544.91 L1096.84 1548.85 L1076.93 1548.85 L1076.93 1544.91 Z" fill="#000000" fill-rule="nonzero" fill-opacity="1" /><path clip-path="url(#clip630)" d="M1390.5 1517.37 Q1386.89 1517.37 1385.06 1520.93 Q1383.26 1524.47 1383.26 1531.6 Q1383.26 1538.71 1385.06 1542.27 Q1386.89 1545.82 1390.5 1545.82 Q1394.13 1545.82 1395.94 1542.27 Q1397.77 1538.71 1397.77 1531.6 Q1397.77 1524.47 1395.94 1520.93 Q1394.13 1517.37 1390.5 1517.37 M1390.5 1513.66 Q1396.31 1513.66 1399.37 1518.27 Q1402.44 1522.85 1402.44 1531.6 Q1402.44 1540.33 1399.37 1544.94 Q1396.31 1549.52 1390.5 1549.52 Q1384.69 1549.52 1381.61 1544.94 Q1378.56 1540.33 1378.56 1531.6 Q1378.56 1522.85 1381.61 1518.27 Q1384.69 1513.66 1390.5 1513.66 Z" fill="#000000" fill-rule="nonzero" fill-opacity="1" /><path clip-path="url(#clip630)" d="M1704.79 1544.91 L1712.43 1544.91 L1712.43 1518.55 L1704.12 1520.21 L1704.12 1515.95 L1712.38 1514.29 L1717.06 1514.29 L1717.06 1544.91 L1724.69 1544.91 L1724.69 1548.85 L1704.79 1548.85 L1704.79 1544.91 Z" fill="#000000" fill-rule="nonzero" fill-opacity="1" /><path clip-path="url(#clip630)" d="M2032.96 1544.91 L2049.28 1544.91 L2049.28 1548.85 L2027.34 1548.85 L2027.34 1544.91 Q2030 1542.16 2034.58 1537.53 Q2039.19 1532.88 2040.37 1531.53 Q2042.61 1529.01 2043.49 1527.27 Q2044.4 1525.51 2044.4 1523.82 Q2044.4 1521.07 2042.45 1519.33 Q2040.53 1517.6 2037.43 1517.6 Q2035.23 1517.6 2032.78 1518.36 Q2030.35 1519.13 2027.57 1520.68 L2027.57 1515.95 Q2030.39 1514.82 2032.85 1514.24 Q2035.3 1513.66 2037.34 1513.66 Q2042.71 1513.66 2045.9 1516.35 Q2049.1 1519.03 2049.1 1523.52 Q2049.1 1525.65 2048.29 1527.57 Q2047.5 1529.47 2045.39 1532.07 Q2044.81 1532.74 2041.71 1535.95 Q2038.61 1539.15 2032.96 1544.91 Z" fill="#000000" fill-rule="nonzero" fill-opacity="1" /><polyline clip-path="url(#clip632)" style="stroke:#000000; stroke-linecap:round; stroke-linejoin:round; stroke-width:2; stroke-opacity:0.1; fill:none" points="169.121,1486.45 2352.76,1486.45 "/>
<polyline clip-path="url(#clip632)" style="stroke:#000000; stroke-linecap:round; stroke-linejoin:round; stroke-width:2; stroke-opacity:0.1; fill:none" points="169.121,1166.94 2352.76,1166.94 "/>
<polyline clip-path="url(#clip632)" style="stroke:#000000; stroke-linecap:round; stroke-linejoin:round; stroke-width:2; stroke-opacity:0.1; fill:none" points="169.121,847.441 2352.76,847.441 "/>
<polyline clip-path="url(#clip632)" style="stroke:#000000; stroke-linecap:round; stroke-linejoin:round; stroke-width:2; stroke-opacity:0.1; fill:none" points="169.121,527.937 2352.76,527.937 "/>
<polyline clip-path="url(#clip632)" style="stroke:#000000; stroke-linecap:round; stroke-linejoin:round; stroke-width:2; stroke-opacity:0.1; fill:none" points="169.121,208.433 2352.76,208.433 "/>
<polyline clip-path="url(#clip630)" style="stroke:#000000; stroke-linecap:round; stroke-linejoin:round; stroke-width:4; stroke-opacity:1; fill:none" points="169.121,1486.45 169.121,106.192 "/>
<polyline clip-path="url(#clip630)" style="stroke:#000000; stroke-linecap:round; stroke-linejoin:round; stroke-width:4; stroke-opacity:1; fill:none" points="169.121,1486.45 188.019,1486.45 "/>
<polyline clip-path="url(#clip630)" style="stroke:#000000; stroke-linecap:round; stroke-linejoin:round; stroke-width:4; stroke-opacity:1; fill:none" points="169.121,1166.94 188.019,1166.94 "/>
<polyline clip-path="url(#clip630)" style="stroke:#000000; stroke-linecap:round; stroke-linejoin:round; stroke-width:4; stroke-opacity:1; fill:none" points="169.121,847.441 188.019,847.441 "/>
<polyline clip-path="url(#clip630)" style="stroke:#000000; stroke-linecap:round; stroke-linejoin:round; stroke-width:4; stroke-opacity:1; fill:none" points="169.121,527.937 188.019,527.937 "/>
<polyline clip-path="url(#clip630)" style="stroke:#000000; stroke-linecap:round; stroke-linejoin:round; stroke-width:4; stroke-opacity:1; fill:none" points="169.121,208.433 188.019,208.433 "/>
<path clip-path="url(#clip630)" d="M121.177 1472.25 Q117.566 1472.25 115.737 1475.81 Q113.932 1479.35 113.932 1486.48 Q113.932 1493.59 115.737 1497.15 Q117.566 1500.7 121.177 1500.7 Q124.811 1500.7 126.617 1497.15 Q128.445 1493.59 128.445 1486.48 Q128.445 1479.35 126.617 1475.81 Q124.811 1472.25 121.177 1472.25 M121.177 1468.54 Q126.987 1468.54 130.043 1473.15 Q133.121 1477.73 133.121 1486.48 Q133.121 1495.21 130.043 1499.82 Q126.987 1504.4 121.177 1504.4 Q115.367 1504.4 112.288 1499.82 Q109.233 1495.21 109.233 1486.48 Q109.233 1477.73 112.288 1473.15 Q115.367 1468.54 121.177 1468.54 Z" fill="#000000" fill-rule="nonzero" fill-opacity="1" /><path clip-path="url(#clip630)" d="M86.0382 1180.29 L102.358 1180.29 L102.358 1184.22 L80.4133 1184.22 L80.4133 1180.29 Q83.0753 1177.53 87.6586 1172.9 Q92.2651 1168.25 93.4456 1166.91 Q95.691 1164.39 96.5706 1162.65 Q97.4734 1160.89 97.4734 1159.2 Q97.4734 1156.45 95.5289 1154.71 Q93.6076 1152.97 90.5058 1152.97 Q88.3067 1152.97 85.8531 1153.74 Q83.4225 1154.5 80.6447 1156.05 L80.6447 1151.33 Q83.4688 1150.2 85.9225 1149.62 Q88.3762 1149.04 90.4132 1149.04 Q95.7836 1149.04 98.978 1151.72 Q102.172 1154.41 102.172 1158.9 Q102.172 1161.03 101.362 1162.95 Q100.575 1164.85 98.4687 1167.44 Q97.89 1168.11 94.7882 1171.33 Q91.6864 1174.53 86.0382 1180.29 Z" fill="#000000" fill-rule="nonzero" fill-opacity="1" /><path clip-path="url(#clip630)" d="M112.219 1149.66 L130.575 1149.66 L130.575 1153.6 L116.501 1153.6 L116.501 1162.07 Q117.52 1161.72 118.538 1161.56 Q119.557 1161.38 120.575 1161.38 Q126.362 1161.38 129.742 1164.55 Q133.121 1167.72 133.121 1173.14 Q133.121 1178.71 129.649 1181.82 Q126.177 1184.9 119.857 1184.9 Q117.682 1184.9 115.413 1184.53 Q113.168 1184.15 110.76 1183.41 L110.76 1178.71 Q112.844 1179.85 115.066 1180.4 Q117.288 1180.96 119.765 1180.96 Q123.77 1180.96 126.107 1178.85 Q128.445 1176.75 128.445 1173.14 Q128.445 1169.53 126.107 1167.42 Q123.77 1165.31 119.765 1165.31 Q117.89 1165.31 116.015 1165.73 Q114.163 1166.15 112.219 1167.03 L112.219 1149.66 Z" fill="#000000" fill-rule="nonzero" fill-opacity="1" /><path clip-path="url(#clip630)" d="M81.0614 830.161 L99.4178 830.161 L99.4178 834.096 L85.3438 834.096 L85.3438 842.568 Q86.3623 842.221 87.3808 842.059 Q88.3993 841.873 89.4178 841.873 Q95.2049 841.873 98.5845 845.045 Q101.964 848.216 101.964 853.633 Q101.964 859.211 98.4919 862.313 Q95.0197 865.392 88.7003 865.392 Q86.5243 865.392 84.2558 865.022 Q82.0105 864.651 79.6031 863.91 L79.6031 859.211 Q81.6864 860.346 83.9086 860.901 Q86.1308 861.457 88.6077 861.457 Q92.6123 861.457 94.9502 859.35 Q97.2882 857.244 97.2882 853.633 Q97.2882 850.022 94.9502 847.915 Q92.6123 845.809 88.6077 845.809 Q86.7327 845.809 84.8577 846.225 Q83.0058 846.642 81.0614 847.522 L81.0614 830.161 Z" fill="#000000" fill-rule="nonzero" fill-opacity="1" /><path clip-path="url(#clip630)" d="M121.177 833.239 Q117.566 833.239 115.737 836.804 Q113.932 840.346 113.932 847.475 Q113.932 854.582 115.737 858.147 Q117.566 861.688 121.177 861.688 Q124.811 861.688 126.617 858.147 Q128.445 854.582 128.445 847.475 Q128.445 840.346 126.617 836.804 Q124.811 833.239 121.177 833.239 M121.177 829.536 Q126.987 829.536 130.043 834.142 Q133.121 838.725 133.121 847.475 Q133.121 856.202 130.043 860.809 Q126.987 865.392 121.177 865.392 Q115.367 865.392 112.288 860.809 Q109.233 856.202 109.233 847.475 Q109.233 838.725 112.288 834.142 Q115.367 829.536 121.177 829.536 Z" fill="#000000" fill-rule="nonzero" fill-opacity="1" /><path clip-path="url(#clip630)" d="M80.8299 510.657 L103.052 510.657 L103.052 512.648 L90.5058 545.217 L85.6216 545.217 L97.4271 514.592 L80.8299 514.592 L80.8299 510.657 Z" fill="#000000" fill-rule="nonzero" fill-opacity="1" /><path clip-path="url(#clip630)" d="M112.219 510.657 L130.575 510.657 L130.575 514.592 L116.501 514.592 L116.501 523.064 Q117.52 522.717 118.538 522.555 Q119.557 522.37 120.575 522.37 Q126.362 522.37 129.742 525.541 Q133.121 528.712 133.121 534.129 Q133.121 539.708 129.649 542.81 Q126.177 545.888 119.857 545.888 Q117.682 545.888 115.413 545.518 Q113.168 545.147 110.76 544.407 L110.76 539.708 Q112.844 540.842 115.066 541.398 Q117.288 541.953 119.765 541.953 Q123.77 541.953 126.107 539.847 Q128.445 537.74 128.445 534.129 Q128.445 530.518 126.107 528.411 Q123.77 526.305 119.765 526.305 Q117.89 526.305 116.015 526.722 Q114.163 527.138 112.219 528.018 L112.219 510.657 Z" fill="#000000" fill-rule="nonzero" fill-opacity="1" /><path clip-path="url(#clip630)" d="M51.6634 221.778 L59.3023 221.778 L59.3023 195.413 L50.9921 197.079 L50.9921 192.82 L59.256 191.153 L63.9319 191.153 L63.9319 221.778 L71.5707 221.778 L71.5707 225.713 L51.6634 225.713 L51.6634 221.778 Z" fill="#000000" fill-rule="nonzero" fill-opacity="1" /><path clip-path="url(#clip630)" d="M91.0151 194.232 Q87.404 194.232 85.5753 197.797 Q83.7697 201.338 83.7697 208.468 Q83.7697 215.574 85.5753 219.139 Q87.404 222.681 91.0151 222.681 Q94.6493 222.681 96.4548 219.139 Q98.2835 215.574 98.2835 208.468 Q98.2835 201.338 96.4548 197.797 Q94.6493 194.232 91.0151 194.232 M91.0151 190.528 Q96.8252 190.528 99.8808 195.135 Q102.959 199.718 102.959 208.468 Q102.959 217.195 99.8808 221.801 Q96.8252 226.385 91.0151 226.385 Q85.2049 226.385 82.1262 221.801 Q79.0707 217.195 79.0707 208.468 Q79.0707 199.718 82.1262 195.135 Q85.2049 190.528 91.0151 190.528 Z" fill="#000000" fill-rule="nonzero" fill-opacity="1" /><path clip-path="url(#clip630)" d="M121.177 194.232 Q117.566 194.232 115.737 197.797 Q113.932 201.338 113.932 208.468 Q113.932 215.574 115.737 219.139 Q117.566 222.681 121.177 222.681 Q124.811 222.681 126.617 219.139 Q128.445 215.574 128.445 208.468 Q128.445 201.338 126.617 197.797 Q124.811 194.232 121.177 194.232 M121.177 190.528 Q126.987 190.528 130.043 195.135 Q133.121 199.718 133.121 208.468 Q133.121 217.195 130.043 221.801 Q126.987 226.385 121.177 226.385 Q115.367 226.385 112.288 221.801 Q109.233 217.195 109.233 208.468 Q109.233 199.718 112.288 195.135 Q115.367 190.528 121.177 190.528 Z" fill="#000000" fill-rule="nonzero" fill-opacity="1" /><path clip-path="url(#clip630)" d="M1003.82 32.2799 L1003.82 51.84 L998.498 51.84 L998.498 32.4535 Q998.498 27.8529 996.704 25.567 Q994.91 23.2811 991.322 23.2811 Q987.011 23.2811 984.522 26.03 Q982.034 28.7788 982.034 33.5241 L982.034 51.84 L976.681 51.84 L976.681 6.81709 L982.034 6.81709 L982.034 24.4675 Q983.944 21.545 986.519 20.0983 Q989.123 18.6515 992.508 18.6515 Q998.093 18.6515 1000.96 22.1237 Q1003.82 25.567 1003.82 32.2799 Z" fill="#000000" fill-rule="nonzero" fill-opacity="1" /><path clip-path="url(#clip630)" d="M1014.44 19.4328 L1019.77 19.4328 L1019.77 51.84 L1014.44 51.84 L1014.44 19.4328 M1014.44 6.81709 L1019.77 6.81709 L1019.77 13.559 L1014.44 13.559 L1014.44 6.81709 Z" fill="#000000" fill-rule="nonzero" fill-opacity="1" /><path clip-path="url(#clip630)" d="M1051.56 20.3876 L1051.56 25.4223 Q1049.31 24.2649 1046.88 23.6862 Q1044.45 23.1075 1041.84 23.1075 Q1037.88 23.1075 1035.88 24.3228 Q1033.91 25.5381 1033.91 27.9686 Q1033.91 29.8204 1035.33 30.891 Q1036.75 31.9327 1041.03 32.8876 L1042.86 33.2926 Q1048.53 34.5079 1050.9 36.7359 Q1053.3 38.935 1053.3 42.8991 Q1053.3 47.4129 1049.71 50.046 Q1046.15 52.6791 1039.9 52.6791 Q1037.3 52.6791 1034.46 52.1583 Q1031.66 51.6664 1028.53 50.6537 L1028.53 45.156 Q1031.48 46.6896 1034.35 47.4708 Q1037.21 48.2231 1040.02 48.2231 Q1043.78 48.2231 1045.81 46.95 Q1047.83 45.6479 1047.83 43.3042 Q1047.83 41.134 1046.36 39.9766 Q1044.91 38.8192 1039.96 37.7486 L1038.11 37.3146 Q1033.16 36.273 1030.96 34.1318 Q1028.76 31.9616 1028.76 28.2001 Q1028.76 23.6283 1032 21.1399 Q1035.25 18.6515 1041.21 18.6515 Q1044.16 18.6515 1046.76 19.0855 Q1049.37 19.5196 1051.56 20.3876 Z" fill="#000000" fill-rule="nonzero" fill-opacity="1" /><path clip-path="url(#clip630)" d="M1067.04 10.2314 L1067.04 19.4328 L1078.01 19.4328 L1078.01 23.5705 L1067.04 23.5705 L1067.04 41.163 Q1067.04 45.1271 1068.12 46.2555 Q1069.22 47.384 1072.54 47.384 L1078.01 47.384 L1078.01 51.84 L1072.54 51.84 Q1066.38 51.84 1064.04 49.5541 Q1061.69 47.2393 1061.69 41.163 L1061.69 23.5705 L1057.79 23.5705 L1057.79 19.4328 L1061.69 19.4328 L1061.69 10.2314 L1067.04 10.2314 Z" fill="#000000" fill-rule="nonzero" fill-opacity="1" /><path clip-path="url(#clip630)" d="M1097.57 23.1654 Q1093.29 23.1654 1090.8 26.5218 Q1088.31 29.8494 1088.31 35.6653 Q1088.31 41.4813 1090.77 44.8377 Q1093.26 48.1653 1097.57 48.1653 Q1101.82 48.1653 1104.31 44.8088 Q1106.8 41.4523 1106.8 35.6653 Q1106.8 29.9072 1104.31 26.5508 Q1101.82 23.1654 1097.57 23.1654 M1097.57 18.6515 Q1104.52 18.6515 1108.48 23.1654 Q1112.44 27.6792 1112.44 35.6653 Q1112.44 43.6225 1108.48 48.1653 Q1104.52 52.6791 1097.57 52.6791 Q1090.6 52.6791 1086.63 48.1653 Q1082.7 43.6225 1082.7 35.6653 Q1082.7 27.6792 1086.63 23.1654 Q1090.6 18.6515 1097.57 18.6515 Z" fill="#000000" fill-rule="nonzero" fill-opacity="1" /><path clip-path="url(#clip630)" d="M1142.59 35.2602 Q1142.59 29.4732 1140.19 26.2904 Q1137.82 23.1075 1133.51 23.1075 Q1129.23 23.1075 1126.82 26.2904 Q1124.45 29.4732 1124.45 35.2602 Q1124.45 41.0183 1126.82 44.2012 Q1129.23 47.384 1133.51 47.384 Q1137.82 47.384 1140.19 44.2012 Q1142.59 41.0183 1142.59 35.2602 M1147.92 47.818 Q1147.92 56.0934 1144.24 60.1154 Q1140.57 64.1663 1132.99 64.1663 Q1130.18 64.1663 1127.69 63.7323 Q1125.2 63.3272 1122.86 62.4592 L1122.86 57.2798 Q1125.2 58.5529 1127.49 59.1606 Q1129.78 59.7682 1132.15 59.7682 Q1137.39 59.7682 1139.99 57.0194 Q1142.59 54.2995 1142.59 48.7729 L1142.59 46.1398 Q1140.95 49.0044 1138.37 50.4222 Q1135.79 51.84 1132.21 51.84 Q1126.25 51.84 1122.6 47.2972 Q1118.95 42.7544 1118.95 35.2602 Q1118.95 27.7371 1122.6 23.1943 Q1126.25 18.6515 1132.21 18.6515 Q1135.79 18.6515 1138.37 20.0693 Q1140.95 21.4872 1142.59 24.3517 L1142.59 19.4328 L1147.92 19.4328 L1147.92 47.818 Z" fill="#000000" fill-rule="nonzero" fill-opacity="1" /><path clip-path="url(#clip630)" d="M1177.66 24.4096 Q1176.77 23.8888 1175.7 23.6573 Q1174.65 23.3969 1173.38 23.3969 Q1168.87 23.3969 1166.44 26.3482 Q1164.04 29.2707 1164.04 34.7683 L1164.04 51.84 L1158.68 51.84 L1158.68 19.4328 L1164.04 19.4328 L1164.04 24.4675 Q1165.71 21.5161 1168.4 20.0983 Q1171.1 18.6515 1174.94 18.6515 Q1175.49 18.6515 1176.16 18.7383 Q1176.82 18.7962 1177.63 18.9409 L1177.66 24.4096 Z" fill="#000000" fill-rule="nonzero" fill-opacity="1" /><path clip-path="url(#clip630)" d="M1197.98 35.5496 Q1191.52 35.5496 1189.04 37.0253 Q1186.55 38.501 1186.55 42.06 Q1186.55 44.8956 1188.4 46.5738 Q1190.28 48.2231 1193.49 48.2231 Q1197.92 48.2231 1200.58 45.0981 Q1203.27 41.9442 1203.27 36.7359 L1203.27 35.5496 L1197.98 35.5496 M1208.6 33.3505 L1208.6 51.84 L1203.27 51.84 L1203.27 46.921 Q1201.45 49.8724 1198.73 51.2902 Q1196.01 52.6791 1192.07 52.6791 Q1187.1 52.6791 1184.15 49.9014 Q1181.22 47.0947 1181.22 42.4072 Q1181.22 36.9385 1184.87 34.1607 Q1188.54 31.3829 1195.81 31.3829 L1203.27 31.3829 L1203.27 30.8621 Q1203.27 27.1874 1200.84 25.1908 Q1198.44 23.1654 1194.07 23.1654 Q1191.29 23.1654 1188.66 23.8309 Q1186.03 24.4964 1183.6 25.8274 L1183.6 20.9085 Q1186.52 19.78 1189.27 19.2302 Q1192.02 18.6515 1194.62 18.6515 Q1201.65 18.6515 1205.12 22.2973 Q1208.6 25.9431 1208.6 33.3505 Z" fill="#000000" fill-rule="nonzero" fill-opacity="1" /><path clip-path="url(#clip630)" d="M1244.79 25.6538 Q1246.79 22.0659 1249.57 20.3587 Q1252.34 18.6515 1256.11 18.6515 Q1261.17 18.6515 1263.92 22.2105 Q1266.67 25.7406 1266.67 32.2799 L1266.67 51.84 L1261.31 51.84 L1261.31 32.4535 Q1261.31 27.795 1259.67 25.5381 Q1258.02 23.2811 1254.63 23.2811 Q1250.49 23.2811 1248.09 26.03 Q1245.69 28.7788 1245.69 33.5241 L1245.69 51.84 L1240.34 51.84 L1240.34 32.4535 Q1240.34 27.7661 1238.69 25.5381 Q1237.04 23.2811 1233.6 23.2811 Q1229.52 23.2811 1227.11 26.0589 Q1224.71 28.8077 1224.71 33.5241 L1224.71 51.84 L1219.36 51.84 L1219.36 19.4328 L1224.71 19.4328 L1224.71 24.4675 Q1226.53 21.4872 1229.08 20.0693 Q1231.63 18.6515 1235.13 18.6515 Q1238.66 18.6515 1241.12 20.4455 Q1243.61 22.2395 1244.79 25.6538 Z" fill="#000000" fill-rule="nonzero" fill-opacity="1" /><path clip-path="url(#clip630)" d="M1308.68 23.1654 Q1304.4 23.1654 1301.91 26.5218 Q1299.42 29.8494 1299.42 35.6653 Q1299.42 41.4813 1301.88 44.8377 Q1304.37 48.1653 1308.68 48.1653 Q1312.93 48.1653 1315.42 44.8088 Q1317.91 41.4523 1317.91 35.6653 Q1317.91 29.9072 1315.42 26.5508 Q1312.93 23.1654 1308.68 23.1654 M1308.68 18.6515 Q1315.63 18.6515 1319.59 23.1654 Q1323.55 27.6792 1323.55 35.6653 Q1323.55 43.6225 1319.59 48.1653 Q1315.63 52.6791 1308.68 52.6791 Q1301.71 52.6791 1297.74 48.1653 Q1293.81 43.6225 1293.81 35.6653 Q1293.81 27.6792 1297.74 23.1654 Q1301.71 18.6515 1308.68 18.6515 Z" fill="#000000" fill-rule="nonzero" fill-opacity="1" /><path clip-path="url(#clip630)" d="M1348.79 6.81709 L1348.79 11.2442 L1343.69 11.2442 Q1340.83 11.2442 1339.7 12.4016 Q1338.6 13.559 1338.6 16.5682 L1338.6 19.4328 L1347.37 19.4328 L1347.37 23.5705 L1338.6 23.5705 L1338.6 51.84 L1333.25 51.84 L1333.25 23.5705 L1328.15 23.5705 L1328.15 19.4328 L1333.25 19.4328 L1333.25 17.1758 Q1333.25 11.765 1335.76 9.30551 Q1338.28 6.81709 1343.75 6.81709 L1348.79 6.81709 Z" fill="#000000" fill-rule="nonzero" fill-opacity="1" /><path clip-path="url(#clip630)" d="M1395.34 35.6653 Q1395.34 29.7915 1392.91 26.464 Q1390.51 23.1075 1386.29 23.1075 Q1382.06 23.1075 1379.63 26.464 Q1377.23 29.7915 1377.23 35.6653 Q1377.23 41.5391 1379.63 44.8956 Q1382.06 48.2231 1386.29 48.2231 Q1390.51 48.2231 1392.91 44.8956 Q1395.34 41.5391 1395.34 35.6653 M1377.23 24.3517 Q1378.91 21.4582 1381.45 20.0693 Q1384.03 18.6515 1387.59 18.6515 Q1393.49 18.6515 1397.16 23.339 Q1400.87 28.0265 1400.87 35.6653 Q1400.87 43.3042 1397.16 47.9916 Q1393.49 52.6791 1387.59 52.6791 Q1384.03 52.6791 1381.45 51.2902 Q1378.91 49.8724 1377.23 46.9789 L1377.23 51.84 L1371.88 51.84 L1371.88 6.81709 L1377.23 6.81709 L1377.23 24.3517 Z" fill="#000000" fill-rule="nonzero" fill-opacity="1" /><path clip-path="url(#clip630)" d="M1424.42 35.5496 Q1417.97 35.5496 1415.48 37.0253 Q1412.99 38.501 1412.99 42.06 Q1412.99 44.8956 1414.84 46.5738 Q1416.72 48.2231 1419.94 48.2231 Q1424.36 48.2231 1427.03 45.0981 Q1429.72 41.9442 1429.72 36.7359 L1429.72 35.5496 L1424.42 35.5496 M1435.04 33.3505 L1435.04 51.84 L1429.72 51.84 L1429.72 46.921 Q1427.89 49.8724 1425.17 51.2902 Q1422.45 52.6791 1418.52 52.6791 Q1413.54 52.6791 1410.59 49.9014 Q1407.67 47.0947 1407.67 42.4072 Q1407.67 36.9385 1411.31 34.1607 Q1414.99 31.3829 1422.25 31.3829 L1429.72 31.3829 L1429.72 30.8621 Q1429.72 27.1874 1427.29 25.1908 Q1424.88 23.1654 1420.52 23.1654 Q1417.74 23.1654 1415.1 23.8309 Q1412.47 24.4964 1410.04 25.8274 L1410.04 20.9085 Q1412.96 19.78 1415.71 19.2302 Q1418.46 18.6515 1421.07 18.6515 Q1428.1 18.6515 1431.57 22.2973 Q1435.04 25.9431 1435.04 33.3505 Z" fill="#000000" fill-rule="nonzero" fill-opacity="1" /><path clip-path="url(#clip630)" d="M1464.79 24.4096 Q1463.89 23.8888 1462.82 23.6573 Q1461.78 23.3969 1460.5 23.3969 Q1455.99 23.3969 1453.56 26.3482 Q1451.16 29.2707 1451.16 34.7683 L1451.16 51.84 L1445.8 51.84 L1445.8 19.4328 L1451.16 19.4328 L1451.16 24.4675 Q1452.84 21.5161 1455.53 20.0983 Q1458.22 18.6515 1462.07 18.6515 Q1462.62 18.6515 1463.28 18.7383 Q1463.95 18.7962 1464.76 18.9409 L1464.79 24.4096 Z" fill="#000000" fill-rule="nonzero" fill-opacity="1" /><path clip-path="url(#clip630)" d="M1466.75 8.64 L1472.66 8.64 L1481.74 45.156 L1490.8 8.64 L1497.37 8.64 L1506.45 45.156 L1515.51 8.64 L1521.44 8.64 L1510.59 51.84 L1503.24 51.84 L1494.13 14.3402 L1484.92 51.84 L1477.58 51.84 L1466.75 8.64 Z" fill="#000000" fill-rule="nonzero" fill-opacity="1" /><path clip-path="url(#clip630)" d="M1534.23 10.2314 L1534.23 19.4328 L1545.2 19.4328 L1545.2 23.5705 L1534.23 23.5705 L1534.23 41.163 Q1534.23 45.1271 1535.3 46.2555 Q1536.4 47.384 1539.73 47.384 L1545.2 47.384 L1545.2 51.84 L1539.73 51.84 Q1533.56 51.84 1531.22 49.5541 Q1528.88 47.2393 1528.88 41.163 L1528.88 23.5705 L1524.97 23.5705 L1524.97 19.4328 L1528.88 19.4328 L1528.88 10.2314 L1534.23 10.2314 Z" fill="#000000" fill-rule="nonzero" fill-opacity="1" /><path clip-path="url(#clip632)" d="M289.225 1473.67 L289.225 1486.45 L354.006 1486.45 L354.006 1473.67 L289.225 1473.67 L289.225 1473.67  Z" fill="#009af9" fill-rule="evenodd" fill-opacity="1"/>
<polyline clip-path="url(#clip632)" style="stroke:#000000; stroke-linecap:round; stroke-linejoin:round; stroke-width:4; stroke-opacity:1; fill:none" points="289.225,1473.67 289.225,1486.45 354.006,1486.45 354.006,1473.67 289.225,1473.67 "/>
<path clip-path="url(#clip632)" d="M354.006 1473.67 L354.006 1486.45 L418.787 1486.45 L418.787 1473.67 L354.006 1473.67 L354.006 1473.67  Z" fill="#009af9" fill-rule="evenodd" fill-opacity="1"/>
<polyline clip-path="url(#clip632)" style="stroke:#000000; stroke-linecap:round; stroke-linejoin:round; stroke-width:4; stroke-opacity:1; fill:none" points="354.006,1473.67 354.006,1486.45 418.787,1486.45 418.787,1473.67 354.006,1473.67 "/>
<path clip-path="url(#clip632)" d="M418.787 1486.45 L418.787 1486.45 L483.568 1486.45 L483.568 1486.45 L418.787 1486.45 L418.787 1486.45  Z" fill="#009af9" fill-rule="evenodd" fill-opacity="1"/>
<polyline clip-path="url(#clip632)" style="stroke:#000000; stroke-linecap:round; stroke-linejoin:round; stroke-width:4; stroke-opacity:1; fill:none" points="418.787,1486.45 418.787,1486.45 483.568,1486.45 418.787,1486.45 "/>
<path clip-path="url(#clip632)" d="M483.568 1486.45 L483.568 1486.45 L548.349 1486.45 L548.349 1486.45 L483.568 1486.45 L483.568 1486.45  Z" fill="#009af9" fill-rule="evenodd" fill-opacity="1"/>
<polyline clip-path="url(#clip632)" style="stroke:#000000; stroke-linecap:round; stroke-linejoin:round; stroke-width:4; stroke-opacity:1; fill:none" points="483.568,1486.45 483.568,1486.45 548.349,1486.45 483.568,1486.45 "/>
<path clip-path="url(#clip632)" d="M548.349 1473.67 L548.349 1486.45 L613.13 1486.45 L613.13 1473.67 L548.349 1473.67 L548.349 1473.67  Z" fill="#009af9" fill-rule="evenodd" fill-opacity="1"/>
<polyline clip-path="url(#clip632)" style="stroke:#000000; stroke-linecap:round; stroke-linejoin:round; stroke-width:4; stroke-opacity:1; fill:none" points="548.349,1473.67 548.349,1486.45 613.13,1486.45 613.13,1473.67 548.349,1473.67 "/>
<path clip-path="url(#clip632)" d="M613.13 1486.45 L613.13 1486.45 L677.911 1486.45 L677.911 1486.45 L613.13 1486.45 L613.13 1486.45  Z" fill="#009af9" fill-rule="evenodd" fill-opacity="1"/>
<polyline clip-path="url(#clip632)" style="stroke:#000000; stroke-linecap:round; stroke-linejoin:round; stroke-width:4; stroke-opacity:1; fill:none" points="613.13,1486.45 613.13,1486.45 677.911,1486.45 613.13,1486.45 "/>
<path clip-path="url(#clip632)" d="M677.911 1422.55 L677.911 1486.45 L742.691 1486.45 L742.691 1422.55 L677.911 1422.55 L677.911 1422.55  Z" fill="#009af9" fill-rule="evenodd" fill-opacity="1"/>
<polyline clip-path="url(#clip632)" style="stroke:#000000; stroke-linecap:round; stroke-linejoin:round; stroke-width:4; stroke-opacity:1; fill:none" points="677.911,1422.55 677.911,1486.45 742.691,1486.45 742.691,1422.55 677.911,1422.55 "/>
<path clip-path="url(#clip632)" d="M742.691 1396.99 L742.691 1486.45 L807.472 1486.45 L807.472 1396.99 L742.691 1396.99 L742.691 1396.99  Z" fill="#009af9" fill-rule="evenodd" fill-opacity="1"/>
<polyline clip-path="url(#clip632)" style="stroke:#000000; stroke-linecap:round; stroke-linejoin:round; stroke-width:4; stroke-opacity:1; fill:none" points="742.691,1396.99 742.691,1486.45 807.472,1486.45 807.472,1396.99 742.691,1396.99 "/>
<path clip-path="url(#clip632)" d="M807.472 1269.19 L807.472 1486.45 L872.253 1486.45 L872.253 1269.19 L807.472 1269.19 L807.472 1269.19  Z" fill="#009af9" fill-rule="evenodd" fill-opacity="1"/>
<polyline clip-path="url(#clip632)" style="stroke:#000000; stroke-linecap:round; stroke-linejoin:round; stroke-width:4; stroke-opacity:1; fill:none" points="807.472,1269.19 807.472,1486.45 872.253,1486.45 872.253,1269.19 807.472,1269.19 "/>
<path clip-path="url(#clip632)" d="M872.253 1307.53 L872.253 1486.45 L937.034 1486.45 L937.034 1307.53 L872.253 1307.53 L872.253 1307.53  Z" fill="#009af9" fill-rule="evenodd" fill-opacity="1"/>
<polyline clip-path="url(#clip632)" style="stroke:#000000; stroke-linecap:round; stroke-linejoin:round; stroke-width:4; stroke-opacity:1; fill:none" points="872.253,1307.53 872.253,1486.45 937.034,1486.45 937.034,1307.53 872.253,1307.53 "/>
<path clip-path="url(#clip632)" d="M937.034 1192.5 L937.034 1486.45 L1001.82 1486.45 L1001.82 1192.5 L937.034 1192.5 L937.034 1192.5  Z" fill="#009af9" fill-rule="evenodd" fill-opacity="1"/>
<polyline clip-path="url(#clip632)" style="stroke:#000000; stroke-linecap:round; stroke-linejoin:round; stroke-width:4; stroke-opacity:1; fill:none" points="937.034,1192.5 937.034,1486.45 1001.82,1486.45 1001.82,1192.5 937.034,1192.5 "/>
<path clip-path="url(#clip632)" d="M1001.82 1000.8 L1001.82 1486.45 L1066.6 1486.45 L1066.6 1000.8 L1001.82 1000.8 L1001.82 1000.8  Z" fill="#009af9" fill-rule="evenodd" fill-opacity="1"/>
<polyline clip-path="url(#clip632)" style="stroke:#000000; stroke-linecap:round; stroke-linejoin:round; stroke-width:4; stroke-opacity:1; fill:none" points="1001.82,1000.8 1001.82,1486.45 1066.6,1486.45 1066.6,1000.8 1001.82,1000.8 "/>
<path clip-path="url(#clip632)" d="M1066.6 834.66 L1066.6 1486.45 L1131.38 1486.45 L1131.38 834.66 L1066.6 834.66 L1066.6 834.66  Z" fill="#009af9" fill-rule="evenodd" fill-opacity="1"/>
<polyline clip-path="url(#clip632)" style="stroke:#000000; stroke-linecap:round; stroke-linejoin:round; stroke-width:4; stroke-opacity:1; fill:none" points="1066.6,834.66 1066.6,1486.45 1131.38,1486.45 1131.38,834.66 1066.6,834.66 "/>
<path clip-path="url(#clip632)" d="M1131.38 617.398 L1131.38 1486.45 L1196.16 1486.45 L1196.16 617.398 L1131.38 617.398 L1131.38 617.398  Z" fill="#009af9" fill-rule="evenodd" fill-opacity="1"/>
<polyline clip-path="url(#clip632)" style="stroke:#000000; stroke-linecap:round; stroke-linejoin:round; stroke-width:4; stroke-opacity:1; fill:none" points="1131.38,617.398 1131.38,1486.45 1196.16,1486.45 1196.16,617.398 1131.38,617.398 "/>
<path clip-path="url(#clip632)" d="M1196.16 642.958 L1196.16 1486.45 L1260.94 1486.45 L1260.94 642.958 L1196.16 642.958 L1196.16 642.958  Z" fill="#009af9" fill-rule="evenodd" fill-opacity="1"/>
<polyline clip-path="url(#clip632)" style="stroke:#000000; stroke-linecap:round; stroke-linejoin:round; stroke-width:4; stroke-opacity:1; fill:none" points="1196.16,642.958 1196.16,1486.45 1260.94,1486.45 1260.94,642.958 1196.16,642.958 "/>
<path clip-path="url(#clip632)" d="M1260.94 310.674 L1260.94 1486.45 L1325.72 1486.45 L1325.72 310.674 L1260.94 310.674 L1260.94 310.674  Z" fill="#009af9" fill-rule="evenodd" fill-opacity="1"/>
<polyline clip-path="url(#clip632)" style="stroke:#000000; stroke-linecap:round; stroke-linejoin:round; stroke-width:4; stroke-opacity:1; fill:none" points="1260.94,310.674 1260.94,1486.45 1325.72,1486.45 1325.72,310.674 1260.94,310.674 "/>
<path clip-path="url(#clip632)" d="M1325.72 195.653 L1325.72 1486.45 L1390.5 1486.45 L1390.5 195.653 L1325.72 195.653 L1325.72 195.653  Z" fill="#009af9" fill-rule="evenodd" fill-opacity="1"/>
<polyline clip-path="url(#clip632)" style="stroke:#000000; stroke-linecap:round; stroke-linejoin:round; stroke-width:4; stroke-opacity:1; fill:none" points="1325.72,195.653 1325.72,1486.45 1390.5,1486.45 1390.5,195.653 1325.72,195.653 "/>
<path clip-path="url(#clip632)" d="M1390.5 106.192 L1390.5 1486.45 L1455.28 1486.45 L1455.28 106.192 L1390.5 106.192 L1390.5 106.192  Z" fill="#009af9" fill-rule="evenodd" fill-opacity="1"/>
<polyline clip-path="url(#clip632)" style="stroke:#000000; stroke-linecap:round; stroke-linejoin:round; stroke-width:4; stroke-opacity:1; fill:none" points="1390.5,106.192 1390.5,1486.45 1455.28,1486.45 1455.28,106.192 1390.5,106.192 "/>
<path clip-path="url(#clip632)" d="M1455.28 182.873 L1455.28 1486.45 L1520.06 1486.45 L1520.06 182.873 L1455.28 182.873 L1455.28 182.873  Z" fill="#009af9" fill-rule="evenodd" fill-opacity="1"/>
<polyline clip-path="url(#clip632)" style="stroke:#000000; stroke-linecap:round; stroke-linejoin:round; stroke-width:4; stroke-opacity:1; fill:none" points="1455.28,182.873 1455.28,1486.45 1520.06,1486.45 1520.06,182.873 1455.28,182.873 "/>
<path clip-path="url(#clip632)" d="M1520.06 425.696 L1520.06 1486.45 L1584.84 1486.45 L1584.84 425.696 L1520.06 425.696 L1520.06 425.696  Z" fill="#009af9" fill-rule="evenodd" fill-opacity="1"/>
<polyline clip-path="url(#clip632)" style="stroke:#000000; stroke-linecap:round; stroke-linejoin:round; stroke-width:4; stroke-opacity:1; fill:none" points="1520.06,425.696 1520.06,1486.45 1584.84,1486.45 1584.84,425.696 1520.06,425.696 "/>
<path clip-path="url(#clip632)" d="M1584.84 527.937 L1584.84 1486.45 L1649.62 1486.45 L1649.62 527.937 L1584.84 527.937 L1584.84 527.937  Z" fill="#009af9" fill-rule="evenodd" fill-opacity="1"/>
<polyline clip-path="url(#clip632)" style="stroke:#000000; stroke-linecap:round; stroke-linejoin:round; stroke-width:4; stroke-opacity:1; fill:none" points="1584.84,527.937 1584.84,1486.45 1649.62,1486.45 1649.62,527.937 1584.84,527.937 "/>
<path clip-path="url(#clip632)" d="M1649.62 770.76 L1649.62 1486.45 L1714.4 1486.45 L1714.4 770.76 L1649.62 770.76 L1649.62 770.76  Z" fill="#009af9" fill-rule="evenodd" fill-opacity="1"/>
<polyline clip-path="url(#clip632)" style="stroke:#000000; stroke-linecap:round; stroke-linejoin:round; stroke-width:4; stroke-opacity:1; fill:none" points="1649.62,770.76 1649.62,1486.45 1714.4,1486.45 1714.4,770.76 1649.62,770.76 "/>
<path clip-path="url(#clip632)" d="M1714.4 988.022 L1714.4 1486.45 L1779.19 1486.45 L1779.19 988.022 L1714.4 988.022 L1714.4 988.022  Z" fill="#009af9" fill-rule="evenodd" fill-opacity="1"/>
<polyline clip-path="url(#clip632)" style="stroke:#000000; stroke-linecap:round; stroke-linejoin:round; stroke-width:4; stroke-opacity:1; fill:none" points="1714.4,988.022 1714.4,1486.45 1779.19,1486.45 1779.19,988.022 1714.4,988.022 "/>
<path clip-path="url(#clip632)" d="M1779.19 1141.38 L1779.19 1486.45 L1843.97 1486.45 L1843.97 1141.38 L1779.19 1141.38 L1779.19 1141.38  Z" fill="#009af9" fill-rule="evenodd" fill-opacity="1"/>
<polyline clip-path="url(#clip632)" style="stroke:#000000; stroke-linecap:round; stroke-linejoin:round; stroke-width:4; stroke-opacity:1; fill:none" points="1779.19,1141.38 1779.19,1486.45 1843.97,1486.45 1843.97,1141.38 1779.19,1141.38 "/>
<path clip-path="url(#clip632)" d="M1843.97 1218.06 L1843.97 1486.45 L1908.75 1486.45 L1908.75 1218.06 L1843.97 1218.06 L1843.97 1218.06  Z" fill="#009af9" fill-rule="evenodd" fill-opacity="1"/>
<polyline clip-path="url(#clip632)" style="stroke:#000000; stroke-linecap:round; stroke-linejoin:round; stroke-width:4; stroke-opacity:1; fill:none" points="1843.97,1218.06 1843.97,1486.45 1908.75,1486.45 1908.75,1218.06 1843.97,1218.06 "/>
<path clip-path="url(#clip632)" d="M1908.75 1345.87 L1908.75 1486.45 L1973.53 1486.45 L1973.53 1345.87 L1908.75 1345.87 L1908.75 1345.87  Z" fill="#009af9" fill-rule="evenodd" fill-opacity="1"/>
<polyline clip-path="url(#clip632)" style="stroke:#000000; stroke-linecap:round; stroke-linejoin:round; stroke-width:4; stroke-opacity:1; fill:none" points="1908.75,1345.87 1908.75,1486.45 1973.53,1486.45 1973.53,1345.87 1908.75,1345.87 "/>
<path clip-path="url(#clip632)" d="M1973.53 1333.09 L1973.53 1486.45 L2038.31 1486.45 L2038.31 1333.09 L1973.53 1333.09 L1973.53 1333.09  Z" fill="#009af9" fill-rule="evenodd" fill-opacity="1"/>
<polyline clip-path="url(#clip632)" style="stroke:#000000; stroke-linecap:round; stroke-linejoin:round; stroke-width:4; stroke-opacity:1; fill:none" points="1973.53,1333.09 1973.53,1486.45 2038.31,1486.45 2038.31,1333.09 1973.53,1333.09 "/>
<path clip-path="url(#clip632)" d="M2038.31 1435.33 L2038.31 1486.45 L2103.09 1486.45 L2103.09 1435.33 L2038.31 1435.33 L2038.31 1435.33  Z" fill="#009af9" fill-rule="evenodd" fill-opacity="1"/>
<polyline clip-path="url(#clip632)" style="stroke:#000000; stroke-linecap:round; stroke-linejoin:round; stroke-width:4; stroke-opacity:1; fill:none" points="2038.31,1435.33 2038.31,1486.45 2103.09,1486.45 2103.09,1435.33 2038.31,1435.33 "/>
<path clip-path="url(#clip632)" d="M2103.09 1486.45 L2103.09 1486.45 L2167.87 1486.45 L2167.87 1486.45 L2103.09 1486.45 L2103.09 1486.45  Z" fill="#009af9" fill-rule="evenodd" fill-opacity="1"/>
<polyline clip-path="url(#clip632)" style="stroke:#000000; stroke-linecap:round; stroke-linejoin:round; stroke-width:4; stroke-opacity:1; fill:none" points="2103.09,1486.45 2103.09,1486.45 2167.87,1486.45 2103.09,1486.45 "/>
<path clip-path="url(#clip632)" d="M2167.87 1473.67 L2167.87 1486.45 L2232.65 1486.45 L2232.65 1473.67 L2167.87 1473.67 L2167.87 1473.67  Z" fill="#009af9" fill-rule="evenodd" fill-opacity="1"/>
<polyline clip-path="url(#clip632)" style="stroke:#000000; stroke-linecap:round; stroke-linejoin:round; stroke-width:4; stroke-opacity:1; fill:none" points="2167.87,1473.67 2167.87,1486.45 2232.65,1486.45 2232.65,1473.67 2167.87,1473.67 "/>
<circle clip-path="url(#clip632)" style="fill:#009af9; stroke:none; fill-opacity:0" cx="321.616" cy="1473.67" r="2"/>
<circle clip-path="url(#clip632)" style="fill:#009af9; stroke:none; fill-opacity:0" cx="386.396" cy="1473.67" r="2"/>
<circle clip-path="url(#clip632)" style="fill:#009af9; stroke:none; fill-opacity:0" cx="451.177" cy="1486.45" r="2"/>
<circle clip-path="url(#clip632)" style="fill:#009af9; stroke:none; fill-opacity:0" cx="515.958" cy="1486.45" r="2"/>
<circle clip-path="url(#clip632)" style="fill:#009af9; stroke:none; fill-opacity:0" cx="580.739" cy="1473.67" r="2"/>
<circle clip-path="url(#clip632)" style="fill:#009af9; stroke:none; fill-opacity:0" cx="645.52" cy="1486.45" r="2"/>
<circle clip-path="url(#clip632)" style="fill:#009af9; stroke:none; fill-opacity:0" cx="710.301" cy="1422.55" r="2"/>
<circle clip-path="url(#clip632)" style="fill:#009af9; stroke:none; fill-opacity:0" cx="775.082" cy="1396.99" r="2"/>
<circle clip-path="url(#clip632)" style="fill:#009af9; stroke:none; fill-opacity:0" cx="839.863" cy="1269.19" r="2"/>
<circle clip-path="url(#clip632)" style="fill:#009af9; stroke:none; fill-opacity:0" cx="904.644" cy="1307.53" r="2"/>
<circle clip-path="url(#clip632)" style="fill:#009af9; stroke:none; fill-opacity:0" cx="969.425" cy="1192.5" r="2"/>
<circle clip-path="url(#clip632)" style="fill:#009af9; stroke:none; fill-opacity:0" cx="1034.21" cy="1000.8" r="2"/>
<circle clip-path="url(#clip632)" style="fill:#009af9; stroke:none; fill-opacity:0" cx="1098.99" cy="834.66" r="2"/>
<circle clip-path="url(#clip632)" style="fill:#009af9; stroke:none; fill-opacity:0" cx="1163.77" cy="617.398" r="2"/>
<circle clip-path="url(#clip632)" style="fill:#009af9; stroke:none; fill-opacity:0" cx="1228.55" cy="642.958" r="2"/>
<circle clip-path="url(#clip632)" style="fill:#009af9; stroke:none; fill-opacity:0" cx="1293.33" cy="310.674" r="2"/>
<circle clip-path="url(#clip632)" style="fill:#009af9; stroke:none; fill-opacity:0" cx="1358.11" cy="195.653" r="2"/>
<circle clip-path="url(#clip632)" style="fill:#009af9; stroke:none; fill-opacity:0" cx="1422.89" cy="106.192" r="2"/>
<circle clip-path="url(#clip632)" style="fill:#009af9; stroke:none; fill-opacity:0" cx="1487.67" cy="182.873" r="2"/>
<circle clip-path="url(#clip632)" style="fill:#009af9; stroke:none; fill-opacity:0" cx="1552.45" cy="425.696" r="2"/>
<circle clip-path="url(#clip632)" style="fill:#009af9; stroke:none; fill-opacity:0" cx="1617.23" cy="527.937" r="2"/>
<circle clip-path="url(#clip632)" style="fill:#009af9; stroke:none; fill-opacity:0" cx="1682.01" cy="770.76" r="2"/>
<circle clip-path="url(#clip632)" style="fill:#009af9; stroke:none; fill-opacity:0" cx="1746.8" cy="988.022" r="2"/>
<circle clip-path="url(#clip632)" style="fill:#009af9; stroke:none; fill-opacity:0" cx="1811.58" cy="1141.38" r="2"/>
<circle clip-path="url(#clip632)" style="fill:#009af9; stroke:none; fill-opacity:0" cx="1876.36" cy="1218.06" r="2"/>
<circle clip-path="url(#clip632)" style="fill:#009af9; stroke:none; fill-opacity:0" cx="1941.14" cy="1345.87" r="2"/>
<circle clip-path="url(#clip632)" style="fill:#009af9; stroke:none; fill-opacity:0" cx="2005.92" cy="1333.09" r="2"/>
<circle clip-path="url(#clip632)" style="fill:#009af9; stroke:none; fill-opacity:0" cx="2070.7" cy="1435.33" r="2"/>
<circle clip-path="url(#clip632)" style="fill:#009af9; stroke:none; fill-opacity:0" cx="2135.48" cy="1486.45" r="2"/>
<circle clip-path="url(#clip632)" style="fill:#009af9; stroke:none; fill-opacity:0" cx="2200.26" cy="1473.67" r="2"/>
<path clip-path="url(#clip630)" d="M2009.17 255.881 L2279.97 255.881 L2279.97 152.201 L2009.17 152.201  Z" fill="#ffffff" fill-rule="evenodd" fill-opacity="1"/>
<polyline clip-path="url(#clip630)" style="stroke:#000000; stroke-linecap:round; stroke-linejoin:round; stroke-width:4; stroke-opacity:1; fill:none" points="2009.17,255.881 2279.97,255.881 2279.97,152.201 2009.17,152.201 2009.17,255.881 "/>
<path clip-path="url(#clip630)" d="M2033.44 224.777 L2179.01 224.777 L2179.01 183.305 L2033.44 183.305 L2033.44 224.777  Z" fill="#009af9" fill-rule="evenodd" fill-opacity="1"/>
<polyline clip-path="url(#clip630)" style="stroke:#000000; stroke-linecap:round; stroke-linejoin:round; stroke-width:4; stroke-opacity:1; fill:none" points="2033.44,224.777 2179.01,224.777 2179.01,183.305 2033.44,183.305 2033.44,224.777 "/>
<path clip-path="url(#clip630)" d="M2217.12 223.728 Q2215.31 228.358 2213.6 229.77 Q2211.89 231.182 2209.02 231.182 L2205.61 231.182 L2205.61 227.617 L2208.11 227.617 Q2209.87 227.617 2210.84 226.784 Q2211.82 225.95 2213 222.848 L2213.76 220.904 L2203.28 195.395 L2207.79 195.395 L2215.89 215.673 L2223.99 195.395 L2228.51 195.395 L2217.12 223.728 Z" fill="#000000" fill-rule="nonzero" fill-opacity="1" /><path clip-path="url(#clip630)" d="M2235.8 217.385 L2243.44 217.385 L2243.44 191.02 L2235.13 192.687 L2235.13 188.427 L2243.39 186.761 L2248.07 186.761 L2248.07 217.385 L2255.71 217.385 L2255.71 221.321 L2235.8 221.321 L2235.8 217.385 Z" fill="#000000" fill-rule="nonzero" fill-opacity="1" /></svg>
