<?xml version="1.0" encoding="utf-8"?>
<svg xmlns="http://www.w3.org/2000/svg" xmlns:xlink="http://www.w3.org/1999/xlink" width="600" height="400" viewBox="0 0 2400 1600">
<defs>
  <clipPath id="clip850">
    <rect x="0" y="0" width="2400" height="1600"/>
  </clipPath>
</defs>
<path clip-path="url(#clip850)" d="M0 1600 L2400 1600 L2400 0 L0 0  Z" fill="#ffffff" fill-rule="evenodd" fill-opacity="1"/>
<defs>
  <clipPath id="clip851">
    <rect x="480" y="0" width="1681" height="1600"/>
  </clipPath>
</defs>
<path clip-path="url(#clip850)" d="M249.542 1423.18 L2352.76 1423.18 L2352.76 106.192 L249.542 106.192  Z" fill="#ffffff" fill-rule="evenodd" fill-opacity="1"/>
<defs>
  <clipPath id="clip852">
    <rect x="249" y="106" width="2104" height="1318"/>
  </clipPath>
</defs>
<polyline clip-path="url(#clip852)" style="stroke:#000000; stroke-linecap:round; stroke-linejoin:round; stroke-width:2; stroke-opacity:0.1; fill:none" points="307.081,1423.18 307.081,106.192 "/>
<polyline clip-path="url(#clip852)" style="stroke:#000000; stroke-linecap:round; stroke-linejoin:round; stroke-width:2; stroke-opacity:0.1; fill:none" points="803.618,1423.18 803.618,106.192 "/>
<polyline clip-path="url(#clip852)" style="stroke:#000000; stroke-linecap:round; stroke-linejoin:round; stroke-width:2; stroke-opacity:0.1; fill:none" points="1300.16,1423.18 1300.16,106.192 "/>
<polyline clip-path="url(#clip852)" style="stroke:#000000; stroke-linecap:round; stroke-linejoin:round; stroke-width:2; stroke-opacity:0.1; fill:none" points="1796.69,1423.18 1796.69,106.192 "/>
<polyline clip-path="url(#clip852)" style="stroke:#000000; stroke-linecap:round; stroke-linejoin:round; stroke-width:2; stroke-opacity:0.1; fill:none" points="2293.23,1423.18 2293.23,106.192 "/>
<polyline clip-path="url(#clip850)" style="stroke:#000000; stroke-linecap:round; stroke-linejoin:round; stroke-width:4; stroke-opacity:1; fill:none" points="249.542,1423.18 2352.76,1423.18 "/>
<polyline clip-path="url(#clip850)" style="stroke:#000000; stroke-linecap:round; stroke-linejoin:round; stroke-width:4; stroke-opacity:1; fill:none" points="307.081,1423.18 307.081,1404.28 "/>
<polyline clip-path="url(#clip850)" style="stroke:#000000; stroke-linecap:round; stroke-linejoin:round; stroke-width:4; stroke-opacity:1; fill:none" points="803.618,1423.18 803.618,1404.28 "/>
<polyline clip-path="url(#clip850)" style="stroke:#000000; stroke-linecap:round; stroke-linejoin:round; stroke-width:4; stroke-opacity:1; fill:none" points="1300.16,1423.18 1300.16,1404.28 "/>
<polyline clip-path="url(#clip850)" style="stroke:#000000; stroke-linecap:round; stroke-linejoin:round; stroke-width:4; stroke-opacity:1; fill:none" points="1796.69,1423.18 1796.69,1404.28 "/>
<polyline clip-path="url(#clip850)" style="stroke:#000000; stroke-linecap:round; stroke-linejoin:round; stroke-width:4; stroke-opacity:1; fill:none" points="2293.23,1423.18 2293.23,1404.28 "/>
<path clip-path="url(#clip850)" d="M307.081 1454.1 Q303.47 1454.1 301.641 1457.66 Q299.835 1461.2 299.835 1468.33 Q299.835 1475.44 301.641 1479.01 Q303.47 1482.55 307.081 1482.55 Q310.715 1482.55 312.521 1479.01 Q314.349 1475.44 314.349 1468.33 Q314.349 1461.2 312.521 1457.66 Q310.715 1454.1 307.081 1454.1 M307.081 1450.39 Q312.891 1450.39 315.946 1455 Q319.025 1459.58 319.025 1468.33 Q319.025 1477.06 315.946 1481.67 Q312.891 1486.25 307.081 1486.25 Q301.271 1486.25 298.192 1481.67 Q295.136 1477.06 295.136 1468.33 Q295.136 1459.58 298.192 1455 Q301.271 1450.39 307.081 1450.39 Z" fill="#000000" fill-rule="nonzero" fill-opacity="1" /><path clip-path="url(#clip850)" d="M767.311 1481.64 L783.63 1481.64 L783.63 1485.58 L761.686 1485.58 L761.686 1481.64 Q764.348 1478.89 768.931 1474.26 Q773.537 1469.61 774.718 1468.27 Q776.963 1465.74 777.843 1464.01 Q778.746 1462.25 778.746 1460.56 Q778.746 1457.8 776.801 1456.07 Q774.88 1454.33 771.778 1454.33 Q769.579 1454.33 767.125 1455.09 Q764.695 1455.86 761.917 1457.41 L761.917 1452.69 Q764.741 1451.55 767.195 1450.97 Q769.649 1450.39 771.686 1450.39 Q777.056 1450.39 780.25 1453.08 Q783.445 1455.77 783.445 1460.26 Q783.445 1462.39 782.635 1464.31 Q781.848 1466.2 779.741 1468.8 Q779.162 1469.47 776.061 1472.69 Q772.959 1475.88 767.311 1481.64 Z" fill="#000000" fill-rule="nonzero" fill-opacity="1" /><path clip-path="url(#clip850)" d="M793.491 1451.02 L811.847 1451.02 L811.847 1454.96 L797.773 1454.96 L797.773 1463.43 Q798.792 1463.08 799.81 1462.92 Q800.829 1462.73 801.848 1462.73 Q807.635 1462.73 811.014 1465.9 Q814.394 1469.08 814.394 1474.49 Q814.394 1480.07 810.922 1483.17 Q807.449 1486.25 801.13 1486.25 Q798.954 1486.25 796.686 1485.88 Q794.44 1485.51 792.033 1484.77 L792.033 1480.07 Q794.116 1481.2 796.338 1481.76 Q798.561 1482.32 801.037 1482.32 Q805.042 1482.32 807.38 1480.21 Q809.718 1478.1 809.718 1474.49 Q809.718 1470.88 807.38 1468.77 Q805.042 1466.67 801.037 1466.67 Q799.162 1466.67 797.287 1467.08 Q795.436 1467.5 793.491 1468.38 L793.491 1451.02 Z" fill="#000000" fill-rule="nonzero" fill-opacity="1" /><path clip-path="url(#clip850)" d="M833.607 1454.1 Q829.996 1454.1 828.167 1457.66 Q826.361 1461.2 826.361 1468.33 Q826.361 1475.44 828.167 1479.01 Q829.996 1482.55 833.607 1482.55 Q837.241 1482.55 839.046 1479.01 Q840.875 1475.44 840.875 1468.33 Q840.875 1461.2 839.046 1457.66 Q837.241 1454.1 833.607 1454.1 M833.607 1450.39 Q839.417 1450.39 842.472 1455 Q845.551 1459.58 845.551 1468.33 Q845.551 1477.06 842.472 1481.67 Q839.417 1486.25 833.607 1486.25 Q827.796 1486.25 824.718 1481.67 Q821.662 1477.06 821.662 1468.33 Q821.662 1459.58 824.718 1455 Q827.796 1450.39 833.607 1450.39 Z" fill="#000000" fill-rule="nonzero" fill-opacity="1" /><path clip-path="url(#clip850)" d="M1259.77 1451.02 L1278.13 1451.02 L1278.13 1454.96 L1264.06 1454.96 L1264.06 1463.43 Q1265.08 1463.08 1266.09 1462.92 Q1267.11 1462.73 1268.13 1462.73 Q1273.92 1462.73 1277.3 1465.9 Q1280.68 1469.08 1280.68 1474.49 Q1280.68 1480.07 1277.2 1483.17 Q1273.73 1486.25 1267.41 1486.25 Q1265.24 1486.25 1262.97 1485.88 Q1260.72 1485.51 1258.32 1484.77 L1258.32 1480.07 Q1260.4 1481.2 1262.62 1481.76 Q1264.84 1482.32 1267.32 1482.32 Q1271.33 1482.32 1273.66 1480.21 Q1276 1478.1 1276 1474.49 Q1276 1470.88 1273.66 1468.77 Q1271.33 1466.67 1267.32 1466.67 Q1265.45 1466.67 1263.57 1467.08 Q1261.72 1467.5 1259.77 1468.38 L1259.77 1451.02 Z" fill="#000000" fill-rule="nonzero" fill-opacity="1" /><path clip-path="url(#clip850)" d="M1299.89 1454.1 Q1296.28 1454.1 1294.45 1457.66 Q1292.64 1461.2 1292.64 1468.33 Q1292.64 1475.44 1294.45 1479.01 Q1296.28 1482.55 1299.89 1482.55 Q1303.52 1482.55 1305.33 1479.01 Q1307.16 1475.44 1307.16 1468.33 Q1307.16 1461.2 1305.33 1457.66 Q1303.52 1454.1 1299.89 1454.1 M1299.89 1450.39 Q1305.7 1450.39 1308.76 1455 Q1311.83 1459.58 1311.83 1468.33 Q1311.83 1477.06 1308.76 1481.67 Q1305.7 1486.25 1299.89 1486.25 Q1294.08 1486.25 1291 1481.67 Q1287.95 1477.06 1287.95 1468.33 Q1287.95 1459.58 1291 1455 Q1294.08 1450.39 1299.89 1450.39 Z" fill="#000000" fill-rule="nonzero" fill-opacity="1" /><path clip-path="url(#clip850)" d="M1330.05 1454.1 Q1326.44 1454.1 1324.61 1457.66 Q1322.81 1461.2 1322.81 1468.33 Q1322.81 1475.44 1324.61 1479.01 Q1326.44 1482.55 1330.05 1482.55 Q1333.69 1482.55 1335.49 1479.01 Q1337.32 1475.44 1337.32 1468.33 Q1337.32 1461.2 1335.49 1457.66 Q1333.69 1454.1 1330.05 1454.1 M1330.05 1450.39 Q1335.86 1450.39 1338.92 1455 Q1342 1459.58 1342 1468.33 Q1342 1477.06 1338.92 1481.67 Q1335.86 1486.25 1330.05 1486.25 Q1324.24 1486.25 1321.16 1481.67 Q1318.11 1477.06 1318.11 1468.33 Q1318.11 1459.58 1321.16 1455 Q1324.24 1450.39 1330.05 1450.39 Z" fill="#000000" fill-rule="nonzero" fill-opacity="1" /><path clip-path="url(#clip850)" d="M1754.97 1451.02 L1777.19 1451.02 L1777.19 1453.01 L1764.64 1485.58 L1759.76 1485.58 L1771.57 1454.96 L1754.97 1454.96 L1754.97 1451.02 Z" fill="#000000" fill-rule="nonzero" fill-opacity="1" /><path clip-path="url(#clip850)" d="M1786.36 1451.02 L1804.71 1451.02 L1804.71 1454.96 L1790.64 1454.96 L1790.64 1463.43 Q1791.66 1463.08 1792.68 1462.92 Q1793.7 1462.73 1794.71 1462.73 Q1800.5 1462.73 1803.88 1465.9 Q1807.26 1469.08 1807.26 1474.49 Q1807.26 1480.07 1803.79 1483.17 Q1800.32 1486.25 1794 1486.25 Q1791.82 1486.25 1789.55 1485.88 Q1787.31 1485.51 1784.9 1484.77 L1784.9 1480.07 Q1786.98 1481.2 1789.21 1481.76 Q1791.43 1482.32 1793.9 1482.32 Q1797.91 1482.32 1800.25 1480.21 Q1802.58 1478.1 1802.58 1474.49 Q1802.58 1470.88 1800.25 1468.77 Q1797.91 1466.67 1793.9 1466.67 Q1792.03 1466.67 1790.15 1467.08 Q1788.3 1467.5 1786.36 1468.38 L1786.36 1451.02 Z" fill="#000000" fill-rule="nonzero" fill-opacity="1" /><path clip-path="url(#clip850)" d="M1826.47 1454.1 Q1822.86 1454.1 1821.03 1457.66 Q1819.23 1461.2 1819.23 1468.33 Q1819.23 1475.44 1821.03 1479.01 Q1822.86 1482.55 1826.47 1482.55 Q1830.11 1482.55 1831.91 1479.01 Q1833.74 1475.44 1833.74 1468.33 Q1833.74 1461.2 1831.91 1457.66 Q1830.11 1454.1 1826.47 1454.1 M1826.47 1450.39 Q1832.28 1450.39 1835.34 1455 Q1838.42 1459.58 1838.42 1468.33 Q1838.42 1477.06 1835.34 1481.67 Q1832.28 1486.25 1826.47 1486.25 Q1820.66 1486.25 1817.58 1481.67 Q1814.53 1477.06 1814.53 1468.33 Q1814.53 1459.58 1817.58 1455 Q1820.66 1450.39 1826.47 1450.39 Z" fill="#000000" fill-rule="nonzero" fill-opacity="1" /><path clip-path="url(#clip850)" d="M2237.76 1481.64 L2245.4 1481.64 L2245.4 1455.28 L2237.09 1456.95 L2237.09 1452.69 L2245.35 1451.02 L2250.03 1451.02 L2250.03 1481.64 L2257.66 1481.64 L2257.66 1485.58 L2237.76 1485.58 L2237.76 1481.64 Z" fill="#000000" fill-rule="nonzero" fill-opacity="1" /><path clip-path="url(#clip850)" d="M2277.11 1454.1 Q2273.5 1454.1 2271.67 1457.66 Q2269.86 1461.2 2269.86 1468.33 Q2269.86 1475.44 2271.67 1479.01 Q2273.5 1482.55 2277.11 1482.55 Q2280.74 1482.55 2282.55 1479.01 Q2284.38 1475.44 2284.38 1468.33 Q2284.38 1461.2 2282.55 1457.66 Q2280.74 1454.1 2277.11 1454.1 M2277.11 1450.39 Q2282.92 1450.39 2285.97 1455 Q2289.05 1459.58 2289.05 1468.33 Q2289.05 1477.06 2285.97 1481.67 Q2282.92 1486.25 2277.11 1486.25 Q2271.3 1486.25 2268.22 1481.67 Q2265.16 1477.06 2265.16 1468.33 Q2265.16 1459.58 2268.22 1455 Q2271.3 1450.39 2277.11 1450.39 Z" fill="#000000" fill-rule="nonzero" fill-opacity="1" /><path clip-path="url(#clip850)" d="M2307.27 1454.1 Q2303.66 1454.1 2301.83 1457.66 Q2300.02 1461.2 2300.02 1468.33 Q2300.02 1475.44 2301.83 1479.01 Q2303.66 1482.55 2307.27 1482.55 Q2310.9 1482.55 2312.71 1479.01 Q2314.54 1475.44 2314.54 1468.33 Q2314.54 1461.2 2312.71 1457.66 Q2310.9 1454.1 2307.27 1454.1 M2307.27 1450.39 Q2313.08 1450.39 2316.14 1455 Q2319.21 1459.58 2319.21 1468.33 Q2319.21 1477.06 2316.14 1481.67 Q2313.08 1486.25 2307.27 1486.25 Q2301.46 1486.25 2298.38 1481.67 Q2295.33 1477.06 2295.33 1468.33 Q2295.33 1459.58 2298.38 1455 Q2301.46 1450.39 2307.27 1450.39 Z" fill="#000000" fill-rule="nonzero" fill-opacity="1" /><path clip-path="url(#clip850)" d="M2337.43 1454.1 Q2333.82 1454.1 2331.99 1457.66 Q2330.19 1461.2 2330.19 1468.33 Q2330.19 1475.44 2331.99 1479.01 Q2333.82 1482.55 2337.43 1482.55 Q2341.07 1482.55 2342.87 1479.01 Q2344.7 1475.44 2344.7 1468.33 Q2344.7 1461.2 2342.87 1457.66 Q2341.07 1454.1 2337.43 1454.1 M2337.43 1450.39 Q2343.24 1450.39 2346.3 1455 Q2349.38 1459.58 2349.38 1468.33 Q2349.38 1477.06 2346.3 1481.67 Q2343.24 1486.25 2337.43 1486.25 Q2331.62 1486.25 2328.54 1481.67 Q2325.49 1477.06 2325.49 1468.33 Q2325.49 1459.58 2328.54 1455 Q2331.62 1450.39 2337.43 1450.39 Z" fill="#000000" fill-rule="nonzero" fill-opacity="1" /><path clip-path="url(#clip850)" d="M1169.3 1532.4 L1175.16 1532.4 L1175.16 1568.04 L1169.3 1568.04 L1169.3 1532.4 M1169.3 1518.52 L1175.16 1518.52 L1175.16 1525.93 L1169.3 1525.93 L1169.3 1518.52 Z" fill="#000000" fill-rule="nonzero" fill-opacity="1" /><path clip-path="url(#clip850)" d="M1193.2 1522.27 L1193.2 1532.4 L1205.27 1532.4 L1205.27 1536.95 L1193.2 1536.95 L1193.2 1556.3 Q1193.2 1560.66 1194.38 1561.9 Q1195.59 1563.14 1199.25 1563.14 L1205.27 1563.14 L1205.27 1568.04 L1199.25 1568.04 Q1192.47 1568.04 1189.89 1565.53 Q1187.31 1562.98 1187.31 1556.3 L1187.31 1536.95 L1183.02 1536.95 L1183.02 1532.4 L1187.31 1532.4 L1187.31 1522.27 L1193.2 1522.27 Z" fill="#000000" fill-rule="nonzero" fill-opacity="1" /><path clip-path="url(#clip850)" d="M1243.46 1548.76 L1243.46 1551.62 L1216.53 1551.62 Q1216.91 1557.67 1220.16 1560.85 Q1223.44 1564 1229.26 1564 Q1232.64 1564 1235.79 1563.17 Q1238.97 1562.35 1242.09 1560.69 L1242.09 1566.23 Q1238.94 1567.57 1235.63 1568.27 Q1232.32 1568.97 1228.91 1568.97 Q1220.38 1568.97 1215.39 1564 Q1210.42 1559.04 1210.42 1550.57 Q1210.42 1541.82 1215.13 1536.69 Q1219.87 1531.54 1227.9 1531.54 Q1235.09 1531.54 1239.26 1536.18 Q1243.46 1540.8 1243.46 1548.76 M1237.6 1547.04 Q1237.54 1542.23 1234.9 1539.37 Q1232.29 1536.5 1227.96 1536.5 Q1223.06 1536.5 1220.1 1539.27 Q1217.17 1542.04 1216.72 1547.07 L1237.6 1547.04 Z" fill="#000000" fill-rule="nonzero" fill-opacity="1" /><path clip-path="url(#clip850)" d="M1273.73 1537.87 Q1272.74 1537.3 1271.56 1537.04 Q1270.42 1536.76 1269.02 1536.76 Q1264.05 1536.76 1261.38 1540 Q1258.74 1543.22 1258.74 1549.27 L1258.74 1568.04 L1252.85 1568.04 L1252.85 1532.4 L1258.74 1532.4 L1258.74 1537.93 Q1260.58 1534.69 1263.54 1533.13 Q1266.5 1531.54 1270.74 1531.54 Q1271.34 1531.54 1272.07 1531.63 Q1272.81 1531.7 1273.7 1531.85 L1273.73 1537.87 Z" fill="#000000" fill-rule="nonzero" fill-opacity="1" /><path clip-path="url(#clip850)" d="M1296.07 1550.12 Q1288.97 1550.12 1286.24 1551.75 Q1283.5 1553.37 1283.5 1557.29 Q1283.5 1560.4 1285.54 1562.25 Q1287.61 1564.07 1291.14 1564.07 Q1296.01 1564.07 1298.94 1560.63 Q1301.9 1557.16 1301.9 1551.43 L1301.9 1550.12 L1296.07 1550.12 M1307.75 1547.71 L1307.75 1568.04 L1301.9 1568.04 L1301.9 1562.63 Q1299.89 1565.88 1296.9 1567.44 Q1293.91 1568.97 1289.58 1568.97 Q1284.1 1568.97 1280.86 1565.91 Q1277.64 1562.82 1277.64 1557.67 Q1277.64 1551.65 1281.65 1548.6 Q1285.7 1545.54 1293.69 1545.54 L1301.9 1545.54 L1301.9 1544.97 Q1301.9 1540.93 1299.22 1538.73 Q1296.58 1536.5 1291.78 1536.5 Q1288.72 1536.5 1285.82 1537.23 Q1282.93 1537.97 1280.25 1539.43 L1280.25 1534.02 Q1283.47 1532.78 1286.49 1532.17 Q1289.52 1531.54 1292.38 1531.54 Q1300.11 1531.54 1303.93 1535.55 Q1307.75 1539.56 1307.75 1547.71 Z" fill="#000000" fill-rule="nonzero" fill-opacity="1" /><path clip-path="url(#clip850)" d="M1325.61 1522.27 L1325.61 1532.4 L1337.67 1532.4 L1337.67 1536.95 L1325.61 1536.95 L1325.61 1556.3 Q1325.61 1560.66 1326.79 1561.9 Q1328 1563.14 1331.66 1563.14 L1337.67 1563.14 L1337.67 1568.04 L1331.66 1568.04 Q1324.88 1568.04 1322.3 1565.53 Q1319.72 1562.98 1319.72 1556.3 L1319.72 1536.95 L1315.42 1536.95 L1315.42 1532.4 L1319.72 1532.4 L1319.72 1522.27 L1325.61 1522.27 Z" fill="#000000" fill-rule="nonzero" fill-opacity="1" /><path clip-path="url(#clip850)" d="M1345.37 1532.4 L1351.23 1532.4 L1351.23 1568.04 L1345.37 1568.04 L1345.37 1532.4 M1345.37 1518.52 L1351.23 1518.52 L1351.23 1525.93 L1345.37 1525.93 L1345.37 1518.52 Z" fill="#000000" fill-rule="nonzero" fill-opacity="1" /><path clip-path="url(#clip850)" d="M1377.3 1536.5 Q1372.59 1536.5 1369.85 1540.19 Q1367.11 1543.85 1367.11 1550.25 Q1367.11 1556.65 1369.82 1560.34 Q1372.56 1564 1377.3 1564 Q1381.98 1564 1384.71 1560.31 Q1387.45 1556.62 1387.45 1550.25 Q1387.45 1543.92 1384.71 1540.23 Q1381.98 1536.5 1377.3 1536.5 M1377.3 1531.54 Q1384.94 1531.54 1389.3 1536.5 Q1393.66 1541.47 1393.66 1550.25 Q1393.66 1559 1389.3 1564 Q1384.94 1568.97 1377.3 1568.97 Q1369.63 1568.97 1365.27 1564 Q1360.94 1559 1360.94 1550.25 Q1360.94 1541.47 1365.27 1536.5 Q1369.63 1531.54 1377.3 1531.54 Z" fill="#000000" fill-rule="nonzero" fill-opacity="1" /><path clip-path="url(#clip850)" d="M1433 1546.53 L1433 1568.04 L1427.14 1568.04 L1427.14 1546.72 Q1427.14 1541.66 1425.17 1539.14 Q1423.2 1536.63 1419.25 1536.63 Q1414.51 1536.63 1411.77 1539.65 Q1409.03 1542.68 1409.03 1547.9 L1409.03 1568.04 L1403.14 1568.04 L1403.14 1532.4 L1409.03 1532.4 L1409.03 1537.93 Q1411.13 1534.72 1413.97 1533.13 Q1416.83 1531.54 1420.55 1531.54 Q1426.7 1531.54 1429.85 1535.36 Q1433 1539.14 1433 1546.53 Z" fill="#000000" fill-rule="nonzero" fill-opacity="1" /><polyline clip-path="url(#clip852)" style="stroke:#000000; stroke-linecap:round; stroke-linejoin:round; stroke-width:2; stroke-opacity:0.1; fill:none" points="249.542,1190.58 2352.76,1190.58 "/>
<polyline clip-path="url(#clip852)" style="stroke:#000000; stroke-linecap:round; stroke-linejoin:round; stroke-width:2; stroke-opacity:0.1; fill:none" points="249.542,945.266 2352.76,945.266 "/>
<polyline clip-path="url(#clip852)" style="stroke:#000000; stroke-linecap:round; stroke-linejoin:round; stroke-width:2; stroke-opacity:0.1; fill:none" points="249.542,699.95 2352.76,699.95 "/>
<polyline clip-path="url(#clip852)" style="stroke:#000000; stroke-linecap:round; stroke-linejoin:round; stroke-width:2; stroke-opacity:0.1; fill:none" points="249.542,454.635 2352.76,454.635 "/>
<polyline clip-path="url(#clip852)" style="stroke:#000000; stroke-linecap:round; stroke-linejoin:round; stroke-width:2; stroke-opacity:0.1; fill:none" points="249.542,209.319 2352.76,209.319 "/>
<polyline clip-path="url(#clip850)" style="stroke:#000000; stroke-linecap:round; stroke-linejoin:round; stroke-width:4; stroke-opacity:1; fill:none" points="249.542,1423.18 249.542,106.192 "/>
<polyline clip-path="url(#clip850)" style="stroke:#000000; stroke-linecap:round; stroke-linejoin:round; stroke-width:4; stroke-opacity:1; fill:none" points="249.542,1190.58 268.44,1190.58 "/>
<polyline clip-path="url(#clip850)" style="stroke:#000000; stroke-linecap:round; stroke-linejoin:round; stroke-width:4; stroke-opacity:1; fill:none" points="249.542,945.266 268.44,945.266 "/>
<polyline clip-path="url(#clip850)" style="stroke:#000000; stroke-linecap:round; stroke-linejoin:round; stroke-width:4; stroke-opacity:1; fill:none" points="249.542,699.95 268.44,699.95 "/>
<polyline clip-path="url(#clip850)" style="stroke:#000000; stroke-linecap:round; stroke-linejoin:round; stroke-width:4; stroke-opacity:1; fill:none" points="249.542,454.635 268.44,454.635 "/>
<polyline clip-path="url(#clip850)" style="stroke:#000000; stroke-linecap:round; stroke-linejoin:round; stroke-width:4; stroke-opacity:1; fill:none" points="249.542,209.319 268.44,209.319 "/>
<path clip-path="url(#clip850)" d="M126.205 1176.38 Q122.593 1176.38 120.765 1179.94 Q118.959 1183.49 118.959 1190.62 Q118.959 1197.72 120.765 1201.29 Q122.593 1204.83 126.205 1204.83 Q129.839 1204.83 131.644 1201.29 Q133.473 1197.72 133.473 1190.62 Q133.473 1183.49 131.644 1179.94 Q129.839 1176.38 126.205 1176.38 M126.205 1172.68 Q132.015 1172.68 135.07 1177.28 Q138.149 1181.87 138.149 1190.62 Q138.149 1199.34 135.07 1203.95 Q132.015 1208.53 126.205 1208.53 Q120.394 1208.53 117.316 1203.95 Q114.26 1199.34 114.26 1190.62 Q114.26 1181.87 117.316 1177.28 Q120.394 1172.68 126.205 1172.68 Z" fill="#000000" fill-rule="nonzero" fill-opacity="1" /><path clip-path="url(#clip850)" d="M146.366 1201.98 L151.251 1201.98 L151.251 1207.86 L146.366 1207.86 L146.366 1201.98 Z" fill="#000000" fill-rule="nonzero" fill-opacity="1" /><path clip-path="url(#clip850)" d="M175.602 1189.23 Q178.959 1189.94 180.834 1192.21 Q182.732 1194.48 182.732 1197.82 Q182.732 1202.93 179.214 1205.73 Q175.695 1208.53 169.214 1208.53 Q167.038 1208.53 164.723 1208.09 Q162.431 1207.68 159.978 1206.82 L159.978 1202.31 Q161.922 1203.44 164.237 1204.02 Q166.552 1204.6 169.075 1204.6 Q173.473 1204.6 175.764 1202.86 Q178.079 1201.13 178.079 1197.82 Q178.079 1194.76 175.926 1193.05 Q173.797 1191.31 169.977 1191.31 L165.95 1191.31 L165.95 1187.47 L170.163 1187.47 Q173.612 1187.47 175.44 1186.1 Q177.269 1184.71 177.269 1182.12 Q177.269 1179.46 175.371 1178.05 Q173.496 1176.61 169.977 1176.61 Q168.056 1176.61 165.857 1177.03 Q163.658 1177.44 161.019 1178.32 L161.019 1174.16 Q163.681 1173.42 165.996 1173.05 Q168.334 1172.68 170.394 1172.68 Q175.718 1172.68 178.82 1175.11 Q181.922 1177.51 181.922 1181.63 Q181.922 1184.51 180.278 1186.5 Q178.635 1188.46 175.602 1189.23 Z" fill="#000000" fill-rule="nonzero" fill-opacity="1" /><path clip-path="url(#clip850)" d="M201.598 1176.38 Q197.987 1176.38 196.158 1179.94 Q194.352 1183.49 194.352 1190.62 Q194.352 1197.72 196.158 1201.29 Q197.987 1204.83 201.598 1204.83 Q205.232 1204.83 207.037 1201.29 Q208.866 1197.72 208.866 1190.62 Q208.866 1183.49 207.037 1179.94 Q205.232 1176.38 201.598 1176.38 M201.598 1172.68 Q207.408 1172.68 210.463 1177.28 Q213.542 1181.87 213.542 1190.62 Q213.542 1199.34 210.463 1203.95 Q207.408 1208.53 201.598 1208.53 Q195.787 1208.53 192.709 1203.95 Q189.653 1199.34 189.653 1190.62 Q189.653 1181.87 192.709 1177.28 Q195.787 1172.68 201.598 1172.68 Z" fill="#000000" fill-rule="nonzero" fill-opacity="1" /><path clip-path="url(#clip850)" d="M127.2 931.065 Q123.589 931.065 121.76 934.629 Q119.955 938.171 119.955 945.301 Q119.955 952.407 121.76 955.972 Q123.589 959.514 127.2 959.514 Q130.834 959.514 132.64 955.972 Q134.468 952.407 134.468 945.301 Q134.468 938.171 132.64 934.629 Q130.834 931.065 127.2 931.065 M127.2 927.361 Q133.01 927.361 136.066 931.967 Q139.144 936.551 139.144 945.301 Q139.144 954.027 136.066 958.634 Q133.01 963.217 127.2 963.217 Q121.39 963.217 118.311 958.634 Q115.256 954.027 115.256 945.301 Q115.256 936.551 118.311 931.967 Q121.39 927.361 127.2 927.361 Z" fill="#000000" fill-rule="nonzero" fill-opacity="1" /><path clip-path="url(#clip850)" d="M147.362 956.666 L152.246 956.666 L152.246 962.546 L147.362 962.546 L147.362 956.666 Z" fill="#000000" fill-rule="nonzero" fill-opacity="1" /><path clip-path="url(#clip850)" d="M176.598 943.912 Q179.954 944.629 181.829 946.898 Q183.727 949.166 183.727 952.5 Q183.727 957.615 180.209 960.416 Q176.69 963.217 170.209 963.217 Q168.033 963.217 165.718 962.777 Q163.427 962.361 160.973 961.504 L160.973 956.99 Q162.917 958.125 165.232 958.703 Q167.547 959.282 170.07 959.282 Q174.468 959.282 176.76 957.546 Q179.075 955.81 179.075 952.5 Q179.075 949.444 176.922 947.731 Q174.792 945.995 170.973 945.995 L166.945 945.995 L166.945 942.153 L171.158 942.153 Q174.607 942.153 176.436 940.787 Q178.264 939.398 178.264 936.805 Q178.264 934.143 176.366 932.731 Q174.491 931.296 170.973 931.296 Q169.052 931.296 166.852 931.713 Q164.653 932.129 162.015 933.009 L162.015 928.842 Q164.677 928.102 166.991 927.731 Q169.329 927.361 171.389 927.361 Q176.714 927.361 179.815 929.791 Q182.917 932.199 182.917 936.319 Q182.917 939.19 181.274 941.18 Q179.63 943.148 176.598 943.912 Z" fill="#000000" fill-rule="nonzero" fill-opacity="1" /><path clip-path="url(#clip850)" d="M192.639 927.986 L210.996 927.986 L210.996 931.921 L196.922 931.921 L196.922 940.393 Q197.94 940.046 198.959 939.884 Q199.977 939.699 200.996 939.699 Q206.783 939.699 210.162 942.87 Q213.542 946.041 213.542 951.458 Q213.542 957.037 210.07 960.139 Q206.598 963.217 200.278 963.217 Q198.102 963.217 195.834 962.847 Q193.588 962.476 191.181 961.736 L191.181 957.037 Q193.264 958.171 195.487 958.727 Q197.709 959.282 200.186 959.282 Q204.19 959.282 206.528 957.176 Q208.866 955.069 208.866 951.458 Q208.866 947.847 206.528 945.74 Q204.19 943.634 200.186 943.634 Q198.311 943.634 196.436 944.051 Q194.584 944.467 192.639 945.347 L192.639 927.986 Z" fill="#000000" fill-rule="nonzero" fill-opacity="1" /><path clip-path="url(#clip850)" d="M126.205 685.749 Q122.593 685.749 120.765 689.314 Q118.959 692.856 118.959 699.985 Q118.959 707.092 120.765 710.656 Q122.593 714.198 126.205 714.198 Q129.839 714.198 131.644 710.656 Q133.473 707.092 133.473 699.985 Q133.473 692.856 131.644 689.314 Q129.839 685.749 126.205 685.749 M126.205 682.045 Q132.015 682.045 135.07 686.652 Q138.149 691.235 138.149 699.985 Q138.149 708.712 135.07 713.318 Q132.015 717.902 126.205 717.902 Q120.394 717.902 117.316 713.318 Q114.26 708.712 114.26 699.985 Q114.26 691.235 117.316 686.652 Q120.394 682.045 126.205 682.045 Z" fill="#000000" fill-rule="nonzero" fill-opacity="1" /><path clip-path="url(#clip850)" d="M146.366 711.351 L151.251 711.351 L151.251 717.23 L146.366 717.23 L146.366 711.351 Z" fill="#000000" fill-rule="nonzero" fill-opacity="1" /><path clip-path="url(#clip850)" d="M174.283 686.744 L162.477 705.193 L174.283 705.193 L174.283 686.744 M173.056 682.67 L178.936 682.67 L178.936 705.193 L183.866 705.193 L183.866 709.082 L178.936 709.082 L178.936 717.23 L174.283 717.23 L174.283 709.082 L158.681 709.082 L158.681 704.568 L173.056 682.67 Z" fill="#000000" fill-rule="nonzero" fill-opacity="1" /><path clip-path="url(#clip850)" d="M201.598 685.749 Q197.987 685.749 196.158 689.314 Q194.352 692.856 194.352 699.985 Q194.352 707.092 196.158 710.656 Q197.987 714.198 201.598 714.198 Q205.232 714.198 207.037 710.656 Q208.866 707.092 208.866 699.985 Q208.866 692.856 207.037 689.314 Q205.232 685.749 201.598 685.749 M201.598 682.045 Q207.408 682.045 210.463 686.652 Q213.542 691.235 213.542 699.985 Q213.542 708.712 210.463 713.318 Q207.408 717.902 201.598 717.902 Q195.787 717.902 192.709 713.318 Q189.653 708.712 189.653 699.985 Q189.653 691.235 192.709 686.652 Q195.787 682.045 201.598 682.045 Z" fill="#000000" fill-rule="nonzero" fill-opacity="1" /><path clip-path="url(#clip850)" d="M127.2 440.434 Q123.589 440.434 121.76 443.998 Q119.955 447.54 119.955 454.67 Q119.955 461.776 121.76 465.341 Q123.589 468.883 127.2 468.883 Q130.834 468.883 132.64 465.341 Q134.468 461.776 134.468 454.67 Q134.468 447.54 132.64 443.998 Q130.834 440.434 127.2 440.434 M127.2 436.73 Q133.01 436.73 136.066 441.336 Q139.144 445.92 139.144 454.67 Q139.144 463.396 136.066 468.003 Q133.01 472.586 127.2 472.586 Q121.39 472.586 118.311 468.003 Q115.256 463.396 115.256 454.67 Q115.256 445.92 118.311 441.336 Q121.39 436.73 127.2 436.73 Z" fill="#000000" fill-rule="nonzero" fill-opacity="1" /><path clip-path="url(#clip850)" d="M147.362 466.035 L152.246 466.035 L152.246 471.915 L147.362 471.915 L147.362 466.035 Z" fill="#000000" fill-rule="nonzero" fill-opacity="1" /><path clip-path="url(#clip850)" d="M175.278 441.429 L163.473 459.878 L175.278 459.878 L175.278 441.429 M174.052 437.355 L179.931 437.355 L179.931 459.878 L184.862 459.878 L184.862 463.767 L179.931 463.767 L179.931 471.915 L175.278 471.915 L175.278 463.767 L159.677 463.767 L159.677 459.253 L174.052 437.355 Z" fill="#000000" fill-rule="nonzero" fill-opacity="1" /><path clip-path="url(#clip850)" d="M192.639 437.355 L210.996 437.355 L210.996 441.29 L196.922 441.29 L196.922 449.762 Q197.94 449.415 198.959 449.253 Q199.977 449.068 200.996 449.068 Q206.783 449.068 210.162 452.239 Q213.542 455.41 213.542 460.827 Q213.542 466.406 210.07 469.508 Q206.598 472.586 200.278 472.586 Q198.102 472.586 195.834 472.216 Q193.588 471.845 191.181 471.105 L191.181 466.406 Q193.264 467.54 195.487 468.095 Q197.709 468.651 200.186 468.651 Q204.19 468.651 206.528 466.545 Q208.866 464.438 208.866 460.827 Q208.866 457.216 206.528 455.109 Q204.19 453.003 200.186 453.003 Q198.311 453.003 196.436 453.42 Q194.584 453.836 192.639 454.716 L192.639 437.355 Z" fill="#000000" fill-rule="nonzero" fill-opacity="1" /><path clip-path="url(#clip850)" d="M126.205 195.118 Q122.593 195.118 120.765 198.683 Q118.959 202.225 118.959 209.354 Q118.959 216.461 120.765 220.025 Q122.593 223.567 126.205 223.567 Q129.839 223.567 131.644 220.025 Q133.473 216.461 133.473 209.354 Q133.473 202.225 131.644 198.683 Q129.839 195.118 126.205 195.118 M126.205 191.414 Q132.015 191.414 135.07 196.021 Q138.149 200.604 138.149 209.354 Q138.149 218.081 135.07 222.687 Q132.015 227.271 126.205 227.271 Q120.394 227.271 117.316 222.687 Q114.26 218.081 114.26 209.354 Q114.26 200.604 117.316 196.021 Q120.394 191.414 126.205 191.414 Z" fill="#000000" fill-rule="nonzero" fill-opacity="1" /><path clip-path="url(#clip850)" d="M146.366 220.72 L151.251 220.72 L151.251 226.599 L146.366 226.599 L146.366 220.72 Z" fill="#000000" fill-rule="nonzero" fill-opacity="1" /><path clip-path="url(#clip850)" d="M161.482 192.039 L179.839 192.039 L179.839 195.975 L165.765 195.975 L165.765 204.447 Q166.783 204.1 167.802 203.937 Q168.82 203.752 169.839 203.752 Q175.626 203.752 179.005 206.924 Q182.385 210.095 182.385 215.511 Q182.385 221.09 178.913 224.192 Q175.44 227.271 169.121 227.271 Q166.945 227.271 164.677 226.9 Q162.431 226.53 160.024 225.789 L160.024 221.09 Q162.107 222.224 164.329 222.78 Q166.552 223.336 169.028 223.336 Q173.033 223.336 175.371 221.229 Q177.709 219.123 177.709 215.511 Q177.709 211.9 175.371 209.794 Q173.033 207.687 169.028 207.687 Q167.153 207.687 165.278 208.104 Q163.427 208.521 161.482 209.4 L161.482 192.039 Z" fill="#000000" fill-rule="nonzero" fill-opacity="1" /><path clip-path="url(#clip850)" d="M201.598 195.118 Q197.987 195.118 196.158 198.683 Q194.352 202.225 194.352 209.354 Q194.352 216.461 196.158 220.025 Q197.987 223.567 201.598 223.567 Q205.232 223.567 207.037 220.025 Q208.866 216.461 208.866 209.354 Q208.866 202.225 207.037 198.683 Q205.232 195.118 201.598 195.118 M201.598 191.414 Q207.408 191.414 210.463 196.021 Q213.542 200.604 213.542 209.354 Q213.542 218.081 210.463 222.687 Q207.408 227.271 201.598 227.271 Q195.787 227.271 192.709 222.687 Q189.653 218.081 189.653 209.354 Q189.653 200.604 192.709 196.021 Q195.787 191.414 201.598 191.414 Z" fill="#000000" fill-rule="nonzero" fill-opacity="1" /><path clip-path="url(#clip850)" d="M44.7161 808.753 L47.5806 808.753 L47.5806 835.68 Q53.6281 835.298 56.8109 832.051 Q59.9619 828.773 59.9619 822.948 Q59.9619 819.574 59.1344 816.423 Q58.3069 813.24 56.6518 810.121 L62.1899 810.121 Q63.5267 813.272 64.227 816.582 Q64.9272 819.893 64.9272 823.298 Q64.9272 831.828 59.9619 836.825 Q54.9967 841.791 46.5303 841.791 Q37.7774 841.791 32.6531 837.08 Q27.4968 832.338 27.4968 824.317 Q27.4968 817.123 32.1438 812.954 Q36.7589 808.753 44.7161 808.753 M42.9973 814.609 Q38.1912 814.673 35.3266 817.314 Q32.4621 819.924 32.4621 824.253 Q32.4621 829.155 35.2312 832.115 Q38.0002 835.043 43.0292 835.489 L42.9973 814.609 Z" fill="#000000" fill-rule="nonzero" fill-opacity="1" /><path clip-path="url(#clip850)" d="M33.8307 778.484 Q33.2578 779.47 33.0032 780.648 Q32.7167 781.794 32.7167 783.194 Q32.7167 788.16 35.9632 790.833 Q39.1779 793.475 45.2253 793.475 L64.0042 793.475 L64.0042 799.363 L28.3562 799.363 L28.3562 793.475 L33.8944 793.475 Q30.6479 791.629 29.0883 788.669 Q27.4968 785.709 27.4968 781.476 Q27.4968 780.871 27.5923 780.139 Q27.656 779.407 27.8151 778.515 L33.8307 778.484 Z" fill="#000000" fill-rule="nonzero" fill-opacity="1" /><path clip-path="url(#clip850)" d="M33.8307 752.83 Q33.2578 753.817 33.0032 754.994 Q32.7167 756.14 32.7167 757.54 Q32.7167 762.506 35.9632 765.179 Q39.1779 767.821 45.2253 767.821 L64.0042 767.821 L64.0042 773.709 L28.3562 773.709 L28.3562 767.821 L33.8944 767.821 Q30.6479 765.975 29.0883 763.015 Q27.4968 760.055 27.4968 755.822 Q27.4968 755.217 27.5923 754.485 Q27.656 753.753 27.8151 752.862 L33.8307 752.83 Z" fill="#000000" fill-rule="nonzero" fill-opacity="1" /><path clip-path="url(#clip850)" d="M32.4621 734.306 Q32.4621 739.016 36.1542 741.754 Q39.8145 744.491 46.212 744.491 Q52.6095 744.491 56.3017 741.785 Q59.9619 739.048 59.9619 734.306 Q59.9619 729.627 56.2698 726.89 Q52.5777 724.152 46.212 724.152 Q39.8781 724.152 36.186 726.89 Q32.4621 729.627 32.4621 734.306 M27.4968 734.306 Q27.4968 726.667 32.4621 722.306 Q37.4273 717.946 46.212 717.946 Q54.9649 717.946 59.9619 722.306 Q64.9272 726.667 64.9272 734.306 Q64.9272 741.976 59.9619 746.337 Q54.9649 750.666 46.212 750.666 Q37.4273 750.666 32.4621 746.337 Q27.4968 741.976 27.4968 734.306 Z" fill="#000000" fill-rule="nonzero" fill-opacity="1" /><path clip-path="url(#clip850)" d="M33.8307 687.581 Q33.2578 688.568 33.0032 689.746 Q32.7167 690.892 32.7167 692.292 Q32.7167 697.257 35.9632 699.931 Q39.1779 702.573 45.2253 702.573 L64.0042 702.573 L64.0042 708.461 L28.3562 708.461 L28.3562 702.573 L33.8944 702.573 Q30.6479 700.727 29.0883 697.766 Q27.4968 694.806 27.4968 690.573 Q27.4968 689.969 27.5923 689.236 Q27.656 688.504 27.8151 687.613 L33.8307 687.581 Z" fill="#000000" fill-rule="nonzero" fill-opacity="1" /><path clip-path="url(#clip850)" d="M1004.68 8.64 L1032 8.64 L1032 13.559 L1010.53 13.559 L1010.53 26.3482 L1031.1 26.3482 L1031.1 31.2672 L1010.53 31.2672 L1010.53 46.921 L1032.52 46.921 L1032.52 51.84 L1004.68 51.84 L1004.68 8.64 Z" fill="#000000" fill-rule="nonzero" fill-opacity="1" /><path clip-path="url(#clip850)" d="M1038.07 19.4328 L1043.71 19.4328 L1053.84 46.6317 L1063.97 19.4328 L1069.61 19.4328 L1057.46 51.84 L1050.22 51.84 L1038.07 19.4328 Z" fill="#000000" fill-rule="nonzero" fill-opacity="1" /><path clip-path="url(#clip850)" d="M1089.52 23.1654 Q1085.24 23.1654 1082.75 26.5218 Q1080.26 29.8494 1080.26 35.6653 Q1080.26 41.4813 1082.72 44.8377 Q1085.21 48.1653 1089.52 48.1653 Q1093.77 48.1653 1096.26 44.8088 Q1098.75 41.4523 1098.75 35.6653 Q1098.75 29.9072 1096.26 26.5508 Q1093.77 23.1654 1089.52 23.1654 M1089.52 18.6515 Q1096.46 18.6515 1100.43 23.1654 Q1104.39 27.6792 1104.39 35.6653 Q1104.39 43.6225 1100.43 48.1653 Q1096.46 52.6791 1089.52 52.6791 Q1082.54 52.6791 1078.58 48.1653 Q1074.65 43.6225 1074.65 35.6653 Q1074.65 27.6792 1078.58 23.1654 Q1082.54 18.6515 1089.52 18.6515 Z" fill="#000000" fill-rule="nonzero" fill-opacity="1" /><path clip-path="url(#clip850)" d="M1113.22 6.81709 L1118.54 6.81709 L1118.54 51.84 L1113.22 51.84 L1113.22 6.81709 Z" fill="#000000" fill-rule="nonzero" fill-opacity="1" /><path clip-path="url(#clip850)" d="M1129.13 39.0507 L1129.13 19.4328 L1134.45 19.4328 L1134.45 38.8482 Q1134.45 43.4488 1136.25 45.7636 Q1138.04 48.0495 1141.63 48.0495 Q1145.94 48.0495 1148.43 45.3007 Q1150.95 42.5519 1150.95 37.8065 L1150.95 19.4328 L1156.27 19.4328 L1156.27 51.84 L1150.95 51.84 L1150.95 46.8632 Q1149.01 49.8145 1146.43 51.2613 Q1143.89 52.6791 1140.5 52.6791 Q1134.92 52.6791 1132.02 49.2069 Q1129.13 45.7347 1129.13 39.0507 M1142.53 18.6515 L1142.53 18.6515 Z" fill="#000000" fill-rule="nonzero" fill-opacity="1" /><path clip-path="url(#clip850)" d="M1172.5 10.2314 L1172.5 19.4328 L1183.47 19.4328 L1183.47 23.5705 L1172.5 23.5705 L1172.5 41.163 Q1172.5 45.1271 1173.57 46.2555 Q1174.67 47.384 1178 47.384 L1183.47 47.384 L1183.47 51.84 L1178 51.84 Q1171.84 51.84 1169.49 49.5541 Q1167.15 47.2393 1167.15 41.163 L1167.15 23.5705 L1163.24 23.5705 L1163.24 19.4328 L1167.15 19.4328 L1167.15 10.2314 L1172.5 10.2314 Z" fill="#000000" fill-rule="nonzero" fill-opacity="1" /><path clip-path="url(#clip850)" d="M1190.47 19.4328 L1195.8 19.4328 L1195.8 51.84 L1190.47 51.84 L1190.47 19.4328 M1190.47 6.81709 L1195.8 6.81709 L1195.8 13.559 L1190.47 13.559 L1190.47 6.81709 Z" fill="#000000" fill-rule="nonzero" fill-opacity="1" /><path clip-path="url(#clip850)" d="M1219.49 23.1654 Q1215.21 23.1654 1212.72 26.5218 Q1210.24 29.8494 1210.24 35.6653 Q1210.24 41.4813 1212.69 44.8377 Q1215.18 48.1653 1219.49 48.1653 Q1223.75 48.1653 1226.24 44.8088 Q1228.72 41.4523 1228.72 35.6653 Q1228.72 29.9072 1226.24 26.5508 Q1223.75 23.1654 1219.49 23.1654 M1219.49 18.6515 Q1226.44 18.6515 1230.4 23.1654 Q1234.37 27.6792 1234.37 35.6653 Q1234.37 43.6225 1230.4 48.1653 Q1226.44 52.6791 1219.49 52.6791 Q1212.52 52.6791 1208.56 48.1653 Q1204.62 43.6225 1204.62 35.6653 Q1204.62 27.6792 1208.56 23.1654 Q1212.52 18.6515 1219.49 18.6515 Z" fill="#000000" fill-rule="nonzero" fill-opacity="1" /><path clip-path="url(#clip850)" d="M1270.13 32.2799 L1270.13 51.84 L1264.81 51.84 L1264.81 32.4535 Q1264.81 27.8529 1263.01 25.567 Q1261.22 23.2811 1257.63 23.2811 Q1253.32 23.2811 1250.83 26.03 Q1248.34 28.7788 1248.34 33.5241 L1248.34 51.84 L1242.99 51.84 L1242.99 19.4328 L1248.34 19.4328 L1248.34 24.4675 Q1250.25 21.545 1252.83 20.0983 Q1255.43 18.6515 1258.82 18.6515 Q1264.4 18.6515 1267.27 22.1237 Q1270.13 25.567 1270.13 32.2799 Z" fill="#000000" fill-rule="nonzero" fill-opacity="1" /><path clip-path="url(#clip850)" d="M1312.14 23.1654 Q1307.86 23.1654 1305.37 26.5218 Q1302.89 29.8494 1302.89 35.6653 Q1302.89 41.4813 1305.34 44.8377 Q1307.83 48.1653 1312.14 48.1653 Q1316.4 48.1653 1318.89 44.8088 Q1321.37 41.4523 1321.37 35.6653 Q1321.37 29.9072 1318.89 26.5508 Q1316.4 23.1654 1312.14 23.1654 M1312.14 18.6515 Q1319.09 18.6515 1323.05 23.1654 Q1327.02 27.6792 1327.02 35.6653 Q1327.02 43.6225 1323.05 48.1653 Q1319.09 52.6791 1312.14 52.6791 Q1305.17 52.6791 1301.21 48.1653 Q1297.27 43.6225 1297.27 35.6653 Q1297.27 27.6792 1301.21 23.1654 Q1305.17 18.6515 1312.14 18.6515 Z" fill="#000000" fill-rule="nonzero" fill-opacity="1" /><path clip-path="url(#clip850)" d="M1352.25 6.81709 L1352.25 11.2442 L1347.16 11.2442 Q1344.29 11.2442 1343.16 12.4016 Q1342.06 13.559 1342.06 16.5682 L1342.06 19.4328 L1350.83 19.4328 L1350.83 23.5705 L1342.06 23.5705 L1342.06 51.84 L1336.71 51.84 L1336.71 23.5705 L1331.62 23.5705 L1331.62 19.4328 L1336.71 19.4328 L1336.71 17.1758 Q1336.71 11.765 1339.23 9.30551 Q1341.74 6.81709 1347.21 6.81709 L1352.25 6.81709 Z" fill="#000000" fill-rule="nonzero" fill-opacity="1" /><path clip-path="url(#clip850)" d="M1380.81 10.2314 L1380.81 19.4328 L1391.77 19.4328 L1391.77 23.5705 L1380.81 23.5705 L1380.81 41.163 Q1380.81 45.1271 1381.88 46.2555 Q1382.98 47.384 1386.3 47.384 L1391.77 47.384 L1391.77 51.84 L1386.3 51.84 Q1380.14 51.84 1377.8 49.5541 Q1375.45 47.2393 1375.45 41.163 L1375.45 23.5705 L1371.55 23.5705 L1371.55 19.4328 L1375.45 19.4328 L1375.45 10.2314 L1380.81 10.2314 Z" fill="#000000" fill-rule="nonzero" fill-opacity="1" /><path clip-path="url(#clip850)" d="M1425.71 32.2799 L1425.71 51.84 L1420.39 51.84 L1420.39 32.4535 Q1420.39 27.8529 1418.6 25.567 Q1416.8 23.2811 1413.21 23.2811 Q1408.9 23.2811 1406.41 26.03 Q1403.93 28.7788 1403.93 33.5241 L1403.93 51.84 L1398.57 51.84 L1398.57 6.81709 L1403.93 6.81709 L1403.93 24.4675 Q1405.84 21.545 1408.41 20.0983 Q1411.02 18.6515 1414.4 18.6515 Q1419.99 18.6515 1422.85 22.1237 Q1425.71 25.567 1425.71 32.2799 Z" fill="#000000" fill-rule="nonzero" fill-opacity="1" /><path clip-path="url(#clip850)" d="M1464.05 34.3054 L1464.05 36.9095 L1439.57 36.9095 Q1439.92 42.4072 1442.87 45.3007 Q1445.85 48.1653 1451.15 48.1653 Q1454.22 48.1653 1457.08 47.4129 Q1459.97 46.6606 1462.81 45.156 L1462.81 50.1907 Q1459.94 51.406 1456.94 52.0425 Q1453.93 52.6791 1450.83 52.6791 Q1443.08 52.6791 1438.53 48.1653 Q1434.02 43.6514 1434.02 35.9547 Q1434.02 27.9975 1438.3 23.339 Q1442.61 18.6515 1449.9 18.6515 Q1456.44 18.6515 1460.23 22.876 Q1464.05 27.0716 1464.05 34.3054 M1458.73 32.7429 Q1458.67 28.3737 1456.27 25.7695 Q1453.9 23.1654 1449.96 23.1654 Q1445.51 23.1654 1442.81 25.6827 Q1440.15 28.2001 1439.75 32.7718 L1458.73 32.7429 Z" fill="#000000" fill-rule="nonzero" fill-opacity="1" /><path clip-path="url(#clip850)" d="M1491.63 6.81709 L1496.95 6.81709 L1496.95 51.84 L1491.63 51.84 L1491.63 6.81709 Z" fill="#000000" fill-rule="nonzero" fill-opacity="1" /><path clip-path="url(#clip850)" d="M1520.65 23.1654 Q1516.37 23.1654 1513.88 26.5218 Q1511.39 29.8494 1511.39 35.6653 Q1511.39 41.4813 1513.85 44.8377 Q1516.34 48.1653 1520.65 48.1653 Q1524.9 48.1653 1527.39 44.8088 Q1529.88 41.4523 1529.88 35.6653 Q1529.88 29.9072 1527.39 26.5508 Q1524.9 23.1654 1520.65 23.1654 M1520.65 18.6515 Q1527.59 18.6515 1531.56 23.1654 Q1535.52 27.6792 1535.52 35.6653 Q1535.52 43.6225 1531.56 48.1653 Q1527.59 52.6791 1520.65 52.6791 Q1513.68 52.6791 1509.71 48.1653 Q1505.78 43.6225 1505.78 35.6653 Q1505.78 27.6792 1509.71 23.1654 Q1513.68 18.6515 1520.65 18.6515 Z" fill="#000000" fill-rule="nonzero" fill-opacity="1" /><path clip-path="url(#clip850)" d="M1565.01 20.3876 L1565.01 25.4223 Q1562.75 24.2649 1560.32 23.6862 Q1557.89 23.1075 1555.29 23.1075 Q1551.32 23.1075 1549.32 24.3228 Q1547.36 25.5381 1547.36 27.9686 Q1547.36 29.8204 1548.77 30.891 Q1550.19 31.9327 1554.48 32.8876 L1556.3 33.2926 Q1561.97 34.5079 1564.34 36.7359 Q1566.74 38.935 1566.74 42.8991 Q1566.74 47.4129 1563.16 50.046 Q1559.6 52.6791 1553.35 52.6791 Q1550.74 52.6791 1547.91 52.1583 Q1545.1 51.6664 1541.98 50.6537 L1541.98 45.156 Q1544.93 46.6896 1547.79 47.4708 Q1550.66 48.2231 1553.46 48.2231 Q1557.22 48.2231 1559.25 46.95 Q1561.27 45.6479 1561.27 43.3042 Q1561.27 41.134 1559.8 39.9766 Q1558.35 38.8192 1553.4 37.7486 L1551.55 37.3146 Q1546.6 36.273 1544.41 34.1318 Q1542.21 31.9616 1542.21 28.2001 Q1542.21 23.6283 1545.45 21.1399 Q1548.69 18.6515 1554.65 18.6515 Q1557.6 18.6515 1560.2 19.0855 Q1562.81 19.5196 1565.01 20.3876 Z" fill="#000000" fill-rule="nonzero" fill-opacity="1" /><path clip-path="url(#clip850)" d="M1595.88 20.3876 L1595.88 25.4223 Q1593.62 24.2649 1591.19 23.6862 Q1588.76 23.1075 1586.16 23.1075 Q1582.19 23.1075 1580.2 24.3228 Q1578.23 25.5381 1578.23 27.9686 Q1578.23 29.8204 1579.65 30.891 Q1581.07 31.9327 1585.35 32.8876 L1587.17 33.2926 Q1592.84 34.5079 1595.22 36.7359 Q1597.62 38.935 1597.62 42.8991 Q1597.62 47.4129 1594.03 50.046 Q1590.47 52.6791 1584.22 52.6791 Q1581.62 52.6791 1578.78 52.1583 Q1575.97 51.6664 1572.85 50.6537 L1572.85 45.156 Q1575.8 46.6896 1578.66 47.4708 Q1581.53 48.2231 1584.34 48.2231 Q1588.1 48.2231 1590.12 46.95 Q1592.15 45.6479 1592.15 43.3042 Q1592.15 41.134 1590.67 39.9766 Q1589.23 38.8192 1584.28 37.7486 L1582.43 37.3146 Q1577.48 36.273 1575.28 34.1318 Q1573.08 31.9616 1573.08 28.2001 Q1573.08 23.6283 1576.32 21.1399 Q1579.56 18.6515 1585.52 18.6515 Q1588.47 18.6515 1591.08 19.0855 Q1593.68 19.5196 1595.88 20.3876 Z" fill="#000000" fill-rule="nonzero" fill-opacity="1" /><polyline clip-path="url(#clip852)" style="stroke:#009af9; stroke-linecap:round; stroke-linejoin:round; stroke-width:4; stroke-opacity:1; fill:none" points="309.067,143.465 311.053,637.463 313.039,451.812 315.025,669.158 317.012,804.596 318.998,735.708 320.984,851.488 322.97,866.116 324.956,971.485 326.942,861.667 328.928,856.195 330.915,823.08 332.901,1028.19 334.887,939.237 336.873,809.42 338.859,890.015 340.845,995.061 342.832,1111.09 344.818,991.732 346.804,1002.96 348.79,918.465 350.776,1023.26 352.762,1046.21 354.748,1064.03 356.735,1034.86 358.721,1032.1 360.707,827.535 362.693,890.763 364.679,1131.7 366.665,979.997 368.651,1050.78 370.638,1022.09 372.624,1098.37 374.61,1166.93 376.596,1020.14 378.582,1052.03 380.568,1076.27 382.555,1130.23 384.541,1076.8 386.527,1143.13 388.513,1162.08 390.499,1092.75 392.485,1150.8 394.471,1176.98 396.458,1063.58 398.444,1052.62 400.43,1124.61 402.416,1171.22 404.402,1065.19 406.388,1056.32 408.374,1104.96 410.361,1151.84 412.347,1125.64 414.333,1074.18 416.319,1190.12 418.305,1078.54 420.291,966.646 422.278,1093.29 424.264,1004.63 426.25,1142.45 428.236,1039.31 430.222,1024.23 432.208,1158.2 434.194,1157.69 436.181,1019.4 438.167,1143.59 440.153,1142.32 442.139,1259.42 444.125,1111.02 446.111,1095.04 448.097,1020.37 450.084,1171.15 452.07,1010.26 454.056,1090.81 456.042,1022.77 458.028,1128.69 460.014,1222.06 462.001,1199.43 463.987,1136.05 465.973,1241.49 467.959,1103.54 469.945,1143.83 471.931,1094.09 473.917,1096.58 475.904,1093.38 477.89,1071.74 479.876,1080.37 481.862,1125.48 483.848,1313.54 485.834,1211.77 487.82,1110.83 489.807,1101.5 491.793,1026.78 493.779,1104.7 495.765,1088.59 497.751,1166.24 499.737,1164.65 501.724,1191.8 503.71,1092.29 505.696,1025.05 507.682,1123.43 509.668,1088.53 511.654,1209.42 513.64,1094.9 515.627,1152.03 517.613,1243.6 519.599,1093.18 521.585,1117.7 523.571,1082.51 525.557,1083.52 527.543,1182.62 529.53,1080.24 531.516,1176.36 533.502,1118.17 535.488,1208.04 537.474,1174.4 539.46,1182.06 541.447,1133.19 543.433,1236.31 545.419,1187.91 547.405,1096.79 549.391,1078.22 551.377,1157.06 553.363,1187.23 555.35,1126.17 557.336,1098.75 559.322,1134.18 561.308,1041.63 563.294,1196.58 565.28,1157.19 567.266,1187.65 569.253,1163.79 571.239,1071.02 573.225,1137.48 575.211,1004.03 577.197,1190.52 579.183,1124.17 581.17,1098.83 583.156,1181.68 585.142,1152.04 587.128,1178.95 589.114,1134.24 591.1,1196.24 593.086,1128.36 595.073,1259.48 597.059,1162.3 599.045,1105.99 601.031,1204.55 603.017,1169.3 605.003,1077.64 606.989,1075.02 608.976,1131.52 610.962,1126.11 612.948,1187.52 614.934,1234.22 616.92,990.787 618.906,1061.77 620.893,1092.71 622.879,1079.99 624.865,1200.5 626.851,1118.48 628.837,1259.99 630.823,1139.77 632.809,1053.87 634.796,1107.97 636.782,1128.08 638.768,1186.08 640.754,1137.69 642.74,1011 644.726,1297.51 646.712,1166.55 648.699,1100.39 650.685,1261.8 652.671,1148.27 654.657,1201.36 656.643,1140.56 658.629,1214.74 660.616,1143.33 662.602,1308.21 664.588,1240.06 666.574,1068.41 668.56,1193.45 670.546,1154.92 672.532,1095.7 674.519,1301.89 676.505,1089.53 678.491,1254.12 680.477,1194.33 682.463,1111.52 684.449,1146.49 686.435,1211.59 688.422,1233.76 690.408,1281.84 692.394,1075.31 694.38,1184.24 696.366,1370.3 698.352,1056.34 700.339,1284.04 702.325,1230.14 704.311,1137.69 706.297,1071.63 708.283,1123.96 710.269,1164.43 712.255,1226.25 714.242,1166.63 716.228,1199.6 718.214,1157.59 720.2,1057.11 722.186,1199.01 724.172,1299.76 726.158,1145.72 728.145,1172.34 730.131,1165.26 732.117,1316.68 734.103,1200.71 736.089,1176.75 738.075,1164.18 740.062,1149.46 742.048,1275.67 744.034,1158.43 746.02,1174.33 748.006,1207.19 749.992,1104.63 751.978,1222.89 753.965,1117.08 755.951,1211.66 757.937,1249.23 759.923,1265.12 761.909,1176.53 763.895,1073.21 765.881,1147.55 767.868,1274.82 769.854,1179.42 771.84,1238.76 773.826,1200.4 775.812,1232.23 777.798,1087.11 779.785,965.056 781.771,1306.15 783.757,1201.18 785.743,1265.91 787.729,1183.65 789.715,1108.21 791.701,1239.31 793.688,1144.73 795.674,1164.16 797.66,1251.46 799.646,1244.69 801.632,1270.18 803.618,1229.06 805.604,1279.64 807.591,1284 809.577,1109.64 811.563,1137.77 813.549,1213.89 815.535,1077.89 817.521,1127.05 819.508,1038.5 821.494,1215.27 823.48,1211.18 825.466,1130.3 827.452,1192.64 829.438,1166.67 831.424,1160.22 833.411,1132.65 835.397,1205.34 837.383,1202.31 839.369,1188.05 841.355,1150.86 843.341,1105.42 845.328,1156.33 847.314,1046.13 849.3,1241.1 851.286,1209.25 853.272,1169.82 855.258,1247.1 857.244,1048.52 859.231,1051.29 861.217,1143.49 863.203,1275.05 865.189,1157.64 867.175,1227.55 869.161,1324.96 871.147,1095.18 873.134,1188.05 875.12,1334.63 877.106,1128.32 879.092,1158.37 881.078,1149.41 883.064,1249.93 885.051,1030.55 887.037,1214.1 889.023,1237.35 891.009,1102.26 892.995,1152.76 894.981,1216.56 896.967,1198.66 898.954,1127.22 900.94,1266.96 902.926,1191.97 904.912,1317.66 906.898,1146.42 908.884,1256.05 910.87,1214.54 912.857,1214.19 914.843,1092.39 916.829,1279.26 918.815,1100.25 920.801,1272.5 922.787,1251.77 924.774,1265.77 926.76,1249.86 928.746,1209.03 930.732,1195.65 932.718,1194.03 934.704,1223.05 936.69,1196.01 938.677,1137.94 940.663,1288.76 942.649,1156.56 944.635,1253.97 946.621,1169.21 948.607,1213.27 950.593,1161.67 952.58,1198.55 954.566,1267.38 956.552,1283.83 958.538,1169.56 960.524,1113 962.51,1266.06 964.497,1130.58 966.483,1303.13 968.469,1170.42 970.455,1164.6 972.441,1288.2 974.427,1147.7 976.413,1196.15 978.4,1196.5 980.386,1175.56 982.372,1137.87 984.358,1149.43 986.344,942.361 988.33,1174.83 990.316,1193.94 992.303,1158.88 994.289,1210.41 996.275,1256.63 998.261,1192.52 1000.25,1217.44 1002.23,1278.92 1004.22,1266.15 1006.21,1224.62 1008.19,1158.95 1010.18,1236.22 1012.16,1252.72 1014.15,1185.04 1016.14,1211.52 1018.12,1150.88 1020.11,1137.09 1022.09,1191.5 1024.08,1179.04 1026.07,1212.17 1028.05,1298.51 1030.04,1275.19 1032.03,1246.57 1034.01,1207.97 1036,1189.56 1037.98,1210.58 1039.97,1219.6 1041.96,1233.55 1043.94,1250.35 1045.93,1155.84 1047.91,1247.97 1049.9,1173.71 1051.89,1139.77 1053.87,1107.74 1055.86,1141.72 1057.85,1229.57 1059.83,1189.45 1061.82,1324.99 1063.8,1299.41 1065.79,1206.56 1067.78,1247.96 1069.76,1205.68 1071.75,1122.52 1073.73,1185.02 1075.72,1174.18 1077.71,1128.69 1079.69,1227.65 1081.68,1078.49 1083.67,1135.67 1085.65,1184.81 1087.64,1192.77 1089.62,1143.85 1091.61,1276.33 1093.6,1035.18 1095.58,1317.38 1097.57,1180.03 1099.55,1210.83 1101.54,1138.59 1103.53,1231.99 1105.51,1231.93 1107.5,1234.36 1109.49,1213.7 1111.47,1227.88 1113.46,1226.42 1115.44,1199.64 1117.43,1137.96 1119.42,1239.8 1121.4,1119.72 1123.39,1234.53 1125.37,1187.19 1127.36,1088.37 1129.35,1213.31 1131.33,1232.89 1133.32,1312.98 1135.31,1256.02 1137.29,1102.36 1139.28,1194.2 1141.26,1144.03 1143.25,1226.62 1145.24,1188.24 1147.22,1340.78 1149.21,1250.99 1151.19,1203.78 1153.18,1331.18 1155.17,1235.02 1157.15,1203.45 1159.14,1273.2 1161.13,1117.48 1163.11,1320.42 1165.1,1254.13 1167.08,1194.67 1169.07,1025.99 1171.06,1251.18 1173.04,1299.25 1175.03,1226.66 1177.01,1293.55 1179,1155.81 1180.99,1261.15 1182.97,1153.31 1184.96,1068.26 1186.95,1293.77 1188.93,1294.34 1190.92,1150.16 1192.9,1323.84 1194.89,1284.99 1196.88,1255.7 1198.86,1347.73 1200.85,1180.3 1202.83,1164.27 1204.82,1217.94 1206.81,1255.43 1208.79,1249.01 1210.78,1205.98 1212.77,1189.92 1214.75,1249.71 1216.74,1238.6 1218.72,1208.79 1220.71,1222.8 1222.7,1329.52 1224.68,1246.36 1226.67,1239.71 1228.65,1215.08 1230.64,1234.79 1232.63,1167.54 1234.61,1130.44 1236.6,1151.88 1238.59,1229.44 1240.57,1280.93 1242.56,1206.01 1244.54,1206.94 1246.53,1307 1248.52,1128.75 1250.5,1218.22 1252.49,1227.31 1254.47,1130.94 1256.46,1215.78 1258.45,1229.15 1260.43,1191.23 1262.42,1258.94 1264.41,1100.92 1266.39,1143.25 1268.38,1205.44 1270.36,1131.55 1272.35,1213.12 1274.34,1156.47 1276.32,1307.08 1278.31,1122.6 1280.29,1166.4 1282.28,1139.59 1284.27,1186.15 1286.25,1291.76 1288.24,1257.82 1290.23,1183.49 1292.21,1262.71 1294.2,1207.39 1296.18,1215.19 1298.17,1219.82 1300.16,1170.31 1302.14,1254.45 1304.13,1189.79 1306.11,1242.08 1308.1,1111.12 1310.09,1261.86 1312.07,1203.67 1314.06,1268.94 1316.05,1187.35 1318.03,1230.95 1320.02,1283.61 1322,1103.22 1323.99,1219.52 1325.98,1121.04 1327.96,1075.16 1329.95,1221.08 1331.93,1257.54 1333.92,1165.38 1335.91,1209.2 1337.89,1168.41 1339.88,1155.88 1341.87,1322.85 1343.85,1307.71 1345.84,1344.28 1347.82,1195.69 1349.81,1213.53 1351.8,1165.86 1353.78,1148.44 1355.77,1248.62 1357.75,1160.54 1359.74,1123.63 1361.73,1104.72 1363.71,1197.15 1365.7,1307.38 1367.69,1133.49 1369.67,1161.03 1371.66,1242.83 1373.64,1249.16 1375.63,1081.44 1377.62,1306.34 1379.6,1113.34 1381.59,1217.57 1383.57,1165.47 1385.56,1122.74 1387.55,1178.07 1389.53,1227.5 1391.52,1043.84 1393.5,1151.86 1395.49,1330.91 1397.48,1227.97 1399.46,1233.24 1401.45,1259.39 1403.44,1129.67 1405.42,1082.25 1407.41,1385.91 1409.39,1268.82 1411.38,1255.55 1413.37,1167.34 1415.35,1172.02 1417.34,1238.87 1419.32,1240.57 1421.31,1263.85 1423.3,1204.02 1425.28,1228.76 1427.27,1347.95 1429.26,1233.43 1431.24,1266.01 1433.23,1270.54 1435.21,1184.65 1437.2,1115.99 1439.19,1192.71 1441.17,1204.4 1443.16,1250.92 1445.14,1234.51 1447.13,1223.29 1449.12,1229.61 1451.1,1247.75 1453.09,1223.66 1455.08,1154.17 1457.06,1176.74 1459.05,1355.46 1461.03,1018.94 1463.02,1297.81 1465.01,1330.24 1466.99,1185.32 1468.98,1107.36 1470.96,1294.07 1472.95,1221.27 1474.94,1204.69 1476.92,1115.32 1478.91,1220.81 1480.9,1120.21 1482.88,1185.15 1484.87,1233.6 1486.85,1220.53 1488.84,1103.17 1490.83,1223.34 1492.81,1235.1 1494.8,1179.43 1496.78,1217.45 1498.77,1184.71 1500.76,1074.33 1502.74,1166.14 1504.73,1257.22 1506.72,1213.04 1508.7,1277.98 1510.69,1092.51 1512.67,1208.74 1514.66,1162.95 1516.65,1130.39 1518.63,1161.14 1520.62,1174.78 1522.6,1130.62 1524.59,1237.7 1526.58,1230.67 1528.56,1162.83 1530.55,1328.19 1532.54,1239.24 1534.52,1278.35 1536.51,1266.18 1538.49,1125.35 1540.48,1274.35 1542.47,1184.54 1544.45,1171.31 1546.44,1252.67 1548.42,1212.46 1550.41,1319.52 1552.4,1340.23 1554.38,1284.6 1556.37,1221.32 1558.36,1170.83 1560.34,1150.65 1562.33,1272.45 1564.31,1220.13 1566.3,1108.37 1568.29,1159.78 1570.27,1321.49 1572.26,1290.57 1574.24,1138.83 1576.23,1136.89 1578.22,1270.76 1580.2,1269.75 1582.19,1214.36 1584.18,1227.48 1586.16,1139.73 1588.15,1099.37 1590.13,1185.37 1592.12,1248.41 1594.11,1147.02 1596.09,1099.33 1598.08,1068.65 1600.06,1068.81 1602.05,1128.93 1604.04,1121.32 1606.02,1237.57 1608.01,1078.83 1610,1141.48 1611.98,1055.76 1613.97,1019.57 1615.95,1180.93 1617.94,1267.17 1619.93,1125.5 1621.91,1360.62 1623.9,1150.71 1625.88,1067.99 1627.87,1203.4 1629.86,1102.45 1631.84,1285.8 1633.83,1255.23 1635.82,1325.45 1637.8,1222.61 1639.79,1132.78 1641.77,1239.37 1643.76,1253.86 1645.75,1197.01 1647.73,1265.56 1649.72,1245.5 1651.7,1220.28 1653.69,1170.97 1655.68,1234.32 1657.66,1211.25 1659.65,1057.36 1661.64,1319.39 1663.62,1192.7 1665.61,1203.89 1667.59,1251.66 1669.58,1249.46 1671.57,1267.52 1673.55,1143.14 1675.54,1298.88 1677.52,1193.5 1679.51,1178.58 1681.5,1163.22 1683.48,1265.88 1685.47,1201.19 1687.46,1213.85 1689.44,1151.65 1691.43,1126.81 1693.41,1260.63 1695.4,1208.79 1697.39,1150.39 1699.37,1147.37 1701.36,1191.87 1703.34,1326.91 1705.33,1213.35 1707.32,1228.46 1709.3,1174.15 1711.29,1179.38 1713.28,1185.29 1715.26,1193.62 1717.25,1197.51 1719.23,1273.84 1721.22,1291.24 1723.21,1245.05 1725.19,1225.71 1727.18,1028.33 1729.16,1183.16 1731.15,1263.49 1733.14,1217.43 1735.12,1203.02 1737.11,1159 1739.1,1189.45 1741.08,1129.22 1743.07,1215.91 1745.05,1122.88 1747.04,1250.5 1749.03,1250.61 1751.01,1244.21 1753,1171.08 1754.98,1214.5 1756.97,1144.35 1758.96,1182.17 1760.94,1240.2 1762.93,1191.5 1764.92,1143.4 1766.9,1190.23 1768.89,1224.88 1770.87,1181.5 1772.86,1176.88 1774.85,1236.41 1776.83,1238.34 1778.82,1295.42 1780.8,1339.18 1782.79,1243.55 1784.78,1225.59 1786.76,1262.5 1788.75,1203.8 1790.73,1142.35 1792.72,1093.54 1794.71,1149.82 1796.69,1226.62 1798.68,1149.53 1800.67,1286.58 1802.65,1256.33 1804.64,1183.65 1806.62,1228.17 1808.61,1189.31 1810.6,1301.02 1812.58,1147.51 1814.57,1118.67 1816.55,1287.63 1818.54,1228.94 1820.53,1264.52 1822.51,1166.97 1824.5,1216.39 1826.49,1170.6 1828.47,1323.19 1830.46,1138.12 1832.44,1128.94 1834.43,1216.78 1836.42,1137.53 1838.4,1265.25 1840.39,1335.75 1842.37,1194.81 1844.36,1214.22 1846.35,1197.44 1848.33,1222.55 1850.32,1273.09 1852.31,1205.43 1854.29,1140.56 1856.28,1267.95 1858.26,1236.81 1860.25,1224.14 1862.24,1117.44 1864.22,1264.75 1866.21,1221.16 1868.19,1323.5 1870.18,1093.02 1872.17,1352.88 1874.15,1134.71 1876.14,1293.27 1878.13,1215.68 1880.11,1320.99 1882.1,1108.72 1884.08,1253.6 1886.07,1287.67 1888.06,1202.32 1890.04,1296.16 1892.03,1247.35 1894.01,1131.12 1896,1271.32 1897.99,1288.44 1899.97,1148.91 1901.96,1122.44 1903.95,1242.39 1905.93,1085.87 1907.92,1232.72 1909.9,1149.21 1911.89,1249.25 1913.88,1149.24 1915.86,1171.43 1917.85,1178.16 1919.83,1337.1 1921.82,1243.11 1923.81,1209.7 1925.79,1184.66 1927.78,1212.22 1929.77,1170.59 1931.75,1131.56 1933.74,1269.19 1935.72,1098.32 1937.71,1277.81 1939.7,1325.67 1941.68,1231.14 1943.67,1228.55 1945.65,1237.19 1947.64,1145.21 1949.63,1267.55 1951.61,1307.36 1953.6,1292.3 1955.59,1180.6 1957.57,1273.93 1959.56,1215.33 1961.54,1217.45 1963.53,1128.08 1965.52,1147.36 1967.5,1182.86 1969.49,1189.11 1971.47,1225.28 1973.46,1208.53 1975.45,1187.15 1977.43,1115.18 1979.42,1369.65 1981.41,1206.88 1983.39,1221.44 1985.38,1312.78 1987.36,1201.07 1989.35,1289.1 1991.34,1178.95 1993.32,1173.07 1995.31,1239.92 1997.29,1258.59 1999.28,1208.6 2001.27,1156.28 2003.25,1336.88 2005.24,1276.34 2007.23,1283.5 2009.21,1376.65 2011.2,1311.91 2013.18,1195.68 2015.17,1208.84 2017.16,1160.23 2019.14,1246.86 2021.13,1289.72 2023.11,1205.69 2025.1,1234.68 2027.09,1145.42 2029.07,1173.17 2031.06,1385.55 2033.05,1158.27 2035.03,1068.5 2037.02,1256.91 2039,1249.1 2040.99,1192.24 2042.98,1259.29 2044.96,1173.95 2046.95,1209.13 2048.93,1170.24 2050.92,1187.19 2052.91,1238.71 2054.89,1159.75 2056.88,1211.66 2058.87,1130.34 2060.85,1327.21 2062.84,1206.35 2064.82,1216.43 2066.81,1114.59 2068.8,1237.68 2070.78,1079.59 2072.77,1148.66 2074.75,1135.44 2076.74,1073.21 2078.73,1302.7 2080.71,1204.95 2082.7,1278.86 2084.69,1231.74 2086.67,1250.27 2088.66,1160.34 2090.64,1102.14 2092.63,1226.67 2094.62,1372.7 2096.6,1129.77 2098.59,1207.04 2100.57,1121.28 2102.56,1220.68 2104.55,1208.93 2106.53,1298.39 2108.52,1269.3 2110.51,1128.23 2112.49,1198.36 2114.48,1103.84 2116.46,1246.12 2118.45,1145.14 2120.44,1246.41 2122.42,1269.27 2124.41,1201.42 2126.39,1229.68 2128.38,1277.39 2130.37,1155.39 2132.35,1206.37 2134.34,1267.63 2136.33,1261.29 2138.31,1284.54 2140.3,1321 2142.28,1273.88 2144.27,1319.97 2146.26,1166.09 2148.24,1233.64 2150.23,1229.13 2152.21,1172.84 2154.2,1287.46 2156.19,1276.6 2158.17,1190.4 2160.16,1279.76 2162.15,1062.55 2164.13,1165.12 2166.12,1145.29 2168.1,1239.49 2170.09,1236.94 2172.08,1202.54 2174.06,1284.28 2176.05,1118.97 2178.03,1173.91 2180.02,1166.23 2182.01,1157.9 2183.99,1321.88 2185.98,1316.41 2187.97,1066.2 2189.95,1228.45 2191.94,1172.48 2193.92,1269.85 2195.91,1134.43 2197.9,1211.17 2199.88,1243.64 2201.87,1258.59 2203.85,1349.72 2205.84,1161.76 2207.83,1286.39 2209.81,1264.88 2211.8,1279.17 2213.78,1275.57 2215.77,1195.14 2217.76,1293.21 2219.74,1251.66 2221.73,1230.86 2223.72,1212.83 2225.7,1257.26 2227.69,1244.02 2229.67,1107.58 2231.66,1237.1 2233.65,1255.85 2235.63,1197.34 2237.62,1188.61 2239.6,1201.47 2241.59,1137.81 2243.58,1203.53 2245.56,1312.36 2247.55,1228.43 2249.54,1216.93 2251.52,1155.38 2253.51,1296.3 2255.49,1198.17 2257.48,1207.32 2259.47,1271.45 2261.45,1272.55 2263.44,1137.91 2265.42,1241.12 2267.41,1262.46 2269.4,1235.34 2271.38,1176.71 2273.37,1226.98 2275.36,1299.56 2277.34,1303.1 2279.33,1264.03 2281.31,1114.9 2283.3,1149.44 2285.29,1070.48 2287.27,1201.19 2289.26,1181.1 2291.24,1233.13 2293.23,1230.55 "/>
</svg>
