<?xml version="1.0" encoding="utf-8"?>
<svg xmlns="http://www.w3.org/2000/svg" xmlns:xlink="http://www.w3.org/1999/xlink" width="600" height="400" viewBox="0 0 2400 1600">
<defs>
  <clipPath id="clip650">
    <rect x="0" y="0" width="2400" height="1600"/>
  </clipPath>
</defs>
<path clip-path="url(#clip650)" d="M0 1600 L2400 1600 L2400 0 L0 0  Z" fill="#ffffff" fill-rule="evenodd" fill-opacity="1"/>
<defs>
  <clipPath id="clip651">
    <rect x="480" y="0" width="1681" height="1600"/>
  </clipPath>
</defs>
<path clip-path="url(#clip650)" d="M255.607 1423.18 L2352.76 1423.18 L2352.76 106.192 L255.607 106.192  Z" fill="#ffffff" fill-rule="evenodd" fill-opacity="1"/>
<defs>
  <clipPath id="clip652">
    <rect x="255" y="106" width="2098" height="1318"/>
  </clipPath>
</defs>
<polyline clip-path="url(#clip652)" style="stroke:#000000; stroke-linecap:round; stroke-linejoin:round; stroke-width:2; stroke-opacity:0.1; fill:none" points="310.995,1423.18 310.995,106.192 "/>
<polyline clip-path="url(#clip652)" style="stroke:#000000; stroke-linecap:round; stroke-linejoin:round; stroke-width:2; stroke-opacity:0.1; fill:none" points="707.477,1423.18 707.477,106.192 "/>
<polyline clip-path="url(#clip652)" style="stroke:#000000; stroke-linecap:round; stroke-linejoin:round; stroke-width:2; stroke-opacity:0.1; fill:none" points="1103.96,1423.18 1103.96,106.192 "/>
<polyline clip-path="url(#clip652)" style="stroke:#000000; stroke-linecap:round; stroke-linejoin:round; stroke-width:2; stroke-opacity:0.1; fill:none" points="1500.44,1423.18 1500.44,106.192 "/>
<polyline clip-path="url(#clip652)" style="stroke:#000000; stroke-linecap:round; stroke-linejoin:round; stroke-width:2; stroke-opacity:0.1; fill:none" points="1896.92,1423.18 1896.92,106.192 "/>
<polyline clip-path="url(#clip652)" style="stroke:#000000; stroke-linecap:round; stroke-linejoin:round; stroke-width:2; stroke-opacity:0.1; fill:none" points="2293.4,1423.18 2293.4,106.192 "/>
<polyline clip-path="url(#clip650)" style="stroke:#000000; stroke-linecap:round; stroke-linejoin:round; stroke-width:4; stroke-opacity:1; fill:none" points="255.607,1423.18 2352.76,1423.18 "/>
<polyline clip-path="url(#clip650)" style="stroke:#000000; stroke-linecap:round; stroke-linejoin:round; stroke-width:4; stroke-opacity:1; fill:none" points="310.995,1423.18 310.995,1404.28 "/>
<polyline clip-path="url(#clip650)" style="stroke:#000000; stroke-linecap:round; stroke-linejoin:round; stroke-width:4; stroke-opacity:1; fill:none" points="707.477,1423.18 707.477,1404.28 "/>
<polyline clip-path="url(#clip650)" style="stroke:#000000; stroke-linecap:round; stroke-linejoin:round; stroke-width:4; stroke-opacity:1; fill:none" points="1103.96,1423.18 1103.96,1404.28 "/>
<polyline clip-path="url(#clip650)" style="stroke:#000000; stroke-linecap:round; stroke-linejoin:round; stroke-width:4; stroke-opacity:1; fill:none" points="1500.44,1423.18 1500.44,1404.28 "/>
<polyline clip-path="url(#clip650)" style="stroke:#000000; stroke-linecap:round; stroke-linejoin:round; stroke-width:4; stroke-opacity:1; fill:none" points="1896.92,1423.18 1896.92,1404.28 "/>
<polyline clip-path="url(#clip650)" style="stroke:#000000; stroke-linecap:round; stroke-linejoin:round; stroke-width:4; stroke-opacity:1; fill:none" points="2293.4,1423.18 2293.4,1404.28 "/>
<path clip-path="url(#clip650)" d="M310.995 1454.1 Q307.384 1454.1 305.555 1457.66 Q303.75 1461.2 303.75 1468.33 Q303.75 1475.44 305.555 1479.01 Q307.384 1482.55 310.995 1482.55 Q314.63 1482.55 316.435 1479.01 Q318.264 1475.44 318.264 1468.33 Q318.264 1461.2 316.435 1457.66 Q314.63 1454.1 310.995 1454.1 M310.995 1450.39 Q316.805 1450.39 319.861 1455 Q322.94 1459.58 322.94 1468.33 Q322.94 1477.06 319.861 1481.67 Q316.805 1486.25 310.995 1486.25 Q305.185 1486.25 302.106 1481.67 Q299.051 1477.06 299.051 1468.33 Q299.051 1459.58 302.106 1455 Q305.185 1450.39 310.995 1450.39 Z" fill="#000000" fill-rule="nonzero" fill-opacity="1" /><path clip-path="url(#clip650)" d="M667.083 1481.64 L674.722 1481.64 L674.722 1455.28 L666.412 1456.95 L666.412 1452.69 L674.676 1451.02 L679.352 1451.02 L679.352 1481.64 L686.991 1481.64 L686.991 1485.58 L667.083 1485.58 L667.083 1481.64 Z" fill="#000000" fill-rule="nonzero" fill-opacity="1" /><path clip-path="url(#clip650)" d="M706.435 1454.1 Q702.824 1454.1 700.995 1457.66 Q699.19 1461.2 699.19 1468.33 Q699.19 1475.44 700.995 1479.01 Q702.824 1482.55 706.435 1482.55 Q710.069 1482.55 711.875 1479.01 Q713.704 1475.44 713.704 1468.33 Q713.704 1461.2 711.875 1457.66 Q710.069 1454.1 706.435 1454.1 M706.435 1450.39 Q712.245 1450.39 715.301 1455 Q718.379 1459.58 718.379 1468.33 Q718.379 1477.06 715.301 1481.67 Q712.245 1486.25 706.435 1486.25 Q700.625 1486.25 697.546 1481.67 Q694.491 1477.06 694.491 1468.33 Q694.491 1459.58 697.546 1455 Q700.625 1450.39 706.435 1450.39 Z" fill="#000000" fill-rule="nonzero" fill-opacity="1" /><path clip-path="url(#clip650)" d="M736.597 1454.1 Q732.986 1454.1 731.157 1457.66 Q729.352 1461.2 729.352 1468.33 Q729.352 1475.44 731.157 1479.01 Q732.986 1482.55 736.597 1482.55 Q740.231 1482.55 742.037 1479.01 Q743.865 1475.44 743.865 1468.33 Q743.865 1461.2 742.037 1457.66 Q740.231 1454.1 736.597 1454.1 M736.597 1450.39 Q742.407 1450.39 745.463 1455 Q748.541 1459.58 748.541 1468.33 Q748.541 1477.06 745.463 1481.67 Q742.407 1486.25 736.597 1486.25 Q730.787 1486.25 727.708 1481.67 Q724.653 1477.06 724.653 1468.33 Q724.653 1459.58 727.708 1455 Q730.787 1450.39 736.597 1450.39 Z" fill="#000000" fill-rule="nonzero" fill-opacity="1" /><path clip-path="url(#clip650)" d="M1067.65 1481.64 L1083.97 1481.64 L1083.97 1485.58 L1062.03 1485.58 L1062.03 1481.64 Q1064.69 1478.89 1069.27 1474.26 Q1073.88 1469.61 1075.06 1468.27 Q1077.3 1465.74 1078.18 1464.01 Q1079.09 1462.25 1079.09 1460.56 Q1079.09 1457.8 1077.14 1456.07 Q1075.22 1454.33 1072.12 1454.33 Q1069.92 1454.33 1067.47 1455.09 Q1065.03 1455.86 1062.26 1457.41 L1062.26 1452.69 Q1065.08 1451.55 1067.53 1450.97 Q1069.99 1450.39 1072.03 1450.39 Q1077.4 1450.39 1080.59 1453.08 Q1083.78 1455.77 1083.78 1460.26 Q1083.78 1462.39 1082.97 1464.31 Q1082.19 1466.2 1080.08 1468.8 Q1079.5 1469.47 1076.4 1472.69 Q1073.3 1475.88 1067.65 1481.64 Z" fill="#000000" fill-rule="nonzero" fill-opacity="1" /><path clip-path="url(#clip650)" d="M1103.78 1454.1 Q1100.17 1454.1 1098.34 1457.66 Q1096.54 1461.2 1096.54 1468.33 Q1096.54 1475.44 1098.34 1479.01 Q1100.17 1482.55 1103.78 1482.55 Q1107.42 1482.55 1109.22 1479.01 Q1111.05 1475.44 1111.05 1468.33 Q1111.05 1461.2 1109.22 1457.66 Q1107.42 1454.1 1103.78 1454.1 M1103.78 1450.39 Q1109.59 1450.39 1112.65 1455 Q1115.73 1459.58 1115.73 1468.33 Q1115.73 1477.06 1112.65 1481.67 Q1109.59 1486.25 1103.78 1486.25 Q1097.97 1486.25 1094.9 1481.67 Q1091.84 1477.06 1091.84 1468.33 Q1091.84 1459.58 1094.9 1455 Q1097.97 1450.39 1103.78 1450.39 Z" fill="#000000" fill-rule="nonzero" fill-opacity="1" /><path clip-path="url(#clip650)" d="M1133.95 1454.1 Q1130.34 1454.1 1128.51 1457.66 Q1126.7 1461.2 1126.7 1468.33 Q1126.7 1475.44 1128.51 1479.01 Q1130.34 1482.55 1133.95 1482.55 Q1137.58 1482.55 1139.39 1479.01 Q1141.21 1475.44 1141.21 1468.33 Q1141.21 1461.2 1139.39 1457.66 Q1137.58 1454.1 1133.95 1454.1 M1133.95 1450.39 Q1139.76 1450.39 1142.81 1455 Q1145.89 1459.58 1145.89 1468.33 Q1145.89 1477.06 1142.81 1481.67 Q1139.76 1486.25 1133.95 1486.25 Q1128.14 1486.25 1125.06 1481.67 Q1122 1477.06 1122 1468.33 Q1122 1459.58 1125.06 1455 Q1128.14 1450.39 1133.95 1450.39 Z" fill="#000000" fill-rule="nonzero" fill-opacity="1" /><path clip-path="url(#clip650)" d="M1474.2 1466.95 Q1477.56 1467.66 1479.43 1469.93 Q1481.33 1472.2 1481.33 1475.53 Q1481.33 1480.65 1477.81 1483.45 Q1474.29 1486.25 1467.81 1486.25 Q1465.64 1486.25 1463.32 1485.81 Q1461.03 1485.39 1458.58 1484.54 L1458.58 1480.02 Q1460.52 1481.16 1462.84 1481.74 Q1465.15 1482.32 1467.67 1482.32 Q1472.07 1482.32 1474.36 1480.58 Q1476.68 1478.84 1476.68 1475.53 Q1476.68 1472.48 1474.53 1470.77 Q1472.4 1469.03 1468.58 1469.03 L1464.55 1469.03 L1464.55 1465.19 L1468.76 1465.19 Q1472.21 1465.19 1474.04 1463.82 Q1475.87 1462.43 1475.87 1459.84 Q1475.87 1457.18 1473.97 1455.77 Q1472.09 1454.33 1468.58 1454.33 Q1466.66 1454.33 1464.46 1454.75 Q1462.26 1455.16 1459.62 1456.04 L1459.62 1451.88 Q1462.28 1451.14 1464.59 1450.77 Q1466.93 1450.39 1468.99 1450.39 Q1474.32 1450.39 1477.42 1452.83 Q1480.52 1455.23 1480.52 1459.35 Q1480.52 1462.22 1478.88 1464.21 Q1477.23 1466.18 1474.2 1466.95 Z" fill="#000000" fill-rule="nonzero" fill-opacity="1" /><path clip-path="url(#clip650)" d="M1500.2 1454.1 Q1496.59 1454.1 1494.76 1457.66 Q1492.95 1461.2 1492.95 1468.33 Q1492.95 1475.44 1494.76 1479.01 Q1496.59 1482.55 1500.2 1482.55 Q1503.83 1482.55 1505.64 1479.01 Q1507.47 1475.44 1507.47 1468.33 Q1507.47 1461.2 1505.64 1457.66 Q1503.83 1454.1 1500.2 1454.1 M1500.2 1450.39 Q1506.01 1450.39 1509.06 1455 Q1512.14 1459.58 1512.14 1468.33 Q1512.14 1477.06 1509.06 1481.67 Q1506.01 1486.25 1500.2 1486.25 Q1494.39 1486.25 1491.31 1481.67 Q1488.25 1477.06 1488.25 1468.33 Q1488.25 1459.58 1491.31 1455 Q1494.39 1450.39 1500.2 1450.39 Z" fill="#000000" fill-rule="nonzero" fill-opacity="1" /><path clip-path="url(#clip650)" d="M1530.36 1454.1 Q1526.75 1454.1 1524.92 1457.66 Q1523.11 1461.2 1523.11 1468.33 Q1523.11 1475.44 1524.92 1479.01 Q1526.75 1482.55 1530.36 1482.55 Q1533.99 1482.55 1535.8 1479.01 Q1537.63 1475.44 1537.63 1468.33 Q1537.63 1461.2 1535.8 1457.66 Q1533.99 1454.1 1530.36 1454.1 M1530.36 1450.39 Q1536.17 1450.39 1539.22 1455 Q1542.3 1459.58 1542.3 1468.33 Q1542.3 1477.06 1539.22 1481.67 Q1536.17 1486.25 1530.36 1486.25 Q1524.55 1486.25 1521.47 1481.67 Q1518.41 1477.06 1518.41 1468.33 Q1518.41 1459.58 1521.47 1455 Q1524.55 1450.39 1530.36 1450.39 Z" fill="#000000" fill-rule="nonzero" fill-opacity="1" /><path clip-path="url(#clip650)" d="M1870.01 1455.09 L1858.21 1473.54 L1870.01 1473.54 L1870.01 1455.09 M1868.78 1451.02 L1874.66 1451.02 L1874.66 1473.54 L1879.59 1473.54 L1879.59 1477.43 L1874.66 1477.43 L1874.66 1485.58 L1870.01 1485.58 L1870.01 1477.43 L1854.41 1477.43 L1854.41 1472.92 L1868.78 1451.02 Z" fill="#000000" fill-rule="nonzero" fill-opacity="1" /><path clip-path="url(#clip650)" d="M1897.33 1454.1 Q1893.72 1454.1 1891.89 1457.66 Q1890.08 1461.2 1890.08 1468.33 Q1890.08 1475.44 1891.89 1479.01 Q1893.72 1482.55 1897.33 1482.55 Q1900.96 1482.55 1902.77 1479.01 Q1904.59 1475.44 1904.59 1468.33 Q1904.59 1461.2 1902.77 1457.66 Q1900.96 1454.1 1897.33 1454.1 M1897.33 1450.39 Q1903.14 1450.39 1906.19 1455 Q1909.27 1459.58 1909.27 1468.33 Q1909.27 1477.06 1906.19 1481.67 Q1903.14 1486.25 1897.33 1486.25 Q1891.52 1486.25 1888.44 1481.67 Q1885.38 1477.06 1885.38 1468.33 Q1885.38 1459.58 1888.44 1455 Q1891.52 1450.39 1897.33 1450.39 Z" fill="#000000" fill-rule="nonzero" fill-opacity="1" /><path clip-path="url(#clip650)" d="M1927.49 1454.1 Q1923.88 1454.1 1922.05 1457.66 Q1920.24 1461.2 1920.24 1468.33 Q1920.24 1475.44 1922.05 1479.01 Q1923.88 1482.55 1927.49 1482.55 Q1931.12 1482.55 1932.93 1479.01 Q1934.76 1475.44 1934.76 1468.33 Q1934.76 1461.2 1932.93 1457.66 Q1931.12 1454.1 1927.49 1454.1 M1927.49 1450.39 Q1933.3 1450.39 1936.35 1455 Q1939.43 1459.58 1939.43 1468.33 Q1939.43 1477.06 1936.35 1481.67 Q1933.3 1486.25 1927.49 1486.25 Q1921.68 1486.25 1918.6 1481.67 Q1915.54 1477.06 1915.54 1468.33 Q1915.54 1459.58 1918.6 1455 Q1921.68 1450.39 1927.49 1450.39 Z" fill="#000000" fill-rule="nonzero" fill-opacity="1" /><path clip-path="url(#clip650)" d="M2253.02 1451.02 L2271.38 1451.02 L2271.38 1454.96 L2257.3 1454.96 L2257.3 1463.43 Q2258.32 1463.08 2259.34 1462.92 Q2260.36 1462.73 2261.38 1462.73 Q2267.16 1462.73 2270.54 1465.9 Q2273.92 1469.08 2273.92 1474.49 Q2273.92 1480.07 2270.45 1483.17 Q2266.98 1486.25 2260.66 1486.25 Q2258.48 1486.25 2256.22 1485.88 Q2253.97 1485.51 2251.56 1484.77 L2251.56 1480.07 Q2253.65 1481.2 2255.87 1481.76 Q2258.09 1482.32 2260.57 1482.32 Q2264.57 1482.32 2266.91 1480.21 Q2269.25 1478.1 2269.25 1474.49 Q2269.25 1470.88 2266.91 1468.77 Q2264.57 1466.67 2260.57 1466.67 Q2258.69 1466.67 2256.82 1467.08 Q2254.97 1467.5 2253.02 1468.38 L2253.02 1451.02 Z" fill="#000000" fill-rule="nonzero" fill-opacity="1" /><path clip-path="url(#clip650)" d="M2293.14 1454.1 Q2289.53 1454.1 2287.7 1457.66 Q2285.89 1461.2 2285.89 1468.33 Q2285.89 1475.44 2287.7 1479.01 Q2289.53 1482.55 2293.14 1482.55 Q2296.77 1482.55 2298.58 1479.01 Q2300.4 1475.44 2300.4 1468.33 Q2300.4 1461.2 2298.58 1457.66 Q2296.77 1454.1 2293.14 1454.1 M2293.14 1450.39 Q2298.95 1450.39 2302 1455 Q2305.08 1459.58 2305.08 1468.33 Q2305.08 1477.06 2302 1481.67 Q2298.95 1486.25 2293.14 1486.25 Q2287.33 1486.25 2284.25 1481.67 Q2281.19 1477.06 2281.19 1468.33 Q2281.19 1459.58 2284.25 1455 Q2287.33 1450.39 2293.14 1450.39 Z" fill="#000000" fill-rule="nonzero" fill-opacity="1" /><path clip-path="url(#clip650)" d="M2323.3 1454.1 Q2319.69 1454.1 2317.86 1457.66 Q2316.05 1461.2 2316.05 1468.33 Q2316.05 1475.44 2317.86 1479.01 Q2319.69 1482.55 2323.3 1482.55 Q2326.93 1482.55 2328.74 1479.01 Q2330.57 1475.44 2330.57 1468.33 Q2330.57 1461.2 2328.74 1457.66 Q2326.93 1454.1 2323.3 1454.1 M2323.3 1450.39 Q2329.11 1450.39 2332.16 1455 Q2335.24 1459.58 2335.24 1468.33 Q2335.24 1477.06 2332.16 1481.67 Q2329.11 1486.25 2323.3 1486.25 Q2317.49 1486.25 2314.41 1481.67 Q2311.35 1477.06 2311.35 1468.33 Q2311.35 1459.58 2314.41 1455 Q2317.49 1450.39 2323.3 1450.39 Z" fill="#000000" fill-rule="nonzero" fill-opacity="1" /><path clip-path="url(#clip650)" d="M1172.33 1532.4 L1178.19 1532.4 L1178.19 1568.04 L1172.33 1568.04 L1172.33 1532.4 M1172.33 1518.52 L1178.19 1518.52 L1178.19 1525.93 L1172.33 1525.93 L1172.33 1518.52 Z" fill="#000000" fill-rule="nonzero" fill-opacity="1" /><path clip-path="url(#clip650)" d="M1196.23 1522.27 L1196.23 1532.4 L1208.3 1532.4 L1208.3 1536.95 L1196.23 1536.95 L1196.23 1556.3 Q1196.23 1560.66 1197.41 1561.9 Q1198.62 1563.14 1202.28 1563.14 L1208.3 1563.14 L1208.3 1568.04 L1202.28 1568.04 Q1195.5 1568.04 1192.92 1565.53 Q1190.35 1562.98 1190.35 1556.3 L1190.35 1536.95 L1186.05 1536.95 L1186.05 1532.4 L1190.35 1532.4 L1190.35 1522.27 L1196.23 1522.27 Z" fill="#000000" fill-rule="nonzero" fill-opacity="1" /><path clip-path="url(#clip650)" d="M1246.49 1548.76 L1246.49 1551.62 L1219.57 1551.62 Q1219.95 1557.67 1223.19 1560.85 Q1226.47 1564 1232.3 1564 Q1235.67 1564 1238.82 1563.17 Q1242 1562.35 1245.12 1560.69 L1245.12 1566.23 Q1241.97 1567.57 1238.66 1568.27 Q1235.35 1568.97 1231.95 1568.97 Q1223.42 1568.97 1218.42 1564 Q1213.45 1559.04 1213.45 1550.57 Q1213.45 1541.82 1218.16 1536.69 Q1222.91 1531.54 1230.93 1531.54 Q1238.12 1531.54 1242.29 1536.18 Q1246.49 1540.8 1246.49 1548.76 M1240.64 1547.04 Q1240.57 1542.23 1237.93 1539.37 Q1235.32 1536.5 1230.99 1536.5 Q1226.09 1536.5 1223.13 1539.27 Q1220.2 1542.04 1219.76 1547.07 L1240.64 1547.04 Z" fill="#000000" fill-rule="nonzero" fill-opacity="1" /><path clip-path="url(#clip650)" d="M1276.76 1537.87 Q1275.77 1537.3 1274.6 1537.04 Q1273.45 1536.76 1272.05 1536.76 Q1267.09 1536.76 1264.41 1540 Q1261.77 1543.22 1261.77 1549.27 L1261.77 1568.04 L1255.88 1568.04 L1255.88 1532.4 L1261.77 1532.4 L1261.77 1537.93 Q1263.62 1534.69 1266.58 1533.13 Q1269.54 1531.54 1273.77 1531.54 Q1274.37 1531.54 1275.11 1531.63 Q1275.84 1531.7 1276.73 1531.85 L1276.76 1537.87 Z" fill="#000000" fill-rule="nonzero" fill-opacity="1" /><path clip-path="url(#clip650)" d="M1299.1 1550.12 Q1292.01 1550.12 1289.27 1551.75 Q1286.53 1553.37 1286.53 1557.29 Q1286.53 1560.4 1288.57 1562.25 Q1290.64 1564.07 1294.17 1564.07 Q1299.04 1564.07 1301.97 1560.63 Q1304.93 1557.16 1304.93 1551.43 L1304.93 1550.12 L1299.1 1550.12 M1310.79 1547.71 L1310.79 1568.04 L1304.93 1568.04 L1304.93 1562.63 Q1302.92 1565.88 1299.93 1567.44 Q1296.94 1568.97 1292.61 1568.97 Q1287.14 1568.97 1283.89 1565.91 Q1280.68 1562.82 1280.68 1557.67 Q1280.68 1551.65 1284.69 1548.6 Q1288.73 1545.54 1296.72 1545.54 L1304.93 1545.54 L1304.93 1544.97 Q1304.93 1540.93 1302.26 1538.73 Q1299.61 1536.5 1294.81 1536.5 Q1291.75 1536.5 1288.86 1537.23 Q1285.96 1537.97 1283.29 1539.43 L1283.29 1534.02 Q1286.5 1532.78 1289.52 1532.17 Q1292.55 1531.54 1295.41 1531.54 Q1303.15 1531.54 1306.97 1535.55 Q1310.79 1539.56 1310.79 1547.71 Z" fill="#000000" fill-rule="nonzero" fill-opacity="1" /><path clip-path="url(#clip650)" d="M1328.64 1522.27 L1328.64 1532.4 L1340.7 1532.4 L1340.7 1536.95 L1328.64 1536.95 L1328.64 1556.3 Q1328.64 1560.66 1329.82 1561.9 Q1331.03 1563.14 1334.69 1563.14 L1340.7 1563.14 L1340.7 1568.04 L1334.69 1568.04 Q1327.91 1568.04 1325.33 1565.53 Q1322.75 1562.98 1322.75 1556.3 L1322.75 1536.95 L1318.46 1536.95 L1318.46 1532.4 L1322.75 1532.4 L1322.75 1522.27 L1328.64 1522.27 Z" fill="#000000" fill-rule="nonzero" fill-opacity="1" /><path clip-path="url(#clip650)" d="M1348.41 1532.4 L1354.26 1532.4 L1354.26 1568.04 L1348.41 1568.04 L1348.41 1532.4 M1348.41 1518.52 L1354.26 1518.52 L1354.26 1525.93 L1348.41 1525.93 L1348.41 1518.52 Z" fill="#000000" fill-rule="nonzero" fill-opacity="1" /><path clip-path="url(#clip650)" d="M1380.33 1536.5 Q1375.62 1536.5 1372.88 1540.19 Q1370.15 1543.85 1370.15 1550.25 Q1370.15 1556.65 1372.85 1560.34 Q1375.59 1564 1380.33 1564 Q1385.01 1564 1387.75 1560.31 Q1390.48 1556.62 1390.48 1550.25 Q1390.48 1543.92 1387.75 1540.23 Q1385.01 1536.5 1380.33 1536.5 M1380.33 1531.54 Q1387.97 1531.54 1392.33 1536.5 Q1396.69 1541.47 1396.69 1550.25 Q1396.69 1559 1392.33 1564 Q1387.97 1568.97 1380.33 1568.97 Q1372.66 1568.97 1368.3 1564 Q1363.97 1559 1363.97 1550.25 Q1363.97 1541.47 1368.3 1536.5 Q1372.66 1531.54 1380.33 1531.54 Z" fill="#000000" fill-rule="nonzero" fill-opacity="1" /><path clip-path="url(#clip650)" d="M1436.03 1546.53 L1436.03 1568.04 L1430.17 1568.04 L1430.17 1546.72 Q1430.17 1541.66 1428.2 1539.14 Q1426.23 1536.63 1422.28 1536.63 Q1417.54 1536.63 1414.8 1539.65 Q1412.06 1542.68 1412.06 1547.9 L1412.06 1568.04 L1406.18 1568.04 L1406.18 1532.4 L1412.06 1532.4 L1412.06 1537.93 Q1414.16 1534.72 1417 1533.13 Q1419.86 1531.54 1423.59 1531.54 Q1429.73 1531.54 1432.88 1535.36 Q1436.03 1539.14 1436.03 1546.53 Z" fill="#000000" fill-rule="nonzero" fill-opacity="1" /><polyline clip-path="url(#clip652)" style="stroke:#000000; stroke-linecap:round; stroke-linejoin:round; stroke-width:2; stroke-opacity:0.1; fill:none" points="255.607,1179.64 2352.76,1179.64 "/>
<polyline clip-path="url(#clip652)" style="stroke:#000000; stroke-linecap:round; stroke-linejoin:round; stroke-width:2; stroke-opacity:0.1; fill:none" points="255.607,921.583 2352.76,921.583 "/>
<polyline clip-path="url(#clip652)" style="stroke:#000000; stroke-linecap:round; stroke-linejoin:round; stroke-width:2; stroke-opacity:0.1; fill:none" points="255.607,663.521 2352.76,663.521 "/>
<polyline clip-path="url(#clip652)" style="stroke:#000000; stroke-linecap:round; stroke-linejoin:round; stroke-width:2; stroke-opacity:0.1; fill:none" points="255.607,405.459 2352.76,405.459 "/>
<polyline clip-path="url(#clip652)" style="stroke:#000000; stroke-linecap:round; stroke-linejoin:round; stroke-width:2; stroke-opacity:0.1; fill:none" points="255.607,147.396 2352.76,147.396 "/>
<polyline clip-path="url(#clip650)" style="stroke:#000000; stroke-linecap:round; stroke-linejoin:round; stroke-width:4; stroke-opacity:1; fill:none" points="255.607,1423.18 255.607,106.192 "/>
<polyline clip-path="url(#clip650)" style="stroke:#000000; stroke-linecap:round; stroke-linejoin:round; stroke-width:4; stroke-opacity:1; fill:none" points="255.607,1179.64 274.504,1179.64 "/>
<polyline clip-path="url(#clip650)" style="stroke:#000000; stroke-linecap:round; stroke-linejoin:round; stroke-width:4; stroke-opacity:1; fill:none" points="255.607,921.583 274.504,921.583 "/>
<polyline clip-path="url(#clip650)" style="stroke:#000000; stroke-linecap:round; stroke-linejoin:round; stroke-width:4; stroke-opacity:1; fill:none" points="255.607,663.521 274.504,663.521 "/>
<polyline clip-path="url(#clip650)" style="stroke:#000000; stroke-linecap:round; stroke-linejoin:round; stroke-width:4; stroke-opacity:1; fill:none" points="255.607,405.459 274.504,405.459 "/>
<polyline clip-path="url(#clip650)" style="stroke:#000000; stroke-linecap:round; stroke-linejoin:round; stroke-width:4; stroke-opacity:1; fill:none" points="255.607,147.396 274.504,147.396 "/>
<path clip-path="url(#clip650)" d="M114.26 1180.1 L143.936 1180.1 L143.936 1184.03 L114.26 1184.03 L114.26 1180.1 Z" fill="#000000" fill-rule="nonzero" fill-opacity="1" /><path clip-path="url(#clip650)" d="M164.028 1165.44 Q160.417 1165.44 158.589 1169.01 Q156.783 1172.55 156.783 1179.68 Q156.783 1186.79 158.589 1190.35 Q160.417 1193.89 164.028 1193.89 Q167.663 1193.89 169.468 1190.35 Q171.297 1186.79 171.297 1179.68 Q171.297 1172.55 169.468 1169.01 Q167.663 1165.44 164.028 1165.44 M164.028 1161.74 Q169.839 1161.74 172.894 1166.35 Q175.973 1170.93 175.973 1179.68 Q175.973 1188.41 172.894 1193.01 Q169.839 1197.6 164.028 1197.6 Q158.218 1197.6 155.14 1193.01 Q152.084 1188.41 152.084 1179.68 Q152.084 1170.93 155.14 1166.35 Q158.218 1161.74 164.028 1161.74 Z" fill="#000000" fill-rule="nonzero" fill-opacity="1" /><path clip-path="url(#clip650)" d="M184.19 1191.05 L189.075 1191.05 L189.075 1196.92 L184.19 1196.92 L184.19 1191.05 Z" fill="#000000" fill-rule="nonzero" fill-opacity="1" /><path clip-path="url(#clip650)" d="M203.287 1192.99 L219.607 1192.99 L219.607 1196.92 L197.662 1196.92 L197.662 1192.99 Q200.325 1190.24 204.908 1185.61 Q209.514 1180.95 210.695 1179.61 Q212.94 1177.09 213.82 1175.35 Q214.723 1173.59 214.723 1171.9 Q214.723 1169.15 212.778 1167.41 Q210.857 1165.68 207.755 1165.68 Q205.556 1165.68 203.102 1166.44 Q200.672 1167.2 197.894 1168.75 L197.894 1164.03 Q200.718 1162.9 203.172 1162.32 Q205.625 1161.74 207.662 1161.74 Q213.033 1161.74 216.227 1164.43 Q219.422 1167.11 219.422 1171.6 Q219.422 1173.73 218.611 1175.65 Q217.824 1177.55 215.718 1180.14 Q215.139 1180.81 212.037 1184.03 Q208.936 1187.23 203.287 1192.99 Z" fill="#000000" fill-rule="nonzero" fill-opacity="1" /><path clip-path="url(#clip650)" d="M162.431 907.382 Q158.82 907.382 156.991 910.946 Q155.186 914.488 155.186 921.618 Q155.186 928.724 156.991 932.289 Q158.82 935.83 162.431 935.83 Q166.065 935.83 167.871 932.289 Q169.7 928.724 169.7 921.618 Q169.7 914.488 167.871 910.946 Q166.065 907.382 162.431 907.382 M162.431 903.678 Q168.241 903.678 171.297 908.284 Q174.376 912.868 174.376 921.618 Q174.376 930.344 171.297 934.951 Q168.241 939.534 162.431 939.534 Q156.621 939.534 153.542 934.951 Q150.487 930.344 150.487 921.618 Q150.487 912.868 153.542 908.284 Q156.621 903.678 162.431 903.678 Z" fill="#000000" fill-rule="nonzero" fill-opacity="1" /><path clip-path="url(#clip650)" d="M182.593 932.983 L187.477 932.983 L187.477 938.863 L182.593 938.863 L182.593 932.983 Z" fill="#000000" fill-rule="nonzero" fill-opacity="1" /><path clip-path="url(#clip650)" d="M207.662 907.382 Q204.051 907.382 202.223 910.946 Q200.417 914.488 200.417 921.618 Q200.417 928.724 202.223 932.289 Q204.051 935.83 207.662 935.83 Q211.297 935.83 213.102 932.289 Q214.931 928.724 214.931 921.618 Q214.931 914.488 213.102 910.946 Q211.297 907.382 207.662 907.382 M207.662 903.678 Q213.473 903.678 216.528 908.284 Q219.607 912.868 219.607 921.618 Q219.607 930.344 216.528 934.951 Q213.473 939.534 207.662 939.534 Q201.852 939.534 198.774 934.951 Q195.718 930.344 195.718 921.618 Q195.718 912.868 198.774 908.284 Q201.852 903.678 207.662 903.678 Z" fill="#000000" fill-rule="nonzero" fill-opacity="1" /><path clip-path="url(#clip650)" d="M164.028 649.319 Q160.417 649.319 158.589 652.884 Q156.783 656.426 156.783 663.555 Q156.783 670.662 158.589 674.227 Q160.417 677.768 164.028 677.768 Q167.663 677.768 169.468 674.227 Q171.297 670.662 171.297 663.555 Q171.297 656.426 169.468 652.884 Q167.663 649.319 164.028 649.319 M164.028 645.616 Q169.839 645.616 172.894 650.222 Q175.973 654.805 175.973 663.555 Q175.973 672.282 172.894 676.889 Q169.839 681.472 164.028 681.472 Q158.218 681.472 155.14 676.889 Q152.084 672.282 152.084 663.555 Q152.084 654.805 155.14 650.222 Q158.218 645.616 164.028 645.616 Z" fill="#000000" fill-rule="nonzero" fill-opacity="1" /><path clip-path="url(#clip650)" d="M184.19 674.921 L189.075 674.921 L189.075 680.801 L184.19 680.801 L184.19 674.921 Z" fill="#000000" fill-rule="nonzero" fill-opacity="1" /><path clip-path="url(#clip650)" d="M203.287 676.866 L219.607 676.866 L219.607 680.801 L197.662 680.801 L197.662 676.866 Q200.325 674.111 204.908 669.481 Q209.514 664.829 210.695 663.486 Q212.94 660.963 213.82 659.227 Q214.723 657.467 214.723 655.778 Q214.723 653.023 212.778 651.287 Q210.857 649.551 207.755 649.551 Q205.556 649.551 203.102 650.315 Q200.672 651.079 197.894 652.63 L197.894 647.907 Q200.718 646.773 203.172 646.194 Q205.625 645.616 207.662 645.616 Q213.033 645.616 216.227 648.301 Q219.422 650.986 219.422 655.477 Q219.422 657.606 218.611 659.528 Q217.824 661.426 215.718 664.018 Q215.139 664.69 212.037 667.907 Q208.936 671.102 203.287 676.866 Z" fill="#000000" fill-rule="nonzero" fill-opacity="1" /><path clip-path="url(#clip650)" d="M161.945 391.257 Q158.334 391.257 156.505 394.822 Q154.7 398.364 154.7 405.493 Q154.7 412.6 156.505 416.165 Q158.334 419.706 161.945 419.706 Q165.579 419.706 167.385 416.165 Q169.214 412.6 169.214 405.493 Q169.214 398.364 167.385 394.822 Q165.579 391.257 161.945 391.257 M161.945 387.554 Q167.755 387.554 170.811 392.16 Q173.889 396.743 173.889 405.493 Q173.889 414.22 170.811 418.827 Q167.755 423.41 161.945 423.41 Q156.135 423.41 153.056 418.827 Q150.001 414.22 150.001 405.493 Q150.001 396.743 153.056 392.16 Q156.135 387.554 161.945 387.554 Z" fill="#000000" fill-rule="nonzero" fill-opacity="1" /><path clip-path="url(#clip650)" d="M182.107 416.859 L186.991 416.859 L186.991 422.739 L182.107 422.739 L182.107 416.859 Z" fill="#000000" fill-rule="nonzero" fill-opacity="1" /><path clip-path="url(#clip650)" d="M210.024 392.253 L198.218 410.702 L210.024 410.702 L210.024 392.253 M208.797 388.179 L214.676 388.179 L214.676 410.702 L219.607 410.702 L219.607 414.59 L214.676 414.59 L214.676 422.739 L210.024 422.739 L210.024 414.59 L194.422 414.59 L194.422 410.077 L208.797 388.179 Z" fill="#000000" fill-rule="nonzero" fill-opacity="1" /><path clip-path="url(#clip650)" d="M162.269 133.195 Q158.658 133.195 156.829 136.76 Q155.024 140.302 155.024 147.431 Q155.024 154.538 156.829 158.102 Q158.658 161.644 162.269 161.644 Q165.903 161.644 167.709 158.102 Q169.538 154.538 169.538 147.431 Q169.538 140.302 167.709 136.76 Q165.903 133.195 162.269 133.195 M162.269 129.491 Q168.079 129.491 171.135 134.098 Q174.214 138.681 174.214 147.431 Q174.214 156.158 171.135 160.764 Q168.079 165.348 162.269 165.348 Q156.459 165.348 153.38 160.764 Q150.325 156.158 150.325 147.431 Q150.325 138.681 153.38 134.098 Q156.459 129.491 162.269 129.491 Z" fill="#000000" fill-rule="nonzero" fill-opacity="1" /><path clip-path="url(#clip650)" d="M182.431 158.797 L187.315 158.797 L187.315 164.676 L182.431 164.676 L182.431 158.797 Z" fill="#000000" fill-rule="nonzero" fill-opacity="1" /><path clip-path="url(#clip650)" d="M208.079 145.533 Q204.931 145.533 203.079 147.686 Q201.25 149.839 201.25 153.589 Q201.25 157.315 203.079 159.491 Q204.931 161.644 208.079 161.644 Q211.227 161.644 213.056 159.491 Q214.908 157.315 214.908 153.589 Q214.908 149.839 213.056 147.686 Q211.227 145.533 208.079 145.533 M217.361 130.88 L217.361 135.14 Q215.602 134.306 213.797 133.866 Q212.014 133.427 210.255 133.427 Q205.625 133.427 203.172 136.552 Q200.741 139.677 200.394 145.996 Q201.76 143.982 203.82 142.917 Q205.88 141.829 208.357 141.829 Q213.565 141.829 216.574 145.001 Q219.607 148.149 219.607 153.589 Q219.607 158.913 216.459 162.13 Q213.311 165.348 208.079 165.348 Q202.084 165.348 198.912 160.764 Q195.741 156.158 195.741 147.431 Q195.741 139.237 199.63 134.376 Q203.519 129.491 210.07 129.491 Q211.829 129.491 213.611 129.839 Q215.417 130.186 217.361 130.88 Z" fill="#000000" fill-rule="nonzero" fill-opacity="1" /><path clip-path="url(#clip650)" d="M44.7161 808.753 L47.5806 808.753 L47.5806 835.68 Q53.6281 835.298 56.8109 832.051 Q59.9619 828.773 59.9619 822.948 Q59.9619 819.574 59.1344 816.423 Q58.3069 813.24 56.6518 810.121 L62.1899 810.121 Q63.5267 813.272 64.227 816.582 Q64.9272 819.893 64.9272 823.298 Q64.9272 831.828 59.9619 836.825 Q54.9967 841.791 46.5303 841.791 Q37.7774 841.791 32.6531 837.08 Q27.4968 832.338 27.4968 824.317 Q27.4968 817.123 32.1438 812.954 Q36.7589 808.753 44.7161 808.753 M42.9973 814.609 Q38.1912 814.673 35.3266 817.314 Q32.4621 819.924 32.4621 824.253 Q32.4621 829.155 35.2312 832.115 Q38.0002 835.043 43.0292 835.489 L42.9973 814.609 Z" fill="#000000" fill-rule="nonzero" fill-opacity="1" /><path clip-path="url(#clip650)" d="M33.8307 778.484 Q33.2578 779.47 33.0032 780.648 Q32.7167 781.794 32.7167 783.194 Q32.7167 788.16 35.9632 790.833 Q39.1779 793.475 45.2253 793.475 L64.0042 793.475 L64.0042 799.363 L28.3562 799.363 L28.3562 793.475 L33.8944 793.475 Q30.6479 791.629 29.0883 788.669 Q27.4968 785.709 27.4968 781.476 Q27.4968 780.871 27.5923 780.139 Q27.656 779.407 27.8151 778.515 L33.8307 778.484 Z" fill="#000000" fill-rule="nonzero" fill-opacity="1" /><path clip-path="url(#clip650)" d="M33.8307 752.83 Q33.2578 753.817 33.0032 754.994 Q32.7167 756.14 32.7167 757.54 Q32.7167 762.506 35.9632 765.179 Q39.1779 767.821 45.2253 767.821 L64.0042 767.821 L64.0042 773.709 L28.3562 773.709 L28.3562 767.821 L33.8944 767.821 Q30.6479 765.975 29.0883 763.015 Q27.4968 760.055 27.4968 755.822 Q27.4968 755.217 27.5923 754.485 Q27.656 753.753 27.8151 752.862 L33.8307 752.83 Z" fill="#000000" fill-rule="nonzero" fill-opacity="1" /><path clip-path="url(#clip650)" d="M32.4621 734.306 Q32.4621 739.016 36.1542 741.754 Q39.8145 744.491 46.212 744.491 Q52.6095 744.491 56.3017 741.785 Q59.9619 739.048 59.9619 734.306 Q59.9619 729.627 56.2698 726.89 Q52.5777 724.152 46.212 724.152 Q39.8781 724.152 36.186 726.89 Q32.4621 729.627 32.4621 734.306 M27.4968 734.306 Q27.4968 726.667 32.4621 722.306 Q37.4273 717.946 46.212 717.946 Q54.9649 717.946 59.9619 722.306 Q64.9272 726.667 64.9272 734.306 Q64.9272 741.976 59.9619 746.337 Q54.9649 750.666 46.212 750.666 Q37.4273 750.666 32.4621 746.337 Q27.4968 741.976 27.4968 734.306 Z" fill="#000000" fill-rule="nonzero" fill-opacity="1" /><path clip-path="url(#clip650)" d="M33.8307 687.581 Q33.2578 688.568 33.0032 689.746 Q32.7167 690.892 32.7167 692.292 Q32.7167 697.257 35.9632 699.931 Q39.1779 702.573 45.2253 702.573 L64.0042 702.573 L64.0042 708.461 L28.3562 708.461 L28.3562 702.573 L33.8944 702.573 Q30.6479 700.727 29.0883 697.766 Q27.4968 694.806 27.4968 690.573 Q27.4968 689.969 27.5923 689.236 Q27.656 688.504 27.8151 687.613 L33.8307 687.581 Z" fill="#000000" fill-rule="nonzero" fill-opacity="1" /><path clip-path="url(#clip650)" d="M1007.71 8.64 L1035.03 8.64 L1035.03 13.559 L1013.56 13.559 L1013.56 26.3482 L1034.13 26.3482 L1034.13 31.2672 L1013.56 31.2672 L1013.56 46.921 L1035.55 46.921 L1035.55 51.84 L1007.71 51.84 L1007.71 8.64 Z" fill="#000000" fill-rule="nonzero" fill-opacity="1" /><path clip-path="url(#clip650)" d="M1041.1 19.4328 L1046.75 19.4328 L1056.87 46.6317 L1067 19.4328 L1072.64 19.4328 L1060.49 51.84 L1053.26 51.84 L1041.1 19.4328 Z" fill="#000000" fill-rule="nonzero" fill-opacity="1" /><path clip-path="url(#clip650)" d="M1092.55 23.1654 Q1088.27 23.1654 1085.78 26.5218 Q1083.29 29.8494 1083.29 35.6653 Q1083.29 41.4813 1085.75 44.8377 Q1088.24 48.1653 1092.55 48.1653 Q1096.8 48.1653 1099.29 44.8088 Q1101.78 41.4523 1101.78 35.6653 Q1101.78 29.9072 1099.29 26.5508 Q1096.8 23.1654 1092.55 23.1654 M1092.55 18.6515 Q1099.49 18.6515 1103.46 23.1654 Q1107.42 27.6792 1107.42 35.6653 Q1107.42 43.6225 1103.46 48.1653 Q1099.49 52.6791 1092.55 52.6791 Q1085.58 52.6791 1081.61 48.1653 Q1077.68 43.6225 1077.68 35.6653 Q1077.68 27.6792 1081.61 23.1654 Q1085.58 18.6515 1092.55 18.6515 Z" fill="#000000" fill-rule="nonzero" fill-opacity="1" /><path clip-path="url(#clip650)" d="M1116.25 6.81709 L1121.57 6.81709 L1121.57 51.84 L1116.25 51.84 L1116.25 6.81709 Z" fill="#000000" fill-rule="nonzero" fill-opacity="1" /><path clip-path="url(#clip650)" d="M1132.16 39.0507 L1132.16 19.4328 L1137.49 19.4328 L1137.49 38.8482 Q1137.49 43.4488 1139.28 45.7636 Q1141.07 48.0495 1144.66 48.0495 Q1148.97 48.0495 1151.46 45.3007 Q1153.98 42.5519 1153.98 37.8065 L1153.98 19.4328 L1159.3 19.4328 L1159.3 51.84 L1153.98 51.84 L1153.98 46.8632 Q1152.04 49.8145 1149.47 51.2613 Q1146.92 52.6791 1143.53 52.6791 Q1137.95 52.6791 1135.06 49.2069 Q1132.16 45.7347 1132.16 39.0507 M1145.56 18.6515 L1145.56 18.6515 Z" fill="#000000" fill-rule="nonzero" fill-opacity="1" /><path clip-path="url(#clip650)" d="M1175.54 10.2314 L1175.54 19.4328 L1186.5 19.4328 L1186.5 23.5705 L1175.54 23.5705 L1175.54 41.163 Q1175.54 45.1271 1176.61 46.2555 Q1177.71 47.384 1181.03 47.384 L1186.5 47.384 L1186.5 51.84 L1181.03 51.84 Q1174.87 51.84 1172.53 49.5541 Q1170.18 47.2393 1170.18 41.163 L1170.18 23.5705 L1166.28 23.5705 L1166.28 19.4328 L1170.18 19.4328 L1170.18 10.2314 L1175.54 10.2314 Z" fill="#000000" fill-rule="nonzero" fill-opacity="1" /><path clip-path="url(#clip650)" d="M1193.5 19.4328 L1198.83 19.4328 L1198.83 51.84 L1193.5 51.84 L1193.5 19.4328 M1193.5 6.81709 L1198.83 6.81709 L1198.83 13.559 L1193.5 13.559 L1193.5 6.81709 Z" fill="#000000" fill-rule="nonzero" fill-opacity="1" /><path clip-path="url(#clip650)" d="M1222.53 23.1654 Q1218.24 23.1654 1215.76 26.5218 Q1213.27 29.8494 1213.27 35.6653 Q1213.27 41.4813 1215.73 44.8377 Q1218.22 48.1653 1222.53 48.1653 Q1226.78 48.1653 1229.27 44.8088 Q1231.76 41.4523 1231.76 35.6653 Q1231.76 29.9072 1229.27 26.5508 Q1226.78 23.1654 1222.53 23.1654 M1222.53 18.6515 Q1229.47 18.6515 1233.44 23.1654 Q1237.4 27.6792 1237.4 35.6653 Q1237.4 43.6225 1233.44 48.1653 Q1229.47 52.6791 1222.53 52.6791 Q1215.55 52.6791 1211.59 48.1653 Q1207.65 43.6225 1207.65 35.6653 Q1207.65 27.6792 1211.59 23.1654 Q1215.55 18.6515 1222.53 18.6515 Z" fill="#000000" fill-rule="nonzero" fill-opacity="1" /><path clip-path="url(#clip650)" d="M1273.16 32.2799 L1273.16 51.84 L1267.84 51.84 L1267.84 32.4535 Q1267.84 27.8529 1266.04 25.567 Q1264.25 23.2811 1260.66 23.2811 Q1256.35 23.2811 1253.86 26.03 Q1251.37 28.7788 1251.37 33.5241 L1251.37 51.84 L1246.02 51.84 L1246.02 19.4328 L1251.37 19.4328 L1251.37 24.4675 Q1253.28 21.545 1255.86 20.0983 Q1258.46 18.6515 1261.85 18.6515 Q1267.43 18.6515 1270.3 22.1237 Q1273.16 25.567 1273.16 32.2799 Z" fill="#000000" fill-rule="nonzero" fill-opacity="1" /><path clip-path="url(#clip650)" d="M1315.18 23.1654 Q1310.89 23.1654 1308.41 26.5218 Q1305.92 29.8494 1305.92 35.6653 Q1305.92 41.4813 1308.38 44.8377 Q1310.87 48.1653 1315.18 48.1653 Q1319.43 48.1653 1321.92 44.8088 Q1324.41 41.4523 1324.41 35.6653 Q1324.41 29.9072 1321.92 26.5508 Q1319.43 23.1654 1315.18 23.1654 M1315.18 18.6515 Q1322.12 18.6515 1326.09 23.1654 Q1330.05 27.6792 1330.05 35.6653 Q1330.05 43.6225 1326.09 48.1653 Q1322.12 52.6791 1315.18 52.6791 Q1308.2 52.6791 1304.24 48.1653 Q1300.3 43.6225 1300.3 35.6653 Q1300.3 27.6792 1304.24 23.1654 Q1308.2 18.6515 1315.18 18.6515 Z" fill="#000000" fill-rule="nonzero" fill-opacity="1" /><path clip-path="url(#clip650)" d="M1355.28 6.81709 L1355.28 11.2442 L1350.19 11.2442 Q1347.32 11.2442 1346.2 12.4016 Q1345.1 13.559 1345.1 16.5682 L1345.1 19.4328 L1353.86 19.4328 L1353.86 23.5705 L1345.1 23.5705 L1345.1 51.84 L1339.74 51.84 L1339.74 23.5705 L1334.65 23.5705 L1334.65 19.4328 L1339.74 19.4328 L1339.74 17.1758 Q1339.74 11.765 1342.26 9.30551 Q1344.78 6.81709 1350.25 6.81709 L1355.28 6.81709 Z" fill="#000000" fill-rule="nonzero" fill-opacity="1" /><path clip-path="url(#clip650)" d="M1383.84 10.2314 L1383.84 19.4328 L1394.81 19.4328 L1394.81 23.5705 L1383.84 23.5705 L1383.84 41.163 Q1383.84 45.1271 1384.91 46.2555 Q1386.01 47.384 1389.34 47.384 L1394.81 47.384 L1394.81 51.84 L1389.34 51.84 Q1383.17 51.84 1380.83 49.5541 Q1378.49 47.2393 1378.49 41.163 L1378.49 23.5705 L1374.58 23.5705 L1374.58 19.4328 L1378.49 19.4328 L1378.49 10.2314 L1383.84 10.2314 Z" fill="#000000" fill-rule="nonzero" fill-opacity="1" /><path clip-path="url(#clip650)" d="M1428.75 32.2799 L1428.75 51.84 L1423.42 51.84 L1423.42 32.4535 Q1423.42 27.8529 1421.63 25.567 Q1419.83 23.2811 1416.25 23.2811 Q1411.94 23.2811 1409.45 26.03 Q1406.96 28.7788 1406.96 33.5241 L1406.96 51.84 L1401.61 51.84 L1401.61 6.81709 L1406.96 6.81709 L1406.96 24.4675 Q1408.87 21.545 1411.44 20.0983 Q1414.05 18.6515 1417.43 18.6515 Q1423.02 18.6515 1425.88 22.1237 Q1428.75 25.567 1428.75 32.2799 Z" fill="#000000" fill-rule="nonzero" fill-opacity="1" /><path clip-path="url(#clip650)" d="M1467.09 34.3054 L1467.09 36.9095 L1442.61 36.9095 Q1442.95 42.4072 1445.91 45.3007 Q1448.89 48.1653 1454.18 48.1653 Q1457.25 48.1653 1460.11 47.4129 Q1463.01 46.6606 1465.84 45.156 L1465.84 50.1907 Q1462.98 51.406 1459.97 52.0425 Q1456.96 52.6791 1453.86 52.6791 Q1446.11 52.6791 1441.56 48.1653 Q1437.05 43.6514 1437.05 35.9547 Q1437.05 27.9975 1441.33 23.339 Q1445.64 18.6515 1452.94 18.6515 Q1459.48 18.6515 1463.27 22.876 Q1467.09 27.0716 1467.09 34.3054 M1461.76 32.7429 Q1461.7 28.3737 1459.3 25.7695 Q1456.93 23.1654 1452.99 23.1654 Q1448.54 23.1654 1445.85 25.6827 Q1443.19 28.2001 1442.78 32.7718 L1461.76 32.7429 Z" fill="#000000" fill-rule="nonzero" fill-opacity="1" /><path clip-path="url(#clip650)" d="M1494.66 6.81709 L1499.98 6.81709 L1499.98 51.84 L1494.66 51.84 L1494.66 6.81709 Z" fill="#000000" fill-rule="nonzero" fill-opacity="1" /><path clip-path="url(#clip650)" d="M1523.68 23.1654 Q1519.4 23.1654 1516.91 26.5218 Q1514.42 29.8494 1514.42 35.6653 Q1514.42 41.4813 1516.88 44.8377 Q1519.37 48.1653 1523.68 48.1653 Q1527.94 48.1653 1530.42 44.8088 Q1532.91 41.4523 1532.91 35.6653 Q1532.91 29.9072 1530.42 26.5508 Q1527.94 23.1654 1523.68 23.1654 M1523.68 18.6515 Q1530.63 18.6515 1534.59 23.1654 Q1538.56 27.6792 1538.56 35.6653 Q1538.56 43.6225 1534.59 48.1653 Q1530.63 52.6791 1523.68 52.6791 Q1516.71 52.6791 1512.75 48.1653 Q1508.81 43.6225 1508.81 35.6653 Q1508.81 27.6792 1512.75 23.1654 Q1516.71 18.6515 1523.68 18.6515 Z" fill="#000000" fill-rule="nonzero" fill-opacity="1" /><path clip-path="url(#clip650)" d="M1568.04 20.3876 L1568.04 25.4223 Q1565.78 24.2649 1563.35 23.6862 Q1560.92 23.1075 1558.32 23.1075 Q1554.35 23.1075 1552.36 24.3228 Q1550.39 25.5381 1550.39 27.9686 Q1550.39 29.8204 1551.81 30.891 Q1553.23 31.9327 1557.51 32.8876 L1559.33 33.2926 Q1565 34.5079 1567.37 36.7359 Q1569.78 38.935 1569.78 42.8991 Q1569.78 47.4129 1566.19 50.046 Q1562.63 52.6791 1556.38 52.6791 Q1553.77 52.6791 1550.94 52.1583 Q1548.13 51.6664 1545.01 50.6537 L1545.01 45.156 Q1547.96 46.6896 1550.82 47.4708 Q1553.69 48.2231 1556.49 48.2231 Q1560.26 48.2231 1562.28 46.95 Q1564.31 45.6479 1564.31 43.3042 Q1564.31 41.134 1562.83 39.9766 Q1561.38 38.8192 1556.44 37.7486 L1554.59 37.3146 Q1549.64 36.273 1547.44 34.1318 Q1545.24 31.9616 1545.24 28.2001 Q1545.24 23.6283 1548.48 21.1399 Q1551.72 18.6515 1557.68 18.6515 Q1560.63 18.6515 1563.24 19.0855 Q1565.84 19.5196 1568.04 20.3876 Z" fill="#000000" fill-rule="nonzero" fill-opacity="1" /><path clip-path="url(#clip650)" d="M1598.91 20.3876 L1598.91 25.4223 Q1596.66 24.2649 1594.23 23.6862 Q1591.8 23.1075 1589.19 23.1075 Q1585.23 23.1075 1583.23 24.3228 Q1581.26 25.5381 1581.26 27.9686 Q1581.26 29.8204 1582.68 30.891 Q1584.1 31.9327 1588.38 32.8876 L1590.2 33.2926 Q1595.88 34.5079 1598.25 36.7359 Q1600.65 38.935 1600.65 42.8991 Q1600.65 47.4129 1597.06 50.046 Q1593.5 52.6791 1587.25 52.6791 Q1584.65 52.6791 1581.81 52.1583 Q1579.01 51.6664 1575.88 50.6537 L1575.88 45.156 Q1578.83 46.6896 1581.7 47.4708 Q1584.56 48.2231 1587.37 48.2231 Q1591.13 48.2231 1593.16 46.95 Q1595.18 45.6479 1595.18 43.3042 Q1595.18 41.134 1593.71 39.9766 Q1592.26 38.8192 1587.31 37.7486 L1585.46 37.3146 Q1580.51 36.273 1578.31 34.1318 Q1576.11 31.9616 1576.11 28.2001 Q1576.11 23.6283 1579.35 21.1399 Q1582.59 18.6515 1588.55 18.6515 Q1591.51 18.6515 1594.11 19.0855 Q1596.71 19.5196 1598.91 20.3876 Z" fill="#000000" fill-rule="nonzero" fill-opacity="1" /><polyline clip-path="url(#clip652)" style="stroke:#009af9; stroke-linecap:round; stroke-linejoin:round; stroke-width:4; stroke-opacity:1; fill:none" points="314.96,143.465 318.925,256.928 322.89,361.499 326.855,457.018 330.819,543.378 334.784,620.545 338.749,688.563 342.714,747.569 346.679,797.805 350.643,839.628 354.608,873.517 358.573,900.075 362.538,920.031 366.503,934.218 370.467,943.556 374.432,949.012 378.397,951.558 382.362,952.119 386.327,951.538 390.292,950.535 394.256,949.691 398.221,949.439 402.186,950.071 406.151,951.746 410.116,954.511 414.08,958.32 418.045,963.057 422.01,968.554 425.975,974.614 429.94,981.027 433.905,987.586 437.869,994.1 441.834,1000.4 445.799,1006.35 449.764,1011.86 453.729,1016.85 457.693,1021.3 461.658,1025.22 465.623,1028.62 469.588,1031.56 473.553,1034.12 477.517,1036.35 481.482,1038.35 485.447,1040.18 489.412,1041.92 493.377,1043.62 497.342,1045.33 501.306,1047.07 505.271,1048.87 509.236,1050.73 513.201,1052.64 517.166,1054.59 521.13,1056.57 525.095,1058.54 529.06,1060.5 533.025,1062.41 536.99,1064.25 540.955,1066.02 544.919,1067.71 548.884,1069.3 552.849,1070.81 556.814,1072.24 560.779,1073.59 564.743,1074.88 568.708,1076.12 572.673,1077.32 576.638,1078.49 580.603,1079.64 584.567,1080.78 588.532,1081.92 592.497,1083.05 596.462,1084.18 600.427,1085.31 604.392,1086.44 608.356,1087.56 612.321,1088.68 616.286,1089.78 620.251,1090.87 624.216,1091.94 628.18,1093 632.145,1094.05 636.11,1095.08 640.075,1096.1 644.04,1097.11 648.005,1098.11 651.969,1099.11 655.934,1100.1 659.899,1101.09 663.864,1102.09 667.829,1103.08 671.793,1104.08 675.758,1105.08 679.723,1106.08 683.688,1107.09 687.653,1108.09 691.617,1109.1 695.582,1110.11 699.547,1111.12 703.512,1112.13 707.477,1113.15 711.442,1114.16 715.406,1115.18 719.371,1116.2 723.336,1117.23 727.301,1118.26 731.266,1119.29 735.23,1120.33 739.195,1121.37 743.16,1122.42 747.125,1123.47 751.09,1124.53 755.055,1125.6 759.019,1126.67 762.984,1127.75 766.949,1128.83 770.914,1129.92 774.879,1131.02 778.843,1132.12 782.808,1133.22 786.773,1134.33 790.738,1135.45 794.703,1136.58 798.667,1137.71 802.632,1138.85 806.597,1139.99 810.562,1141.14 814.527,1142.3 818.492,1143.47 822.456,1144.64 826.421,1145.81 830.386,1147 834.351,1148.19 838.316,1149.39 842.28,1150.59 846.245,1151.81 850.21,1153.02 854.175,1154.25 858.14,1155.48 862.105,1156.72 866.069,1157.96 870.034,1159.22 873.999,1160.48 877.964,1161.74 881.929,1163.01 885.893,1164.29 889.858,1165.57 893.823,1166.86 897.788,1168.16 901.753,1169.46 905.717,1170.77 909.682,1172.09 913.647,1173.41 917.612,1174.74 921.577,1176.07 925.542,1177.41 929.506,1178.75 933.471,1180.1 937.436,1181.46 941.401,1182.82 945.366,1184.18 949.33,1185.55 953.295,1186.93 957.26,1188.3 961.225,1189.69 965.19,1191.08 969.155,1192.47 973.119,1193.87 977.084,1195.27 981.049,1196.67 985.014,1198.08 988.979,1199.5 992.943,1200.91 996.908,1202.33 1000.87,1203.75 1004.84,1205.18 1008.8,1206.61 1012.77,1208.04 1016.73,1209.47 1020.7,1210.91 1024.66,1212.34 1028.63,1213.78 1032.59,1215.22 1036.56,1216.67 1040.52,1218.11 1044.49,1219.56 1048.45,1221 1052.42,1222.45 1056.38,1223.9 1060.35,1225.35 1064.31,1226.79 1068.27,1228.24 1072.24,1229.69 1076.2,1231.14 1080.17,1232.59 1084.13,1234.03 1088.1,1235.48 1092.06,1236.93 1096.03,1238.37 1099.99,1239.81 1103.96,1241.25 1107.92,1242.69 1111.89,1244.13 1115.85,1245.56 1119.82,1246.99 1123.78,1248.42 1127.75,1249.85 1131.71,1251.27 1135.68,1252.69 1139.64,1254.11 1143.61,1255.53 1147.57,1256.93 1151.54,1258.34 1155.5,1259.74 1159.47,1261.14 1163.43,1262.53 1167.4,1263.92 1171.36,1265.3 1175.32,1266.68 1179.29,1268.06 1183.25,1269.42 1187.22,1270.79 1191.18,1272.14 1195.15,1273.49 1199.11,1274.84 1203.08,1276.18 1207.04,1277.51 1211.01,1278.83 1214.97,1280.15 1218.94,1281.46 1222.9,1282.77 1226.87,1284.07 1230.83,1285.36 1234.8,1286.64 1238.76,1287.91 1242.73,1289.18 1246.69,1290.44 1250.66,1291.69 1254.62,1292.94 1258.59,1294.17 1262.55,1295.4 1266.52,1296.62 1270.48,1297.83 1274.45,1299.03 1278.41,1300.23 1282.37,1301.41 1286.34,1302.58 1290.3,1303.75 1294.27,1304.91 1298.23,1306.05 1302.2,1307.19 1306.16,1308.32 1310.13,1309.44 1314.09,1310.55 1318.06,1311.65 1322.02,1312.74 1325.99,1313.82 1329.95,1314.89 1333.92,1315.95 1337.88,1317 1341.85,1318.04 1345.81,1319.07 1349.78,1320.09 1353.74,1321.1 1357.71,1322.1 1361.67,1323.09 1365.64,1324.07 1369.6,1325.04 1373.57,1325.99 1377.53,1326.94 1381.5,1327.88 1385.46,1328.81 1389.42,1329.72 1393.39,1330.63 1397.35,1331.53 1401.32,1332.41 1405.28,1333.29 1409.25,1334.15 1413.21,1335 1417.18,1335.85 1421.14,1336.68 1425.11,1337.5 1429.07,1338.32 1433.04,1339.12 1437,1339.91 1440.97,1340.69 1444.93,1341.46 1448.9,1342.22 1452.86,1342.98 1456.83,1343.72 1460.79,1344.45 1464.76,1345.17 1468.72,1345.88 1472.69,1346.58 1476.65,1347.27 1480.62,1347.95 1484.58,1348.62 1488.55,1349.28 1492.51,1349.93 1496.47,1350.58 1500.44,1351.21 1504.4,1351.83 1508.37,1352.44 1512.33,1353.05 1516.3,1353.64 1520.26,1354.23 1524.23,1354.81 1528.19,1355.37 1532.16,1355.93 1536.12,1356.48 1540.09,1357.02 1544.05,1357.55 1548.02,1358.08 1551.98,1358.59 1555.95,1359.1 1559.91,1359.6 1563.88,1360.09 1567.84,1360.57 1571.81,1361.04 1575.77,1361.51 1579.74,1361.96 1583.7,1362.41 1587.67,1362.85 1591.63,1363.29 1595.6,1363.71 1599.56,1364.13 1603.52,1364.54 1607.49,1364.95 1611.45,1365.35 1615.42,1365.74 1619.38,1366.12 1623.35,1366.49 1627.31,1366.86 1631.28,1367.23 1635.24,1367.58 1639.21,1367.93 1643.17,1368.27 1647.14,1368.61 1651.1,1368.94 1655.07,1369.26 1659.03,1369.58 1663,1369.89 1666.96,1370.2 1670.93,1370.5 1674.89,1370.79 1678.86,1371.08 1682.82,1371.37 1686.79,1371.64 1690.75,1371.92 1694.72,1372.18 1698.68,1372.45 1702.65,1372.7 1706.61,1372.95 1710.57,1373.2 1714.54,1373.44 1718.5,1373.68 1722.47,1373.91 1726.43,1374.14 1730.4,1374.37 1734.36,1374.59 1738.33,1374.8 1742.29,1375.01 1746.26,1375.22 1750.22,1375.42 1754.19,1375.62 1758.15,1375.81 1762.12,1376.01 1766.08,1376.19 1770.05,1376.38 1774.01,1376.56 1777.98,1376.73 1781.94,1376.9 1785.91,1377.07 1789.87,1377.24 1793.84,1377.4 1797.8,1377.56 1801.77,1377.72 1805.73,1377.87 1809.7,1378.02 1813.66,1378.17 1817.62,1378.31 1821.59,1378.46 1825.55,1378.59 1829.52,1378.73 1833.48,1378.86 1837.45,1379 1841.41,1379.12 1845.38,1379.25 1849.34,1379.37 1853.31,1379.49 1857.27,1379.61 1861.24,1379.73 1865.2,1379.84 1869.17,1379.96 1873.13,1380.07 1877.1,1380.18 1881.06,1380.28 1885.03,1380.39 1888.99,1380.49 1892.96,1380.59 1896.92,1380.69 1900.89,1380.78 1904.85,1380.88 1908.82,1380.97 1912.78,1381.06 1916.75,1381.15 1920.71,1381.24 1924.67,1381.33 1928.64,1381.41 1932.6,1381.5 1936.57,1381.58 1940.53,1381.66 1944.5,1381.74 1948.46,1381.82 1952.43,1381.9 1956.39,1381.97 1960.36,1382.05 1964.32,1382.12 1968.29,1382.19 1972.25,1382.26 1976.22,1382.33 1980.18,1382.4 1984.15,1382.47 1988.11,1382.54 1992.08,1382.6 1996.04,1382.67 2000.01,1382.73 2003.97,1382.79 2007.94,1382.85 2011.9,1382.92 2015.87,1382.98 2019.83,1383.03 2023.8,1383.09 2027.76,1383.15 2031.72,1383.21 2035.69,1383.26 2039.65,1383.32 2043.62,1383.37 2047.58,1383.43 2051.55,1383.48 2055.51,1383.53 2059.48,1383.59 2063.44,1383.64 2067.41,1383.69 2071.37,1383.74 2075.34,1383.79 2079.3,1383.84 2083.27,1383.88 2087.23,1383.93 2091.2,1383.98 2095.16,1384.02 2099.13,1384.07 2103.09,1384.12 2107.06,1384.16 2111.02,1384.21 2114.99,1384.25 2118.95,1384.29 2122.92,1384.34 2126.88,1384.38 2130.85,1384.42 2134.81,1384.47 2138.77,1384.51 2142.74,1384.55 2146.7,1384.59 2150.67,1384.63 2154.63,1384.67 2158.6,1384.71 2162.56,1384.75 2166.53,1384.79 2170.49,1384.83 2174.46,1384.87 2178.42,1384.9 2182.39,1384.94 2186.35,1384.98 2190.32,1385.02 2194.28,1385.05 2198.25,1385.09 2202.21,1385.13 2206.18,1385.16 2210.14,1385.2 2214.11,1385.24 2218.07,1385.27 2222.04,1385.31 2226,1385.34 2229.97,1385.38 2233.93,1385.41 2237.9,1385.45 2241.86,1385.48 2245.82,1385.51 2249.79,1385.55 2253.75,1385.58 2257.72,1385.61 2261.68,1385.65 2265.65,1385.68 2269.61,1385.71 2273.58,1385.75 2277.54,1385.78 2281.51,1385.81 2285.47,1385.84 2289.44,1385.87 2293.4,1385.91 "/>
</svg>
