<?xml version="1.0" encoding="utf-8"?>
<svg xmlns="http://www.w3.org/2000/svg" xmlns:xlink="http://www.w3.org/1999/xlink" width="600" height="400" viewBox="0 0 2400 1600">
<defs>
  <clipPath id="clip470">
    <rect x="0" y="0" width="2400" height="1600"/>
  </clipPath>
</defs>
<path clip-path="url(#clip470)" d="M0 1600 L2400 1600 L2400 0 L0 0  Z" fill="#ffffff" fill-rule="evenodd" fill-opacity="1"/>
<defs>
  <clipPath id="clip471">
    <rect x="480" y="0" width="1681" height="1600"/>
  </clipPath>
</defs>
<path clip-path="url(#clip470)" d="M286.371 1423.18 L2352.76 1423.18 L2352.76 106.192 L286.371 106.192  Z" fill="#ffffff" fill-rule="evenodd" fill-opacity="1"/>
<defs>
  <clipPath id="clip472">
    <rect x="286" y="106" width="2067" height="1318"/>
  </clipPath>
</defs>
<polyline clip-path="url(#clip472)" style="stroke:#000000; stroke-linecap:round; stroke-linejoin:round; stroke-width:2; stroke-opacity:0.1; fill:none" points="340.946,1423.18 340.946,106.192 "/>
<polyline clip-path="url(#clip472)" style="stroke:#000000; stroke-linecap:round; stroke-linejoin:round; stroke-width:2; stroke-opacity:0.1; fill:none" points="731.612,1423.18 731.612,106.192 "/>
<polyline clip-path="url(#clip472)" style="stroke:#000000; stroke-linecap:round; stroke-linejoin:round; stroke-width:2; stroke-opacity:0.1; fill:none" points="1122.28,1423.18 1122.28,106.192 "/>
<polyline clip-path="url(#clip472)" style="stroke:#000000; stroke-linecap:round; stroke-linejoin:round; stroke-width:2; stroke-opacity:0.1; fill:none" points="1512.94,1423.18 1512.94,106.192 "/>
<polyline clip-path="url(#clip472)" style="stroke:#000000; stroke-linecap:round; stroke-linejoin:round; stroke-width:2; stroke-opacity:0.1; fill:none" points="1903.61,1423.18 1903.61,106.192 "/>
<polyline clip-path="url(#clip472)" style="stroke:#000000; stroke-linecap:round; stroke-linejoin:round; stroke-width:2; stroke-opacity:0.1; fill:none" points="2294.27,1423.18 2294.27,106.192 "/>
<polyline clip-path="url(#clip470)" style="stroke:#000000; stroke-linecap:round; stroke-linejoin:round; stroke-width:4; stroke-opacity:1; fill:none" points="286.371,1423.18 2352.76,1423.18 "/>
<polyline clip-path="url(#clip470)" style="stroke:#000000; stroke-linecap:round; stroke-linejoin:round; stroke-width:4; stroke-opacity:1; fill:none" points="340.946,1423.18 340.946,1404.28 "/>
<polyline clip-path="url(#clip470)" style="stroke:#000000; stroke-linecap:round; stroke-linejoin:round; stroke-width:4; stroke-opacity:1; fill:none" points="731.612,1423.18 731.612,1404.28 "/>
<polyline clip-path="url(#clip470)" style="stroke:#000000; stroke-linecap:round; stroke-linejoin:round; stroke-width:4; stroke-opacity:1; fill:none" points="1122.28,1423.18 1122.28,1404.28 "/>
<polyline clip-path="url(#clip470)" style="stroke:#000000; stroke-linecap:round; stroke-linejoin:round; stroke-width:4; stroke-opacity:1; fill:none" points="1512.94,1423.18 1512.94,1404.28 "/>
<polyline clip-path="url(#clip470)" style="stroke:#000000; stroke-linecap:round; stroke-linejoin:round; stroke-width:4; stroke-opacity:1; fill:none" points="1903.61,1423.18 1903.61,1404.28 "/>
<polyline clip-path="url(#clip470)" style="stroke:#000000; stroke-linecap:round; stroke-linejoin:round; stroke-width:4; stroke-opacity:1; fill:none" points="2294.27,1423.18 2294.27,1404.28 "/>
<path clip-path="url(#clip470)" d="M340.946 1454.1 Q337.335 1454.1 335.507 1457.66 Q333.701 1461.2 333.701 1468.33 Q333.701 1475.44 335.507 1479.01 Q337.335 1482.55 340.946 1482.55 Q344.581 1482.55 346.386 1479.01 Q348.215 1475.44 348.215 1468.33 Q348.215 1461.2 346.386 1457.66 Q344.581 1454.1 340.946 1454.1 M340.946 1450.39 Q346.757 1450.39 349.812 1455 Q352.891 1459.58 352.891 1468.33 Q352.891 1477.06 349.812 1481.67 Q346.757 1486.25 340.946 1486.25 Q335.136 1486.25 332.058 1481.67 Q329.002 1477.06 329.002 1468.33 Q329.002 1459.58 332.058 1455 Q335.136 1450.39 340.946 1450.39 Z" fill="#000000" fill-rule="nonzero" fill-opacity="1" /><path clip-path="url(#clip470)" d="M691.219 1481.64 L698.857 1481.64 L698.857 1455.28 L690.547 1456.95 L690.547 1452.69 L698.811 1451.02 L703.487 1451.02 L703.487 1481.64 L711.126 1481.64 L711.126 1485.58 L691.219 1485.58 L691.219 1481.64 Z" fill="#000000" fill-rule="nonzero" fill-opacity="1" /><path clip-path="url(#clip470)" d="M730.57 1454.1 Q726.959 1454.1 725.13 1457.66 Q723.325 1461.2 723.325 1468.33 Q723.325 1475.44 725.13 1479.01 Q726.959 1482.55 730.57 1482.55 Q734.204 1482.55 736.01 1479.01 Q737.839 1475.44 737.839 1468.33 Q737.839 1461.2 736.01 1457.66 Q734.204 1454.1 730.57 1454.1 M730.57 1450.39 Q736.38 1450.39 739.436 1455 Q742.515 1459.58 742.515 1468.33 Q742.515 1477.06 739.436 1481.67 Q736.38 1486.25 730.57 1486.25 Q724.76 1486.25 721.681 1481.67 Q718.626 1477.06 718.626 1468.33 Q718.626 1459.58 721.681 1455 Q724.76 1450.39 730.57 1450.39 Z" fill="#000000" fill-rule="nonzero" fill-opacity="1" /><path clip-path="url(#clip470)" d="M760.732 1454.1 Q757.121 1454.1 755.292 1457.66 Q753.487 1461.2 753.487 1468.33 Q753.487 1475.44 755.292 1479.01 Q757.121 1482.55 760.732 1482.55 Q764.366 1482.55 766.172 1479.01 Q768.001 1475.44 768.001 1468.33 Q768.001 1461.2 766.172 1457.66 Q764.366 1454.1 760.732 1454.1 M760.732 1450.39 Q766.542 1450.39 769.598 1455 Q772.676 1459.58 772.676 1468.33 Q772.676 1477.06 769.598 1481.67 Q766.542 1486.25 760.732 1486.25 Q754.922 1486.25 751.843 1481.67 Q748.788 1477.06 748.788 1468.33 Q748.788 1459.58 751.843 1455 Q754.922 1450.39 760.732 1450.39 Z" fill="#000000" fill-rule="nonzero" fill-opacity="1" /><path clip-path="url(#clip470)" d="M1085.97 1481.64 L1102.29 1481.64 L1102.29 1485.58 L1080.34 1485.58 L1080.34 1481.64 Q1083.01 1478.89 1087.59 1474.26 Q1092.2 1469.61 1093.38 1468.27 Q1095.62 1465.74 1096.5 1464.01 Q1097.4 1462.25 1097.4 1460.56 Q1097.4 1457.8 1095.46 1456.07 Q1093.54 1454.33 1090.44 1454.33 Q1088.24 1454.33 1085.78 1455.09 Q1083.35 1455.86 1080.58 1457.41 L1080.58 1452.69 Q1083.4 1451.55 1085.85 1450.97 Q1088.31 1450.39 1090.34 1450.39 Q1095.71 1450.39 1098.91 1453.08 Q1102.1 1455.77 1102.1 1460.26 Q1102.1 1462.39 1101.29 1464.31 Q1100.51 1466.2 1098.4 1468.8 Q1097.82 1469.47 1094.72 1472.69 Q1091.62 1475.88 1085.97 1481.64 Z" fill="#000000" fill-rule="nonzero" fill-opacity="1" /><path clip-path="url(#clip470)" d="M1122.1 1454.1 Q1118.49 1454.1 1116.66 1457.66 Q1114.86 1461.2 1114.86 1468.33 Q1114.86 1475.44 1116.66 1479.01 Q1118.49 1482.55 1122.1 1482.55 Q1125.74 1482.55 1127.54 1479.01 Q1129.37 1475.44 1129.37 1468.33 Q1129.37 1461.2 1127.54 1457.66 Q1125.74 1454.1 1122.1 1454.1 M1122.1 1450.39 Q1127.91 1450.39 1130.97 1455 Q1134.05 1459.58 1134.05 1468.33 Q1134.05 1477.06 1130.97 1481.67 Q1127.91 1486.25 1122.1 1486.25 Q1116.29 1486.25 1113.21 1481.67 Q1110.16 1477.06 1110.16 1468.33 Q1110.16 1459.58 1113.21 1455 Q1116.29 1450.39 1122.1 1450.39 Z" fill="#000000" fill-rule="nonzero" fill-opacity="1" /><path clip-path="url(#clip470)" d="M1152.27 1454.1 Q1148.65 1454.1 1146.83 1457.66 Q1145.02 1461.2 1145.02 1468.33 Q1145.02 1475.44 1146.83 1479.01 Q1148.65 1482.55 1152.27 1482.55 Q1155.9 1482.55 1157.71 1479.01 Q1159.53 1475.44 1159.53 1468.33 Q1159.53 1461.2 1157.71 1457.66 Q1155.9 1454.1 1152.27 1454.1 M1152.27 1450.39 Q1158.08 1450.39 1161.13 1455 Q1164.21 1459.58 1164.21 1468.33 Q1164.21 1477.06 1161.13 1481.67 Q1158.08 1486.25 1152.27 1486.25 Q1146.46 1486.25 1143.38 1481.67 Q1140.32 1477.06 1140.32 1468.33 Q1140.32 1459.58 1143.38 1455 Q1146.46 1450.39 1152.27 1450.39 Z" fill="#000000" fill-rule="nonzero" fill-opacity="1" /><path clip-path="url(#clip470)" d="M1486.7 1466.95 Q1490.06 1467.66 1491.94 1469.93 Q1493.83 1472.2 1493.83 1475.53 Q1493.83 1480.65 1490.32 1483.45 Q1486.8 1486.25 1480.32 1486.25 Q1478.14 1486.25 1475.82 1485.81 Q1473.53 1485.39 1471.08 1484.54 L1471.08 1480.02 Q1473.02 1481.16 1475.34 1481.74 Q1477.65 1482.32 1480.18 1482.32 Q1484.57 1482.32 1486.87 1480.58 Q1489.18 1478.84 1489.18 1475.53 Q1489.18 1472.48 1487.03 1470.77 Q1484.9 1469.03 1481.08 1469.03 L1477.05 1469.03 L1477.05 1465.19 L1481.26 1465.19 Q1484.71 1465.19 1486.54 1463.82 Q1488.37 1462.43 1488.37 1459.84 Q1488.37 1457.18 1486.47 1455.77 Q1484.6 1454.33 1481.08 1454.33 Q1479.16 1454.33 1476.96 1454.75 Q1474.76 1455.16 1472.12 1456.04 L1472.12 1451.88 Q1474.78 1451.14 1477.1 1450.77 Q1479.44 1450.39 1481.5 1450.39 Q1486.82 1450.39 1489.92 1452.83 Q1493.02 1455.23 1493.02 1459.35 Q1493.02 1462.22 1491.38 1464.21 Q1489.74 1466.18 1486.7 1466.95 Z" fill="#000000" fill-rule="nonzero" fill-opacity="1" /><path clip-path="url(#clip470)" d="M1512.7 1454.1 Q1509.09 1454.1 1507.26 1457.66 Q1505.45 1461.2 1505.45 1468.33 Q1505.45 1475.44 1507.26 1479.01 Q1509.09 1482.55 1512.7 1482.55 Q1516.33 1482.55 1518.14 1479.01 Q1519.97 1475.44 1519.97 1468.33 Q1519.97 1461.2 1518.14 1457.66 Q1516.33 1454.1 1512.7 1454.1 M1512.7 1450.39 Q1518.51 1450.39 1521.57 1455 Q1524.64 1459.58 1524.64 1468.33 Q1524.64 1477.06 1521.57 1481.67 Q1518.51 1486.25 1512.7 1486.25 Q1506.89 1486.25 1503.81 1481.67 Q1500.76 1477.06 1500.76 1468.33 Q1500.76 1459.58 1503.81 1455 Q1506.89 1450.39 1512.7 1450.39 Z" fill="#000000" fill-rule="nonzero" fill-opacity="1" /><path clip-path="url(#clip470)" d="M1542.86 1454.1 Q1539.25 1454.1 1537.42 1457.66 Q1535.62 1461.2 1535.62 1468.33 Q1535.62 1475.44 1537.42 1479.01 Q1539.25 1482.55 1542.86 1482.55 Q1546.5 1482.55 1548.3 1479.01 Q1550.13 1475.44 1550.13 1468.33 Q1550.13 1461.2 1548.3 1457.66 Q1546.5 1454.1 1542.86 1454.1 M1542.86 1450.39 Q1548.67 1450.39 1551.73 1455 Q1554.81 1459.58 1554.81 1468.33 Q1554.81 1477.06 1551.73 1481.67 Q1548.67 1486.25 1542.86 1486.25 Q1537.05 1486.25 1533.97 1481.67 Q1530.92 1477.06 1530.92 1468.33 Q1530.92 1459.58 1533.97 1455 Q1537.05 1450.39 1542.86 1450.39 Z" fill="#000000" fill-rule="nonzero" fill-opacity="1" /><path clip-path="url(#clip470)" d="M1876.7 1455.09 L1864.89 1473.54 L1876.7 1473.54 L1876.7 1455.09 M1875.47 1451.02 L1881.35 1451.02 L1881.35 1473.54 L1886.28 1473.54 L1886.28 1477.43 L1881.35 1477.43 L1881.35 1485.58 L1876.7 1485.58 L1876.7 1477.43 L1861.1 1477.43 L1861.1 1472.92 L1875.47 1451.02 Z" fill="#000000" fill-rule="nonzero" fill-opacity="1" /><path clip-path="url(#clip470)" d="M1904.01 1454.1 Q1900.4 1454.1 1898.57 1457.66 Q1896.77 1461.2 1896.77 1468.33 Q1896.77 1475.44 1898.57 1479.01 Q1900.4 1482.55 1904.01 1482.55 Q1907.65 1482.55 1909.45 1479.01 Q1911.28 1475.44 1911.28 1468.33 Q1911.28 1461.2 1909.45 1457.66 Q1907.65 1454.1 1904.01 1454.1 M1904.01 1450.39 Q1909.82 1450.39 1912.88 1455 Q1915.96 1459.58 1915.96 1468.33 Q1915.96 1477.06 1912.88 1481.67 Q1909.82 1486.25 1904.01 1486.25 Q1898.2 1486.25 1895.12 1481.67 Q1892.07 1477.06 1892.07 1468.33 Q1892.07 1459.58 1895.12 1455 Q1898.2 1450.39 1904.01 1450.39 Z" fill="#000000" fill-rule="nonzero" fill-opacity="1" /><path clip-path="url(#clip470)" d="M1934.17 1454.1 Q1930.56 1454.1 1928.74 1457.66 Q1926.93 1461.2 1926.93 1468.33 Q1926.93 1475.44 1928.74 1479.01 Q1930.56 1482.55 1934.17 1482.55 Q1937.81 1482.55 1939.61 1479.01 Q1941.44 1475.44 1941.44 1468.33 Q1941.44 1461.2 1939.61 1457.66 Q1937.81 1454.1 1934.17 1454.1 M1934.17 1450.39 Q1939.99 1450.39 1943.04 1455 Q1946.12 1459.58 1946.12 1468.33 Q1946.12 1477.06 1943.04 1481.67 Q1939.99 1486.25 1934.17 1486.25 Q1928.36 1486.25 1925.29 1481.67 Q1922.23 1477.06 1922.23 1468.33 Q1922.23 1459.58 1925.29 1455 Q1928.36 1450.39 1934.17 1450.39 Z" fill="#000000" fill-rule="nonzero" fill-opacity="1" /><path clip-path="url(#clip470)" d="M2253.89 1451.02 L2272.25 1451.02 L2272.25 1454.96 L2258.17 1454.96 L2258.17 1463.43 Q2259.19 1463.08 2260.21 1462.92 Q2261.23 1462.73 2262.25 1462.73 Q2268.04 1462.73 2271.41 1465.9 Q2274.79 1469.08 2274.79 1474.49 Q2274.79 1480.07 2271.32 1483.17 Q2267.85 1486.25 2261.53 1486.25 Q2259.35 1486.25 2257.09 1485.88 Q2254.84 1485.51 2252.43 1484.77 L2252.43 1480.07 Q2254.52 1481.2 2256.74 1481.76 Q2258.96 1482.32 2261.44 1482.32 Q2265.44 1482.32 2267.78 1480.21 Q2270.12 1478.1 2270.12 1474.49 Q2270.12 1470.88 2267.78 1468.77 Q2265.44 1466.67 2261.44 1466.67 Q2259.56 1466.67 2257.69 1467.08 Q2255.84 1467.5 2253.89 1468.38 L2253.89 1451.02 Z" fill="#000000" fill-rule="nonzero" fill-opacity="1" /><path clip-path="url(#clip470)" d="M2294.01 1454.1 Q2290.4 1454.1 2288.57 1457.66 Q2286.76 1461.2 2286.76 1468.33 Q2286.76 1475.44 2288.57 1479.01 Q2290.4 1482.55 2294.01 1482.55 Q2297.64 1482.55 2299.45 1479.01 Q2301.28 1475.44 2301.28 1468.33 Q2301.28 1461.2 2299.45 1457.66 Q2297.64 1454.1 2294.01 1454.1 M2294.01 1450.39 Q2299.82 1450.39 2302.87 1455 Q2305.95 1459.58 2305.95 1468.33 Q2305.95 1477.06 2302.87 1481.67 Q2299.82 1486.25 2294.01 1486.25 Q2288.2 1486.25 2285.12 1481.67 Q2282.06 1477.06 2282.06 1468.33 Q2282.06 1459.58 2285.12 1455 Q2288.2 1450.39 2294.01 1450.39 Z" fill="#000000" fill-rule="nonzero" fill-opacity="1" /><path clip-path="url(#clip470)" d="M2324.17 1454.1 Q2320.56 1454.1 2318.73 1457.66 Q2316.92 1461.2 2316.92 1468.33 Q2316.92 1475.44 2318.73 1479.01 Q2320.56 1482.55 2324.17 1482.55 Q2327.8 1482.55 2329.61 1479.01 Q2331.44 1475.44 2331.44 1468.33 Q2331.44 1461.2 2329.61 1457.66 Q2327.8 1454.1 2324.17 1454.1 M2324.17 1450.39 Q2329.98 1450.39 2333.03 1455 Q2336.11 1459.58 2336.11 1468.33 Q2336.11 1477.06 2333.03 1481.67 Q2329.98 1486.25 2324.17 1486.25 Q2318.36 1486.25 2315.28 1481.67 Q2312.22 1477.06 2312.22 1468.33 Q2312.22 1459.58 2315.28 1455 Q2318.36 1450.39 2324.17 1450.39 Z" fill="#000000" fill-rule="nonzero" fill-opacity="1" /><path clip-path="url(#clip470)" d="M1187.71 1532.4 L1193.57 1532.4 L1193.57 1568.04 L1187.71 1568.04 L1187.71 1532.4 M1187.71 1518.52 L1193.57 1518.52 L1193.57 1525.93 L1187.71 1525.93 L1187.71 1518.52 Z" fill="#000000" fill-rule="nonzero" fill-opacity="1" /><path clip-path="url(#clip470)" d="M1211.62 1522.27 L1211.62 1532.4 L1223.68 1532.4 L1223.68 1536.95 L1211.62 1536.95 L1211.62 1556.3 Q1211.62 1560.66 1212.79 1561.9 Q1214 1563.14 1217.66 1563.14 L1223.68 1563.14 L1223.68 1568.04 L1217.66 1568.04 Q1210.88 1568.04 1208.31 1565.53 Q1205.73 1562.98 1205.73 1556.3 L1205.73 1536.95 L1201.43 1536.95 L1201.43 1532.4 L1205.73 1532.4 L1205.73 1522.27 L1211.62 1522.27 Z" fill="#000000" fill-rule="nonzero" fill-opacity="1" /><path clip-path="url(#clip470)" d="M1261.87 1548.76 L1261.87 1551.62 L1234.95 1551.62 Q1235.33 1557.67 1238.58 1560.85 Q1241.85 1564 1247.68 1564 Q1251.05 1564 1254.2 1563.17 Q1257.39 1562.35 1260.51 1560.69 L1260.51 1566.23 Q1257.35 1567.57 1254.04 1568.27 Q1250.73 1568.97 1247.33 1568.97 Q1238.8 1568.97 1233.8 1564 Q1228.84 1559.04 1228.84 1550.57 Q1228.84 1541.82 1233.55 1536.69 Q1238.29 1531.54 1246.31 1531.54 Q1253.5 1531.54 1257.67 1536.18 Q1261.87 1540.8 1261.87 1548.76 M1256.02 1547.04 Q1255.95 1542.23 1253.31 1539.37 Q1250.7 1536.5 1246.37 1536.5 Q1241.47 1536.5 1238.51 1539.27 Q1235.58 1542.04 1235.14 1547.07 L1256.02 1547.04 Z" fill="#000000" fill-rule="nonzero" fill-opacity="1" /><path clip-path="url(#clip470)" d="M1292.14 1537.87 Q1291.16 1537.3 1289.98 1537.04 Q1288.83 1536.76 1287.43 1536.76 Q1282.47 1536.76 1279.79 1540 Q1277.15 1543.22 1277.15 1549.27 L1277.15 1568.04 L1271.26 1568.04 L1271.26 1532.4 L1277.15 1532.4 L1277.15 1537.93 Q1279 1534.69 1281.96 1533.13 Q1284.92 1531.54 1289.15 1531.54 Q1289.76 1531.54 1290.49 1531.63 Q1291.22 1531.7 1292.11 1531.85 L1292.14 1537.87 Z" fill="#000000" fill-rule="nonzero" fill-opacity="1" /><path clip-path="url(#clip470)" d="M1314.49 1550.12 Q1307.39 1550.12 1304.65 1551.75 Q1301.91 1553.37 1301.91 1557.29 Q1301.91 1560.4 1303.95 1562.25 Q1306.02 1564.07 1309.55 1564.07 Q1314.42 1564.07 1317.35 1560.63 Q1320.31 1557.16 1320.31 1551.43 L1320.31 1550.12 L1314.49 1550.12 M1326.17 1547.71 L1326.17 1568.04 L1320.31 1568.04 L1320.31 1562.63 Q1318.31 1565.88 1315.31 1567.44 Q1312.32 1568.97 1307.99 1568.97 Q1302.52 1568.97 1299.27 1565.91 Q1296.06 1562.82 1296.06 1557.67 Q1296.06 1551.65 1300.07 1548.6 Q1304.11 1545.54 1312.1 1545.54 L1320.31 1545.54 L1320.31 1544.97 Q1320.31 1540.93 1317.64 1538.73 Q1315 1536.5 1310.19 1536.5 Q1307.13 1536.5 1304.24 1537.23 Q1301.34 1537.97 1298.67 1539.43 L1298.67 1534.02 Q1301.88 1532.78 1304.91 1532.17 Q1307.93 1531.54 1310.79 1531.54 Q1318.53 1531.54 1322.35 1535.55 Q1326.17 1539.56 1326.17 1547.71 Z" fill="#000000" fill-rule="nonzero" fill-opacity="1" /><path clip-path="url(#clip470)" d="M1344.02 1522.27 L1344.02 1532.4 L1356.09 1532.4 L1356.09 1536.95 L1344.02 1536.95 L1344.02 1556.3 Q1344.02 1560.66 1345.2 1561.9 Q1346.41 1563.14 1350.07 1563.14 L1356.09 1563.14 L1356.09 1568.04 L1350.07 1568.04 Q1343.29 1568.04 1340.71 1565.53 Q1338.14 1562.98 1338.14 1556.3 L1338.14 1536.95 L1333.84 1536.95 L1333.84 1532.4 L1338.14 1532.4 L1338.14 1522.27 L1344.02 1522.27 Z" fill="#000000" fill-rule="nonzero" fill-opacity="1" /><path clip-path="url(#clip470)" d="M1363.79 1532.4 L1369.65 1532.4 L1369.65 1568.04 L1363.79 1568.04 L1363.79 1532.4 M1363.79 1518.52 L1369.65 1518.52 L1369.65 1525.93 L1363.79 1525.93 L1363.79 1518.52 Z" fill="#000000" fill-rule="nonzero" fill-opacity="1" /><path clip-path="url(#clip470)" d="M1395.71 1536.5 Q1391 1536.5 1388.27 1540.19 Q1385.53 1543.85 1385.53 1550.25 Q1385.53 1556.65 1388.23 1560.34 Q1390.97 1564 1395.71 1564 Q1400.39 1564 1403.13 1560.31 Q1405.87 1556.62 1405.87 1550.25 Q1405.87 1543.92 1403.13 1540.23 Q1400.39 1536.5 1395.71 1536.5 M1395.71 1531.54 Q1403.35 1531.54 1407.71 1536.5 Q1412.07 1541.47 1412.07 1550.25 Q1412.07 1559 1407.71 1564 Q1403.35 1568.97 1395.71 1568.97 Q1388.04 1568.97 1383.68 1564 Q1379.35 1559 1379.35 1550.25 Q1379.35 1541.47 1383.68 1536.5 Q1388.04 1531.54 1395.71 1531.54 Z" fill="#000000" fill-rule="nonzero" fill-opacity="1" /><path clip-path="url(#clip470)" d="M1451.41 1546.53 L1451.41 1568.04 L1445.56 1568.04 L1445.56 1546.72 Q1445.56 1541.66 1443.58 1539.14 Q1441.61 1536.63 1437.66 1536.63 Q1432.92 1536.63 1430.18 1539.65 Q1427.45 1542.68 1427.45 1547.9 L1427.45 1568.04 L1421.56 1568.04 L1421.56 1532.4 L1427.45 1532.4 L1427.45 1537.93 Q1429.55 1534.72 1432.38 1533.13 Q1435.24 1531.54 1438.97 1531.54 Q1445.11 1531.54 1448.26 1535.36 Q1451.41 1539.14 1451.41 1546.53 Z" fill="#000000" fill-rule="nonzero" fill-opacity="1" /><polyline clip-path="url(#clip472)" style="stroke:#000000; stroke-linecap:round; stroke-linejoin:round; stroke-width:2; stroke-opacity:0.1; fill:none" points="286.371,1168.35 2352.76,1168.35 "/>
<polyline clip-path="url(#clip472)" style="stroke:#000000; stroke-linecap:round; stroke-linejoin:round; stroke-width:2; stroke-opacity:0.1; fill:none" points="286.371,867.681 2352.76,867.681 "/>
<polyline clip-path="url(#clip472)" style="stroke:#000000; stroke-linecap:round; stroke-linejoin:round; stroke-width:2; stroke-opacity:0.1; fill:none" points="286.371,567.016 2352.76,567.016 "/>
<polyline clip-path="url(#clip472)" style="stroke:#000000; stroke-linecap:round; stroke-linejoin:round; stroke-width:2; stroke-opacity:0.1; fill:none" points="286.371,266.351 2352.76,266.351 "/>
<polyline clip-path="url(#clip470)" style="stroke:#000000; stroke-linecap:round; stroke-linejoin:round; stroke-width:4; stroke-opacity:1; fill:none" points="286.371,1423.18 286.371,106.192 "/>
<polyline clip-path="url(#clip470)" style="stroke:#000000; stroke-linecap:round; stroke-linejoin:round; stroke-width:4; stroke-opacity:1; fill:none" points="286.371,1168.35 305.268,1168.35 "/>
<polyline clip-path="url(#clip470)" style="stroke:#000000; stroke-linecap:round; stroke-linejoin:round; stroke-width:4; stroke-opacity:1; fill:none" points="286.371,867.681 305.268,867.681 "/>
<polyline clip-path="url(#clip470)" style="stroke:#000000; stroke-linecap:round; stroke-linejoin:round; stroke-width:4; stroke-opacity:1; fill:none" points="286.371,567.016 305.268,567.016 "/>
<polyline clip-path="url(#clip470)" style="stroke:#000000; stroke-linecap:round; stroke-linejoin:round; stroke-width:4; stroke-opacity:1; fill:none" points="286.371,266.351 305.268,266.351 "/>
<path clip-path="url(#clip470)" d="M114.26 1168.8 L143.936 1168.8 L143.936 1172.73 L114.26 1172.73 L114.26 1168.8 Z" fill="#000000" fill-rule="nonzero" fill-opacity="1" /><path clip-path="url(#clip470)" d="M164.028 1154.15 Q160.417 1154.15 158.589 1157.71 Q156.783 1161.25 156.783 1168.38 Q156.783 1175.49 158.589 1179.05 Q160.417 1182.59 164.028 1182.59 Q167.663 1182.59 169.468 1179.05 Q171.297 1175.49 171.297 1168.38 Q171.297 1161.25 169.468 1157.71 Q167.663 1154.15 164.028 1154.15 M164.028 1150.44 Q169.839 1150.44 172.894 1155.05 Q175.973 1159.63 175.973 1168.38 Q175.973 1177.11 172.894 1181.71 Q169.839 1186.3 164.028 1186.3 Q158.218 1186.3 155.14 1181.71 Q152.084 1177.11 152.084 1168.38 Q152.084 1159.63 155.14 1155.05 Q158.218 1150.44 164.028 1150.44 Z" fill="#000000" fill-rule="nonzero" fill-opacity="1" /><path clip-path="url(#clip470)" d="M184.19 1179.75 L189.075 1179.75 L189.075 1185.63 L184.19 1185.63 L184.19 1179.75 Z" fill="#000000" fill-rule="nonzero" fill-opacity="1" /><path clip-path="url(#clip470)" d="M203.287 1181.69 L219.607 1181.69 L219.607 1185.63 L197.662 1185.63 L197.662 1181.69 Q200.325 1178.94 204.908 1174.31 Q209.514 1169.65 210.695 1168.31 Q212.94 1165.79 213.82 1164.05 Q214.723 1162.29 214.723 1160.6 Q214.723 1157.85 212.778 1156.11 Q210.857 1154.38 207.755 1154.38 Q205.556 1154.38 203.102 1155.14 Q200.672 1155.9 197.894 1157.46 L197.894 1152.73 Q200.718 1151.6 203.172 1151.02 Q205.625 1150.44 207.662 1150.44 Q213.033 1150.44 216.227 1153.13 Q219.422 1155.81 219.422 1160.3 Q219.422 1162.43 218.611 1164.35 Q217.824 1166.25 215.718 1168.84 Q215.139 1169.52 212.037 1172.73 Q208.936 1175.93 203.287 1181.69 Z" fill="#000000" fill-rule="nonzero" fill-opacity="1" /><path clip-path="url(#clip470)" d="M229.468 1151.07 L247.824 1151.07 L247.824 1155 L233.75 1155 L233.75 1163.47 Q234.769 1163.13 235.787 1162.96 Q236.806 1162.78 237.824 1162.78 Q243.611 1162.78 246.991 1165.95 Q250.371 1169.12 250.371 1174.54 Q250.371 1180.12 246.898 1183.22 Q243.426 1186.3 237.107 1186.3 Q234.931 1186.3 232.662 1185.93 Q230.417 1185.56 228.01 1184.82 L228.01 1180.12 Q230.093 1181.25 232.315 1181.81 Q234.537 1182.36 237.014 1182.36 Q241.019 1182.36 243.357 1180.26 Q245.695 1178.15 245.695 1174.54 Q245.695 1170.93 243.357 1168.82 Q241.019 1166.71 237.014 1166.71 Q235.139 1166.71 233.264 1167.13 Q231.412 1167.55 229.468 1168.43 L229.468 1151.07 Z" fill="#000000" fill-rule="nonzero" fill-opacity="1" /><path clip-path="url(#clip470)" d="M163.033 853.48 Q159.422 853.48 157.593 857.045 Q155.788 860.587 155.788 867.716 Q155.788 874.823 157.593 878.387 Q159.422 881.929 163.033 881.929 Q166.667 881.929 168.473 878.387 Q170.302 874.823 170.302 867.716 Q170.302 860.587 168.473 857.045 Q166.667 853.48 163.033 853.48 M163.033 849.776 Q168.843 849.776 171.899 854.383 Q174.977 858.966 174.977 867.716 Q174.977 876.443 171.899 881.049 Q168.843 885.633 163.033 885.633 Q157.223 885.633 154.144 881.049 Q151.089 876.443 151.089 867.716 Q151.089 858.966 154.144 854.383 Q157.223 849.776 163.033 849.776 Z" fill="#000000" fill-rule="nonzero" fill-opacity="1" /><path clip-path="url(#clip470)" d="M183.195 879.082 L188.079 879.082 L188.079 884.961 L183.195 884.961 L183.195 879.082 Z" fill="#000000" fill-rule="nonzero" fill-opacity="1" /><path clip-path="url(#clip470)" d="M208.264 853.48 Q204.653 853.48 202.824 857.045 Q201.019 860.587 201.019 867.716 Q201.019 874.823 202.824 878.387 Q204.653 881.929 208.264 881.929 Q211.899 881.929 213.704 878.387 Q215.533 874.823 215.533 867.716 Q215.533 860.587 213.704 857.045 Q211.899 853.48 208.264 853.48 M208.264 849.776 Q214.074 849.776 217.13 854.383 Q220.209 858.966 220.209 867.716 Q220.209 876.443 217.13 881.049 Q214.074 885.633 208.264 885.633 Q202.454 885.633 199.375 881.049 Q196.32 876.443 196.32 867.716 Q196.32 858.966 199.375 854.383 Q202.454 849.776 208.264 849.776 Z" fill="#000000" fill-rule="nonzero" fill-opacity="1" /><path clip-path="url(#clip470)" d="M238.426 853.48 Q234.815 853.48 232.986 857.045 Q231.181 860.587 231.181 867.716 Q231.181 874.823 232.986 878.387 Q234.815 881.929 238.426 881.929 Q242.06 881.929 243.866 878.387 Q245.695 874.823 245.695 867.716 Q245.695 860.587 243.866 857.045 Q242.06 853.48 238.426 853.48 M238.426 849.776 Q244.236 849.776 247.292 854.383 Q250.371 858.966 250.371 867.716 Q250.371 876.443 247.292 881.049 Q244.236 885.633 238.426 885.633 Q232.616 885.633 229.537 881.049 Q226.482 876.443 226.482 867.716 Q226.482 858.966 229.537 854.383 Q232.616 849.776 238.426 849.776 Z" fill="#000000" fill-rule="nonzero" fill-opacity="1" /><path clip-path="url(#clip470)" d="M164.028 552.815 Q160.417 552.815 158.589 556.38 Q156.783 559.921 156.783 567.051 Q156.783 574.157 158.589 577.722 Q160.417 581.264 164.028 581.264 Q167.663 581.264 169.468 577.722 Q171.297 574.157 171.297 567.051 Q171.297 559.921 169.468 556.38 Q167.663 552.815 164.028 552.815 M164.028 549.111 Q169.839 549.111 172.894 553.718 Q175.973 558.301 175.973 567.051 Q175.973 575.778 172.894 580.384 Q169.839 584.968 164.028 584.968 Q158.218 584.968 155.14 580.384 Q152.084 575.778 152.084 567.051 Q152.084 558.301 155.14 553.718 Q158.218 549.111 164.028 549.111 Z" fill="#000000" fill-rule="nonzero" fill-opacity="1" /><path clip-path="url(#clip470)" d="M184.19 578.417 L189.075 578.417 L189.075 584.296 L184.19 584.296 L184.19 578.417 Z" fill="#000000" fill-rule="nonzero" fill-opacity="1" /><path clip-path="url(#clip470)" d="M203.287 580.361 L219.607 580.361 L219.607 584.296 L197.662 584.296 L197.662 580.361 Q200.325 577.606 204.908 572.977 Q209.514 568.324 210.695 566.982 Q212.94 564.458 213.82 562.722 Q214.723 560.963 214.723 559.273 Q214.723 556.519 212.778 554.783 Q210.857 553.046 207.755 553.046 Q205.556 553.046 203.102 553.81 Q200.672 554.574 197.894 556.125 L197.894 551.403 Q200.718 550.269 203.172 549.69 Q205.625 549.111 207.662 549.111 Q213.033 549.111 216.227 551.796 Q219.422 554.482 219.422 558.972 Q219.422 561.102 218.611 563.023 Q217.824 564.921 215.718 567.514 Q215.139 568.185 212.037 571.403 Q208.936 574.597 203.287 580.361 Z" fill="#000000" fill-rule="nonzero" fill-opacity="1" /><path clip-path="url(#clip470)" d="M229.468 549.736 L247.824 549.736 L247.824 553.671 L233.75 553.671 L233.75 562.144 Q234.769 561.796 235.787 561.634 Q236.806 561.449 237.824 561.449 Q243.611 561.449 246.991 564.62 Q250.371 567.792 250.371 573.208 Q250.371 578.787 246.898 581.889 Q243.426 584.968 237.107 584.968 Q234.931 584.968 232.662 584.597 Q230.417 584.227 228.01 583.486 L228.01 578.787 Q230.093 579.921 232.315 580.477 Q234.537 581.032 237.014 581.032 Q241.019 581.032 243.357 578.926 Q245.695 576.819 245.695 573.208 Q245.695 569.597 243.357 567.491 Q241.019 565.384 237.014 565.384 Q235.139 565.384 233.264 565.801 Q231.412 566.218 229.468 567.097 L229.468 549.736 Z" fill="#000000" fill-rule="nonzero" fill-opacity="1" /><path clip-path="url(#clip470)" d="M163.033 252.15 Q159.422 252.15 157.593 255.715 Q155.788 259.256 155.788 266.386 Q155.788 273.492 157.593 277.057 Q159.422 280.599 163.033 280.599 Q166.667 280.599 168.473 277.057 Q170.302 273.492 170.302 266.386 Q170.302 259.256 168.473 255.715 Q166.667 252.15 163.033 252.15 M163.033 248.446 Q168.843 248.446 171.899 253.053 Q174.977 257.636 174.977 266.386 Q174.977 275.113 171.899 279.719 Q168.843 284.302 163.033 284.302 Q157.223 284.302 154.144 279.719 Q151.089 275.113 151.089 266.386 Q151.089 257.636 154.144 253.053 Q157.223 248.446 163.033 248.446 Z" fill="#000000" fill-rule="nonzero" fill-opacity="1" /><path clip-path="url(#clip470)" d="M183.195 277.751 L188.079 277.751 L188.079 283.631 L183.195 283.631 L183.195 277.751 Z" fill="#000000" fill-rule="nonzero" fill-opacity="1" /><path clip-path="url(#clip470)" d="M198.311 249.071 L216.667 249.071 L216.667 253.006 L202.593 253.006 L202.593 261.478 Q203.612 261.131 204.63 260.969 Q205.649 260.784 206.667 260.784 Q212.454 260.784 215.834 263.955 Q219.213 267.127 219.213 272.543 Q219.213 278.122 215.741 281.224 Q212.269 284.302 205.949 284.302 Q203.774 284.302 201.505 283.932 Q199.26 283.562 196.852 282.821 L196.852 278.122 Q198.936 279.256 201.158 279.812 Q203.38 280.367 205.857 280.367 Q209.861 280.367 212.199 278.261 Q214.537 276.154 214.537 272.543 Q214.537 268.932 212.199 266.826 Q209.861 264.719 205.857 264.719 Q203.982 264.719 202.107 265.136 Q200.255 265.552 198.311 266.432 L198.311 249.071 Z" fill="#000000" fill-rule="nonzero" fill-opacity="1" /><path clip-path="url(#clip470)" d="M238.426 252.15 Q234.815 252.15 232.986 255.715 Q231.181 259.256 231.181 266.386 Q231.181 273.492 232.986 277.057 Q234.815 280.599 238.426 280.599 Q242.06 280.599 243.866 277.057 Q245.695 273.492 245.695 266.386 Q245.695 259.256 243.866 255.715 Q242.06 252.15 238.426 252.15 M238.426 248.446 Q244.236 248.446 247.292 253.053 Q250.371 257.636 250.371 266.386 Q250.371 275.113 247.292 279.719 Q244.236 284.302 238.426 284.302 Q232.616 284.302 229.537 279.719 Q226.482 275.113 226.482 266.386 Q226.482 257.636 229.537 253.053 Q232.616 248.446 238.426 248.446 Z" fill="#000000" fill-rule="nonzero" fill-opacity="1" /><path clip-path="url(#clip470)" d="M44.7161 808.753 L47.5806 808.753 L47.5806 835.68 Q53.6281 835.298 56.8109 832.051 Q59.9619 828.773 59.9619 822.948 Q59.9619 819.574 59.1344 816.423 Q58.3069 813.24 56.6518 810.121 L62.1899 810.121 Q63.5267 813.272 64.227 816.582 Q64.9272 819.893 64.9272 823.298 Q64.9272 831.828 59.9619 836.825 Q54.9967 841.791 46.5303 841.791 Q37.7774 841.791 32.6531 837.08 Q27.4968 832.338 27.4968 824.317 Q27.4968 817.123 32.1438 812.954 Q36.7589 808.753 44.7161 808.753 M42.9973 814.609 Q38.1912 814.673 35.3266 817.314 Q32.4621 819.924 32.4621 824.253 Q32.4621 829.155 35.2312 832.115 Q38.0002 835.043 43.0292 835.489 L42.9973 814.609 Z" fill="#000000" fill-rule="nonzero" fill-opacity="1" /><path clip-path="url(#clip470)" d="M33.8307 778.484 Q33.2578 779.47 33.0032 780.648 Q32.7167 781.794 32.7167 783.194 Q32.7167 788.16 35.9632 790.833 Q39.1779 793.475 45.2253 793.475 L64.0042 793.475 L64.0042 799.363 L28.3562 799.363 L28.3562 793.475 L33.8944 793.475 Q30.6479 791.629 29.0883 788.669 Q27.4968 785.709 27.4968 781.476 Q27.4968 780.871 27.5923 780.139 Q27.656 779.407 27.8151 778.515 L33.8307 778.484 Z" fill="#000000" fill-rule="nonzero" fill-opacity="1" /><path clip-path="url(#clip470)" d="M33.8307 752.83 Q33.2578 753.817 33.0032 754.994 Q32.7167 756.14 32.7167 757.54 Q32.7167 762.506 35.9632 765.179 Q39.1779 767.821 45.2253 767.821 L64.0042 767.821 L64.0042 773.709 L28.3562 773.709 L28.3562 767.821 L33.8944 767.821 Q30.6479 765.975 29.0883 763.015 Q27.4968 760.055 27.4968 755.822 Q27.4968 755.217 27.5923 754.485 Q27.656 753.753 27.8151 752.862 L33.8307 752.83 Z" fill="#000000" fill-rule="nonzero" fill-opacity="1" /><path clip-path="url(#clip470)" d="M32.4621 734.306 Q32.4621 739.016 36.1542 741.754 Q39.8145 744.491 46.212 744.491 Q52.6095 744.491 56.3017 741.785 Q59.9619 739.048 59.9619 734.306 Q59.9619 729.627 56.2698 726.89 Q52.5777 724.152 46.212 724.152 Q39.8781 724.152 36.186 726.89 Q32.4621 729.627 32.4621 734.306 M27.4968 734.306 Q27.4968 726.667 32.4621 722.306 Q37.4273 717.946 46.212 717.946 Q54.9649 717.946 59.9619 722.306 Q64.9272 726.667 64.9272 734.306 Q64.9272 741.976 59.9619 746.337 Q54.9649 750.666 46.212 750.666 Q37.4273 750.666 32.4621 746.337 Q27.4968 741.976 27.4968 734.306 Z" fill="#000000" fill-rule="nonzero" fill-opacity="1" /><path clip-path="url(#clip470)" d="M33.8307 687.581 Q33.2578 688.568 33.0032 689.746 Q32.7167 690.892 32.7167 692.292 Q32.7167 697.257 35.9632 699.931 Q39.1779 702.573 45.2253 702.573 L64.0042 702.573 L64.0042 708.461 L28.3562 708.461 L28.3562 702.573 L33.8944 702.573 Q30.6479 700.727 29.0883 697.766 Q27.4968 694.806 27.4968 690.573 Q27.4968 689.969 27.5923 689.236 Q27.656 688.504 27.8151 687.613 L33.8307 687.581 Z" fill="#000000" fill-rule="nonzero" fill-opacity="1" /><path clip-path="url(#clip470)" d="M1023.09 8.64 L1050.41 8.64 L1050.41 13.559 L1028.94 13.559 L1028.94 26.3482 L1049.51 26.3482 L1049.51 31.2672 L1028.94 31.2672 L1028.94 46.921 L1050.93 46.921 L1050.93 51.84 L1023.09 51.84 L1023.09 8.64 Z" fill="#000000" fill-rule="nonzero" fill-opacity="1" /><path clip-path="url(#clip470)" d="M1056.49 19.4328 L1062.13 19.4328 L1072.26 46.6317 L1082.38 19.4328 L1088.03 19.4328 L1075.87 51.84 L1068.64 51.84 L1056.49 19.4328 Z" fill="#000000" fill-rule="nonzero" fill-opacity="1" /><path clip-path="url(#clip470)" d="M1107.93 23.1654 Q1103.65 23.1654 1101.16 26.5218 Q1098.67 29.8494 1098.67 35.6653 Q1098.67 41.4813 1101.13 44.8377 Q1103.62 48.1653 1107.93 48.1653 Q1112.19 48.1653 1114.67 44.8088 Q1117.16 41.4523 1117.16 35.6653 Q1117.16 29.9072 1114.67 26.5508 Q1112.19 23.1654 1107.93 23.1654 M1107.93 18.6515 Q1114.88 18.6515 1118.84 23.1654 Q1122.81 27.6792 1122.81 35.6653 Q1122.81 43.6225 1118.84 48.1653 Q1114.88 52.6791 1107.93 52.6791 Q1100.96 52.6791 1096.99 48.1653 Q1093.06 43.6225 1093.06 35.6653 Q1093.06 27.6792 1096.99 23.1654 Q1100.96 18.6515 1107.93 18.6515 Z" fill="#000000" fill-rule="nonzero" fill-opacity="1" /><path clip-path="url(#clip470)" d="M1131.63 6.81709 L1136.95 6.81709 L1136.95 51.84 L1131.63 51.84 L1131.63 6.81709 Z" fill="#000000" fill-rule="nonzero" fill-opacity="1" /><path clip-path="url(#clip470)" d="M1147.54 39.0507 L1147.54 19.4328 L1152.87 19.4328 L1152.87 38.8482 Q1152.87 43.4488 1154.66 45.7636 Q1156.46 48.0495 1160.04 48.0495 Q1164.36 48.0495 1166.84 45.3007 Q1169.36 42.5519 1169.36 37.8065 L1169.36 19.4328 L1174.69 19.4328 L1174.69 51.84 L1169.36 51.84 L1169.36 46.8632 Q1167.42 49.8145 1164.85 51.2613 Q1162.3 52.6791 1158.92 52.6791 Q1153.33 52.6791 1150.44 49.2069 Q1147.54 45.7347 1147.54 39.0507 M1160.94 18.6515 L1160.94 18.6515 Z" fill="#000000" fill-rule="nonzero" fill-opacity="1" /><path clip-path="url(#clip470)" d="M1190.92 10.2314 L1190.92 19.4328 L1201.88 19.4328 L1201.88 23.5705 L1190.92 23.5705 L1190.92 41.163 Q1190.92 45.1271 1191.99 46.2555 Q1193.09 47.384 1196.42 47.384 L1201.88 47.384 L1201.88 51.84 L1196.42 51.84 Q1190.25 51.84 1187.91 49.5541 Q1185.57 47.2393 1185.57 41.163 L1185.57 23.5705 L1181.66 23.5705 L1181.66 19.4328 L1185.57 19.4328 L1185.57 10.2314 L1190.92 10.2314 Z" fill="#000000" fill-rule="nonzero" fill-opacity="1" /><path clip-path="url(#clip470)" d="M1208.89 19.4328 L1214.21 19.4328 L1214.21 51.84 L1208.89 51.84 L1208.89 19.4328 M1208.89 6.81709 L1214.21 6.81709 L1214.21 13.559 L1208.89 13.559 L1208.89 6.81709 Z" fill="#000000" fill-rule="nonzero" fill-opacity="1" /><path clip-path="url(#clip470)" d="M1237.91 23.1654 Q1233.63 23.1654 1231.14 26.5218 Q1228.65 29.8494 1228.65 35.6653 Q1228.65 41.4813 1231.11 44.8377 Q1233.6 48.1653 1237.91 48.1653 Q1242.16 48.1653 1244.65 44.8088 Q1247.14 41.4523 1247.14 35.6653 Q1247.14 29.9072 1244.65 26.5508 Q1242.16 23.1654 1237.91 23.1654 M1237.91 18.6515 Q1244.85 18.6515 1248.82 23.1654 Q1252.78 27.6792 1252.78 35.6653 Q1252.78 43.6225 1248.82 48.1653 Q1244.85 52.6791 1237.91 52.6791 Q1230.94 52.6791 1226.97 48.1653 Q1223.04 43.6225 1223.04 35.6653 Q1223.04 27.6792 1226.97 23.1654 Q1230.94 18.6515 1237.91 18.6515 Z" fill="#000000" fill-rule="nonzero" fill-opacity="1" /><path clip-path="url(#clip470)" d="M1288.54 32.2799 L1288.54 51.84 L1283.22 51.84 L1283.22 32.4535 Q1283.22 27.8529 1281.43 25.567 Q1279.63 23.2811 1276.04 23.2811 Q1271.73 23.2811 1269.25 26.03 Q1266.76 28.7788 1266.76 33.5241 L1266.76 51.84 L1261.4 51.84 L1261.4 19.4328 L1266.76 19.4328 L1266.76 24.4675 Q1268.67 21.545 1271.24 20.0983 Q1273.85 18.6515 1277.23 18.6515 Q1282.82 18.6515 1285.68 22.1237 Q1288.54 25.567 1288.54 32.2799 Z" fill="#000000" fill-rule="nonzero" fill-opacity="1" /><path clip-path="url(#clip470)" d="M1330.56 23.1654 Q1326.28 23.1654 1323.79 26.5218 Q1321.3 29.8494 1321.3 35.6653 Q1321.3 41.4813 1323.76 44.8377 Q1326.25 48.1653 1330.56 48.1653 Q1334.81 48.1653 1337.3 44.8088 Q1339.79 41.4523 1339.79 35.6653 Q1339.79 29.9072 1337.3 26.5508 Q1334.81 23.1654 1330.56 23.1654 M1330.56 18.6515 Q1337.5 18.6515 1341.47 23.1654 Q1345.43 27.6792 1345.43 35.6653 Q1345.43 43.6225 1341.47 48.1653 Q1337.5 52.6791 1330.56 52.6791 Q1323.59 52.6791 1319.62 48.1653 Q1315.69 43.6225 1315.69 35.6653 Q1315.69 27.6792 1319.62 23.1654 Q1323.59 18.6515 1330.56 18.6515 Z" fill="#000000" fill-rule="nonzero" fill-opacity="1" /><path clip-path="url(#clip470)" d="M1370.66 6.81709 L1370.66 11.2442 L1365.57 11.2442 Q1362.71 11.2442 1361.58 12.4016 Q1360.48 13.559 1360.48 16.5682 L1360.48 19.4328 L1369.24 19.4328 L1369.24 23.5705 L1360.48 23.5705 L1360.48 51.84 L1355.12 51.84 L1355.12 23.5705 L1350.03 23.5705 L1350.03 19.4328 L1355.12 19.4328 L1355.12 17.1758 Q1355.12 11.765 1357.64 9.30551 Q1360.16 6.81709 1365.63 6.81709 L1370.66 6.81709 Z" fill="#000000" fill-rule="nonzero" fill-opacity="1" /><path clip-path="url(#clip470)" d="M1399.22 10.2314 L1399.22 19.4328 L1410.19 19.4328 L1410.19 23.5705 L1399.22 23.5705 L1399.22 41.163 Q1399.22 45.1271 1400.29 46.2555 Q1401.39 47.384 1404.72 47.384 L1410.19 47.384 L1410.19 51.84 L1404.72 51.84 Q1398.56 51.84 1396.21 49.5541 Q1393.87 47.2393 1393.87 41.163 L1393.87 23.5705 L1389.96 23.5705 L1389.96 19.4328 L1393.87 19.4328 L1393.87 10.2314 L1399.22 10.2314 Z" fill="#000000" fill-rule="nonzero" fill-opacity="1" /><path clip-path="url(#clip470)" d="M1444.13 32.2799 L1444.13 51.84 L1438.8 51.84 L1438.8 32.4535 Q1438.8 27.8529 1437.01 25.567 Q1435.22 23.2811 1431.63 23.2811 Q1427.32 23.2811 1424.83 26.03 Q1422.34 28.7788 1422.34 33.5241 L1422.34 51.84 L1416.99 51.84 L1416.99 6.81709 L1422.34 6.81709 L1422.34 24.4675 Q1424.25 21.545 1426.83 20.0983 Q1429.43 18.6515 1432.81 18.6515 Q1438.4 18.6515 1441.26 22.1237 Q1444.13 25.567 1444.13 32.2799 Z" fill="#000000" fill-rule="nonzero" fill-opacity="1" /><path clip-path="url(#clip470)" d="M1482.47 34.3054 L1482.47 36.9095 L1457.99 36.9095 Q1458.34 42.4072 1461.29 45.3007 Q1464.27 48.1653 1469.56 48.1653 Q1472.63 48.1653 1475.49 47.4129 Q1478.39 46.6606 1481.22 45.156 L1481.22 50.1907 Q1478.36 51.406 1475.35 52.0425 Q1472.34 52.6791 1469.24 52.6791 Q1461.49 52.6791 1456.95 48.1653 Q1452.43 43.6514 1452.43 35.9547 Q1452.43 27.9975 1456.72 23.339 Q1461.03 18.6515 1468.32 18.6515 Q1474.86 18.6515 1478.65 22.876 Q1482.47 27.0716 1482.47 34.3054 M1477.14 32.7429 Q1477.09 28.3737 1474.68 25.7695 Q1472.31 23.1654 1468.38 23.1654 Q1463.92 23.1654 1461.23 25.6827 Q1458.57 28.2001 1458.16 32.7718 L1477.14 32.7429 Z" fill="#000000" fill-rule="nonzero" fill-opacity="1" /><path clip-path="url(#clip470)" d="M1510.04 6.81709 L1515.37 6.81709 L1515.37 51.84 L1510.04 51.84 L1510.04 6.81709 Z" fill="#000000" fill-rule="nonzero" fill-opacity="1" /><path clip-path="url(#clip470)" d="M1539.06 23.1654 Q1534.78 23.1654 1532.29 26.5218 Q1529.81 29.8494 1529.81 35.6653 Q1529.81 41.4813 1532.26 44.8377 Q1534.75 48.1653 1539.06 48.1653 Q1543.32 48.1653 1545.81 44.8088 Q1548.29 41.4523 1548.29 35.6653 Q1548.29 29.9072 1545.81 26.5508 Q1543.32 23.1654 1539.06 23.1654 M1539.06 18.6515 Q1546.01 18.6515 1549.97 23.1654 Q1553.94 27.6792 1553.94 35.6653 Q1553.94 43.6225 1549.97 48.1653 Q1546.01 52.6791 1539.06 52.6791 Q1532.09 52.6791 1528.13 48.1653 Q1524.19 43.6225 1524.19 35.6653 Q1524.19 27.6792 1528.13 23.1654 Q1532.09 18.6515 1539.06 18.6515 Z" fill="#000000" fill-rule="nonzero" fill-opacity="1" /><path clip-path="url(#clip470)" d="M1583.42 20.3876 L1583.42 25.4223 Q1581.16 24.2649 1578.73 23.6862 Q1576.3 23.1075 1573.7 23.1075 Q1569.74 23.1075 1567.74 24.3228 Q1565.77 25.5381 1565.77 27.9686 Q1565.77 29.8204 1567.19 30.891 Q1568.61 31.9327 1572.89 32.8876 L1574.71 33.2926 Q1580.38 34.5079 1582.76 36.7359 Q1585.16 38.935 1585.16 42.8991 Q1585.16 47.4129 1581.57 50.046 Q1578.01 52.6791 1571.76 52.6791 Q1569.16 52.6791 1566.32 52.1583 Q1563.51 51.6664 1560.39 50.6537 L1560.39 45.156 Q1563.34 46.6896 1566.21 47.4708 Q1569.07 48.2231 1571.88 48.2231 Q1575.64 48.2231 1577.66 46.95 Q1579.69 45.6479 1579.69 43.3042 Q1579.69 41.134 1578.21 39.9766 Q1576.77 38.8192 1571.82 37.7486 L1569.97 37.3146 Q1565.02 36.273 1562.82 34.1318 Q1560.62 31.9616 1560.62 28.2001 Q1560.62 23.6283 1563.86 21.1399 Q1567.1 18.6515 1573.06 18.6515 Q1576.01 18.6515 1578.62 19.0855 Q1581.22 19.5196 1583.42 20.3876 Z" fill="#000000" fill-rule="nonzero" fill-opacity="1" /><path clip-path="url(#clip470)" d="M1614.3 20.3876 L1614.3 25.4223 Q1612.04 24.2649 1609.61 23.6862 Q1607.18 23.1075 1604.57 23.1075 Q1600.61 23.1075 1598.61 24.3228 Q1596.65 25.5381 1596.65 27.9686 Q1596.65 29.8204 1598.06 30.891 Q1599.48 31.9327 1603.76 32.8876 L1605.59 33.2926 Q1611.26 34.5079 1613.63 36.7359 Q1616.03 38.935 1616.03 42.8991 Q1616.03 47.4129 1612.44 50.046 Q1608.88 52.6791 1602.63 52.6791 Q1600.03 52.6791 1597.19 52.1583 Q1594.39 51.6664 1591.26 50.6537 L1591.26 45.156 Q1594.21 46.6896 1597.08 47.4708 Q1599.94 48.2231 1602.75 48.2231 Q1606.51 48.2231 1608.54 46.95 Q1610.56 45.6479 1610.56 43.3042 Q1610.56 41.134 1609.09 39.9766 Q1607.64 38.8192 1602.69 37.7486 L1600.84 37.3146 Q1595.89 36.273 1593.69 34.1318 Q1591.49 31.9616 1591.49 28.2001 Q1591.49 23.6283 1594.74 21.1399 Q1597.98 18.6515 1603.94 18.6515 Q1606.89 18.6515 1609.49 19.0855 Q1612.1 19.5196 1614.3 20.3876 Z" fill="#000000" fill-rule="nonzero" fill-opacity="1" /><polyline clip-path="url(#clip472)" style="stroke:#009af9; stroke-linecap:round; stroke-linejoin:round; stroke-width:4; stroke-opacity:1; fill:none" points="344.853,143.465 348.76,249.112 352.666,346.477 356.573,435.407 360.48,515.807 364.386,587.643 368.293,650.958 372.2,705.881 376.106,752.638 380.013,791.562 383.92,823.101 387.826,847.82 391.733,866.398 395.64,879.612 399.546,888.322 403.453,893.428 407.36,895.834 411.266,896.404 415.173,895.918 419.08,895.046 422.986,894.327 426.893,894.162 430.8,894.821 434.706,896.451 438.613,899.096 442.519,902.713 446.426,907.193 450.333,912.38 454.239,918.093 458.146,924.135 462.053,930.315 465.959,936.456 469.866,942.401 473.773,948.026 477.679,953.237 481.586,957.974 485.493,962.209 489.399,965.945 493.306,969.21 497.213,972.05 501.119,974.526 505.026,976.709 508.933,978.671 512.839,980.481 516.746,982.201 520.653,983.885 524.559,985.575 528.466,987.298 532.373,989.072 536.279,990.902 540.186,992.782 544.092,994.701 547.999,996.64 551.906,998.579 555.812,1000.5 559.719,1002.37 563.626,1004.19 567.532,1005.94 571.439,1007.61 575.346,1009.2 579.252,1010.7 583.159,1012.13 587.066,1013.49 590.972,1014.79 594.879,1016.04 598.786,1017.26 602.692,1018.45 606.599,1019.62 610.506,1020.78 614.412,1021.93 618.319,1023.09 622.226,1024.24 626.132,1025.39 630.039,1026.53 633.946,1027.68 637.852,1028.81 641.759,1029.93 645.665,1031.05 649.572,1032.14 653.479,1033.23 657.385,1034.3 661.292,1035.36 665.199,1036.41 669.105,1037.45 673.012,1038.48 676.919,1039.51 680.825,1040.54 684.732,1041.57 688.639,1042.59 692.545,1043.63 696.452,1044.66 700.359,1045.7 704.265,1046.74 708.172,1047.78 712.079,1048.83 715.985,1049.88 719.892,1050.93 723.799,1051.98 727.705,1053.04 731.612,1054.09 735.519,1055.16 739.425,1056.22 743.332,1057.29 747.238,1058.37 751.145,1059.45 755.052,1060.53 758.958,1061.62 762.865,1062.72 766.772,1063.83 770.678,1064.94 774.585,1066.06 778.492,1067.18 782.398,1068.32 786.305,1069.46 790.212,1070.6 794.118,1071.76 798.025,1072.92 801.932,1074.09 805.838,1075.27 809.745,1076.45 813.652,1077.65 817.558,1078.85 821.465,1080.06 825.372,1081.27 829.278,1082.5 833.185,1083.73 837.092,1084.98 840.998,1086.23 844.905,1087.49 848.811,1088.76 852.718,1090.03 856.625,1091.32 860.531,1092.62 864.438,1093.92 868.345,1095.23 872.251,1096.55 876.158,1097.88 880.065,1099.22 883.971,1100.57 887.878,1101.93 891.785,1103.29 895.691,1104.67 899.598,1106.05 903.505,1107.44 907.411,1108.84 911.318,1110.25 915.225,1111.67 919.131,1113.1 923.038,1114.53 926.945,1115.98 930.851,1117.43 934.758,1118.89 938.664,1120.36 942.571,1121.84 946.478,1123.32 950.384,1124.82 954.291,1126.32 958.198,1127.83 962.104,1129.34 966.011,1130.87 969.918,1132.4 973.824,1133.94 977.731,1135.49 981.638,1137.05 985.544,1138.61 989.451,1140.18 993.358,1141.75 997.264,1143.34 1001.17,1144.92 1005.08,1146.52 1008.98,1148.12 1012.89,1149.73 1016.8,1151.35 1020.7,1152.97 1024.61,1154.59 1028.52,1156.22 1032.42,1157.86 1036.33,1159.5 1040.24,1161.15 1044.14,1162.8 1048.05,1164.46 1051.96,1166.12 1055.86,1167.78 1059.77,1169.45 1063.68,1171.12 1067.58,1172.8 1071.49,1174.48 1075.4,1176.16 1079.3,1177.85 1083.21,1179.54 1087.12,1181.23 1091.02,1182.92 1094.93,1184.62 1098.84,1186.32 1102.74,1188.02 1106.65,1189.72 1110.56,1191.42 1114.46,1193.13 1118.37,1194.83 1122.28,1196.54 1126.18,1198.24 1130.09,1199.95 1134,1201.66 1137.9,1203.36 1141.81,1205.07 1145.72,1206.78 1149.62,1208.48 1153.53,1210.18 1157.44,1211.89 1161.34,1213.59 1165.25,1215.29 1169.16,1216.98 1173.06,1218.68 1176.97,1220.37 1180.88,1222.06 1184.78,1223.75 1188.69,1225.43 1192.6,1227.11 1196.5,1228.79 1200.41,1230.46 1204.32,1232.13 1208.22,1233.79 1212.13,1235.45 1216.04,1237.11 1219.94,1238.76 1223.85,1240.4 1227.76,1242.04 1231.66,1243.68 1235.57,1245.31 1239.48,1246.93 1243.38,1248.55 1247.29,1250.16 1251.2,1251.76 1255.1,1253.36 1259.01,1254.95 1262.92,1256.53 1266.82,1258.11 1270.73,1259.67 1274.64,1261.23 1278.54,1262.79 1282.45,1264.33 1286.36,1265.87 1290.26,1267.4 1294.17,1268.91 1298.08,1270.42 1301.98,1271.93 1305.89,1273.42 1309.8,1274.9 1313.7,1276.38 1317.61,1277.84 1321.52,1279.29 1325.42,1280.74 1329.33,1282.17 1333.24,1283.6 1337.14,1285.01 1341.05,1286.42 1344.96,1287.81 1348.86,1289.19 1352.77,1290.56 1356.68,1291.93 1360.58,1293.28 1364.49,1294.61 1368.4,1295.94 1372.3,1297.26 1376.21,1298.56 1380.12,1299.86 1384.02,1301.14 1387.93,1302.41 1391.84,1303.67 1395.74,1304.92 1399.65,1306.15 1403.56,1307.38 1407.46,1308.59 1411.37,1309.79 1415.28,1310.98 1419.18,1312.15 1423.09,1313.31 1427,1314.47 1430.9,1315.6 1434.81,1316.73 1438.72,1317.85 1442.62,1318.95 1446.53,1320.04 1450.44,1321.11 1454.34,1322.18 1458.25,1323.23 1462.16,1324.27 1466.06,1325.3 1469.97,1326.32 1473.88,1327.32 1477.78,1328.31 1481.69,1329.29 1485.6,1330.26 1489.5,1331.21 1493.41,1332.15 1497.32,1333.08 1501.22,1334 1505.13,1334.9 1509.04,1335.8 1512.94,1336.68 1516.85,1337.55 1520.76,1338.41 1524.66,1339.25 1528.57,1340.09 1532.48,1340.91 1536.38,1341.72 1540.29,1342.52 1544.2,1343.3 1548.1,1344.08 1552.01,1344.84 1555.92,1345.6 1559.82,1346.34 1563.73,1347.07 1567.64,1347.79 1571.54,1348.5 1575.45,1349.19 1579.36,1349.88 1583.26,1350.55 1587.17,1351.22 1591.08,1351.87 1594.98,1352.52 1598.89,1353.15 1602.8,1353.77 1606.7,1354.39 1610.61,1354.99 1614.52,1355.58 1618.42,1356.16 1622.33,1356.74 1626.24,1357.3 1630.14,1357.85 1634.05,1358.4 1637.96,1358.93 1641.86,1359.46 1645.77,1359.97 1649.68,1360.48 1653.58,1360.98 1657.49,1361.47 1661.4,1361.95 1665.3,1362.42 1669.21,1362.89 1673.12,1363.34 1677.02,1363.79 1680.93,1364.23 1684.84,1364.66 1688.74,1365.08 1692.65,1365.5 1696.56,1365.9 1700.46,1366.3 1704.37,1366.7 1708.28,1367.08 1712.18,1367.46 1716.09,1367.83 1720,1368.19 1723.9,1368.55 1727.81,1368.9 1731.72,1369.24 1735.62,1369.58 1739.53,1369.91 1743.44,1370.23 1747.34,1370.55 1751.25,1370.86 1755.16,1371.16 1759.06,1371.46 1762.97,1371.75 1766.88,1372.04 1770.78,1372.32 1774.69,1372.6 1778.6,1372.87 1782.5,1373.13 1786.41,1373.39 1790.31,1373.65 1794.22,1373.9 1798.13,1374.14 1802.03,1374.38 1805.94,1374.61 1809.85,1374.84 1813.75,1375.07 1817.66,1375.29 1821.57,1375.51 1825.47,1375.72 1829.38,1375.93 1833.29,1376.13 1837.19,1376.33 1841.1,1376.52 1845.01,1376.72 1848.91,1376.9 1852.82,1377.09 1856.73,1377.27 1860.63,1377.44 1864.54,1377.62 1868.45,1377.78 1872.35,1377.95 1876.26,1378.11 1880.17,1378.27 1884.07,1378.43 1887.98,1378.58 1891.89,1378.73 1895.79,1378.88 1899.7,1379.02 1903.61,1379.16 1907.51,1379.3 1911.42,1379.44 1915.33,1379.57 1919.23,1379.7 1923.14,1379.83 1927.05,1379.95 1930.95,1380.08 1934.86,1380.2 1938.77,1380.32 1942.67,1380.43 1946.58,1380.55 1950.49,1380.66 1954.39,1380.77 1958.3,1380.87 1962.21,1380.98 1966.11,1381.08 1970.02,1381.18 1973.93,1381.28 1977.83,1381.38 1981.74,1381.48 1985.65,1381.57 1989.55,1381.66 1993.46,1381.75 1997.37,1381.84 2001.27,1381.93 2005.18,1382.02 2009.09,1382.1 2012.99,1382.18 2016.9,1382.27 2020.81,1382.35 2024.71,1382.42 2028.62,1382.5 2032.53,1382.58 2036.43,1382.65 2040.34,1382.73 2044.25,1382.8 2048.15,1382.87 2052.06,1382.94 2055.97,1383.01 2059.87,1383.08 2063.78,1383.14 2067.69,1383.21 2071.59,1383.28 2075.5,1383.34 2079.41,1383.4 2083.31,1383.46 2087.22,1383.53 2091.13,1383.59 2095.03,1383.64 2098.94,1383.7 2102.85,1383.76 2106.75,1383.82 2110.66,1383.87 2114.57,1383.93 2118.47,1383.98 2122.38,1384.04 2126.29,1384.09 2130.19,1384.14 2134.1,1384.19 2138.01,1384.25 2141.91,1384.3 2145.82,1384.35 2149.73,1384.4 2153.63,1384.44 2157.54,1384.49 2161.45,1384.54 2165.35,1384.59 2169.26,1384.63 2173.17,1384.68 2177.07,1384.72 2180.98,1384.77 2184.89,1384.81 2188.79,1384.86 2192.7,1384.9 2196.61,1384.94 2200.51,1384.99 2204.42,1385.03 2208.33,1385.07 2212.23,1385.11 2216.14,1385.15 2220.05,1385.19 2223.95,1385.24 2227.86,1385.28 2231.77,1385.31 2235.67,1385.35 2239.58,1385.39 2243.49,1385.43 2247.39,1385.47 2251.3,1385.51 2255.21,1385.55 2259.11,1385.58 2263.02,1385.62 2266.93,1385.66 2270.83,1385.69 2274.74,1385.73 2278.65,1385.77 2282.55,1385.8 2286.46,1385.84 2290.37,1385.87 2294.27,1385.91 "/>
</svg>
