<?xml version="1.0" encoding="utf-8"?>
<svg xmlns="http://www.w3.org/2000/svg" xmlns:xlink="http://www.w3.org/1999/xlink" width="600" height="400" viewBox="0 0 2400 1600">
<defs>
  <clipPath id="clip720">
    <rect x="0" y="0" width="2400" height="1600"/>
  </clipPath>
</defs>
<path clip-path="url(#clip720)" d="M0 1600 L2400 1600 L2400 0 L0 0  Z" fill="#ffffff" fill-rule="evenodd" fill-opacity="1"/>
<defs>
  <clipPath id="clip721">
    <rect x="480" y="0" width="1681" height="1600"/>
  </clipPath>
</defs>
<path clip-path="url(#clip720)" d="M257.69 1423.18 L2352.76 1423.18 L2352.76 106.192 L257.69 106.192  Z" fill="#ffffff" fill-rule="evenodd" fill-opacity="1"/>
<defs>
  <clipPath id="clip722">
    <rect x="257" y="106" width="2096" height="1318"/>
  </clipPath>
</defs>
<polyline clip-path="url(#clip722)" style="stroke:#000000; stroke-linecap:round; stroke-linejoin:round; stroke-width:2; stroke-opacity:0.1; fill:none" points="310.374,1423.18 310.374,106.192 "/>
<polyline clip-path="url(#clip722)" style="stroke:#000000; stroke-linecap:round; stroke-linejoin:round; stroke-width:2; stroke-opacity:0.1; fill:none" points="971.403,1423.18 971.403,106.192 "/>
<polyline clip-path="url(#clip722)" style="stroke:#000000; stroke-linecap:round; stroke-linejoin:round; stroke-width:2; stroke-opacity:0.1; fill:none" points="1632.43,1423.18 1632.43,106.192 "/>
<polyline clip-path="url(#clip722)" style="stroke:#000000; stroke-linecap:round; stroke-linejoin:round; stroke-width:2; stroke-opacity:0.1; fill:none" points="2293.46,1423.18 2293.46,106.192 "/>
<polyline clip-path="url(#clip720)" style="stroke:#000000; stroke-linecap:round; stroke-linejoin:round; stroke-width:4; stroke-opacity:1; fill:none" points="257.69,1423.18 2352.76,1423.18 "/>
<polyline clip-path="url(#clip720)" style="stroke:#000000; stroke-linecap:round; stroke-linejoin:round; stroke-width:4; stroke-opacity:1; fill:none" points="310.374,1423.18 310.374,1404.28 "/>
<polyline clip-path="url(#clip720)" style="stroke:#000000; stroke-linecap:round; stroke-linejoin:round; stroke-width:4; stroke-opacity:1; fill:none" points="971.403,1423.18 971.403,1404.28 "/>
<polyline clip-path="url(#clip720)" style="stroke:#000000; stroke-linecap:round; stroke-linejoin:round; stroke-width:4; stroke-opacity:1; fill:none" points="1632.43,1423.18 1632.43,1404.28 "/>
<polyline clip-path="url(#clip720)" style="stroke:#000000; stroke-linecap:round; stroke-linejoin:round; stroke-width:4; stroke-opacity:1; fill:none" points="2293.46,1423.18 2293.46,1404.28 "/>
<path clip-path="url(#clip720)" d="M310.374 1454.1 Q306.763 1454.1 304.934 1457.66 Q303.129 1461.2 303.129 1468.33 Q303.129 1475.44 304.934 1479.01 Q306.763 1482.55 310.374 1482.55 Q314.008 1482.55 315.814 1479.01 Q317.643 1475.44 317.643 1468.33 Q317.643 1461.2 315.814 1457.66 Q314.008 1454.1 310.374 1454.1 M310.374 1450.39 Q316.184 1450.39 319.24 1455 Q322.319 1459.58 322.319 1468.33 Q322.319 1477.06 319.24 1481.67 Q316.184 1486.25 310.374 1486.25 Q304.564 1486.25 301.485 1481.67 Q298.43 1477.06 298.43 1468.33 Q298.43 1459.58 301.485 1455 Q304.564 1450.39 310.374 1450.39 Z" fill="#000000" fill-rule="nonzero" fill-opacity="1" /><path clip-path="url(#clip720)" d="M931.01 1481.64 L938.649 1481.64 L938.649 1455.28 L930.339 1456.95 L930.339 1452.69 L938.603 1451.02 L943.278 1451.02 L943.278 1481.64 L950.917 1481.64 L950.917 1485.58 L931.01 1485.58 L931.01 1481.64 Z" fill="#000000" fill-rule="nonzero" fill-opacity="1" /><path clip-path="url(#clip720)" d="M970.362 1454.1 Q966.751 1454.1 964.922 1457.66 Q963.116 1461.2 963.116 1468.33 Q963.116 1475.44 964.922 1479.01 Q966.751 1482.55 970.362 1482.55 Q973.996 1482.55 975.801 1479.01 Q977.63 1475.44 977.63 1468.33 Q977.63 1461.2 975.801 1457.66 Q973.996 1454.1 970.362 1454.1 M970.362 1450.39 Q976.172 1450.39 979.227 1455 Q982.306 1459.58 982.306 1468.33 Q982.306 1477.06 979.227 1481.67 Q976.172 1486.25 970.362 1486.25 Q964.551 1486.25 961.473 1481.67 Q958.417 1477.06 958.417 1468.33 Q958.417 1459.58 961.473 1455 Q964.551 1450.39 970.362 1450.39 Z" fill="#000000" fill-rule="nonzero" fill-opacity="1" /><path clip-path="url(#clip720)" d="M1000.52 1454.1 Q996.912 1454.1 995.084 1457.66 Q993.278 1461.2 993.278 1468.33 Q993.278 1475.44 995.084 1479.01 Q996.912 1482.55 1000.52 1482.55 Q1004.16 1482.55 1005.96 1479.01 Q1007.79 1475.44 1007.79 1468.33 Q1007.79 1461.2 1005.96 1457.66 Q1004.16 1454.1 1000.52 1454.1 M1000.52 1450.39 Q1006.33 1450.39 1009.39 1455 Q1012.47 1459.58 1012.47 1468.33 Q1012.47 1477.06 1009.39 1481.67 Q1006.33 1486.25 1000.52 1486.25 Q994.713 1486.25 991.635 1481.67 Q988.579 1477.06 988.579 1468.33 Q988.579 1459.58 991.635 1455 Q994.713 1450.39 1000.52 1450.39 Z" fill="#000000" fill-rule="nonzero" fill-opacity="1" /><path clip-path="url(#clip720)" d="M1596.12 1481.64 L1612.44 1481.64 L1612.44 1485.58 L1590.5 1485.58 L1590.5 1481.64 Q1593.16 1478.89 1597.75 1474.26 Q1602.35 1469.61 1603.53 1468.27 Q1605.78 1465.74 1606.66 1464.01 Q1607.56 1462.25 1607.56 1460.56 Q1607.56 1457.8 1605.62 1456.07 Q1603.69 1454.33 1600.59 1454.33 Q1598.39 1454.33 1595.94 1455.09 Q1593.51 1455.86 1590.73 1457.41 L1590.73 1452.69 Q1593.56 1451.55 1596.01 1450.97 Q1598.46 1450.39 1600.5 1450.39 Q1605.87 1450.39 1609.06 1453.08 Q1612.26 1455.77 1612.26 1460.26 Q1612.26 1462.39 1611.45 1464.31 Q1610.66 1466.2 1608.56 1468.8 Q1607.98 1469.47 1604.87 1472.69 Q1601.77 1475.88 1596.12 1481.64 Z" fill="#000000" fill-rule="nonzero" fill-opacity="1" /><path clip-path="url(#clip720)" d="M1632.26 1454.1 Q1628.65 1454.1 1626.82 1457.66 Q1625.01 1461.2 1625.01 1468.33 Q1625.01 1475.44 1626.82 1479.01 Q1628.65 1482.55 1632.26 1482.55 Q1635.89 1482.55 1637.7 1479.01 Q1639.53 1475.44 1639.53 1468.33 Q1639.53 1461.2 1637.7 1457.66 Q1635.89 1454.1 1632.26 1454.1 M1632.26 1450.39 Q1638.07 1450.39 1641.12 1455 Q1644.2 1459.58 1644.2 1468.33 Q1644.2 1477.06 1641.12 1481.67 Q1638.07 1486.25 1632.26 1486.25 Q1626.45 1486.25 1623.37 1481.67 Q1620.31 1477.06 1620.31 1468.33 Q1620.31 1459.58 1623.37 1455 Q1626.45 1450.39 1632.26 1450.39 Z" fill="#000000" fill-rule="nonzero" fill-opacity="1" /><path clip-path="url(#clip720)" d="M1662.42 1454.1 Q1658.81 1454.1 1656.98 1457.66 Q1655.18 1461.2 1655.18 1468.33 Q1655.18 1475.44 1656.98 1479.01 Q1658.81 1482.55 1662.42 1482.55 Q1666.05 1482.55 1667.86 1479.01 Q1669.69 1475.44 1669.69 1468.33 Q1669.69 1461.2 1667.86 1457.66 Q1666.05 1454.1 1662.42 1454.1 M1662.42 1450.39 Q1668.23 1450.39 1671.29 1455 Q1674.37 1459.58 1674.37 1468.33 Q1674.37 1477.06 1671.29 1481.67 Q1668.23 1486.25 1662.42 1486.25 Q1656.61 1486.25 1653.53 1481.67 Q1650.48 1477.06 1650.48 1468.33 Q1650.48 1459.58 1653.53 1455 Q1656.61 1450.39 1662.42 1450.39 Z" fill="#000000" fill-rule="nonzero" fill-opacity="1" /><path clip-path="url(#clip720)" d="M2267.22 1466.95 Q2270.58 1467.66 2272.45 1469.93 Q2274.35 1472.2 2274.35 1475.53 Q2274.35 1480.65 2270.83 1483.45 Q2267.32 1486.25 2260.83 1486.25 Q2258.66 1486.25 2256.34 1485.81 Q2254.05 1485.39 2251.6 1484.54 L2251.6 1480.02 Q2253.54 1481.16 2255.86 1481.74 Q2258.17 1482.32 2260.7 1482.32 Q2265.09 1482.32 2267.39 1480.58 Q2269.7 1478.84 2269.7 1475.53 Q2269.7 1472.48 2267.55 1470.77 Q2265.42 1469.03 2261.6 1469.03 L2257.57 1469.03 L2257.57 1465.19 L2261.78 1465.19 Q2265.23 1465.19 2267.06 1463.82 Q2268.89 1462.43 2268.89 1459.84 Q2268.89 1457.18 2266.99 1455.77 Q2265.12 1454.33 2261.6 1454.33 Q2259.68 1454.33 2257.48 1454.75 Q2255.28 1455.16 2252.64 1456.04 L2252.64 1451.88 Q2255.3 1451.14 2257.62 1450.77 Q2259.95 1450.39 2262.02 1450.39 Q2267.34 1450.39 2270.44 1452.83 Q2273.54 1455.23 2273.54 1459.35 Q2273.54 1462.22 2271.9 1464.21 Q2270.26 1466.18 2267.22 1466.95 Z" fill="#000000" fill-rule="nonzero" fill-opacity="1" /><path clip-path="url(#clip720)" d="M2293.22 1454.1 Q2289.61 1454.1 2287.78 1457.66 Q2285.97 1461.2 2285.97 1468.33 Q2285.97 1475.44 2287.78 1479.01 Q2289.61 1482.55 2293.22 1482.55 Q2296.85 1482.55 2298.66 1479.01 Q2300.49 1475.44 2300.49 1468.33 Q2300.49 1461.2 2298.66 1457.66 Q2296.85 1454.1 2293.22 1454.1 M2293.22 1450.39 Q2299.03 1450.39 2302.08 1455 Q2305.16 1459.58 2305.16 1468.33 Q2305.16 1477.06 2302.08 1481.67 Q2299.03 1486.25 2293.22 1486.25 Q2287.41 1486.25 2284.33 1481.67 Q2281.27 1477.06 2281.27 1468.33 Q2281.27 1459.58 2284.33 1455 Q2287.41 1450.39 2293.22 1450.39 Z" fill="#000000" fill-rule="nonzero" fill-opacity="1" /><path clip-path="url(#clip720)" d="M2323.38 1454.1 Q2319.77 1454.1 2317.94 1457.66 Q2316.14 1461.2 2316.14 1468.33 Q2316.14 1475.44 2317.94 1479.01 Q2319.77 1482.55 2323.38 1482.55 Q2327.01 1482.55 2328.82 1479.01 Q2330.65 1475.44 2330.65 1468.33 Q2330.65 1461.2 2328.82 1457.66 Q2327.01 1454.1 2323.38 1454.1 M2323.38 1450.39 Q2329.19 1450.39 2332.25 1455 Q2335.32 1459.58 2335.32 1468.33 Q2335.32 1477.06 2332.25 1481.67 Q2329.19 1486.25 2323.38 1486.25 Q2317.57 1486.25 2314.49 1481.67 Q2311.44 1477.06 2311.44 1468.33 Q2311.44 1459.58 2314.49 1455 Q2317.57 1450.39 2323.38 1450.39 Z" fill="#000000" fill-rule="nonzero" fill-opacity="1" /><path clip-path="url(#clip720)" d="M1173.37 1532.4 L1179.23 1532.4 L1179.23 1568.04 L1173.37 1568.04 L1173.37 1532.4 M1173.37 1518.52 L1179.23 1518.52 L1179.23 1525.93 L1173.37 1525.93 L1173.37 1518.52 Z" fill="#000000" fill-rule="nonzero" fill-opacity="1" /><path clip-path="url(#clip720)" d="M1197.28 1522.27 L1197.28 1532.4 L1209.34 1532.4 L1209.34 1536.95 L1197.28 1536.95 L1197.28 1556.3 Q1197.28 1560.66 1198.45 1561.9 Q1199.66 1563.14 1203.32 1563.14 L1209.34 1563.14 L1209.34 1568.04 L1203.32 1568.04 Q1196.54 1568.04 1193.97 1565.53 Q1191.39 1562.98 1191.39 1556.3 L1191.39 1536.95 L1187.09 1536.95 L1187.09 1532.4 L1191.39 1532.4 L1191.39 1522.27 L1197.28 1522.27 Z" fill="#000000" fill-rule="nonzero" fill-opacity="1" /><path clip-path="url(#clip720)" d="M1247.53 1548.76 L1247.53 1551.62 L1220.61 1551.62 Q1220.99 1557.67 1224.24 1560.85 Q1227.51 1564 1233.34 1564 Q1236.71 1564 1239.86 1563.17 Q1243.05 1562.35 1246.17 1560.69 L1246.17 1566.23 Q1243.01 1567.57 1239.7 1568.27 Q1236.39 1568.97 1232.99 1568.97 Q1224.46 1568.97 1219.46 1564 Q1214.5 1559.04 1214.5 1550.57 Q1214.5 1541.82 1219.21 1536.69 Q1223.95 1531.54 1231.97 1531.54 Q1239.16 1531.54 1243.33 1536.18 Q1247.53 1540.8 1247.53 1548.76 M1241.68 1547.04 Q1241.61 1542.23 1238.97 1539.37 Q1236.36 1536.5 1232.03 1536.5 Q1227.13 1536.5 1224.17 1539.27 Q1221.24 1542.04 1220.8 1547.07 L1241.68 1547.04 Z" fill="#000000" fill-rule="nonzero" fill-opacity="1" /><path clip-path="url(#clip720)" d="M1277.8 1537.87 Q1276.82 1537.3 1275.64 1537.04 Q1274.49 1536.76 1273.09 1536.76 Q1268.13 1536.76 1265.45 1540 Q1262.81 1543.22 1262.81 1549.27 L1262.81 1568.04 L1256.92 1568.04 L1256.92 1532.4 L1262.81 1532.4 L1262.81 1537.93 Q1264.66 1534.69 1267.62 1533.13 Q1270.58 1531.54 1274.81 1531.54 Q1275.42 1531.54 1276.15 1531.63 Q1276.88 1531.7 1277.77 1531.85 L1277.8 1537.87 Z" fill="#000000" fill-rule="nonzero" fill-opacity="1" /><path clip-path="url(#clip720)" d="M1300.15 1550.12 Q1293.05 1550.12 1290.31 1551.75 Q1287.57 1553.37 1287.57 1557.29 Q1287.57 1560.4 1289.61 1562.25 Q1291.68 1564.07 1295.21 1564.07 Q1300.08 1564.07 1303.01 1560.63 Q1305.97 1557.16 1305.97 1551.43 L1305.97 1550.12 L1300.15 1550.12 M1311.83 1547.71 L1311.83 1568.04 L1305.97 1568.04 L1305.97 1562.63 Q1303.97 1565.88 1300.97 1567.44 Q1297.98 1568.97 1293.65 1568.97 Q1288.18 1568.97 1284.93 1565.91 Q1281.72 1562.82 1281.72 1557.67 Q1281.72 1551.65 1285.73 1548.6 Q1289.77 1545.54 1297.76 1545.54 L1305.97 1545.54 L1305.97 1544.97 Q1305.97 1540.93 1303.3 1538.73 Q1300.66 1536.5 1295.85 1536.5 Q1292.79 1536.5 1289.9 1537.23 Q1287 1537.97 1284.33 1539.43 L1284.33 1534.02 Q1287.54 1532.78 1290.57 1532.17 Q1293.59 1531.54 1296.45 1531.54 Q1304.19 1531.54 1308.01 1535.55 Q1311.83 1539.56 1311.83 1547.71 Z" fill="#000000" fill-rule="nonzero" fill-opacity="1" /><path clip-path="url(#clip720)" d="M1329.68 1522.27 L1329.68 1532.4 L1341.75 1532.4 L1341.75 1536.95 L1329.68 1536.95 L1329.68 1556.3 Q1329.68 1560.66 1330.86 1561.9 Q1332.07 1563.14 1335.73 1563.14 L1341.75 1563.14 L1341.75 1568.04 L1335.73 1568.04 Q1328.95 1568.04 1326.37 1565.53 Q1323.79 1562.98 1323.79 1556.3 L1323.79 1536.95 L1319.5 1536.95 L1319.5 1532.4 L1323.79 1532.4 L1323.79 1522.27 L1329.68 1522.27 Z" fill="#000000" fill-rule="nonzero" fill-opacity="1" /><path clip-path="url(#clip720)" d="M1349.45 1532.4 L1355.31 1532.4 L1355.31 1568.04 L1349.45 1568.04 L1349.45 1532.4 M1349.45 1518.52 L1355.31 1518.52 L1355.31 1525.93 L1349.45 1525.93 L1349.45 1518.52 Z" fill="#000000" fill-rule="nonzero" fill-opacity="1" /><path clip-path="url(#clip720)" d="M1381.37 1536.5 Q1376.66 1536.5 1373.92 1540.19 Q1371.19 1543.85 1371.19 1550.25 Q1371.19 1556.65 1373.89 1560.34 Q1376.63 1564 1381.37 1564 Q1386.05 1564 1388.79 1560.31 Q1391.53 1556.62 1391.53 1550.25 Q1391.53 1543.92 1388.79 1540.23 Q1386.05 1536.5 1381.37 1536.5 M1381.37 1531.54 Q1389.01 1531.54 1393.37 1536.5 Q1397.73 1541.47 1397.73 1550.25 Q1397.73 1559 1393.37 1564 Q1389.01 1568.97 1381.37 1568.97 Q1373.7 1568.97 1369.34 1564 Q1365.01 1559 1365.01 1550.25 Q1365.01 1541.47 1369.34 1536.5 Q1373.7 1531.54 1381.37 1531.54 Z" fill="#000000" fill-rule="nonzero" fill-opacity="1" /><path clip-path="url(#clip720)" d="M1437.07 1546.53 L1437.07 1568.04 L1431.22 1568.04 L1431.22 1546.72 Q1431.22 1541.66 1429.24 1539.14 Q1427.27 1536.63 1423.32 1536.63 Q1418.58 1536.63 1415.84 1539.65 Q1413.11 1542.68 1413.11 1547.9 L1413.11 1568.04 L1407.22 1568.04 L1407.22 1532.4 L1413.11 1532.4 L1413.11 1537.93 Q1415.21 1534.72 1418.04 1533.13 Q1420.9 1531.54 1424.63 1531.54 Q1430.77 1531.54 1433.92 1535.36 Q1437.07 1539.14 1437.07 1546.53 Z" fill="#000000" fill-rule="nonzero" fill-opacity="1" /><polyline clip-path="url(#clip722)" style="stroke:#000000; stroke-linecap:round; stroke-linejoin:round; stroke-width:2; stroke-opacity:0.1; fill:none" points="257.69,1227.23 2352.76,1227.23 "/>
<polyline clip-path="url(#clip722)" style="stroke:#000000; stroke-linecap:round; stroke-linejoin:round; stroke-width:2; stroke-opacity:0.1; fill:none" points="257.69,988.706 2352.76,988.706 "/>
<polyline clip-path="url(#clip722)" style="stroke:#000000; stroke-linecap:round; stroke-linejoin:round; stroke-width:2; stroke-opacity:0.1; fill:none" points="257.69,750.182 2352.76,750.182 "/>
<polyline clip-path="url(#clip722)" style="stroke:#000000; stroke-linecap:round; stroke-linejoin:round; stroke-width:2; stroke-opacity:0.1; fill:none" points="257.69,511.658 2352.76,511.658 "/>
<polyline clip-path="url(#clip722)" style="stroke:#000000; stroke-linecap:round; stroke-linejoin:round; stroke-width:2; stroke-opacity:0.1; fill:none" points="257.69,273.134 2352.76,273.134 "/>
<polyline clip-path="url(#clip720)" style="stroke:#000000; stroke-linecap:round; stroke-linejoin:round; stroke-width:4; stroke-opacity:1; fill:none" points="257.69,1423.18 257.69,106.192 "/>
<polyline clip-path="url(#clip720)" style="stroke:#000000; stroke-linecap:round; stroke-linejoin:round; stroke-width:4; stroke-opacity:1; fill:none" points="257.69,1227.23 276.588,1227.23 "/>
<polyline clip-path="url(#clip720)" style="stroke:#000000; stroke-linecap:round; stroke-linejoin:round; stroke-width:4; stroke-opacity:1; fill:none" points="257.69,988.706 276.588,988.706 "/>
<polyline clip-path="url(#clip720)" style="stroke:#000000; stroke-linecap:round; stroke-linejoin:round; stroke-width:4; stroke-opacity:1; fill:none" points="257.69,750.182 276.588,750.182 "/>
<polyline clip-path="url(#clip720)" style="stroke:#000000; stroke-linecap:round; stroke-linejoin:round; stroke-width:4; stroke-opacity:1; fill:none" points="257.69,511.658 276.588,511.658 "/>
<polyline clip-path="url(#clip720)" style="stroke:#000000; stroke-linecap:round; stroke-linejoin:round; stroke-width:4; stroke-opacity:1; fill:none" points="257.69,273.134 276.588,273.134 "/>
<path clip-path="url(#clip720)" d="M114.26 1227.68 L143.936 1227.68 L143.936 1231.62 L114.26 1231.62 L114.26 1227.68 Z" fill="#000000" fill-rule="nonzero" fill-opacity="1" /><path clip-path="url(#clip720)" d="M164.028 1213.03 Q160.417 1213.03 158.589 1216.59 Q156.783 1220.13 156.783 1227.26 Q156.783 1234.37 158.589 1237.94 Q160.417 1241.48 164.028 1241.48 Q167.663 1241.48 169.468 1237.94 Q171.297 1234.37 171.297 1227.26 Q171.297 1220.13 169.468 1216.59 Q167.663 1213.03 164.028 1213.03 M164.028 1209.32 Q169.839 1209.32 172.894 1213.93 Q175.973 1218.51 175.973 1227.26 Q175.973 1235.99 172.894 1240.6 Q169.839 1245.18 164.028 1245.18 Q158.218 1245.18 155.14 1240.6 Q152.084 1235.99 152.084 1227.26 Q152.084 1218.51 155.14 1213.93 Q158.218 1209.32 164.028 1209.32 Z" fill="#000000" fill-rule="nonzero" fill-opacity="1" /><path clip-path="url(#clip720)" d="M184.19 1238.63 L189.075 1238.63 L189.075 1244.51 L184.19 1244.51 L184.19 1238.63 Z" fill="#000000" fill-rule="nonzero" fill-opacity="1" /><path clip-path="url(#clip720)" d="M212.107 1214.02 L200.301 1232.47 L212.107 1232.47 L212.107 1214.02 M210.88 1209.95 L216.76 1209.95 L216.76 1232.47 L221.69 1232.47 L221.69 1236.36 L216.76 1236.36 L216.76 1244.51 L212.107 1244.51 L212.107 1236.36 L196.505 1236.36 L196.505 1231.85 L210.88 1209.95 Z" fill="#000000" fill-rule="nonzero" fill-opacity="1" /><path clip-path="url(#clip720)" d="M115.394 989.157 L145.07 989.157 L145.07 993.092 L115.394 993.092 L115.394 989.157 Z" fill="#000000" fill-rule="nonzero" fill-opacity="1" /><path clip-path="url(#clip720)" d="M165.163 974.505 Q161.552 974.505 159.723 978.069 Q157.917 981.611 157.917 988.741 Q157.917 995.847 159.723 999.412 Q161.552 1002.95 165.163 1002.95 Q168.797 1002.95 170.602 999.412 Q172.431 995.847 172.431 988.741 Q172.431 981.611 170.602 978.069 Q168.797 974.505 165.163 974.505 M165.163 970.801 Q170.973 970.801 174.028 975.407 Q177.107 979.991 177.107 988.741 Q177.107 997.467 174.028 1002.07 Q170.973 1006.66 165.163 1006.66 Q159.353 1006.66 156.274 1002.07 Q153.218 997.467 153.218 988.741 Q153.218 979.991 156.274 975.407 Q159.353 970.801 165.163 970.801 Z" fill="#000000" fill-rule="nonzero" fill-opacity="1" /><path clip-path="url(#clip720)" d="M185.325 1000.11 L190.209 1000.11 L190.209 1005.99 L185.325 1005.99 L185.325 1000.11 Z" fill="#000000" fill-rule="nonzero" fill-opacity="1" /><path clip-path="url(#clip720)" d="M214.561 987.352 Q217.917 988.069 219.792 990.338 Q221.69 992.606 221.69 995.94 Q221.69 1001.06 218.172 1003.86 Q214.653 1006.66 208.172 1006.66 Q205.996 1006.66 203.681 1006.22 Q201.389 1005.8 198.936 1004.94 L198.936 1000.43 Q200.88 1001.56 203.195 1002.14 Q205.51 1002.72 208.033 1002.72 Q212.431 1002.72 214.723 1000.99 Q217.037 999.25 217.037 995.94 Q217.037 992.884 214.885 991.171 Q212.755 989.435 208.936 989.435 L204.908 989.435 L204.908 985.592 L209.121 985.592 Q212.57 985.592 214.399 984.227 Q216.227 982.838 216.227 980.245 Q216.227 977.583 214.329 976.171 Q212.454 974.736 208.936 974.736 Q207.014 974.736 204.815 975.153 Q202.616 975.569 199.977 976.449 L199.977 972.282 Q202.639 971.542 204.954 971.171 Q207.292 970.801 209.352 970.801 Q214.676 970.801 217.778 973.231 Q220.88 975.639 220.88 979.759 Q220.88 982.629 219.236 984.62 Q217.593 986.588 214.561 987.352 Z" fill="#000000" fill-rule="nonzero" fill-opacity="1" /><path clip-path="url(#clip720)" d="M116.343 750.633 L146.019 750.633 L146.019 754.568 L116.343 754.568 L116.343 750.633 Z" fill="#000000" fill-rule="nonzero" fill-opacity="1" /><path clip-path="url(#clip720)" d="M166.112 735.981 Q162.501 735.981 160.672 739.545 Q158.866 743.087 158.866 750.217 Q158.866 757.323 160.672 760.888 Q162.501 764.43 166.112 764.43 Q169.746 764.43 171.552 760.888 Q173.38 757.323 173.38 750.217 Q173.38 743.087 171.552 739.545 Q169.746 735.981 166.112 735.981 M166.112 732.277 Q171.922 732.277 174.977 736.883 Q178.056 741.467 178.056 750.217 Q178.056 758.943 174.977 763.55 Q171.922 768.133 166.112 768.133 Q160.302 768.133 157.223 763.55 Q154.167 758.943 154.167 750.217 Q154.167 741.467 157.223 736.883 Q160.302 732.277 166.112 732.277 Z" fill="#000000" fill-rule="nonzero" fill-opacity="1" /><path clip-path="url(#clip720)" d="M186.274 761.582 L191.158 761.582 L191.158 767.462 L186.274 767.462 L186.274 761.582 Z" fill="#000000" fill-rule="nonzero" fill-opacity="1" /><path clip-path="url(#clip720)" d="M205.371 763.527 L221.69 763.527 L221.69 767.462 L199.746 767.462 L199.746 763.527 Q202.408 760.772 206.991 756.143 Q211.598 751.49 212.778 750.147 Q215.024 747.624 215.903 745.888 Q216.806 744.129 216.806 742.439 Q216.806 739.684 214.861 737.948 Q212.94 736.212 209.838 736.212 Q207.639 736.212 205.186 736.976 Q202.755 737.74 199.977 739.291 L199.977 734.569 Q202.801 733.434 205.255 732.856 Q207.709 732.277 209.746 732.277 Q215.116 732.277 218.311 734.962 Q221.505 737.647 221.505 742.138 Q221.505 744.268 220.695 746.189 Q219.908 748.087 217.801 750.68 Q217.223 751.351 214.121 754.568 Q211.019 757.763 205.371 763.527 Z" fill="#000000" fill-rule="nonzero" fill-opacity="1" /><path clip-path="url(#clip720)" d="M115.973 512.109 L145.649 512.109 L145.649 516.045 L115.973 516.045 L115.973 512.109 Z" fill="#000000" fill-rule="nonzero" fill-opacity="1" /><path clip-path="url(#clip720)" d="M165.741 497.457 Q162.13 497.457 160.302 501.021 Q158.496 504.563 158.496 511.693 Q158.496 518.799 160.302 522.364 Q162.13 525.906 165.741 525.906 Q169.376 525.906 171.181 522.364 Q173.01 518.799 173.01 511.693 Q173.01 504.563 171.181 501.021 Q169.376 497.457 165.741 497.457 M165.741 493.753 Q171.552 493.753 174.607 498.359 Q177.686 502.943 177.686 511.693 Q177.686 520.42 174.607 525.026 Q171.552 529.609 165.741 529.609 Q159.931 529.609 156.853 525.026 Q153.797 520.42 153.797 511.693 Q153.797 502.943 156.853 498.359 Q159.931 493.753 165.741 493.753 Z" fill="#000000" fill-rule="nonzero" fill-opacity="1" /><path clip-path="url(#clip720)" d="M185.903 523.058 L190.788 523.058 L190.788 528.938 L185.903 528.938 L185.903 523.058 Z" fill="#000000" fill-rule="nonzero" fill-opacity="1" /><path clip-path="url(#clip720)" d="M201.783 525.003 L209.422 525.003 L209.422 498.637 L201.112 500.304 L201.112 496.045 L209.375 494.378 L214.051 494.378 L214.051 525.003 L221.69 525.003 L221.69 528.938 L201.783 528.938 L201.783 525.003 Z" fill="#000000" fill-rule="nonzero" fill-opacity="1" /><path clip-path="url(#clip720)" d="M164.515 258.933 Q160.903 258.933 159.075 262.498 Q157.269 266.039 157.269 273.169 Q157.269 280.275 159.075 283.84 Q160.903 287.382 164.515 287.382 Q168.149 287.382 169.954 283.84 Q171.783 280.275 171.783 273.169 Q171.783 266.039 169.954 262.498 Q168.149 258.933 164.515 258.933 M164.515 255.229 Q170.325 255.229 173.38 259.836 Q176.459 264.419 176.459 273.169 Q176.459 281.896 173.38 286.502 Q170.325 291.085 164.515 291.085 Q158.704 291.085 155.626 286.502 Q152.57 281.896 152.57 273.169 Q152.57 264.419 155.626 259.836 Q158.704 255.229 164.515 255.229 Z" fill="#000000" fill-rule="nonzero" fill-opacity="1" /><path clip-path="url(#clip720)" d="M184.676 284.534 L189.561 284.534 L189.561 290.414 L184.676 290.414 L184.676 284.534 Z" fill="#000000" fill-rule="nonzero" fill-opacity="1" /><path clip-path="url(#clip720)" d="M209.746 258.933 Q206.135 258.933 204.306 262.498 Q202.5 266.039 202.5 273.169 Q202.5 280.275 204.306 283.84 Q206.135 287.382 209.746 287.382 Q213.38 287.382 215.186 283.84 Q217.014 280.275 217.014 273.169 Q217.014 266.039 215.186 262.498 Q213.38 258.933 209.746 258.933 M209.746 255.229 Q215.556 255.229 218.611 259.836 Q221.69 264.419 221.69 273.169 Q221.69 281.896 218.611 286.502 Q215.556 291.085 209.746 291.085 Q203.936 291.085 200.857 286.502 Q197.801 281.896 197.801 273.169 Q197.801 264.419 200.857 259.836 Q203.936 255.229 209.746 255.229 Z" fill="#000000" fill-rule="nonzero" fill-opacity="1" /><path clip-path="url(#clip720)" d="M44.7161 808.753 L47.5806 808.753 L47.5806 835.68 Q53.6281 835.298 56.8109 832.051 Q59.9619 828.773 59.9619 822.948 Q59.9619 819.574 59.1344 816.423 Q58.3069 813.24 56.6518 810.121 L62.1899 810.121 Q63.5267 813.272 64.227 816.582 Q64.9272 819.893 64.9272 823.298 Q64.9272 831.828 59.9619 836.825 Q54.9967 841.791 46.5303 841.791 Q37.7774 841.791 32.6531 837.08 Q27.4968 832.338 27.4968 824.317 Q27.4968 817.123 32.1438 812.954 Q36.7589 808.753 44.7161 808.753 M42.9973 814.609 Q38.1912 814.673 35.3266 817.314 Q32.4621 819.924 32.4621 824.253 Q32.4621 829.155 35.2312 832.115 Q38.0002 835.043 43.0292 835.489 L42.9973 814.609 Z" fill="#000000" fill-rule="nonzero" fill-opacity="1" /><path clip-path="url(#clip720)" d="M33.8307 778.484 Q33.2578 779.47 33.0032 780.648 Q32.7167 781.794 32.7167 783.194 Q32.7167 788.16 35.9632 790.833 Q39.1779 793.475 45.2253 793.475 L64.0042 793.475 L64.0042 799.363 L28.3562 799.363 L28.3562 793.475 L33.8944 793.475 Q30.6479 791.629 29.0883 788.669 Q27.4968 785.709 27.4968 781.476 Q27.4968 780.871 27.5923 780.139 Q27.656 779.407 27.8151 778.515 L33.8307 778.484 Z" fill="#000000" fill-rule="nonzero" fill-opacity="1" /><path clip-path="url(#clip720)" d="M33.8307 752.83 Q33.2578 753.817 33.0032 754.994 Q32.7167 756.14 32.7167 757.54 Q32.7167 762.506 35.9632 765.179 Q39.1779 767.821 45.2253 767.821 L64.0042 767.821 L64.0042 773.709 L28.3562 773.709 L28.3562 767.821 L33.8944 767.821 Q30.6479 765.975 29.0883 763.015 Q27.4968 760.055 27.4968 755.822 Q27.4968 755.217 27.5923 754.485 Q27.656 753.753 27.8151 752.862 L33.8307 752.83 Z" fill="#000000" fill-rule="nonzero" fill-opacity="1" /><path clip-path="url(#clip720)" d="M32.4621 734.306 Q32.4621 739.016 36.1542 741.754 Q39.8145 744.491 46.212 744.491 Q52.6095 744.491 56.3017 741.785 Q59.9619 739.048 59.9619 734.306 Q59.9619 729.627 56.2698 726.89 Q52.5777 724.152 46.212 724.152 Q39.8781 724.152 36.186 726.89 Q32.4621 729.627 32.4621 734.306 M27.4968 734.306 Q27.4968 726.667 32.4621 722.306 Q37.4273 717.946 46.212 717.946 Q54.9649 717.946 59.9619 722.306 Q64.9272 726.667 64.9272 734.306 Q64.9272 741.976 59.9619 746.337 Q54.9649 750.666 46.212 750.666 Q37.4273 750.666 32.4621 746.337 Q27.4968 741.976 27.4968 734.306 Z" fill="#000000" fill-rule="nonzero" fill-opacity="1" /><path clip-path="url(#clip720)" d="M33.8307 687.581 Q33.2578 688.568 33.0032 689.746 Q32.7167 690.892 32.7167 692.292 Q32.7167 697.257 35.9632 699.931 Q39.1779 702.573 45.2253 702.573 L64.0042 702.573 L64.0042 708.461 L28.3562 708.461 L28.3562 702.573 L33.8944 702.573 Q30.6479 700.727 29.0883 697.766 Q27.4968 694.806 27.4968 690.573 Q27.4968 689.969 27.5923 689.236 Q27.656 688.504 27.8151 687.613 L33.8307 687.581 Z" fill="#000000" fill-rule="nonzero" fill-opacity="1" /><path clip-path="url(#clip720)" d="M1008.75 8.64 L1036.07 8.64 L1036.07 13.559 L1014.6 13.559 L1014.6 26.3482 L1035.17 26.3482 L1035.17 31.2672 L1014.6 31.2672 L1014.6 46.921 L1036.59 46.921 L1036.59 51.84 L1008.75 51.84 L1008.75 8.64 Z" fill="#000000" fill-rule="nonzero" fill-opacity="1" /><path clip-path="url(#clip720)" d="M1042.15 19.4328 L1047.79 19.4328 L1057.92 46.6317 L1068.04 19.4328 L1073.68 19.4328 L1061.53 51.84 L1054.3 51.84 L1042.15 19.4328 Z" fill="#000000" fill-rule="nonzero" fill-opacity="1" /><path clip-path="url(#clip720)" d="M1093.59 23.1654 Q1089.31 23.1654 1086.82 26.5218 Q1084.33 29.8494 1084.33 35.6653 Q1084.33 41.4813 1086.79 44.8377 Q1089.28 48.1653 1093.59 48.1653 Q1097.85 48.1653 1100.33 44.8088 Q1102.82 41.4523 1102.82 35.6653 Q1102.82 29.9072 1100.33 26.5508 Q1097.85 23.1654 1093.59 23.1654 M1093.59 18.6515 Q1100.54 18.6515 1104.5 23.1654 Q1108.46 27.6792 1108.46 35.6653 Q1108.46 43.6225 1104.5 48.1653 Q1100.54 52.6791 1093.59 52.6791 Q1086.62 52.6791 1082.65 48.1653 Q1078.72 43.6225 1078.72 35.6653 Q1078.72 27.6792 1082.65 23.1654 Q1086.62 18.6515 1093.59 18.6515 Z" fill="#000000" fill-rule="nonzero" fill-opacity="1" /><path clip-path="url(#clip720)" d="M1117.29 6.81709 L1122.61 6.81709 L1122.61 51.84 L1117.29 51.84 L1117.29 6.81709 Z" fill="#000000" fill-rule="nonzero" fill-opacity="1" /><path clip-path="url(#clip720)" d="M1133.2 39.0507 L1133.2 19.4328 L1138.53 19.4328 L1138.53 38.8482 Q1138.53 43.4488 1140.32 45.7636 Q1142.12 48.0495 1145.7 48.0495 Q1150.02 48.0495 1152.5 45.3007 Q1155.02 42.5519 1155.02 37.8065 L1155.02 19.4328 L1160.35 19.4328 L1160.35 51.84 L1155.02 51.84 L1155.02 46.8632 Q1153.08 49.8145 1150.51 51.2613 Q1147.96 52.6791 1144.58 52.6791 Q1138.99 52.6791 1136.1 49.2069 Q1133.2 45.7347 1133.2 39.0507 M1146.6 18.6515 L1146.6 18.6515 Z" fill="#000000" fill-rule="nonzero" fill-opacity="1" /><path clip-path="url(#clip720)" d="M1176.58 10.2314 L1176.58 19.4328 L1187.54 19.4328 L1187.54 23.5705 L1176.58 23.5705 L1176.58 41.163 Q1176.58 45.1271 1177.65 46.2555 Q1178.75 47.384 1182.08 47.384 L1187.54 47.384 L1187.54 51.84 L1182.08 51.84 Q1175.91 51.84 1173.57 49.5541 Q1171.22 47.2393 1171.22 41.163 L1171.22 23.5705 L1167.32 23.5705 L1167.32 19.4328 L1171.22 19.4328 L1171.22 10.2314 L1176.58 10.2314 Z" fill="#000000" fill-rule="nonzero" fill-opacity="1" /><path clip-path="url(#clip720)" d="M1194.55 19.4328 L1199.87 19.4328 L1199.87 51.84 L1194.55 51.84 L1194.55 19.4328 M1194.55 6.81709 L1199.87 6.81709 L1199.87 13.559 L1194.55 13.559 L1194.55 6.81709 Z" fill="#000000" fill-rule="nonzero" fill-opacity="1" /><path clip-path="url(#clip720)" d="M1223.57 23.1654 Q1219.29 23.1654 1216.8 26.5218 Q1214.31 29.8494 1214.31 35.6653 Q1214.31 41.4813 1216.77 44.8377 Q1219.26 48.1653 1223.57 48.1653 Q1227.82 48.1653 1230.31 44.8088 Q1232.8 41.4523 1232.8 35.6653 Q1232.8 29.9072 1230.31 26.5508 Q1227.82 23.1654 1223.57 23.1654 M1223.57 18.6515 Q1230.51 18.6515 1234.48 23.1654 Q1238.44 27.6792 1238.44 35.6653 Q1238.44 43.6225 1234.48 48.1653 Q1230.51 52.6791 1223.57 52.6791 Q1216.6 52.6791 1212.63 48.1653 Q1208.7 43.6225 1208.7 35.6653 Q1208.7 27.6792 1212.63 23.1654 Q1216.6 18.6515 1223.57 18.6515 Z" fill="#000000" fill-rule="nonzero" fill-opacity="1" /><path clip-path="url(#clip720)" d="M1274.2 32.2799 L1274.2 51.84 L1268.88 51.84 L1268.88 32.4535 Q1268.88 27.8529 1267.09 25.567 Q1265.29 23.2811 1261.7 23.2811 Q1257.39 23.2811 1254.91 26.03 Q1252.42 28.7788 1252.42 33.5241 L1252.42 51.84 L1247.06 51.84 L1247.06 19.4328 L1252.42 19.4328 L1252.42 24.4675 Q1254.33 21.545 1256.9 20.0983 Q1259.51 18.6515 1262.89 18.6515 Q1268.48 18.6515 1271.34 22.1237 Q1274.2 25.567 1274.2 32.2799 Z" fill="#000000" fill-rule="nonzero" fill-opacity="1" /><path clip-path="url(#clip720)" d="M1316.22 23.1654 Q1311.94 23.1654 1309.45 26.5218 Q1306.96 29.8494 1306.96 35.6653 Q1306.96 41.4813 1309.42 44.8377 Q1311.91 48.1653 1316.22 48.1653 Q1320.47 48.1653 1322.96 44.8088 Q1325.45 41.4523 1325.45 35.6653 Q1325.45 29.9072 1322.96 26.5508 Q1320.47 23.1654 1316.22 23.1654 M1316.22 18.6515 Q1323.16 18.6515 1327.13 23.1654 Q1331.09 27.6792 1331.09 35.6653 Q1331.09 43.6225 1327.13 48.1653 Q1323.16 52.6791 1316.22 52.6791 Q1309.24 52.6791 1305.28 48.1653 Q1301.35 43.6225 1301.35 35.6653 Q1301.35 27.6792 1305.28 23.1654 Q1309.24 18.6515 1316.22 18.6515 Z" fill="#000000" fill-rule="nonzero" fill-opacity="1" /><path clip-path="url(#clip720)" d="M1356.32 6.81709 L1356.32 11.2442 L1351.23 11.2442 Q1348.37 11.2442 1347.24 12.4016 Q1346.14 13.559 1346.14 16.5682 L1346.14 19.4328 L1354.9 19.4328 L1354.9 23.5705 L1346.14 23.5705 L1346.14 51.84 L1340.78 51.84 L1340.78 23.5705 L1335.69 23.5705 L1335.69 19.4328 L1340.78 19.4328 L1340.78 17.1758 Q1340.78 11.765 1343.3 9.30551 Q1345.82 6.81709 1351.29 6.81709 L1356.32 6.81709 Z" fill="#000000" fill-rule="nonzero" fill-opacity="1" /><path clip-path="url(#clip720)" d="M1384.88 10.2314 L1384.88 19.4328 L1395.85 19.4328 L1395.85 23.5705 L1384.88 23.5705 L1384.88 41.163 Q1384.88 45.1271 1385.95 46.2555 Q1387.05 47.384 1390.38 47.384 L1395.85 47.384 L1395.85 51.84 L1390.38 51.84 Q1384.22 51.84 1381.87 49.5541 Q1379.53 47.2393 1379.53 41.163 L1379.53 23.5705 L1375.62 23.5705 L1375.62 19.4328 L1379.53 19.4328 L1379.53 10.2314 L1384.88 10.2314 Z" fill="#000000" fill-rule="nonzero" fill-opacity="1" /><path clip-path="url(#clip720)" d="M1429.79 32.2799 L1429.79 51.84 L1424.46 51.84 L1424.46 32.4535 Q1424.46 27.8529 1422.67 25.567 Q1420.88 23.2811 1417.29 23.2811 Q1412.98 23.2811 1410.49 26.03 Q1408 28.7788 1408 33.5241 L1408 51.84 L1402.65 51.84 L1402.65 6.81709 L1408 6.81709 L1408 24.4675 Q1409.91 21.545 1412.49 20.0983 Q1415.09 18.6515 1418.47 18.6515 Q1424.06 18.6515 1426.92 22.1237 Q1429.79 25.567 1429.79 32.2799 Z" fill="#000000" fill-rule="nonzero" fill-opacity="1" /><path clip-path="url(#clip720)" d="M1468.13 34.3054 L1468.13 36.9095 L1443.65 36.9095 Q1444 42.4072 1446.95 45.3007 Q1449.93 48.1653 1455.22 48.1653 Q1458.29 48.1653 1461.15 47.4129 Q1464.05 46.6606 1466.88 45.156 L1466.88 50.1907 Q1464.02 51.406 1461.01 52.0425 Q1458 52.6791 1454.9 52.6791 Q1447.15 52.6791 1442.61 48.1653 Q1438.09 43.6514 1438.09 35.9547 Q1438.09 27.9975 1442.38 23.339 Q1446.69 18.6515 1453.98 18.6515 Q1460.52 18.6515 1464.31 22.876 Q1468.13 27.0716 1468.13 34.3054 M1462.8 32.7429 Q1462.75 28.3737 1460.34 25.7695 Q1457.97 23.1654 1454.04 23.1654 Q1449.58 23.1654 1446.89 25.6827 Q1444.23 28.2001 1443.82 32.7718 L1462.8 32.7429 Z" fill="#000000" fill-rule="nonzero" fill-opacity="1" /><path clip-path="url(#clip720)" d="M1495.7 6.81709 L1501.03 6.81709 L1501.03 51.84 L1495.7 51.84 L1495.7 6.81709 Z" fill="#000000" fill-rule="nonzero" fill-opacity="1" /><path clip-path="url(#clip720)" d="M1524.72 23.1654 Q1520.44 23.1654 1517.95 26.5218 Q1515.46 29.8494 1515.46 35.6653 Q1515.46 41.4813 1517.92 44.8377 Q1520.41 48.1653 1524.72 48.1653 Q1528.98 48.1653 1531.47 44.8088 Q1533.95 41.4523 1533.95 35.6653 Q1533.95 29.9072 1531.47 26.5508 Q1528.98 23.1654 1524.72 23.1654 M1524.72 18.6515 Q1531.67 18.6515 1535.63 23.1654 Q1539.6 27.6792 1539.6 35.6653 Q1539.6 43.6225 1535.63 48.1653 Q1531.67 52.6791 1524.72 52.6791 Q1517.75 52.6791 1513.79 48.1653 Q1509.85 43.6225 1509.85 35.6653 Q1509.85 27.6792 1513.79 23.1654 Q1517.75 18.6515 1524.72 18.6515 Z" fill="#000000" fill-rule="nonzero" fill-opacity="1" /><path clip-path="url(#clip720)" d="M1569.08 20.3876 L1569.08 25.4223 Q1566.82 24.2649 1564.39 23.6862 Q1561.96 23.1075 1559.36 23.1075 Q1555.4 23.1075 1553.4 24.3228 Q1551.43 25.5381 1551.43 27.9686 Q1551.43 29.8204 1552.85 30.891 Q1554.27 31.9327 1558.55 32.8876 L1560.37 33.2926 Q1566.04 34.5079 1568.42 36.7359 Q1570.82 38.935 1570.82 42.8991 Q1570.82 47.4129 1567.23 50.046 Q1563.67 52.6791 1557.42 52.6791 Q1554.82 52.6791 1551.98 52.1583 Q1549.17 51.6664 1546.05 50.6537 L1546.05 45.156 Q1549 46.6896 1551.87 47.4708 Q1554.73 48.2231 1557.54 48.2231 Q1561.3 48.2231 1563.32 46.95 Q1565.35 45.6479 1565.35 43.3042 Q1565.35 41.134 1563.87 39.9766 Q1562.43 38.8192 1557.48 37.7486 L1555.63 37.3146 Q1550.68 36.273 1548.48 34.1318 Q1546.28 31.9616 1546.28 28.2001 Q1546.28 23.6283 1549.52 21.1399 Q1552.76 18.6515 1558.72 18.6515 Q1561.67 18.6515 1564.28 19.0855 Q1566.88 19.5196 1569.08 20.3876 Z" fill="#000000" fill-rule="nonzero" fill-opacity="1" /><path clip-path="url(#clip720)" d="M1599.96 20.3876 L1599.96 25.4223 Q1597.7 24.2649 1595.27 23.6862 Q1592.84 23.1075 1590.23 23.1075 Q1586.27 23.1075 1584.27 24.3228 Q1582.3 25.5381 1582.3 27.9686 Q1582.3 29.8204 1583.72 30.891 Q1585.14 31.9327 1589.42 32.8876 L1591.25 33.2926 Q1596.92 34.5079 1599.29 36.7359 Q1601.69 38.935 1601.69 42.8991 Q1601.69 47.4129 1598.1 50.046 Q1594.54 52.6791 1588.29 52.6791 Q1585.69 52.6791 1582.85 52.1583 Q1580.05 51.6664 1576.92 50.6537 L1576.92 45.156 Q1579.87 46.6896 1582.74 47.4708 Q1585.6 48.2231 1588.41 48.2231 Q1592.17 48.2231 1594.2 46.95 Q1596.22 45.6479 1596.22 43.3042 Q1596.22 41.134 1594.75 39.9766 Q1593.3 38.8192 1588.35 37.7486 L1586.5 37.3146 Q1581.55 36.273 1579.35 34.1318 Q1577.15 31.9616 1577.15 28.2001 Q1577.15 23.6283 1580.4 21.1399 Q1583.64 18.6515 1589.6 18.6515 Q1592.55 18.6515 1595.15 19.0855 Q1597.76 19.5196 1599.96 20.3876 Z" fill="#000000" fill-rule="nonzero" fill-opacity="1" /><polyline clip-path="url(#clip722)" style="stroke:#009af9; stroke-linecap:round; stroke-linejoin:round; stroke-width:4; stroke-opacity:1; fill:none" points="316.984,143.465 323.595,172.586 330.205,201.025 336.815,228.706 343.426,255.557 350.036,281.51 356.646,306.504 363.256,330.486 369.867,353.415 376.477,375.263 383.087,396.017 389.698,415.679 396.308,434.263 402.918,451.793 409.529,468.299 416.139,483.812 422.749,498.366 429.359,511.995 435.97,524.734 442.58,536.624 449.19,547.713 455.801,558.054 462.411,567.707 469.021,576.739 475.631,585.217 482.242,593.207 488.852,600.774 495.462,607.975 502.073,614.866 508.683,621.495 515.293,627.909 521.903,634.148 528.514,640.25 535.124,646.248 541.734,652.171 548.345,658.041 554.955,663.878 561.565,669.696 568.176,675.507 574.786,681.322 581.396,687.152 588.006,693.005 594.617,698.888 601.227,704.808 607.837,710.767 614.448,716.769 621.058,722.816 627.668,728.909 634.278,735.052 640.889,741.245 647.499,747.492 654.109,753.795 660.72,760.156 667.33,766.574 673.94,773.051 680.55,779.586 687.161,786.179 693.771,792.827 700.381,799.531 706.992,806.287 713.602,813.094 720.212,819.947 726.823,826.845 733.433,833.783 740.043,840.761 746.653,847.774 753.264,854.821 759.874,861.9 766.484,869.007 773.095,876.141 779.705,883.299 786.315,890.479 792.925,897.68 799.536,904.897 806.146,912.129 812.756,919.373 819.367,926.625 825.977,933.883 832.587,941.143 839.197,948.402 845.808,955.655 852.418,962.901 859.028,970.135 865.639,977.353 872.249,984.553 878.859,991.731 885.47,998.884 892.08,1006.01 898.69,1013.1 905.3,1020.16 911.911,1027.18 918.521,1034.17 925.131,1041.11 931.742,1048 938.352,1054.85 944.962,1061.64 951.572,1068.38 958.183,1075.07 964.793,1081.7 971.403,1088.26 978.014,1094.77 984.624,1101.21 991.234,1107.58 997.844,1113.88 1004.45,1120.12 1011.07,1126.27 1017.68,1132.36 1024.29,1138.36 1030.9,1144.29 1037.51,1150.14 1044.12,1155.91 1050.73,1161.59 1057.34,1167.19 1063.95,1172.7 1070.56,1178.13 1077.17,1183.47 1083.78,1188.72 1090.39,1193.88 1097,1198.95 1103.61,1203.93 1110.22,1208.82 1116.83,1213.62 1123.44,1218.32 1130.05,1222.93 1136.66,1227.46 1143.27,1231.89 1149.88,1236.22 1156.49,1240.47 1163.1,1244.62 1169.71,1248.68 1176.32,1252.65 1182.93,1256.53 1189.54,1260.32 1196.15,1264.02 1202.76,1267.63 1209.37,1271.16 1215.98,1274.59 1222.59,1277.94 1229.2,1281.21 1235.81,1284.39 1242.43,1287.48 1249.04,1290.49 1255.65,1293.43 1262.26,1296.28 1268.87,1299.05 1275.48,1301.74 1282.09,1304.36 1288.7,1306.9 1295.31,1309.36 1301.92,1311.76 1308.53,1314.08 1315.14,1316.33 1321.75,1318.51 1328.36,1320.63 1334.97,1322.67 1341.58,1324.66 1348.19,1326.58 1354.8,1328.43 1361.41,1330.23 1368.02,1331.97 1374.63,1333.65 1381.24,1335.27 1387.85,1336.84 1394.46,1338.35 1401.07,1339.81 1407.68,1341.23 1414.29,1342.59 1420.9,1343.9 1427.51,1345.17 1434.12,1346.39 1440.73,1347.57 1447.34,1348.71 1453.95,1349.81 1460.56,1350.86 1467.18,1351.88 1473.79,1352.86 1480.4,1353.81 1487.01,1354.72 1493.62,1355.59 1500.23,1356.44 1506.84,1357.25 1513.45,1358.03 1520.06,1358.79 1526.67,1359.51 1533.28,1360.21 1539.89,1360.88 1546.5,1361.53 1553.11,1362.16 1559.72,1362.76 1566.33,1363.34 1572.94,1363.9 1579.55,1364.44 1586.16,1364.96 1592.77,1365.46 1599.38,1365.94 1605.99,1366.41 1612.6,1366.86 1619.21,1367.3 1625.82,1367.72 1632.43,1368.12 1639.04,1368.51 1645.65,1368.89 1652.26,1369.26 1658.87,1369.62 1665.48,1369.96 1672.09,1370.29 1678.7,1370.62 1685.31,1370.93 1691.93,1371.23 1698.54,1371.53 1705.15,1371.82 1711.76,1372.1 1718.37,1372.37 1724.98,1372.63 1731.59,1372.89 1738.2,1373.14 1744.81,1373.39 1751.42,1373.62 1758.03,1373.86 1764.64,1374.09 1771.25,1374.31 1777.86,1374.53 1784.47,1374.74 1791.08,1374.95 1797.69,1375.15 1804.3,1375.35 1810.91,1375.55 1817.52,1375.74 1824.13,1375.93 1830.74,1376.12 1837.35,1376.3 1843.96,1376.49 1850.57,1376.66 1857.18,1376.84 1863.79,1377.01 1870.4,1377.18 1877.01,1377.35 1883.62,1377.52 1890.23,1377.68 1896.84,1377.84 1903.45,1378 1910.06,1378.16 1916.67,1378.32 1923.29,1378.47 1929.9,1378.62 1936.51,1378.78 1943.12,1378.93 1949.73,1379.08 1956.34,1379.22 1962.95,1379.37 1969.56,1379.51 1976.17,1379.66 1982.78,1379.8 1989.39,1379.94 1996,1380.09 2002.61,1380.23 2009.22,1380.37 2015.83,1380.5 2022.44,1380.64 2029.05,1380.78 2035.66,1380.91 2042.27,1381.05 2048.88,1381.19 2055.49,1381.32 2062.1,1381.45 2068.71,1381.59 2075.32,1381.72 2081.93,1381.85 2088.54,1381.98 2095.15,1382.11 2101.76,1382.24 2108.37,1382.37 2114.98,1382.5 2121.59,1382.63 2128.2,1382.76 2134.81,1382.89 2141.42,1383.02 2148.04,1383.15 2154.65,1383.27 2161.26,1383.4 2167.87,1383.53 2174.48,1383.65 2181.09,1383.78 2187.7,1383.91 2194.31,1384.03 2200.92,1384.16 2207.53,1384.28 2214.14,1384.41 2220.75,1384.54 2227.36,1384.66 2233.97,1384.79 2240.58,1384.91 2247.19,1385.04 2253.8,1385.16 2260.41,1385.28 2267.02,1385.41 2273.63,1385.53 2280.24,1385.66 2286.85,1385.78 2293.46,1385.91 "/>
</svg>
