<?xml version="1.0" encoding="utf-8"?>
<svg xmlns="http://www.w3.org/2000/svg" xmlns:xlink="http://www.w3.org/1999/xlink" width="600" height="400" viewBox="0 0 2400 1600">
<defs>
  <clipPath id="clip580">
    <rect x="0" y="0" width="2400" height="1600"/>
  </clipPath>
</defs>
<path clip-path="url(#clip580)" d="M0 1600 L2400 1600 L2400 0 L0 0  Z" fill="#ffffff" fill-rule="evenodd" fill-opacity="1"/>
<defs>
  <clipPath id="clip581">
    <rect x="480" y="0" width="1681" height="1600"/>
  </clipPath>
</defs>
<path clip-path="url(#clip580)" d="M257.69 1423.18 L2352.76 1423.18 L2352.76 106.192 L257.69 106.192  Z" fill="#ffffff" fill-rule="evenodd" fill-opacity="1"/>
<defs>
  <clipPath id="clip582">
    <rect x="257" y="106" width="2096" height="1318"/>
  </clipPath>
</defs>
<polyline clip-path="url(#clip582)" style="stroke:#000000; stroke-linecap:round; stroke-linejoin:round; stroke-width:2; stroke-opacity:0.1; fill:none" points="313.024,1423.18 313.024,106.192 "/>
<polyline clip-path="url(#clip582)" style="stroke:#000000; stroke-linecap:round; stroke-linejoin:round; stroke-width:2; stroke-opacity:0.1; fill:none" points="709.111,1423.18 709.111,106.192 "/>
<polyline clip-path="url(#clip582)" style="stroke:#000000; stroke-linecap:round; stroke-linejoin:round; stroke-width:2; stroke-opacity:0.1; fill:none" points="1105.2,1423.18 1105.2,106.192 "/>
<polyline clip-path="url(#clip582)" style="stroke:#000000; stroke-linecap:round; stroke-linejoin:round; stroke-width:2; stroke-opacity:0.1; fill:none" points="1501.29,1423.18 1501.29,106.192 "/>
<polyline clip-path="url(#clip582)" style="stroke:#000000; stroke-linecap:round; stroke-linejoin:round; stroke-width:2; stroke-opacity:0.1; fill:none" points="1897.37,1423.18 1897.37,106.192 "/>
<polyline clip-path="url(#clip582)" style="stroke:#000000; stroke-linecap:round; stroke-linejoin:round; stroke-width:2; stroke-opacity:0.1; fill:none" points="2293.46,1423.18 2293.46,106.192 "/>
<polyline clip-path="url(#clip580)" style="stroke:#000000; stroke-linecap:round; stroke-linejoin:round; stroke-width:4; stroke-opacity:1; fill:none" points="257.69,1423.18 2352.76,1423.18 "/>
<polyline clip-path="url(#clip580)" style="stroke:#000000; stroke-linecap:round; stroke-linejoin:round; stroke-width:4; stroke-opacity:1; fill:none" points="313.024,1423.18 313.024,1404.28 "/>
<polyline clip-path="url(#clip580)" style="stroke:#000000; stroke-linecap:round; stroke-linejoin:round; stroke-width:4; stroke-opacity:1; fill:none" points="709.111,1423.18 709.111,1404.28 "/>
<polyline clip-path="url(#clip580)" style="stroke:#000000; stroke-linecap:round; stroke-linejoin:round; stroke-width:4; stroke-opacity:1; fill:none" points="1105.2,1423.18 1105.2,1404.28 "/>
<polyline clip-path="url(#clip580)" style="stroke:#000000; stroke-linecap:round; stroke-linejoin:round; stroke-width:4; stroke-opacity:1; fill:none" points="1501.29,1423.18 1501.29,1404.28 "/>
<polyline clip-path="url(#clip580)" style="stroke:#000000; stroke-linecap:round; stroke-linejoin:round; stroke-width:4; stroke-opacity:1; fill:none" points="1897.37,1423.18 1897.37,1404.28 "/>
<polyline clip-path="url(#clip580)" style="stroke:#000000; stroke-linecap:round; stroke-linejoin:round; stroke-width:4; stroke-opacity:1; fill:none" points="2293.46,1423.18 2293.46,1404.28 "/>
<path clip-path="url(#clip580)" d="M313.024 1454.1 Q309.412 1454.1 307.584 1457.66 Q305.778 1461.2 305.778 1468.33 Q305.778 1475.44 307.584 1479.01 Q309.412 1482.55 313.024 1482.55 Q316.658 1482.55 318.463 1479.01 Q320.292 1475.44 320.292 1468.33 Q320.292 1461.2 318.463 1457.66 Q316.658 1454.1 313.024 1454.1 M313.024 1450.39 Q318.834 1450.39 321.889 1455 Q324.968 1459.58 324.968 1468.33 Q324.968 1477.06 321.889 1481.67 Q318.834 1486.25 313.024 1486.25 Q307.213 1486.25 304.135 1481.67 Q301.079 1477.06 301.079 1468.33 Q301.079 1459.58 304.135 1455 Q307.213 1450.39 313.024 1450.39 Z" fill="#000000" fill-rule="nonzero" fill-opacity="1" /><path clip-path="url(#clip580)" d="M668.718 1481.64 L676.357 1481.64 L676.357 1455.28 L668.047 1456.95 L668.047 1452.69 L676.31 1451.02 L680.986 1451.02 L680.986 1481.64 L688.625 1481.64 L688.625 1485.58 L668.718 1485.58 L668.718 1481.64 Z" fill="#000000" fill-rule="nonzero" fill-opacity="1" /><path clip-path="url(#clip580)" d="M708.07 1454.1 Q704.458 1454.1 702.63 1457.66 Q700.824 1461.2 700.824 1468.33 Q700.824 1475.44 702.63 1479.01 Q704.458 1482.55 708.07 1482.55 Q711.704 1482.55 713.509 1479.01 Q715.338 1475.44 715.338 1468.33 Q715.338 1461.2 713.509 1457.66 Q711.704 1454.1 708.07 1454.1 M708.07 1450.39 Q713.88 1450.39 716.935 1455 Q720.014 1459.58 720.014 1468.33 Q720.014 1477.06 716.935 1481.67 Q713.88 1486.25 708.07 1486.25 Q702.259 1486.25 699.181 1481.67 Q696.125 1477.06 696.125 1468.33 Q696.125 1459.58 699.181 1455 Q702.259 1450.39 708.07 1450.39 Z" fill="#000000" fill-rule="nonzero" fill-opacity="1" /><path clip-path="url(#clip580)" d="M738.231 1454.1 Q734.62 1454.1 732.792 1457.66 Q730.986 1461.2 730.986 1468.33 Q730.986 1475.44 732.792 1479.01 Q734.62 1482.55 738.231 1482.55 Q741.866 1482.55 743.671 1479.01 Q745.5 1475.44 745.5 1468.33 Q745.5 1461.2 743.671 1457.66 Q741.866 1454.1 738.231 1454.1 M738.231 1450.39 Q744.042 1450.39 747.097 1455 Q750.176 1459.58 750.176 1468.33 Q750.176 1477.06 747.097 1481.67 Q744.042 1486.25 738.231 1486.25 Q732.421 1486.25 729.343 1481.67 Q726.287 1477.06 726.287 1468.33 Q726.287 1459.58 729.343 1455 Q732.421 1450.39 738.231 1450.39 Z" fill="#000000" fill-rule="nonzero" fill-opacity="1" /><path clip-path="url(#clip580)" d="M1068.89 1481.64 L1085.21 1481.64 L1085.21 1485.58 L1063.27 1485.58 L1063.27 1481.64 Q1065.93 1478.89 1070.51 1474.26 Q1075.12 1469.61 1076.3 1468.27 Q1078.54 1465.74 1079.42 1464.01 Q1080.33 1462.25 1080.33 1460.56 Q1080.33 1457.8 1078.38 1456.07 Q1076.46 1454.33 1073.36 1454.33 Q1071.16 1454.33 1068.71 1455.09 Q1066.28 1455.86 1063.5 1457.41 L1063.5 1452.69 Q1066.32 1451.55 1068.78 1450.97 Q1071.23 1450.39 1073.27 1450.39 Q1078.64 1450.39 1081.83 1453.08 Q1085.03 1455.77 1085.03 1460.26 Q1085.03 1462.39 1084.22 1464.31 Q1083.43 1466.2 1081.32 1468.8 Q1080.74 1469.47 1077.64 1472.69 Q1074.54 1475.88 1068.89 1481.64 Z" fill="#000000" fill-rule="nonzero" fill-opacity="1" /><path clip-path="url(#clip580)" d="M1105.03 1454.1 Q1101.41 1454.1 1099.59 1457.66 Q1097.78 1461.2 1097.78 1468.33 Q1097.78 1475.44 1099.59 1479.01 Q1101.41 1482.55 1105.03 1482.55 Q1108.66 1482.55 1110.46 1479.01 Q1112.29 1475.44 1112.29 1468.33 Q1112.29 1461.2 1110.46 1457.66 Q1108.66 1454.1 1105.03 1454.1 M1105.03 1450.39 Q1110.84 1450.39 1113.89 1455 Q1116.97 1459.58 1116.97 1468.33 Q1116.97 1477.06 1113.89 1481.67 Q1110.84 1486.25 1105.03 1486.25 Q1099.22 1486.25 1096.14 1481.67 Q1093.08 1477.06 1093.08 1468.33 Q1093.08 1459.58 1096.14 1455 Q1099.22 1450.39 1105.03 1450.39 Z" fill="#000000" fill-rule="nonzero" fill-opacity="1" /><path clip-path="url(#clip580)" d="M1135.19 1454.1 Q1131.58 1454.1 1129.75 1457.66 Q1127.94 1461.2 1127.94 1468.33 Q1127.94 1475.44 1129.75 1479.01 Q1131.58 1482.55 1135.19 1482.55 Q1138.82 1482.55 1140.63 1479.01 Q1142.46 1475.44 1142.46 1468.33 Q1142.46 1461.2 1140.63 1457.66 Q1138.82 1454.1 1135.19 1454.1 M1135.19 1450.39 Q1141 1450.39 1144.05 1455 Q1147.13 1459.58 1147.13 1468.33 Q1147.13 1477.06 1144.05 1481.67 Q1141 1486.25 1135.19 1486.25 Q1129.38 1486.25 1126.3 1481.67 Q1123.24 1477.06 1123.24 1468.33 Q1123.24 1459.58 1126.3 1455 Q1129.38 1450.39 1135.19 1450.39 Z" fill="#000000" fill-rule="nonzero" fill-opacity="1" /><path clip-path="url(#clip580)" d="M1475.05 1466.95 Q1478.4 1467.66 1480.28 1469.93 Q1482.18 1472.2 1482.18 1475.53 Q1482.18 1480.65 1478.66 1483.45 Q1475.14 1486.25 1468.66 1486.25 Q1466.48 1486.25 1464.17 1485.81 Q1461.88 1485.39 1459.42 1484.54 L1459.42 1480.02 Q1461.37 1481.16 1463.68 1481.74 Q1466 1482.32 1468.52 1482.32 Q1472.92 1482.32 1475.21 1480.58 Q1477.52 1478.84 1477.52 1475.53 Q1477.52 1472.48 1475.37 1470.77 Q1473.24 1469.03 1469.42 1469.03 L1465.4 1469.03 L1465.4 1465.19 L1469.61 1465.19 Q1473.06 1465.19 1474.89 1463.82 Q1476.71 1462.43 1476.71 1459.84 Q1476.71 1457.18 1474.82 1455.77 Q1472.94 1454.33 1469.42 1454.33 Q1467.5 1454.33 1465.3 1454.75 Q1463.1 1455.16 1460.46 1456.04 L1460.46 1451.88 Q1463.13 1451.14 1465.44 1450.77 Q1467.78 1450.39 1469.84 1450.39 Q1475.16 1450.39 1478.27 1452.83 Q1481.37 1455.23 1481.37 1459.35 Q1481.37 1462.22 1479.72 1464.21 Q1478.08 1466.18 1475.05 1466.95 Z" fill="#000000" fill-rule="nonzero" fill-opacity="1" /><path clip-path="url(#clip580)" d="M1501.04 1454.1 Q1497.43 1454.1 1495.6 1457.66 Q1493.8 1461.2 1493.8 1468.33 Q1493.8 1475.44 1495.6 1479.01 Q1497.43 1482.55 1501.04 1482.55 Q1504.68 1482.55 1506.48 1479.01 Q1508.31 1475.44 1508.31 1468.33 Q1508.31 1461.2 1506.48 1457.66 Q1504.68 1454.1 1501.04 1454.1 M1501.04 1450.39 Q1506.85 1450.39 1509.91 1455 Q1512.99 1459.58 1512.99 1468.33 Q1512.99 1477.06 1509.91 1481.67 Q1506.85 1486.25 1501.04 1486.25 Q1495.23 1486.25 1492.15 1481.67 Q1489.1 1477.06 1489.1 1468.33 Q1489.1 1459.58 1492.15 1455 Q1495.23 1450.39 1501.04 1450.39 Z" fill="#000000" fill-rule="nonzero" fill-opacity="1" /><path clip-path="url(#clip580)" d="M1531.21 1454.1 Q1527.59 1454.1 1525.77 1457.66 Q1523.96 1461.2 1523.96 1468.33 Q1523.96 1475.44 1525.77 1479.01 Q1527.59 1482.55 1531.21 1482.55 Q1534.84 1482.55 1536.64 1479.01 Q1538.47 1475.44 1538.47 1468.33 Q1538.47 1461.2 1536.64 1457.66 Q1534.84 1454.1 1531.21 1454.1 M1531.21 1450.39 Q1537.02 1450.39 1540.07 1455 Q1543.15 1459.58 1543.15 1468.33 Q1543.15 1477.06 1540.07 1481.67 Q1537.02 1486.25 1531.21 1486.25 Q1525.4 1486.25 1522.32 1481.67 Q1519.26 1477.06 1519.26 1468.33 Q1519.26 1459.58 1522.32 1455 Q1525.4 1450.39 1531.21 1450.39 Z" fill="#000000" fill-rule="nonzero" fill-opacity="1" /><path clip-path="url(#clip580)" d="M1870.46 1455.09 L1858.66 1473.54 L1870.46 1473.54 L1870.46 1455.09 M1869.24 1451.02 L1875.12 1451.02 L1875.12 1473.54 L1880.05 1473.54 L1880.05 1477.43 L1875.12 1477.43 L1875.12 1485.58 L1870.46 1485.58 L1870.46 1477.43 L1854.86 1477.43 L1854.86 1472.92 L1869.24 1451.02 Z" fill="#000000" fill-rule="nonzero" fill-opacity="1" /><path clip-path="url(#clip580)" d="M1897.78 1454.1 Q1894.17 1454.1 1892.34 1457.66 Q1890.53 1461.2 1890.53 1468.33 Q1890.53 1475.44 1892.34 1479.01 Q1894.17 1482.55 1897.78 1482.55 Q1901.41 1482.55 1903.22 1479.01 Q1905.05 1475.44 1905.05 1468.33 Q1905.05 1461.2 1903.22 1457.66 Q1901.41 1454.1 1897.78 1454.1 M1897.78 1450.39 Q1903.59 1450.39 1906.64 1455 Q1909.72 1459.58 1909.72 1468.33 Q1909.72 1477.06 1906.64 1481.67 Q1903.59 1486.25 1897.78 1486.25 Q1891.97 1486.25 1888.89 1481.67 Q1885.83 1477.06 1885.83 1468.33 Q1885.83 1459.58 1888.89 1455 Q1891.97 1450.39 1897.78 1450.39 Z" fill="#000000" fill-rule="nonzero" fill-opacity="1" /><path clip-path="url(#clip580)" d="M1927.94 1454.1 Q1924.33 1454.1 1922.5 1457.66 Q1920.7 1461.2 1920.7 1468.33 Q1920.7 1475.44 1922.5 1479.01 Q1924.33 1482.55 1927.94 1482.55 Q1931.58 1482.55 1933.38 1479.01 Q1935.21 1475.44 1935.21 1468.33 Q1935.21 1461.2 1933.38 1457.66 Q1931.58 1454.1 1927.94 1454.1 M1927.94 1450.39 Q1933.75 1450.39 1936.81 1455 Q1939.89 1459.58 1939.89 1468.33 Q1939.89 1477.06 1936.81 1481.67 Q1933.75 1486.25 1927.94 1486.25 Q1922.13 1486.25 1919.05 1481.67 Q1916 1477.06 1916 1468.33 Q1916 1459.58 1919.05 1455 Q1922.13 1450.39 1927.94 1450.39 Z" fill="#000000" fill-rule="nonzero" fill-opacity="1" /><path clip-path="url(#clip580)" d="M2253.08 1451.02 L2271.44 1451.02 L2271.44 1454.96 L2257.36 1454.96 L2257.36 1463.43 Q2258.38 1463.08 2259.4 1462.92 Q2260.42 1462.73 2261.44 1462.73 Q2267.22 1462.73 2270.6 1465.9 Q2273.98 1469.08 2273.98 1474.49 Q2273.98 1480.07 2270.51 1483.17 Q2267.04 1486.25 2260.72 1486.25 Q2258.54 1486.25 2256.27 1485.88 Q2254.03 1485.51 2251.62 1484.77 L2251.62 1480.07 Q2253.7 1481.2 2255.93 1481.76 Q2258.15 1482.32 2260.63 1482.32 Q2264.63 1482.32 2266.97 1480.21 Q2269.31 1478.1 2269.31 1474.49 Q2269.31 1470.88 2266.97 1468.77 Q2264.63 1466.67 2260.63 1466.67 Q2258.75 1466.67 2256.88 1467.08 Q2255.02 1467.5 2253.08 1468.38 L2253.08 1451.02 Z" fill="#000000" fill-rule="nonzero" fill-opacity="1" /><path clip-path="url(#clip580)" d="M2293.2 1454.1 Q2289.58 1454.1 2287.76 1457.66 Q2285.95 1461.2 2285.95 1468.33 Q2285.95 1475.44 2287.76 1479.01 Q2289.58 1482.55 2293.2 1482.55 Q2296.83 1482.55 2298.64 1479.01 Q2300.46 1475.44 2300.46 1468.33 Q2300.46 1461.2 2298.64 1457.66 Q2296.83 1454.1 2293.2 1454.1 M2293.2 1450.39 Q2299.01 1450.39 2302.06 1455 Q2305.14 1459.58 2305.14 1468.33 Q2305.14 1477.06 2302.06 1481.67 Q2299.01 1486.25 2293.2 1486.25 Q2287.39 1486.25 2284.31 1481.67 Q2281.25 1477.06 2281.25 1468.33 Q2281.25 1459.58 2284.31 1455 Q2287.39 1450.39 2293.2 1450.39 Z" fill="#000000" fill-rule="nonzero" fill-opacity="1" /><path clip-path="url(#clip580)" d="M2323.36 1454.1 Q2319.75 1454.1 2317.92 1457.66 Q2316.11 1461.2 2316.11 1468.33 Q2316.11 1475.44 2317.92 1479.01 Q2319.75 1482.55 2323.36 1482.55 Q2326.99 1482.55 2328.8 1479.01 Q2330.63 1475.44 2330.63 1468.33 Q2330.63 1461.2 2328.8 1457.66 Q2326.99 1454.1 2323.36 1454.1 M2323.36 1450.39 Q2329.17 1450.39 2332.22 1455 Q2335.3 1459.58 2335.3 1468.33 Q2335.3 1477.06 2332.22 1481.67 Q2329.17 1486.25 2323.36 1486.25 Q2317.55 1486.25 2314.47 1481.67 Q2311.41 1477.06 2311.41 1468.33 Q2311.41 1459.58 2314.47 1455 Q2317.55 1450.39 2323.36 1450.39 Z" fill="#000000" fill-rule="nonzero" fill-opacity="1" /><path clip-path="url(#clip580)" d="M1173.37 1532.4 L1179.23 1532.4 L1179.23 1568.04 L1173.37 1568.04 L1173.37 1532.4 M1173.37 1518.52 L1179.23 1518.52 L1179.23 1525.93 L1173.37 1525.93 L1173.37 1518.52 Z" fill="#000000" fill-rule="nonzero" fill-opacity="1" /><path clip-path="url(#clip580)" d="M1197.28 1522.27 L1197.28 1532.4 L1209.34 1532.4 L1209.34 1536.95 L1197.28 1536.95 L1197.28 1556.3 Q1197.28 1560.66 1198.45 1561.9 Q1199.66 1563.14 1203.32 1563.14 L1209.34 1563.14 L1209.34 1568.04 L1203.32 1568.04 Q1196.54 1568.04 1193.97 1565.53 Q1191.39 1562.98 1191.39 1556.3 L1191.39 1536.95 L1187.09 1536.95 L1187.09 1532.4 L1191.39 1532.4 L1191.39 1522.27 L1197.28 1522.27 Z" fill="#000000" fill-rule="nonzero" fill-opacity="1" /><path clip-path="url(#clip580)" d="M1247.53 1548.76 L1247.53 1551.62 L1220.61 1551.62 Q1220.99 1557.67 1224.24 1560.85 Q1227.51 1564 1233.34 1564 Q1236.71 1564 1239.86 1563.17 Q1243.05 1562.35 1246.17 1560.69 L1246.17 1566.23 Q1243.01 1567.57 1239.7 1568.27 Q1236.39 1568.97 1232.99 1568.97 Q1224.46 1568.97 1219.46 1564 Q1214.5 1559.04 1214.5 1550.57 Q1214.5 1541.82 1219.21 1536.69 Q1223.95 1531.54 1231.97 1531.54 Q1239.16 1531.54 1243.33 1536.18 Q1247.53 1540.8 1247.53 1548.76 M1241.68 1547.04 Q1241.61 1542.23 1238.97 1539.37 Q1236.36 1536.5 1232.03 1536.5 Q1227.13 1536.5 1224.17 1539.27 Q1221.24 1542.04 1220.8 1547.07 L1241.68 1547.04 Z" fill="#000000" fill-rule="nonzero" fill-opacity="1" /><path clip-path="url(#clip580)" d="M1277.8 1537.87 Q1276.82 1537.3 1275.64 1537.04 Q1274.49 1536.76 1273.09 1536.76 Q1268.13 1536.76 1265.45 1540 Q1262.81 1543.22 1262.81 1549.27 L1262.81 1568.04 L1256.92 1568.04 L1256.92 1532.4 L1262.81 1532.4 L1262.81 1537.93 Q1264.66 1534.69 1267.62 1533.13 Q1270.58 1531.54 1274.81 1531.54 Q1275.42 1531.54 1276.15 1531.63 Q1276.88 1531.7 1277.77 1531.85 L1277.8 1537.87 Z" fill="#000000" fill-rule="nonzero" fill-opacity="1" /><path clip-path="url(#clip580)" d="M1300.15 1550.12 Q1293.05 1550.12 1290.31 1551.75 Q1287.57 1553.37 1287.57 1557.29 Q1287.57 1560.4 1289.61 1562.25 Q1291.68 1564.07 1295.21 1564.07 Q1300.08 1564.07 1303.01 1560.63 Q1305.97 1557.16 1305.97 1551.43 L1305.97 1550.12 L1300.15 1550.12 M1311.83 1547.71 L1311.83 1568.04 L1305.97 1568.04 L1305.97 1562.63 Q1303.97 1565.88 1300.97 1567.44 Q1297.98 1568.97 1293.65 1568.97 Q1288.18 1568.97 1284.93 1565.91 Q1281.72 1562.82 1281.72 1557.67 Q1281.72 1551.65 1285.73 1548.6 Q1289.77 1545.54 1297.76 1545.54 L1305.97 1545.54 L1305.97 1544.97 Q1305.97 1540.93 1303.3 1538.73 Q1300.66 1536.5 1295.85 1536.5 Q1292.79 1536.5 1289.9 1537.23 Q1287 1537.97 1284.33 1539.43 L1284.33 1534.02 Q1287.54 1532.78 1290.57 1532.17 Q1293.59 1531.54 1296.45 1531.54 Q1304.19 1531.54 1308.01 1535.55 Q1311.83 1539.56 1311.83 1547.71 Z" fill="#000000" fill-rule="nonzero" fill-opacity="1" /><path clip-path="url(#clip580)" d="M1329.68 1522.27 L1329.68 1532.4 L1341.75 1532.4 L1341.75 1536.95 L1329.68 1536.95 L1329.68 1556.3 Q1329.68 1560.66 1330.86 1561.9 Q1332.07 1563.14 1335.73 1563.14 L1341.75 1563.14 L1341.75 1568.04 L1335.73 1568.04 Q1328.95 1568.04 1326.37 1565.53 Q1323.79 1562.98 1323.79 1556.3 L1323.79 1536.95 L1319.5 1536.95 L1319.5 1532.4 L1323.79 1532.4 L1323.79 1522.27 L1329.68 1522.27 Z" fill="#000000" fill-rule="nonzero" fill-opacity="1" /><path clip-path="url(#clip580)" d="M1349.45 1532.4 L1355.31 1532.4 L1355.31 1568.04 L1349.45 1568.04 L1349.45 1532.4 M1349.45 1518.52 L1355.31 1518.52 L1355.31 1525.93 L1349.45 1525.93 L1349.45 1518.52 Z" fill="#000000" fill-rule="nonzero" fill-opacity="1" /><path clip-path="url(#clip580)" d="M1381.37 1536.5 Q1376.66 1536.5 1373.92 1540.19 Q1371.19 1543.85 1371.19 1550.25 Q1371.19 1556.65 1373.89 1560.34 Q1376.63 1564 1381.37 1564 Q1386.05 1564 1388.79 1560.31 Q1391.53 1556.62 1391.53 1550.25 Q1391.53 1543.92 1388.79 1540.23 Q1386.05 1536.5 1381.37 1536.5 M1381.37 1531.54 Q1389.01 1531.54 1393.37 1536.5 Q1397.73 1541.47 1397.73 1550.25 Q1397.73 1559 1393.37 1564 Q1389.01 1568.97 1381.37 1568.97 Q1373.7 1568.97 1369.34 1564 Q1365.01 1559 1365.01 1550.25 Q1365.01 1541.47 1369.34 1536.5 Q1373.7 1531.54 1381.37 1531.54 Z" fill="#000000" fill-rule="nonzero" fill-opacity="1" /><path clip-path="url(#clip580)" d="M1437.07 1546.53 L1437.07 1568.04 L1431.22 1568.04 L1431.22 1546.72 Q1431.22 1541.66 1429.24 1539.14 Q1427.27 1536.63 1423.32 1536.63 Q1418.58 1536.63 1415.84 1539.65 Q1413.11 1542.68 1413.11 1547.9 L1413.11 1568.04 L1407.22 1568.04 L1407.22 1532.4 L1413.11 1532.4 L1413.11 1537.93 Q1415.21 1534.72 1418.04 1533.13 Q1420.9 1531.54 1424.63 1531.54 Q1430.77 1531.54 1433.92 1535.36 Q1437.07 1539.14 1437.07 1546.53 Z" fill="#000000" fill-rule="nonzero" fill-opacity="1" /><polyline clip-path="url(#clip582)" style="stroke:#000000; stroke-linecap:round; stroke-linejoin:round; stroke-width:2; stroke-opacity:0.1; fill:none" points="257.69,1250.34 2352.76,1250.34 "/>
<polyline clip-path="url(#clip582)" style="stroke:#000000; stroke-linecap:round; stroke-linejoin:round; stroke-width:2; stroke-opacity:0.1; fill:none" points="257.69,946.158 2352.76,946.158 "/>
<polyline clip-path="url(#clip582)" style="stroke:#000000; stroke-linecap:round; stroke-linejoin:round; stroke-width:2; stroke-opacity:0.1; fill:none" points="257.69,641.979 2352.76,641.979 "/>
<polyline clip-path="url(#clip582)" style="stroke:#000000; stroke-linecap:round; stroke-linejoin:round; stroke-width:2; stroke-opacity:0.1; fill:none" points="257.69,337.801 2352.76,337.801 "/>
<polyline clip-path="url(#clip580)" style="stroke:#000000; stroke-linecap:round; stroke-linejoin:round; stroke-width:4; stroke-opacity:1; fill:none" points="257.69,1423.18 257.69,106.192 "/>
<polyline clip-path="url(#clip580)" style="stroke:#000000; stroke-linecap:round; stroke-linejoin:round; stroke-width:4; stroke-opacity:1; fill:none" points="257.69,1250.34 276.588,1250.34 "/>
<polyline clip-path="url(#clip580)" style="stroke:#000000; stroke-linecap:round; stroke-linejoin:round; stroke-width:4; stroke-opacity:1; fill:none" points="257.69,946.158 276.588,946.158 "/>
<polyline clip-path="url(#clip580)" style="stroke:#000000; stroke-linecap:round; stroke-linejoin:round; stroke-width:4; stroke-opacity:1; fill:none" points="257.69,641.979 276.588,641.979 "/>
<polyline clip-path="url(#clip580)" style="stroke:#000000; stroke-linecap:round; stroke-linejoin:round; stroke-width:4; stroke-opacity:1; fill:none" points="257.69,337.801 276.588,337.801 "/>
<path clip-path="url(#clip580)" d="M114.26 1250.79 L143.936 1250.79 L143.936 1254.72 L114.26 1254.72 L114.26 1250.79 Z" fill="#000000" fill-rule="nonzero" fill-opacity="1" /><path clip-path="url(#clip580)" d="M164.028 1236.14 Q160.417 1236.14 158.589 1239.7 Q156.783 1243.24 156.783 1250.37 Q156.783 1257.48 158.589 1261.04 Q160.417 1264.58 164.028 1264.58 Q167.663 1264.58 169.468 1261.04 Q171.297 1257.48 171.297 1250.37 Q171.297 1243.24 169.468 1239.7 Q167.663 1236.14 164.028 1236.14 M164.028 1232.43 Q169.839 1232.43 172.894 1237.04 Q175.973 1241.62 175.973 1250.37 Q175.973 1259.1 172.894 1263.7 Q169.839 1268.29 164.028 1268.29 Q158.218 1268.29 155.14 1263.7 Q152.084 1259.1 152.084 1250.37 Q152.084 1241.62 155.14 1237.04 Q158.218 1232.43 164.028 1232.43 Z" fill="#000000" fill-rule="nonzero" fill-opacity="1" /><path clip-path="url(#clip580)" d="M184.19 1261.74 L189.075 1261.74 L189.075 1267.62 L184.19 1267.62 L184.19 1261.74 Z" fill="#000000" fill-rule="nonzero" fill-opacity="1" /><path clip-path="url(#clip580)" d="M212.107 1237.13 L200.301 1255.58 L212.107 1255.58 L212.107 1237.13 M210.88 1233.06 L216.76 1233.06 L216.76 1255.58 L221.69 1255.58 L221.69 1259.47 L216.76 1259.47 L216.76 1267.62 L212.107 1267.62 L212.107 1259.47 L196.505 1259.47 L196.505 1254.95 L210.88 1233.06 Z" fill="#000000" fill-rule="nonzero" fill-opacity="1" /><path clip-path="url(#clip580)" d="M116.343 946.609 L146.019 946.609 L146.019 950.544 L116.343 950.544 L116.343 946.609 Z" fill="#000000" fill-rule="nonzero" fill-opacity="1" /><path clip-path="url(#clip580)" d="M166.112 931.957 Q162.501 931.957 160.672 935.521 Q158.866 939.063 158.866 946.193 Q158.866 953.299 160.672 956.864 Q162.501 960.405 166.112 960.405 Q169.746 960.405 171.552 956.864 Q173.38 953.299 173.38 946.193 Q173.38 939.063 171.552 935.521 Q169.746 931.957 166.112 931.957 M166.112 928.253 Q171.922 928.253 174.977 932.859 Q178.056 937.443 178.056 946.193 Q178.056 954.919 174.977 959.526 Q171.922 964.109 166.112 964.109 Q160.302 964.109 157.223 959.526 Q154.167 954.919 154.167 946.193 Q154.167 937.443 157.223 932.859 Q160.302 928.253 166.112 928.253 Z" fill="#000000" fill-rule="nonzero" fill-opacity="1" /><path clip-path="url(#clip580)" d="M186.274 957.558 L191.158 957.558 L191.158 963.438 L186.274 963.438 L186.274 957.558 Z" fill="#000000" fill-rule="nonzero" fill-opacity="1" /><path clip-path="url(#clip580)" d="M205.371 959.503 L221.69 959.503 L221.69 963.438 L199.746 963.438 L199.746 959.503 Q202.408 956.748 206.991 952.118 Q211.598 947.466 212.778 946.123 Q215.024 943.6 215.903 941.864 Q216.806 940.105 216.806 938.415 Q216.806 935.66 214.861 933.924 Q212.94 932.188 209.838 932.188 Q207.639 932.188 205.186 932.952 Q202.755 933.716 199.977 935.267 L199.977 930.545 Q202.801 929.41 205.255 928.832 Q207.709 928.253 209.746 928.253 Q215.116 928.253 218.311 930.938 Q221.505 933.623 221.505 938.114 Q221.505 940.244 220.695 942.165 Q219.908 944.063 217.801 946.656 Q217.223 947.327 214.121 950.544 Q211.019 953.739 205.371 959.503 Z" fill="#000000" fill-rule="nonzero" fill-opacity="1" /><path clip-path="url(#clip580)" d="M164.515 627.778 Q160.903 627.778 159.075 631.343 Q157.269 634.884 157.269 642.014 Q157.269 649.12 159.075 652.685 Q160.903 656.227 164.515 656.227 Q168.149 656.227 169.954 652.685 Q171.783 649.12 171.783 642.014 Q171.783 634.884 169.954 631.343 Q168.149 627.778 164.515 627.778 M164.515 624.074 Q170.325 624.074 173.38 628.681 Q176.459 633.264 176.459 642.014 Q176.459 650.741 173.38 655.347 Q170.325 659.931 164.515 659.931 Q158.704 659.931 155.626 655.347 Q152.57 650.741 152.57 642.014 Q152.57 633.264 155.626 628.681 Q158.704 624.074 164.515 624.074 Z" fill="#000000" fill-rule="nonzero" fill-opacity="1" /><path clip-path="url(#clip580)" d="M184.676 653.38 L189.561 653.38 L189.561 659.259 L184.676 659.259 L184.676 653.38 Z" fill="#000000" fill-rule="nonzero" fill-opacity="1" /><path clip-path="url(#clip580)" d="M209.746 627.778 Q206.135 627.778 204.306 631.343 Q202.5 634.884 202.5 642.014 Q202.5 649.12 204.306 652.685 Q206.135 656.227 209.746 656.227 Q213.38 656.227 215.186 652.685 Q217.014 649.12 217.014 642.014 Q217.014 634.884 215.186 631.343 Q213.38 627.778 209.746 627.778 M209.746 624.074 Q215.556 624.074 218.611 628.681 Q221.69 633.264 221.69 642.014 Q221.69 650.741 218.611 655.347 Q215.556 659.931 209.746 659.931 Q203.936 659.931 200.857 655.347 Q197.801 650.741 197.801 642.014 Q197.801 633.264 200.857 628.681 Q203.936 624.074 209.746 624.074 Z" fill="#000000" fill-rule="nonzero" fill-opacity="1" /><path clip-path="url(#clip580)" d="M166.112 323.599 Q162.501 323.599 160.672 327.164 Q158.866 330.706 158.866 337.835 Q158.866 344.942 160.672 348.507 Q162.501 352.048 166.112 352.048 Q169.746 352.048 171.552 348.507 Q173.38 344.942 173.38 337.835 Q173.38 330.706 171.552 327.164 Q169.746 323.599 166.112 323.599 M166.112 319.896 Q171.922 319.896 174.977 324.502 Q178.056 329.085 178.056 337.835 Q178.056 346.562 174.977 351.169 Q171.922 355.752 166.112 355.752 Q160.302 355.752 157.223 351.169 Q154.167 346.562 154.167 337.835 Q154.167 329.085 157.223 324.502 Q160.302 319.896 166.112 319.896 Z" fill="#000000" fill-rule="nonzero" fill-opacity="1" /><path clip-path="url(#clip580)" d="M186.274 349.201 L191.158 349.201 L191.158 355.081 L186.274 355.081 L186.274 349.201 Z" fill="#000000" fill-rule="nonzero" fill-opacity="1" /><path clip-path="url(#clip580)" d="M205.371 351.145 L221.69 351.145 L221.69 355.081 L199.746 355.081 L199.746 351.145 Q202.408 348.391 206.991 343.761 Q211.598 339.108 212.778 337.766 Q215.024 335.243 215.903 333.507 Q216.806 331.747 216.806 330.058 Q216.806 327.303 214.861 325.567 Q212.94 323.831 209.838 323.831 Q207.639 323.831 205.186 324.595 Q202.755 325.359 199.977 326.909 L199.977 322.187 Q202.801 321.053 205.255 320.474 Q207.709 319.896 209.746 319.896 Q215.116 319.896 218.311 322.581 Q221.505 325.266 221.505 329.757 Q221.505 331.886 220.695 333.808 Q219.908 335.706 217.801 338.298 Q217.223 338.97 214.121 342.187 Q211.019 345.382 205.371 351.145 Z" fill="#000000" fill-rule="nonzero" fill-opacity="1" /><path clip-path="url(#clip580)" d="M44.7161 808.753 L47.5806 808.753 L47.5806 835.68 Q53.6281 835.298 56.8109 832.051 Q59.9619 828.773 59.9619 822.948 Q59.9619 819.574 59.1344 816.423 Q58.3069 813.24 56.6518 810.121 L62.1899 810.121 Q63.5267 813.272 64.227 816.582 Q64.9272 819.893 64.9272 823.298 Q64.9272 831.828 59.9619 836.825 Q54.9967 841.791 46.5303 841.791 Q37.7774 841.791 32.6531 837.08 Q27.4968 832.338 27.4968 824.317 Q27.4968 817.123 32.1438 812.954 Q36.7589 808.753 44.7161 808.753 M42.9973 814.609 Q38.1912 814.673 35.3266 817.314 Q32.4621 819.924 32.4621 824.253 Q32.4621 829.155 35.2312 832.115 Q38.0002 835.043 43.0292 835.489 L42.9973 814.609 Z" fill="#000000" fill-rule="nonzero" fill-opacity="1" /><path clip-path="url(#clip580)" d="M33.8307 778.484 Q33.2578 779.47 33.0032 780.648 Q32.7167 781.794 32.7167 783.194 Q32.7167 788.16 35.9632 790.833 Q39.1779 793.475 45.2253 793.475 L64.0042 793.475 L64.0042 799.363 L28.3562 799.363 L28.3562 793.475 L33.8944 793.475 Q30.6479 791.629 29.0883 788.669 Q27.4968 785.709 27.4968 781.476 Q27.4968 780.871 27.5923 780.139 Q27.656 779.407 27.8151 778.515 L33.8307 778.484 Z" fill="#000000" fill-rule="nonzero" fill-opacity="1" /><path clip-path="url(#clip580)" d="M33.8307 752.83 Q33.2578 753.817 33.0032 754.994 Q32.7167 756.14 32.7167 757.54 Q32.7167 762.506 35.9632 765.179 Q39.1779 767.821 45.2253 767.821 L64.0042 767.821 L64.0042 773.709 L28.3562 773.709 L28.3562 767.821 L33.8944 767.821 Q30.6479 765.975 29.0883 763.015 Q27.4968 760.055 27.4968 755.822 Q27.4968 755.217 27.5923 754.485 Q27.656 753.753 27.8151 752.862 L33.8307 752.83 Z" fill="#000000" fill-rule="nonzero" fill-opacity="1" /><path clip-path="url(#clip580)" d="M32.4621 734.306 Q32.4621 739.016 36.1542 741.754 Q39.8145 744.491 46.212 744.491 Q52.6095 744.491 56.3017 741.785 Q59.9619 739.048 59.9619 734.306 Q59.9619 729.627 56.2698 726.89 Q52.5777 724.152 46.212 724.152 Q39.8781 724.152 36.186 726.89 Q32.4621 729.627 32.4621 734.306 M27.4968 734.306 Q27.4968 726.667 32.4621 722.306 Q37.4273 717.946 46.212 717.946 Q54.9649 717.946 59.9619 722.306 Q64.9272 726.667 64.9272 734.306 Q64.9272 741.976 59.9619 746.337 Q54.9649 750.666 46.212 750.666 Q37.4273 750.666 32.4621 746.337 Q27.4968 741.976 27.4968 734.306 Z" fill="#000000" fill-rule="nonzero" fill-opacity="1" /><path clip-path="url(#clip580)" d="M33.8307 687.581 Q33.2578 688.568 33.0032 689.746 Q32.7167 690.892 32.7167 692.292 Q32.7167 697.257 35.9632 699.931 Q39.1779 702.573 45.2253 702.573 L64.0042 702.573 L64.0042 708.461 L28.3562 708.461 L28.3562 702.573 L33.8944 702.573 Q30.6479 700.727 29.0883 697.766 Q27.4968 694.806 27.4968 690.573 Q27.4968 689.969 27.5923 689.236 Q27.656 688.504 27.8151 687.613 L33.8307 687.581 Z" fill="#000000" fill-rule="nonzero" fill-opacity="1" /><path clip-path="url(#clip580)" d="M1008.75 8.64 L1036.07 8.64 L1036.07 13.559 L1014.6 13.559 L1014.6 26.3482 L1035.17 26.3482 L1035.17 31.2672 L1014.6 31.2672 L1014.6 46.921 L1036.59 46.921 L1036.59 51.84 L1008.75 51.84 L1008.75 8.64 Z" fill="#000000" fill-rule="nonzero" fill-opacity="1" /><path clip-path="url(#clip580)" d="M1042.15 19.4328 L1047.79 19.4328 L1057.92 46.6317 L1068.04 19.4328 L1073.68 19.4328 L1061.53 51.84 L1054.3 51.84 L1042.15 19.4328 Z" fill="#000000" fill-rule="nonzero" fill-opacity="1" /><path clip-path="url(#clip580)" d="M1093.59 23.1654 Q1089.31 23.1654 1086.82 26.5218 Q1084.33 29.8494 1084.33 35.6653 Q1084.33 41.4813 1086.79 44.8377 Q1089.28 48.1653 1093.59 48.1653 Q1097.85 48.1653 1100.33 44.8088 Q1102.82 41.4523 1102.82 35.6653 Q1102.82 29.9072 1100.33 26.5508 Q1097.85 23.1654 1093.59 23.1654 M1093.59 18.6515 Q1100.54 18.6515 1104.5 23.1654 Q1108.46 27.6792 1108.46 35.6653 Q1108.46 43.6225 1104.5 48.1653 Q1100.54 52.6791 1093.59 52.6791 Q1086.62 52.6791 1082.65 48.1653 Q1078.72 43.6225 1078.72 35.6653 Q1078.72 27.6792 1082.65 23.1654 Q1086.62 18.6515 1093.59 18.6515 Z" fill="#000000" fill-rule="nonzero" fill-opacity="1" /><path clip-path="url(#clip580)" d="M1117.29 6.81709 L1122.61 6.81709 L1122.61 51.84 L1117.29 51.84 L1117.29 6.81709 Z" fill="#000000" fill-rule="nonzero" fill-opacity="1" /><path clip-path="url(#clip580)" d="M1133.2 39.0507 L1133.2 19.4328 L1138.53 19.4328 L1138.53 38.8482 Q1138.53 43.4488 1140.32 45.7636 Q1142.12 48.0495 1145.7 48.0495 Q1150.02 48.0495 1152.5 45.3007 Q1155.02 42.5519 1155.02 37.8065 L1155.02 19.4328 L1160.35 19.4328 L1160.35 51.84 L1155.02 51.84 L1155.02 46.8632 Q1153.08 49.8145 1150.51 51.2613 Q1147.96 52.6791 1144.58 52.6791 Q1138.99 52.6791 1136.1 49.2069 Q1133.2 45.7347 1133.2 39.0507 M1146.6 18.6515 L1146.6 18.6515 Z" fill="#000000" fill-rule="nonzero" fill-opacity="1" /><path clip-path="url(#clip580)" d="M1176.58 10.2314 L1176.58 19.4328 L1187.54 19.4328 L1187.54 23.5705 L1176.58 23.5705 L1176.58 41.163 Q1176.58 45.1271 1177.65 46.2555 Q1178.75 47.384 1182.08 47.384 L1187.54 47.384 L1187.54 51.84 L1182.08 51.84 Q1175.91 51.84 1173.57 49.5541 Q1171.22 47.2393 1171.22 41.163 L1171.22 23.5705 L1167.32 23.5705 L1167.32 19.4328 L1171.22 19.4328 L1171.22 10.2314 L1176.58 10.2314 Z" fill="#000000" fill-rule="nonzero" fill-opacity="1" /><path clip-path="url(#clip580)" d="M1194.55 19.4328 L1199.87 19.4328 L1199.87 51.84 L1194.55 51.84 L1194.55 19.4328 M1194.55 6.81709 L1199.87 6.81709 L1199.87 13.559 L1194.55 13.559 L1194.55 6.81709 Z" fill="#000000" fill-rule="nonzero" fill-opacity="1" /><path clip-path="url(#clip580)" d="M1223.57 23.1654 Q1219.29 23.1654 1216.8 26.5218 Q1214.31 29.8494 1214.31 35.6653 Q1214.31 41.4813 1216.77 44.8377 Q1219.26 48.1653 1223.57 48.1653 Q1227.82 48.1653 1230.31 44.8088 Q1232.8 41.4523 1232.8 35.6653 Q1232.8 29.9072 1230.31 26.5508 Q1227.82 23.1654 1223.57 23.1654 M1223.57 18.6515 Q1230.51 18.6515 1234.48 23.1654 Q1238.44 27.6792 1238.44 35.6653 Q1238.44 43.6225 1234.48 48.1653 Q1230.51 52.6791 1223.57 52.6791 Q1216.6 52.6791 1212.63 48.1653 Q1208.7 43.6225 1208.7 35.6653 Q1208.7 27.6792 1212.63 23.1654 Q1216.6 18.6515 1223.57 18.6515 Z" fill="#000000" fill-rule="nonzero" fill-opacity="1" /><path clip-path="url(#clip580)" d="M1274.2 32.2799 L1274.2 51.84 L1268.88 51.84 L1268.88 32.4535 Q1268.88 27.8529 1267.09 25.567 Q1265.29 23.2811 1261.7 23.2811 Q1257.39 23.2811 1254.91 26.03 Q1252.42 28.7788 1252.42 33.5241 L1252.42 51.84 L1247.06 51.84 L1247.06 19.4328 L1252.42 19.4328 L1252.42 24.4675 Q1254.33 21.545 1256.9 20.0983 Q1259.51 18.6515 1262.89 18.6515 Q1268.48 18.6515 1271.34 22.1237 Q1274.2 25.567 1274.2 32.2799 Z" fill="#000000" fill-rule="nonzero" fill-opacity="1" /><path clip-path="url(#clip580)" d="M1316.22 23.1654 Q1311.94 23.1654 1309.45 26.5218 Q1306.96 29.8494 1306.96 35.6653 Q1306.96 41.4813 1309.42 44.8377 Q1311.91 48.1653 1316.22 48.1653 Q1320.47 48.1653 1322.96 44.8088 Q1325.45 41.4523 1325.45 35.6653 Q1325.45 29.9072 1322.96 26.5508 Q1320.47 23.1654 1316.22 23.1654 M1316.22 18.6515 Q1323.16 18.6515 1327.13 23.1654 Q1331.09 27.6792 1331.09 35.6653 Q1331.09 43.6225 1327.13 48.1653 Q1323.16 52.6791 1316.22 52.6791 Q1309.24 52.6791 1305.28 48.1653 Q1301.35 43.6225 1301.35 35.6653 Q1301.35 27.6792 1305.28 23.1654 Q1309.24 18.6515 1316.22 18.6515 Z" fill="#000000" fill-rule="nonzero" fill-opacity="1" /><path clip-path="url(#clip580)" d="M1356.32 6.81709 L1356.32 11.2442 L1351.23 11.2442 Q1348.37 11.2442 1347.24 12.4016 Q1346.14 13.559 1346.14 16.5682 L1346.14 19.4328 L1354.9 19.4328 L1354.9 23.5705 L1346.14 23.5705 L1346.14 51.84 L1340.78 51.84 L1340.78 23.5705 L1335.69 23.5705 L1335.69 19.4328 L1340.78 19.4328 L1340.78 17.1758 Q1340.78 11.765 1343.3 9.30551 Q1345.82 6.81709 1351.29 6.81709 L1356.32 6.81709 Z" fill="#000000" fill-rule="nonzero" fill-opacity="1" /><path clip-path="url(#clip580)" d="M1384.88 10.2314 L1384.88 19.4328 L1395.85 19.4328 L1395.85 23.5705 L1384.88 23.5705 L1384.88 41.163 Q1384.88 45.1271 1385.95 46.2555 Q1387.05 47.384 1390.38 47.384 L1395.85 47.384 L1395.85 51.84 L1390.38 51.84 Q1384.22 51.84 1381.87 49.5541 Q1379.53 47.2393 1379.53 41.163 L1379.53 23.5705 L1375.62 23.5705 L1375.62 19.4328 L1379.53 19.4328 L1379.53 10.2314 L1384.88 10.2314 Z" fill="#000000" fill-rule="nonzero" fill-opacity="1" /><path clip-path="url(#clip580)" d="M1429.79 32.2799 L1429.79 51.84 L1424.46 51.84 L1424.46 32.4535 Q1424.46 27.8529 1422.67 25.567 Q1420.88 23.2811 1417.29 23.2811 Q1412.98 23.2811 1410.49 26.03 Q1408 28.7788 1408 33.5241 L1408 51.84 L1402.65 51.84 L1402.65 6.81709 L1408 6.81709 L1408 24.4675 Q1409.91 21.545 1412.49 20.0983 Q1415.09 18.6515 1418.47 18.6515 Q1424.06 18.6515 1426.92 22.1237 Q1429.79 25.567 1429.79 32.2799 Z" fill="#000000" fill-rule="nonzero" fill-opacity="1" /><path clip-path="url(#clip580)" d="M1468.13 34.3054 L1468.13 36.9095 L1443.65 36.9095 Q1444 42.4072 1446.95 45.3007 Q1449.93 48.1653 1455.22 48.1653 Q1458.29 48.1653 1461.15 47.4129 Q1464.05 46.6606 1466.88 45.156 L1466.88 50.1907 Q1464.02 51.406 1461.01 52.0425 Q1458 52.6791 1454.9 52.6791 Q1447.15 52.6791 1442.61 48.1653 Q1438.09 43.6514 1438.09 35.9547 Q1438.09 27.9975 1442.38 23.339 Q1446.69 18.6515 1453.98 18.6515 Q1460.52 18.6515 1464.31 22.876 Q1468.13 27.0716 1468.13 34.3054 M1462.8 32.7429 Q1462.75 28.3737 1460.34 25.7695 Q1457.97 23.1654 1454.04 23.1654 Q1449.58 23.1654 1446.89 25.6827 Q1444.23 28.2001 1443.82 32.7718 L1462.8 32.7429 Z" fill="#000000" fill-rule="nonzero" fill-opacity="1" /><path clip-path="url(#clip580)" d="M1495.7 6.81709 L1501.03 6.81709 L1501.03 51.84 L1495.7 51.84 L1495.7 6.81709 Z" fill="#000000" fill-rule="nonzero" fill-opacity="1" /><path clip-path="url(#clip580)" d="M1524.72 23.1654 Q1520.44 23.1654 1517.95 26.5218 Q1515.46 29.8494 1515.46 35.6653 Q1515.46 41.4813 1517.92 44.8377 Q1520.41 48.1653 1524.72 48.1653 Q1528.98 48.1653 1531.47 44.8088 Q1533.95 41.4523 1533.95 35.6653 Q1533.95 29.9072 1531.47 26.5508 Q1528.98 23.1654 1524.72 23.1654 M1524.72 18.6515 Q1531.67 18.6515 1535.63 23.1654 Q1539.6 27.6792 1539.6 35.6653 Q1539.6 43.6225 1535.63 48.1653 Q1531.67 52.6791 1524.72 52.6791 Q1517.75 52.6791 1513.79 48.1653 Q1509.85 43.6225 1509.85 35.6653 Q1509.85 27.6792 1513.79 23.1654 Q1517.75 18.6515 1524.72 18.6515 Z" fill="#000000" fill-rule="nonzero" fill-opacity="1" /><path clip-path="url(#clip580)" d="M1569.08 20.3876 L1569.08 25.4223 Q1566.82 24.2649 1564.39 23.6862 Q1561.96 23.1075 1559.36 23.1075 Q1555.4 23.1075 1553.4 24.3228 Q1551.43 25.5381 1551.43 27.9686 Q1551.43 29.8204 1552.85 30.891 Q1554.27 31.9327 1558.55 32.8876 L1560.37 33.2926 Q1566.04 34.5079 1568.42 36.7359 Q1570.82 38.935 1570.82 42.8991 Q1570.82 47.4129 1567.23 50.046 Q1563.67 52.6791 1557.42 52.6791 Q1554.82 52.6791 1551.98 52.1583 Q1549.17 51.6664 1546.05 50.6537 L1546.05 45.156 Q1549 46.6896 1551.87 47.4708 Q1554.73 48.2231 1557.54 48.2231 Q1561.3 48.2231 1563.32 46.95 Q1565.35 45.6479 1565.35 43.3042 Q1565.35 41.134 1563.87 39.9766 Q1562.43 38.8192 1557.48 37.7486 L1555.63 37.3146 Q1550.68 36.273 1548.48 34.1318 Q1546.28 31.9616 1546.28 28.2001 Q1546.28 23.6283 1549.52 21.1399 Q1552.76 18.6515 1558.72 18.6515 Q1561.67 18.6515 1564.28 19.0855 Q1566.88 19.5196 1569.08 20.3876 Z" fill="#000000" fill-rule="nonzero" fill-opacity="1" /><path clip-path="url(#clip580)" d="M1599.96 20.3876 L1599.96 25.4223 Q1597.7 24.2649 1595.27 23.6862 Q1592.84 23.1075 1590.23 23.1075 Q1586.27 23.1075 1584.27 24.3228 Q1582.3 25.5381 1582.3 27.9686 Q1582.3 29.8204 1583.72 30.891 Q1585.14 31.9327 1589.42 32.8876 L1591.25 33.2926 Q1596.92 34.5079 1599.29 36.7359 Q1601.69 38.935 1601.69 42.8991 Q1601.69 47.4129 1598.1 50.046 Q1594.54 52.6791 1588.29 52.6791 Q1585.69 52.6791 1582.85 52.1583 Q1580.05 51.6664 1576.92 50.6537 L1576.92 45.156 Q1579.87 46.6896 1582.74 47.4708 Q1585.6 48.2231 1588.41 48.2231 Q1592.17 48.2231 1594.2 46.95 Q1596.22 45.6479 1596.22 43.3042 Q1596.22 41.134 1594.75 39.9766 Q1593.3 38.8192 1588.35 37.7486 L1586.5 37.3146 Q1581.55 36.273 1579.35 34.1318 Q1577.15 31.9616 1577.15 28.2001 Q1577.15 23.6283 1580.4 21.1399 Q1583.64 18.6515 1589.6 18.6515 Q1592.55 18.6515 1595.15 19.0855 Q1597.76 19.5196 1599.96 20.3876 Z" fill="#000000" fill-rule="nonzero" fill-opacity="1" /><polyline clip-path="url(#clip582)" style="stroke:#009af9; stroke-linecap:round; stroke-linejoin:round; stroke-width:4; stroke-opacity:1; fill:none" points="316.984,143.465 320.945,435.388 324.906,557.45 328.867,609.593 332.828,649.548 336.789,693.019 340.75,731.742 344.711,755.026 348.671,762.21 352.632,760.354 356.593,762.699 360.554,775.376 364.515,800.448 368.476,833.351 372.437,868.581 376.398,899.81 380.358,924.523 384.319,943.651 388.28,959.927 392.241,978.229 396.202,996.112 400.163,1014.26 404.124,1032.15 408.085,1046.39 412.045,1060.34 416.006,1073.54 419.967,1087.83 423.928,1106.25 427.889,1124.92 431.85,1142.3 435.811,1155.94 439.772,1167.63 443.732,1178.51 447.693,1193.17 451.654,1209.19 455.615,1221.56 459.576,1231.41 463.537,1238.31 467.498,1247.92 471.459,1258.64 475.419,1267.45 479.38,1275.05 483.341,1280.74 487.302,1286.73 491.263,1286.51 495.224,1289.79 499.185,1294.63 503.146,1300.16 507.107,1303.05 511.067,1303.76 515.028,1305.21 518.989,1307.4 522.95,1309.62 526.911,1313.55 530.872,1315.41 534.833,1314.76 538.794,1314.44 542.754,1318.11 546.715,1316.95 550.676,1316.44 554.637,1318.43 558.598,1318.27 562.559,1317.91 566.52,1316.2 570.481,1321.76 574.441,1315.32 578.402,1316.53 582.363,1320.42 586.324,1321.38 590.285,1330.66 594.246,1332.36 598.207,1333.43 602.168,1332.99 606.128,1333.14 610.089,1333.5 614.05,1334.39 618.011,1336.84 621.972,1339.18 625.933,1339.32 629.894,1339.41 633.855,1339.69 637.815,1341.47 641.776,1341.24 645.737,1341.6 649.698,1341.99 653.659,1343.05 657.62,1345.56 661.581,1346.1 665.542,1347.6 669.502,1346.84 673.463,1349.04 677.424,1350.32 681.385,1349.47 685.346,1349.9 689.307,1350.36 693.268,1351.39 697.229,1353.03 701.189,1353.43 705.15,1352.91 709.111,1352.22 713.072,1353.09 717.033,1351.83 720.994,1353.28 724.955,1353.5 728.916,1354.51 732.876,1355.19 736.837,1356.7 740.798,1357.89 744.759,1359.53 748.72,1360.28 752.681,1361.3 756.642,1360.76 760.603,1358.83 764.563,1359.94 768.524,1360.02 772.485,1360.78 776.446,1361.43 780.407,1362.27 784.368,1361.3 788.329,1360.11 792.29,1359.51 796.25,1356.25 800.211,1358.41 804.172,1356.42 808.133,1356.75 812.094,1355.34 816.055,1357.02 820.016,1355.87 823.977,1357.09 827.937,1359.05 831.898,1358.12 835.859,1360.91 839.82,1359.14 843.781,1360.05 847.742,1361.16 851.703,1359.59 855.664,1362.19 859.624,1359.56 863.585,1361.99 867.546,1361.16 871.507,1362.4 875.468,1362.31 879.429,1361.15 883.39,1362.37 887.351,1363.49 891.311,1362.18 895.272,1362.89 899.233,1363.24 903.194,1363.49 907.155,1363.81 911.116,1364.86 915.077,1364.22 919.038,1364.34 922.998,1364.58 926.959,1365.06 930.92,1366.21 934.881,1366.43 938.842,1366.31 942.803,1366.62 946.764,1367.14 950.725,1367.34 954.685,1368.19 958.646,1367.58 962.607,1368.15 966.568,1367.53 970.529,1368.32 974.49,1365.49 978.451,1366.04 982.412,1366.89 986.373,1366.49 990.333,1366.73 994.294,1366.31 998.255,1367.01 1002.22,1368.27 1006.18,1367.69 1010.14,1367.74 1014.1,1368.32 1018.06,1363.9 1022.02,1364.62 1025.98,1368.47 1029.94,1364.11 1033.9,1361.81 1037.86,1367.29 1041.82,1362.13 1045.79,1362.46 1049.75,1367.34 1053.71,1364.99 1057.67,1364.56 1061.63,1367.14 1065.59,1365.72 1069.55,1366.16 1073.51,1369.07 1077.47,1369.09 1081.43,1366.94 1085.39,1367.22 1089.36,1364.82 1093.32,1364.54 1097.28,1365.46 1101.24,1369.8 1105.2,1365.59 1109.16,1366.89 1113.12,1367.23 1117.08,1366.63 1121.04,1366.91 1125,1365.99 1128.96,1366.31 1132.92,1367.25 1136.89,1369.46 1140.85,1369.45 1144.81,1369.12 1148.77,1369.43 1152.73,1370.04 1156.69,1370 1160.65,1369.73 1164.61,1369.45 1168.57,1370.31 1172.53,1370.7 1176.49,1370.26 1180.46,1368.82 1184.42,1369.11 1188.38,1370.63 1192.34,1369.63 1196.3,1369.85 1200.26,1370.07 1204.22,1370.98 1208.18,1370.97 1212.14,1371.29 1216.1,1371.38 1220.06,1371.29 1224.03,1370.12 1227.99,1371.32 1231.95,1369.97 1235.91,1370.49 1239.87,1370.82 1243.83,1369.84 1247.79,1371.28 1251.75,1370.81 1255.71,1371.28 1259.67,1371.77 1263.63,1371.39 1267.59,1372.07 1271.56,1372.12 1275.52,1371.99 1279.48,1372.73 1283.44,1372.29 1287.4,1371.77 1291.36,1371.68 1295.32,1372.88 1299.28,1372.11 1303.24,1372.94 1307.2,1371.52 1311.16,1372.78 1315.13,1372.26 1319.09,1372.21 1323.05,1373.4 1327.01,1372.5 1330.97,1373.67 1334.93,1372.18 1338.89,1371.68 1342.85,1370.75 1346.81,1370.51 1350.77,1370.76 1354.73,1368.54 1358.69,1369.86 1362.66,1369 1366.62,1369.37 1370.58,1371.09 1374.54,1371.53 1378.5,1370 1382.46,1371.34 1386.42,1370.5 1390.38,1371.86 1394.34,1371.47 1398.3,1370.85 1402.26,1371.24 1406.23,1369.99 1410.19,1371.73 1414.15,1369.27 1418.11,1372.48 1422.07,1371.44 1426.03,1372.05 1429.99,1372.32 1433.95,1371.38 1437.91,1373.56 1441.87,1371.67 1445.83,1371.79 1449.79,1371.32 1453.76,1371.83 1457.72,1372.1 1461.68,1372.31 1465.64,1372.65 1469.6,1372.15 1473.56,1371.82 1477.52,1371.66 1481.48,1371.99 1485.44,1372.67 1489.4,1373.28 1493.36,1371.88 1497.33,1372.88 1501.29,1371.15 1505.25,1371.65 1509.21,1373.23 1513.17,1374.06 1517.13,1371.88 1521.09,1373 1525.05,1372.01 1529.01,1371.34 1532.97,1372.64 1536.93,1372.28 1540.9,1372.76 1544.86,1373.59 1548.82,1372.61 1552.78,1373.04 1556.74,1372.61 1560.7,1372.95 1564.66,1370.54 1568.62,1373.49 1572.58,1372.34 1576.54,1373.72 1580.5,1373.83 1584.46,1373.32 1588.43,1372.73 1592.39,1372.78 1596.35,1373.15 1600.31,1372.69 1604.27,1374.29 1608.23,1373.04 1612.19,1373.7 1616.15,1373.7 1620.11,1373.42 1624.07,1374.01 1628.03,1375.12 1632,1376.04 1635.96,1374.39 1639.92,1375.27 1643.88,1375 1647.84,1374.83 1651.8,1375.6 1655.76,1375.61 1659.72,1376.08 1663.68,1376.81 1667.64,1377.04 1671.6,1377 1675.56,1377.04 1679.53,1376.63 1683.49,1376.83 1687.45,1376.75 1691.41,1375.02 1695.37,1376.78 1699.33,1375.87 1703.29,1375.05 1707.25,1375.91 1711.21,1376.01 1715.17,1375.49 1719.13,1375.24 1723.1,1376.18 1727.06,1375.33 1731.02,1375.46 1734.98,1375.42 1738.94,1375.35 1742.9,1374.75 1746.86,1376.29 1750.82,1375.31 1754.78,1373.8 1758.74,1377.09 1762.7,1376.43 1766.67,1374.69 1770.63,1377.5 1774.59,1374.14 1778.55,1375.65 1782.51,1376.72 1786.47,1374.48 1790.43,1374.35 1794.39,1378.47 1798.35,1376.6 1802.31,1378.58 1806.27,1380.12 1810.23,1380.69 1814.2,1379.03 1818.16,1381.28 1822.12,1380.15 1826.08,1380.11 1830.04,1382.72 1834,1380.47 1837.96,1382.25 1841.92,1380.64 1845.88,1381.64 1849.84,1380.65 1853.8,1379.97 1857.77,1381.44 1861.73,1381.54 1865.69,1378.76 1869.65,1380.83 1873.61,1380.85 1877.57,1377.97 1881.53,1382 1885.49,1381.48 1889.45,1380.9 1893.41,1381.96 1897.37,1383.21 1901.33,1382.97 1905.3,1383.15 1909.26,1382.75 1913.22,1383.01 1917.18,1382.91 1921.14,1382.64 1925.1,1382.14 1929.06,1380.01 1933.02,1379.89 1936.98,1380.47 1940.94,1380.86 1944.9,1381.71 1948.87,1383.15 1952.83,1383.07 1956.79,1382.89 1960.75,1381.46 1964.71,1382.09 1968.67,1383.78 1972.63,1381.83 1976.59,1382.61 1980.55,1383.21 1984.51,1380.81 1988.47,1381 1992.44,1382.65 1996.4,1382.14 2000.36,1382.74 2004.32,1383.65 2008.28,1384.21 2012.24,1383.2 2016.2,1383.55 2020.16,1385.21 2024.12,1383.85 2028.08,1384.76 2032.04,1383.44 2036,1385.16 2039.97,1384.15 2043.93,1384.52 2047.89,1384.7 2051.85,1385.31 2055.81,1385.44 2059.77,1385.82 2063.73,1384.79 2067.69,1385.34 2071.65,1384.44 2075.61,1385.29 2079.57,1385.16 2083.54,1384.38 2087.5,1383.07 2091.46,1385.01 2095.42,1384.52 2099.38,1384.38 2103.34,1384.54 2107.3,1384.39 2111.26,1383.47 2115.22,1382.7 2119.18,1384.23 2123.14,1384.76 2127.1,1383.76 2131.07,1384.8 2135.03,1385.08 2138.99,1384.28 2142.95,1383.66 2146.91,1385.31 2150.87,1384.4 2154.83,1384.43 2158.79,1385.15 2162.75,1384.58 2166.71,1383.56 2170.67,1384.74 2174.64,1385.19 2178.6,1384.54 2182.56,1383.48 2186.52,1384.7 2190.48,1383.7 2194.44,1384.81 2198.4,1384.26 2202.36,1384.15 2206.32,1385.1 2210.28,1384.49 2214.24,1384.57 2218.2,1385.39 2222.17,1383.36 2226.13,1384.78 2230.09,1384.58 2234.05,1385.91 2238.01,1385.6 2241.97,1385.03 2245.93,1384.18 2249.89,1384.66 2253.85,1384.95 2257.81,1385.1 2261.77,1384.81 2265.74,1384.13 2269.7,1384.93 2273.66,1384.04 2277.62,1384.63 2281.58,1384.53 2285.54,1384.5 2289.5,1384.09 2293.46,1383.95 "/>
</svg>
