<?xml version="1.0" encoding="utf-8"?>
<svg xmlns="http://www.w3.org/2000/svg" xmlns:xlink="http://www.w3.org/1999/xlink" width="600" height="400" viewBox="0 0 2400 1600">
<defs>
  <clipPath id="clip880">
    <rect x="0" y="0" width="2400" height="1600"/>
  </clipPath>
</defs>
<path clip-path="url(#clip880)" d="M0 1600 L2400 1600 L2400 0 L0 0  Z" fill="#ffffff" fill-rule="evenodd" fill-opacity="1"/>
<defs>
  <clipPath id="clip881">
    <rect x="480" y="0" width="1681" height="1600"/>
  </clipPath>
</defs>
<path clip-path="url(#clip880)" d="M140.696 1486.45 L2352.76 1486.45 L2352.76 106.192 L140.696 106.192  Z" fill="#ffffff" fill-rule="evenodd" fill-opacity="1"/>
<defs>
  <clipPath id="clip882">
    <rect x="140" y="106" width="2213" height="1381"/>
  </clipPath>
</defs>
<polyline clip-path="url(#clip882)" style="stroke:#000000; stroke-linecap:round; stroke-linejoin:round; stroke-width:2; stroke-opacity:0.1; fill:none" points="203.301,1486.45 203.301,106.192 "/>
<polyline clip-path="url(#clip882)" style="stroke:#000000; stroke-linecap:round; stroke-linejoin:round; stroke-width:2; stroke-opacity:0.1; fill:none" points="725.013,1486.45 725.013,106.192 "/>
<polyline clip-path="url(#clip882)" style="stroke:#000000; stroke-linecap:round; stroke-linejoin:round; stroke-width:2; stroke-opacity:0.1; fill:none" points="1246.73,1486.45 1246.73,106.192 "/>
<polyline clip-path="url(#clip882)" style="stroke:#000000; stroke-linecap:round; stroke-linejoin:round; stroke-width:2; stroke-opacity:0.1; fill:none" points="1768.44,1486.45 1768.44,106.192 "/>
<polyline clip-path="url(#clip882)" style="stroke:#000000; stroke-linecap:round; stroke-linejoin:round; stroke-width:2; stroke-opacity:0.1; fill:none" points="2290.15,1486.45 2290.15,106.192 "/>
<polyline clip-path="url(#clip880)" style="stroke:#000000; stroke-linecap:round; stroke-linejoin:round; stroke-width:4; stroke-opacity:1; fill:none" points="140.696,1486.45 2352.76,1486.45 "/>
<polyline clip-path="url(#clip880)" style="stroke:#000000; stroke-linecap:round; stroke-linejoin:round; stroke-width:4; stroke-opacity:1; fill:none" points="203.301,1486.45 203.301,1467.55 "/>
<polyline clip-path="url(#clip880)" style="stroke:#000000; stroke-linecap:round; stroke-linejoin:round; stroke-width:4; stroke-opacity:1; fill:none" points="725.013,1486.45 725.013,1467.55 "/>
<polyline clip-path="url(#clip880)" style="stroke:#000000; stroke-linecap:round; stroke-linejoin:round; stroke-width:4; stroke-opacity:1; fill:none" points="1246.73,1486.45 1246.73,1467.55 "/>
<polyline clip-path="url(#clip880)" style="stroke:#000000; stroke-linecap:round; stroke-linejoin:round; stroke-width:4; stroke-opacity:1; fill:none" points="1768.44,1486.45 1768.44,1467.55 "/>
<polyline clip-path="url(#clip880)" style="stroke:#000000; stroke-linecap:round; stroke-linejoin:round; stroke-width:4; stroke-opacity:1; fill:none" points="2290.15,1486.45 2290.15,1467.55 "/>
<path clip-path="url(#clip880)" d="M157.364 1532.02 L187.04 1532.02 L187.04 1535.95 L157.364 1535.95 L157.364 1532.02 Z" fill="#000000" fill-rule="nonzero" fill-opacity="1" /><path clip-path="url(#clip880)" d="M197.942 1544.91 L205.581 1544.91 L205.581 1518.55 L197.271 1520.21 L197.271 1515.95 L205.535 1514.29 L210.211 1514.29 L210.211 1544.91 L217.85 1544.91 L217.85 1548.85 L197.942 1548.85 L197.942 1544.91 Z" fill="#000000" fill-rule="nonzero" fill-opacity="1" /><path clip-path="url(#clip880)" d="M237.294 1517.37 Q233.683 1517.37 231.854 1520.93 Q230.049 1524.47 230.049 1531.6 Q230.049 1538.71 231.854 1542.27 Q233.683 1545.82 237.294 1545.82 Q240.928 1545.82 242.734 1542.27 Q244.562 1538.71 244.562 1531.6 Q244.562 1524.47 242.734 1520.93 Q240.928 1517.37 237.294 1517.37 M237.294 1513.66 Q243.104 1513.66 246.16 1518.27 Q249.238 1522.85 249.238 1531.6 Q249.238 1540.33 246.16 1544.94 Q243.104 1549.52 237.294 1549.52 Q231.484 1549.52 228.405 1544.94 Q225.35 1540.33 225.35 1531.6 Q225.35 1522.85 228.405 1518.27 Q231.484 1513.66 237.294 1513.66 Z" fill="#000000" fill-rule="nonzero" fill-opacity="1" /><path clip-path="url(#clip880)" d="M694.655 1532.02 L724.331 1532.02 L724.331 1535.95 L694.655 1535.95 L694.655 1532.02 Z" fill="#000000" fill-rule="nonzero" fill-opacity="1" /><path clip-path="url(#clip880)" d="M734.469 1514.29 L752.826 1514.29 L752.826 1518.22 L738.752 1518.22 L738.752 1526.7 Q739.77 1526.35 740.789 1526.19 Q741.807 1526 742.826 1526 Q748.613 1526 751.992 1529.17 Q755.372 1532.34 755.372 1537.76 Q755.372 1543.34 751.9 1546.44 Q748.428 1549.52 742.108 1549.52 Q739.932 1549.52 737.664 1549.15 Q735.418 1548.78 733.011 1548.04 L733.011 1543.34 Q735.094 1544.47 737.317 1545.03 Q739.539 1545.58 742.016 1545.58 Q746.02 1545.58 748.358 1543.48 Q750.696 1541.37 750.696 1537.76 Q750.696 1534.15 748.358 1532.04 Q746.02 1529.94 742.016 1529.94 Q740.141 1529.94 738.266 1530.35 Q736.414 1530.77 734.469 1531.65 L734.469 1514.29 Z" fill="#000000" fill-rule="nonzero" fill-opacity="1" /><path clip-path="url(#clip880)" d="M1246.73 1517.37 Q1243.11 1517.37 1241.29 1520.93 Q1239.48 1524.47 1239.48 1531.6 Q1239.48 1538.71 1241.29 1542.27 Q1243.11 1545.82 1246.73 1545.82 Q1250.36 1545.82 1252.17 1542.27 Q1253.99 1538.71 1253.99 1531.6 Q1253.99 1524.47 1252.17 1520.93 Q1250.36 1517.37 1246.73 1517.37 M1246.73 1513.66 Q1252.54 1513.66 1255.59 1518.27 Q1258.67 1522.85 1258.67 1531.6 Q1258.67 1540.33 1255.59 1544.94 Q1252.54 1549.52 1246.73 1549.52 Q1240.92 1549.52 1237.84 1544.94 Q1234.78 1540.33 1234.78 1531.6 Q1234.78 1522.85 1237.84 1518.27 Q1240.92 1513.66 1246.73 1513.66 Z" fill="#000000" fill-rule="nonzero" fill-opacity="1" /><path clip-path="url(#clip880)" d="M1758.72 1514.29 L1777.07 1514.29 L1777.07 1518.22 L1763 1518.22 L1763 1526.7 Q1764.02 1526.35 1765.04 1526.19 Q1766.05 1526 1767.07 1526 Q1772.86 1526 1776.24 1529.17 Q1779.62 1532.34 1779.62 1537.76 Q1779.62 1543.34 1776.15 1546.44 Q1772.67 1549.52 1766.35 1549.52 Q1764.18 1549.52 1761.91 1549.15 Q1759.66 1548.78 1757.26 1548.04 L1757.26 1543.34 Q1759.34 1544.47 1761.56 1545.03 Q1763.79 1545.58 1766.26 1545.58 Q1770.27 1545.58 1772.6 1543.48 Q1774.94 1541.37 1774.94 1537.76 Q1774.94 1534.15 1772.6 1532.04 Q1770.27 1529.94 1766.26 1529.94 Q1764.39 1529.94 1762.51 1530.35 Q1760.66 1530.77 1758.72 1531.65 L1758.72 1514.29 Z" fill="#000000" fill-rule="nonzero" fill-opacity="1" /><path clip-path="url(#clip880)" d="M2264.84 1544.91 L2272.48 1544.91 L2272.48 1518.55 L2264.17 1520.21 L2264.17 1515.95 L2272.43 1514.29 L2277.11 1514.29 L2277.11 1544.91 L2284.75 1544.91 L2284.75 1548.85 L2264.84 1548.85 L2264.84 1544.91 Z" fill="#000000" fill-rule="nonzero" fill-opacity="1" /><path clip-path="url(#clip880)" d="M2304.19 1517.37 Q2300.58 1517.37 2298.75 1520.93 Q2296.94 1524.47 2296.94 1531.6 Q2296.94 1538.71 2298.75 1542.27 Q2300.58 1545.82 2304.19 1545.82 Q2307.82 1545.82 2309.63 1542.27 Q2311.46 1538.71 2311.46 1531.6 Q2311.46 1524.47 2309.63 1520.93 Q2307.82 1517.37 2304.19 1517.37 M2304.19 1513.66 Q2310 1513.66 2313.06 1518.27 Q2316.13 1522.85 2316.13 1531.6 Q2316.13 1540.33 2313.06 1544.94 Q2310 1549.52 2304.19 1549.52 Q2298.38 1549.52 2295.3 1544.94 Q2292.25 1540.33 2292.25 1531.6 Q2292.25 1522.85 2295.3 1518.27 Q2298.38 1513.66 2304.19 1513.66 Z" fill="#000000" fill-rule="nonzero" fill-opacity="1" /><polyline clip-path="url(#clip882)" style="stroke:#000000; stroke-linecap:round; stroke-linejoin:round; stroke-width:2; stroke-opacity:0.1; fill:none" points="140.696,1181.45 2352.76,1181.45 "/>
<polyline clip-path="url(#clip882)" style="stroke:#000000; stroke-linecap:round; stroke-linejoin:round; stroke-width:2; stroke-opacity:0.1; fill:none" points="140.696,846.352 2352.76,846.352 "/>
<polyline clip-path="url(#clip882)" style="stroke:#000000; stroke-linecap:round; stroke-linejoin:round; stroke-width:2; stroke-opacity:0.1; fill:none" points="140.696,511.251 2352.76,511.251 "/>
<polyline clip-path="url(#clip882)" style="stroke:#000000; stroke-linecap:round; stroke-linejoin:round; stroke-width:2; stroke-opacity:0.1; fill:none" points="140.696,176.151 2352.76,176.151 "/>
<polyline clip-path="url(#clip880)" style="stroke:#000000; stroke-linecap:round; stroke-linejoin:round; stroke-width:4; stroke-opacity:1; fill:none" points="140.696,1486.45 140.696,106.192 "/>
<polyline clip-path="url(#clip880)" style="stroke:#000000; stroke-linecap:round; stroke-linejoin:round; stroke-width:4; stroke-opacity:1; fill:none" points="140.696,1181.45 159.593,1181.45 "/>
<polyline clip-path="url(#clip880)" style="stroke:#000000; stroke-linecap:round; stroke-linejoin:round; stroke-width:4; stroke-opacity:1; fill:none" points="140.696,846.352 159.593,846.352 "/>
<polyline clip-path="url(#clip880)" style="stroke:#000000; stroke-linecap:round; stroke-linejoin:round; stroke-width:4; stroke-opacity:1; fill:none" points="140.696,511.251 159.593,511.251 "/>
<polyline clip-path="url(#clip880)" style="stroke:#000000; stroke-linecap:round; stroke-linejoin:round; stroke-width:4; stroke-opacity:1; fill:none" points="140.696,176.151 159.593,176.151 "/>
<path clip-path="url(#clip880)" d="M92.7512 1167.25 Q89.1401 1167.25 87.3114 1170.82 Q85.5058 1174.36 85.5058 1181.49 Q85.5058 1188.59 87.3114 1192.16 Q89.1401 1195.7 92.7512 1195.7 Q96.3854 1195.7 98.1909 1192.16 Q100.02 1188.59 100.02 1181.49 Q100.02 1174.36 98.1909 1170.82 Q96.3854 1167.25 92.7512 1167.25 M92.7512 1163.55 Q98.5613 1163.55 101.617 1168.15 Q104.696 1172.74 104.696 1181.49 Q104.696 1190.21 101.617 1194.82 Q98.5613 1199.4 92.7512 1199.4 Q86.941 1199.4 83.8623 1194.82 Q80.8068 1190.21 80.8068 1181.49 Q80.8068 1172.74 83.8623 1168.15 Q86.941 1163.55 92.7512 1163.55 Z" fill="#000000" fill-rule="nonzero" fill-opacity="1" /><path clip-path="url(#clip880)" d="M53.3995 859.697 L61.0384 859.697 L61.0384 833.331 L52.7282 834.998 L52.7282 830.738 L60.9921 829.072 L65.668 829.072 L65.668 859.697 L73.3068 859.697 L73.3068 863.632 L53.3995 863.632 L53.3995 859.697 Z" fill="#000000" fill-rule="nonzero" fill-opacity="1" /><path clip-path="url(#clip880)" d="M92.7512 832.15 Q89.1401 832.15 87.3114 835.715 Q85.5058 839.257 85.5058 846.386 Q85.5058 853.493 87.3114 857.058 Q89.1401 860.599 92.7512 860.599 Q96.3854 860.599 98.1909 857.058 Q100.02 853.493 100.02 846.386 Q100.02 839.257 98.1909 835.715 Q96.3854 832.15 92.7512 832.15 M92.7512 828.447 Q98.5613 828.447 101.617 833.053 Q104.696 837.637 104.696 846.386 Q104.696 855.113 101.617 859.72 Q98.5613 864.303 92.7512 864.303 Q86.941 864.303 83.8623 859.72 Q80.8068 855.113 80.8068 846.386 Q80.8068 837.637 83.8623 833.053 Q86.941 828.447 92.7512 828.447 Z" fill="#000000" fill-rule="nonzero" fill-opacity="1" /><path clip-path="url(#clip880)" d="M56.6171 524.596 L72.9365 524.596 L72.9365 528.531 L50.9921 528.531 L50.9921 524.596 Q53.6541 521.842 58.2375 517.212 Q62.8439 512.559 64.0245 511.217 Q66.2698 508.694 67.1494 506.957 Q68.0522 505.198 68.0522 503.508 Q68.0522 500.754 66.1078 499.018 Q64.1865 497.282 61.0847 497.282 Q58.8856 497.282 56.4319 498.046 Q54.0014 498.809 51.2236 500.36 L51.2236 495.638 Q54.0477 494.504 56.5014 493.925 Q58.955 493.346 60.9921 493.346 Q66.3624 493.346 69.5568 496.032 Q72.7513 498.717 72.7513 503.208 Q72.7513 505.337 71.9411 507.258 Q71.1541 509.157 69.0476 511.749 Q68.4689 512.42 65.367 515.638 Q62.2652 518.832 56.6171 524.596 Z" fill="#000000" fill-rule="nonzero" fill-opacity="1" /><path clip-path="url(#clip880)" d="M92.7512 497.05 Q89.1401 497.05 87.3114 500.615 Q85.5058 504.157 85.5058 511.286 Q85.5058 518.393 87.3114 521.957 Q89.1401 525.499 92.7512 525.499 Q96.3854 525.499 98.1909 521.957 Q100.02 518.393 100.02 511.286 Q100.02 504.157 98.1909 500.615 Q96.3854 497.05 92.7512 497.05 M92.7512 493.346 Q98.5613 493.346 101.617 497.953 Q104.696 502.536 104.696 511.286 Q104.696 520.013 101.617 524.619 Q98.5613 529.203 92.7512 529.203 Q86.941 529.203 83.8623 524.619 Q80.8068 520.013 80.8068 511.286 Q80.8068 502.536 83.8623 497.953 Q86.941 493.346 92.7512 493.346 Z" fill="#000000" fill-rule="nonzero" fill-opacity="1" /><path clip-path="url(#clip880)" d="M66.7559 174.797 Q70.1124 175.515 71.9874 177.783 Q73.8855 180.052 73.8855 183.385 Q73.8855 188.501 70.367 191.302 Q66.8485 194.102 60.3671 194.102 Q58.1912 194.102 55.8764 193.663 Q53.5847 193.246 51.131 192.389 L51.131 187.876 Q53.0754 189.01 55.3903 189.589 Q57.7051 190.167 60.2282 190.167 Q64.6263 190.167 66.918 188.431 Q69.2328 186.695 69.2328 183.385 Q69.2328 180.329 67.08 178.616 Q64.9504 176.88 61.131 176.88 L57.1032 176.88 L57.1032 173.038 L61.3161 173.038 Q64.7652 173.038 66.5939 171.672 Q68.4226 170.283 68.4226 167.691 Q68.4226 165.029 66.5245 163.617 Q64.6495 162.181 61.131 162.181 Q59.2097 162.181 57.0106 162.598 Q54.8115 163.015 52.1727 163.894 L52.1727 159.728 Q54.8347 158.987 57.1495 158.617 Q59.4875 158.246 61.5476 158.246 Q66.8717 158.246 69.9735 160.677 Q73.0753 163.084 73.0753 167.204 Q73.0753 170.075 71.4318 172.066 Q69.7883 174.033 66.7559 174.797 Z" fill="#000000" fill-rule="nonzero" fill-opacity="1" /><path clip-path="url(#clip880)" d="M92.7512 161.95 Q89.1401 161.95 87.3114 165.515 Q85.5058 169.056 85.5058 176.186 Q85.5058 183.292 87.3114 186.857 Q89.1401 190.399 92.7512 190.399 Q96.3854 190.399 98.1909 186.857 Q100.02 183.292 100.02 176.186 Q100.02 169.056 98.1909 165.515 Q96.3854 161.95 92.7512 161.95 M92.7512 158.246 Q98.5613 158.246 101.617 162.853 Q104.696 167.436 104.696 176.186 Q104.696 184.913 101.617 189.519 Q98.5613 194.102 92.7512 194.102 Q86.941 194.102 83.8623 189.519 Q80.8068 184.913 80.8068 176.186 Q80.8068 167.436 83.8623 162.853 Q86.941 158.246 92.7512 158.246 Z" fill="#000000" fill-rule="nonzero" fill-opacity="1" /><path clip-path="url(#clip880)" d="M1160.15 8.64 L1184.98 8.64 L1184.98 13.559 L1166 13.559 L1166 26.2904 L1183.13 26.2904 L1183.13 31.2093 L1166 31.2093 L1166 51.84 L1160.15 51.84 L1160.15 8.64 Z" fill="#000000" fill-rule="nonzero" fill-opacity="1" /><path clip-path="url(#clip880)" d="M1189.69 19.4328 L1195.02 19.4328 L1195.02 51.84 L1189.69 51.84 L1189.69 19.4328 M1189.69 6.81709 L1195.02 6.81709 L1195.02 13.559 L1189.69 13.559 L1189.69 6.81709 Z" fill="#000000" fill-rule="nonzero" fill-opacity="1" /><path clip-path="url(#clip880)" d="M1211.42 10.2314 L1211.42 19.4328 L1222.39 19.4328 L1222.39 23.5705 L1211.42 23.5705 L1211.42 41.163 Q1211.42 45.1271 1212.5 46.2555 Q1213.6 47.384 1216.92 47.384 L1222.39 47.384 L1222.39 51.84 L1216.92 51.84 Q1210.76 51.84 1208.42 49.5541 Q1206.07 47.2393 1206.07 41.163 L1206.07 23.5705 L1202.17 23.5705 L1202.17 19.4328 L1206.07 19.4328 L1206.07 10.2314 L1211.42 10.2314 Z" fill="#000000" fill-rule="nonzero" fill-opacity="1" /><path clip-path="url(#clip880)" d="M1234.66 10.2314 L1234.66 19.4328 L1245.63 19.4328 L1245.63 23.5705 L1234.66 23.5705 L1234.66 41.163 Q1234.66 45.1271 1235.73 46.2555 Q1236.83 47.384 1240.16 47.384 L1245.63 47.384 L1245.63 51.84 L1240.16 51.84 Q1233.99 51.84 1231.65 49.5541 Q1229.31 47.2393 1229.31 41.163 L1229.31 23.5705 L1225.4 23.5705 L1225.4 19.4328 L1229.31 19.4328 L1229.31 10.2314 L1234.66 10.2314 Z" fill="#000000" fill-rule="nonzero" fill-opacity="1" /><path clip-path="url(#clip880)" d="M1252.63 19.4328 L1257.95 19.4328 L1257.95 51.84 L1252.63 51.84 L1252.63 19.4328 M1252.63 6.81709 L1257.95 6.81709 L1257.95 13.559 L1252.63 13.559 L1252.63 6.81709 Z" fill="#000000" fill-rule="nonzero" fill-opacity="1" /><path clip-path="url(#clip880)" d="M1296.03 32.2799 L1296.03 51.84 L1290.71 51.84 L1290.71 32.4535 Q1290.71 27.8529 1288.91 25.567 Q1287.12 23.2811 1283.53 23.2811 Q1279.22 23.2811 1276.73 26.03 Q1274.24 28.7788 1274.24 33.5241 L1274.24 51.84 L1268.89 51.84 L1268.89 19.4328 L1274.24 19.4328 L1274.24 24.4675 Q1276.15 21.545 1278.73 20.0983 Q1281.33 18.6515 1284.72 18.6515 Q1290.3 18.6515 1293.17 22.1237 Q1296.03 25.567 1296.03 32.2799 Z" fill="#000000" fill-rule="nonzero" fill-opacity="1" /><path clip-path="url(#clip880)" d="M1327.98 35.2602 Q1327.98 29.4732 1325.57 26.2904 Q1323.2 23.1075 1318.89 23.1075 Q1314.61 23.1075 1312.21 26.2904 Q1309.83 29.4732 1309.83 35.2602 Q1309.83 41.0183 1312.21 44.2012 Q1314.61 47.384 1318.89 47.384 Q1323.2 47.384 1325.57 44.2012 Q1327.98 41.0183 1327.98 35.2602 M1333.3 47.818 Q1333.3 56.0934 1329.62 60.1154 Q1325.95 64.1663 1318.37 64.1663 Q1315.56 64.1663 1313.07 63.7323 Q1310.59 63.3272 1308.24 62.4592 L1308.24 57.2798 Q1310.59 58.5529 1312.87 59.1606 Q1315.16 59.7682 1317.53 59.7682 Q1322.77 59.7682 1325.37 57.0194 Q1327.98 54.2995 1327.98 48.7729 L1327.98 46.1398 Q1326.33 49.0044 1323.75 50.4222 Q1321.18 51.84 1317.59 51.84 Q1311.63 51.84 1307.98 47.2972 Q1304.34 42.7544 1304.34 35.2602 Q1304.34 27.7371 1307.98 23.1943 Q1311.63 18.6515 1317.59 18.6515 Q1321.18 18.6515 1323.75 20.0693 Q1326.33 21.4872 1327.98 24.3517 L1327.98 19.4328 L1333.3 19.4328 L1333.3 47.818 Z" fill="#000000" fill-rule="nonzero" fill-opacity="1" /><polyline clip-path="url(#clip882)" style="stroke:#009af9; stroke-linecap:round; stroke-linejoin:round; stroke-width:16; stroke-opacity:1; fill:none" points="203.301,946.882 213.788,950.25 224.274,953.618 234.761,956.985 245.248,960.353 255.734,963.721 266.221,967.089 276.708,970.457 287.194,973.825 297.681,977.192 308.168,980.56 318.655,983.928 329.141,987.296 339.628,990.664 350.115,994.032 360.601,997.399 371.088,1000.77 381.575,1004.14 392.061,1007.5 402.548,1010.87 413.035,1014.24 423.521,1017.61 434.008,1020.97 444.495,1024.34 454.981,1027.71 465.468,1031.08 475.955,1034.45 486.441,1037.81 496.928,1041.18 507.415,1044.55 517.901,1047.92 528.388,1051.28 538.875,1054.65 549.361,1058.02 559.848,1061.39 570.335,1064.76 580.822,1068.12 591.308,1071.49 601.795,1074.86 612.282,1078.23 622.768,1081.6 633.255,1084.96 643.742,1088.33 654.228,1091.7 664.715,1095.07 675.202,1098.43 685.688,1101.8 696.175,1105.17 706.662,1108.54 717.148,1111.91 727.635,1115.27 738.122,1118.64 748.608,1122.01 759.095,1125.38 769.582,1128.75 780.068,1132.11 790.555,1135.48 801.042,1138.85 811.528,1142.22 822.015,1145.58 832.502,1148.95 842.989,1152.32 853.475,1155.69 863.962,1159.06 874.449,1162.42 884.935,1165.79 895.422,1169.16 905.909,1172.53 916.395,1175.9 926.882,1179.26 937.369,1182.63 947.855,1186 958.342,1189.37 968.829,1192.73 979.315,1196.1 989.802,1199.47 1000.29,1202.84 1010.78,1206.2 1021.26,1209.57 1031.75,1212.93 1042.24,1216.3 1052.72,1219.65 1063.21,1223 1073.7,1226.33 1084.18,1229.62 1094.67,1232.86 1105.16,1235.99 1115.64,1238.92 1126.13,1241.51 1136.62,1243.45 1147.1,1244.27 1157.59,1243.15 1168.08,1238.82 1178.56,1229.62 1189.05,1213.97 1199.54,1191.69 1210.02,1165.31 1220.51,1139.68 1231,1119.18 1241.48,1105.5 1251.97,1097.88 1262.46,1094.63 1272.94,1094.17 1283.43,1095.38 1293.92,1097.55 1304.4,1100.25 1314.89,1103.26 1325.38,1106.42 1335.86,1109.68 1346.35,1112.99 1356.84,1116.32 1367.32,1119.67 1377.81,1123.03 1388.3,1126.39 1398.78,1129.76 1409.27,1133.13 1419.76,1136.49 1430.24,1139.86 1440.73,1143.23 1451.22,1146.6 1461.7,1149.96 1472.19,1153.33 1482.68,1156.7 1493.16,1160.07 1503.65,1163.43 1514.14,1166.8 1524.62,1170.17 1535.11,1173.54 1545.6,1176.91 1556.08,1180.27 1566.57,1183.64 1577.06,1187.01 1587.54,1190.38 1598.03,1193.74 1608.52,1197.11 1619,1200.48 1629.49,1203.85 1639.98,1207.22 1650.46,1210.58 1660.95,1213.95 1671.44,1217.32 1681.92,1220.69 1692.41,1224.06 1702.9,1227.42 1713.38,1230.79 1723.87,1234.16 1734.36,1237.53 1744.84,1240.89 1755.33,1244.26 1765.82,1247.63 1776.3,1251 1786.79,1254.37 1797.28,1257.73 1807.76,1261.1 1818.25,1264.47 1828.74,1267.84 1839.22,1271.21 1849.71,1274.57 1860.2,1277.94 1870.68,1281.31 1881.17,1284.68 1891.66,1288.04 1902.14,1291.41 1912.63,1294.78 1923.12,1298.15 1933.6,1301.52 1944.09,1304.88 1954.58,1308.25 1965.06,1311.62 1975.55,1314.99 1986.04,1318.35 1996.52,1321.72 2007.01,1325.09 2017.5,1328.46 2027.98,1331.83 2038.47,1335.19 2048.96,1338.56 2059.44,1341.93 2069.93,1345.3 2080.42,1348.67 2090.9,1352.03 2101.39,1355.4 2111.88,1358.77 2122.36,1362.14 2132.85,1365.5 2143.34,1368.87 2153.82,1372.24 2164.31,1375.61 2174.8,1378.98 2185.28,1382.34 2195.77,1385.71 2206.26,1389.08 2216.74,1392.45 2227.23,1395.82 2237.72,1399.18 2248.2,1402.55 2258.69,1405.92 2269.18,1409.29 2279.66,1412.65 2290.15,1416.02 "/>
<circle clip-path="url(#clip882)" cx="1493.45" cy="1160.16" r="7.2" fill="#e26f46" fill-rule="evenodd" fill-opacity="1" stroke="#000000" stroke-opacity="1" stroke-width="3.2"/>
<circle clip-path="url(#clip882)" cx="1420.92" cy="1136.87" r="7.2" fill="#e26f46" fill-rule="evenodd" fill-opacity="1" stroke="#000000" stroke-opacity="1" stroke-width="3.2"/>
<circle clip-path="url(#clip882)" cx="1613.55" cy="1198.73" r="7.2" fill="#e26f46" fill-rule="evenodd" fill-opacity="1" stroke="#000000" stroke-opacity="1" stroke-width="3.2"/>
<circle clip-path="url(#clip882)" cx="1644.78" cy="1208.76" r="7.2" fill="#e26f46" fill-rule="evenodd" fill-opacity="1" stroke="#000000" stroke-opacity="1" stroke-width="3.2"/>
<circle clip-path="url(#clip882)" cx="1509.92" cy="1165.45" r="7.2" fill="#e26f46" fill-rule="evenodd" fill-opacity="1" stroke="#000000" stroke-opacity="1" stroke-width="3.2"/>
<circle clip-path="url(#clip882)" cx="930.21" cy="1180.33" r="7.2" fill="#e26f46" fill-rule="evenodd" fill-opacity="1" stroke="#000000" stroke-opacity="1" stroke-width="3.2"/>
<circle clip-path="url(#clip882)" cx="1525.28" cy="1170.38" r="7.2" fill="#e26f46" fill-rule="evenodd" fill-opacity="1" stroke="#000000" stroke-opacity="1" stroke-width="3.2"/>
<circle clip-path="url(#clip882)" cx="1582.25" cy="1188.68" r="7.2" fill="#e26f46" fill-rule="evenodd" fill-opacity="1" stroke="#000000" stroke-opacity="1" stroke-width="3.2"/>
<circle clip-path="url(#clip882)" cx="1601.56" cy="1194.88" r="7.2" fill="#e26f46" fill-rule="evenodd" fill-opacity="1" stroke="#000000" stroke-opacity="1" stroke-width="3.2"/>
<circle clip-path="url(#clip882)" cx="883.722" cy="1165.4" r="7.2" fill="#e26f46" fill-rule="evenodd" fill-opacity="1" stroke="#000000" stroke-opacity="1" stroke-width="3.2"/>
<circle clip-path="url(#clip882)" cx="1445.6" cy="1144.79" r="7.2" fill="#e26f46" fill-rule="evenodd" fill-opacity="1" stroke="#000000" stroke-opacity="1" stroke-width="3.2"/>
<circle clip-path="url(#clip882)" cx="1532.45" cy="1172.68" r="7.2" fill="#e26f46" fill-rule="evenodd" fill-opacity="1" stroke="#000000" stroke-opacity="1" stroke-width="3.2"/>
<circle clip-path="url(#clip882)" cx="1570.23" cy="1184.82" r="7.2" fill="#e26f46" fill-rule="evenodd" fill-opacity="1" stroke="#000000" stroke-opacity="1" stroke-width="3.2"/>
<circle clip-path="url(#clip882)" cx="1440.53" cy="1143.16" r="7.2" fill="#e26f46" fill-rule="evenodd" fill-opacity="1" stroke="#000000" stroke-opacity="1" stroke-width="3.2"/>
<circle clip-path="url(#clip882)" cx="1319.56" cy="1104.65" r="7.2" fill="#e26f46" fill-rule="evenodd" fill-opacity="1" stroke="#000000" stroke-opacity="1" stroke-width="3.2"/>
<circle clip-path="url(#clip882)" cx="1495.9" cy="1160.95" r="7.2" fill="#e26f46" fill-rule="evenodd" fill-opacity="1" stroke="#000000" stroke-opacity="1" stroke-width="3.2"/>
<circle clip-path="url(#clip882)" cx="1507.89" cy="1164.8" r="7.2" fill="#e26f46" fill-rule="evenodd" fill-opacity="1" stroke="#000000" stroke-opacity="1" stroke-width="3.2"/>
<circle clip-path="url(#clip882)" cx="1402.04" cy="1130.81" r="7.2" fill="#e26f46" fill-rule="evenodd" fill-opacity="1" stroke="#000000" stroke-opacity="1" stroke-width="3.2"/>
<circle clip-path="url(#clip882)" cx="1692.92" cy="1224.22" r="7.2" fill="#e26f46" fill-rule="evenodd" fill-opacity="1" stroke="#000000" stroke-opacity="1" stroke-width="3.2"/>
<circle clip-path="url(#clip882)" cx="1553.07" cy="1179.31" r="7.2" fill="#e26f46" fill-rule="evenodd" fill-opacity="1" stroke="#000000" stroke-opacity="1" stroke-width="3.2"/>
<circle clip-path="url(#clip882)" cx="904.469" cy="1172.06" r="7.2" fill="#e26f46" fill-rule="evenodd" fill-opacity="1" stroke="#000000" stroke-opacity="1" stroke-width="3.2"/>
<circle clip-path="url(#clip882)" cx="1010.19" cy="1206.01" r="7.2" fill="#e26f46" fill-rule="evenodd" fill-opacity="1" stroke="#000000" stroke-opacity="1" stroke-width="3.2"/>
<circle clip-path="url(#clip882)" cx="1055.14" cy="1220.43" r="7.2" fill="#e26f46" fill-rule="evenodd" fill-opacity="1" stroke="#000000" stroke-opacity="1" stroke-width="3.2"/>
<circle clip-path="url(#clip882)" cx="1685.18" cy="1221.73" r="7.2" fill="#e26f46" fill-rule="evenodd" fill-opacity="1" stroke="#000000" stroke-opacity="1" stroke-width="3.2"/>
<circle clip-path="url(#clip882)" cx="1525.01" cy="1170.29" r="7.2" fill="#e26f46" fill-rule="evenodd" fill-opacity="1" stroke="#000000" stroke-opacity="1" stroke-width="3.2"/>
<circle clip-path="url(#clip882)" cx="1640.4" cy="1207.35" r="7.2" fill="#e26f46" fill-rule="evenodd" fill-opacity="1" stroke="#000000" stroke-opacity="1" stroke-width="3.2"/>
<circle clip-path="url(#clip882)" cx="1659.69" cy="1213.55" r="7.2" fill="#e26f46" fill-rule="evenodd" fill-opacity="1" stroke="#000000" stroke-opacity="1" stroke-width="3.2"/>
<circle clip-path="url(#clip882)" cx="1569.96" cy="1184.73" r="7.2" fill="#e26f46" fill-rule="evenodd" fill-opacity="1" stroke="#000000" stroke-opacity="1" stroke-width="3.2"/>
<circle clip-path="url(#clip882)" cx="1588.36" cy="1190.64" r="7.2" fill="#e26f46" fill-rule="evenodd" fill-opacity="1" stroke="#000000" stroke-opacity="1" stroke-width="3.2"/>
<circle clip-path="url(#clip882)" cx="1410.84" cy="1133.63" r="7.2" fill="#e26f46" fill-rule="evenodd" fill-opacity="1" stroke="#000000" stroke-opacity="1" stroke-width="3.2"/>
<circle clip-path="url(#clip882)" cx="1512.11" cy="1166.15" r="7.2" fill="#e26f46" fill-rule="evenodd" fill-opacity="1" stroke="#000000" stroke-opacity="1" stroke-width="3.2"/>
<circle clip-path="url(#clip882)" cx="1551.98" cy="1178.95" r="7.2" fill="#e26f46" fill-rule="evenodd" fill-opacity="1" stroke="#000000" stroke-opacity="1" stroke-width="3.2"/>
<circle clip-path="url(#clip882)" cx="1591.53" cy="1191.66" r="7.2" fill="#e26f46" fill-rule="evenodd" fill-opacity="1" stroke="#000000" stroke-opacity="1" stroke-width="3.2"/>
<circle clip-path="url(#clip882)" cx="1730.97" cy="1236.44" r="7.2" fill="#e26f46" fill-rule="evenodd" fill-opacity="1" stroke="#000000" stroke-opacity="1" stroke-width="3.2"/>
<circle clip-path="url(#clip882)" cx="1561.25" cy="1181.93" r="7.2" fill="#e26f46" fill-rule="evenodd" fill-opacity="1" stroke="#000000" stroke-opacity="1" stroke-width="3.2"/>
<circle clip-path="url(#clip882)" cx="1438.29" cy="1142.44" r="7.2" fill="#e26f46" fill-rule="evenodd" fill-opacity="1" stroke="#000000" stroke-opacity="1" stroke-width="3.2"/>
<circle clip-path="url(#clip882)" cx="1509.73" cy="1165.39" r="7.2" fill="#e26f46" fill-rule="evenodd" fill-opacity="1" stroke="#000000" stroke-opacity="1" stroke-width="3.2"/>
<circle clip-path="url(#clip882)" cx="1418.88" cy="1136.21" r="7.2" fill="#e26f46" fill-rule="evenodd" fill-opacity="1" stroke="#000000" stroke-opacity="1" stroke-width="3.2"/>
<circle clip-path="url(#clip882)" cx="1596.58" cy="1193.28" r="7.2" fill="#e26f46" fill-rule="evenodd" fill-opacity="1" stroke="#000000" stroke-opacity="1" stroke-width="3.2"/>
<circle clip-path="url(#clip882)" cx="876.497" cy="1163.08" r="7.2" fill="#e26f46" fill-rule="evenodd" fill-opacity="1" stroke="#000000" stroke-opacity="1" stroke-width="3.2"/>
<circle clip-path="url(#clip882)" cx="1668.74" cy="1216.45" r="7.2" fill="#e26f46" fill-rule="evenodd" fill-opacity="1" stroke="#000000" stroke-opacity="1" stroke-width="3.2"/>
<circle clip-path="url(#clip882)" cx="1759.65" cy="1245.65" r="7.2" fill="#e26f46" fill-rule="evenodd" fill-opacity="1" stroke="#000000" stroke-opacity="1" stroke-width="3.2"/>
<circle clip-path="url(#clip882)" cx="1460.01" cy="1149.42" r="7.2" fill="#e26f46" fill-rule="evenodd" fill-opacity="1" stroke="#000000" stroke-opacity="1" stroke-width="3.2"/>
<circle clip-path="url(#clip882)" cx="1697.23" cy="1225.6" r="7.2" fill="#e26f46" fill-rule="evenodd" fill-opacity="1" stroke="#000000" stroke-opacity="1" stroke-width="3.2"/>
<circle clip-path="url(#clip882)" cx="1620.84" cy="1201.07" r="7.2" fill="#e26f46" fill-rule="evenodd" fill-opacity="1" stroke="#000000" stroke-opacity="1" stroke-width="3.2"/>
<circle clip-path="url(#clip882)" cx="1354.54" cy="1115.59" r="7.2" fill="#e26f46" fill-rule="evenodd" fill-opacity="1" stroke="#000000" stroke-opacity="1" stroke-width="3.2"/>
<circle clip-path="url(#clip882)" cx="1417.9" cy="1135.9" r="7.2" fill="#e26f46" fill-rule="evenodd" fill-opacity="1" stroke="#000000" stroke-opacity="1" stroke-width="3.2"/>
<circle clip-path="url(#clip882)" cx="1572.15" cy="1185.43" r="7.2" fill="#e26f46" fill-rule="evenodd" fill-opacity="1" stroke="#000000" stroke-opacity="1" stroke-width="3.2"/>
<circle clip-path="url(#clip882)" cx="1791.34" cy="1255.83" r="7.2" fill="#e26f46" fill-rule="evenodd" fill-opacity="1" stroke="#000000" stroke-opacity="1" stroke-width="3.2"/>
<circle clip-path="url(#clip882)" cx="1616.05" cy="1199.53" r="7.2" fill="#e26f46" fill-rule="evenodd" fill-opacity="1" stroke="#000000" stroke-opacity="1" stroke-width="3.2"/>
<circle clip-path="url(#clip882)" cx="1561.97" cy="1182.16" r="7.2" fill="#e26f46" fill-rule="evenodd" fill-opacity="1" stroke="#000000" stroke-opacity="1" stroke-width="3.2"/>
<circle clip-path="url(#clip882)" cx="1464.28" cy="1150.79" r="7.2" fill="#e26f46" fill-rule="evenodd" fill-opacity="1" stroke="#000000" stroke-opacity="1" stroke-width="3.2"/>
<circle clip-path="url(#clip882)" cx="1515.99" cy="1167.4" r="7.2" fill="#e26f46" fill-rule="evenodd" fill-opacity="1" stroke="#000000" stroke-opacity="1" stroke-width="3.2"/>
<circle clip-path="url(#clip882)" cx="1486.65" cy="1157.97" r="7.2" fill="#e26f46" fill-rule="evenodd" fill-opacity="1" stroke="#000000" stroke-opacity="1" stroke-width="3.2"/>
<circle clip-path="url(#clip882)" cx="1524.28" cy="1170.06" r="7.2" fill="#e26f46" fill-rule="evenodd" fill-opacity="1" stroke="#000000" stroke-opacity="1" stroke-width="3.2"/>
<circle clip-path="url(#clip882)" cx="1320.27" cy="1104.87" r="7.2" fill="#e26f46" fill-rule="evenodd" fill-opacity="1" stroke="#000000" stroke-opacity="1" stroke-width="3.2"/>
<circle clip-path="url(#clip882)" cx="892.117" cy="1168.1" r="7.2" fill="#e26f46" fill-rule="evenodd" fill-opacity="1" stroke="#000000" stroke-opacity="1" stroke-width="3.2"/>
<circle clip-path="url(#clip882)" cx="1541.86" cy="1175.7" r="7.2" fill="#e26f46" fill-rule="evenodd" fill-opacity="1" stroke="#000000" stroke-opacity="1" stroke-width="3.2"/>
<circle clip-path="url(#clip882)" cx="1494.65" cy="1160.54" r="7.2" fill="#e26f46" fill-rule="evenodd" fill-opacity="1" stroke="#000000" stroke-opacity="1" stroke-width="3.2"/>
<circle clip-path="url(#clip882)" cx="1520.69" cy="1168.91" r="7.2" fill="#e26f46" fill-rule="evenodd" fill-opacity="1" stroke="#000000" stroke-opacity="1" stroke-width="3.2"/>
<circle clip-path="url(#clip882)" cx="1395.54" cy="1128.72" r="7.2" fill="#e26f46" fill-rule="evenodd" fill-opacity="1" stroke="#000000" stroke-opacity="1" stroke-width="3.2"/>
<circle clip-path="url(#clip882)" cx="1613.23" cy="1198.63" r="7.2" fill="#e26f46" fill-rule="evenodd" fill-opacity="1" stroke="#000000" stroke-opacity="1" stroke-width="3.2"/>
<circle clip-path="url(#clip882)" cx="1358.94" cy="1116.99" r="7.2" fill="#e26f46" fill-rule="evenodd" fill-opacity="1" stroke="#000000" stroke-opacity="1" stroke-width="3.2"/>
<circle clip-path="url(#clip882)" cx="1659.22" cy="1213.39" r="7.2" fill="#e26f46" fill-rule="evenodd" fill-opacity="1" stroke="#000000" stroke-opacity="1" stroke-width="3.2"/>
<circle clip-path="url(#clip882)" cx="1679.07" cy="1219.77" r="7.2" fill="#e26f46" fill-rule="evenodd" fill-opacity="1" stroke="#000000" stroke-opacity="1" stroke-width="3.2"/>
<circle clip-path="url(#clip882)" cx="1577.22" cy="1187.06" r="7.2" fill="#e26f46" fill-rule="evenodd" fill-opacity="1" stroke="#000000" stroke-opacity="1" stroke-width="3.2"/>
<circle clip-path="url(#clip882)" cx="992.033" cy="1200.19" r="7.2" fill="#e26f46" fill-rule="evenodd" fill-opacity="1" stroke="#000000" stroke-opacity="1" stroke-width="3.2"/>
<circle clip-path="url(#clip882)" cx="1476.38" cy="1154.68" r="7.2" fill="#e26f46" fill-rule="evenodd" fill-opacity="1" stroke="#000000" stroke-opacity="1" stroke-width="3.2"/>
<circle clip-path="url(#clip882)" cx="1771.23" cy="1249.37" r="7.2" fill="#e26f46" fill-rule="evenodd" fill-opacity="1" stroke="#000000" stroke-opacity="1" stroke-width="3.2"/>
<circle clip-path="url(#clip882)" cx="1671.11" cy="1217.21" r="7.2" fill="#e26f46" fill-rule="evenodd" fill-opacity="1" stroke="#000000" stroke-opacity="1" stroke-width="3.2"/>
<circle clip-path="url(#clip882)" cx="1479.99" cy="1155.84" r="7.2" fill="#e26f46" fill-rule="evenodd" fill-opacity="1" stroke="#000000" stroke-opacity="1" stroke-width="3.2"/>
<circle clip-path="url(#clip882)" cx="1756.13" cy="1244.52" r="7.2" fill="#e26f46" fill-rule="evenodd" fill-opacity="1" stroke="#000000" stroke-opacity="1" stroke-width="3.2"/>
<circle clip-path="url(#clip882)" cx="1527.41" cy="1171.06" r="7.2" fill="#e26f46" fill-rule="evenodd" fill-opacity="1" stroke="#000000" stroke-opacity="1" stroke-width="3.2"/>
<circle clip-path="url(#clip882)" cx="985.287" cy="1198.02" r="7.2" fill="#e26f46" fill-rule="evenodd" fill-opacity="1" stroke="#000000" stroke-opacity="1" stroke-width="3.2"/>
<circle clip-path="url(#clip882)" cx="1543.87" cy="1176.35" r="7.2" fill="#e26f46" fill-rule="evenodd" fill-opacity="1" stroke="#000000" stroke-opacity="1" stroke-width="3.2"/>
<circle clip-path="url(#clip882)" cx="1466.07" cy="1151.37" r="7.2" fill="#e26f46" fill-rule="evenodd" fill-opacity="1" stroke="#000000" stroke-opacity="1" stroke-width="3.2"/>
<circle clip-path="url(#clip882)" cx="1624.79" cy="1202.34" r="7.2" fill="#e26f46" fill-rule="evenodd" fill-opacity="1" stroke="#000000" stroke-opacity="1" stroke-width="3.2"/>
<circle clip-path="url(#clip882)" cx="1632.89" cy="1204.94" r="7.2" fill="#e26f46" fill-rule="evenodd" fill-opacity="1" stroke="#000000" stroke-opacity="1" stroke-width="3.2"/>
<circle clip-path="url(#clip882)" cx="1717.09" cy="1231.98" r="7.2" fill="#e26f46" fill-rule="evenodd" fill-opacity="1" stroke="#000000" stroke-opacity="1" stroke-width="3.2"/>
<circle clip-path="url(#clip882)" cx="1435.15" cy="1141.44" r="7.2" fill="#e26f46" fill-rule="evenodd" fill-opacity="1" stroke="#000000" stroke-opacity="1" stroke-width="3.2"/>
<circle clip-path="url(#clip882)" cx="1403.97" cy="1131.43" r="7.2" fill="#e26f46" fill-rule="evenodd" fill-opacity="1" stroke="#000000" stroke-opacity="1" stroke-width="3.2"/>
<circle clip-path="url(#clip882)" cx="1413.97" cy="1134.63" r="7.2" fill="#e26f46" fill-rule="evenodd" fill-opacity="1" stroke="#000000" stroke-opacity="1" stroke-width="3.2"/>
<circle clip-path="url(#clip882)" cx="1677.16" cy="1219.16" r="7.2" fill="#e26f46" fill-rule="evenodd" fill-opacity="1" stroke="#000000" stroke-opacity="1" stroke-width="3.2"/>
<circle clip-path="url(#clip882)" cx="1643" cy="1208.19" r="7.2" fill="#e26f46" fill-rule="evenodd" fill-opacity="1" stroke="#000000" stroke-opacity="1" stroke-width="3.2"/>
<circle clip-path="url(#clip882)" cx="1632.56" cy="1204.84" r="7.2" fill="#e26f46" fill-rule="evenodd" fill-opacity="1" stroke="#000000" stroke-opacity="1" stroke-width="3.2"/>
<circle clip-path="url(#clip882)" cx="1550.21" cy="1178.39" r="7.2" fill="#e26f46" fill-rule="evenodd" fill-opacity="1" stroke="#000000" stroke-opacity="1" stroke-width="3.2"/>
<circle clip-path="url(#clip882)" cx="1061.5" cy="1222.45" r="7.2" fill="#e26f46" fill-rule="evenodd" fill-opacity="1" stroke="#000000" stroke-opacity="1" stroke-width="3.2"/>
<circle clip-path="url(#clip882)" cx="1430.75" cy="1140.02" r="7.2" fill="#e26f46" fill-rule="evenodd" fill-opacity="1" stroke="#000000" stroke-opacity="1" stroke-width="3.2"/>
<circle clip-path="url(#clip882)" cx="1558.93" cy="1181.19" r="7.2" fill="#e26f46" fill-rule="evenodd" fill-opacity="1" stroke="#000000" stroke-opacity="1" stroke-width="3.2"/>
<circle clip-path="url(#clip882)" cx="1271.62" cy="1094.12" r="7.2" fill="#e26f46" fill-rule="evenodd" fill-opacity="1" stroke="#000000" stroke-opacity="1" stroke-width="3.2"/>
<circle clip-path="url(#clip882)" cx="1497.66" cy="1161.51" r="7.2" fill="#e26f46" fill-rule="evenodd" fill-opacity="1" stroke="#000000" stroke-opacity="1" stroke-width="3.2"/>
<circle clip-path="url(#clip882)" cx="1648.63" cy="1210" r="7.2" fill="#e26f46" fill-rule="evenodd" fill-opacity="1" stroke="#000000" stroke-opacity="1" stroke-width="3.2"/>
<circle clip-path="url(#clip882)" cx="878.153" cy="1163.61" r="7.2" fill="#e26f46" fill-rule="evenodd" fill-opacity="1" stroke="#000000" stroke-opacity="1" stroke-width="3.2"/>
<circle clip-path="url(#clip882)" cx="1704.38" cy="1227.9" r="7.2" fill="#e26f46" fill-rule="evenodd" fill-opacity="1" stroke="#000000" stroke-opacity="1" stroke-width="3.2"/>
<circle clip-path="url(#clip882)" cx="1554.93" cy="1179.9" r="7.2" fill="#e26f46" fill-rule="evenodd" fill-opacity="1" stroke="#000000" stroke-opacity="1" stroke-width="3.2"/>
<circle clip-path="url(#clip882)" cx="1418.98" cy="1136.24" r="7.2" fill="#e26f46" fill-rule="evenodd" fill-opacity="1" stroke="#000000" stroke-opacity="1" stroke-width="3.2"/>
<circle clip-path="url(#clip882)" cx="1416.88" cy="1135.57" r="7.2" fill="#e26f46" fill-rule="evenodd" fill-opacity="1" stroke="#000000" stroke-opacity="1" stroke-width="3.2"/>
<circle clip-path="url(#clip882)" cx="1612.91" cy="1198.52" r="7.2" fill="#e26f46" fill-rule="evenodd" fill-opacity="1" stroke="#000000" stroke-opacity="1" stroke-width="3.2"/>
<circle clip-path="url(#clip882)" cx="800.589" cy="1138.7" r="7.2" fill="#e26f46" fill-rule="evenodd" fill-opacity="1" stroke="#000000" stroke-opacity="1" stroke-width="3.2"/>
<circle clip-path="url(#clip882)" cx="1627.47" cy="1203.2" r="7.2" fill="#e26f46" fill-rule="evenodd" fill-opacity="1" stroke="#000000" stroke-opacity="1" stroke-width="3.2"/>
<circle clip-path="url(#clip882)" cx="1603.56" cy="1195.52" r="7.2" fill="#e26f46" fill-rule="evenodd" fill-opacity="1" stroke="#000000" stroke-opacity="1" stroke-width="3.2"/>
<circle clip-path="url(#clip882)" cx="1588.91" cy="1190.81" r="7.2" fill="#e26f46" fill-rule="evenodd" fill-opacity="1" stroke="#000000" stroke-opacity="1" stroke-width="3.2"/>
<circle clip-path="url(#clip882)" cx="1068.79" cy="1224.77" r="7.2" fill="#e26f46" fill-rule="evenodd" fill-opacity="1" stroke="#000000" stroke-opacity="1" stroke-width="3.2"/>
<circle clip-path="url(#clip882)" cx="1523.71" cy="1169.88" r="7.2" fill="#e26f46" fill-rule="evenodd" fill-opacity="1" stroke="#000000" stroke-opacity="1" stroke-width="3.2"/>
<circle clip-path="url(#clip882)" cx="1562.83" cy="1182.44" r="7.2" fill="#e26f46" fill-rule="evenodd" fill-opacity="1" stroke="#000000" stroke-opacity="1" stroke-width="3.2"/>
<circle clip-path="url(#clip882)" cx="1345.11" cy="1112.6" r="7.2" fill="#e26f46" fill-rule="evenodd" fill-opacity="1" stroke="#000000" stroke-opacity="1" stroke-width="3.2"/>
<circle clip-path="url(#clip882)" cx="1620.62" cy="1201" r="7.2" fill="#e26f46" fill-rule="evenodd" fill-opacity="1" stroke="#000000" stroke-opacity="1" stroke-width="3.2"/>
<circle clip-path="url(#clip882)" cx="1537.19" cy="1174.21" r="7.2" fill="#e26f46" fill-rule="evenodd" fill-opacity="1" stroke="#000000" stroke-opacity="1" stroke-width="3.2"/>
<circle clip-path="url(#clip882)" cx="1500.54" cy="1162.43" r="7.2" fill="#e26f46" fill-rule="evenodd" fill-opacity="1" stroke="#000000" stroke-opacity="1" stroke-width="3.2"/>
<circle clip-path="url(#clip882)" cx="1543.73" cy="1176.3" r="7.2" fill="#e26f46" fill-rule="evenodd" fill-opacity="1" stroke="#000000" stroke-opacity="1" stroke-width="3.2"/>
<circle clip-path="url(#clip882)" cx="1631.14" cy="1204.38" r="7.2" fill="#e26f46" fill-rule="evenodd" fill-opacity="1" stroke="#000000" stroke-opacity="1" stroke-width="3.2"/>
<circle clip-path="url(#clip882)" cx="1587.1" cy="1190.23" r="7.2" fill="#e26f46" fill-rule="evenodd" fill-opacity="1" stroke="#000000" stroke-opacity="1" stroke-width="3.2"/>
<circle clip-path="url(#clip882)" cx="1648.75" cy="1210.03" r="7.2" fill="#e26f46" fill-rule="evenodd" fill-opacity="1" stroke="#000000" stroke-opacity="1" stroke-width="3.2"/>
<circle clip-path="url(#clip882)" cx="1513.64" cy="1166.64" r="7.2" fill="#e26f46" fill-rule="evenodd" fill-opacity="1" stroke="#000000" stroke-opacity="1" stroke-width="3.2"/>
<circle clip-path="url(#clip882)" cx="1532.95" cy="1172.85" r="7.2" fill="#e26f46" fill-rule="evenodd" fill-opacity="1" stroke="#000000" stroke-opacity="1" stroke-width="3.2"/>
<circle clip-path="url(#clip882)" cx="1042.49" cy="1216.38" r="7.2" fill="#e26f46" fill-rule="evenodd" fill-opacity="1" stroke="#000000" stroke-opacity="1" stroke-width="3.2"/>
<circle clip-path="url(#clip882)" cx="1650.65" cy="1210.64" r="7.2" fill="#e26f46" fill-rule="evenodd" fill-opacity="1" stroke="#000000" stroke-opacity="1" stroke-width="3.2"/>
<circle clip-path="url(#clip882)" cx="1486.06" cy="1157.78" r="7.2" fill="#e26f46" fill-rule="evenodd" fill-opacity="1" stroke="#000000" stroke-opacity="1" stroke-width="3.2"/>
<circle clip-path="url(#clip882)" cx="1579.74" cy="1187.87" r="7.2" fill="#e26f46" fill-rule="evenodd" fill-opacity="1" stroke="#000000" stroke-opacity="1" stroke-width="3.2"/>
<circle clip-path="url(#clip882)" cx="1435.45" cy="1141.53" r="7.2" fill="#e26f46" fill-rule="evenodd" fill-opacity="1" stroke="#000000" stroke-opacity="1" stroke-width="3.2"/>
<circle clip-path="url(#clip882)" cx="1464.72" cy="1150.93" r="7.2" fill="#e26f46" fill-rule="evenodd" fill-opacity="1" stroke="#000000" stroke-opacity="1" stroke-width="3.2"/>
<circle clip-path="url(#clip882)" cx="1528.39" cy="1171.38" r="7.2" fill="#e26f46" fill-rule="evenodd" fill-opacity="1" stroke="#000000" stroke-opacity="1" stroke-width="3.2"/>
<circle clip-path="url(#clip882)" cx="1495.8" cy="1160.91" r="7.2" fill="#e26f46" fill-rule="evenodd" fill-opacity="1" stroke="#000000" stroke-opacity="1" stroke-width="3.2"/>
<circle clip-path="url(#clip882)" cx="1509.27" cy="1165.24" r="7.2" fill="#e26f46" fill-rule="evenodd" fill-opacity="1" stroke="#000000" stroke-opacity="1" stroke-width="3.2"/>
<circle clip-path="url(#clip882)" cx="1632.02" cy="1204.66" r="7.2" fill="#e26f46" fill-rule="evenodd" fill-opacity="1" stroke="#000000" stroke-opacity="1" stroke-width="3.2"/>
<circle clip-path="url(#clip882)" cx="1618.11" cy="1200.19" r="7.2" fill="#e26f46" fill-rule="evenodd" fill-opacity="1" stroke="#000000" stroke-opacity="1" stroke-width="3.2"/>
<circle clip-path="url(#clip882)" cx="1615.62" cy="1199.39" r="7.2" fill="#e26f46" fill-rule="evenodd" fill-opacity="1" stroke="#000000" stroke-opacity="1" stroke-width="3.2"/>
<circle clip-path="url(#clip882)" cx="1503.61" cy="1163.42" r="7.2" fill="#e26f46" fill-rule="evenodd" fill-opacity="1" stroke="#000000" stroke-opacity="1" stroke-width="3.2"/>
<polyline clip-path="url(#clip882)" style="stroke:#3da44d; stroke-linecap:round; stroke-linejoin:round; stroke-width:8; stroke-opacity:1; fill:none" points="203.301,145.256 213.788,160.888 224.274,176.521 234.761,192.153 245.248,207.785 255.734,223.418 266.221,239.05 276.708,254.682 287.194,270.315 297.681,285.947 308.168,301.58 318.655,317.212 329.141,332.844 339.628,348.477 350.115,364.109 360.601,379.741 371.088,395.374 381.575,411.006 392.061,426.638 402.548,442.271 413.035,457.903 423.521,473.535 434.008,489.168 444.495,504.8 454.981,520.432 465.468,536.065 475.955,551.697 486.441,567.33 496.928,582.962 507.415,598.594 517.901,614.227 528.388,629.859 538.875,645.491 549.361,661.124 559.848,676.756 570.335,692.388 580.822,708.021 591.308,723.653 601.795,739.285 612.282,754.918 622.768,770.55 633.255,786.183 643.742,801.815 654.228,817.447 664.715,833.08 675.202,848.712 685.688,864.344 696.175,879.977 706.662,895.609 717.148,911.241 727.635,926.874 738.122,942.506 748.608,958.138 759.095,973.771 769.582,989.403 780.068,1005.04 790.555,1020.67 801.042,1036.3 811.528,1051.93 822.015,1067.56 832.502,1083.2 842.989,1098.83 853.475,1114.46 863.962,1130.09 874.449,1145.73 884.935,1161.36 895.422,1176.99 905.909,1192.62 916.395,1197.18 926.882,1198.97 937.369,1200.76 947.855,1202.55 958.342,1204.34 968.829,1206.13 979.315,1207.92 989.802,1209.71 1000.29,1211.5 1010.78,1213.29 1021.26,1215.08 1031.75,1216.87 1042.24,1218.66 1052.72,1220.45 1063.21,1222.24 1073.7,1224.03 1084.18,1225.59 1094.67,1226.03 1105.16,1222.32 1115.64,1216.65 1126.13,1210.97 1136.62,1205.29 1147.1,1199.61 1157.59,1193.93 1168.08,1188.26 1178.56,1182.58 1189.05,1176.9 1199.54,1171.22 1210.02,1165.54 1220.51,1159.87 1231,1154.19 1241.48,1148.51 1251.97,1143 1262.46,1138.75 1272.94,1138.8 1283.43,1138.04 1293.92,1136.69 1304.4,1135.34 1314.89,1133.99 1325.38,1132.64 1335.86,1131.29 1346.35,1129.94 1356.84,1128.58 1367.32,1127.23 1377.81,1125.88 1388.3,1124.53 1398.78,1126.6 1409.27,1130.38 1419.76,1134.15 1430.24,1137.93 1440.73,1141.7 1451.22,1145.47 1461.7,1149.25 1472.19,1153.02 1482.68,1156.79 1493.16,1160.57 1503.65,1164.34 1514.14,1168.12 1524.62,1171.89 1535.11,1175.66 1545.6,1179.44 1556.08,1183.21 1566.57,1186.99 1577.06,1190.76 1587.54,1194.53 1598.03,1198.31 1608.52,1202.08 1619,1205.86 1629.49,1209.63 1639.98,1213.4 1650.46,1217.18 1660.95,1220.95 1671.44,1224.72 1681.92,1228.5 1692.41,1232.27 1702.9,1236.05 1713.38,1239.82 1723.87,1243.59 1734.36,1247.37 1744.84,1251.14 1755.33,1254.92 1765.82,1258.69 1776.3,1262.46 1786.79,1266.24 1797.28,1270.01 1807.76,1273.79 1818.25,1277.56 1828.74,1281.33 1839.22,1285.11 1849.71,1288.88 1860.2,1292.65 1870.68,1296.43 1881.17,1300.2 1891.66,1303.98 1902.14,1307.75 1912.63,1311.52 1923.12,1315.3 1933.6,1319.07 1944.09,1322.85 1954.58,1326.62 1965.06,1330.39 1975.55,1334.17 1986.04,1337.94 1996.52,1341.72 2007.01,1345.49 2017.5,1349.26 2027.98,1353.04 2038.47,1356.81 2048.96,1360.58 2059.44,1364.36 2069.93,1368.13 2080.42,1371.91 2090.9,1375.68 2101.39,1379.45 2111.88,1383.23 2122.36,1387 2132.85,1390.78 2143.34,1394.55 2153.82,1398.32 2164.31,1402.1 2174.8,1405.87 2185.28,1409.65 2195.77,1413.42 2206.26,1417.19 2216.74,1420.97 2227.23,1424.74 2237.72,1428.51 2248.2,1432.29 2258.69,1436.06 2269.18,1439.84 2279.66,1443.61 2290.15,1447.38 "/>
<path clip-path="url(#clip880)" d="M1727.89 359.561 L2279.02 359.561 L2279.02 152.201 L1727.89 152.201  Z" fill="#ffffff" fill-rule="evenodd" fill-opacity="1"/>
<polyline clip-path="url(#clip880)" style="stroke:#000000; stroke-linecap:round; stroke-linejoin:round; stroke-width:4; stroke-opacity:1; fill:none" points="1727.89,359.561 2279.02,359.561 2279.02,152.201 1727.89,152.201 1727.89,359.561 "/>
<polyline clip-path="url(#clip880)" style="stroke:#009af9; stroke-linecap:round; stroke-linejoin:round; stroke-width:16; stroke-opacity:1; fill:none" points="1752.46,204.041 1899.93,204.041 "/>
<path clip-path="url(#clip880)" d="M1942.94 196.159 L1942.94 200.187 Q1941.13 199.261 1939.19 198.798 Q1937.24 198.335 1935.16 198.335 Q1931.99 198.335 1930.39 199.307 Q1928.82 200.279 1928.82 202.224 Q1928.82 203.705 1929.95 204.561 Q1931.09 205.395 1934.51 206.159 L1935.97 206.483 Q1940.51 207.455 1942.41 209.237 Q1944.33 210.997 1944.33 214.168 Q1944.33 217.779 1941.46 219.885 Q1938.61 221.992 1933.61 221.992 Q1931.53 221.992 1929.26 221.575 Q1927.01 221.182 1924.51 220.372 L1924.51 215.973 Q1926.87 217.2 1929.17 217.825 Q1931.46 218.427 1933.7 218.427 Q1936.71 218.427 1938.33 217.409 Q1939.95 216.367 1939.95 214.492 Q1939.95 212.756 1938.77 211.83 Q1937.62 210.904 1933.66 210.048 L1932.18 209.7 Q1928.22 208.867 1926.46 207.154 Q1924.7 205.418 1924.7 202.409 Q1924.7 198.751 1927.29 196.761 Q1929.88 194.77 1934.65 194.77 Q1937.01 194.77 1939.1 195.117 Q1941.18 195.464 1942.94 196.159 Z" fill="#000000" fill-rule="nonzero" fill-opacity="1" /><path clip-path="url(#clip880)" d="M1969.77 196.39 L1969.77 200.372 Q1967.96 199.376 1966.13 198.89 Q1964.33 198.381 1962.48 198.381 Q1958.33 198.381 1956.04 201.02 Q1953.75 203.636 1953.75 208.381 Q1953.75 213.126 1956.04 215.765 Q1958.33 218.381 1962.48 218.381 Q1964.33 218.381 1966.13 217.895 Q1967.96 217.385 1969.77 216.39 L1969.77 220.325 Q1967.99 221.159 1966.06 221.575 Q1964.17 221.992 1962.01 221.992 Q1956.16 221.992 1952.71 218.311 Q1949.26 214.631 1949.26 208.381 Q1949.26 202.038 1952.73 198.404 Q1956.23 194.77 1962.29 194.77 Q1964.26 194.77 1966.13 195.187 Q1968.01 195.58 1969.77 196.39 Z" fill="#000000" fill-rule="nonzero" fill-opacity="1" /><path clip-path="url(#clip880)" d="M1987.22 198.381 Q1983.8 198.381 1981.8 201.066 Q1979.81 203.728 1979.81 208.381 Q1979.81 213.034 1981.78 215.719 Q1983.77 218.381 1987.22 218.381 Q1990.62 218.381 1992.61 215.696 Q1994.61 213.011 1994.61 208.381 Q1994.61 203.774 1992.61 201.089 Q1990.62 198.381 1987.22 198.381 M1987.22 194.77 Q1992.78 194.77 1995.95 198.381 Q1999.12 201.992 1999.12 208.381 Q1999.12 214.747 1995.95 218.381 Q1992.78 221.992 1987.22 221.992 Q1981.64 221.992 1978.47 218.381 Q1975.32 214.747 1975.32 208.381 Q1975.32 201.992 1978.47 198.381 Q1981.64 194.77 1987.22 194.77 Z" fill="#000000" fill-rule="nonzero" fill-opacity="1" /><path clip-path="url(#clip880)" d="M2021.2 199.376 Q2020.49 198.96 2019.63 198.774 Q2018.8 198.566 2017.78 198.566 Q2014.17 198.566 2012.22 200.927 Q2010.3 203.265 2010.3 207.663 L2010.3 221.321 L2006.02 221.321 L2006.02 195.395 L2010.3 195.395 L2010.3 199.423 Q2011.64 197.062 2013.8 195.927 Q2015.95 194.77 2019.03 194.77 Q2019.47 194.77 2020 194.839 Q2020.53 194.886 2021.18 195.001 L2021.2 199.376 Z" fill="#000000" fill-rule="nonzero" fill-opacity="1" /><path clip-path="url(#clip880)" d="M2046.8 207.293 L2046.8 209.376 L2027.22 209.376 Q2027.5 213.774 2029.86 216.089 Q2032.24 218.381 2036.48 218.381 Q2038.93 218.381 2041.23 217.779 Q2043.54 217.177 2045.81 215.973 L2045.81 220.001 Q2043.52 220.973 2041.11 221.483 Q2038.7 221.992 2036.23 221.992 Q2030.02 221.992 2026.39 218.381 Q2022.78 214.77 2022.78 208.612 Q2022.78 202.247 2026.2 198.52 Q2029.65 194.77 2035.48 194.77 Q2040.72 194.77 2043.75 198.149 Q2046.8 201.506 2046.8 207.293 M2042.55 206.043 Q2042.5 202.548 2040.58 200.464 Q2038.68 198.381 2035.53 198.381 Q2031.97 198.381 2029.81 200.395 Q2027.68 202.409 2027.36 206.066 L2042.55 206.043 Z" fill="#000000" fill-rule="nonzero" fill-opacity="1" /><path clip-path="url(#clip880)" d="M2081.99 185.302 L2081.99 188.844 L2077.92 188.844 Q2075.62 188.844 2074.72 189.77 Q2073.84 190.696 2073.84 193.103 L2073.84 195.395 L2080.86 195.395 L2080.86 198.705 L2073.84 198.705 L2073.84 221.321 L2069.56 221.321 L2069.56 198.705 L2065.48 198.705 L2065.48 195.395 L2069.56 195.395 L2069.56 193.589 Q2069.56 189.261 2071.57 187.293 Q2073.59 185.302 2077.96 185.302 L2081.99 185.302 Z" fill="#000000" fill-rule="nonzero" fill-opacity="1" /><path clip-path="url(#clip880)" d="M2085.11 211.089 L2085.11 195.395 L2089.37 195.395 L2089.37 210.927 Q2089.37 214.608 2090.81 216.46 Q2092.24 218.288 2095.11 218.288 Q2098.56 218.288 2100.55 216.089 Q2102.57 213.89 2102.57 210.094 L2102.57 195.395 L2106.83 195.395 L2106.83 221.321 L2102.57 221.321 L2102.57 217.339 Q2101.02 219.7 2098.96 220.858 Q2096.92 221.992 2094.21 221.992 Q2089.74 221.992 2087.43 219.214 Q2085.11 216.436 2085.11 211.089 M2095.83 194.77 L2095.83 194.77 Z" fill="#000000" fill-rule="nonzero" fill-opacity="1" /><path clip-path="url(#clip880)" d="M2137.15 205.673 L2137.15 221.321 L2132.89 221.321 L2132.89 205.811 Q2132.89 202.131 2131.46 200.302 Q2130.02 198.474 2127.15 198.474 Q2123.7 198.474 2121.71 200.673 Q2119.72 202.872 2119.72 206.668 L2119.72 221.321 L2115.44 221.321 L2115.44 195.395 L2119.72 195.395 L2119.72 199.423 Q2121.25 197.085 2123.31 195.927 Q2125.39 194.77 2128.1 194.77 Q2132.57 194.77 2134.86 197.548 Q2137.15 200.302 2137.15 205.673 Z" fill="#000000" fill-rule="nonzero" fill-opacity="1" /><path clip-path="url(#clip880)" d="M2164.3 196.39 L2164.3 200.372 Q2162.5 199.376 2160.67 198.89 Q2158.86 198.381 2157.01 198.381 Q2152.87 198.381 2150.58 201.02 Q2148.29 203.636 2148.29 208.381 Q2148.29 213.126 2150.58 215.765 Q2152.87 218.381 2157.01 218.381 Q2158.86 218.381 2160.67 217.895 Q2162.5 217.385 2164.3 216.39 L2164.3 220.325 Q2162.52 221.159 2160.6 221.575 Q2158.7 221.992 2156.55 221.992 Q2150.69 221.992 2147.24 218.311 Q2143.79 214.631 2143.79 208.381 Q2143.79 202.038 2147.27 198.404 Q2150.76 194.77 2156.83 194.77 Q2158.79 194.77 2160.67 195.187 Q2162.54 195.58 2164.3 196.39 Z" fill="#000000" fill-rule="nonzero" fill-opacity="1" /><path clip-path="url(#clip880)" d="M2175.92 188.034 L2175.92 195.395 L2184.7 195.395 L2184.7 198.705 L2175.92 198.705 L2175.92 212.779 Q2175.92 215.95 2176.78 216.853 Q2177.66 217.756 2180.32 217.756 L2184.7 217.756 L2184.7 221.321 L2180.32 221.321 Q2175.39 221.321 2173.52 219.492 Q2171.64 217.64 2171.64 212.779 L2171.64 198.705 L2168.52 198.705 L2168.52 195.395 L2171.64 195.395 L2171.64 188.034 L2175.92 188.034 Z" fill="#000000" fill-rule="nonzero" fill-opacity="1" /><path clip-path="url(#clip880)" d="M2190.3 195.395 L2194.56 195.395 L2194.56 221.321 L2190.3 221.321 L2190.3 195.395 M2190.3 185.302 L2194.56 185.302 L2194.56 190.696 L2190.3 190.696 L2190.3 185.302 Z" fill="#000000" fill-rule="nonzero" fill-opacity="1" /><path clip-path="url(#clip880)" d="M2213.52 198.381 Q2210.09 198.381 2208.1 201.066 Q2206.11 203.728 2206.11 208.381 Q2206.11 213.034 2208.08 215.719 Q2210.07 218.381 2213.52 218.381 Q2216.92 218.381 2218.91 215.696 Q2220.9 213.011 2220.9 208.381 Q2220.9 203.774 2218.91 201.089 Q2216.92 198.381 2213.52 198.381 M2213.52 194.77 Q2219.07 194.77 2222.24 198.381 Q2225.41 201.992 2225.41 208.381 Q2225.41 214.747 2222.24 218.381 Q2219.07 221.992 2213.52 221.992 Q2207.94 221.992 2204.77 218.381 Q2201.62 214.747 2201.62 208.381 Q2201.62 201.992 2204.77 198.381 Q2207.94 194.77 2213.52 194.77 Z" fill="#000000" fill-rule="nonzero" fill-opacity="1" /><path clip-path="url(#clip880)" d="M2254.03 205.673 L2254.03 221.321 L2249.77 221.321 L2249.77 205.811 Q2249.77 202.131 2248.33 200.302 Q2246.9 198.474 2244.03 198.474 Q2240.58 198.474 2238.59 200.673 Q2236.59 202.872 2236.59 206.668 L2236.59 221.321 L2232.31 221.321 L2232.31 195.395 L2236.59 195.395 L2236.59 199.423 Q2238.12 197.085 2240.18 195.927 Q2242.27 194.77 2244.97 194.77 Q2249.44 194.77 2251.73 197.548 Q2254.03 200.302 2254.03 205.673 Z" fill="#000000" fill-rule="nonzero" fill-opacity="1" /><circle clip-path="url(#clip880)" cx="1826.2" cy="255.881" r="18.432" fill="#e26f46" fill-rule="evenodd" fill-opacity="1" stroke="#000000" stroke-opacity="1" stroke-width="8.192"/>
<path clip-path="url(#clip880)" d="M1943.43 251.17 L1943.43 237.142 L1947.68 237.142 L1947.68 273.161 L1943.43 273.161 L1943.43 269.272 Q1942.08 271.587 1940.02 272.721 Q1937.99 273.832 1935.12 273.832 Q1930.42 273.832 1927.45 270.082 Q1924.51 266.332 1924.51 260.221 Q1924.51 254.11 1927.45 250.36 Q1930.42 246.61 1935.12 246.61 Q1937.99 246.61 1940.02 247.744 Q1942.08 248.855 1943.43 251.17 M1928.91 260.221 Q1928.91 264.92 1930.83 267.605 Q1932.78 270.267 1936.16 270.267 Q1939.54 270.267 1941.48 267.605 Q1943.43 264.92 1943.43 260.221 Q1943.43 255.522 1941.48 252.86 Q1939.54 250.175 1936.16 250.175 Q1932.78 250.175 1930.83 252.86 Q1928.91 255.522 1928.91 260.221 Z" fill="#000000" fill-rule="nonzero" fill-opacity="1" /><path clip-path="url(#clip880)" d="M1968.24 260.128 Q1963.08 260.128 1961.09 261.309 Q1959.1 262.489 1959.1 265.337 Q1959.1 267.605 1960.58 268.948 Q1962.08 270.267 1964.65 270.267 Q1968.19 270.267 1970.32 267.767 Q1972.48 265.244 1972.48 261.077 L1972.48 260.128 L1968.24 260.128 M1976.74 258.369 L1976.74 273.161 L1972.48 273.161 L1972.48 269.225 Q1971.02 271.587 1968.84 272.721 Q1966.67 273.832 1963.52 273.832 Q1959.54 273.832 1957.18 271.61 Q1954.84 269.364 1954.84 265.614 Q1954.84 261.239 1957.75 259.017 Q1960.69 256.795 1966.5 256.795 L1972.48 256.795 L1972.48 256.378 Q1972.48 253.439 1970.53 251.841 Q1968.61 250.221 1965.11 250.221 Q1962.89 250.221 1960.79 250.753 Q1958.68 251.286 1956.74 252.351 L1956.74 248.415 Q1959.07 247.513 1961.27 247.073 Q1963.47 246.61 1965.55 246.61 Q1971.18 246.61 1973.96 249.527 Q1976.74 252.443 1976.74 258.369 Z" fill="#000000" fill-rule="nonzero" fill-opacity="1" /><path clip-path="url(#clip880)" d="M1989.72 239.874 L1989.72 247.235 L1998.49 247.235 L1998.49 250.545 L1989.72 250.545 L1989.72 264.619 Q1989.72 267.79 1990.58 268.693 Q1991.46 269.596 1994.12 269.596 L1998.49 269.596 L1998.49 273.161 L1994.12 273.161 Q1989.19 273.161 1987.31 271.332 Q1985.44 269.48 1985.44 264.619 L1985.44 250.545 L1982.31 250.545 L1982.31 247.235 L1985.44 247.235 L1985.44 239.874 L1989.72 239.874 Z" fill="#000000" fill-rule="nonzero" fill-opacity="1" /><path clip-path="url(#clip880)" d="M2015.88 260.128 Q2010.72 260.128 2008.73 261.309 Q2006.74 262.489 2006.74 265.337 Q2006.74 267.605 2008.22 268.948 Q2009.72 270.267 2012.29 270.267 Q2015.83 270.267 2017.96 267.767 Q2020.11 265.244 2020.11 261.077 L2020.11 260.128 L2015.88 260.128 M2024.37 258.369 L2024.37 273.161 L2020.11 273.161 L2020.11 269.225 Q2018.66 271.587 2016.48 272.721 Q2014.3 273.832 2011.16 273.832 Q2007.17 273.832 2004.81 271.61 Q2002.48 269.364 2002.48 265.614 Q2002.48 261.239 2005.39 259.017 Q2008.33 256.795 2014.14 256.795 L2020.11 256.795 L2020.11 256.378 Q2020.11 253.439 2018.17 251.841 Q2016.25 250.221 2012.75 250.221 Q2010.53 250.221 2008.42 250.753 Q2006.32 251.286 2004.37 252.351 L2004.37 248.415 Q2006.71 247.513 2008.91 247.073 Q2011.11 246.61 2013.19 246.61 Q2018.82 246.61 2021.6 249.527 Q2024.37 252.443 2024.37 258.369 Z" fill="#000000" fill-rule="nonzero" fill-opacity="1" /><polyline clip-path="url(#clip880)" style="stroke:#3da44d; stroke-linecap:round; stroke-linejoin:round; stroke-width:8; stroke-opacity:1; fill:none" points="1752.46,307.721 1899.93,307.721 "/>
<path clip-path="url(#clip880)" d="M1928.8 321.112 L1928.8 334.862 L1924.51 334.862 L1924.51 299.075 L1928.8 299.075 L1928.8 303.01 Q1930.14 300.695 1932.18 299.584 Q1934.24 298.45 1937.08 298.45 Q1941.8 298.45 1944.74 302.2 Q1947.71 305.95 1947.71 312.061 Q1947.71 318.172 1944.74 321.922 Q1941.8 325.672 1937.08 325.672 Q1934.24 325.672 1932.18 324.561 Q1930.14 323.427 1928.8 321.112 M1943.29 312.061 Q1943.29 307.362 1941.34 304.7 Q1939.42 302.015 1936.04 302.015 Q1932.66 302.015 1930.72 304.7 Q1928.8 307.362 1928.8 312.061 Q1928.8 316.76 1930.72 319.445 Q1932.66 322.107 1936.04 322.107 Q1939.42 322.107 1941.34 319.445 Q1943.29 316.76 1943.29 312.061 Z" fill="#000000" fill-rule="nonzero" fill-opacity="1" /><path clip-path="url(#clip880)" d="M1969.79 303.056 Q1969.07 302.64 1968.22 302.454 Q1967.38 302.246 1966.36 302.246 Q1962.75 302.246 1960.81 304.607 Q1958.89 306.945 1958.89 311.343 L1958.89 325.001 L1954.61 325.001 L1954.61 299.075 L1958.89 299.075 L1958.89 303.103 Q1960.23 300.742 1962.38 299.607 Q1964.54 298.45 1967.61 298.45 Q1968.05 298.45 1968.59 298.519 Q1969.12 298.566 1969.77 298.681 L1969.79 303.056 Z" fill="#000000" fill-rule="nonzero" fill-opacity="1" /><path clip-path="url(#clip880)" d="M1995.39 310.973 L1995.39 313.056 L1975.81 313.056 Q1976.09 317.454 1978.45 319.769 Q1980.83 322.061 1985.07 322.061 Q1987.52 322.061 1989.81 321.459 Q1992.13 320.857 1994.4 319.653 L1994.4 323.681 Q1992.11 324.653 1989.7 325.163 Q1987.29 325.672 1984.81 325.672 Q1978.61 325.672 1974.98 322.061 Q1971.36 318.45 1971.36 312.292 Q1971.36 305.927 1974.79 302.2 Q1978.24 298.45 1984.07 298.45 Q1989.3 298.45 1992.34 301.829 Q1995.39 305.186 1995.39 310.973 M1991.13 309.723 Q1991.09 306.228 1989.17 304.144 Q1987.27 302.061 1984.12 302.061 Q1980.55 302.061 1978.4 304.075 Q1976.27 306.089 1975.95 309.746 L1991.13 309.723 Z" fill="#000000" fill-rule="nonzero" fill-opacity="1" /><path clip-path="url(#clip880)" d="M2019.44 303.01 L2019.44 288.982 L2023.7 288.982 L2023.7 325.001 L2019.44 325.001 L2019.44 321.112 Q2018.1 323.427 2016.04 324.561 Q2014 325.672 2011.13 325.672 Q2006.43 325.672 2003.47 321.922 Q2000.53 318.172 2000.53 312.061 Q2000.53 305.95 2003.47 302.2 Q2006.43 298.45 2011.13 298.45 Q2014 298.45 2016.04 299.584 Q2018.1 300.695 2019.44 303.01 M2004.93 312.061 Q2004.93 316.76 2006.85 319.445 Q2008.8 322.107 2012.17 322.107 Q2015.55 322.107 2017.5 319.445 Q2019.44 316.76 2019.44 312.061 Q2019.44 307.362 2017.5 304.7 Q2015.55 302.015 2012.17 302.015 Q2008.8 302.015 2006.85 304.7 Q2004.93 307.362 2004.93 312.061 Z" fill="#000000" fill-rule="nonzero" fill-opacity="1" /><path clip-path="url(#clip880)" d="M2032.48 299.075 L2036.73 299.075 L2036.73 325.001 L2032.48 325.001 L2032.48 299.075 M2032.48 288.982 L2036.73 288.982 L2036.73 294.376 L2032.48 294.376 L2032.48 288.982 Z" fill="#000000" fill-rule="nonzero" fill-opacity="1" /><path clip-path="url(#clip880)" d="M2064.3 300.07 L2064.3 304.052 Q2062.5 303.056 2060.67 302.57 Q2058.86 302.061 2057.01 302.061 Q2052.87 302.061 2050.58 304.7 Q2048.29 307.316 2048.29 312.061 Q2048.29 316.806 2050.58 319.445 Q2052.87 322.061 2057.01 322.061 Q2058.86 322.061 2060.67 321.575 Q2062.5 321.065 2064.3 320.07 L2064.3 324.005 Q2062.52 324.839 2060.6 325.255 Q2058.7 325.672 2056.55 325.672 Q2050.69 325.672 2047.24 321.991 Q2043.8 318.311 2043.8 312.061 Q2043.8 305.718 2047.27 302.084 Q2050.76 298.45 2056.83 298.45 Q2058.8 298.45 2060.67 298.867 Q2062.54 299.26 2064.3 300.07 Z" fill="#000000" fill-rule="nonzero" fill-opacity="1" /><path clip-path="url(#clip880)" d="M2075.92 291.714 L2075.92 299.075 L2084.7 299.075 L2084.7 302.385 L2075.92 302.385 L2075.92 316.459 Q2075.92 319.63 2076.78 320.533 Q2077.66 321.436 2080.32 321.436 L2084.7 321.436 L2084.7 325.001 L2080.32 325.001 Q2075.39 325.001 2073.52 323.172 Q2071.64 321.32 2071.64 316.459 L2071.64 302.385 L2068.52 302.385 L2068.52 299.075 L2071.64 299.075 L2071.64 291.714 L2075.92 291.714 Z" fill="#000000" fill-rule="nonzero" fill-opacity="1" /><path clip-path="url(#clip880)" d="M2112.48 310.973 L2112.48 313.056 L2092.89 313.056 Q2093.17 317.454 2095.53 319.769 Q2097.92 322.061 2102.15 322.061 Q2104.6 322.061 2106.9 321.459 Q2109.21 320.857 2111.48 319.653 L2111.48 323.681 Q2109.19 324.653 2106.78 325.163 Q2104.37 325.672 2101.9 325.672 Q2095.69 325.672 2092.06 322.061 Q2088.45 318.45 2088.45 312.292 Q2088.45 305.927 2091.87 302.2 Q2095.32 298.45 2101.16 298.45 Q2106.39 298.45 2109.42 301.829 Q2112.48 305.186 2112.48 310.973 M2108.22 309.723 Q2108.17 306.228 2106.25 304.144 Q2104.35 302.061 2101.2 302.061 Q2097.64 302.061 2095.48 304.075 Q2093.36 306.089 2093.03 309.746 L2108.22 309.723 Z" fill="#000000" fill-rule="nonzero" fill-opacity="1" /><path clip-path="url(#clip880)" d="M2136.53 303.01 L2136.53 288.982 L2140.79 288.982 L2140.79 325.001 L2136.53 325.001 L2136.53 321.112 Q2135.18 323.427 2133.12 324.561 Q2131.09 325.672 2128.22 325.672 Q2123.52 325.672 2120.55 321.922 Q2117.61 318.172 2117.61 312.061 Q2117.61 305.95 2120.55 302.2 Q2123.52 298.45 2128.22 298.45 Q2131.09 298.45 2133.12 299.584 Q2135.18 300.695 2136.53 303.01 M2122.01 312.061 Q2122.01 316.76 2123.93 319.445 Q2125.88 322.107 2129.26 322.107 Q2132.64 322.107 2134.58 319.445 Q2136.53 316.76 2136.53 312.061 Q2136.53 307.362 2134.58 304.7 Q2132.64 302.015 2129.26 302.015 Q2125.88 302.015 2123.93 304.7 Q2122.01 307.362 2122.01 312.061 Z" fill="#000000" fill-rule="nonzero" fill-opacity="1" /><path clip-path="url(#clip880)" d="M2164.81 290.441 L2171.78 290.441 L2180.6 313.959 L2189.47 290.441 L2196.43 290.441 L2196.43 325.001 L2191.87 325.001 L2191.87 294.654 L2182.96 318.357 L2178.26 318.357 L2169.35 294.654 L2169.35 325.001 L2164.81 325.001 L2164.81 290.441 Z" fill="#000000" fill-rule="nonzero" fill-opacity="1" /><path clip-path="url(#clip880)" d="M2205.72 290.441 L2210.39 290.441 L2210.39 321.065 L2227.22 321.065 L2227.22 325.001 L2205.72 325.001 L2205.72 290.441 Z" fill="#000000" fill-rule="nonzero" fill-opacity="1" /><path clip-path="url(#clip880)" d="M2236.8 294.283 L2236.8 307.269 L2242.68 307.269 Q2245.95 307.269 2247.73 305.579 Q2249.51 303.89 2249.51 300.765 Q2249.51 297.663 2247.73 295.973 Q2245.95 294.283 2242.68 294.283 L2236.8 294.283 M2232.13 290.441 L2242.68 290.441 Q2248.49 290.441 2251.46 293.08 Q2254.44 295.695 2254.44 300.765 Q2254.44 305.88 2251.46 308.496 Q2248.49 311.112 2242.68 311.112 L2236.8 311.112 L2236.8 325.001 L2232.13 325.001 L2232.13 290.441 Z" fill="#000000" fill-rule="nonzero" fill-opacity="1" /></svg>
