<?xml version="1.0" encoding="utf-8"?>
<svg xmlns="http://www.w3.org/2000/svg" xmlns:xlink="http://www.w3.org/1999/xlink" width="600" height="400" viewBox="0 0 2400 1600">
<defs>
  <clipPath id="clip130">
    <rect x="0" y="0" width="2400" height="1600"/>
  </clipPath>
</defs>
<path clip-path="url(#clip130)" d="M0 1600 L2400 1600 L2400 0 L0 0  Z" fill="#ffffff" fill-rule="evenodd" fill-opacity="1"/>
<defs>
  <clipPath id="clip131">
    <rect x="480" y="0" width="1681" height="1600"/>
  </clipPath>
</defs>
<path clip-path="url(#clip130)" d="M156.598 1486.45 L2352.76 1486.45 L2352.76 47.2441 L156.598 47.2441  Z" fill="#ffffff" fill-rule="evenodd" fill-opacity="1"/>
<defs>
  <clipPath id="clip132">
    <rect x="156" y="47" width="2197" height="1440"/>
  </clipPath>
</defs>
<polyline clip-path="url(#clip132)" style="stroke:#000000; stroke-linecap:round; stroke-linejoin:round; stroke-width:2; stroke-opacity:0.1; fill:none" points="156.598,1486.45 156.598,47.2441 "/>
<polyline clip-path="url(#clip132)" style="stroke:#000000; stroke-linecap:round; stroke-linejoin:round; stroke-width:2; stroke-opacity:0.1; fill:none" points="595.83,1486.45 595.83,47.2441 "/>
<polyline clip-path="url(#clip132)" style="stroke:#000000; stroke-linecap:round; stroke-linejoin:round; stroke-width:2; stroke-opacity:0.1; fill:none" points="1035.06,1486.45 1035.06,47.2441 "/>
<polyline clip-path="url(#clip132)" style="stroke:#000000; stroke-linecap:round; stroke-linejoin:round; stroke-width:2; stroke-opacity:0.1; fill:none" points="1474.29,1486.45 1474.29,47.2441 "/>
<polyline clip-path="url(#clip132)" style="stroke:#000000; stroke-linecap:round; stroke-linejoin:round; stroke-width:2; stroke-opacity:0.1; fill:none" points="1913.52,1486.45 1913.52,47.2441 "/>
<polyline clip-path="url(#clip132)" style="stroke:#000000; stroke-linecap:round; stroke-linejoin:round; stroke-width:2; stroke-opacity:0.1; fill:none" points="2352.76,1486.45 2352.76,47.2441 "/>
<polyline clip-path="url(#clip130)" style="stroke:#000000; stroke-linecap:round; stroke-linejoin:round; stroke-width:4; stroke-opacity:1; fill:none" points="156.598,1486.45 2352.76,1486.45 "/>
<polyline clip-path="url(#clip130)" style="stroke:#000000; stroke-linecap:round; stroke-linejoin:round; stroke-width:4; stroke-opacity:1; fill:none" points="156.598,1486.45 156.598,1467.55 "/>
<polyline clip-path="url(#clip130)" style="stroke:#000000; stroke-linecap:round; stroke-linejoin:round; stroke-width:4; stroke-opacity:1; fill:none" points="595.83,1486.45 595.83,1467.55 "/>
<polyline clip-path="url(#clip130)" style="stroke:#000000; stroke-linecap:round; stroke-linejoin:round; stroke-width:4; stroke-opacity:1; fill:none" points="1035.06,1486.45 1035.06,1467.55 "/>
<polyline clip-path="url(#clip130)" style="stroke:#000000; stroke-linecap:round; stroke-linejoin:round; stroke-width:4; stroke-opacity:1; fill:none" points="1474.29,1486.45 1474.29,1467.55 "/>
<polyline clip-path="url(#clip130)" style="stroke:#000000; stroke-linecap:round; stroke-linejoin:round; stroke-width:4; stroke-opacity:1; fill:none" points="1913.52,1486.45 1913.52,1467.55 "/>
<polyline clip-path="url(#clip130)" style="stroke:#000000; stroke-linecap:round; stroke-linejoin:round; stroke-width:4; stroke-opacity:1; fill:none" points="2352.76,1486.45 2352.76,1467.55 "/>
<path clip-path="url(#clip130)" d="M156.598 1517.37 Q152.987 1517.37 151.158 1520.93 Q149.353 1524.47 149.353 1531.6 Q149.353 1538.71 151.158 1542.27 Q152.987 1545.82 156.598 1545.82 Q160.232 1545.82 162.038 1542.27 Q163.867 1538.71 163.867 1531.6 Q163.867 1524.47 162.038 1520.93 Q160.232 1517.37 156.598 1517.37 M156.598 1513.66 Q162.408 1513.66 165.464 1518.27 Q168.543 1522.85 168.543 1531.6 Q168.543 1540.33 165.464 1544.94 Q162.408 1549.52 156.598 1549.52 Q150.788 1549.52 147.709 1544.94 Q144.654 1540.33 144.654 1531.6 Q144.654 1522.85 147.709 1518.27 Q150.788 1513.66 156.598 1513.66 Z" fill="#000000" fill-rule="nonzero" fill-opacity="1" /><path clip-path="url(#clip130)" d="M590.483 1544.91 L606.802 1544.91 L606.802 1548.85 L584.858 1548.85 L584.858 1544.91 Q587.52 1542.16 592.103 1537.53 Q596.709 1532.88 597.89 1531.53 Q600.135 1529.01 601.015 1527.27 Q601.918 1525.51 601.918 1523.82 Q601.918 1521.07 599.973 1519.33 Q598.052 1517.6 594.95 1517.6 Q592.751 1517.6 590.297 1518.36 Q587.867 1519.13 585.089 1520.68 L585.089 1515.95 Q587.913 1514.82 590.367 1514.24 Q592.821 1513.66 594.858 1513.66 Q600.228 1513.66 603.422 1516.35 Q606.617 1519.03 606.617 1523.52 Q606.617 1525.65 605.807 1527.57 Q605.02 1529.47 602.913 1532.07 Q602.334 1532.74 599.233 1535.95 Q596.131 1539.15 590.483 1544.91 Z" fill="#000000" fill-rule="nonzero" fill-opacity="1" /><path clip-path="url(#clip130)" d="M1038.07 1518.36 L1026.27 1536.81 L1038.07 1536.81 L1038.07 1518.36 M1036.84 1514.29 L1042.72 1514.29 L1042.72 1536.81 L1047.65 1536.81 L1047.65 1540.7 L1042.72 1540.7 L1042.72 1548.85 L1038.07 1548.85 L1038.07 1540.7 L1022.47 1540.7 L1022.47 1536.19 L1036.84 1514.29 Z" fill="#000000" fill-rule="nonzero" fill-opacity="1" /><path clip-path="url(#clip130)" d="M1474.7 1529.7 Q1471.55 1529.7 1469.7 1531.86 Q1467.87 1534.01 1467.87 1537.76 Q1467.87 1541.49 1469.7 1543.66 Q1471.55 1545.82 1474.7 1545.82 Q1477.85 1545.82 1479.67 1543.66 Q1481.53 1541.49 1481.53 1537.76 Q1481.53 1534.01 1479.67 1531.86 Q1477.85 1529.7 1474.7 1529.7 M1483.98 1515.05 L1483.98 1519.31 Q1482.22 1518.48 1480.42 1518.04 Q1478.63 1517.6 1476.87 1517.6 Q1472.24 1517.6 1469.79 1520.72 Q1467.36 1523.85 1467.01 1530.17 Q1468.38 1528.15 1470.44 1527.09 Q1472.5 1526 1474.98 1526 Q1480.18 1526 1483.19 1529.17 Q1486.23 1532.32 1486.23 1537.76 Q1486.23 1543.08 1483.08 1546.3 Q1479.93 1549.52 1474.7 1549.52 Q1468.7 1549.52 1465.53 1544.94 Q1462.36 1540.33 1462.36 1531.6 Q1462.36 1523.41 1466.25 1518.55 Q1470.14 1513.66 1476.69 1513.66 Q1478.45 1513.66 1480.23 1514.01 Q1482.04 1514.36 1483.98 1515.05 Z" fill="#000000" fill-rule="nonzero" fill-opacity="1" /><path clip-path="url(#clip130)" d="M1913.52 1532.44 Q1910.19 1532.44 1908.27 1534.22 Q1906.37 1536 1906.37 1539.13 Q1906.37 1542.25 1908.27 1544.03 Q1910.19 1545.82 1913.52 1545.82 Q1916.86 1545.82 1918.78 1544.03 Q1920.7 1542.23 1920.7 1539.13 Q1920.7 1536 1918.78 1534.22 Q1916.88 1532.44 1913.52 1532.44 M1908.85 1530.45 Q1905.84 1529.7 1904.15 1527.64 Q1902.48 1525.58 1902.48 1522.62 Q1902.48 1518.48 1905.42 1516.07 Q1908.39 1513.66 1913.52 1513.66 Q1918.69 1513.66 1921.63 1516.07 Q1924.57 1518.48 1924.57 1522.62 Q1924.57 1525.58 1922.88 1527.64 Q1921.21 1529.7 1918.22 1530.45 Q1921.6 1531.23 1923.48 1533.52 Q1925.38 1535.82 1925.38 1539.13 Q1925.38 1544.15 1922.3 1546.83 Q1919.24 1549.52 1913.52 1549.52 Q1907.81 1549.52 1904.73 1546.83 Q1901.67 1544.15 1901.67 1539.13 Q1901.67 1535.82 1903.57 1533.52 Q1905.47 1531.23 1908.85 1530.45 M1907.14 1523.06 Q1907.14 1525.75 1908.8 1527.25 Q1910.49 1528.76 1913.52 1528.76 Q1916.53 1528.76 1918.22 1527.25 Q1919.94 1525.75 1919.94 1523.06 Q1919.94 1520.38 1918.22 1518.87 Q1916.53 1517.37 1913.52 1517.37 Q1910.49 1517.37 1908.8 1518.87 Q1907.14 1520.38 1907.14 1523.06 Z" fill="#000000" fill-rule="nonzero" fill-opacity="1" /><path clip-path="url(#clip130)" d="M2327.44 1544.91 L2335.08 1544.91 L2335.08 1518.55 L2326.77 1520.21 L2326.77 1515.95 L2335.04 1514.29 L2339.71 1514.29 L2339.71 1544.91 L2347.35 1544.91 L2347.35 1548.85 L2327.44 1548.85 L2327.44 1544.91 Z" fill="#000000" fill-rule="nonzero" fill-opacity="1" /><path clip-path="url(#clip130)" d="M2366.8 1517.37 Q2363.18 1517.37 2361.36 1520.93 Q2359.55 1524.47 2359.55 1531.6 Q2359.55 1538.71 2361.36 1542.27 Q2363.18 1545.82 2366.8 1545.82 Q2370.43 1545.82 2372.23 1542.27 Q2374.06 1538.71 2374.06 1531.6 Q2374.06 1524.47 2372.23 1520.93 Q2370.43 1517.37 2366.8 1517.37 M2366.8 1513.66 Q2372.61 1513.66 2375.66 1518.27 Q2378.74 1522.85 2378.74 1531.6 Q2378.74 1540.33 2375.66 1544.94 Q2372.61 1549.52 2366.8 1549.52 Q2360.99 1549.52 2357.91 1544.94 Q2354.85 1540.33 2354.85 1531.6 Q2354.85 1522.85 2357.91 1518.27 Q2360.99 1513.66 2366.8 1513.66 Z" fill="#000000" fill-rule="nonzero" fill-opacity="1" /><polyline clip-path="url(#clip132)" style="stroke:#000000; stroke-linecap:round; stroke-linejoin:round; stroke-width:2; stroke-opacity:0.1; fill:none" points="156.598,1486.45 2352.76,1486.45 "/>
<polyline clip-path="url(#clip132)" style="stroke:#000000; stroke-linecap:round; stroke-linejoin:round; stroke-width:2; stroke-opacity:0.1; fill:none" points="156.598,1166.62 2352.76,1166.62 "/>
<polyline clip-path="url(#clip132)" style="stroke:#000000; stroke-linecap:round; stroke-linejoin:round; stroke-width:2; stroke-opacity:0.1; fill:none" points="156.598,846.802 2352.76,846.802 "/>
<polyline clip-path="url(#clip132)" style="stroke:#000000; stroke-linecap:round; stroke-linejoin:round; stroke-width:2; stroke-opacity:0.1; fill:none" points="156.598,526.979 2352.76,526.979 "/>
<polyline clip-path="url(#clip132)" style="stroke:#000000; stroke-linecap:round; stroke-linejoin:round; stroke-width:2; stroke-opacity:0.1; fill:none" points="156.598,207.156 2352.76,207.156 "/>
<polyline clip-path="url(#clip130)" style="stroke:#000000; stroke-linecap:round; stroke-linejoin:round; stroke-width:4; stroke-opacity:1; fill:none" points="156.598,1486.45 156.598,47.2441 "/>
<polyline clip-path="url(#clip130)" style="stroke:#000000; stroke-linecap:round; stroke-linejoin:round; stroke-width:4; stroke-opacity:1; fill:none" points="156.598,1486.45 175.496,1486.45 "/>
<polyline clip-path="url(#clip130)" style="stroke:#000000; stroke-linecap:round; stroke-linejoin:round; stroke-width:4; stroke-opacity:1; fill:none" points="156.598,1166.62 175.496,1166.62 "/>
<polyline clip-path="url(#clip130)" style="stroke:#000000; stroke-linecap:round; stroke-linejoin:round; stroke-width:4; stroke-opacity:1; fill:none" points="156.598,846.802 175.496,846.802 "/>
<polyline clip-path="url(#clip130)" style="stroke:#000000; stroke-linecap:round; stroke-linejoin:round; stroke-width:4; stroke-opacity:1; fill:none" points="156.598,526.979 175.496,526.979 "/>
<polyline clip-path="url(#clip130)" style="stroke:#000000; stroke-linecap:round; stroke-linejoin:round; stroke-width:4; stroke-opacity:1; fill:none" points="156.598,207.156 175.496,207.156 "/>
<path clip-path="url(#clip130)" d="M63.4226 1472.25 Q59.8115 1472.25 57.9828 1475.81 Q56.1773 1479.35 56.1773 1486.48 Q56.1773 1493.59 57.9828 1497.15 Q59.8115 1500.7 63.4226 1500.7 Q67.0569 1500.7 68.8624 1497.15 Q70.6911 1493.59 70.6911 1486.48 Q70.6911 1479.35 68.8624 1475.81 Q67.0569 1472.25 63.4226 1472.25 M63.4226 1468.54 Q69.2328 1468.54 72.2883 1473.15 Q75.367 1477.73 75.367 1486.48 Q75.367 1495.21 72.2883 1499.82 Q69.2328 1504.4 63.4226 1504.4 Q57.6125 1504.4 54.5338 1499.82 Q51.4782 1495.21 51.4782 1486.48 Q51.4782 1477.73 54.5338 1473.15 Q57.6125 1468.54 63.4226 1468.54 Z" fill="#000000" fill-rule="nonzero" fill-opacity="1" /><path clip-path="url(#clip130)" d="M83.5845 1497.85 L88.4688 1497.85 L88.4688 1503.73 L83.5845 1503.73 L83.5845 1497.85 Z" fill="#000000" fill-rule="nonzero" fill-opacity="1" /><path clip-path="url(#clip130)" d="M108.654 1472.25 Q105.043 1472.25 103.214 1475.81 Q101.409 1479.35 101.409 1486.48 Q101.409 1493.59 103.214 1497.15 Q105.043 1500.7 108.654 1500.7 Q112.288 1500.7 114.094 1497.15 Q115.922 1493.59 115.922 1486.48 Q115.922 1479.35 114.094 1475.81 Q112.288 1472.25 108.654 1472.25 M108.654 1468.54 Q114.464 1468.54 117.52 1473.15 Q120.598 1477.73 120.598 1486.48 Q120.598 1495.21 117.52 1499.82 Q114.464 1504.4 108.654 1504.4 Q102.844 1504.4 99.765 1499.82 Q96.7095 1495.21 96.7095 1486.48 Q96.7095 1477.73 99.765 1473.15 Q102.844 1468.54 108.654 1468.54 Z" fill="#000000" fill-rule="nonzero" fill-opacity="1" /><path clip-path="url(#clip130)" d="M64.6495 1152.42 Q61.0384 1152.42 59.2097 1155.99 Q57.4041 1159.53 57.4041 1166.66 Q57.4041 1173.77 59.2097 1177.33 Q61.0384 1180.87 64.6495 1180.87 Q68.2837 1180.87 70.0892 1177.33 Q71.9179 1173.77 71.9179 1166.66 Q71.9179 1159.53 70.0892 1155.99 Q68.2837 1152.42 64.6495 1152.42 M64.6495 1148.72 Q70.4596 1148.72 73.5152 1153.33 Q76.5938 1157.91 76.5938 1166.66 Q76.5938 1175.39 73.5152 1179.99 Q70.4596 1184.58 64.6495 1184.58 Q58.8393 1184.58 55.7606 1179.99 Q52.7051 1175.39 52.7051 1166.66 Q52.7051 1157.91 55.7606 1153.33 Q58.8393 1148.72 64.6495 1148.72 Z" fill="#000000" fill-rule="nonzero" fill-opacity="1" /><path clip-path="url(#clip130)" d="M84.8114 1178.03 L89.6956 1178.03 L89.6956 1183.9 L84.8114 1183.9 L84.8114 1178.03 Z" fill="#000000" fill-rule="nonzero" fill-opacity="1" /><path clip-path="url(#clip130)" d="M100.691 1179.97 L108.33 1179.97 L108.33 1153.6 L100.02 1155.27 L100.02 1151.01 L108.283 1149.34 L112.959 1149.34 L112.959 1179.97 L120.598 1179.97 L120.598 1183.9 L100.691 1183.9 L100.691 1179.97 Z" fill="#000000" fill-rule="nonzero" fill-opacity="1" /><path clip-path="url(#clip130)" d="M65.0198 832.6 Q61.4087 832.6 59.58 836.165 Q57.7745 839.707 57.7745 846.836 Q57.7745 853.943 59.58 857.508 Q61.4087 861.049 65.0198 861.049 Q68.6541 861.049 70.4596 857.508 Q72.2883 853.943 72.2883 846.836 Q72.2883 839.707 70.4596 836.165 Q68.6541 832.6 65.0198 832.6 M65.0198 828.897 Q70.83 828.897 73.8855 833.503 Q76.9642 838.087 76.9642 846.836 Q76.9642 855.563 73.8855 860.17 Q70.83 864.753 65.0198 864.753 Q59.2097 864.753 56.131 860.17 Q53.0754 855.563 53.0754 846.836 Q53.0754 838.087 56.131 833.503 Q59.2097 828.897 65.0198 828.897 Z" fill="#000000" fill-rule="nonzero" fill-opacity="1" /><path clip-path="url(#clip130)" d="M85.1818 858.202 L90.066 858.202 L90.066 864.082 L85.1818 864.082 L85.1818 858.202 Z" fill="#000000" fill-rule="nonzero" fill-opacity="1" /><path clip-path="url(#clip130)" d="M104.279 860.147 L120.598 860.147 L120.598 864.082 L98.6539 864.082 L98.6539 860.147 Q101.316 857.392 105.899 852.762 Q110.506 848.11 111.686 846.767 Q113.932 844.244 114.811 842.508 Q115.714 840.749 115.714 839.059 Q115.714 836.304 113.77 834.568 Q111.848 832.832 108.746 832.832 Q106.547 832.832 104.094 833.596 Q101.663 834.36 98.8854 835.911 L98.8854 831.188 Q101.709 830.054 104.163 829.475 Q106.617 828.897 108.654 828.897 Q114.024 828.897 117.219 831.582 Q120.413 834.267 120.413 838.758 Q120.413 840.887 119.603 842.809 Q118.816 844.707 116.709 847.299 Q116.131 847.971 113.029 851.188 Q109.927 854.383 104.279 860.147 Z" fill="#000000" fill-rule="nonzero" fill-opacity="1" /><path clip-path="url(#clip130)" d="M64.0708 512.777 Q60.4597 512.777 58.631 516.342 Q56.8254 519.884 56.8254 527.013 Q56.8254 534.12 58.631 537.685 Q60.4597 541.226 64.0708 541.226 Q67.705 541.226 69.5105 537.685 Q71.3392 534.12 71.3392 527.013 Q71.3392 519.884 69.5105 516.342 Q67.705 512.777 64.0708 512.777 M64.0708 509.074 Q69.8809 509.074 72.9365 513.68 Q76.0151 518.263 76.0151 527.013 Q76.0151 535.74 72.9365 540.347 Q69.8809 544.93 64.0708 544.93 Q58.2606 544.93 55.1819 540.347 Q52.1264 535.74 52.1264 527.013 Q52.1264 518.263 55.1819 513.68 Q58.2606 509.074 64.0708 509.074 Z" fill="#000000" fill-rule="nonzero" fill-opacity="1" /><path clip-path="url(#clip130)" d="M84.2327 538.379 L89.1169 538.379 L89.1169 544.259 L84.2327 544.259 L84.2327 538.379 Z" fill="#000000" fill-rule="nonzero" fill-opacity="1" /><path clip-path="url(#clip130)" d="M113.469 525.625 Q116.825 526.342 118.7 528.611 Q120.598 530.879 120.598 534.212 Q120.598 539.328 117.08 542.129 Q113.561 544.93 107.08 544.93 Q104.904 544.93 102.589 544.49 Q100.297 544.074 97.8437 543.217 L97.8437 538.703 Q99.7882 539.837 102.103 540.416 Q104.418 540.995 106.941 540.995 Q111.339 540.995 113.631 539.259 Q115.945 537.523 115.945 534.212 Q115.945 531.157 113.793 529.444 Q111.663 527.708 107.844 527.708 L103.816 527.708 L103.816 523.865 L108.029 523.865 Q111.478 523.865 113.307 522.5 Q115.135 521.111 115.135 518.518 Q115.135 515.856 113.237 514.444 Q111.362 513.009 107.844 513.009 Q105.922 513.009 103.723 513.426 Q101.524 513.842 98.8854 514.722 L98.8854 510.555 Q101.547 509.814 103.862 509.444 Q106.2 509.074 108.26 509.074 Q113.584 509.074 116.686 511.504 Q119.788 513.912 119.788 518.032 Q119.788 520.902 118.145 522.893 Q116.501 524.861 113.469 525.625 Z" fill="#000000" fill-rule="nonzero" fill-opacity="1" /><path clip-path="url(#clip130)" d="M62.9365 192.954 Q59.3254 192.954 57.4967 196.519 Q55.6912 200.061 55.6912 207.19 Q55.6912 214.297 57.4967 217.862 Q59.3254 221.403 62.9365 221.403 Q66.5707 221.403 68.3763 217.862 Q70.205 214.297 70.205 207.19 Q70.205 200.061 68.3763 196.519 Q66.5707 192.954 62.9365 192.954 M62.9365 189.251 Q68.7467 189.251 71.8022 193.857 Q74.8809 198.44 74.8809 207.19 Q74.8809 215.917 71.8022 220.524 Q68.7467 225.107 62.9365 225.107 Q57.1264 225.107 54.0477 220.524 Q50.9921 215.917 50.9921 207.19 Q50.9921 198.44 54.0477 193.857 Q57.1264 189.251 62.9365 189.251 Z" fill="#000000" fill-rule="nonzero" fill-opacity="1" /><path clip-path="url(#clip130)" d="M83.0984 218.556 L87.9827 218.556 L87.9827 224.436 L83.0984 224.436 L83.0984 218.556 Z" fill="#000000" fill-rule="nonzero" fill-opacity="1" /><path clip-path="url(#clip130)" d="M111.015 193.95 L99.2095 212.399 L111.015 212.399 L111.015 193.95 M109.788 189.876 L115.668 189.876 L115.668 212.399 L120.598 212.399 L120.598 216.288 L115.668 216.288 L115.668 224.436 L111.015 224.436 L111.015 216.288 L95.4132 216.288 L95.4132 211.774 L109.788 189.876 Z" fill="#000000" fill-rule="nonzero" fill-opacity="1" /><path clip-path="url(#clip132)" d="M200.521 1406.49 L200.521 1486.45 L244.445 1486.45 L244.445 1406.49 L200.521 1406.49 L200.521 1406.49  Z" fill="#009af9" fill-rule="evenodd" fill-opacity="1"/>
<polyline clip-path="url(#clip132)" style="stroke:#000000; stroke-linecap:round; stroke-linejoin:round; stroke-width:4; stroke-opacity:1; fill:none" points="200.521,1406.49 200.521,1486.45 244.445,1486.45 244.445,1406.49 200.521,1406.49 "/>
<path clip-path="url(#clip132)" d="M244.445 1406.49 L244.445 1486.45 L288.368 1486.45 L288.368 1406.49 L244.445 1406.49 L244.445 1406.49  Z" fill="#009af9" fill-rule="evenodd" fill-opacity="1"/>
<polyline clip-path="url(#clip132)" style="stroke:#000000; stroke-linecap:round; stroke-linejoin:round; stroke-width:4; stroke-opacity:1; fill:none" points="244.445,1406.49 244.445,1486.45 288.368,1486.45 288.368,1406.49 244.445,1406.49 "/>
<path clip-path="url(#clip132)" d="M288.368 1486.45 L288.368 1486.45 L332.291 1486.45 L332.291 1486.45 L288.368 1486.45 L288.368 1486.45  Z" fill="#009af9" fill-rule="evenodd" fill-opacity="1"/>
<polyline clip-path="url(#clip132)" style="stroke:#000000; stroke-linecap:round; stroke-linejoin:round; stroke-width:4; stroke-opacity:1; fill:none" points="288.368,1486.45 288.368,1486.45 332.291,1486.45 288.368,1486.45 "/>
<path clip-path="url(#clip132)" d="M332.291 1486.45 L332.291 1486.45 L376.214 1486.45 L376.214 1486.45 L332.291 1486.45 L332.291 1486.45  Z" fill="#009af9" fill-rule="evenodd" fill-opacity="1"/>
<polyline clip-path="url(#clip132)" style="stroke:#000000; stroke-linecap:round; stroke-linejoin:round; stroke-width:4; stroke-opacity:1; fill:none" points="332.291,1486.45 332.291,1486.45 376.214,1486.45 332.291,1486.45 "/>
<path clip-path="url(#clip132)" d="M376.214 1406.49 L376.214 1486.45 L420.137 1486.45 L420.137 1406.49 L376.214 1406.49 L376.214 1406.49  Z" fill="#009af9" fill-rule="evenodd" fill-opacity="1"/>
<polyline clip-path="url(#clip132)" style="stroke:#000000; stroke-linecap:round; stroke-linejoin:round; stroke-width:4; stroke-opacity:1; fill:none" points="376.214,1406.49 376.214,1486.45 420.137,1486.45 420.137,1406.49 376.214,1406.49 "/>
<path clip-path="url(#clip132)" d="M420.137 1486.45 L420.137 1486.45 L464.06 1486.45 L464.06 1486.45 L420.137 1486.45 L420.137 1486.45  Z" fill="#009af9" fill-rule="evenodd" fill-opacity="1"/>
<polyline clip-path="url(#clip132)" style="stroke:#000000; stroke-linecap:round; stroke-linejoin:round; stroke-width:4; stroke-opacity:1; fill:none" points="420.137,1486.45 420.137,1486.45 464.06,1486.45 420.137,1486.45 "/>
<path clip-path="url(#clip132)" d="M464.06 1166.62 L464.06 1486.45 L507.983 1486.45 L507.983 1166.62 L464.06 1166.62 L464.06 1166.62  Z" fill="#009af9" fill-rule="evenodd" fill-opacity="1"/>
<polyline clip-path="url(#clip132)" style="stroke:#000000; stroke-linecap:round; stroke-linejoin:round; stroke-width:4; stroke-opacity:1; fill:none" points="464.06,1166.62 464.06,1486.45 507.983,1486.45 507.983,1166.62 464.06,1166.62 "/>
<path clip-path="url(#clip132)" d="M507.983 1166.62 L507.983 1486.45 L551.907 1486.45 L551.907 1166.62 L507.983 1166.62 L507.983 1166.62  Z" fill="#009af9" fill-rule="evenodd" fill-opacity="1"/>
<polyline clip-path="url(#clip132)" style="stroke:#000000; stroke-linecap:round; stroke-linejoin:round; stroke-width:4; stroke-opacity:1; fill:none" points="507.983,1166.62 507.983,1486.45 551.907,1486.45 551.907,1166.62 507.983,1166.62 "/>
<path clip-path="url(#clip132)" d="M551.907 1166.62 L551.907 1486.45 L595.83 1486.45 L595.83 1166.62 L551.907 1166.62 L551.907 1166.62  Z" fill="#009af9" fill-rule="evenodd" fill-opacity="1"/>
<polyline clip-path="url(#clip132)" style="stroke:#000000; stroke-linecap:round; stroke-linejoin:round; stroke-width:4; stroke-opacity:1; fill:none" points="551.907,1166.62 551.907,1486.45 595.83,1486.45 595.83,1166.62 551.907,1166.62 "/>
<path clip-path="url(#clip132)" d="M595.83 1166.62 L595.83 1486.45 L639.753 1486.45 L639.753 1166.62 L595.83 1166.62 L595.83 1166.62  Z" fill="#009af9" fill-rule="evenodd" fill-opacity="1"/>
<polyline clip-path="url(#clip132)" style="stroke:#000000; stroke-linecap:round; stroke-linejoin:round; stroke-width:4; stroke-opacity:1; fill:none" points="595.83,1166.62 595.83,1486.45 639.753,1486.45 639.753,1166.62 595.83,1166.62 "/>
<path clip-path="url(#clip132)" d="M639.753 846.802 L639.753 1486.45 L683.676 1486.45 L683.676 846.802 L639.753 846.802 L639.753 846.802  Z" fill="#009af9" fill-rule="evenodd" fill-opacity="1"/>
<polyline clip-path="url(#clip132)" style="stroke:#000000; stroke-linecap:round; stroke-linejoin:round; stroke-width:4; stroke-opacity:1; fill:none" points="639.753,846.802 639.753,1486.45 683.676,1486.45 683.676,846.802 639.753,846.802 "/>
<path clip-path="url(#clip132)" d="M683.676 926.758 L683.676 1486.45 L727.599 1486.45 L727.599 926.758 L683.676 926.758 L683.676 926.758  Z" fill="#009af9" fill-rule="evenodd" fill-opacity="1"/>
<polyline clip-path="url(#clip132)" style="stroke:#000000; stroke-linecap:round; stroke-linejoin:round; stroke-width:4; stroke-opacity:1; fill:none" points="683.676,926.758 683.676,1486.45 727.599,1486.45 727.599,926.758 683.676,926.758 "/>
<path clip-path="url(#clip132)" d="M727.599 686.89 L727.599 1486.45 L771.522 1486.45 L771.522 686.89 L727.599 686.89 L727.599 686.89  Z" fill="#009af9" fill-rule="evenodd" fill-opacity="1"/>
<polyline clip-path="url(#clip132)" style="stroke:#000000; stroke-linecap:round; stroke-linejoin:round; stroke-width:4; stroke-opacity:1; fill:none" points="727.599,686.89 727.599,1486.45 771.522,1486.45 771.522,686.89 727.599,686.89 "/>
<path clip-path="url(#clip132)" d="M771.522 1166.62 L771.522 1486.45 L815.446 1486.45 L815.446 1166.62 L771.522 1166.62 L771.522 1166.62  Z" fill="#009af9" fill-rule="evenodd" fill-opacity="1"/>
<polyline clip-path="url(#clip132)" style="stroke:#000000; stroke-linecap:round; stroke-linejoin:round; stroke-width:4; stroke-opacity:1; fill:none" points="771.522,1166.62 771.522,1486.45 815.446,1486.45 815.446,1166.62 771.522,1166.62 "/>
<path clip-path="url(#clip132)" d="M815.446 606.934 L815.446 1486.45 L859.369 1486.45 L859.369 606.934 L815.446 606.934 L815.446 606.934  Z" fill="#009af9" fill-rule="evenodd" fill-opacity="1"/>
<polyline clip-path="url(#clip132)" style="stroke:#000000; stroke-linecap:round; stroke-linejoin:round; stroke-width:4; stroke-opacity:1; fill:none" points="815.446,606.934 815.446,1486.45 859.369,1486.45 859.369,606.934 815.446,606.934 "/>
<path clip-path="url(#clip132)" d="M859.369 47.2441 L859.369 1486.45 L903.292 1486.45 L903.292 47.2441 L859.369 47.2441 L859.369 47.2441  Z" fill="#009af9" fill-rule="evenodd" fill-opacity="1"/>
<polyline clip-path="url(#clip132)" style="stroke:#000000; stroke-linecap:round; stroke-linejoin:round; stroke-width:4; stroke-opacity:1; fill:none" points="859.369,47.2441 859.369,1486.45 903.292,1486.45 903.292,47.2441 859.369,47.2441 "/>
<path clip-path="url(#clip132)" d="M903.292 766.846 L903.292 1486.45 L947.215 1486.45 L947.215 766.846 L903.292 766.846 L903.292 766.846  Z" fill="#009af9" fill-rule="evenodd" fill-opacity="1"/>
<polyline clip-path="url(#clip132)" style="stroke:#000000; stroke-linecap:round; stroke-linejoin:round; stroke-width:4; stroke-opacity:1; fill:none" points="903.292,766.846 903.292,1486.45 947.215,1486.45 947.215,766.846 903.292,766.846 "/>
<path clip-path="url(#clip132)" d="M947.215 846.802 L947.215 1486.45 L991.138 1486.45 L991.138 846.802 L947.215 846.802 L947.215 846.802  Z" fill="#009af9" fill-rule="evenodd" fill-opacity="1"/>
<polyline clip-path="url(#clip132)" style="stroke:#000000; stroke-linecap:round; stroke-linejoin:round; stroke-width:4; stroke-opacity:1; fill:none" points="947.215,846.802 947.215,1486.45 991.138,1486.45 991.138,846.802 947.215,846.802 "/>
<path clip-path="url(#clip132)" d="M991.138 766.846 L991.138 1486.45 L1035.06 1486.45 L1035.06 766.846 L991.138 766.846 L991.138 766.846  Z" fill="#009af9" fill-rule="evenodd" fill-opacity="1"/>
<polyline clip-path="url(#clip132)" style="stroke:#000000; stroke-linecap:round; stroke-linejoin:round; stroke-width:4; stroke-opacity:1; fill:none" points="991.138,766.846 991.138,1486.45 1035.06,1486.45 1035.06,766.846 991.138,766.846 "/>
<path clip-path="url(#clip132)" d="M1035.06 846.802 L1035.06 1486.45 L1078.98 1486.45 L1078.98 846.802 L1035.06 846.802 L1035.06 846.802  Z" fill="#009af9" fill-rule="evenodd" fill-opacity="1"/>
<polyline clip-path="url(#clip132)" style="stroke:#000000; stroke-linecap:round; stroke-linejoin:round; stroke-width:4; stroke-opacity:1; fill:none" points="1035.06,846.802 1035.06,1486.45 1078.98,1486.45 1078.98,846.802 1035.06,846.802 "/>
<path clip-path="url(#clip132)" d="M1078.98 1326.54 L1078.98 1486.45 L1122.91 1486.45 L1122.91 1326.54 L1078.98 1326.54 L1078.98 1326.54  Z" fill="#009af9" fill-rule="evenodd" fill-opacity="1"/>
<polyline clip-path="url(#clip132)" style="stroke:#000000; stroke-linecap:round; stroke-linejoin:round; stroke-width:4; stroke-opacity:1; fill:none" points="1078.98,1326.54 1078.98,1486.45 1122.91,1486.45 1122.91,1326.54 1078.98,1326.54 "/>
<path clip-path="url(#clip132)" d="M1122.91 1086.67 L1122.91 1486.45 L1166.83 1486.45 L1166.83 1086.67 L1122.91 1086.67 L1122.91 1086.67  Z" fill="#009af9" fill-rule="evenodd" fill-opacity="1"/>
<polyline clip-path="url(#clip132)" style="stroke:#000000; stroke-linecap:round; stroke-linejoin:round; stroke-width:4; stroke-opacity:1; fill:none" points="1122.91,1086.67 1122.91,1486.45 1166.83,1486.45 1166.83,1086.67 1122.91,1086.67 "/>
<path clip-path="url(#clip132)" d="M1166.83 1086.67 L1166.83 1486.45 L1210.75 1486.45 L1210.75 1086.67 L1166.83 1086.67 L1166.83 1086.67  Z" fill="#009af9" fill-rule="evenodd" fill-opacity="1"/>
<polyline clip-path="url(#clip132)" style="stroke:#000000; stroke-linecap:round; stroke-linejoin:round; stroke-width:4; stroke-opacity:1; fill:none" points="1166.83,1086.67 1166.83,1486.45 1210.75,1486.45 1210.75,1086.67 1166.83,1086.67 "/>
<path clip-path="url(#clip132)" d="M1210.75 1326.54 L1210.75 1486.45 L1254.68 1486.45 L1254.68 1326.54 L1210.75 1326.54 L1210.75 1326.54  Z" fill="#009af9" fill-rule="evenodd" fill-opacity="1"/>
<polyline clip-path="url(#clip132)" style="stroke:#000000; stroke-linecap:round; stroke-linejoin:round; stroke-width:4; stroke-opacity:1; fill:none" points="1210.75,1326.54 1210.75,1486.45 1254.68,1486.45 1254.68,1326.54 1210.75,1326.54 "/>
<path clip-path="url(#clip132)" d="M1254.68 1406.49 L1254.68 1486.45 L1298.6 1486.45 L1298.6 1406.49 L1254.68 1406.49 L1254.68 1406.49  Z" fill="#009af9" fill-rule="evenodd" fill-opacity="1"/>
<polyline clip-path="url(#clip132)" style="stroke:#000000; stroke-linecap:round; stroke-linejoin:round; stroke-width:4; stroke-opacity:1; fill:none" points="1254.68,1406.49 1254.68,1486.45 1298.6,1486.45 1298.6,1406.49 1254.68,1406.49 "/>
<path clip-path="url(#clip132)" d="M1298.6 1486.45 L1298.6 1486.45 L1342.52 1486.45 L1342.52 1486.45 L1298.6 1486.45 L1298.6 1486.45  Z" fill="#009af9" fill-rule="evenodd" fill-opacity="1"/>
<polyline clip-path="url(#clip132)" style="stroke:#000000; stroke-linecap:round; stroke-linejoin:round; stroke-width:4; stroke-opacity:1; fill:none" points="1298.6,1486.45 1298.6,1486.45 1342.52,1486.45 1298.6,1486.45 "/>
<path clip-path="url(#clip132)" d="M1342.52 1486.45 L1342.52 1486.45 L1386.45 1486.45 L1386.45 1486.45 L1342.52 1486.45 L1342.52 1486.45  Z" fill="#009af9" fill-rule="evenodd" fill-opacity="1"/>
<polyline clip-path="url(#clip132)" style="stroke:#000000; stroke-linecap:round; stroke-linejoin:round; stroke-width:4; stroke-opacity:1; fill:none" points="1342.52,1486.45 1342.52,1486.45 1386.45,1486.45 1342.52,1486.45 "/>
<path clip-path="url(#clip132)" d="M1386.45 1486.45 L1386.45 1486.45 L1430.37 1486.45 L1430.37 1486.45 L1386.45 1486.45 L1386.45 1486.45  Z" fill="#009af9" fill-rule="evenodd" fill-opacity="1"/>
<polyline clip-path="url(#clip132)" style="stroke:#000000; stroke-linecap:round; stroke-linejoin:round; stroke-width:4; stroke-opacity:1; fill:none" points="1386.45,1486.45 1386.45,1486.45 1430.37,1486.45 1386.45,1486.45 "/>
<path clip-path="url(#clip132)" d="M1430.37 1326.54 L1430.37 1486.45 L1474.29 1486.45 L1474.29 1326.54 L1430.37 1326.54 L1430.37 1326.54  Z" fill="#009af9" fill-rule="evenodd" fill-opacity="1"/>
<polyline clip-path="url(#clip132)" style="stroke:#000000; stroke-linecap:round; stroke-linejoin:round; stroke-width:4; stroke-opacity:1; fill:none" points="1430.37,1326.54 1430.37,1486.45 1474.29,1486.45 1474.29,1326.54 1430.37,1326.54 "/>
<path clip-path="url(#clip132)" d="M1474.29 1326.54 L1474.29 1486.45 L1518.22 1486.45 L1518.22 1326.54 L1474.29 1326.54 L1474.29 1326.54  Z" fill="#009af9" fill-rule="evenodd" fill-opacity="1"/>
<polyline clip-path="url(#clip132)" style="stroke:#000000; stroke-linecap:round; stroke-linejoin:round; stroke-width:4; stroke-opacity:1; fill:none" points="1474.29,1326.54 1474.29,1486.45 1518.22,1486.45 1518.22,1326.54 1474.29,1326.54 "/>
<path clip-path="url(#clip132)" d="M1518.22 1166.62 L1518.22 1486.45 L1562.14 1486.45 L1562.14 1166.62 L1518.22 1166.62 L1518.22 1166.62  Z" fill="#009af9" fill-rule="evenodd" fill-opacity="1"/>
<polyline clip-path="url(#clip132)" style="stroke:#000000; stroke-linecap:round; stroke-linejoin:round; stroke-width:4; stroke-opacity:1; fill:none" points="1518.22,1166.62 1518.22,1486.45 1562.14,1486.45 1562.14,1166.62 1518.22,1166.62 "/>
<path clip-path="url(#clip132)" d="M1562.14 686.89 L1562.14 1486.45 L1606.06 1486.45 L1606.06 686.89 L1562.14 686.89 L1562.14 686.89  Z" fill="#009af9" fill-rule="evenodd" fill-opacity="1"/>
<polyline clip-path="url(#clip132)" style="stroke:#000000; stroke-linecap:round; stroke-linejoin:round; stroke-width:4; stroke-opacity:1; fill:none" points="1562.14,686.89 1562.14,1486.45 1606.06,1486.45 1606.06,686.89 1562.14,686.89 "/>
<path clip-path="url(#clip132)" d="M1606.06 367.067 L1606.06 1486.45 L1649.99 1486.45 L1649.99 367.067 L1606.06 367.067 L1606.06 367.067  Z" fill="#009af9" fill-rule="evenodd" fill-opacity="1"/>
<polyline clip-path="url(#clip132)" style="stroke:#000000; stroke-linecap:round; stroke-linejoin:round; stroke-width:4; stroke-opacity:1; fill:none" points="1606.06,367.067 1606.06,1486.45 1649.99,1486.45 1649.99,367.067 1606.06,367.067 "/>
<path clip-path="url(#clip132)" d="M1649.99 686.89 L1649.99 1486.45 L1693.91 1486.45 L1693.91 686.89 L1649.99 686.89 L1649.99 686.89  Z" fill="#009af9" fill-rule="evenodd" fill-opacity="1"/>
<polyline clip-path="url(#clip132)" style="stroke:#000000; stroke-linecap:round; stroke-linejoin:round; stroke-width:4; stroke-opacity:1; fill:none" points="1649.99,686.89 1649.99,1486.45 1693.91,1486.45 1693.91,686.89 1649.99,686.89 "/>
<path clip-path="url(#clip132)" d="M1693.91 1086.67 L1693.91 1486.45 L1737.83 1486.45 L1737.83 1086.67 L1693.91 1086.67 L1693.91 1086.67  Z" fill="#009af9" fill-rule="evenodd" fill-opacity="1"/>
<polyline clip-path="url(#clip132)" style="stroke:#000000; stroke-linecap:round; stroke-linejoin:round; stroke-width:4; stroke-opacity:1; fill:none" points="1693.91,1086.67 1693.91,1486.45 1737.83,1486.45 1737.83,1086.67 1693.91,1086.67 "/>
<path clip-path="url(#clip132)" d="M1737.83 606.934 L1737.83 1486.45 L1781.75 1486.45 L1781.75 606.934 L1737.83 606.934 L1737.83 606.934  Z" fill="#009af9" fill-rule="evenodd" fill-opacity="1"/>
<polyline clip-path="url(#clip132)" style="stroke:#000000; stroke-linecap:round; stroke-linejoin:round; stroke-width:4; stroke-opacity:1; fill:none" points="1737.83,606.934 1737.83,1486.45 1781.75,1486.45 1781.75,606.934 1737.83,606.934 "/>
<path clip-path="url(#clip132)" d="M1781.75 766.846 L1781.75 1486.45 L1825.68 1486.45 L1825.68 766.846 L1781.75 766.846 L1781.75 766.846  Z" fill="#009af9" fill-rule="evenodd" fill-opacity="1"/>
<polyline clip-path="url(#clip132)" style="stroke:#000000; stroke-linecap:round; stroke-linejoin:round; stroke-width:4; stroke-opacity:1; fill:none" points="1781.75,766.846 1781.75,1486.45 1825.68,1486.45 1825.68,766.846 1781.75,766.846 "/>
<path clip-path="url(#clip132)" d="M1825.68 1086.67 L1825.68 1486.45 L1869.6 1486.45 L1869.6 1086.67 L1825.68 1086.67 L1825.68 1086.67  Z" fill="#009af9" fill-rule="evenodd" fill-opacity="1"/>
<polyline clip-path="url(#clip132)" style="stroke:#000000; stroke-linecap:round; stroke-linejoin:round; stroke-width:4; stroke-opacity:1; fill:none" points="1825.68,1086.67 1825.68,1486.45 1869.6,1486.45 1869.6,1086.67 1825.68,1086.67 "/>
<path clip-path="url(#clip132)" d="M1869.6 1406.49 L1869.6 1486.45 L1913.52 1486.45 L1913.52 1406.49 L1869.6 1406.49 L1869.6 1406.49  Z" fill="#009af9" fill-rule="evenodd" fill-opacity="1"/>
<polyline clip-path="url(#clip132)" style="stroke:#000000; stroke-linecap:round; stroke-linejoin:round; stroke-width:4; stroke-opacity:1; fill:none" points="1869.6,1406.49 1869.6,1486.45 1913.52,1486.45 1913.52,1406.49 1869.6,1406.49 "/>
<path clip-path="url(#clip132)" d="M1913.52 1406.49 L1913.52 1486.45 L1957.45 1486.45 L1957.45 1406.49 L1913.52 1406.49 L1913.52 1406.49  Z" fill="#009af9" fill-rule="evenodd" fill-opacity="1"/>
<polyline clip-path="url(#clip132)" style="stroke:#000000; stroke-linecap:round; stroke-linejoin:round; stroke-width:4; stroke-opacity:1; fill:none" points="1913.52,1406.49 1913.52,1486.45 1957.45,1486.45 1957.45,1406.49 1913.52,1406.49 "/>
<circle clip-path="url(#clip132)" style="fill:#009af9; stroke:none; fill-opacity:0" cx="222.483" cy="1406.49" r="2"/>
<circle clip-path="url(#clip132)" style="fill:#009af9; stroke:none; fill-opacity:0" cx="266.406" cy="1406.49" r="2"/>
<circle clip-path="url(#clip132)" style="fill:#009af9; stroke:none; fill-opacity:0" cx="310.329" cy="1486.45" r="2"/>
<circle clip-path="url(#clip132)" style="fill:#009af9; stroke:none; fill-opacity:0" cx="354.252" cy="1486.45" r="2"/>
<circle clip-path="url(#clip132)" style="fill:#009af9; stroke:none; fill-opacity:0" cx="398.176" cy="1406.49" r="2"/>
<circle clip-path="url(#clip132)" style="fill:#009af9; stroke:none; fill-opacity:0" cx="442.099" cy="1486.45" r="2"/>
<circle clip-path="url(#clip132)" style="fill:#009af9; stroke:none; fill-opacity:0" cx="486.022" cy="1166.62" r="2"/>
<circle clip-path="url(#clip132)" style="fill:#009af9; stroke:none; fill-opacity:0" cx="529.945" cy="1166.62" r="2"/>
<circle clip-path="url(#clip132)" style="fill:#009af9; stroke:none; fill-opacity:0" cx="573.868" cy="1166.62" r="2"/>
<circle clip-path="url(#clip132)" style="fill:#009af9; stroke:none; fill-opacity:0" cx="617.791" cy="1166.62" r="2"/>
<circle clip-path="url(#clip132)" style="fill:#009af9; stroke:none; fill-opacity:0" cx="661.714" cy="846.802" r="2"/>
<circle clip-path="url(#clip132)" style="fill:#009af9; stroke:none; fill-opacity:0" cx="705.638" cy="926.758" r="2"/>
<circle clip-path="url(#clip132)" style="fill:#009af9; stroke:none; fill-opacity:0" cx="749.561" cy="686.89" r="2"/>
<circle clip-path="url(#clip132)" style="fill:#009af9; stroke:none; fill-opacity:0" cx="793.484" cy="1166.62" r="2"/>
<circle clip-path="url(#clip132)" style="fill:#009af9; stroke:none; fill-opacity:0" cx="837.407" cy="606.934" r="2"/>
<circle clip-path="url(#clip132)" style="fill:#009af9; stroke:none; fill-opacity:0" cx="881.33" cy="47.2441" r="2"/>
<circle clip-path="url(#clip132)" style="fill:#009af9; stroke:none; fill-opacity:0" cx="925.253" cy="766.846" r="2"/>
<circle clip-path="url(#clip132)" style="fill:#009af9; stroke:none; fill-opacity:0" cx="969.177" cy="846.802" r="2"/>
<circle clip-path="url(#clip132)" style="fill:#009af9; stroke:none; fill-opacity:0" cx="1013.1" cy="766.846" r="2"/>
<circle clip-path="url(#clip132)" style="fill:#009af9; stroke:none; fill-opacity:0" cx="1057.02" cy="846.802" r="2"/>
<circle clip-path="url(#clip132)" style="fill:#009af9; stroke:none; fill-opacity:0" cx="1100.95" cy="1326.54" r="2"/>
<circle clip-path="url(#clip132)" style="fill:#009af9; stroke:none; fill-opacity:0" cx="1144.87" cy="1086.67" r="2"/>
<circle clip-path="url(#clip132)" style="fill:#009af9; stroke:none; fill-opacity:0" cx="1188.79" cy="1086.67" r="2"/>
<circle clip-path="url(#clip132)" style="fill:#009af9; stroke:none; fill-opacity:0" cx="1232.72" cy="1326.54" r="2"/>
<circle clip-path="url(#clip132)" style="fill:#009af9; stroke:none; fill-opacity:0" cx="1276.64" cy="1406.49" r="2"/>
<circle clip-path="url(#clip132)" style="fill:#009af9; stroke:none; fill-opacity:0" cx="1320.56" cy="1486.45" r="2"/>
<circle clip-path="url(#clip132)" style="fill:#009af9; stroke:none; fill-opacity:0" cx="1364.48" cy="1486.45" r="2"/>
<circle clip-path="url(#clip132)" style="fill:#009af9; stroke:none; fill-opacity:0" cx="1408.41" cy="1486.45" r="2"/>
<circle clip-path="url(#clip132)" style="fill:#009af9; stroke:none; fill-opacity:0" cx="1452.33" cy="1326.54" r="2"/>
<circle clip-path="url(#clip132)" style="fill:#009af9; stroke:none; fill-opacity:0" cx="1496.25" cy="1326.54" r="2"/>
<circle clip-path="url(#clip132)" style="fill:#009af9; stroke:none; fill-opacity:0" cx="1540.18" cy="1166.62" r="2"/>
<circle clip-path="url(#clip132)" style="fill:#009af9; stroke:none; fill-opacity:0" cx="1584.1" cy="686.89" r="2"/>
<circle clip-path="url(#clip132)" style="fill:#009af9; stroke:none; fill-opacity:0" cx="1628.02" cy="367.067" r="2"/>
<circle clip-path="url(#clip132)" style="fill:#009af9; stroke:none; fill-opacity:0" cx="1671.95" cy="686.89" r="2"/>
<circle clip-path="url(#clip132)" style="fill:#009af9; stroke:none; fill-opacity:0" cx="1715.87" cy="1086.67" r="2"/>
<circle clip-path="url(#clip132)" style="fill:#009af9; stroke:none; fill-opacity:0" cx="1759.79" cy="606.934" r="2"/>
<circle clip-path="url(#clip132)" style="fill:#009af9; stroke:none; fill-opacity:0" cx="1803.72" cy="766.846" r="2"/>
<circle clip-path="url(#clip132)" style="fill:#009af9; stroke:none; fill-opacity:0" cx="1847.64" cy="1086.67" r="2"/>
<circle clip-path="url(#clip132)" style="fill:#009af9; stroke:none; fill-opacity:0" cx="1891.56" cy="1406.49" r="2"/>
<circle clip-path="url(#clip132)" style="fill:#009af9; stroke:none; fill-opacity:0" cx="1935.49" cy="1406.49" r="2"/>
<polyline clip-path="url(#clip132)" style="stroke:#e26f46; stroke-linecap:round; stroke-linejoin:round; stroke-width:4; stroke-opacity:1; fill:none" points="156.598,1486.45 167.634,1485.26 178.67,1483.89 189.706,1482.31 200.742,1480.49 211.778,1478.42 222.814,1476.07 233.85,1473.4 244.886,1470.38 255.922,1466.99 266.958,1463.19 277.994,1458.94 289.03,1454.21 300.066,1448.96 311.102,1443.15 322.138,1436.75 333.174,1429.72 344.21,1422.03 355.246,1413.63 366.282,1404.49 377.318,1394.58 388.354,1383.87 399.39,1372.33 410.426,1359.95 421.461,1346.71 432.497,1332.58 443.533,1317.57 454.569,1301.68 465.605,1284.9 476.641,1267.27 487.677,1248.79 498.713,1229.5 509.749,1209.44 520.785,1188.66 531.821,1167.21 542.857,1145.17 553.893,1122.6 564.929,1099.59 575.965,1076.24 587.001,1052.65 598.037,1028.93 609.073,1005.2 620.109,981.573 631.145,958.182 642.181,935.159 653.217,912.639 664.253,890.758 675.289,869.652 686.325,849.457 697.361,830.306 708.397,812.326 719.433,795.643 730.469,780.371 741.505,766.619 752.541,754.486 763.576,744.059 774.612,735.415 785.648,728.617 796.684,723.716 807.72,720.746 818.756,719.73 829.792,720.674 840.828,723.57 851.864,728.394 862.9,735.11 873.936,743.665 884.972,753.994 896.008,766.021 907.044,779.656 918.08,794.799 929.116,811.342 940.152,829.168 951.188,848.153 962.224,868.169 973.26,889.083 984.296,910.76 995.332,933.064 1006.37,955.861 1017.4,979.015 1028.44,1002.4 1039.48,1025.88 1050.51,1049.34 1061.55,1072.67 1072.58,1095.75 1083.62,1118.5 1094.66,1140.8 1105.69,1162.58 1116.73,1183.77 1127.76,1204.31 1138.8,1224.12 1149.84,1243.17 1160.87,1261.42 1171.91,1278.84 1182.94,1295.4 1193.98,1311.09 1205.02,1325.91 1216.05,1339.84 1227.09,1352.9 1238.12,1365.09 1249.16,1376.41 1260.2,1386.88 1271.23,1396.5 1282.27,1405.27 1293.3,1413.21 1304.34,1420.29 1315.37,1426.49 1326.41,1431.78 1337.45,1436.11 1348.48,1439.38 1359.52,1441.51 1370.55,1442.36 1381.59,1441.76 1392.63,1439.52 1403.66,1435.4 1414.7,1429.12 1425.73,1420.4 1436.77,1408.9 1447.81,1394.29 1458.84,1376.21 1469.88,1354.34 1480.91,1328.4 1491.95,1298.13 1502.99,1263.39 1514.02,1224.12 1525.06,1180.42 1536.09,1132.51 1547.13,1080.8 1558.17,1025.87 1569.2,968.488 1580.24,909.588 1591.27,850.266 1602.31,791.748 1613.35,735.349 1624.38,682.429 1635.42,634.343 1646.45,592.381 1657.49,557.713 1668.53,531.338 1679.56,514.03 1690.6,506.311 1701.63,508.414 1712.67,520.281 1723.71,541.56 1734.74,571.627 1745.78,609.61 1756.81,654.441 1767.85,704.895 1778.89,759.653 1789.92,817.358 1800.96,876.665 1811.99,936.298 1823.03,995.088 1834.07,1052.01 1845.1,1106.2 1856.14,1156.98 1867.17,1203.86 1878.21,1246.52 1889.25,1284.79 1900.28,1318.67 1911.32,1348.26 1922.35,1373.79 1933.39,1395.54 1944.43,1413.83 1955.46,1429.03 1966.5,1441.51 1977.53,1451.63 1988.57,1459.75 1999.6,1466.19 2010.64,1471.23 2021.68,1475.13 2032.71,1478.12 2043.75,1480.38 2054.78,1482.08 2065.82,1483.33 2076.86,1484.25 2087.89,1484.91 2098.93,1485.38 2109.96,1485.72 2121,1485.95 2132.04,1486.12 2143.07,1486.23 2154.11,1486.3 2165.14,1486.35 2176.18,1486.39 2187.22,1486.41 2198.25,1486.42 2209.29,1486.43 2220.32,1486.44 2231.36,1486.44 2242.4,1486.44 2253.43,1486.45 2264.47,1486.45 2275.5,1486.45 2286.54,1486.45 2297.58,1486.45 2308.61,1486.45 2319.65,1486.45 2330.68,1486.45 2341.72,1486.45 2352.76,1486.45 "/>
<polyline clip-path="url(#clip132)" style="stroke:#3da44d; stroke-linecap:round; stroke-linejoin:round; stroke-width:4; stroke-opacity:1; fill:none" points="156.598,1477.94 167.634,1476.57 178.67,1475.01 189.706,1473.23 200.742,1471.22 211.778,1468.94 222.814,1466.37 233.85,1463.48 244.886,1460.25 255.922,1456.63 266.958,1452.6 277.994,1448.12 289.03,1443.16 300.066,1437.68 311.102,1431.65 322.138,1425.02 333.174,1417.77 344.21,1409.85 355.246,1401.24 366.282,1391.9 377.318,1381.8 388.354,1370.91 399.39,1359.21 410.426,1346.68 421.461,1333.3 432.497,1319.06 443.533,1303.96 454.569,1288 465.605,1271.19 476.641,1253.55 487.677,1235.09 498.713,1215.86 509.749,1195.89 520.785,1175.23 531.821,1153.94 542.857,1132.1 553.893,1109.77 564.929,1087.04 575.965,1064.01 587.001,1040.78 598.037,1017.45 609.073,994.156 620.109,971.003 631.145,948.122 642.181,925.644 653.217,903.7 664.253,882.425 675.289,861.952 686.325,842.413 697.361,823.939 708.397,806.653 719.433,790.675 730.469,776.118 741.505,763.085 752.541,751.671 763.576,741.959 774.612,734.021 785.648,727.916 796.684,723.691 807.72,721.376 818.756,720.989 829.792,722.534 840.828,725.998 851.864,731.356 862.9,738.567 873.936,747.577 884.972,758.32 896.008,770.716 907.044,784.676 918.08,800.098 929.116,816.875 940.152,834.889 951.188,854.017 962.224,874.132 973.26,895.102 984.296,916.794 995.332,939.075 1006.37,961.811 1017.4,984.87 1028.44,1008.13 1039.48,1031.45 1050.51,1054.73 1061.55,1077.86 1072.58,1100.72 1083.62,1123.22 1094.66,1145.27 1105.69,1166.79 1116.73,1187.7 1127.76,1207.95 1138.8,1227.49 1149.84,1246.26 1160.87,1264.23 1171.91,1281.37 1182.94,1297.66 1193.98,1313.09 1205.02,1327.65 1216.05,1341.35 1227.09,1354.17 1238.12,1366.14 1249.16,1377.26 1260.2,1387.53 1271.23,1396.98 1282.27,1405.59 1293.3,1413.37 1304.34,1420.31 1315.37,1426.39 1326.41,1431.56 1337.45,1435.78 1348.48,1438.95 1359.52,1440.97 1370.55,1441.71 1381.59,1440.97 1392.63,1438.56 1403.66,1434.22 1414.7,1427.68 1425.73,1418.61 1436.77,1406.66 1447.81,1391.5 1458.84,1372.74 1469.88,1350.05 1480.91,1323.12 1491.95,1291.69 1502.99,1255.61 1514.02,1214.8 1525.06,1169.36 1536.09,1119.53 1547.13,1065.71 1558.17,1008.51 1569.2,948.729 1580.24,887.333 1591.27,825.467 1602.31,764.408 1613.35,705.529 1624.38,650.256 1635.42,600.004 1646.45,556.127 1657.49,519.851 1668.53,492.225 1679.56,474.063 1690.6,465.911 1701.63,468.02 1712.67,480.328 1723.71,502.469 1734.74,533.789 1745.78,573.376 1756.81,620.11 1767.85,672.711 1778.89,729.798 1789.92,789.949 1800.96,851.761 1811.99,913.899 1823.03,975.144 1834.07,1034.43 1845.1,1090.85 1856.14,1143.71 1867.17,1192.49 1878.21,1236.86 1889.25,1276.67 1900.28,1311.9 1911.32,1342.67 1922.35,1369.2 1933.39,1391.8 1944.43,1410.82 1955.46,1426.62 1966.5,1439.59 1977.53,1450.12 1988.57,1458.57 1999.6,1465.27 2010.64,1470.52 2021.68,1474.59 2032.71,1477.7 2043.75,1480.07 2054.78,1481.84 2065.82,1483.15 2076.86,1484.11 2087.89,1484.81 2098.93,1485.31 2109.96,1485.67 2121,1485.92 2132.04,1486.09 2143.07,1486.21 2154.11,1486.29 2165.14,1486.35 2176.18,1486.38 2187.22,1486.41 2198.25,1486.42 2209.29,1486.43 2220.32,1486.44 2231.36,1486.44 2242.4,1486.44 2253.43,1486.45 2264.47,1486.45 2275.5,1486.45 2286.54,1486.45 2297.58,1486.45 2308.61,1486.45 2319.65,1486.45 2330.68,1486.45 2341.72,1486.45 2352.76,1486.45 "/>
<path clip-path="url(#clip130)" d="M1542.09 302.578 L2279.55 302.578 L2279.55 95.2176 L1542.09 95.2176  Z" fill="#ffffff" fill-rule="evenodd" fill-opacity="1"/>
<polyline clip-path="url(#clip130)" style="stroke:#000000; stroke-linecap:round; stroke-linejoin:round; stroke-width:4; stroke-opacity:1; fill:none" points="1542.09,302.578 2279.55,302.578 2279.55,95.2176 1542.09,95.2176 1542.09,302.578 "/>
<path clip-path="url(#clip130)" d="M1566.49 167.794 L1712.9 167.794 L1712.9 126.322 L1566.49 126.322 L1566.49 167.794  Z" fill="#009af9" fill-rule="evenodd" fill-opacity="1"/>
<polyline clip-path="url(#clip130)" style="stroke:#000000; stroke-linecap:round; stroke-linejoin:round; stroke-width:4; stroke-opacity:1; fill:none" points="1566.49,167.794 1712.9,167.794 1712.9,126.322 1566.49,126.322 1566.49,167.794 "/>
<path clip-path="url(#clip130)" d="M1759.02 148.689 L1759.02 164.338 L1754.76 164.338 L1754.76 148.828 Q1754.76 145.148 1753.32 143.319 Q1751.89 141.49 1749.02 141.49 Q1745.57 141.49 1743.58 143.69 Q1741.59 145.889 1741.59 149.685 L1741.59 164.338 L1737.3 164.338 L1737.3 138.412 L1741.59 138.412 L1741.59 142.44 Q1743.11 140.102 1745.17 138.944 Q1747.26 137.787 1749.97 137.787 Q1754.43 137.787 1756.73 140.565 Q1759.02 143.319 1759.02 148.689 Z" fill="#000000" fill-rule="nonzero" fill-opacity="1" /><path clip-path="url(#clip130)" d="M1777.56 141.398 Q1774.13 141.398 1772.14 144.083 Q1770.15 146.745 1770.15 151.398 Q1770.15 156.051 1772.12 158.736 Q1774.11 161.398 1777.56 161.398 Q1780.96 161.398 1782.95 158.713 Q1784.94 156.027 1784.94 151.398 Q1784.94 146.791 1782.95 144.106 Q1780.96 141.398 1777.56 141.398 M1777.56 137.787 Q1783.11 137.787 1786.29 141.398 Q1789.46 145.009 1789.46 151.398 Q1789.46 157.764 1786.29 161.398 Q1783.11 165.009 1777.56 165.009 Q1771.98 165.009 1768.81 161.398 Q1765.66 157.764 1765.66 151.398 Q1765.66 145.009 1768.81 141.398 Q1771.98 137.787 1777.56 137.787 Z" fill="#000000" fill-rule="nonzero" fill-opacity="1" /><path clip-path="url(#clip130)" d="M1811.54 142.393 Q1810.82 141.977 1809.97 141.791 Q1809.13 141.583 1808.11 141.583 Q1804.5 141.583 1802.56 143.944 Q1800.64 146.282 1800.64 150.68 L1800.64 164.338 L1796.36 164.338 L1796.36 138.412 L1800.64 138.412 L1800.64 142.44 Q1801.98 140.078 1804.13 138.944 Q1806.29 137.787 1809.36 137.787 Q1809.8 137.787 1810.34 137.856 Q1810.87 137.903 1811.52 138.018 L1811.54 142.393 Z" fill="#000000" fill-rule="nonzero" fill-opacity="1" /><path clip-path="url(#clip130)" d="M1835.36 143.389 Q1836.96 140.518 1839.18 139.153 Q1841.4 137.787 1844.41 137.787 Q1848.46 137.787 1850.66 140.634 Q1852.86 143.458 1852.86 148.689 L1852.86 164.338 L1848.58 164.338 L1848.58 148.828 Q1848.58 145.102 1847.26 143.296 Q1845.94 141.49 1843.23 141.49 Q1839.92 141.49 1838 143.69 Q1836.08 145.889 1836.08 149.685 L1836.08 164.338 L1831.79 164.338 L1831.79 148.828 Q1831.79 145.078 1830.48 143.296 Q1829.16 141.49 1826.4 141.49 Q1823.14 141.49 1821.22 143.713 Q1819.29 145.912 1819.29 149.685 L1819.29 164.338 L1815.01 164.338 L1815.01 138.412 L1819.29 138.412 L1819.29 142.44 Q1820.75 140.055 1822.79 138.921 Q1824.83 137.787 1827.63 137.787 Q1830.45 137.787 1832.42 139.222 Q1834.41 140.657 1835.36 143.389 Z" fill="#000000" fill-rule="nonzero" fill-opacity="1" /><path clip-path="url(#clip130)" d="M1873.14 151.305 Q1867.98 151.305 1865.98 152.486 Q1863.99 153.666 1863.99 156.514 Q1863.99 158.782 1865.48 160.125 Q1866.98 161.444 1869.55 161.444 Q1873.09 161.444 1875.22 158.944 Q1877.37 156.421 1877.37 152.254 L1877.37 151.305 L1873.14 151.305 M1881.63 149.546 L1881.63 164.338 L1877.37 164.338 L1877.37 160.402 Q1875.91 162.763 1873.74 163.898 Q1871.56 165.009 1868.41 165.009 Q1864.43 165.009 1862.07 162.787 Q1859.73 160.541 1859.73 156.791 Q1859.73 152.416 1862.65 150.194 Q1865.59 147.972 1871.4 147.972 L1877.37 147.972 L1877.37 147.555 Q1877.37 144.615 1875.43 143.018 Q1873.51 141.398 1870.01 141.398 Q1867.79 141.398 1865.68 141.93 Q1863.58 142.463 1861.63 143.527 L1861.63 139.592 Q1863.97 138.69 1866.17 138.25 Q1868.37 137.787 1870.45 137.787 Q1876.08 137.787 1878.85 140.703 Q1881.63 143.62 1881.63 149.546 Z" fill="#000000" fill-rule="nonzero" fill-opacity="1" /><path clip-path="url(#clip130)" d="M1890.41 128.319 L1894.66 128.319 L1894.66 164.338 L1890.41 164.338 L1890.41 128.319 Z" fill="#000000" fill-rule="nonzero" fill-opacity="1" /><path clip-path="url(#clip130)" d="M1903.58 138.412 L1907.84 138.412 L1907.84 164.338 L1903.58 164.338 L1903.58 138.412 M1903.58 128.319 L1907.84 128.319 L1907.84 133.713 L1903.58 133.713 L1903.58 128.319 Z" fill="#000000" fill-rule="nonzero" fill-opacity="1" /><path clip-path="url(#clip130)" d="M1914.9 138.412 L1935.13 138.412 L1935.13 142.301 L1919.11 160.935 L1935.13 160.935 L1935.13 164.338 L1914.32 164.338 L1914.32 160.449 L1930.34 141.815 L1914.9 141.815 L1914.9 138.412 Z" fill="#000000" fill-rule="nonzero" fill-opacity="1" /><path clip-path="url(#clip130)" d="M1963.81 150.31 L1963.81 152.393 L1944.22 152.393 Q1944.5 156.791 1946.86 159.106 Q1949.25 161.398 1953.48 161.398 Q1955.94 161.398 1958.23 160.796 Q1960.54 160.194 1962.81 158.99 L1962.81 163.018 Q1960.52 163.99 1958.11 164.5 Q1955.71 165.009 1953.23 165.009 Q1947.03 165.009 1943.39 161.398 Q1939.78 157.787 1939.78 151.629 Q1939.78 145.264 1943.21 141.537 Q1946.66 137.787 1952.49 137.787 Q1957.72 137.787 1960.75 141.166 Q1963.81 144.523 1963.81 150.31 M1959.55 149.06 Q1959.5 145.565 1957.58 143.481 Q1955.68 141.398 1952.53 141.398 Q1948.97 141.398 1946.82 143.412 Q1944.69 145.426 1944.36 149.083 L1959.55 149.06 Z" fill="#000000" fill-rule="nonzero" fill-opacity="1" /><path clip-path="url(#clip130)" d="M1987.86 142.347 L1987.86 128.319 L1992.12 128.319 L1992.12 164.338 L1987.86 164.338 L1987.86 160.449 Q1986.52 162.763 1984.46 163.898 Q1982.42 165.009 1979.55 165.009 Q1974.85 165.009 1971.89 161.259 Q1968.95 157.509 1968.95 151.398 Q1968.95 145.287 1971.89 141.537 Q1974.85 137.787 1979.55 137.787 Q1982.42 137.787 1984.46 138.921 Q1986.52 140.032 1987.86 142.347 M1973.34 151.398 Q1973.34 156.097 1975.27 158.782 Q1977.21 161.444 1980.59 161.444 Q1983.97 161.444 1985.91 158.782 Q1987.86 156.097 1987.86 151.398 Q1987.86 146.699 1985.91 144.037 Q1983.97 141.352 1980.59 141.352 Q1977.21 141.352 1975.27 144.037 Q1973.34 146.699 1973.34 151.398 Z" fill="#000000" fill-rule="nonzero" fill-opacity="1" /><path clip-path="url(#clip130)" d="M2037.51 148.689 L2037.51 164.338 L2033.25 164.338 L2033.25 148.828 Q2033.25 145.148 2031.82 143.319 Q2030.38 141.49 2027.51 141.49 Q2024.06 141.49 2022.07 143.69 Q2020.08 145.889 2020.08 149.685 L2020.08 164.338 L2015.8 164.338 L2015.8 128.319 L2020.08 128.319 L2020.08 142.44 Q2021.61 140.102 2023.67 138.944 Q2025.75 137.787 2028.46 137.787 Q2032.93 137.787 2035.22 140.565 Q2037.51 143.319 2037.51 148.689 Z" fill="#000000" fill-rule="nonzero" fill-opacity="1" /><path clip-path="url(#clip130)" d="M2046.01 138.412 L2050.27 138.412 L2050.27 164.338 L2046.01 164.338 L2046.01 138.412 M2046.01 128.319 L2050.27 128.319 L2050.27 133.713 L2046.01 133.713 L2046.01 128.319 Z" fill="#000000" fill-rule="nonzero" fill-opacity="1" /><path clip-path="url(#clip130)" d="M2075.71 139.176 L2075.71 143.203 Q2073.9 142.277 2071.96 141.815 Q2070.01 141.352 2067.93 141.352 Q2064.76 141.352 2063.16 142.324 Q2061.59 143.296 2061.59 145.24 Q2061.59 146.722 2062.72 147.578 Q2063.85 148.412 2067.28 149.176 L2068.74 149.5 Q2073.27 150.472 2075.17 152.254 Q2077.09 154.014 2077.09 157.185 Q2077.09 160.796 2074.22 162.902 Q2071.38 165.009 2066.38 165.009 Q2064.29 165.009 2062.02 164.592 Q2059.78 164.199 2057.28 163.388 L2057.28 158.99 Q2059.64 160.217 2061.93 160.842 Q2064.22 161.444 2066.47 161.444 Q2069.48 161.444 2071.1 160.426 Q2072.72 159.384 2072.72 157.509 Q2072.72 155.773 2071.54 154.847 Q2070.38 153.921 2066.42 153.064 L2064.94 152.717 Q2060.98 151.884 2059.22 150.171 Q2057.46 148.435 2057.46 145.426 Q2057.46 141.768 2060.06 139.778 Q2062.65 137.787 2067.42 137.787 Q2069.78 137.787 2071.86 138.134 Q2073.95 138.481 2075.71 139.176 Z" fill="#000000" fill-rule="nonzero" fill-opacity="1" /><path clip-path="url(#clip130)" d="M2088.09 131.051 L2088.09 138.412 L2096.86 138.412 L2096.86 141.722 L2088.09 141.722 L2088.09 155.796 Q2088.09 158.967 2088.95 159.87 Q2089.83 160.773 2092.49 160.773 L2096.86 160.773 L2096.86 164.338 L2092.49 164.338 Q2087.56 164.338 2085.68 162.509 Q2083.81 160.657 2083.81 155.796 L2083.81 141.722 L2080.68 141.722 L2080.68 138.412 L2083.81 138.412 L2083.81 131.051 L2088.09 131.051 Z" fill="#000000" fill-rule="nonzero" fill-opacity="1" /><path clip-path="url(#clip130)" d="M2112.51 141.398 Q2109.08 141.398 2107.09 144.083 Q2105.1 146.745 2105.1 151.398 Q2105.1 156.051 2107.07 158.736 Q2109.06 161.398 2112.51 161.398 Q2115.91 161.398 2117.9 158.713 Q2119.89 156.027 2119.89 151.398 Q2119.89 146.791 2117.9 144.106 Q2115.91 141.398 2112.51 141.398 M2112.51 137.787 Q2118.07 137.787 2121.24 141.398 Q2124.41 145.009 2124.41 151.398 Q2124.41 157.764 2121.24 161.398 Q2118.07 165.009 2112.51 165.009 Q2106.93 165.009 2103.76 161.398 Q2100.61 157.764 2100.61 151.398 Q2100.61 145.009 2103.76 141.398 Q2106.93 137.787 2112.51 137.787 Z" fill="#000000" fill-rule="nonzero" fill-opacity="1" /><path clip-path="url(#clip130)" d="M2148.53 151.074 Q2148.53 146.444 2146.61 143.898 Q2144.71 141.352 2141.26 141.352 Q2137.83 141.352 2135.91 143.898 Q2134.02 146.444 2134.02 151.074 Q2134.02 155.68 2135.91 158.226 Q2137.83 160.773 2141.26 160.773 Q2144.71 160.773 2146.61 158.226 Q2148.53 155.68 2148.53 151.074 M2152.79 161.12 Q2152.79 167.74 2149.85 170.958 Q2146.91 174.199 2140.84 174.199 Q2138.6 174.199 2136.61 173.851 Q2134.62 173.527 2132.74 172.833 L2132.74 168.689 Q2134.62 169.708 2136.45 170.194 Q2138.27 170.68 2140.17 170.68 Q2144.36 170.68 2146.45 168.481 Q2148.53 166.305 2148.53 161.884 L2148.53 159.777 Q2147.21 162.069 2145.15 163.203 Q2143.09 164.338 2140.22 164.338 Q2135.45 164.338 2132.53 160.703 Q2129.62 157.069 2129.62 151.074 Q2129.62 145.055 2132.53 141.421 Q2135.45 137.787 2140.22 137.787 Q2143.09 137.787 2145.15 138.921 Q2147.21 140.055 2148.53 142.347 L2148.53 138.412 L2152.79 138.412 L2152.79 161.12 Z" fill="#000000" fill-rule="nonzero" fill-opacity="1" /><path clip-path="url(#clip130)" d="M2176.58 142.393 Q2175.87 141.977 2175.01 141.791 Q2174.18 141.583 2173.16 141.583 Q2169.55 141.583 2167.6 143.944 Q2165.68 146.282 2165.68 150.68 L2165.68 164.338 L2161.4 164.338 L2161.4 138.412 L2165.68 138.412 L2165.68 142.44 Q2167.02 140.078 2169.18 138.944 Q2171.33 137.787 2174.41 137.787 Q2174.85 137.787 2175.38 137.856 Q2175.91 137.903 2176.56 138.018 L2176.58 142.393 Z" fill="#000000" fill-rule="nonzero" fill-opacity="1" /><path clip-path="url(#clip130)" d="M2192.83 151.305 Q2187.67 151.305 2185.68 152.486 Q2183.69 153.666 2183.69 156.514 Q2183.69 158.782 2185.17 160.125 Q2186.68 161.444 2189.25 161.444 Q2192.79 161.444 2194.92 158.944 Q2197.07 156.421 2197.07 152.254 L2197.07 151.305 L2192.83 151.305 M2201.33 149.546 L2201.33 164.338 L2197.07 164.338 L2197.07 160.402 Q2195.61 162.763 2193.44 163.898 Q2191.26 165.009 2188.11 165.009 Q2184.13 165.009 2181.77 162.787 Q2179.43 160.541 2179.43 156.791 Q2179.43 152.416 2182.35 150.194 Q2185.29 147.972 2191.1 147.972 L2197.07 147.972 L2197.07 147.555 Q2197.07 144.615 2195.13 143.018 Q2193.2 141.398 2189.71 141.398 Q2187.49 141.398 2185.38 141.93 Q2183.27 142.463 2181.33 143.527 L2181.33 139.592 Q2183.67 138.69 2185.87 138.25 Q2188.07 137.787 2190.15 137.787 Q2195.77 137.787 2198.55 140.703 Q2201.33 143.62 2201.33 149.546 Z" fill="#000000" fill-rule="nonzero" fill-opacity="1" /><path clip-path="url(#clip130)" d="M2230.29 143.389 Q2231.89 140.518 2234.11 139.153 Q2236.33 137.787 2239.34 137.787 Q2243.39 137.787 2245.59 140.634 Q2247.79 143.458 2247.79 148.689 L2247.79 164.338 L2243.51 164.338 L2243.51 148.828 Q2243.51 145.102 2242.19 143.296 Q2240.87 141.49 2238.16 141.49 Q2234.85 141.49 2232.93 143.69 Q2231.01 145.889 2231.01 149.685 L2231.01 164.338 L2226.72 164.338 L2226.72 148.828 Q2226.72 145.078 2225.4 143.296 Q2224.08 141.49 2221.33 141.49 Q2218.07 141.49 2216.14 143.713 Q2214.22 145.912 2214.22 149.685 L2214.22 164.338 L2209.94 164.338 L2209.94 138.412 L2214.22 138.412 L2214.22 142.44 Q2215.68 140.055 2217.72 138.921 Q2219.76 137.787 2222.56 137.787 Q2225.38 137.787 2227.35 139.222 Q2229.34 140.657 2230.29 143.389 Z" fill="#000000" fill-rule="nonzero" fill-opacity="1" /><polyline clip-path="url(#clip130)" style="stroke:#e26f46; stroke-linecap:round; stroke-linejoin:round; stroke-width:4; stroke-opacity:1; fill:none" points="1566.49,198.898 1712.9,198.898 "/>
<path clip-path="url(#clip130)" d="M1737.3 181.618 L1741.98 181.618 L1741.98 212.242 L1758.81 212.242 L1758.81 216.178 L1737.3 216.178 L1737.3 181.618 Z" fill="#000000" fill-rule="nonzero" fill-opacity="1" /><path clip-path="url(#clip130)" d="M1775.31 203.145 Q1770.15 203.145 1768.16 204.326 Q1766.17 205.506 1766.17 208.354 Q1766.17 210.622 1767.65 211.965 Q1769.16 213.284 1771.73 213.284 Q1775.27 213.284 1777.4 210.784 Q1779.55 208.261 1779.55 204.094 L1779.55 203.145 L1775.31 203.145 M1783.81 201.386 L1783.81 216.178 L1779.55 216.178 L1779.55 212.242 Q1778.09 214.603 1775.92 215.738 Q1773.74 216.849 1770.59 216.849 Q1766.61 216.849 1764.25 214.627 Q1761.91 212.381 1761.91 208.631 Q1761.91 204.256 1764.83 202.034 Q1767.77 199.812 1773.58 199.812 L1779.55 199.812 L1779.55 199.395 Q1779.55 196.455 1777.61 194.858 Q1775.68 193.238 1772.19 193.238 Q1769.97 193.238 1767.86 193.77 Q1765.75 194.303 1763.81 195.367 L1763.81 191.432 Q1766.15 190.53 1768.35 190.09 Q1770.55 189.627 1772.63 189.627 Q1778.25 189.627 1781.03 192.543 Q1783.81 195.46 1783.81 201.386 Z" fill="#000000" fill-rule="nonzero" fill-opacity="1" /><path clip-path="url(#clip130)" d="M1814.13 200.529 L1814.13 216.178 L1809.87 216.178 L1809.87 200.668 Q1809.87 196.988 1808.44 195.159 Q1807 193.33 1804.13 193.33 Q1800.68 193.33 1798.69 195.53 Q1796.7 197.729 1796.7 201.525 L1796.7 216.178 L1792.42 216.178 L1792.42 190.252 L1796.7 190.252 L1796.7 194.28 Q1798.23 191.942 1800.29 190.784 Q1802.37 189.627 1805.08 189.627 Q1809.55 189.627 1811.84 192.405 Q1814.13 195.159 1814.13 200.529 Z" fill="#000000" fill-rule="nonzero" fill-opacity="1" /><path clip-path="url(#clip130)" d="M1839.69 202.914 Q1839.69 198.284 1837.77 195.738 Q1835.87 193.192 1832.42 193.192 Q1828.99 193.192 1827.07 195.738 Q1825.17 198.284 1825.17 202.914 Q1825.17 207.52 1827.07 210.066 Q1828.99 212.613 1832.42 212.613 Q1835.87 212.613 1837.77 210.066 Q1839.69 207.52 1839.69 202.914 M1843.95 212.96 Q1843.95 219.58 1841.01 222.798 Q1838.07 226.039 1832 226.039 Q1829.76 226.039 1827.77 225.691 Q1825.78 225.367 1823.9 224.673 L1823.9 220.529 Q1825.78 221.548 1827.6 222.034 Q1829.43 222.52 1831.33 222.52 Q1835.52 222.52 1837.6 220.321 Q1839.69 218.145 1839.69 213.724 L1839.69 211.617 Q1838.37 213.909 1836.31 215.043 Q1834.25 216.178 1831.38 216.178 Q1826.61 216.178 1823.69 212.543 Q1820.78 208.909 1820.78 202.914 Q1820.78 196.895 1823.69 193.261 Q1826.61 189.627 1831.38 189.627 Q1834.25 189.627 1836.31 190.761 Q1838.37 191.895 1839.69 194.187 L1839.69 190.252 L1843.95 190.252 L1843.95 212.96 Z" fill="#000000" fill-rule="nonzero" fill-opacity="1" /><path clip-path="url(#clip130)" d="M1874.9 202.15 L1874.9 204.233 L1855.31 204.233 Q1855.59 208.631 1857.95 210.946 Q1860.34 213.238 1864.57 213.238 Q1867.03 213.238 1869.32 212.636 Q1871.63 212.034 1873.9 210.83 L1873.9 214.858 Q1871.61 215.83 1869.2 216.34 Q1866.79 216.849 1864.32 216.849 Q1858.11 216.849 1854.48 213.238 Q1850.87 209.627 1850.87 203.469 Q1850.87 197.104 1854.29 193.377 Q1857.74 189.627 1863.58 189.627 Q1868.81 189.627 1871.84 193.006 Q1874.9 196.363 1874.9 202.15 M1870.64 200.9 Q1870.59 197.405 1868.67 195.321 Q1866.77 193.238 1863.62 193.238 Q1860.06 193.238 1857.91 195.252 Q1855.78 197.266 1855.45 200.923 L1870.64 200.9 Z" fill="#000000" fill-rule="nonzero" fill-opacity="1" /><path clip-path="url(#clip130)" d="M1878.83 190.252 L1883.35 190.252 L1891.45 212.011 L1899.55 190.252 L1904.06 190.252 L1894.34 216.178 L1888.55 216.178 L1878.83 190.252 Z" fill="#000000" fill-rule="nonzero" fill-opacity="1" /><path clip-path="url(#clip130)" d="M1909.94 190.252 L1914.2 190.252 L1914.2 216.178 L1909.94 216.178 L1909.94 190.252 M1909.94 180.159 L1914.2 180.159 L1914.2 185.553 L1909.94 185.553 L1909.94 180.159 Z" fill="#000000" fill-rule="nonzero" fill-opacity="1" /><path clip-path="url(#clip130)" d="M1944.66 200.529 L1944.66 216.178 L1940.41 216.178 L1940.41 200.668 Q1940.41 196.988 1938.97 195.159 Q1937.53 193.33 1934.66 193.33 Q1931.22 193.33 1929.22 195.53 Q1927.23 197.729 1927.23 201.525 L1927.23 216.178 L1922.95 216.178 L1922.95 190.252 L1927.23 190.252 L1927.23 194.28 Q1928.76 191.942 1930.82 190.784 Q1932.91 189.627 1935.61 189.627 Q1940.08 189.627 1942.37 192.405 Q1944.66 195.159 1944.66 200.529 Z" fill="#000000" fill-rule="nonzero" fill-opacity="1" /><path clip-path="url(#clip130)" d="M1990.4 202.15 L1990.4 204.233 L1970.82 204.233 Q1971.1 208.631 1973.46 210.946 Q1975.84 213.238 1980.08 213.238 Q1982.53 213.238 1984.83 212.636 Q1987.14 212.034 1989.41 210.83 L1989.41 214.858 Q1987.12 215.83 1984.71 216.34 Q1982.3 216.849 1979.83 216.849 Q1973.62 216.849 1969.99 213.238 Q1966.38 209.627 1966.38 203.469 Q1966.38 197.104 1969.8 193.377 Q1973.25 189.627 1979.09 189.627 Q1984.32 189.627 1987.35 193.006 Q1990.4 196.363 1990.4 202.15 M1986.15 200.9 Q1986.1 197.405 1984.18 195.321 Q1982.28 193.238 1979.13 193.238 Q1975.57 193.238 1973.41 195.252 Q1971.28 197.266 1970.96 200.923 L1986.15 200.9 Z" fill="#000000" fill-rule="nonzero" fill-opacity="1" /><path clip-path="url(#clip130)" d="M1994.34 190.252 L1998.85 190.252 L2006.96 212.011 L2015.06 190.252 L2019.57 190.252 L2009.85 216.178 L2004.06 216.178 L1994.34 190.252 Z" fill="#000000" fill-rule="nonzero" fill-opacity="1" /><path clip-path="url(#clip130)" d="M2035.5 193.238 Q2032.07 193.238 2030.08 195.923 Q2028.09 198.585 2028.09 203.238 Q2028.09 207.891 2030.06 210.576 Q2032.05 213.238 2035.5 213.238 Q2038.9 213.238 2040.89 210.553 Q2042.88 207.867 2042.88 203.238 Q2042.88 198.631 2040.89 195.946 Q2038.9 193.238 2035.5 193.238 M2035.5 189.627 Q2041.05 189.627 2044.22 193.238 Q2047.4 196.849 2047.4 203.238 Q2047.4 209.604 2044.22 213.238 Q2041.05 216.849 2035.5 216.849 Q2029.92 216.849 2026.75 213.238 Q2023.6 209.604 2023.6 203.238 Q2023.6 196.849 2026.75 193.238 Q2029.92 189.627 2035.5 189.627 Z" fill="#000000" fill-rule="nonzero" fill-opacity="1" /><path clip-path="url(#clip130)" d="M2054.46 180.159 L2058.71 180.159 L2058.71 216.178 L2054.46 216.178 L2054.46 180.159 Z" fill="#000000" fill-rule="nonzero" fill-opacity="1" /><path clip-path="url(#clip130)" d="M2064.57 190.252 L2069.09 190.252 L2077.19 212.011 L2085.29 190.252 L2089.8 190.252 L2080.08 216.178 L2074.29 216.178 L2064.57 190.252 Z" fill="#000000" fill-rule="nonzero" fill-opacity="1" /><path clip-path="url(#clip130)" d="M2117.86 202.15 L2117.86 204.233 L2098.27 204.233 Q2098.55 208.631 2100.91 210.946 Q2103.3 213.238 2107.53 213.238 Q2109.99 213.238 2112.28 212.636 Q2114.59 212.034 2116.86 210.83 L2116.86 214.858 Q2114.57 215.83 2112.16 216.34 Q2109.76 216.849 2107.28 216.849 Q2101.08 216.849 2097.44 213.238 Q2093.83 209.627 2093.83 203.469 Q2093.83 197.104 2097.26 193.377 Q2100.71 189.627 2106.54 189.627 Q2111.77 189.627 2114.8 193.006 Q2117.86 196.363 2117.86 202.15 M2113.6 200.9 Q2113.55 197.405 2111.63 195.321 Q2109.73 193.238 2106.58 193.238 Q2103.02 193.238 2100.87 195.252 Q2098.74 197.266 2098.41 200.923 L2113.6 200.9 Z" fill="#000000" fill-rule="nonzero" fill-opacity="1" /><path clip-path="url(#clip130)" d="M2141.91 194.187 L2141.91 180.159 L2146.17 180.159 L2146.17 216.178 L2141.91 216.178 L2141.91 212.289 Q2140.57 214.603 2138.51 215.738 Q2136.47 216.849 2133.6 216.849 Q2128.9 216.849 2125.94 213.099 Q2123 209.349 2123 203.238 Q2123 197.127 2125.94 193.377 Q2128.9 189.627 2133.6 189.627 Q2136.47 189.627 2138.51 190.761 Q2140.57 191.872 2141.91 194.187 M2127.39 203.238 Q2127.39 207.937 2129.32 210.622 Q2131.26 213.284 2134.64 213.284 Q2138.02 213.284 2139.96 210.622 Q2141.91 207.937 2141.91 203.238 Q2141.91 198.539 2139.96 195.877 Q2138.02 193.192 2134.64 193.192 Q2131.26 193.192 2129.32 195.877 Q2127.39 198.539 2127.39 203.238 Z" fill="#000000" fill-rule="nonzero" fill-opacity="1" /><path clip-path="url(#clip130)" d="M2174.87 185.46 L2174.87 198.446 L2180.75 198.446 Q2184.02 198.446 2185.8 196.756 Q2187.58 195.067 2187.58 191.942 Q2187.58 188.84 2185.8 187.15 Q2184.02 185.46 2180.75 185.46 L2174.87 185.46 M2170.2 181.618 L2180.75 181.618 Q2186.56 181.618 2189.52 184.256 Q2192.51 186.872 2192.51 191.942 Q2192.51 197.057 2189.52 199.673 Q2186.56 202.289 2180.75 202.289 L2174.87 202.289 L2174.87 216.178 L2170.2 216.178 L2170.2 181.618 Z" fill="#000000" fill-rule="nonzero" fill-opacity="1" /><path clip-path="url(#clip130)" d="M2203.46 185.46 L2203.46 212.335 L2209.11 212.335 Q2216.26 212.335 2219.57 209.094 Q2222.9 205.854 2222.9 198.863 Q2222.9 191.918 2219.57 188.701 Q2216.26 185.46 2209.11 185.46 L2203.46 185.46 M2198.78 181.618 L2208.39 181.618 Q2218.44 181.618 2223.14 185.807 Q2227.83 189.974 2227.83 198.863 Q2227.83 207.798 2223.11 211.988 Q2218.39 216.178 2208.39 216.178 L2198.78 216.178 L2198.78 181.618 Z" fill="#000000" fill-rule="nonzero" fill-opacity="1" /><path clip-path="url(#clip130)" d="M2235.29 181.618 L2255.15 181.618 L2255.15 185.553 L2239.96 185.553 L2239.96 195.738 L2253.67 195.738 L2253.67 199.673 L2239.96 199.673 L2239.96 216.178 L2235.29 216.178 L2235.29 181.618 Z" fill="#000000" fill-rule="nonzero" fill-opacity="1" /><polyline clip-path="url(#clip130)" style="stroke:#3da44d; stroke-linecap:round; stroke-linejoin:round; stroke-width:4; stroke-opacity:1; fill:none" points="1566.49,250.738 1712.9,250.738 "/>
<path clip-path="url(#clip130)" d="M1756.22 246.027 L1756.22 231.999 L1760.48 231.999 L1760.48 268.018 L1756.22 268.018 L1756.22 264.129 Q1754.87 266.443 1752.81 267.578 Q1750.78 268.689 1747.91 268.689 Q1743.21 268.689 1740.24 264.939 Q1737.3 261.189 1737.3 255.078 Q1737.3 248.967 1740.24 245.217 Q1743.21 241.467 1747.91 241.467 Q1750.78 241.467 1752.81 242.601 Q1754.87 243.712 1756.22 246.027 M1741.7 255.078 Q1741.7 259.777 1743.62 262.462 Q1745.57 265.124 1748.95 265.124 Q1752.33 265.124 1754.27 262.462 Q1756.22 259.777 1756.22 255.078 Q1756.22 250.379 1754.27 247.717 Q1752.33 245.032 1748.95 245.032 Q1745.57 245.032 1743.62 247.717 Q1741.7 250.379 1741.7 255.078 Z" fill="#000000" fill-rule="nonzero" fill-opacity="1" /><path clip-path="url(#clip130)" d="M1791.42 253.99 L1791.42 256.073 L1771.84 256.073 Q1772.12 260.471 1774.48 262.786 Q1776.86 265.078 1781.1 265.078 Q1783.55 265.078 1785.85 264.476 Q1788.16 263.874 1790.43 262.67 L1790.43 266.698 Q1788.14 267.67 1785.73 268.18 Q1783.32 268.689 1780.85 268.689 Q1774.64 268.689 1771.01 265.078 Q1767.4 261.467 1767.4 255.309 Q1767.4 248.944 1770.82 245.217 Q1774.27 241.467 1780.11 241.467 Q1785.34 241.467 1788.37 244.846 Q1791.42 248.203 1791.42 253.99 M1787.17 252.74 Q1787.12 249.245 1785.2 247.161 Q1783.3 245.078 1780.15 245.078 Q1776.59 245.078 1774.43 247.092 Q1772.3 249.106 1771.98 252.763 L1787.17 252.74 Z" fill="#000000" fill-rule="nonzero" fill-opacity="1" /><path clip-path="url(#clip130)" d="M1814.94 242.856 L1814.94 246.883 Q1813.14 245.957 1811.19 245.495 Q1809.25 245.032 1807.17 245.032 Q1803.99 245.032 1802.4 246.004 Q1800.82 246.976 1800.82 248.92 Q1800.82 250.402 1801.96 251.258 Q1803.09 252.092 1806.52 252.856 L1807.98 253.18 Q1812.51 254.152 1814.41 255.934 Q1816.33 257.694 1816.33 260.865 Q1816.33 264.476 1813.46 266.582 Q1810.61 268.689 1805.61 268.689 Q1803.53 268.689 1801.26 268.272 Q1799.02 267.879 1796.52 267.068 L1796.52 262.67 Q1798.88 263.897 1801.17 264.522 Q1803.46 265.124 1805.71 265.124 Q1808.72 265.124 1810.34 264.106 Q1811.96 263.064 1811.96 261.189 Q1811.96 259.453 1810.78 258.527 Q1809.62 257.601 1805.66 256.744 L1804.18 256.397 Q1800.22 255.564 1798.46 253.851 Q1796.7 252.115 1796.7 249.106 Q1796.7 245.448 1799.29 243.458 Q1801.89 241.467 1806.66 241.467 Q1809.02 241.467 1811.1 241.814 Q1813.18 242.161 1814.94 242.856 Z" fill="#000000" fill-rule="nonzero" fill-opacity="1" /><path clip-path="url(#clip130)" d="M1823.11 242.092 L1827.37 242.092 L1827.37 268.018 L1823.11 268.018 L1823.11 242.092 M1823.11 231.999 L1827.37 231.999 L1827.37 237.393 L1823.11 237.393 L1823.11 231.999 Z" fill="#000000" fill-rule="nonzero" fill-opacity="1" /><path clip-path="url(#clip130)" d="M1851.31 246.073 Q1850.59 245.657 1849.73 245.471 Q1848.9 245.263 1847.88 245.263 Q1844.27 245.263 1842.33 247.624 Q1840.41 249.962 1840.41 254.36 L1840.41 268.018 L1836.12 268.018 L1836.12 242.092 L1840.41 242.092 L1840.41 246.12 Q1841.75 243.758 1843.9 242.624 Q1846.05 241.467 1849.13 241.467 Q1849.57 241.467 1850.1 241.536 Q1850.64 241.583 1851.29 241.698 L1851.31 246.073 Z" fill="#000000" fill-rule="nonzero" fill-opacity="1" /><path clip-path="url(#clip130)" d="M1876.91 253.99 L1876.91 256.073 L1857.33 256.073 Q1857.6 260.471 1859.97 262.786 Q1862.35 265.078 1866.59 265.078 Q1869.04 265.078 1871.33 264.476 Q1873.65 263.874 1875.91 262.67 L1875.91 266.698 Q1873.62 267.67 1871.22 268.18 Q1868.81 268.689 1866.33 268.689 Q1860.13 268.689 1856.49 265.078 Q1852.88 261.467 1852.88 255.309 Q1852.88 248.944 1856.31 245.217 Q1859.76 241.467 1865.59 241.467 Q1870.82 241.467 1873.85 244.846 Q1876.91 248.203 1876.91 253.99 M1872.65 252.74 Q1872.6 249.245 1870.68 247.161 Q1868.79 245.078 1865.64 245.078 Q1862.07 245.078 1859.92 247.092 Q1857.79 249.106 1857.47 252.763 L1872.65 252.74 Z" fill="#000000" fill-rule="nonzero" fill-opacity="1" /><path clip-path="url(#clip130)" d="M1900.96 246.027 L1900.96 231.999 L1905.22 231.999 L1905.22 268.018 L1900.96 268.018 L1900.96 264.129 Q1899.62 266.443 1897.56 267.578 Q1895.52 268.689 1892.65 268.689 Q1887.95 268.689 1884.99 264.939 Q1882.05 261.189 1882.05 255.078 Q1882.05 248.967 1884.99 245.217 Q1887.95 241.467 1892.65 241.467 Q1895.52 241.467 1897.56 242.601 Q1899.62 243.712 1900.96 246.027 M1886.45 255.078 Q1886.45 259.777 1888.37 262.462 Q1890.31 265.124 1893.69 265.124 Q1897.07 265.124 1899.02 262.462 Q1900.96 259.777 1900.96 255.078 Q1900.96 250.379 1899.02 247.717 Q1897.07 245.032 1893.69 245.032 Q1890.31 245.032 1888.37 247.717 Q1886.45 250.379 1886.45 255.078 Z" fill="#000000" fill-rule="nonzero" fill-opacity="1" /><path clip-path="url(#clip130)" d="M1933.92 237.3 L1933.92 250.286 L1939.8 250.286 Q1943.07 250.286 1944.85 248.596 Q1946.63 246.907 1946.63 243.782 Q1946.63 240.68 1944.85 238.99 Q1943.07 237.3 1939.8 237.3 L1933.92 237.3 M1929.25 233.458 L1939.8 233.458 Q1945.61 233.458 1948.58 236.096 Q1951.56 238.712 1951.56 243.782 Q1951.56 248.897 1948.58 251.513 Q1945.61 254.129 1939.8 254.129 L1933.92 254.129 L1933.92 268.018 L1929.25 268.018 L1929.25 233.458 Z" fill="#000000" fill-rule="nonzero" fill-opacity="1" /><path clip-path="url(#clip130)" d="M1962.51 237.3 L1962.51 264.175 L1968.16 264.175 Q1975.31 264.175 1978.62 260.934 Q1981.96 257.694 1981.96 250.703 Q1981.96 243.758 1978.62 240.541 Q1975.31 237.3 1968.16 237.3 L1962.51 237.3 M1957.84 233.458 L1967.44 233.458 Q1977.49 233.458 1982.19 237.647 Q1986.89 241.814 1986.89 250.703 Q1986.89 259.638 1982.16 263.828 Q1977.44 268.018 1967.44 268.018 L1957.84 268.018 L1957.84 233.458 Z" fill="#000000" fill-rule="nonzero" fill-opacity="1" /><path clip-path="url(#clip130)" d="M1994.34 233.458 L2014.2 233.458 L2014.2 237.393 L1999.02 237.393 L1999.02 247.578 L2012.72 247.578 L2012.72 251.513 L1999.02 251.513 L1999.02 268.018 L1994.34 268.018 L1994.34 233.458 Z" fill="#000000" fill-rule="nonzero" fill-opacity="1" /></svg>
